<?xml version="1.0" encoding="UTF-8" standalone="no"?>
<!DOCTYPE svg PUBLIC "-//W3C//DTD SVG 1.1//EN"
 "http://www.w3.org/Graphics/SVG/1.1/DTD/svg11.dtd">
<!-- Generated by graphviz version 3.0.0 (20220226.1711)
 -->
<!-- Pages: 1 -->
<svg width="629pt" height="170pt"
 viewBox="0.00 0.00 629.03 170.12" xmlns="http://www.w3.org/2000/svg" xmlns:xlink="http://www.w3.org/1999/xlink">
<g id="graph0" class="graph" transform="scale(1 1) rotate(0) translate(4 166.12)">
<polygon fill="white" stroke="transparent" points="-4,4 -4,-166.12 625.03,-166.12 625.03,4 -4,4"/>
<!-- &#45;1 -->
<g id="node1" class="node">
<title>&#45;1</title>
<polygon fill="lightgray" stroke="black" points="263.05,-95.91 239.05,-95.91 239.05,-77.91 263.05,-77.91 263.05,-95.91"/>
<text text-anchor="middle" x="251.05" y="-84.71" font-family="Times New Roman,serif" font-size="9.00">&#45;1</text>
</g>
<!-- 0 -->
<g id="node13" class="node">
<title>0</title>
<ellipse fill="lightblue" stroke="black" cx="258.05" cy="-14.85" rx="14.7" ry="14.7"/>
<text text-anchor="middle" x="258.05" y="-12.65" font-family="Times New Roman,serif" font-size="9.00">0</text>
</g>
<!-- &#45;1&#45;&gt;0 -->
<g id="edge1" class="edge">
<title>&#45;1&#45;&gt;0</title>
<path fill="none" stroke="green" stroke-width="0.46" d="M251.86,-77.87C252.77,-68.72 254.31,-53.33 255.62,-40.16"/>
<polygon fill="green" stroke="green" stroke-width="0.46" points="259.15,-40.12 256.66,-29.82 252.18,-39.42 259.15,-40.12"/>
</g>
<!-- 1 -->
<g id="node14" class="node">
<title>1</title>
<ellipse fill="lightblue" stroke="black" cx="306.05" cy="-14.85" rx="14.7" ry="14.7"/>
<text text-anchor="middle" x="306.05" y="-12.65" font-family="Times New Roman,serif" font-size="9.00">1</text>
</g>
<!-- &#45;1&#45;&gt;1 -->
<g id="edge2" class="edge">
<title>&#45;1&#45;&gt;1</title>
<path fill="none" stroke="red" stroke-width="0.24" d="M257.36,-77.87C265.49,-67.52 279.9,-49.17 290.94,-35.11"/>
<polygon fill="red" stroke="red" stroke-width="0.24" points="293.87,-37.04 297.29,-27.01 288.36,-32.72 293.87,-37.04"/>
</g>
<!-- 2 -->
<g id="node15" class="node">
<title>2</title>
<ellipse fill="lightblue" stroke="black" cx="162.05" cy="-14.85" rx="14.7" ry="14.7"/>
<text text-anchor="middle" x="162.05" y="-12.65" font-family="Times New Roman,serif" font-size="9.00">2</text>
</g>
<!-- &#45;1&#45;&gt;2 -->
<g id="edge3" class="edge">
<title>&#45;1&#45;&gt;2</title>
<path fill="none" stroke="red" stroke-width="0.32" stroke-dasharray="1,5" d="M243.11,-77.78C239.28,-73.98 234.55,-69.48 230.05,-65.7 214.62,-52.71 196.09,-39.26 182.28,-29.61"/>
<polygon fill="red" stroke="red" stroke-width="0.32" points="184.18,-26.67 173.96,-23.86 180.2,-32.42 184.18,-26.67"/>
</g>
<!-- 3 -->
<g id="node16" class="node">
<title>3</title>
<ellipse fill="lightblue" stroke="black" cx="210.05" cy="-14.85" rx="14.7" ry="14.7"/>
<text text-anchor="middle" x="210.05" y="-12.65" font-family="Times New Roman,serif" font-size="9.00">3</text>
</g>
<!-- &#45;1&#45;&gt;3 -->
<g id="edge4" class="edge">
<title>&#45;1&#45;&gt;3</title>
<path fill="none" stroke="red" stroke-width="0.27" d="M246.35,-77.87C240.54,-67.95 230.43,-50.67 222.36,-36.87"/>
<polygon fill="red" stroke="red" stroke-width="0.27" points="225.24,-34.87 217.17,-28.01 219.2,-38.41 225.24,-34.87"/>
</g>
<!-- 4 -->
<g id="node17" class="node">
<title>4</title>
<ellipse fill="lightblue" stroke="black" cx="354.05" cy="-14.85" rx="14.7" ry="14.7"/>
<text text-anchor="middle" x="354.05" y="-12.65" font-family="Times New Roman,serif" font-size="9.00">4</text>
</g>
<!-- &#45;1&#45;&gt;4 -->
<g id="edge5" class="edge">
<title>&#45;1&#45;&gt;4</title>
<path fill="none" stroke="red" stroke-width="0.15" stroke-dasharray="1,5" d="M258.85,-77.6C262.66,-73.77 267.4,-69.28 272.05,-65.7 277.51,-61.5 310.14,-41.92 332.55,-28.59"/>
<polygon fill="red" stroke="red" stroke-width="0.15" points="334.61,-31.43 341.42,-23.32 331.04,-25.42 334.61,-31.43"/>
</g>
<!-- &#45;2 -->
<g id="node2" class="node">
<title>&#45;2</title>
<polygon fill="lightgray" stroke="black" points="305.05,-95.91 281.05,-95.91 281.05,-77.91 305.05,-77.91 305.05,-95.91"/>
<text text-anchor="middle" x="293.05" y="-84.71" font-family="Times New Roman,serif" font-size="9.00">&#45;2</text>
</g>
<!-- &#45;2&#45;&gt;0 -->
<g id="edge6" class="edge">
<title>&#45;2&#45;&gt;0</title>
<path fill="none" stroke="green" stroke-width="0.24" d="M289.04,-77.87C284.18,-68.16 275.82,-51.41 269,-37.76"/>
<polygon fill="green" stroke="green" stroke-width="0.24" points="271.98,-35.9 264.38,-28.52 265.72,-39.03 271.98,-35.9"/>
</g>
<!-- &#45;2&#45;&gt;1 -->
<g id="edge7" class="edge">
<title>&#45;2&#45;&gt;1</title>
<path fill="none" stroke="red" stroke-width="0.32" d="M294.54,-77.87C296.27,-68.57 299.19,-52.83 301.66,-39.53"/>
<polygon fill="red" stroke="red" stroke-width="0.32" points="305.13,-40.03 303.51,-29.56 298.24,-38.75 305.13,-40.03"/>
</g>
<!-- &#45;2&#45;&gt;2 -->
<g id="edge8" class="edge">
<title>&#45;2&#45;&gt;2</title>
<path fill="none" stroke="green" stroke-width="0.4" d="M285.87,-77.68C282.06,-73.68 277.13,-69.03 272.05,-65.7 237.43,-42.94 223.18,-48.09 186.05,-29.7 185.22,-29.29 184.38,-28.86 183.54,-28.42"/>
<polygon fill="green" stroke="green" stroke-width="0.4" points="185.04,-25.25 174.59,-23.49 181.66,-31.38 185.04,-25.25"/>
</g>
<!-- &#45;2&#45;&gt;3 -->
<g id="edge9" class="edge">
<title>&#45;2&#45;&gt;3</title>
<path fill="none" stroke="green" stroke-width="0.24" d="M285.03,-77.87C281.18,-74.09 276.46,-69.58 272.05,-65.7 258.37,-53.66 242.32,-40.78 229.98,-31.13"/>
<polygon fill="green" stroke="green" stroke-width="0.24" points="231.78,-28.1 221.73,-24.74 227.49,-33.63 231.78,-28.1"/>
</g>
<!-- &#45;2&#45;&gt;4 -->
<g id="edge10" class="edge">
<title>&#45;2&#45;&gt;4</title>
<path fill="none" stroke="red" stroke-width="0.42" d="M300.05,-77.87C309.26,-67.3 325.72,-48.39 338.06,-34.22"/>
<polygon fill="red" stroke="red" stroke-width="0.42" points="340.83,-36.37 344.76,-26.53 335.55,-31.77 340.83,-36.37"/>
</g>
<!-- &#45;3 -->
<g id="node3" class="node">
<title>&#45;3</title>
<polygon fill="lightgray" stroke="black" points="42.05,-95.91 18.05,-95.91 18.05,-77.91 42.05,-77.91 42.05,-95.91"/>
<text text-anchor="middle" x="30.05" y="-84.71" font-family="Times New Roman,serif" font-size="9.00">&#45;3</text>
</g>
<!-- &#45;3&#45;&gt;0 -->
<g id="edge11" class="edge">
<title>&#45;3&#45;&gt;0</title>
<path fill="none" stroke="green" stroke-width="0.45" d="M36.61,-77.64C40.39,-73.43 45.49,-68.6 51.05,-65.7 124.57,-27.4 156.44,-58.81 234.05,-29.7 234.92,-29.37 235.79,-29.02 236.66,-28.64"/>
<polygon fill="green" stroke="green" stroke-width="0.45" points="238.43,-31.67 245.73,-23.99 235.24,-25.44 238.43,-31.67"/>
</g>
<!-- &#45;3&#45;&gt;1 -->
<g id="edge12" class="edge">
<title>&#45;3&#45;&gt;1</title>
<path fill="none" stroke="green" stroke-width="0.14" d="M36.56,-77.56C40.33,-73.32 45.43,-68.49 51.05,-65.7 144.14,-19.53 184.06,-64.25 282.05,-29.7 282.93,-29.39 283.8,-29.05 284.68,-28.69"/>
<polygon fill="green" stroke="green" stroke-width="0.14" points="286.42,-31.73 293.77,-24.1 283.27,-25.48 286.42,-31.73"/>
</g>
<!-- &#45;3&#45;&gt;2 -->
<g id="edge13" class="edge">
<title>&#45;3&#45;&gt;2</title>
<path fill="none" stroke="green" stroke-width="0.39" stroke-dasharray="1,5" d="M37.28,-77.74C41.09,-73.75 46.02,-69.1 51.05,-65.7 78.96,-46.85 115.15,-32.14 138.49,-23.73"/>
<polygon fill="green" stroke="green" stroke-width="0.39" points="139.66,-27.03 147.94,-20.42 137.34,-20.42 139.66,-27.03"/>
</g>
<!-- &#45;3&#45;&gt;3 -->
<g id="edge14" class="edge">
<title>&#45;3&#45;&gt;3</title>
<path fill="none" stroke="green" stroke-width="0.2" d="M36.69,-77.79C40.49,-73.62 45.59,-68.78 51.05,-65.7 105.14,-35.2 128.67,-53.42 186.05,-29.7 186.91,-29.34 187.77,-28.97 188.64,-28.57"/>
<polygon fill="green" stroke="green" stroke-width="0.2" points="190.44,-31.57 197.67,-23.82 187.19,-25.38 190.44,-31.57"/>
</g>
<!-- &#45;4 -->
<g id="node4" class="node">
<title>&#45;4</title>
<polygon fill="lightgray" stroke="black" points="84.05,-95.91 60.05,-95.91 60.05,-77.91 84.05,-77.91 84.05,-95.91"/>
<text text-anchor="middle" x="72.05" y="-84.71" font-family="Times New Roman,serif" font-size="9.00">&#45;4</text>
</g>
<!-- &#45;4&#45;&gt;0 -->
<g id="edge15" class="edge">
<title>&#45;4&#45;&gt;0</title>
<path fill="none" stroke="red" stroke-width="0.44" d="M78.67,-77.77C82.47,-73.59 87.57,-68.75 93.05,-65.7 149.56,-34.23 174.15,-54.09 234.05,-29.7 234.91,-29.35 235.78,-28.97 236.64,-28.58"/>
<polygon fill="red" stroke="red" stroke-width="0.44" points="238.44,-31.59 245.68,-23.85 235.19,-25.39 238.44,-31.59"/>
</g>
<!-- &#45;4&#45;&gt;1 -->
<g id="edge16" class="edge">
<title>&#45;4&#45;&gt;1</title>
<path fill="none" stroke="red" stroke-width="0.2" d="M78.6,-77.63C82.38,-73.41 87.48,-68.58 93.05,-65.7 169.01,-26.42 201.9,-59.49 282.05,-29.7 282.92,-29.38 283.79,-29.02 284.67,-28.65"/>
<polygon fill="red" stroke="red" stroke-width="0.2" points="286.43,-31.68 293.74,-24.01 283.24,-25.45 286.43,-31.68"/>
</g>
<!-- &#45;4&#45;&gt;2 -->
<g id="edge17" class="edge">
<title>&#45;4&#45;&gt;2</title>
<path fill="none" stroke="red" stroke-width="0.46" d="M79.98,-77.76C83.81,-73.96 88.55,-69.46 93.05,-65.7 108.68,-52.64 127.48,-39.2 141.51,-29.56"/>
<polygon fill="red" stroke="red" stroke-width="0.46" points="143.65,-32.34 149.95,-23.83 139.71,-26.55 143.65,-32.34"/>
</g>
<!-- &#45;4&#45;&gt;3 -->
<g id="edge18" class="edge">
<title>&#45;4&#45;&gt;3</title>
<path fill="none" stroke="red" stroke-width="0.53" d="M79.2,-77.62C83,-73.61 87.93,-68.96 93.05,-65.7 130.42,-41.86 146.07,-48.83 186.05,-29.7 186.89,-29.3 187.73,-28.88 188.58,-28.45"/>
<polygon fill="red" stroke="red" stroke-width="0.53" points="190.45,-31.42 197.55,-23.55 187.09,-25.28 190.45,-31.42"/>
</g>
<!-- &#45;4&#45;&gt;4 -->
<g id="edge19" class="edge">
<title>&#45;4&#45;&gt;4</title>
<path fill="none" stroke="green" stroke-width="0.42" d="M78.56,-77.55C82.32,-73.31 87.43,-68.48 93.05,-65.7 188.59,-18.54 229.51,-64.93 330.05,-29.7 330.93,-29.39 331.81,-29.05 332.68,-28.69"/>
<polygon fill="green" stroke="green" stroke-width="0.42" points="334.42,-31.73 341.77,-24.11 331.27,-25.48 334.42,-31.73"/>
</g>
<!-- &#45;5 -->
<g id="node5" class="node">
<title>&#45;5</title>
<polygon fill="lightgray" stroke="black" points="221.05,-95.91 197.05,-95.91 197.05,-77.91 221.05,-77.91 221.05,-95.91"/>
<text text-anchor="middle" x="209.05" y="-84.71" font-family="Times New Roman,serif" font-size="9.00">&#45;5</text>
</g>
<!-- &#45;5&#45;&gt;0 -->
<g id="edge20" class="edge">
<title>&#45;5&#45;&gt;0</title>
<path fill="none" stroke="red" stroke-width="0.29" d="M214.67,-77.87C221.77,-67.73 234.22,-49.93 243.97,-35.99"/>
<polygon fill="red" stroke="red" stroke-width="0.29" points="247.04,-37.71 249.9,-27.51 241.3,-33.7 247.04,-37.71"/>
</g>
<!-- &#45;5&#45;&gt;1 -->
<g id="edge21" class="edge">
<title>&#45;5&#45;&gt;1</title>
<path fill="none" stroke="red" stroke-width="0.38" d="M216.91,-77.67C220.72,-73.85 225.46,-69.36 230.05,-65.7 247.52,-51.76 268.92,-37.99 284.55,-28.47"/>
<polygon fill="red" stroke="red" stroke-width="0.38" points="286.69,-31.27 293.46,-23.12 283.08,-25.27 286.69,-31.27"/>
</g>
<!-- &#45;5&#45;&gt;2 -->
<g id="edge22" class="edge">
<title>&#45;5&#45;&gt;2</title>
<path fill="none" stroke="green" stroke-width="0.45" d="M203.66,-77.87C196.86,-67.73 184.91,-49.93 175.56,-35.99"/>
<polygon fill="green" stroke="green" stroke-width="0.45" points="178.35,-33.86 169.87,-27.51 172.54,-37.76 178.35,-33.86"/>
</g>
<!-- &#45;5&#45;&gt;3 -->
<g id="edge23" class="edge">
<title>&#45;5&#45;&gt;3</title>
<path fill="none" stroke="red" stroke-width="0.23" d="M209.17,-77.87C209.3,-68.72 209.52,-53.33 209.71,-40.16"/>
<polygon fill="red" stroke="red" stroke-width="0.23" points="213.21,-39.87 209.85,-29.82 206.21,-39.77 213.21,-39.87"/>
</g>
<!-- &#45;5&#45;&gt;4 -->
<g id="edge24" class="edge">
<title>&#45;5&#45;&gt;4</title>
<path fill="none" stroke="red" stroke-width="0.11" d="M216.17,-77.57C219.96,-73.54 224.9,-68.9 230.05,-65.7 270.18,-40.77 287.21,-49.58 330.05,-29.7 330.89,-29.31 331.74,-28.9 332.6,-28.48"/>
<polygon fill="red" stroke="red" stroke-width="0.11" points="334.45,-31.45 341.57,-23.61 331.11,-25.3 334.45,-31.45"/>
</g>
<!-- &#45;6 -->
<g id="node6" class="node">
<title>&#45;6</title>
<polygon fill="lightgray" stroke="black" points="347.05,-95.91 323.05,-95.91 323.05,-77.91 347.05,-77.91 347.05,-95.91"/>
<text text-anchor="middle" x="335.05" y="-84.71" font-family="Times New Roman,serif" font-size="9.00">&#45;6</text>
</g>
<!-- &#45;6&#45;&gt;0 -->
<g id="edge25" class="edge">
<title>&#45;6&#45;&gt;0</title>
<path fill="none" stroke="green" stroke-width="0.29" stroke-dasharray="1,5" d="M326.54,-77.57C322.75,-73.9 318.21,-69.55 314.05,-65.7 301.72,-54.28 287.59,-41.71 276.6,-32.04"/>
<polygon fill="green" stroke="green" stroke-width="0.29" points="278.73,-29.25 268.9,-25.28 274.11,-34.51 278.73,-29.25"/>
</g>
<!-- &#45;6&#45;&gt;1 -->
<g id="edge26" class="edge">
<title>&#45;6&#45;&gt;1</title>
<path fill="none" stroke="green" stroke-width="0.13" d="M331.73,-77.87C327.77,-68.31 320.99,-51.93 315.39,-38.4"/>
<polygon fill="green" stroke="green" stroke-width="0.13" points="318.46,-36.67 311.4,-28.77 311.99,-39.35 318.46,-36.67"/>
</g>
<!-- &#45;6&#45;&gt;2 -->
<g id="edge27" class="edge">
<title>&#45;6&#45;&gt;2</title>
<path fill="none" stroke="green" stroke-width="0.44" d="M328.4,-77.82C324.6,-73.66 319.5,-68.82 314.05,-65.7 262.78,-36.32 240.51,-52.64 186.05,-29.7 185.2,-29.34 184.34,-28.96 183.48,-28.55"/>
<polygon fill="green" stroke="green" stroke-width="0.44" points="184.93,-25.36 174.46,-23.79 181.66,-31.55 184.93,-25.36"/>
</g>
<!-- &#45;6&#45;&gt;3 -->
<g id="edge28" class="edge">
<title>&#45;6&#45;&gt;3</title>
<path fill="none" stroke="green" stroke-width="0.4" d="M327.83,-77.74C324.01,-73.75 319.08,-69.1 314.05,-65.7 281.76,-43.86 268.76,-47.46 234.05,-29.7 233.23,-29.28 232.39,-28.84 231.55,-28.39"/>
<polygon fill="green" stroke="green" stroke-width="0.4" points="233.07,-25.23 222.63,-23.42 229.66,-31.35 233.07,-25.23"/>
</g>
<!-- &#45;6&#45;&gt;4 -->
<g id="edge29" class="edge">
<title>&#45;6&#45;&gt;4</title>
<path fill="none" stroke="green" stroke-width="0.56" d="M337.23,-77.87C339.77,-68.52 344.08,-52.63 347.7,-39.28"/>
<polygon fill="green" stroke="green" stroke-width="0.56" points="351.17,-39.86 350.41,-29.29 344.41,-38.03 351.17,-39.86"/>
</g>
<!-- &#45;7 -->
<g id="node7" class="node">
<title>&#45;7</title>
<polygon fill="lightgray" stroke="black" points="427.05,-95.91 403.05,-95.91 403.05,-77.91 427.05,-77.91 427.05,-95.91"/>
<text text-anchor="middle" x="415.05" y="-84.71" font-family="Times New Roman,serif" font-size="9.00">&#45;7</text>
</g>
<!-- &#45;7&#45;&gt;0 -->
<g id="edge30" class="edge">
<title>&#45;7&#45;&gt;0</title>
<path fill="none" stroke="red" stroke-width="0.11" d="M405.95,-77.61C401.19,-73.59 395.1,-68.94 389.05,-65.7 344.85,-41.97 327.79,-50.34 282.05,-29.7 281.21,-29.32 280.36,-28.92 279.5,-28.5"/>
<polygon fill="red" stroke="red" stroke-width="0.11" points="280.98,-25.32 270.51,-23.66 277.66,-31.48 280.98,-25.32"/>
</g>
<!-- &#45;7&#45;&gt;1 -->
<g id="edge31" class="edge">
<title>&#45;7&#45;&gt;1</title>
<path fill="none" stroke="green" stroke-width="0.13" d="M405.14,-77.75C400.38,-73.95 394.52,-69.45 389.05,-65.7 377.93,-58.08 348.15,-40.43 327.47,-28.32"/>
<polygon fill="green" stroke="green" stroke-width="0.13" points="329.11,-25.22 318.71,-23.2 325.57,-31.26 329.11,-25.22"/>
</g>
<!-- &#45;7&#45;&gt;2 -->
<g id="edge32" class="edge">
<title>&#45;7&#45;&gt;2</title>
<path fill="none" stroke="red" stroke-width="0.18" d="M402.98,-81.29C391.15,-76.88 372.54,-70.25 356.05,-65.7 281.61,-45.15 258.17,-57.34 186.05,-29.7 185.19,-29.37 184.32,-29.01 183.45,-28.62"/>
<polygon fill="red" stroke="red" stroke-width="0.18" points="184.88,-25.43 174.39,-23.96 181.67,-31.65 184.88,-25.43"/>
</g>
<!-- &#45;7&#45;&gt;3 -->
<g id="edge33" class="edge">
<title>&#45;7&#45;&gt;3</title>
<path fill="none" stroke="red" stroke-width="0.31" d="M402.9,-81.58C391.01,-77.38 372.35,-70.89 356.05,-65.7 302.19,-48.53 286.01,-51.98 234.05,-29.7 233.2,-29.33 232.34,-28.95 231.48,-28.54"/>
<polygon fill="red" stroke="red" stroke-width="0.31" points="232.94,-25.35 222.47,-23.76 229.66,-31.54 232.94,-25.35"/>
</g>
<!-- &#45;7&#45;&gt;4 -->
<g id="edge34" class="edge">
<title>&#45;7&#45;&gt;4</title>
<path fill="none" stroke="green" stroke-width="0.16" d="M408.06,-77.87C398.85,-67.3 382.39,-48.39 370.05,-34.22"/>
<polygon fill="green" stroke="green" stroke-width="0.16" points="372.56,-31.77 363.35,-26.53 367.28,-36.37 372.56,-31.77"/>
</g>
<!-- &#45;8 -->
<g id="node8" class="node">
<title>&#45;8</title>
<polygon fill="lightgray" stroke="black" points="511.05,-95.91 487.05,-95.91 487.05,-77.91 511.05,-77.91 511.05,-95.91"/>
<text text-anchor="middle" x="499.05" y="-84.71" font-family="Times New Roman,serif" font-size="9.00">&#45;8</text>
</g>
<!-- &#45;8&#45;&gt;0 -->
<g id="edge35" class="edge">
<title>&#45;8&#45;&gt;0</title>
<path fill="none" stroke="red" stroke-width="0.54" d="M492.51,-77.62C488.74,-73.39 483.64,-68.56 478.05,-65.7 399.25,-25.27 365.18,-60.28 282.05,-29.7 281.18,-29.38 280.31,-29.03 279.44,-28.65"/>
<polygon fill="red" stroke="red" stroke-width="0.54" points="280.86,-25.45 270.36,-24.03 277.68,-31.69 280.86,-25.45"/>
</g>
<!-- &#45;8&#45;&gt;1 -->
<g id="edge36" class="edge">
<title>&#45;8&#45;&gt;1</title>
<path fill="none" stroke="red" stroke-width="0.39" d="M492.45,-77.74C488.65,-73.56 483.55,-68.72 478.05,-65.7 418.72,-33.1 392.9,-54.87 330.05,-29.7 329.19,-29.35 328.33,-28.98 327.46,-28.59"/>
<polygon fill="red" stroke="red" stroke-width="0.39" points="328.9,-25.4 318.42,-23.88 325.67,-31.6 328.9,-25.4"/>
</g>
<!-- &#45;8&#45;&gt;3 -->
<g id="edge37" class="edge">
<title>&#45;8&#45;&gt;3</title>
<path fill="none" stroke="red" stroke-width="0.21" d="M492.55,-77.54C488.79,-73.29 483.69,-68.46 478.05,-65.7 379.65,-17.39 337.58,-65.73 234.05,-29.7 233.18,-29.39 232.3,-29.06 231.42,-28.69"/>
<polygon fill="red" stroke="red" stroke-width="0.21" points="232.84,-25.49 222.33,-24.12 229.69,-31.74 232.84,-25.49"/>
</g>
<!-- &#45;8&#45;&gt;4 -->
<g id="edge38" class="edge">
<title>&#45;8&#45;&gt;4</title>
<path fill="none" stroke="red" stroke-width="0.46" d="M491.89,-77.65C488.08,-73.64 483.15,-69 478.05,-65.7 446.04,-44.98 404.02,-30.32 378.04,-22.48"/>
<polygon fill="red" stroke="red" stroke-width="0.46" points="378.86,-19.07 368.28,-19.62 376.9,-25.79 378.86,-19.07"/>
</g>
<!-- &#45;9 -->
<g id="node9" class="node">
<title>&#45;9</title>
<polygon fill="lightgray" stroke="black" points="469.05,-95.91 445.05,-95.91 445.05,-77.91 469.05,-77.91 469.05,-95.91"/>
<text text-anchor="middle" x="457.05" y="-84.71" font-family="Times New Roman,serif" font-size="9.00">&#45;9</text>
</g>
<!-- &#45;9&#45;&gt;0 -->
<g id="edge39" class="edge">
<title>&#45;9&#45;&gt;0</title>
<path fill="none" stroke="red" stroke-width="0.54" d="M450.46,-77.72C446.67,-73.53 441.57,-68.7 436.05,-65.7 374.3,-32.12 347.42,-55.54 282.05,-29.7 281.19,-29.36 280.32,-28.99 279.46,-28.6"/>
<polygon fill="red" stroke="red" stroke-width="0.54" points="280.9,-25.41 270.41,-23.9 277.67,-31.62 280.9,-25.41"/>
</g>
<!-- &#45;9&#45;&gt;1 -->
<g id="edge58" class="edge">
<title>&#45;9&#45;&gt;1</title>
<path fill="none" stroke="green" stroke-width="0.49" d="M449.96,-77.53C446.18,-73.49 441.24,-68.86 436.05,-65.7 393.56,-39.83 375.37,-50.23 330.05,-29.7 329.21,-29.32 328.36,-28.91 327.5,-28.49"/>
<polygon fill="green" stroke="green" stroke-width="0.49" points="328.98,-25.31 318.51,-23.66 325.66,-31.48 328.98,-25.31"/>
</g>
<!-- &#45;9&#45;&gt;2 -->
<g id="edge40" class="edge">
<title>&#45;9&#45;&gt;2</title>
<path fill="none" stroke="green" stroke-width="0.14" d="M450.56,-77.53C446.79,-73.28 441.69,-68.45 436.05,-65.7 335.2,-16.4 292.14,-66.41 186.05,-29.7 185.18,-29.4 184.3,-29.06 183.42,-28.7"/>
<polygon fill="green" stroke="green" stroke-width="0.14" points="184.83,-25.49 174.33,-24.13 181.69,-31.74 184.83,-25.49"/>
</g>
<!-- &#45;9&#45;&gt;3 -->
<g id="edge41" class="edge">
<title>&#45;9&#45;&gt;3</title>
<path fill="none" stroke="red" stroke-width="0.2" d="M450.52,-77.6C446.75,-73.38 441.64,-68.55 436.05,-65.7 354.8,-24.29 319.72,-60.96 234.05,-29.7 233.18,-29.38 232.31,-29.03 231.43,-28.66"/>
<polygon fill="red" stroke="red" stroke-width="0.2" points="232.86,-25.46 222.36,-24.04 229.68,-31.7 232.86,-25.46"/>
</g>
<!-- &#45;9&#45;&gt;4 -->
<g id="edge42" class="edge">
<title>&#45;9&#45;&gt;4</title>
<path fill="none" stroke="green" stroke-width="0.5" d="M449.25,-77.6C445.45,-73.77 440.7,-69.28 436.05,-65.7 416.85,-50.91 393,-36.84 375.98,-27.44"/>
<polygon fill="green" stroke="green" stroke-width="0.5" points="377.29,-24.17 366.83,-22.47 373.95,-30.32 377.29,-24.17"/>
</g>
<!-- &#45;10 -->
<g id="node10" class="node">
<title>&#45;10</title>
<polygon fill="lightgray" stroke="black" points="131.55,-95.91 102.55,-95.91 102.55,-77.91 131.55,-77.91 131.55,-95.91"/>
<text text-anchor="middle" x="117.05" y="-84.71" font-family="Times New Roman,serif" font-size="9.00">&#45;10</text>
</g>
<!-- &#45;10&#45;&gt;0 -->
<g id="edge59" class="edge">
<title>&#45;10&#45;&gt;0</title>
<path fill="none" stroke="green" stroke-width="0.14" d="M125.01,-77.65C129.2,-73.64 134.59,-69 140.05,-65.7 178.35,-42.57 193.67,-48.94 234.05,-29.7 234.89,-29.3 235.74,-28.88 236.59,-28.45"/>
<polygon fill="green" stroke="green" stroke-width="0.14" points="238.45,-31.42 245.55,-23.56 235.09,-25.28 238.45,-31.42"/>
</g>
<!-- &#45;10&#45;&gt;1 -->
<g id="edge43" class="edge">
<title>&#45;10&#45;&gt;1</title>
<path fill="none" stroke="green" stroke-width="0.42" d="M124.44,-77.78C128.64,-73.61 134.22,-68.77 140.05,-65.7 197.66,-35.37 221.73,-54.2 282.05,-29.7 282.91,-29.35 283.78,-28.98 284.64,-28.58"/>
<polygon fill="green" stroke="green" stroke-width="0.42" points="286.44,-31.59 293.68,-23.86 283.2,-25.39 286.44,-31.59"/>
</g>
<!-- &#45;10&#45;&gt;2 -->
<g id="edge44" class="edge">
<title>&#45;10&#45;&gt;2</title>
<path fill="none" stroke="red" stroke-width="0.14" stroke-dasharray="1,5" d="M122.22,-77.87C128.69,-67.79 140.03,-50.14 148.96,-36.23"/>
<polygon fill="red" stroke="red" stroke-width="0.14" points="151.95,-38.06 154.41,-27.76 146.06,-34.28 151.95,-38.06"/>
</g>
<!-- &#45;10&#45;&gt;3 -->
<g id="edge45" class="edge">
<title>&#45;10&#45;&gt;3</title>
<path fill="none" stroke="green" stroke-width="0.2" stroke-dasharray="1,5" d="M125.83,-77.82C130.04,-74.04 135.22,-69.53 140.05,-65.7 156.17,-52.93 175.22,-39.46 189.38,-29.75"/>
<polygon fill="green" stroke="green" stroke-width="0.2" points="191.59,-32.47 197.89,-23.95 187.65,-26.69 191.59,-32.47"/>
</g>
<!-- &#45;10&#45;&gt;4 -->
<g id="edge46" class="edge">
<title>&#45;10&#45;&gt;4</title>
<path fill="none" stroke="red" stroke-width="0.22" d="M124.37,-77.64C128.55,-73.42 134.13,-68.59 140.05,-65.7 217.29,-28 249.48,-59.6 330.05,-29.7 330.92,-29.38 331.8,-29.02 332.67,-28.65"/>
<polygon fill="red" stroke="red" stroke-width="0.22" points="334.43,-31.68 341.74,-24.01 331.24,-25.45 334.43,-31.68"/>
</g>
<!-- &#45;11 -->
<g id="node11" class="node">
<title>&#45;11</title>
<polygon fill="lightgray" stroke="black" points="178.55,-95.91 149.55,-95.91 149.55,-77.91 178.55,-77.91 178.55,-95.91"/>
<text text-anchor="middle" x="164.05" y="-84.71" font-family="Times New Roman,serif" font-size="9.00">&#45;11</text>
</g>
<!-- &#45;11&#45;&gt;0 -->
<g id="edge47" class="edge">
<title>&#45;11&#45;&gt;0</title>
<path fill="none" stroke="red" stroke-width="0.76" d="M173.25,-77.86C177.66,-74.08 183.06,-69.57 188.05,-65.7 204.3,-53.1 223.34,-39.62 237.46,-29.86"/>
<polygon fill="red" stroke="red" stroke-width="0.76" points="239.69,-32.58 245.95,-24.03 235.72,-26.81 239.69,-32.58"/>
</g>
<!-- &#45;11&#45;&gt;1 -->
<g id="edge48" class="edge">
<title>&#45;11&#45;&gt;1</title>
<path fill="none" stroke="red" stroke-width="0.29" d="M172.41,-77.67C176.8,-73.67 182.42,-69.02 188.05,-65.7 226.59,-42.97 241.67,-48.94 282.05,-29.7 282.89,-29.3 283.74,-28.88 284.59,-28.45"/>
<polygon fill="red" stroke="red" stroke-width="0.29" points="286.45,-31.42 293.55,-23.56 283.09,-25.28 286.45,-31.42"/>
</g>
<!-- &#45;11&#45;&gt;2 -->
<g id="edge49" class="edge">
<title>&#45;11&#45;&gt;2</title>
<path fill="none" stroke="red" stroke-width="0.37" stroke-dasharray="1,5" d="M163.82,-77.87C163.56,-68.72 163.12,-53.33 162.75,-40.16"/>
<polygon fill="red" stroke="red" stroke-width="0.37" points="166.24,-39.72 162.45,-29.82 159.24,-39.92 166.24,-39.72"/>
</g>
<!-- &#45;11&#45;&gt;3 -->
<g id="edge50" class="edge">
<title>&#45;11&#45;&gt;3</title>
<path fill="none" stroke="red" stroke-width="0.26" d="M169.33,-77.87C175.95,-67.79 187.54,-50.14 196.67,-36.23"/>
<polygon fill="red" stroke="red" stroke-width="0.26" points="199.67,-38.04 202.24,-27.76 193.82,-34.2 199.67,-38.04"/>
</g>
<!-- &#45;11&#45;&gt;4 -->
<g id="edge51" class="edge">
<title>&#45;11&#45;&gt;4</title>
<path fill="none" stroke="green" stroke-width="0.53" d="M171.82,-77.79C176.23,-73.62 182.04,-68.78 188.05,-65.7 245.98,-35.97 269.73,-54.2 330.05,-29.7 330.91,-29.35 331.78,-28.98 332.64,-28.58"/>
<polygon fill="green" stroke="green" stroke-width="0.53" points="334.44,-31.59 341.68,-23.86 331.2,-25.39 334.44,-31.59"/>
</g>
<!-- &#45;12 -->
<g id="node12" class="node">
<title>&#45;12</title>
<polygon fill="lightgray" stroke="black" points="564.55,-162.12 535.55,-162.12 535.55,-144.12 564.55,-144.12 564.55,-162.12"/>
<text text-anchor="middle" x="550.05" y="-150.92" font-family="Times New Roman,serif" font-size="9.00">&#45;12</text>
</g>
<!-- &#45;12&#45;&gt;0 -->
<g id="edge52" class="edge">
<title>&#45;12&#45;&gt;0</title>
<path fill="none" stroke="green" stroke-width="0.3" d="M535.19,-150.72C506.08,-147.39 440.37,-137.01 394.05,-108.12 372.57,-94.73 376.26,-80.95 356.05,-65.7 326.86,-43.66 314.36,-46.85 282.05,-29.7 281.24,-29.26 280.41,-28.82 279.57,-28.36"/>
<polygon fill="green" stroke="green" stroke-width="0.3" points="281.1,-25.2 270.66,-23.35 277.66,-31.3 281.1,-25.2"/>
</g>
<!-- &#45;12&#45;&gt;1 -->
<g id="edge53" class="edge">
<title>&#45;12&#45;&gt;1</title>
<path fill="none" stroke="red" stroke-width="0.14" d="M557.58,-143.99C572.02,-127.39 600.44,-89.23 580.05,-65.7 543.3,-23.28 383.1,-48.06 330.05,-29.7 329.18,-29.4 328.3,-29.06 327.42,-28.7"/>
<polygon fill="red" stroke="red" stroke-width="0.14" points="328.83,-25.49 318.33,-24.13 325.69,-31.74 328.83,-25.49"/>
</g>
<!-- &#45;12&#45;&gt;2 -->
<g id="edge54" class="edge">
<title>&#45;12&#45;&gt;2</title>
<path fill="none" stroke="green" stroke-width="0.15" d="M535.31,-152.09C452.32,-151.72 45.74,-147.92 9.05,-108.12 -3.73,-94.26 -2.02,-80.96 9.05,-65.7 38.38,-25.31 101.29,-17.01 136.63,-15.69"/>
<polygon fill="green" stroke="green" stroke-width="0.15" points="137.13,-19.18 147.06,-15.47 136.98,-12.18 137.13,-19.18"/>
</g>
<!-- &#45;12&#45;&gt;4 -->
<g id="edge55" class="edge">
<title>&#45;12&#45;&gt;4</title>
<path fill="none" stroke="red" stroke-width="0.16" d="M564.7,-146.68C579.93,-140.13 602.94,-127.53 613.05,-108.12 621.77,-91.4 625.06,-80.24 613.05,-65.7 583.54,-29.96 438.72,-19.57 379.43,-16.79"/>
<polygon fill="red" stroke="red" stroke-width="0.16" points="379.23,-13.28 369.09,-16.34 378.93,-20.27 379.23,-13.28"/>
</g>
<!-- 285 -->
<g id="node18" class="node">
<title>285</title>
<ellipse fill="white" stroke="black" cx="550.05" cy="-86.91" rx="21.43" ry="21.43"/>
<text text-anchor="middle" x="550.05" y="-84.71" font-family="Times New Roman,serif" font-size="9.00">285</text>
</g>
<!-- &#45;12&#45;&gt;285 -->
<g id="edge56" class="edge">
<title>&#45;12&#45;&gt;285</title>
<path fill="none" stroke="red" stroke-width="0.37" d="M550.05,-143.99C550.05,-137.45 550.05,-127.82 550.05,-118.38"/>
<polygon fill="red" stroke="red" stroke-width="0.37" points="553.55,-118.37 550.05,-108.37 546.55,-118.37 553.55,-118.37"/>
</g>
<!-- 285&#45;&gt;1 -->
<g id="edge57" class="edge">
<title>285&#45;&gt;1</title>
<path fill="none" stroke="green" stroke-width="0.21" d="M533.6,-73.1C529.37,-70.3 524.7,-67.61 520.05,-65.7 440.56,-33.02 410.63,-59.6 330.05,-29.7 329.19,-29.38 328.31,-29.02 327.44,-28.65"/>
<polygon fill="green" stroke="green" stroke-width="0.21" points="328.86,-25.45 318.37,-24.01 325.68,-31.68 328.86,-25.45"/>
</g>
</g>
</svg>
