<?xml version="1.0" encoding="UTF-8" standalone="no"?>
<!DOCTYPE svg PUBLIC "-//W3C//DTD SVG 1.1//EN"
 "http://www.w3.org/Graphics/SVG/1.1/DTD/svg11.dtd">
<!-- Generated by graphviz version 3.0.0 (20220226.1711)
 -->
<!-- Pages: 1 -->
<svg width="661pt" height="170pt"
 viewBox="0.00 0.00 661.37 170.12" xmlns="http://www.w3.org/2000/svg" xmlns:xlink="http://www.w3.org/1999/xlink">
<g id="graph0" class="graph" transform="scale(1 1) rotate(0) translate(4 166.12)">
<polygon fill="white" stroke="transparent" points="-4,4 -4,-166.12 657.37,-166.12 657.37,4 -4,4"/>
<!-- &#45;1 -->
<g id="node1" class="node">
<title>&#45;1</title>
<polygon fill="lightgray" stroke="black" points="84.16,-95.91 60.16,-95.91 60.16,-77.91 84.16,-77.91 84.16,-95.91"/>
<text text-anchor="middle" x="72.16" y="-84.71" font-family="Times New Roman,serif" font-size="9.00">&#45;1</text>
</g>
<!-- 1 -->
<g id="node14" class="node">
<title>1</title>
<ellipse fill="lightblue" stroke="black" cx="286.16" cy="-14.85" rx="14.7" ry="14.7"/>
<text text-anchor="middle" x="286.16" y="-12.65" font-family="Times New Roman,serif" font-size="9.00">1</text>
</g>
<!-- &#45;1&#45;&gt;1 -->
<g id="edge1" class="edge">
<title>&#45;1&#45;&gt;1</title>
<path fill="none" stroke="green" stroke-width="0.62" d="M78.73,-77.68C82.52,-73.48 87.62,-68.64 93.16,-65.7 160.99,-29.69 190.47,-57.23 262.16,-29.7 263.03,-29.37 263.9,-29.01 264.77,-28.62"/>
<polygon fill="green" stroke="green" stroke-width="0.62" points="266.54,-31.65 273.82,-23.95 263.33,-25.42 266.54,-31.65"/>
</g>
<!-- 2 -->
<g id="node15" class="node">
<title>2</title>
<ellipse fill="lightblue" stroke="black" cx="190.16" cy="-14.85" rx="14.7" ry="14.7"/>
<text text-anchor="middle" x="190.16" y="-12.65" font-family="Times New Roman,serif" font-size="9.00">2</text>
</g>
<!-- &#45;1&#45;&gt;2 -->
<g id="edge2" class="edge">
<title>&#45;1&#45;&gt;2</title>
<path fill="none" stroke="red" stroke-width="0.33" d="M79.46,-77.85C83.3,-73.89 88.22,-69.23 93.16,-65.7 116.75,-48.84 146.82,-34.31 167.19,-25.36"/>
<polygon fill="red" stroke="red" stroke-width="0.33" points="168.79,-28.48 176.6,-21.32 166.03,-22.05 168.79,-28.48"/>
</g>
<!-- 3 -->
<g id="node16" class="node">
<title>3</title>
<ellipse fill="lightblue" stroke="black" cx="334.16" cy="-14.85" rx="14.7" ry="14.7"/>
<text text-anchor="middle" x="334.16" y="-12.65" font-family="Times New Roman,serif" font-size="9.00">3</text>
</g>
<!-- &#45;1&#45;&gt;3 -->
<g id="edge3" class="edge">
<title>&#45;1&#45;&gt;3</title>
<path fill="none" stroke="green" stroke-width="0.79" d="M78.68,-77.58C82.45,-73.34 87.55,-68.51 93.16,-65.7 180.53,-21.83 218.12,-62.66 310.16,-29.7 311.03,-29.39 311.91,-29.04 312.78,-28.67"/>
<polygon fill="green" stroke="green" stroke-width="0.79" points="314.53,-31.71 321.87,-24.07 311.37,-25.47 314.53,-31.71"/>
</g>
<!-- 4 -->
<g id="node17" class="node">
<title>4</title>
<ellipse fill="lightblue" stroke="black" cx="238.16" cy="-14.85" rx="14.7" ry="14.7"/>
<text text-anchor="middle" x="238.16" y="-12.65" font-family="Times New Roman,serif" font-size="9.00">4</text>
</g>
<!-- &#45;1&#45;&gt;4 -->
<g id="edge4" class="edge">
<title>&#45;1&#45;&gt;4</title>
<path fill="none" stroke="red" stroke-width="0.44" d="M78.83,-77.85C82.64,-73.7 87.74,-68.86 93.16,-65.7 141.63,-37.44 162.62,-51.87 214.16,-29.7 215.01,-29.33 215.87,-28.94 216.73,-28.54"/>
<polygon fill="red" stroke="red" stroke-width="0.44" points="218.55,-31.53 225.74,-23.75 215.27,-25.35 218.55,-31.53"/>
</g>
<!-- &#45;2 -->
<g id="node2" class="node">
<title>&#45;2</title>
<polygon fill="lightgray" stroke="black" points="42.16,-95.91 18.16,-95.91 18.16,-77.91 42.16,-77.91 42.16,-95.91"/>
<text text-anchor="middle" x="30.16" y="-84.71" font-family="Times New Roman,serif" font-size="9.00">&#45;2</text>
</g>
<!-- &#45;2&#45;&gt;1 -->
<g id="edge5" class="edge">
<title>&#45;2&#45;&gt;1</title>
<path fill="none" stroke="green" stroke-width="0.65" d="M36.69,-77.59C40.46,-73.36 45.56,-68.53 51.16,-65.7 136.08,-22.81 172.67,-61.98 262.16,-29.7 263.03,-29.38 263.91,-29.04 264.78,-28.67"/>
<polygon fill="green" stroke="green" stroke-width="0.65" points="266.53,-31.71 273.86,-24.06 263.36,-25.46 266.53,-31.71"/>
</g>
<!-- &#45;2&#45;&gt;2 -->
<g id="edge6" class="edge">
<title>&#45;2&#45;&gt;2</title>
<path fill="none" stroke="red" stroke-width="0.15" d="M37.27,-77.57C41.06,-73.54 46,-68.9 51.16,-65.7 87.86,-42.93 136.46,-28.54 165.4,-21.36"/>
<polygon fill="red" stroke="red" stroke-width="0.15" points="166.55,-24.68 175.46,-18.96 164.92,-17.88 166.55,-24.68"/>
</g>
<!-- &#45;2&#45;&gt;4 -->
<g id="edge7" class="edge">
<title>&#45;2&#45;&gt;4</title>
<path fill="none" stroke="red" stroke-width="0.14" d="M36.74,-77.7C40.53,-73.5 45.63,-68.66 51.16,-65.7 116.56,-30.66 145,-56.55 214.16,-29.7 215.02,-29.36 215.89,-29 216.76,-28.62"/>
<polygon fill="red" stroke="red" stroke-width="0.14" points="218.54,-31.64 225.82,-23.93 215.33,-25.42 218.54,-31.64"/>
</g>
<!-- &#45;3 -->
<g id="node3" class="node">
<title>&#45;3</title>
<polygon fill="lightgray" stroke="black" points="126.16,-95.91 102.16,-95.91 102.16,-77.91 126.16,-77.91 126.16,-95.91"/>
<text text-anchor="middle" x="114.16" y="-84.71" font-family="Times New Roman,serif" font-size="9.00">&#45;3</text>
</g>
<!-- &#45;3&#45;&gt;1 -->
<g id="edge8" class="edge">
<title>&#45;3&#45;&gt;1</title>
<path fill="none" stroke="green" stroke-width="0.35" d="M120.81,-77.82C124.62,-73.66 129.72,-68.82 135.16,-65.7 186.04,-36.48 208.12,-52.53 262.16,-29.7 263.01,-29.34 263.87,-28.95 264.74,-28.55"/>
<polygon fill="green" stroke="green" stroke-width="0.35" points="266.55,-31.55 273.76,-23.79 263.28,-25.36 266.55,-31.55"/>
</g>
<!-- &#45;3&#45;&gt;2 -->
<g id="edge9" class="edge">
<title>&#45;3&#45;&gt;2</title>
<path fill="none" stroke="green" stroke-width="0.18" d="M122.69,-77.59C126.48,-73.92 131.02,-69.57 135.16,-65.7 147.32,-54.34 161.2,-41.76 171.98,-32.08"/>
<polygon fill="green" stroke="green" stroke-width="0.18" points="174.42,-34.59 179.53,-25.31 169.75,-29.38 174.42,-34.59"/>
</g>
<!-- &#45;3&#45;&gt;3 -->
<g id="edge10" class="edge">
<title>&#45;3&#45;&gt;3</title>
<path fill="none" stroke="red" stroke-width="0.15" d="M120.72,-77.66C124.51,-73.46 129.61,-68.62 135.16,-65.7 205.42,-28.71 235.93,-57.9 310.16,-29.7 311.03,-29.37 311.9,-29.01 312.77,-28.63"/>
<polygon fill="red" stroke="red" stroke-width="0.15" points="314.54,-31.66 321.83,-23.97 311.34,-25.43 314.54,-31.66"/>
</g>
<!-- &#45;3&#45;&gt;4 -->
<g id="edge11" class="edge">
<title>&#45;3&#45;&gt;4</title>
<path fill="none" stroke="red" stroke-width="0.48" d="M121.39,-77.75C125.21,-73.77 130.14,-69.11 135.16,-65.7 167.07,-44.01 179.86,-47.36 214.16,-29.7 214.98,-29.27 215.82,-28.84 216.66,-28.39"/>
<polygon fill="red" stroke="red" stroke-width="0.48" points="218.55,-31.34 225.58,-23.41 215.14,-25.23 218.55,-31.34"/>
</g>
<!-- &#45;4 -->
<g id="node4" class="node">
<title>&#45;4</title>
<polygon fill="lightgray" stroke="black" points="216.16,-95.91 192.16,-95.91 192.16,-77.91 216.16,-77.91 216.16,-95.91"/>
<text text-anchor="middle" x="204.16" y="-84.71" font-family="Times New Roman,serif" font-size="9.00">&#45;4</text>
</g>
<!-- 0 -->
<g id="node13" class="node">
<title>0</title>
<ellipse fill="lightblue" stroke="black" cx="413.16" cy="-14.85" rx="14.7" ry="14.7"/>
<text text-anchor="middle" x="413.16" y="-12.65" font-family="Times New Roman,serif" font-size="9.00">0</text>
</g>
<!-- &#45;4&#45;&gt;0 -->
<g id="edge12" class="edge">
<title>&#45;4&#45;&gt;0</title>
<path fill="none" stroke="red" stroke-width="0.36" d="M210.79,-77.79C214.59,-73.62 219.69,-68.78 225.16,-65.7 232.41,-61.62 339.88,-34.29 388.99,-21.91"/>
<polygon fill="red" stroke="red" stroke-width="0.36" points="389.95,-25.28 398.8,-19.45 388.25,-18.49 389.95,-25.28"/>
</g>
<!-- &#45;4&#45;&gt;1 -->
<g id="edge13" class="edge">
<title>&#45;4&#45;&gt;1</title>
<path fill="none" stroke="red" stroke-width="0.57" d="M212.19,-77.88C216.05,-74.11 220.77,-69.59 225.16,-65.7 238.66,-53.72 254.45,-40.84 266.59,-31.18"/>
<polygon fill="red" stroke="red" stroke-width="0.57" points="269.02,-33.72 274.69,-24.77 264.68,-28.23 269.02,-33.72"/>
</g>
<!-- &#45;4&#45;&gt;2 -->
<g id="edge14" class="edge">
<title>&#45;4&#45;&gt;2</title>
<path fill="none" stroke="red" stroke-width="0.36" d="M202.55,-77.87C200.7,-68.57 197.55,-52.83 194.89,-39.53"/>
<polygon fill="red" stroke="red" stroke-width="0.36" points="198.29,-38.68 192.9,-29.56 191.43,-40.05 198.29,-38.68"/>
</g>
<!-- &#45;4&#45;&gt;3 -->
<g id="edge15" class="edge">
<title>&#45;4&#45;&gt;3</title>
<path fill="none" stroke="green" stroke-width="0.46" d="M211.35,-77.69C215.16,-73.69 220.09,-69.04 225.16,-65.7 259.4,-43.1 273.44,-47.99 310.16,-29.7 310.99,-29.29 311.83,-28.86 312.67,-28.42"/>
<polygon fill="green" stroke="green" stroke-width="0.46" points="314.55,-31.38 321.61,-23.48 311.17,-25.25 314.55,-31.38"/>
</g>
<!-- &#45;4&#45;&gt;4 -->
<g id="edge16" class="edge">
<title>&#45;4&#45;&gt;4</title>
<path fill="none" stroke="green" stroke-width="0.24" d="M208.06,-77.87C212.78,-68.16 220.91,-51.41 227.53,-37.76"/>
<polygon fill="green" stroke="green" stroke-width="0.24" points="230.8,-39.04 232.01,-28.52 224.5,-35.99 230.8,-39.04"/>
</g>
<!-- &#45;5 -->
<g id="node5" class="node">
<title>&#45;5</title>
<polygon fill="lightgray" stroke="black" points="258.16,-95.91 234.16,-95.91 234.16,-77.91 258.16,-77.91 258.16,-95.91"/>
<text text-anchor="middle" x="246.16" y="-84.71" font-family="Times New Roman,serif" font-size="9.00">&#45;5</text>
</g>
<!-- &#45;5&#45;&gt;0 -->
<g id="edge17" class="edge">
<title>&#45;5&#45;&gt;0</title>
<path fill="none" stroke="red" stroke-width="0.27" d="M258.17,-80.87C285.79,-69.29 354.19,-40.59 390.18,-25.49"/>
<polygon fill="red" stroke="red" stroke-width="0.27" points="391.55,-28.71 399.41,-21.62 388.84,-22.26 391.55,-28.71"/>
</g>
<!-- &#45;5&#45;&gt;1 -->
<g id="edge18" class="edge">
<title>&#45;5&#45;&gt;1</title>
<path fill="none" stroke="green" stroke-width="0.65" d="M250.75,-77.87C256.42,-67.95 266.28,-50.67 274.16,-36.87"/>
<polygon fill="green" stroke="green" stroke-width="0.65" points="277.3,-38.43 279.22,-28.01 271.22,-34.96 277.3,-38.43"/>
</g>
<!-- &#45;5&#45;&gt;2 -->
<g id="edge19" class="edge">
<title>&#45;5&#45;&gt;2</title>
<path fill="none" stroke="green" stroke-width="0.37" d="M239.74,-77.87C231.46,-67.52 216.79,-49.17 205.55,-35.11"/>
<polygon fill="green" stroke="green" stroke-width="0.37" points="208.06,-32.64 199.08,-27.01 202.59,-37.01 208.06,-32.64"/>
</g>
<!-- &#45;5&#45;&gt;3 -->
<g id="edge20" class="edge">
<title>&#45;5&#45;&gt;3</title>
<path fill="none" stroke="green" stroke-width="0.21" d="M256.26,-77.87C270.46,-66.57 296.61,-45.75 314.67,-31.37"/>
<polygon fill="green" stroke="green" stroke-width="0.21" points="317.16,-33.86 322.8,-24.89 312.8,-28.38 317.16,-33.86"/>
</g>
<!-- &#45;5&#45;&gt;4 -->
<g id="edge21" class="edge">
<title>&#45;5&#45;&gt;4</title>
<path fill="none" stroke="red" stroke-width="0.15" d="M245.24,-77.87C244.19,-68.63 242.4,-53.02 240.89,-39.77"/>
<polygon fill="red" stroke="red" stroke-width="0.15" points="244.37,-39.36 239.76,-29.82 237.41,-40.15 244.37,-39.36"/>
</g>
<!-- &#45;6 -->
<g id="node6" class="node">
<title>&#45;6</title>
<polygon fill="lightgray" stroke="black" points="338.16,-95.91 314.16,-95.91 314.16,-77.91 338.16,-77.91 338.16,-95.91"/>
<text text-anchor="middle" x="326.16" y="-84.71" font-family="Times New Roman,serif" font-size="9.00">&#45;6</text>
</g>
<!-- &#45;6&#45;&gt;0 -->
<g id="edge22" class="edge">
<title>&#45;6&#45;&gt;0</title>
<path fill="none" stroke="green" stroke-width="0.18" d="M334.13,-77.81C337.97,-74.02 342.7,-69.51 347.16,-65.7 361.89,-53.12 379.42,-39.96 392.71,-30.32"/>
<polygon fill="green" stroke="green" stroke-width="0.18" points="395.07,-32.94 401.15,-24.26 390.98,-27.25 395.07,-32.94"/>
</g>
<!-- &#45;6&#45;&gt;1 -->
<g id="edge23" class="edge">
<title>&#45;6&#45;&gt;1</title>
<path fill="none" stroke="red" stroke-width="0.33" d="M321.57,-77.87C315.9,-67.95 306.04,-50.67 298.16,-36.87"/>
<polygon fill="red" stroke="red" stroke-width="0.33" points="301.1,-34.96 293.1,-28.01 295.02,-38.43 301.1,-34.96"/>
</g>
<!-- &#45;6&#45;&gt;2 -->
<g id="edge24" class="edge">
<title>&#45;6&#45;&gt;2</title>
<path fill="none" stroke="red" stroke-width="0.11" d="M313.94,-80.07C293.23,-70.1 249.98,-49 214.16,-29.7 213.35,-29.26 212.52,-28.81 211.68,-28.35"/>
<polygon fill="red" stroke="red" stroke-width="0.11" points="213.22,-25.19 202.79,-23.32 209.77,-31.29 213.22,-25.19"/>
</g>
<!-- &#45;6&#45;&gt;3 -->
<g id="edge25" class="edge">
<title>&#45;6&#45;&gt;3</title>
<path fill="none" stroke="red" stroke-width="0.39" d="M327.08,-77.87C328.13,-68.63 329.92,-53.02 331.43,-39.77"/>
<polygon fill="red" stroke="red" stroke-width="0.39" points="334.91,-40.15 332.57,-29.82 327.95,-39.36 334.91,-40.15"/>
</g>
<!-- &#45;6&#45;&gt;4 -->
<g id="edge26" class="edge">
<title>&#45;6&#45;&gt;4</title>
<path fill="none" stroke="green" stroke-width="0.48" d="M316.07,-77.87C301.87,-66.57 275.71,-45.75 257.65,-31.37"/>
<polygon fill="green" stroke="green" stroke-width="0.48" points="259.52,-28.38 249.52,-24.89 255.16,-33.86 259.52,-28.38"/>
</g>
<!-- &#45;7 -->
<g id="node7" class="node">
<title>&#45;7</title>
<polygon fill="lightgray" stroke="black" points="557.16,-162.12 533.16,-162.12 533.16,-144.12 557.16,-144.12 557.16,-162.12"/>
<text text-anchor="middle" x="545.16" y="-150.92" font-family="Times New Roman,serif" font-size="9.00">&#45;7</text>
</g>
<!-- &#45;7&#45;&gt;0 -->
<g id="edge27" class="edge">
<title>&#45;7&#45;&gt;0</title>
<path fill="none" stroke="green" stroke-width="0.72" d="M549.96,-144.1C559.08,-127.72 576.49,-89.93 559.16,-65.7 531.6,-27.17 472.44,-18.08 438.49,-16.15"/>
<polygon fill="green" stroke="green" stroke-width="0.72" points="438.56,-12.65 428.43,-15.74 438.28,-19.64 438.56,-12.65"/>
</g>
<!-- &#45;7&#45;&gt;1 -->
<g id="edge28" class="edge">
<title>&#45;7&#45;&gt;1</title>
<path fill="none" stroke="red" stroke-width="0.17" d="M533.05,-151.64C489,-149.62 338.16,-140.42 305.16,-108.12 287.14,-90.49 283.93,-60.64 284.23,-39.68"/>
<polygon fill="red" stroke="red" stroke-width="0.17" points="287.73,-39.77 284.65,-29.64 280.74,-39.48 287.73,-39.77"/>
</g>
<!-- &#45;7&#45;&gt;2 -->
<g id="edge29" class="edge">
<title>&#45;7&#45;&gt;2</title>
<path fill="none" stroke="green" stroke-width="0.15" d="M532.88,-152.09C456.25,-151.73 45.85,-147.95 9.16,-108.12 -3.62,-94.26 -2.27,-80.7 9.16,-65.7 28.09,-40.85 120.16,-25.26 165.22,-19"/>
<polygon fill="green" stroke="green" stroke-width="0.15" points="165.89,-22.44 175.34,-17.64 164.96,-15.5 165.89,-22.44"/>
</g>
<!-- &#45;7&#45;&gt;3 -->
<g id="edge30" class="edge">
<title>&#45;7&#45;&gt;3</title>
<path fill="none" stroke="green" stroke-width="0.14" d="M545.94,-143.94C547.09,-126.93 547.15,-87.5 526.16,-65.7 524.68,-64.16 409.65,-34.93 358.37,-21.96"/>
<polygon fill="green" stroke="green" stroke-width="0.14" points="359.01,-18.51 348.46,-19.46 357.29,-25.3 359.01,-18.51"/>
</g>
<!-- 179 -->
<g id="node18" class="node">
<title>179</title>
<ellipse fill="white" stroke="black" cx="632.16" cy="-86.91" rx="21.43" ry="21.43"/>
<text text-anchor="middle" x="632.16" y="-84.71" font-family="Times New Roman,serif" font-size="9.00">179</text>
</g>
<!-- &#45;7&#45;&gt;179 -->
<g id="edge54" class="edge">
<title>&#45;7&#45;&gt;179</title>
<path fill="none" stroke="green" stroke-width="0.39" d="M556.18,-143.99C568.87,-134.62 590.14,-118.93 606.95,-106.52"/>
<polygon fill="green" stroke="green" stroke-width="0.39" points="609.3,-109.14 615.27,-100.38 605.14,-103.5 609.3,-109.14"/>
</g>
<!-- &#45;8 -->
<g id="node8" class="node">
<title>&#45;8</title>
<polygon fill="lightgray" stroke="black" points="380.16,-95.91 356.16,-95.91 356.16,-77.91 380.16,-77.91 380.16,-95.91"/>
<text text-anchor="middle" x="368.16" y="-84.71" font-family="Times New Roman,serif" font-size="9.00">&#45;8</text>
</g>
<!-- &#45;8&#45;&gt;0 -->
<g id="edge31" class="edge">
<title>&#45;8&#45;&gt;0</title>
<path fill="none" stroke="green" stroke-width="0.14" d="M373.32,-77.87C379.8,-67.79 391.14,-50.14 400.07,-36.23"/>
<polygon fill="green" stroke="green" stroke-width="0.14" points="403.05,-38.06 405.51,-27.76 397.16,-34.28 403.05,-38.06"/>
</g>
<!-- &#45;8&#45;&gt;1 -->
<g id="edge32" class="edge">
<title>&#45;8&#45;&gt;1</title>
<path fill="none" stroke="green" stroke-width="0.39" d="M360.13,-77.88C356.27,-74.11 351.55,-69.59 347.16,-65.7 333.66,-53.72 317.87,-40.84 305.73,-31.18"/>
<polygon fill="green" stroke="green" stroke-width="0.39" points="307.65,-28.23 297.63,-24.77 303.3,-33.72 307.65,-28.23"/>
</g>
<!-- &#45;8&#45;&gt;2 -->
<g id="edge33" class="edge">
<title>&#45;8&#45;&gt;2</title>
<path fill="none" stroke="green" stroke-width="0.16" d="M361.52,-77.8C357.72,-73.63 352.62,-68.79 347.16,-65.7 293.88,-35.52 270.71,-53.2 214.16,-29.7 213.31,-29.34 212.44,-28.96 211.58,-28.56"/>
<polygon fill="green" stroke="green" stroke-width="0.16" points="213.03,-25.37 202.55,-23.82 209.77,-31.57 213.03,-25.37"/>
</g>
<!-- &#45;8&#45;&gt;3 -->
<g id="edge34" class="edge">
<title>&#45;8&#45;&gt;3</title>
<path fill="none" stroke="red" stroke-width="0.27" stroke-dasharray="1,5" d="M364.26,-77.87C359.54,-68.16 351.42,-51.41 344.79,-37.76"/>
<polygon fill="red" stroke="red" stroke-width="0.27" points="347.82,-35.99 340.31,-28.52 341.52,-39.04 347.82,-35.99"/>
</g>
<!-- &#45;8&#45;&gt;4 -->
<g id="edge35" class="edge">
<title>&#45;8&#45;&gt;4</title>
<path fill="none" stroke="green" stroke-width="0.53" d="M360.97,-77.69C357.16,-73.69 352.23,-69.04 347.16,-65.7 312.92,-43.1 298.89,-47.99 262.16,-29.7 261.33,-29.29 260.49,-28.86 259.65,-28.42"/>
<polygon fill="green" stroke="green" stroke-width="0.53" points="261.15,-25.25 250.71,-23.48 257.77,-31.38 261.15,-25.25"/>
</g>
<!-- &#45;9 -->
<g id="node9" class="node">
<title>&#45;9</title>
<polygon fill="lightgray" stroke="black" points="517.16,-95.91 493.16,-95.91 493.16,-77.91 517.16,-77.91 517.16,-95.91"/>
<text text-anchor="middle" x="505.16" y="-84.71" font-family="Times New Roman,serif" font-size="9.00">&#45;9</text>
</g>
<!-- &#45;9&#45;&gt;0 -->
<g id="edge36" class="edge">
<title>&#45;9&#45;&gt;0</title>
<path fill="none" stroke="green" stroke-width="0.4" d="M497.25,-77.74C493.43,-73.93 488.69,-69.43 484.16,-65.7 468.05,-52.42 448.56,-38.9 434.09,-29.3"/>
<polygon fill="green" stroke="green" stroke-width="0.4" points="435.66,-26.15 425.38,-23.6 431.83,-32.01 435.66,-26.15"/>
</g>
<!-- &#45;9&#45;&gt;1 -->
<g id="edge37" class="edge">
<title>&#45;9&#45;&gt;1</title>
<path fill="none" stroke="red" stroke-width="0.22" d="M498.6,-77.67C494.81,-73.46 489.71,-68.62 484.16,-65.7 414.3,-28.87 383.97,-57.79 310.16,-29.7 309.3,-29.37 308.42,-29.01 307.55,-28.63"/>
<polygon fill="red" stroke="red" stroke-width="0.22" points="308.98,-25.43 298.49,-23.97 305.78,-31.66 308.98,-25.43"/>
</g>
<!-- &#45;9&#45;&gt;2 -->
<g id="edge38" class="edge">
<title>&#45;9&#45;&gt;2</title>
<path fill="none" stroke="red" stroke-width="0.13" d="M498.68,-77.51C494.92,-73.25 489.81,-68.42 484.16,-65.7 375.12,-13.1 328.77,-68.69 214.16,-29.7 213.28,-29.4 212.4,-29.07 211.52,-28.71"/>
<polygon fill="red" stroke="red" stroke-width="0.13" points="212.93,-25.5 202.42,-24.15 209.8,-31.76 212.93,-25.5"/>
</g>
<!-- &#45;9&#45;&gt;3 -->
<g id="edge39" class="edge">
<title>&#45;9&#45;&gt;3</title>
<path fill="none" stroke="green" stroke-width="0.32" d="M498.08,-77.52C494.3,-73.48 489.36,-68.84 484.16,-65.7 462.68,-52.72 395.3,-32.83 358.59,-22.54"/>
<polygon fill="green" stroke="green" stroke-width="0.32" points="359.26,-19.09 348.69,-19.79 357.39,-25.84 359.26,-19.09"/>
</g>
<!-- &#45;10 -->
<g id="node10" class="node">
<title>&#45;10</title>
<polygon fill="lightgray" stroke="black" points="427.66,-95.91 398.66,-95.91 398.66,-77.91 427.66,-77.91 427.66,-95.91"/>
<text text-anchor="middle" x="413.16" y="-84.71" font-family="Times New Roman,serif" font-size="9.00">&#45;10</text>
</g>
<!-- &#45;10&#45;&gt;0 -->
<g id="edge40" class="edge">
<title>&#45;10&#45;&gt;0</title>
<path fill="none" stroke="green" stroke-width="0.51" d="M413.16,-77.87C413.16,-68.72 413.16,-53.33 413.16,-40.16"/>
<polygon fill="green" stroke="green" stroke-width="0.51" points="416.66,-39.82 413.16,-29.82 409.66,-39.82 416.66,-39.82"/>
</g>
<!-- &#45;10&#45;&gt;1 -->
<g id="edge41" class="edge">
<title>&#45;10&#45;&gt;1</title>
<path fill="none" stroke="red" stroke-width="0.11" stroke-dasharray="1,5" d="M404.72,-77.82C400.3,-73.85 394.69,-69.19 389.16,-65.7 356.55,-45.08 344.47,-47.36 310.16,-29.7 309.34,-29.27 308.5,-28.84 307.66,-28.39"/>
<polygon fill="red" stroke="red" stroke-width="0.11" points="309.18,-25.23 298.74,-23.41 305.77,-31.34 309.18,-25.23"/>
</g>
<!-- &#45;10&#45;&gt;2 -->
<g id="edge42" class="edge">
<title>&#45;10&#45;&gt;2</title>
<path fill="none" stroke="green" stroke-width="0.52" stroke-dasharray="1,5" d="M405.45,-77.68C401.06,-73.48 395.24,-68.65 389.16,-65.7 317.71,-31.06 288.39,-57.9 214.16,-29.7 213.29,-29.37 212.42,-29.01 211.55,-28.63"/>
<polygon fill="green" stroke="green" stroke-width="0.52" points="212.98,-25.43 202.49,-23.97 209.78,-31.66 212.98,-25.43"/>
</g>
<!-- &#45;10&#45;&gt;3 -->
<g id="edge43" class="edge">
<title>&#45;10&#45;&gt;3</title>
<path fill="none" stroke="green" stroke-width="0.31" d="M404.1,-77.87C391.6,-66.79 368.8,-46.57 352.63,-32.23"/>
<polygon fill="green" stroke="green" stroke-width="0.31" points="354.68,-29.37 344.87,-25.35 350.03,-34.6 354.68,-29.37"/>
</g>
<!-- &#45;10&#45;&gt;4 -->
<g id="edge44" class="edge">
<title>&#45;10&#45;&gt;4</title>
<path fill="none" stroke="green" stroke-width="0.6" d="M405.36,-77.86C400.94,-73.71 395.13,-68.87 389.16,-65.7 337.34,-38.19 316.2,-52.53 262.16,-29.7 261.31,-29.34 260.45,-28.95 259.59,-28.55"/>
<polygon fill="green" stroke="green" stroke-width="0.6" points="261.04,-25.36 250.56,-23.79 257.77,-31.55 261.04,-25.36"/>
</g>
<!-- &#45;11 -->
<g id="node11" class="node">
<title>&#45;11</title>
<polygon fill="lightgray" stroke="black" points="173.66,-95.91 144.66,-95.91 144.66,-77.91 173.66,-77.91 173.66,-95.91"/>
<text text-anchor="middle" x="159.16" y="-84.71" font-family="Times New Roman,serif" font-size="9.00">&#45;11</text>
</g>
<!-- &#45;11&#45;&gt;1 -->
<g id="edge45" class="edge">
<title>&#45;11&#45;&gt;1</title>
<path fill="none" stroke="green" stroke-width="0.61" d="M167.61,-77.82C172.02,-73.85 177.64,-69.19 183.16,-65.7 215.77,-45.08 227.86,-47.36 262.16,-29.7 262.98,-29.27 263.82,-28.84 264.66,-28.39"/>
<polygon fill="green" stroke="green" stroke-width="0.61" points="266.55,-31.34 273.58,-23.41 263.14,-25.23 266.55,-31.34"/>
</g>
<!-- &#45;11&#45;&gt;2 -->
<g id="edge46" class="edge">
<title>&#45;11&#45;&gt;2</title>
<path fill="none" stroke="red" stroke-width="0.16" d="M162.72,-77.87C166.99,-68.21 174.34,-51.6 180.36,-38"/>
<polygon fill="red" stroke="red" stroke-width="0.16" points="183.6,-39.33 184.44,-28.77 177.19,-36.5 183.6,-39.33"/>
</g>
<!-- &#45;11&#45;&gt;3 -->
<g id="edge47" class="edge">
<title>&#45;11&#45;&gt;3</title>
<path fill="none" stroke="red" stroke-width="0.23" d="M166.96,-77.86C171.38,-73.71 177.19,-68.87 183.16,-65.7 234.98,-38.19 256.12,-52.53 310.16,-29.7 311.01,-29.34 311.87,-28.95 312.74,-28.55"/>
<polygon fill="red" stroke="red" stroke-width="0.23" points="314.55,-31.55 321.76,-23.79 311.28,-25.36 314.55,-31.55"/>
</g>
<!-- &#45;11&#45;&gt;4 -->
<g id="edge48" class="edge">
<title>&#45;11&#45;&gt;4</title>
<path fill="none" stroke="green" stroke-width="0.44" d="M168.22,-77.87C180.72,-66.79 203.52,-46.57 219.69,-32.23"/>
<polygon fill="green" stroke="green" stroke-width="0.44" points="222.29,-34.6 227.45,-25.35 217.64,-29.37 222.29,-34.6"/>
</g>
<!-- &#45;12 -->
<g id="node12" class="node">
<title>&#45;12</title>
<polygon fill="lightgray" stroke="black" points="474.66,-95.91 445.66,-95.91 445.66,-77.91 474.66,-77.91 474.66,-95.91"/>
<text text-anchor="middle" x="460.16" y="-84.71" font-family="Times New Roman,serif" font-size="9.00">&#45;12</text>
</g>
<!-- &#45;12&#45;&gt;0 -->
<g id="edge49" class="edge">
<title>&#45;12&#45;&gt;0</title>
<path fill="none" stroke="red" stroke-width="0.33" d="M454.77,-77.87C447.96,-67.73 436.02,-49.93 426.67,-35.99"/>
<polygon fill="red" stroke="red" stroke-width="0.33" points="429.46,-33.86 420.98,-27.51 423.65,-37.76 429.46,-33.86"/>
</g>
<!-- &#45;12&#45;&gt;1 -->
<g id="edge50" class="edge">
<title>&#45;12&#45;&gt;1</title>
<path fill="none" stroke="green" stroke-width="0.31" d="M452.74,-77.85C448.53,-73.69 442.95,-68.85 437.16,-65.7 385.64,-37.64 364.2,-52.53 310.16,-29.7 309.31,-29.34 308.45,-28.95 307.59,-28.55"/>
<polygon fill="green" stroke="green" stroke-width="0.31" points="309.04,-25.36 298.56,-23.79 305.77,-31.55 309.04,-25.36"/>
</g>
<!-- &#45;12&#45;&gt;2 -->
<g id="edge51" class="edge">
<title>&#45;12&#45;&gt;2</title>
<path fill="none" stroke="red" stroke-width="0.42" d="M452.88,-77.57C448.71,-73.34 443.12,-68.51 437.16,-65.7 346.35,-22.89 308.75,-63.34 214.16,-29.7 213.29,-29.39 212.41,-29.05 211.54,-28.68"/>
<polygon fill="red" stroke="red" stroke-width="0.42" points="212.95,-25.47 202.45,-24.08 209.79,-31.72 212.95,-25.47"/>
</g>
<!-- &#45;12&#45;&gt;3 -->
<g id="edge52" class="edge">
<title>&#45;12&#45;&gt;3</title>
<path fill="none" stroke="red" stroke-width="0.51" d="M452.08,-77.85C447.86,-73.89 442.48,-69.23 437.16,-65.7 411.3,-48.53 378.63,-33.75 357.11,-24.84"/>
<polygon fill="red" stroke="red" stroke-width="0.51" points="358.37,-21.57 347.79,-21.06 355.74,-28.06 358.37,-21.57"/>
</g>
<!-- &#45;12&#45;&gt;4 -->
<g id="edge53" class="edge">
<title>&#45;12&#45;&gt;4</title>
<path fill="none" stroke="green" stroke-width="0.34" d="M452.83,-77.67C448.64,-73.47 443.06,-68.64 437.16,-65.7 366.08,-30.31 336.39,-57.9 262.16,-29.7 261.29,-29.37 260.42,-29.01 259.55,-28.63"/>
<polygon fill="green" stroke="green" stroke-width="0.34" points="260.98,-25.43 250.49,-23.97 257.78,-31.66 260.98,-25.43"/>
</g>
<!-- 179&#45;&gt;0 -->
<g id="edge55" class="edge">
<title>179&#45;&gt;0</title>
<path fill="none" stroke="green" stroke-width="0.7" d="M614.45,-74.5C609.05,-71.34 602.99,-68.12 597.16,-65.7 542.33,-42.89 473.96,-27.57 437.98,-20.44"/>
<polygon fill="green" stroke="green" stroke-width="0.7" points="438.38,-16.95 427.9,-18.49 437.05,-23.83 438.38,-16.95"/>
</g>
</g>
</svg>
