<?xml version="1.0" encoding="UTF-8" standalone="no"?>
<!DOCTYPE svg PUBLIC "-//W3C//DTD SVG 1.1//EN"
 "http://www.w3.org/Graphics/SVG/1.1/DTD/svg11.dtd">
<!-- Generated by graphviz version 3.0.0 (20220226.1711)
 -->
<!-- Pages: 1 -->
<svg width="510pt" height="92pt"
 viewBox="0.00 0.00 510.00 91.70" xmlns="http://www.w3.org/2000/svg" xmlns:xlink="http://www.w3.org/1999/xlink">
<g id="graph0" class="graph" transform="scale(1 1) rotate(0) translate(4 87.7)">
<polygon fill="white" stroke="transparent" points="-4,4 -4,-87.7 506,-87.7 506,4 -4,4"/>
<!-- &#45;1 -->
<g id="node1" class="node">
<title>&#45;1</title>
<polygon fill="lightgray" stroke="black" points="292,-83.7 268,-83.7 268,-65.7 292,-65.7 292,-83.7"/>
<text text-anchor="middle" x="280" y="-72.5" font-family="Times New Roman,serif" font-size="9.00">&#45;1</text>
</g>
<!-- 0 -->
<g id="node13" class="node">
<title>0</title>
<ellipse fill="lightblue" stroke="black" cx="348" cy="-14.85" rx="14.7" ry="14.7"/>
<text text-anchor="middle" x="348" y="-12.65" font-family="Times New Roman,serif" font-size="9.00">0</text>
</g>
<!-- &#45;1&#45;&gt;0 -->
<g id="edge1" class="edge">
<title>&#45;1&#45;&gt;0</title>
<path fill="none" stroke="green" stroke-width="0.23" d="M289.46,-65.65C299.63,-57 316.1,-42.99 328.97,-32.03"/>
<polygon fill="green" stroke="green" stroke-width="0.23" points="331.47,-34.51 336.82,-25.36 326.93,-29.18 331.47,-34.51"/>
</g>
<!-- 1 -->
<g id="node14" class="node">
<title>1</title>
<ellipse fill="lightblue" stroke="black" cx="156" cy="-14.85" rx="14.7" ry="14.7"/>
<text text-anchor="middle" x="156" y="-12.65" font-family="Times New Roman,serif" font-size="9.00">1</text>
</g>
<!-- &#45;1&#45;&gt;1 -->
<g id="edge2" class="edge">
<title>&#45;1&#45;&gt;1</title>
<path fill="none" stroke="red" stroke-width="0.34" d="M267.8,-68.83C248.76,-61.13 210.96,-45.39 180,-29.7 179.17,-29.28 178.34,-28.85 177.49,-28.4"/>
<polygon fill="red" stroke="red" stroke-width="0.34" points="179,-25.24 168.56,-23.44 175.61,-31.36 179,-25.24"/>
</g>
<!-- 2 -->
<g id="node15" class="node">
<title>2</title>
<ellipse fill="lightblue" stroke="black" cx="204" cy="-14.85" rx="14.7" ry="14.7"/>
<text text-anchor="middle" x="204" y="-12.65" font-family="Times New Roman,serif" font-size="9.00">2</text>
</g>
<!-- &#45;1&#45;&gt;2 -->
<g id="edge3" class="edge">
<title>&#45;1&#45;&gt;2</title>
<path fill="none" stroke="green" stroke-width="0.1" d="M269.43,-65.65C257.57,-56.62 238.06,-41.78 223.43,-30.64"/>
<polygon fill="green" stroke="green" stroke-width="0.1" points="225.55,-27.85 215.47,-24.58 221.31,-33.42 225.55,-27.85"/>
</g>
<!-- 3 -->
<g id="node16" class="node">
<title>3</title>
<ellipse fill="lightblue" stroke="black" cx="252" cy="-14.85" rx="14.7" ry="14.7"/>
<text text-anchor="middle" x="252" y="-12.65" font-family="Times New Roman,serif" font-size="9.00">3</text>
</g>
<!-- &#45;1&#45;&gt;3 -->
<g id="edge4" class="edge">
<title>&#45;1&#45;&gt;3</title>
<path fill="none" stroke="red" stroke-width="0.18" d="M276.11,-65.65C272.64,-58.48 267.39,-47.64 262.68,-37.91"/>
<polygon fill="red" stroke="red" stroke-width="0.18" points="265.73,-36.19 258.23,-28.71 259.43,-39.24 265.73,-36.19"/>
</g>
<!-- 4 -->
<g id="node17" class="node">
<title>4</title>
<ellipse fill="lightblue" stroke="black" cx="300" cy="-14.85" rx="14.7" ry="14.7"/>
<text text-anchor="middle" x="300" y="-12.65" font-family="Times New Roman,serif" font-size="9.00">4</text>
</g>
<!-- &#45;1&#45;&gt;4 -->
<g id="edge5" class="edge">
<title>&#45;1&#45;&gt;4</title>
<path fill="none" stroke="green" stroke-width="0.22" d="M282.78,-65.65C285.18,-58.72 288.76,-48.37 292.03,-38.89"/>
<polygon fill="green" stroke="green" stroke-width="0.22" points="295.44,-39.75 295.4,-29.16 288.82,-37.46 295.44,-39.75"/>
</g>
<!-- &#45;2 -->
<g id="node2" class="node">
<title>&#45;2</title>
<polygon fill="lightgray" stroke="black" points="334,-83.7 310,-83.7 310,-65.7 334,-65.7 334,-83.7"/>
<text text-anchor="middle" x="322" y="-72.5" font-family="Times New Roman,serif" font-size="9.00">&#45;2</text>
</g>
<!-- &#45;2&#45;&gt;0 -->
<g id="edge6" class="edge">
<title>&#45;2&#45;&gt;0</title>
<path fill="none" stroke="red" stroke-width="0.25" d="M325.62,-65.65C328.84,-58.48 333.71,-47.64 338.09,-37.91"/>
<polygon fill="red" stroke="red" stroke-width="0.25" points="341.31,-39.27 342.22,-28.71 334.93,-36.4 341.31,-39.27"/>
</g>
<!-- &#45;2&#45;&gt;1 -->
<g id="edge7" class="edge">
<title>&#45;2&#45;&gt;1</title>
<path fill="none" stroke="red" stroke-width="0.33" d="M309.62,-68.81C306.8,-67.74 303.81,-66.65 301,-65.7 247.86,-47.7 231.54,-51.87 180,-29.7 179.15,-29.33 178.29,-28.94 177.43,-28.54"/>
<polygon fill="red" stroke="red" stroke-width="0.33" points="178.89,-25.35 168.42,-23.75 175.61,-31.53 178.89,-25.35"/>
</g>
<!-- &#45;2&#45;&gt;2 -->
<g id="edge8" class="edge">
<title>&#45;2&#45;&gt;2</title>
<path fill="none" stroke="red" stroke-width="0.29" d="M309.97,-68.46C291.94,-60.53 256.92,-44.78 228,-29.7 227.18,-29.27 226.35,-28.83 225.51,-28.38"/>
<polygon fill="red" stroke="red" stroke-width="0.29" points="227.03,-25.22 216.59,-23.39 223.61,-31.32 227.03,-25.22"/>
</g>
<!-- &#45;2&#45;&gt;3 -->
<g id="edge9" class="edge">
<title>&#45;2&#45;&gt;3</title>
<path fill="none" stroke="green" stroke-width="0.29" d="M312.27,-65.65C301.67,-56.89 284.44,-42.66 271.12,-31.65"/>
<polygon fill="green" stroke="green" stroke-width="0.29" points="272.97,-28.64 263.03,-24.97 268.51,-34.04 272.97,-28.64"/>
</g>
<!-- &#45;2&#45;&gt;4 -->
<g id="edge10" class="edge">
<title>&#45;2&#45;&gt;4</title>
<path fill="none" stroke="red" stroke-width="0.41" d="M318.94,-65.65C316.28,-58.65 312.28,-48.15 308.65,-38.59"/>
<polygon fill="red" stroke="red" stroke-width="0.41" points="311.89,-37.26 305.06,-29.16 305.34,-39.75 311.89,-37.26"/>
</g>
<!-- &#45;3 -->
<g id="node3" class="node">
<title>&#45;3</title>
<polygon fill="lightgray" stroke="black" points="376,-83.7 352,-83.7 352,-65.7 376,-65.7 376,-83.7"/>
<text text-anchor="middle" x="364" y="-72.5" font-family="Times New Roman,serif" font-size="9.00">&#45;3</text>
</g>
<!-- &#45;3&#45;&gt;0 -->
<g id="edge11" class="edge">
<title>&#45;3&#45;&gt;0</title>
<path fill="none" stroke="green" stroke-width="0.37" d="M361.78,-65.65C359.88,-58.82 357.07,-48.64 354.48,-39.27"/>
<polygon fill="green" stroke="green" stroke-width="0.37" points="357.84,-38.31 351.8,-29.6 351.1,-40.18 357.84,-38.31"/>
</g>
<!-- &#45;3&#45;&gt;1 -->
<g id="edge12" class="edge">
<title>&#45;3&#45;&gt;1</title>
<path fill="none" stroke="green" stroke-width="0.22" d="M351.67,-68.66C348.85,-67.6 345.84,-66.55 343,-65.7 271.92,-44.44 249.16,-56.55 180,-29.7 179.14,-29.36 178.27,-29 177.4,-28.62"/>
<polygon fill="green" stroke="green" stroke-width="0.22" points="178.83,-25.42 168.34,-23.93 175.62,-31.64 178.83,-25.42"/>
</g>
<!-- &#45;3&#45;&gt;2 -->
<g id="edge13" class="edge">
<title>&#45;3&#45;&gt;2</title>
<path fill="none" stroke="red" stroke-width="0.59" d="M351.61,-68.84C348.79,-67.77 345.8,-66.67 343,-65.7 292.4,-48.16 277.05,-51.21 228,-29.7 227.15,-29.33 226.3,-28.93 225.44,-28.52"/>
<polygon fill="red" stroke="red" stroke-width="0.59" points="226.9,-25.34 216.43,-23.72 223.61,-31.51 226.9,-25.34"/>
</g>
<!-- &#45;3&#45;&gt;3 -->
<g id="edge14" class="edge">
<title>&#45;3&#45;&gt;3</title>
<path fill="none" stroke="red" stroke-width="0.35" d="M351.93,-67.94C334.86,-59.75 302.78,-44.1 276,-29.7 275.18,-29.26 274.36,-28.81 273.52,-28.35"/>
<polygon fill="red" stroke="red" stroke-width="0.35" points="275.05,-25.2 264.63,-23.32 271.61,-31.29 275.05,-25.2"/>
</g>
<!-- &#45;3&#45;&gt;4 -->
<g id="edge15" class="edge">
<title>&#45;3&#45;&gt;4</title>
<path fill="none" stroke="red" stroke-width="0.35" d="M355.1,-65.65C345.61,-57.08 330.32,-43.26 318.25,-32.35"/>
<polygon fill="red" stroke="red" stroke-width="0.35" points="320.29,-29.47 310.52,-25.36 315.6,-34.66 320.29,-29.47"/>
</g>
<!-- &#45;4 -->
<g id="node4" class="node">
<title>&#45;4</title>
<polygon fill="lightgray" stroke="black" points="418,-83.7 394,-83.7 394,-65.7 418,-65.7 418,-83.7"/>
<text text-anchor="middle" x="406" y="-72.5" font-family="Times New Roman,serif" font-size="9.00">&#45;4</text>
</g>
<!-- &#45;4&#45;&gt;0 -->
<g id="edge16" class="edge">
<title>&#45;4&#45;&gt;0</title>
<path fill="none" stroke="green" stroke-width="0.13" d="M397.94,-65.65C389.62,-57.36 376.39,-44.16 365.63,-33.44"/>
<polygon fill="green" stroke="green" stroke-width="0.13" points="367.9,-30.75 358.34,-26.17 362.95,-35.71 367.9,-30.75"/>
</g>
<!-- &#45;4&#45;&gt;1 -->
<g id="edge17" class="edge">
<title>&#45;4&#45;&gt;1</title>
<path fill="none" stroke="red" stroke-width="0.1" d="M393.69,-68.56C390.87,-67.51 387.86,-66.49 385,-65.7 295.82,-41.12 266.94,-61.3 180,-29.7 179.13,-29.38 178.25,-29.04 177.38,-28.66"/>
<polygon fill="red" stroke="red" stroke-width="0.1" points="178.8,-25.46 168.3,-24.05 175.63,-31.7 178.8,-25.46"/>
</g>
<!-- &#45;4&#45;&gt;2 -->
<g id="edge18" class="edge">
<title>&#45;4&#45;&gt;2</title>
<path fill="none" stroke="red" stroke-width="0.4" d="M393.66,-68.67C390.84,-67.61 387.84,-66.56 385,-65.7 316.5,-44.91 294.63,-55.88 228,-29.7 227.14,-29.36 226.27,-28.99 225.4,-28.61"/>
<polygon fill="red" stroke="red" stroke-width="0.4" points="226.84,-25.41 216.35,-23.91 223.62,-31.62 226.84,-25.41"/>
</g>
<!-- &#45;4&#45;&gt;3 -->
<g id="edge19" class="edge">
<title>&#45;4&#45;&gt;3</title>
<path fill="none" stroke="red" stroke-width="0.17" d="M393.6,-68.87C390.78,-67.8 387.79,-66.69 385,-65.7 336.93,-48.61 322.56,-50.56 276,-29.7 275.15,-29.32 274.3,-28.92 273.44,-28.5"/>
<polygon fill="red" stroke="red" stroke-width="0.17" points="274.92,-25.32 264.45,-23.68 271.61,-31.49 274.92,-25.32"/>
</g>
<!-- &#45;4&#45;&gt;4 -->
<g id="edge20" class="edge">
<title>&#45;4&#45;&gt;4</title>
<path fill="none" stroke="green" stroke-width="0.34" d="M393.99,-67.4C377.95,-58.96 348.7,-43.45 324,-29.7 323.19,-29.25 322.37,-28.79 321.54,-28.32"/>
<polygon fill="green" stroke="green" stroke-width="0.34" points="323.08,-25.17 312.66,-23.25 319.61,-31.25 323.08,-25.17"/>
</g>
<!-- &#45;5 -->
<g id="node5" class="node">
<title>&#45;5</title>
<polygon fill="lightgray" stroke="black" points="460,-83.7 436,-83.7 436,-65.7 460,-65.7 460,-83.7"/>
<text text-anchor="middle" x="448" y="-72.5" font-family="Times New Roman,serif" font-size="9.00">&#45;5</text>
</g>
<!-- &#45;5&#45;&gt;0 -->
<g id="edge21" class="edge">
<title>&#45;5&#45;&gt;0</title>
<path fill="none" stroke="green" stroke-width="0.11" d="M435.74,-66.61C419.26,-57.07 389.71,-39.98 369.49,-28.28"/>
<polygon fill="green" stroke="green" stroke-width="0.11" points="371.09,-25.16 360.68,-23.18 367.58,-31.22 371.09,-25.16"/>
</g>
<!-- &#45;5&#45;&gt;1 -->
<g id="edge22" class="edge">
<title>&#45;5&#45;&gt;1</title>
<path fill="none" stroke="red" stroke-width="0.17" d="M435.71,-68.5C432.89,-67.45 429.87,-66.44 427,-65.7 319.63,-37.78 284.81,-66.07 180,-29.7 179.13,-29.39 178.25,-29.06 177.37,-28.7"/>
<polygon fill="red" stroke="red" stroke-width="0.17" points="178.78,-25.49 168.27,-24.12 175.63,-31.74 178.78,-25.49"/>
</g>
<!-- &#45;5&#45;&gt;2 -->
<g id="edge23" class="edge">
<title>&#45;5&#45;&gt;2</title>
<path fill="none" stroke="green" stroke-width="0.42" d="M435.69,-68.57C432.87,-67.52 429.86,-66.49 427,-65.7 340.41,-41.6 312.39,-60.62 228,-29.7 227.13,-29.38 226.26,-29.03 225.38,-28.66"/>
<polygon fill="green" stroke="green" stroke-width="0.42" points="226.81,-25.45 216.31,-24.03 223.63,-31.69 226.81,-25.45"/>
</g>
<!-- &#45;5&#45;&gt;3 -->
<g id="edge24" class="edge">
<title>&#45;5&#45;&gt;3</title>
<path fill="none" stroke="green" stroke-width="0.15" d="M435.66,-68.69C432.84,-67.63 429.83,-66.57 427,-65.7 361.07,-45.38 340.1,-55.21 276,-29.7 275.14,-29.36 274.27,-28.99 273.41,-28.6"/>
<polygon fill="green" stroke="green" stroke-width="0.15" points="274.85,-25.4 264.36,-23.89 271.62,-31.61 274.85,-25.4"/>
</g>
<!-- &#45;5&#45;&gt;4 -->
<g id="edge25" class="edge">
<title>&#45;5&#45;&gt;4</title>
<path fill="none" stroke="red" stroke-width="0.18" d="M435.58,-68.9C432.77,-67.83 429.79,-66.72 427,-65.7 381.45,-49.07 368.08,-49.91 324,-29.7 323.16,-29.31 322.31,-28.91 321.45,-28.49"/>
<polygon fill="red" stroke="red" stroke-width="0.18" points="322.93,-25.31 312.47,-23.64 319.61,-31.47 322.93,-25.31"/>
</g>
<!-- &#45;6 -->
<g id="node6" class="node">
<title>&#45;6</title>
<polygon fill="lightgray" stroke="black" points="502,-83.7 478,-83.7 478,-65.7 502,-65.7 502,-83.7"/>
<text text-anchor="middle" x="490" y="-72.5" font-family="Times New Roman,serif" font-size="9.00">&#45;6</text>
</g>
<!-- &#45;6&#45;&gt;0 -->
<g id="edge26" class="edge">
<title>&#45;6&#45;&gt;0</title>
<path fill="none" stroke="green" stroke-width="0.13" d="M477.89,-68.77C454.27,-59.14 401.69,-37.72 371.16,-25.28"/>
<polygon fill="green" stroke="green" stroke-width="0.13" points="372.31,-21.97 361.73,-21.44 369.67,-28.46 372.31,-21.97"/>
</g>
<!-- &#45;6&#45;&gt;1 -->
<g id="edge27" class="edge">
<title>&#45;6&#45;&gt;1</title>
<path fill="none" stroke="green" stroke-width="0.14" d="M477.72,-68.46C474.9,-67.41 471.88,-66.41 469,-65.7 343.4,-34.43 302.72,-70.86 180,-29.7 179.12,-29.4 178.24,-29.08 177.36,-28.72"/>
<polygon fill="green" stroke="green" stroke-width="0.14" points="178.77,-25.51 168.26,-24.17 175.64,-31.77 178.77,-25.51"/>
</g>
<!-- &#45;6&#45;&gt;2 -->
<g id="edge28" class="edge">
<title>&#45;6&#45;&gt;2</title>
<path fill="none" stroke="green" stroke-width="0.14" d="M477.71,-68.51C474.88,-67.46 471.87,-66.45 469,-65.7 364.23,-38.26 330.25,-65.39 228,-29.7 227.13,-29.39 226.25,-29.06 225.37,-28.69"/>
<polygon fill="green" stroke="green" stroke-width="0.14" points="226.78,-25.49 216.28,-24.11 223.63,-31.74 226.78,-25.49"/>
</g>
<!-- &#45;6&#45;&gt;3 -->
<g id="edge29" class="edge">
<title>&#45;6&#45;&gt;3</title>
<path fill="none" stroke="green" stroke-width="0.29" d="M477.69,-68.59C474.86,-67.53 471.85,-66.5 469,-65.7 385,-42.07 357.85,-59.94 276,-29.7 275.13,-29.38 274.26,-29.03 273.38,-28.65"/>
<polygon fill="green" stroke="green" stroke-width="0.29" points="274.81,-25.45 264.31,-24.02 271.63,-31.68 274.81,-25.45"/>
</g>
<!-- &#45;6&#45;&gt;4 -->
<g id="edge30" class="edge">
<title>&#45;6&#45;&gt;4</title>
<path fill="none" stroke="green" stroke-width="0.46" d="M477.65,-68.71C474.83,-67.65 471.83,-66.59 469,-65.7 405.64,-45.84 385.58,-54.54 324,-29.7 323.14,-29.35 322.28,-28.98 321.41,-28.59"/>
<polygon fill="green" stroke="green" stroke-width="0.46" points="322.85,-25.39 312.37,-23.87 319.62,-31.6 322.85,-25.39"/>
</g>
<!-- &#45;7 -->
<g id="node7" class="node">
<title>&#45;7</title>
<polygon fill="lightgray" stroke="black" points="24,-83.7 0,-83.7 0,-65.7 24,-65.7 24,-83.7"/>
<text text-anchor="middle" x="12" y="-72.5" font-family="Times New Roman,serif" font-size="9.00">&#45;7</text>
</g>
<!-- &#45;7&#45;&gt;0 -->
<g id="edge31" class="edge">
<title>&#45;7&#45;&gt;0</title>
<path fill="none" stroke="green" stroke-width="0.44" d="M24.28,-68.46C27.1,-67.41 30.12,-66.41 33,-65.7 159.47,-34.27 200.43,-71.09 324,-29.7 324.88,-29.4 325.76,-29.08 326.64,-28.72"/>
<polygon fill="green" stroke="green" stroke-width="0.44" points="328.36,-31.77 335.74,-24.18 325.23,-25.51 328.36,-31.77"/>
</g>
<!-- &#45;7&#45;&gt;1 -->
<g id="edge32" class="edge">
<title>&#45;7&#45;&gt;1</title>
<path fill="none" stroke="red" stroke-width="0.13" d="M24.28,-68.77C48.35,-59.09 102.1,-37.5 132.98,-25.1"/>
<polygon fill="red" stroke="red" stroke-width="0.13" points="134.53,-28.25 142.51,-21.27 131.92,-21.75 134.53,-28.25"/>
</g>
<!-- &#45;7&#45;&gt;2 -->
<g id="edge33" class="edge">
<title>&#45;7&#45;&gt;2</title>
<path fill="none" stroke="red" stroke-width="0.12" d="M24.35,-68.7C27.17,-67.64 30.17,-66.58 33,-65.7 97.22,-45.69 117.58,-54.76 180,-29.7 180.86,-29.35 181.73,-28.98 182.59,-28.59"/>
<polygon fill="red" stroke="red" stroke-width="0.12" points="184.38,-31.6 191.63,-23.88 181.15,-25.4 184.38,-31.6"/>
</g>
<!-- &#45;7&#45;&gt;3 -->
<g id="edge34" class="edge">
<title>&#45;7&#45;&gt;3</title>
<path fill="none" stroke="red" stroke-width="0.14" d="M24.31,-68.58C27.13,-67.53 30.14,-66.5 33,-65.7 117.86,-41.91 145.3,-60.16 228,-29.7 228.87,-29.38 229.74,-29.03 230.62,-28.65"/>
<polygon fill="red" stroke="red" stroke-width="0.14" points="232.37,-31.69 239.69,-24.02 229.19,-25.45 232.37,-31.69"/>
</g>
<!-- &#45;7&#45;&gt;4 -->
<g id="edge35" class="edge">
<title>&#45;7&#45;&gt;4</title>
<path fill="none" stroke="red" stroke-width="0.18" d="M24.29,-68.51C27.11,-67.46 30.13,-66.45 33,-65.7 138.63,-38.1 172.9,-65.62 276,-29.7 276.87,-29.39 277.75,-29.06 278.63,-28.69"/>
<polygon fill="red" stroke="red" stroke-width="0.18" points="280.37,-31.74 287.72,-24.11 277.22,-25.49 280.37,-31.74"/>
</g>
<!-- &#45;8 -->
<g id="node8" class="node">
<title>&#45;8</title>
<polygon fill="lightgray" stroke="black" points="66,-83.7 42,-83.7 42,-65.7 66,-65.7 66,-83.7"/>
<text text-anchor="middle" x="54" y="-72.5" font-family="Times New Roman,serif" font-size="9.00">&#45;8</text>
</g>
<!-- &#45;8&#45;&gt;0 -->
<g id="edge36" class="edge">
<title>&#45;8&#45;&gt;0</title>
<path fill="none" stroke="red" stroke-width="0.36" d="M66.29,-68.5C69.11,-67.45 72.13,-66.44 75,-65.7 183.24,-37.62 218.34,-66.3 324,-29.7 324.88,-29.4 325.75,-29.06 326.63,-28.7"/>
<polygon fill="red" stroke="red" stroke-width="0.36" points="328.37,-31.74 335.73,-24.12 325.22,-25.49 328.37,-31.74"/>
</g>
<!-- &#45;8&#45;&gt;1 -->
<g id="edge37" class="edge">
<title>&#45;8&#45;&gt;1</title>
<path fill="none" stroke="green" stroke-width="0.11" d="M66.1,-66.84C82.94,-57.28 113.71,-39.83 134.51,-28.04"/>
<polygon fill="green" stroke="green" stroke-width="0.11" points="136.3,-31.04 143.28,-23.07 132.85,-24.96 136.3,-31.04"/>
</g>
<!-- &#45;8&#45;&gt;2 -->
<g id="edge38" class="edge">
<title>&#45;8&#45;&gt;2</title>
<path fill="none" stroke="red" stroke-width="0.18" d="M66.41,-68.89C69.23,-67.82 72.21,-66.71 75,-65.7 121.39,-48.91 135.09,-50.12 180,-29.7 180.84,-29.32 181.69,-28.91 182.55,-28.49"/>
<polygon fill="red" stroke="red" stroke-width="0.18" points="184.39,-31.47 191.54,-23.65 181.07,-25.31 184.39,-31.47"/>
</g>
<!-- &#45;8&#45;&gt;3 -->
<g id="edge39" class="edge">
<title>&#45;8&#45;&gt;3</title>
<path fill="none" stroke="green" stroke-width="0.2" d="M66.34,-68.68C69.16,-67.63 72.17,-66.57 75,-65.7 141.79,-45.22 163.05,-55.43 228,-29.7 228.86,-29.36 229.73,-28.99 230.6,-28.6"/>
<polygon fill="green" stroke="green" stroke-width="0.2" points="232.38,-31.62 239.64,-23.9 229.16,-25.4 232.38,-31.62"/>
</g>
<!-- &#45;8&#45;&gt;4 -->
<g id="edge40" class="edge">
<title>&#45;8&#45;&gt;4</title>
<path fill="none" stroke="red" stroke-width="0.4" d="M66.31,-68.57C69.13,-67.52 72.14,-66.49 75,-65.7 162.45,-41.44 190.76,-60.84 276,-29.7 276.87,-29.38 277.74,-29.03 278.62,-28.66"/>
<polygon fill="red" stroke="red" stroke-width="0.4" points="280.37,-31.69 287.7,-24.04 277.2,-25.46 280.37,-31.69"/>
</g>
<!-- &#45;9 -->
<g id="node9" class="node">
<title>&#45;9</title>
<polygon fill="lightgray" stroke="black" points="108,-83.7 84,-83.7 84,-65.7 108,-65.7 108,-83.7"/>
<text text-anchor="middle" x="96" y="-72.5" font-family="Times New Roman,serif" font-size="9.00">&#45;9</text>
</g>
<!-- &#45;9&#45;&gt;0 -->
<g id="edge41" class="edge">
<title>&#45;9&#45;&gt;0</title>
<path fill="none" stroke="red" stroke-width="0.33" d="M108.31,-68.56C111.13,-67.51 114.14,-66.48 117,-65.7 207.05,-40.96 236.21,-61.52 324,-29.7 324.87,-29.38 325.75,-29.04 326.62,-28.67"/>
<polygon fill="red" stroke="red" stroke-width="0.33" points="328.37,-31.7 335.7,-24.05 325.2,-25.46 328.37,-31.7"/>
</g>
<!-- &#45;9&#45;&gt;1 -->
<g id="edge42" class="edge">
<title>&#45;9&#45;&gt;1</title>
<path fill="none" stroke="green" stroke-width="0.29" d="M104.34,-65.65C113.13,-57.18 127.24,-43.58 138.49,-32.73"/>
<polygon fill="green" stroke="green" stroke-width="0.29" points="140.95,-35.22 145.72,-25.76 136.09,-30.18 140.95,-35.22"/>
</g>
<!-- &#45;9&#45;&gt;2 -->
<g id="edge43" class="edge">
<title>&#45;9&#45;&gt;2</title>
<path fill="none" stroke="red" stroke-width="0.16" d="M108.04,-67.59C124.43,-59.22 154.61,-43.66 180,-29.7 180.81,-29.25 181.64,-28.79 182.47,-28.33"/>
<polygon fill="red" stroke="red" stroke-width="0.16" points="184.39,-31.26 191.35,-23.28 180.93,-25.18 184.39,-31.26"/>
</g>
<!-- &#45;9&#45;&gt;3 -->
<g id="edge44" class="edge">
<title>&#45;9&#45;&gt;3</title>
<path fill="none" stroke="red" stroke-width="0.38" d="M108.4,-68.86C111.22,-67.79 114.2,-66.68 117,-65.7 165.91,-48.46 180.61,-50.78 228,-29.7 228.85,-29.32 229.7,-28.92 230.56,-28.51"/>
<polygon fill="red" stroke="red" stroke-width="0.38" points="232.39,-31.5 239.56,-23.69 229.09,-25.33 232.39,-31.5"/>
</g>
<!-- &#45;9&#45;&gt;4 -->
<g id="edge45" class="edge">
<title>&#45;9&#45;&gt;4</title>
<path fill="none" stroke="red" stroke-width="0.34" d="M108.34,-68.67C111.16,-67.61 114.16,-66.56 117,-65.7 186.36,-44.75 208.53,-56.1 276,-29.7 276.86,-29.36 277.73,-29 278.6,-28.61"/>
<polygon fill="red" stroke="red" stroke-width="0.34" points="280.38,-31.63 287.65,-23.92 277.16,-25.41 280.38,-31.63"/>
</g>
<!-- &#45;10 -->
<g id="node10" class="node">
<title>&#45;10</title>
<polygon fill="lightgray" stroke="black" points="155.5,-83.7 126.5,-83.7 126.5,-65.7 155.5,-65.7 155.5,-83.7"/>
<text text-anchor="middle" x="141" y="-72.5" font-family="Times New Roman,serif" font-size="9.00">&#45;10</text>
</g>
<!-- &#45;10&#45;&gt;0 -->
<g id="edge46" class="edge">
<title>&#45;10&#45;&gt;0</title>
<path fill="none" stroke="green" stroke-width="0.24" d="M155.52,-68.37C158.32,-67.42 161.24,-66.49 164,-65.7 234.09,-45.69 256.11,-56.22 324,-29.7 324.86,-29.36 325.73,-29 326.6,-28.61"/>
<polygon fill="green" stroke="green" stroke-width="0.24" points="328.38,-31.63 335.65,-23.92 325.16,-25.41 328.38,-31.63"/>
</g>
<!-- &#45;10&#45;&gt;1 -->
<g id="edge47" class="edge">
<title>&#45;10&#45;&gt;1</title>
<path fill="none" stroke="red" stroke-width="0.47" d="M143.09,-65.65C144.84,-58.89 147.44,-48.86 149.85,-39.57"/>
<polygon fill="red" stroke="red" stroke-width="0.47" points="153.31,-40.16 152.43,-29.6 146.54,-38.41 153.31,-40.16"/>
</g>
<!-- &#45;10&#45;&gt;2 -->
<g id="edge48" class="edge">
<title>&#45;10&#45;&gt;2</title>
<path fill="none" stroke="red" stroke-width="0.26" d="M149.76,-65.65C158.99,-57.18 173.8,-43.58 185.61,-32.73"/>
<polygon fill="red" stroke="red" stroke-width="0.26" points="188.21,-35.1 193.21,-25.76 183.47,-29.95 188.21,-35.1"/>
</g>
<!-- &#45;10&#45;&gt;3 -->
<g id="edge49" class="edge">
<title>&#45;10&#45;&gt;3</title>
<path fill="none" stroke="green" stroke-width="0.34" d="M155.6,-66.62C172.98,-58.12 202.84,-43.31 228,-29.7 228.81,-29.26 229.64,-28.81 230.48,-28.34"/>
<polygon fill="green" stroke="green" stroke-width="0.34" points="232.39,-31.28 239.37,-23.31 228.94,-25.19 232.39,-31.28"/>
</g>
<!-- &#45;10&#45;&gt;4 -->
<g id="edge50" class="edge">
<title>&#45;10&#45;&gt;4</title>
<path fill="none" stroke="red" stroke-width="0.16" d="M155.58,-68.57C158.37,-67.6 161.27,-66.61 164,-65.7 213.58,-49.11 228.2,-50.88 276,-29.7 276.85,-29.32 277.7,-28.93 278.56,-28.51"/>
<polygon fill="red" stroke="red" stroke-width="0.16" points="280.39,-31.5 287.56,-23.7 277.09,-25.33 280.39,-31.5"/>
</g>
<!-- &#45;11 -->
<g id="node11" class="node">
<title>&#45;11</title>
<polygon fill="lightgray" stroke="black" points="202.5,-83.7 173.5,-83.7 173.5,-65.7 202.5,-65.7 202.5,-83.7"/>
<text text-anchor="middle" x="188" y="-72.5" font-family="Times New Roman,serif" font-size="9.00">&#45;11</text>
</g>
<!-- &#45;11&#45;&gt;0 -->
<g id="edge51" class="edge">
<title>&#45;11&#45;&gt;0</title>
<path fill="none" stroke="red" stroke-width="0.35" d="M202.71,-68.77C205.78,-67.75 208.99,-66.68 212,-65.7 261.69,-49.43 276.2,-50.88 324,-29.7 324.85,-29.32 325.7,-28.93 326.56,-28.51"/>
<polygon fill="red" stroke="red" stroke-width="0.35" points="328.39,-31.5 335.56,-23.7 325.09,-25.33 328.39,-31.5"/>
</g>
<!-- &#45;11&#45;&gt;1 -->
<g id="edge52" class="edge">
<title>&#45;11&#45;&gt;1</title>
<path fill="none" stroke="red" stroke-width="0.26" d="M183.55,-65.65C179.49,-58.31 173.3,-47.13 167.82,-37.22"/>
<polygon fill="red" stroke="red" stroke-width="0.26" points="170.78,-35.33 162.87,-28.28 164.65,-38.72 170.78,-35.33"/>
</g>
<!-- &#45;11&#45;&gt;2 -->
<g id="edge53" class="edge">
<title>&#45;11&#45;&gt;2</title>
<path fill="none" stroke="green" stroke-width="0.22" d="M190.22,-65.65C192.12,-58.82 194.93,-48.64 197.52,-39.27"/>
<polygon fill="green" stroke="green" stroke-width="0.22" points="200.9,-40.18 200.2,-29.6 194.16,-38.31 200.9,-40.18"/>
</g>
<!-- &#45;11&#45;&gt;3 -->
<g id="edge54" class="edge">
<title>&#45;11&#45;&gt;3</title>
<path fill="none" stroke="green" stroke-width="0.24" d="M196.9,-65.65C206.39,-57.08 221.68,-43.26 233.75,-32.35"/>
<polygon fill="green" stroke="green" stroke-width="0.24" points="236.4,-34.66 241.48,-25.36 231.71,-29.47 236.4,-34.66"/>
</g>
<!-- &#45;11&#45;&gt;4 -->
<g id="edge55" class="edge">
<title>&#45;11&#45;&gt;4</title>
<path fill="none" stroke="red" stroke-width="0.51" d="M202.77,-66.65C220.37,-58.17 250.58,-43.37 276,-29.7 276.82,-29.26 277.64,-28.81 278.48,-28.35"/>
<polygon fill="red" stroke="red" stroke-width="0.51" points="280.39,-31.29 287.37,-23.32 276.95,-25.2 280.39,-31.29"/>
</g>
<!-- &#45;12 -->
<g id="node12" class="node">
<title>&#45;12</title>
<polygon fill="lightgray" stroke="black" points="249.5,-83.7 220.5,-83.7 220.5,-65.7 249.5,-65.7 249.5,-83.7"/>
<text text-anchor="middle" x="235" y="-72.5" font-family="Times New Roman,serif" font-size="9.00">&#45;12</text>
</g>
<!-- &#45;12&#45;&gt;0 -->
<g id="edge56" class="edge">
<title>&#45;12&#45;&gt;0</title>
<path fill="none" stroke="green" stroke-width="0.12" d="M249.64,-66.82C267.39,-58.39 298.16,-43.52 324,-29.7 324.82,-29.26 325.65,-28.81 326.48,-28.35"/>
<polygon fill="green" stroke="green" stroke-width="0.12" points="328.39,-31.3 335.38,-23.33 324.95,-25.2 328.39,-31.3"/>
</g>
<!-- &#45;12&#45;&gt;1 -->
<g id="edge57" class="edge">
<title>&#45;12&#45;&gt;1</title>
<path fill="none" stroke="red" stroke-width="0.24" d="M224.02,-65.65C211.61,-56.57 191.17,-41.61 175.93,-30.45"/>
<polygon fill="red" stroke="red" stroke-width="0.24" points="177.8,-27.47 167.66,-24.39 173.66,-33.12 177.8,-27.47"/>
</g>
<!-- &#45;12&#45;&gt;2 -->
<g id="edge58" class="edge">
<title>&#45;12&#45;&gt;2</title>
<path fill="none" stroke="red" stroke-width="0.34" d="M230.69,-65.65C226.76,-58.31 220.76,-47.13 215.45,-37.22"/>
<polygon fill="red" stroke="red" stroke-width="0.34" points="218.47,-35.44 210.66,-28.28 212.3,-38.74 218.47,-35.44"/>
</g>
<!-- &#45;12&#45;&gt;3 -->
<g id="edge59" class="edge">
<title>&#45;12&#45;&gt;3</title>
<path fill="none" stroke="red" stroke-width="0.45" d="M237.36,-65.65C239.37,-58.82 242.36,-48.64 245.12,-39.27"/>
<polygon fill="red" stroke="red" stroke-width="0.45" points="248.5,-40.19 247.96,-29.6 241.78,-38.21 248.5,-40.19"/>
</g>
<!-- &#45;12&#45;&gt;4 -->
<g id="edge60" class="edge">
<title>&#45;12&#45;&gt;4</title>
<path fill="none" stroke="green" stroke-width="0.12" d="M244.04,-65.65C253.77,-57 269.5,-42.99 281.81,-32.03"/>
<polygon fill="green" stroke="green" stroke-width="0.12" points="284.17,-34.62 289.31,-25.36 279.52,-29.4 284.17,-34.62"/>
</g>
</g>
</svg>
