<?xml version="1.0" encoding="UTF-8" standalone="no"?>
<!DOCTYPE svg PUBLIC "-//W3C//DTD SVG 1.1//EN"
 "http://www.w3.org/Graphics/SVG/1.1/DTD/svg11.dtd">
<!-- Generated by graphviz version 3.0.0 (20220226.1711)
 -->
<!-- Pages: 1 -->
<svg width="2396pt" height="157pt"
 viewBox="0.00 0.00 2396.48 157.40" xmlns="http://www.w3.org/2000/svg" xmlns:xlink="http://www.w3.org/1999/xlink">
<g id="graph0" class="graph" transform="scale(1 1) rotate(0) translate(4 153.4)">
<polygon fill="white" stroke="transparent" points="-4,4 -4,-153.4 2392.48,-153.4 2392.48,4 -4,4"/>
<!-- &#45;1 -->
<g id="node1" class="node">
<title>&#45;1</title>
<polygon fill="lightgray" stroke="black" points="524.74,-149.4 500.74,-149.4 500.74,-131.4 524.74,-131.4 524.74,-149.4"/>
<text text-anchor="middle" x="512.74" y="-138.2" font-family="Times New Roman,serif" font-size="9.00">&#45;1</text>
</g>
<!-- 0 -->
<g id="node13" class="node">
<title>0</title>
<ellipse fill="lightblue" stroke="black" cx="1175.74" cy="-14.85" rx="14.7" ry="14.7"/>
<text text-anchor="middle" x="1175.74" y="-12.65" font-family="Times New Roman,serif" font-size="9.00">0</text>
</g>
<!-- &#45;1&#45;&gt;0 -->
<g id="edge86" class="edge">
<title>&#45;1&#45;&gt;0</title>
<path fill="none" stroke="green" stroke-width="0.36" d="M500.59,-138.34C439.72,-132.98 170.37,-108.57 158.74,-95.4 150,-85.5 149.58,-75.2 158.74,-65.7 197.06,-25.96 1098.68,-44.94 1151.74,-29.7 1152.8,-29.39 1153.87,-29.03 1154.93,-28.62"/>
<polygon fill="green" stroke="green" stroke-width="0.36" points="1156.64,-31.68 1164.05,-24.11 1153.53,-25.41 1156.64,-31.68"/>
</g>
<!-- 1 -->
<g id="node14" class="node">
<title>1</title>
<ellipse fill="lightblue" stroke="black" cx="1271.74" cy="-14.85" rx="14.7" ry="14.7"/>
<text text-anchor="middle" x="1271.74" y="-12.65" font-family="Times New Roman,serif" font-size="9.00">1</text>
</g>
<!-- &#45;1&#45;&gt;1 -->
<g id="edge87" class="edge">
<title>&#45;1&#45;&gt;1</title>
<path fill="none" stroke="green" stroke-width="0.36" d="M500.67,-137.45C480.75,-133.52 441.53,-122.57 424.74,-95.4 417.8,-84.17 415.61,-75.23 424.74,-65.7 488.03,0.42 1159.86,-55.31 1247.74,-29.7 1248.8,-29.39 1249.87,-29.02 1250.93,-28.61"/>
<polygon fill="green" stroke="green" stroke-width="0.36" points="1252.64,-31.67 1260.04,-24.09 1249.53,-25.4 1252.64,-31.67"/>
</g>
<!-- 2 -->
<g id="node15" class="node">
<title>2</title>
<ellipse fill="lightblue" stroke="black" cx="1127.74" cy="-14.85" rx="14.7" ry="14.7"/>
<text text-anchor="middle" x="1127.74" y="-12.65" font-family="Times New Roman,serif" font-size="9.00">2</text>
</g>
<!-- &#45;1&#45;&gt;2 -->
<g id="edge88" class="edge">
<title>&#45;1&#45;&gt;2</title>
<path fill="none" stroke="red" stroke-width="0.18" d="M500.37,-138.24C434.44,-132.02 127.26,-102.69 120.74,-95.4 111.94,-85.56 111.64,-75.26 120.74,-65.7 155.65,-29.01 950.61,-17.92 1102.71,-16.12"/>
<polygon fill="red" stroke="red" stroke-width="0.18" points="1102.94,-19.62 1112.9,-16.01 1102.86,-12.62 1102.94,-19.62"/>
</g>
<!-- 3 -->
<g id="node16" class="node">
<title>3</title>
<ellipse fill="lightblue" stroke="black" cx="1223.74" cy="-14.85" rx="14.7" ry="14.7"/>
<text text-anchor="middle" x="1223.74" y="-12.65" font-family="Times New Roman,serif" font-size="9.00">3</text>
</g>
<!-- &#45;1&#45;&gt;3 -->
<g id="edge89" class="edge">
<title>&#45;1&#45;&gt;3</title>
<path fill="none" stroke="red" stroke-width="0.33" d="M524.97,-137.25C576.73,-128.19 782.86,-92.3 952.74,-65.7 1062.34,-48.53 1094.93,-66.07 1199.74,-29.7 1200.61,-29.39 1201.49,-29.06 1202.37,-28.7"/>
<polygon fill="red" stroke="red" stroke-width="0.33" points="1204.1,-31.74 1211.46,-24.12 1200.96,-25.49 1204.1,-31.74"/>
</g>
<!-- 4 -->
<g id="node17" class="node">
<title>4</title>
<ellipse fill="lightblue" stroke="black" cx="1319.74" cy="-14.85" rx="14.7" ry="14.7"/>
<text text-anchor="middle" x="1319.74" y="-12.65" font-family="Times New Roman,serif" font-size="9.00">4</text>
</g>
<!-- &#45;1&#45;&gt;4 -->
<g id="edge90" class="edge">
<title>&#45;1&#45;&gt;4</title>
<path fill="none" stroke="red" stroke-width="0.11" d="M525.04,-136.98C576.18,-127 777.14,-88.44 943.74,-65.7 1099.56,-44.43 1146.1,-78.07 1295.74,-29.7 1296.79,-29.36 1297.85,-28.97 1298.9,-28.54"/>
<polygon fill="red" stroke="red" stroke-width="0.11" points="1300.65,-31.58 1308,-23.94 1297.49,-25.33 1300.65,-31.58"/>
</g>
<!-- 5 -->
<g id="node18" class="node">
<title>5</title>
<ellipse fill="white" stroke="black" cx="1175.74" cy="-80.55" rx="14.7" ry="14.7"/>
<text text-anchor="middle" x="1175.74" y="-78.35" font-family="Times New Roman,serif" font-size="9.00">5</text>
</g>
<!-- &#45;1&#45;&gt;5 -->
<g id="edge1" class="edge">
<title>&#45;1&#45;&gt;5</title>
<path fill="none" stroke="green" stroke-width="0.13" d="M524.97,-138.89C608.18,-135.38 1089.58,-114.36 1151.74,-95.4 1152.8,-95.07 1153.86,-94.7 1154.92,-94.28"/>
<polygon fill="green" stroke="green" stroke-width="0.13" points="1156.64,-97.33 1164.02,-89.73 1153.51,-91.07 1156.64,-97.33"/>
</g>
<!-- 6 -->
<g id="node19" class="node">
<title>6</title>
<ellipse fill="white" stroke="black" cx="1223.74" cy="-80.55" rx="14.7" ry="14.7"/>
<text text-anchor="middle" x="1223.74" y="-78.35" font-family="Times New Roman,serif" font-size="9.00">6</text>
</g>
<!-- &#45;1&#45;&gt;6 -->
<g id="edge2" class="edge">
<title>&#45;1&#45;&gt;6</title>
<path fill="none" stroke="red" stroke-width="0.47" d="M524.77,-138.96C610.91,-135.77 1132.6,-115.7 1199.74,-95.4 1200.8,-95.08 1201.86,-94.7 1202.92,-94.29"/>
<polygon fill="red" stroke="red" stroke-width="0.47" points="1204.64,-97.34 1212.03,-89.74 1201.52,-91.07 1204.64,-97.34"/>
</g>
<!-- 7 -->
<g id="node20" class="node">
<title>7</title>
<ellipse fill="white" stroke="black" cx="1271.74" cy="-80.55" rx="14.7" ry="14.7"/>
<text text-anchor="middle" x="1271.74" y="-78.35" font-family="Times New Roman,serif" font-size="9.00">7</text>
</g>
<!-- &#45;1&#45;&gt;7 -->
<g id="edge3" class="edge">
<title>&#45;1&#45;&gt;7</title>
<path fill="none" stroke="red" stroke-width="0.18" d="M525.02,-139C615.39,-136.06 1175.73,-117.01 1247.74,-95.4 1248.8,-95.08 1249.86,-94.71 1250.92,-94.29"/>
<polygon fill="red" stroke="red" stroke-width="0.18" points="1252.64,-97.34 1260.03,-89.75 1249.52,-91.08 1252.64,-97.34"/>
</g>
<!-- 8 -->
<g id="node21" class="node">
<title>8</title>
<ellipse fill="white" stroke="black" cx="1319.74" cy="-80.55" rx="14.7" ry="14.7"/>
<text text-anchor="middle" x="1319.74" y="-78.35" font-family="Times New Roman,serif" font-size="9.00">8</text>
</g>
<!-- &#45;1&#45;&gt;8 -->
<g id="edge4" class="edge">
<title>&#45;1&#45;&gt;8</title>
<path fill="none" stroke="red" stroke-width="0.16" d="M524.92,-139.05C618.28,-136.38 1218.76,-118.35 1295.74,-95.4 1296.8,-95.08 1297.86,-94.71 1298.92,-94.3"/>
<polygon fill="red" stroke="red" stroke-width="0.16" points="1300.64,-97.35 1308.03,-89.76 1297.52,-91.08 1300.64,-97.35"/>
</g>
<!-- 9 -->
<g id="node22" class="node">
<title>9</title>
<ellipse fill="white" stroke="black" cx="1127.74" cy="-80.55" rx="14.7" ry="14.7"/>
<text text-anchor="middle" x="1127.74" y="-78.35" font-family="Times New Roman,serif" font-size="9.00">9</text>
</g>
<!-- &#45;1&#45;&gt;9 -->
<g id="edge5" class="edge">
<title>&#45;1&#45;&gt;9</title>
<path fill="none" stroke="red" stroke-width="0.29" d="M524.75,-138.27C599.25,-131.26 998.54,-93.7 1102.81,-83.89"/>
<polygon fill="red" stroke="red" stroke-width="0.29" points="1103.38,-87.35 1113.01,-82.93 1102.72,-80.39 1103.38,-87.35"/>
</g>
<!-- &#45;2 -->
<g id="node2" class="node">
<title>&#45;2</title>
<polygon fill="lightgray" stroke="black" points="1238.74,-149.4 1214.74,-149.4 1214.74,-131.4 1238.74,-131.4 1238.74,-149.4"/>
<text text-anchor="middle" x="1226.74" y="-138.2" font-family="Times New Roman,serif" font-size="9.00">&#45;2</text>
</g>
<!-- &#45;2&#45;&gt;0 -->
<g id="edge91" class="edge">
<title>&#45;2&#45;&gt;0</title>
<path fill="none" stroke="red" stroke-width="0.2" d="M1214.44,-135.42C1183.95,-125.51 1107.09,-100.15 1103.74,-95.4 1096.14,-84.61 1097.61,-77.39 1103.74,-65.7 1106.6,-60.24 1134.73,-41.69 1154.96,-28.83"/>
<polygon fill="red" stroke="red" stroke-width="0.2" points="1157,-31.69 1163.59,-23.39 1153.26,-25.77 1157,-31.69"/>
</g>
<!-- &#45;2&#45;&gt;1 -->
<g id="edge92" class="edge">
<title>&#45;2&#45;&gt;1</title>
<path fill="none" stroke="red" stroke-width="0.21" d="M1238.79,-135.64C1243.44,-134.23 1248.82,-132.67 1253.74,-131.4 1324.71,-112.97 1368.9,-152.62 1414.74,-95.4 1422.99,-85.1 1422.61,-76.3 1414.74,-65.7 1381.81,-21.33 1346.45,-51.65 1295.74,-29.7 1294.89,-29.33 1294.03,-28.94 1293.17,-28.53"/>
<polygon fill="red" stroke="red" stroke-width="0.21" points="1294.63,-25.35 1284.16,-23.74 1291.35,-31.53 1294.63,-25.35"/>
</g>
<!-- &#45;2&#45;&gt;2 -->
<g id="edge93" class="edge">
<title>&#45;2&#45;&gt;2</title>
<path fill="none" stroke="red" stroke-width="0.45" d="M1214.66,-135.61C1182.23,-125.4 1095.59,-97.96 1093.74,-95.4 1079.83,-76.15 1096.08,-50.33 1110.53,-33.4"/>
<polygon fill="red" stroke="red" stroke-width="0.45" points="1113.23,-35.63 1117.34,-25.87 1108.04,-30.94 1113.23,-35.63"/>
</g>
<!-- &#45;2&#45;&gt;3 -->
<g id="edge94" class="edge">
<title>&#45;2&#45;&gt;3</title>
<path fill="none" stroke="green" stroke-width="0.23" d="M1238.9,-135.68C1267.57,-126.81 1337.47,-104.45 1343.74,-95.4 1351.25,-84.54 1351.26,-76.55 1343.74,-65.7 1317.78,-28.24 1288.95,-49.15 1247.74,-29.7 1246.9,-29.3 1246.05,-28.89 1245.2,-28.46"/>
<polygon fill="green" stroke="green" stroke-width="0.23" points="1246.69,-25.29 1236.24,-23.58 1243.35,-31.43 1246.69,-25.29"/>
</g>
<!-- &#45;2&#45;&gt;4 -->
<g id="edge95" class="edge">
<title>&#45;2&#45;&gt;4</title>
<path fill="none" stroke="red" stroke-width="0.18" d="M1238.98,-135.22C1243.56,-133.8 1248.84,-132.34 1253.74,-131.4 1296.36,-123.19 1613.49,-127.47 1642.74,-95.4 1651.63,-85.64 1651.33,-75.72 1642.74,-65.7 1604.25,-20.82 1414.38,-15.97 1345.1,-15.72"/>
<polygon fill="red" stroke="red" stroke-width="0.18" points="1344.7,-12.22 1334.7,-15.72 1344.69,-19.22 1344.7,-12.22"/>
</g>
<!-- &#45;2&#45;&gt;5 -->
<g id="edge6" class="edge">
<title>&#45;2&#45;&gt;5</title>
<path fill="none" stroke="red" stroke-width="0.3" d="M1219.65,-131.35C1212.49,-123.24 1201.2,-110.43 1191.86,-99.83"/>
<polygon fill="red" stroke="red" stroke-width="0.3" points="1194.44,-97.46 1185.2,-92.28 1189.19,-102.09 1194.44,-97.46"/>
</g>
<!-- &#45;2&#45;&gt;6 -->
<g id="edge7" class="edge">
<title>&#45;2&#45;&gt;6</title>
<path fill="none" stroke="green" stroke-width="0.3" d="M1226.32,-131.35C1225.98,-124.75 1225.48,-115.03 1225,-105.93"/>
<polygon fill="green" stroke="green" stroke-width="0.3" points="1228.49,-105.56 1224.48,-95.75 1221.5,-105.92 1228.49,-105.56"/>
</g>
<!-- &#45;2&#45;&gt;7 -->
<g id="edge8" class="edge">
<title>&#45;2&#45;&gt;7</title>
<path fill="none" stroke="red" stroke-width="0.1" d="M1233,-131.35C1239.11,-123.49 1248.65,-111.23 1256.73,-100.84"/>
<polygon fill="red" stroke="red" stroke-width="0.1" points="1259.69,-102.74 1263.07,-92.69 1254.17,-98.44 1259.69,-102.74"/>
</g>
<!-- &#45;2&#45;&gt;8 -->
<g id="edge9" class="edge">
<title>&#45;2&#45;&gt;8</title>
<path fill="none" stroke="green" stroke-width="0.57" d="M1238.9,-131.83C1254.14,-122.35 1280.52,-105.94 1298.99,-94.46"/>
<polygon fill="green" stroke="green" stroke-width="0.57" points="1300.94,-97.37 1307.58,-89.11 1297.24,-91.42 1300.94,-97.37"/>
</g>
<!-- &#45;2&#45;&gt;9 -->
<g id="edge10" class="edge">
<title>&#45;2&#45;&gt;9</title>
<path fill="none" stroke="red" stroke-width="0.44" d="M1214.6,-132.3C1198.29,-122.77 1169.03,-105.67 1149.02,-93.98"/>
<polygon fill="red" stroke="red" stroke-width="0.44" points="1150.69,-90.91 1140.29,-88.88 1147.16,-96.95 1150.69,-90.91"/>
</g>
<!-- &#45;3 -->
<g id="node3" class="node">
<title>&#45;3</title>
<polygon fill="lightgray" stroke="black" points="807.74,-149.4 783.74,-149.4 783.74,-131.4 807.74,-131.4 807.74,-149.4"/>
<text text-anchor="middle" x="795.74" y="-138.2" font-family="Times New Roman,serif" font-size="9.00">&#45;3</text>
</g>
<!-- &#45;3&#45;&gt;0 -->
<g id="edge96" class="edge">
<title>&#45;3&#45;&gt;0</title>
<path fill="none" stroke="green" stroke-width="0.39" d="M783.33,-139.15C714.21,-137.62 378.79,-128.55 348.74,-95.4 339.88,-85.62 339.62,-75.24 348.74,-65.7 410.46,-1.15 1066.01,-54.73 1151.74,-29.7 1152.8,-29.39 1153.87,-29.02 1154.93,-28.61"/>
<polygon fill="green" stroke="green" stroke-width="0.39" points="1156.64,-31.67 1164.04,-24.09 1153.53,-25.4 1156.64,-31.67"/>
</g>
<!-- &#45;3&#45;&gt;1 -->
<g id="edge97" class="edge">
<title>&#45;3&#45;&gt;1</title>
<path fill="none" stroke="red" stroke-width="0.43" d="M783.63,-138.7C735.55,-135.53 563.25,-120.2 614.74,-65.7 663.12,-14.49 1180.24,-49.85 1247.74,-29.7 1248.8,-29.38 1249.86,-29.01 1250.92,-28.6"/>
<polygon fill="red" stroke="red" stroke-width="0.43" points="1252.64,-31.65 1260.03,-24.06 1249.52,-25.38 1252.64,-31.65"/>
</g>
<!-- &#45;3&#45;&gt;2 -->
<g id="edge98" class="edge">
<title>&#45;3&#45;&gt;2</title>
<path fill="none" stroke="green" stroke-width="0.36" d="M783.71,-139.25C712.07,-138.26 343.67,-131.45 310.74,-95.4 301.84,-85.65 301.69,-75.31 310.74,-65.7 338.56,-36.13 968.02,-19.62 1102.58,-16.42"/>
<polygon fill="green" stroke="green" stroke-width="0.36" points="1102.81,-19.92 1112.73,-16.19 1102.65,-12.92 1102.81,-19.92"/>
</g>
<!-- &#45;3&#45;&gt;3 -->
<g id="edge99" class="edge">
<title>&#45;3&#45;&gt;3</title>
<path fill="none" stroke="red" stroke-width="0.13" d="M807.77,-135.92C845,-125.18 961.63,-91.7 1058.74,-65.7 1121.22,-48.97 1139.84,-54.09 1199.74,-29.7 1200.6,-29.35 1201.46,-28.97 1202.33,-28.58"/>
<polygon fill="red" stroke="red" stroke-width="0.13" points="1204.13,-31.59 1211.36,-23.85 1200.88,-25.39 1204.13,-31.59"/>
</g>
<!-- &#45;3&#45;&gt;4 -->
<g id="edge100" class="edge">
<title>&#45;3&#45;&gt;4</title>
<path fill="none" stroke="green" stroke-width="0.26" d="M807.87,-135.62C845.96,-123.89 966.72,-87.49 1068.74,-65.7 1168.63,-44.36 1199.45,-63.8 1295.74,-29.7 1296.61,-29.39 1297.49,-29.05 1298.37,-28.68"/>
<polygon fill="green" stroke="green" stroke-width="0.26" points="1300.11,-31.72 1307.45,-24.09 1296.95,-25.48 1300.11,-31.72"/>
</g>
<!-- &#45;3&#45;&gt;5 -->
<g id="edge11" class="edge">
<title>&#45;3&#45;&gt;5</title>
<path fill="none" stroke="green" stroke-width="0.27" d="M807.8,-139.62C853.83,-140.12 1022.42,-138.71 1151.74,-95.4 1152.62,-95.1 1153.5,-94.77 1154.38,-94.42"/>
<polygon fill="green" stroke="green" stroke-width="0.27" points="1156.1,-97.47 1163.48,-89.88 1152.97,-91.21 1156.1,-97.47"/>
</g>
<!-- &#45;3&#45;&gt;6 -->
<g id="edge12" class="edge">
<title>&#45;3&#45;&gt;6</title>
<path fill="none" stroke="red" stroke-width="0.26" d="M807.96,-138.75C867.12,-135.49 1123.96,-120.17 1199.74,-95.4 1200.62,-95.11 1201.5,-94.79 1202.38,-94.44"/>
<polygon fill="red" stroke="red" stroke-width="0.26" points="1204.09,-97.49 1211.5,-89.91 1200.98,-91.22 1204.09,-97.49"/>
</g>
<!-- &#45;3&#45;&gt;7 -->
<g id="edge13" class="edge">
<title>&#45;3&#45;&gt;7</title>
<path fill="none" stroke="green" stroke-width="0.14" d="M808.12,-138.9C871.76,-136.24 1162.34,-122.77 1247.74,-95.4 1248.79,-95.06 1249.85,-94.67 1250.9,-94.24"/>
<polygon fill="green" stroke="green" stroke-width="0.14" points="1252.65,-97.28 1260,-89.65 1249.49,-91.03 1252.65,-97.28"/>
</g>
<!-- &#45;3&#45;&gt;8 -->
<g id="edge14" class="edge">
<title>&#45;3&#45;&gt;8</title>
<path fill="none" stroke="green" stroke-width="0.25" d="M808.08,-139.03C875.57,-136.94 1200.59,-125.41 1295.74,-95.4 1296.79,-95.06 1297.85,-94.68 1298.91,-94.25"/>
<polygon fill="green" stroke="green" stroke-width="0.25" points="1300.65,-97.3 1308.01,-89.68 1297.5,-91.04 1300.65,-97.3"/>
</g>
<!-- &#45;3&#45;&gt;9 -->
<g id="edge15" class="edge">
<title>&#45;3&#45;&gt;9</title>
<path fill="none" stroke="green" stroke-width="0.18" d="M807.95,-137.27C856.6,-128.79 1037.18,-97.33 1103.29,-85.81"/>
<polygon fill="green" stroke="green" stroke-width="0.18" points="1103.97,-89.24 1113.22,-84.08 1102.77,-82.35 1103.97,-89.24"/>
</g>
<!-- &#45;4 -->
<g id="node4" class="node">
<title>&#45;4</title>
<polygon fill="lightgray" stroke="black" points="1984.74,-149.4 1960.74,-149.4 1960.74,-131.4 1984.74,-131.4 1984.74,-149.4"/>
<text text-anchor="middle" x="1972.74" y="-138.2" font-family="Times New Roman,serif" font-size="9.00">&#45;4</text>
</g>
<!-- &#45;4&#45;&gt;0 -->
<g id="edge101" class="edge">
<title>&#45;4&#45;&gt;0</title>
<path fill="none" stroke="green" stroke-width="0.26" d="M1960.69,-137.17C1908.78,-127.61 1699.11,-89.55 1525.74,-65.7 1381.33,-45.83 1338.26,-75.09 1199.74,-29.7 1198.86,-29.41 1197.98,-29.09 1197.09,-28.74"/>
<polygon fill="green" stroke="green" stroke-width="0.26" points="1198.5,-25.52 1187.98,-24.21 1195.38,-31.79 1198.5,-25.52"/>
</g>
<!-- &#45;4&#45;&gt;1 -->
<g id="edge102" class="edge">
<title>&#45;4&#45;&gt;1</title>
<path fill="none" stroke="green" stroke-width="0.14" d="M1985.09,-139.7C2045.36,-140.85 2302.63,-141.46 2229.74,-65.7 2193.74,-28.28 1345.63,-44.1 1295.74,-29.7 1294.68,-29.39 1293.61,-29.03 1292.55,-28.62"/>
<polygon fill="green" stroke="green" stroke-width="0.14" points="1293.95,-25.41 1283.43,-24.11 1290.84,-31.68 1293.95,-25.41"/>
</g>
<!-- &#45;4&#45;&gt;2 -->
<g id="edge103" class="edge">
<title>&#45;4&#45;&gt;2</title>
<path fill="none" stroke="red" stroke-width="0.18" d="M1960.58,-137.11C1908.24,-127.34 1696.79,-88.49 1521.74,-65.7 1357.9,-44.36 1309.08,-80.13 1151.74,-29.7 1150.69,-29.36 1149.63,-28.97 1148.57,-28.54"/>
<polygon fill="red" stroke="red" stroke-width="0.18" points="1149.98,-25.33 1139.48,-23.95 1146.83,-31.58 1149.98,-25.33"/>
</g>
<!-- &#45;4&#45;&gt;3 -->
<g id="edge104" class="edge">
<title>&#45;4&#45;&gt;3</title>
<path fill="none" stroke="green" stroke-width="0.21" d="M1984.89,-137.79C2026.38,-131.87 2157.6,-109.33 2115.74,-65.7 2048.91,3.96 1340.44,-56.6 1247.74,-29.7 1246.68,-29.39 1245.61,-29.03 1244.55,-28.62"/>
<polygon fill="green" stroke="green" stroke-width="0.21" points="1245.95,-25.4 1235.44,-24.1 1242.84,-31.68 1245.95,-25.4"/>
</g>
<!-- &#45;4&#45;&gt;4 -->
<g id="edge105" class="edge">
<title>&#45;4&#45;&gt;4</title>
<path fill="none" stroke="green" stroke-width="0.29" d="M1984.94,-139.03C2050.03,-136.97 2354.48,-125.75 2381.74,-95.4 2390.56,-85.58 2390.85,-75.25 2381.74,-65.7 2344.76,-26.94 1501.31,-17.48 1344.66,-16.06"/>
<polygon fill="green" stroke="green" stroke-width="0.29" points="1344.61,-12.56 1334.58,-15.97 1344.55,-19.56 1344.61,-12.56"/>
</g>
<!-- &#45;4&#45;&gt;5 -->
<g id="edge16" class="edge">
<title>&#45;4&#45;&gt;5</title>
<path fill="none" stroke="red" stroke-width="0.33" d="M1960.61,-138.78C1863.72,-133.88 1218.8,-101.09 1199.74,-95.4 1198.68,-95.08 1197.62,-94.71 1196.56,-94.3"/>
<polygon fill="red" stroke="red" stroke-width="0.33" points="1197.96,-91.08 1187.45,-89.76 1194.84,-97.35 1197.96,-91.08"/>
</g>
<!-- &#45;4&#45;&gt;6 -->
<g id="edge17" class="edge">
<title>&#45;4&#45;&gt;6</title>
<path fill="none" stroke="green" stroke-width="0.15" d="M1960.52,-138.82C1868.21,-134.4 1283.33,-106.09 1247.74,-95.4 1246.68,-95.08 1245.62,-94.71 1244.56,-94.29"/>
<polygon fill="green" stroke="green" stroke-width="0.15" points="1245.96,-91.08 1235.45,-89.75 1242.84,-97.34 1245.96,-91.08"/>
</g>
<!-- &#45;4&#45;&gt;7 -->
<g id="edge18" class="edge">
<title>&#45;4&#45;&gt;7</title>
<path fill="none" stroke="green" stroke-width="0.4" d="M1960.49,-138.76C1871.66,-134.12 1328.85,-105.43 1295.74,-95.4 1294.68,-95.08 1293.62,-94.7 1292.56,-94.28"/>
<polygon fill="green" stroke="green" stroke-width="0.4" points="1293.96,-91.07 1283.45,-89.74 1290.84,-97.34 1293.96,-91.07"/>
</g>
<!-- &#45;4&#45;&gt;8 -->
<g id="edge19" class="edge">
<title>&#45;4&#45;&gt;8</title>
<path fill="none" stroke="green" stroke-width="0.4" d="M1960.56,-138.32C1882.58,-131.41 1452.96,-93.35 1344.58,-83.75"/>
<polygon fill="green" stroke="green" stroke-width="0.4" points="1344.84,-80.26 1334.57,-82.86 1344.22,-87.23 1344.84,-80.26"/>
</g>
<!-- &#45;4&#45;&gt;9 -->
<g id="edge20" class="edge">
<title>&#45;4&#45;&gt;9</title>
<path fill="none" stroke="red" stroke-width="0.23" d="M1960.5,-138.82C1859.85,-134.07 1172.03,-101.42 1151.74,-95.4 1150.68,-95.08 1149.61,-94.71 1148.56,-94.3"/>
<polygon fill="red" stroke="red" stroke-width="0.23" points="1149.96,-91.09 1139.44,-89.77 1146.84,-97.35 1149.96,-91.09"/>
</g>
<!-- &#45;5 -->
<g id="node5" class="node">
<title>&#45;5</title>
<polygon fill="lightgray" stroke="black" points="1142.74,-149.4 1118.74,-149.4 1118.74,-131.4 1142.74,-131.4 1142.74,-149.4"/>
<text text-anchor="middle" x="1130.74" y="-138.2" font-family="Times New Roman,serif" font-size="9.00">&#45;5</text>
</g>
<!-- &#45;5&#45;&gt;0 -->
<g id="edge106" class="edge">
<title>&#45;5&#45;&gt;0</title>
<path fill="none" stroke="green" stroke-width="0.29" d="M1118.34,-137.64C1106.22,-135.95 1087.23,-133.36 1070.74,-131.4 994.86,-122.35 779.87,-152.19 728.74,-95.4 719.91,-85.59 719.81,-75.42 728.74,-65.7 792.56,3.78 1061.73,-57.95 1151.74,-29.7 1152.8,-29.37 1153.85,-28.98 1154.91,-28.56"/>
<polygon fill="green" stroke="green" stroke-width="0.29" points="1156.65,-31.6 1164.01,-23.99 1153.5,-25.35 1156.65,-31.6"/>
</g>
<!-- &#45;5&#45;&gt;1 -->
<g id="edge107" class="edge">
<title>&#45;5&#45;&gt;1</title>
<path fill="none" stroke="red" stroke-width="0.39" d="M1123.1,-131.3C1110.4,-116.82 1087.81,-86.11 1103.74,-65.7 1144.34,-13.7 1186.58,-54.42 1247.74,-29.7 1248.6,-29.35 1249.46,-28.98 1250.33,-28.58"/>
<polygon fill="red" stroke="red" stroke-width="0.39" points="1252.12,-31.6 1259.37,-23.86 1248.88,-25.39 1252.12,-31.6"/>
</g>
<!-- &#45;5&#45;&gt;2 -->
<g id="edge108" class="edge">
<title>&#45;5&#45;&gt;2</title>
<path fill="none" stroke="green" stroke-width="0.34" d="M1118.35,-137.6C1106.23,-135.88 1087.24,-133.28 1070.74,-131.4 1028.6,-126.59 719.28,-126.77 690.74,-95.4 681.86,-85.63 681.95,-75.55 690.74,-65.7 718.35,-34.76 1013.71,-20.44 1102.58,-16.81"/>
<polygon fill="green" stroke="green" stroke-width="0.34" points="1102.96,-20.29 1112.82,-16.4 1102.68,-13.3 1102.96,-20.29"/>
</g>
<!-- &#45;5&#45;&gt;3 -->
<g id="edge109" class="edge">
<title>&#45;5&#45;&gt;3</title>
<path fill="none" stroke="green" stroke-width="0.23" d="M1120.98,-131.19C1105.37,-117.07 1078.06,-87.58 1093.74,-65.7 1122.72,-25.25 1154.42,-50.23 1199.74,-29.7 1200.58,-29.32 1201.44,-28.91 1202.29,-28.49"/>
<polygon fill="green" stroke="green" stroke-width="0.23" points="1204.13,-31.48 1211.28,-23.66 1200.82,-25.31 1204.13,-31.48"/>
</g>
<!-- &#45;5&#45;&gt;4 -->
<g id="edge110" class="edge">
<title>&#45;5&#45;&gt;4</title>
<path fill="none" stroke="red" stroke-width="0.12" d="M1142.95,-135.66C1147.83,-134.23 1153.53,-132.65 1158.74,-131.4 1240.2,-111.87 1290.47,-160.04 1343.74,-95.4 1357.96,-78.14 1346.16,-52.63 1334.64,-35.17"/>
<polygon fill="red" stroke="red" stroke-width="0.12" points="1337.41,-33.02 1328.78,-26.87 1331.69,-37.06 1337.41,-33.02"/>
</g>
<!-- &#45;5&#45;&gt;5 -->
<g id="edge21" class="edge">
<title>&#45;5&#45;&gt;5</title>
<path fill="none" stroke="red" stroke-width="0.16" d="M1137,-131.35C1143.11,-123.49 1152.65,-111.23 1160.73,-100.84"/>
<polygon fill="red" stroke="red" stroke-width="0.16" points="1163.69,-102.74 1167.07,-92.69 1158.17,-98.44 1163.69,-102.74"/>
</g>
<!-- &#45;5&#45;&gt;6 -->
<g id="edge22" class="edge">
<title>&#45;5&#45;&gt;6</title>
<path fill="none" stroke="red" stroke-width="0.11" d="M1142.9,-131.83C1158.14,-122.35 1184.52,-105.94 1202.99,-94.46"/>
<polygon fill="red" stroke="red" stroke-width="0.11" points="1204.94,-97.37 1211.58,-89.11 1201.24,-91.42 1204.94,-97.37"/>
</g>
<!-- &#45;5&#45;&gt;7 -->
<g id="edge23" class="edge">
<title>&#45;5&#45;&gt;7</title>
<path fill="none" stroke="red" stroke-width="0.1" d="M1142.97,-135.53C1164.56,-128.55 1210.66,-112.92 1247.74,-95.4 1248.58,-95 1249.42,-94.59 1250.27,-94.16"/>
<polygon fill="red" stroke="red" stroke-width="0.1" points="1252.13,-97.13 1259.24,-89.28 1248.79,-90.98 1252.13,-97.13"/>
</g>
<!-- &#45;5&#45;&gt;8 -->
<g id="edge24" class="edge">
<title>&#45;5&#45;&gt;8</title>
<path fill="none" stroke="red" stroke-width="0.12" d="M1142.99,-135.84C1147.88,-134.43 1153.57,-132.81 1158.74,-131.4 1219.45,-114.75 1237.51,-119.34 1295.74,-95.4 1296.6,-95.04 1297.46,-94.67 1298.32,-94.27"/>
<polygon fill="red" stroke="red" stroke-width="0.12" points="1300.13,-97.28 1307.36,-89.53 1296.87,-91.08 1300.13,-97.28"/>
</g>
<!-- &#45;5&#45;&gt;9 -->
<g id="edge25" class="edge">
<title>&#45;5&#45;&gt;9</title>
<path fill="none" stroke="green" stroke-width="0.11" d="M1130.32,-131.35C1129.98,-124.75 1129.48,-115.03 1129,-105.93"/>
<polygon fill="green" stroke="green" stroke-width="0.11" points="1132.49,-105.56 1128.48,-95.75 1125.5,-105.92 1132.49,-105.56"/>
</g>
<!-- &#45;6 -->
<g id="node6" class="node">
<title>&#45;6</title>
<polygon fill="lightgray" stroke="black" points="1191.74,-149.4 1167.74,-149.4 1167.74,-131.4 1191.74,-131.4 1191.74,-149.4"/>
<text text-anchor="middle" x="1179.74" y="-138.2" font-family="Times New Roman,serif" font-size="9.00">&#45;6</text>
</g>
<!-- &#45;6&#45;&gt;0 -->
<g id="edge111" class="edge">
<title>&#45;6&#45;&gt;0</title>
<path fill="none" stroke="green" stroke-width="0.45" d="M1167.56,-135.56C1162.67,-134.11 1156.97,-132.54 1151.74,-131.4 1100.56,-120.18 952.84,-135.17 918.74,-95.4 910.15,-85.38 910.15,-75.72 918.74,-65.7 952.84,-25.92 1102.32,-47.09 1151.74,-29.7 1152.61,-29.39 1153.49,-29.05 1154.37,-28.69"/>
<polygon fill="green" stroke="green" stroke-width="0.45" points="1156.11,-31.73 1163.46,-24.1 1152.95,-25.48 1156.11,-31.73"/>
</g>
<!-- &#45;6&#45;&gt;1 -->
<g id="edge112" class="edge">
<title>&#45;6&#45;&gt;1</title>
<path fill="none" stroke="red" stroke-width="0.22" d="M1191.88,-135.54C1196.24,-134.19 1201.2,-132.69 1205.74,-131.4 1266.71,-114.07 1304.99,-145.56 1343.74,-95.4 1351.81,-84.95 1349.87,-77.39 1343.74,-65.7 1340.88,-60.24 1312.75,-41.69 1292.52,-28.83"/>
<polygon fill="red" stroke="red" stroke-width="0.22" points="1294.22,-25.77 1283.89,-23.39 1290.48,-31.69 1294.22,-25.77"/>
</g>
<!-- &#45;6&#45;&gt;2 -->
<g id="edge113" class="edge">
<title>&#45;6&#45;&gt;2</title>
<path fill="none" stroke="red" stroke-width="0.41" d="M1167.58,-135.46C1162.7,-134 1156.99,-132.45 1151.74,-131.4 1083.95,-117.86 888.71,-147.03 842.74,-95.4 833.96,-85.54 834.25,-75.8 842.74,-65.7 875.89,-26.25 1038.98,-18.01 1102.42,-16.3"/>
<polygon fill="red" stroke="red" stroke-width="0.41" points="1102.81,-19.79 1112.72,-16.05 1102.64,-12.79 1102.81,-19.79"/>
</g>
<!-- &#45;6&#45;&gt;3 -->
<g id="edge114" class="edge">
<title>&#45;6&#45;&gt;3</title>
<path fill="none" stroke="green" stroke-width="0.43" d="M1167.54,-136.44C1149.81,-131.4 1117.52,-119.3 1103.74,-95.4 1097.15,-83.96 1096.22,-76.55 1103.74,-65.7 1129.69,-28.24 1158.53,-49.15 1199.74,-29.7 1200.58,-29.3 1201.42,-28.89 1202.27,-28.46"/>
<polygon fill="green" stroke="green" stroke-width="0.43" points="1204.13,-31.43 1211.24,-23.58 1200.79,-25.29 1204.13,-31.43"/>
</g>
<!-- &#45;6&#45;&gt;4 -->
<g id="edge115" class="edge">
<title>&#45;6&#45;&gt;4</title>
<path fill="none" stroke="red" stroke-width="0.11" d="M1191.8,-135.26C1196.16,-133.88 1201.13,-132.44 1205.74,-131.4 1259.85,-119.2 1416.46,-137.35 1452.74,-95.4 1487.11,-55.65 1391.64,-30.26 1344.43,-20.44"/>
<polygon fill="red" stroke="red" stroke-width="0.11" points="1344.85,-16.96 1334.36,-18.43 1343.48,-23.82 1344.85,-16.96"/>
</g>
<!-- &#45;6&#45;&gt;5 -->
<g id="edge26" class="edge">
<title>&#45;6&#45;&gt;5</title>
<path fill="none" stroke="red" stroke-width="0.17" d="M1179.18,-131.35C1178.73,-124.75 1178.05,-115.03 1177.43,-105.93"/>
<polygon fill="red" stroke="red" stroke-width="0.17" points="1180.9,-105.49 1176.72,-95.75 1173.92,-105.97 1180.9,-105.49"/>
</g>
<!-- &#45;6&#45;&gt;6 -->
<g id="edge27" class="edge">
<title>&#45;6&#45;&gt;6</title>
<path fill="none" stroke="red" stroke-width="0.16" d="M1185.86,-131.35C1191.76,-123.59 1200.93,-111.54 1208.77,-101.23"/>
<polygon fill="red" stroke="red" stroke-width="0.16" points="1211.67,-103.19 1214.94,-93.12 1206.1,-98.96 1211.67,-103.19"/>
</g>
<!-- &#45;6&#45;&gt;7 -->
<g id="edge28" class="edge">
<title>&#45;6&#45;&gt;7</title>
<path fill="none" stroke="green" stroke-width="0.15" d="M1191.77,-131.83C1206.77,-122.4 1232.66,-106.12 1250.91,-94.65"/>
<polygon fill="green" stroke="green" stroke-width="0.15" points="1252.81,-97.58 1259.42,-89.3 1249.09,-91.66 1252.81,-97.58"/>
</g>
<!-- &#45;6&#45;&gt;8 -->
<g id="edge29" class="edge">
<title>&#45;6&#45;&gt;8</title>
<path fill="none" stroke="red" stroke-width="0.35" d="M1191.86,-135.52C1213.26,-128.51 1258.96,-112.85 1295.74,-95.4 1296.58,-95 1297.42,-94.58 1298.27,-94.16"/>
<polygon fill="red" stroke="red" stroke-width="0.35" points="1300.13,-97.13 1307.24,-89.27 1296.78,-90.98 1300.13,-97.13"/>
</g>
<!-- &#45;6&#45;&gt;9 -->
<g id="edge30" class="edge">
<title>&#45;6&#45;&gt;9</title>
<path fill="none" stroke="red" stroke-width="0.24" d="M1172.51,-131.35C1165.22,-123.24 1153.7,-110.43 1144.18,-99.83"/>
<polygon fill="red" stroke="red" stroke-width="0.24" points="1146.67,-97.37 1137.38,-92.28 1141.47,-102.05 1146.67,-97.37"/>
</g>
<!-- &#45;7 -->
<g id="node7" class="node">
<title>&#45;7</title>
<polygon fill="lightgray" stroke="black" points="1598.74,-149.4 1574.74,-149.4 1574.74,-131.4 1598.74,-131.4 1598.74,-149.4"/>
<text text-anchor="middle" x="1586.74" y="-138.2" font-family="Times New Roman,serif" font-size="9.00">&#45;7</text>
</g>
<!-- &#45;7&#45;&gt;0 -->
<g id="edge116" class="edge">
<title>&#45;7&#45;&gt;0</title>
<path fill="none" stroke="red" stroke-width="0.22" d="M1574.6,-134.23C1543.42,-121.15 1457.8,-86.25 1383.74,-65.7 1303.45,-43.41 1277.78,-58.92 1199.74,-29.7 1198.87,-29.37 1198,-29.02 1197.13,-28.64"/>
<polygon fill="red" stroke="red" stroke-width="0.22" points="1198.56,-25.44 1188.06,-24 1195.36,-31.67 1198.56,-25.44"/>
</g>
<!-- &#45;7&#45;&gt;1 -->
<g id="edge117" class="edge">
<title>&#45;7&#45;&gt;1</title>
<path fill="none" stroke="green" stroke-width="0.41" d="M1599,-132.12C1620.56,-118.47 1661.13,-88.32 1640.74,-65.7 1589.14,-8.43 1369.06,-53.48 1295.74,-29.7 1294.69,-29.36 1293.63,-28.97 1292.58,-28.53"/>
<polygon fill="green" stroke="green" stroke-width="0.41" points="1293.99,-25.33 1283.49,-23.94 1290.83,-31.57 1293.99,-25.33"/>
</g>
<!-- &#45;7&#45;&gt;2 -->
<g id="edge118" class="edge">
<title>&#45;7&#45;&gt;2</title>
<path fill="none" stroke="green" stroke-width="0.59" d="M1574.3,-134.33C1541.53,-121.18 1449.91,-85.57 1370.74,-65.7 1275.07,-41.69 1244.63,-62.89 1151.74,-29.7 1150.87,-29.39 1149.99,-29.04 1149.12,-28.68"/>
<polygon fill="green" stroke="green" stroke-width="0.59" points="1150.53,-25.47 1140.03,-24.07 1147.37,-31.72 1150.53,-25.47"/>
</g>
<!-- &#45;7&#45;&gt;3 -->
<g id="edge119" class="edge">
<title>&#45;7&#45;&gt;3</title>
<path fill="none" stroke="green" stroke-width="0.33" d="M1598.84,-138.67C1654.95,-135.18 1887.87,-119.31 1908.74,-95.4 1917.42,-85.45 1917.82,-75.28 1908.74,-65.7 1858.16,-12.29 1318.24,-50.65 1247.74,-29.7 1246.68,-29.38 1245.62,-29.01 1244.56,-28.6"/>
<polygon fill="green" stroke="green" stroke-width="0.33" points="1245.96,-25.39 1235.45,-24.07 1242.84,-31.65 1245.96,-25.39"/>
</g>
<!-- &#45;7&#45;&gt;4 -->
<g id="edge120" class="edge">
<title>&#45;7&#45;&gt;4</title>
<path fill="none" stroke="red" stroke-width="0.28" d="M1599.03,-139.47C1648.41,-139.49 1831.4,-136.72 1866.74,-95.4 1875.32,-85.37 1875.64,-75.45 1866.74,-65.7 1831.11,-26.67 1447.04,-17.86 1344.69,-16.19"/>
<polygon fill="red" stroke="red" stroke-width="0.28" points="1344.7,-12.69 1334.65,-16.04 1344.59,-19.69 1344.7,-12.69"/>
</g>
<!-- &#45;7&#45;&gt;5 -->
<g id="edge31" class="edge">
<title>&#45;7&#45;&gt;5</title>
<path fill="none" stroke="green" stroke-width="0.3" d="M1574.65,-138.69C1517.27,-135.22 1272.15,-119.26 1199.74,-95.4 1198.86,-95.11 1197.98,-94.78 1197.1,-94.43"/>
<polygon fill="green" stroke="green" stroke-width="0.3" points="1198.5,-91.22 1187.99,-89.9 1195.38,-97.49 1198.5,-91.22"/>
</g>
<!-- &#45;7&#45;&gt;6 -->
<g id="edge32" class="edge">
<title>&#45;7&#45;&gt;6</title>
<path fill="none" stroke="red" stroke-width="0.41" d="M1574.65,-139.52C1529.95,-139.61 1370.29,-136.86 1247.74,-95.4 1246.86,-95.1 1245.98,-94.77 1245.1,-94.41"/>
<polygon fill="red" stroke="red" stroke-width="0.41" points="1246.51,-91.2 1236,-89.86 1243.38,-97.46 1246.51,-91.2"/>
</g>
<!-- &#45;7&#45;&gt;7 -->
<g id="edge33" class="edge">
<title>&#45;7&#45;&gt;7</title>
<path fill="none" stroke="green" stroke-width="0.25" d="M1574.72,-139.17C1534.2,-138.06 1399.42,-131.69 1295.74,-95.4 1294.87,-95.09 1293.99,-94.75 1293.11,-94.39"/>
<polygon fill="green" stroke="green" stroke-width="0.25" points="1294.52,-91.18 1284.02,-89.81 1291.37,-97.43 1294.52,-91.18"/>
</g>
<!-- &#45;7&#45;&gt;8 -->
<g id="edge34" class="edge">
<title>&#45;7&#45;&gt;8</title>
<path fill="none" stroke="red" stroke-width="0.2" d="M1574.57,-136.76C1533.54,-127.87 1399.73,-98.88 1344.22,-86.85"/>
<polygon fill="red" stroke="red" stroke-width="0.2" points="1344.72,-83.38 1334.21,-84.68 1343.24,-90.22 1344.72,-83.38"/>
</g>
<!-- &#45;7&#45;&gt;9 -->
<g id="edge35" class="edge">
<title>&#45;7&#45;&gt;9</title>
<path fill="none" stroke="green" stroke-width="0.24" d="M1574.41,-138.85C1512.34,-135.99 1233.73,-121.85 1151.74,-95.4 1150.69,-95.06 1149.63,-94.67 1148.58,-94.24"/>
<polygon fill="green" stroke="green" stroke-width="0.24" points="1149.99,-91.03 1139.48,-89.64 1146.83,-97.28 1149.99,-91.03"/>
</g>
<!-- &#45;8 -->
<g id="node8" class="node">
<title>&#45;8</title>
<polygon fill="lightgray" stroke="black" points="1286.74,-149.4 1262.74,-149.4 1262.74,-131.4 1286.74,-131.4 1286.74,-149.4"/>
<text text-anchor="middle" x="1274.74" y="-138.2" font-family="Times New Roman,serif" font-size="9.00">&#45;8</text>
</g>
<!-- &#45;8&#45;&gt;0 -->
<g id="edge121" class="edge">
<title>&#45;8&#45;&gt;0</title>
<path fill="none" stroke="green" stroke-width="0.12" d="M1286.94,-135.71C1303.29,-130.04 1331.65,-117.45 1343.74,-95.4 1350.09,-83.82 1351.86,-76.1 1343.74,-65.7 1303.14,-13.7 1260.9,-54.42 1199.74,-29.7 1198.88,-29.35 1198.02,-28.98 1197.15,-28.58"/>
<polygon fill="green" stroke="green" stroke-width="0.12" points="1198.59,-25.39 1188.11,-23.86 1195.35,-31.6 1198.59,-25.39"/>
</g>
<!-- &#45;8&#45;&gt;1 -->
<g id="edge122" class="edge">
<title>&#45;8&#45;&gt;1</title>
<path fill="none" stroke="green" stroke-width="0.39" d="M1286.83,-138.23C1345.03,-132.57 1593.98,-107.68 1604.74,-95.4 1613.43,-85.47 1613.52,-75.56 1604.74,-65.7 1558.77,-14.06 1361.37,-51.42 1295.74,-29.7 1294.86,-29.41 1293.98,-29.08 1293.1,-28.73"/>
<polygon fill="green" stroke="green" stroke-width="0.39" points="1294.5,-25.52 1283.99,-24.2 1291.38,-31.78 1294.5,-25.52"/>
</g>
<!-- &#45;8&#45;&gt;2 -->
<g id="edge123" class="edge">
<title>&#45;8&#45;&gt;2</title>
<path fill="none" stroke="red" stroke-width="0.23" d="M1262.67,-135.7C1258.02,-134.31 1252.64,-132.74 1247.74,-131.4 1184.1,-114.02 1144.34,-147.39 1103.74,-95.4 1089.98,-77.78 1101.68,-52.33 1113.05,-35"/>
<polygon fill="red" stroke="red" stroke-width="0.23" points="1115.95,-36.96 1118.83,-26.76 1110.22,-32.94 1115.95,-36.96"/>
</g>
<!-- &#45;8&#45;&gt;3 -->
<g id="edge124" class="edge">
<title>&#45;8&#45;&gt;3</title>
<path fill="none" stroke="green" stroke-width="0.18" d="M1286.79,-138.22C1335.09,-133.36 1512.82,-114.31 1528.74,-95.4 1537.24,-85.3 1537.46,-75.61 1528.74,-65.7 1487.15,-18.44 1307.39,-49.82 1247.74,-29.7 1246.86,-29.4 1245.98,-29.07 1245.1,-28.72"/>
<polygon fill="green" stroke="green" stroke-width="0.18" points="1246.51,-25.51 1236,-24.17 1243.38,-31.77 1246.51,-25.51"/>
</g>
<!-- &#45;8&#45;&gt;4 -->
<g id="edge125" class="edge">
<title>&#45;8&#45;&gt;4</title>
<path fill="none" stroke="red" stroke-width="0.1" d="M1286.99,-138.37C1305.39,-136.83 1341.25,-133.84 1371.74,-131.4 1422.95,-127.29 1797.85,-133.11 1832.74,-95.4 1841.7,-85.71 1841.61,-75.47 1832.74,-65.7 1799.63,-29.21 1443.73,-18.61 1345.01,-16.36"/>
<polygon fill="red" stroke="red" stroke-width="0.1" points="1344.85,-12.85 1334.77,-16.14 1344.69,-19.85 1344.85,-12.85"/>
</g>
<!-- &#45;8&#45;&gt;5 -->
<g id="edge36" class="edge">
<title>&#45;8&#45;&gt;5</title>
<path fill="none" stroke="green" stroke-width="0.15" d="M1262.6,-132.3C1246.29,-122.77 1217.03,-105.67 1197.02,-93.98"/>
<polygon fill="green" stroke="green" stroke-width="0.15" points="1198.69,-90.91 1188.29,-88.88 1195.16,-96.95 1198.69,-90.91"/>
</g>
<!-- &#45;8&#45;&gt;6 -->
<g id="edge37" class="edge">
<title>&#45;8&#45;&gt;6</title>
<path fill="none" stroke="green" stroke-width="0.23" d="M1267.65,-131.35C1260.49,-123.24 1249.2,-110.43 1239.86,-99.83"/>
<polygon fill="green" stroke="green" stroke-width="0.23" points="1242.44,-97.46 1233.2,-92.28 1237.19,-102.09 1242.44,-97.46"/>
</g>
<!-- &#45;8&#45;&gt;7 -->
<g id="edge38" class="edge">
<title>&#45;8&#45;&gt;7</title>
<path fill="none" stroke="green" stroke-width="0.25" d="M1274.32,-131.35C1273.98,-124.75 1273.48,-115.03 1273,-105.93"/>
<polygon fill="green" stroke="green" stroke-width="0.25" points="1276.49,-105.56 1272.48,-95.75 1269.5,-105.92 1276.49,-105.56"/>
</g>
<!-- &#45;8&#45;&gt;8 -->
<g id="edge39" class="edge">
<title>&#45;8&#45;&gt;8</title>
<path fill="none" stroke="green" stroke-width="0.25" d="M1281,-131.35C1287.11,-123.49 1296.65,-111.23 1304.73,-100.84"/>
<polygon fill="green" stroke="green" stroke-width="0.25" points="1307.69,-102.74 1311.07,-92.69 1302.17,-98.44 1307.69,-102.74"/>
</g>
<!-- &#45;8&#45;&gt;9 -->
<g id="edge40" class="edge">
<title>&#45;8&#45;&gt;9</title>
<path fill="none" stroke="green" stroke-width="0.53" d="M1262.58,-135.85C1240.17,-129.13 1191.05,-113.59 1151.74,-95.4 1150.9,-95.01 1150.05,-94.6 1149.2,-94.18"/>
<polygon fill="green" stroke="green" stroke-width="0.53" points="1150.68,-91 1140.22,-89.32 1147.35,-97.15 1150.68,-91"/>
</g>
<!-- &#45;9 -->
<g id="node9" class="node">
<title>&#45;9</title>
<polygon fill="lightgray" stroke="black" points="1404.74,-149.4 1380.74,-149.4 1380.74,-131.4 1404.74,-131.4 1404.74,-149.4"/>
<text text-anchor="middle" x="1392.74" y="-138.2" font-family="Times New Roman,serif" font-size="9.00">&#45;9</text>
</g>
<!-- &#45;9&#45;&gt;0 -->
<g id="edge126" class="edge">
<title>&#45;9&#45;&gt;0</title>
<path fill="none" stroke="red" stroke-width="0.18" d="M1391.49,-131.08C1388.72,-115.67 1380.57,-82.74 1359.74,-65.7 1303.32,-19.55 1267.63,-56.22 1199.74,-29.7 1198.88,-29.36 1198.01,-29 1197.14,-28.61"/>
<polygon fill="red" stroke="red" stroke-width="0.18" points="1198.58,-25.41 1188.09,-23.92 1195.36,-31.63 1198.58,-25.41"/>
</g>
<!-- &#45;9&#45;&gt;1 -->
<g id="edge127" class="edge">
<title>&#45;9&#45;&gt;1</title>
<path fill="none" stroke="red" stroke-width="0.28" d="M1404.76,-139.5C1460.03,-139.58 1684.43,-135.7 1621.74,-65.7 1573.11,-11.41 1365,-52.4 1295.74,-29.7 1294.86,-29.41 1293.98,-29.09 1293.09,-28.74"/>
<polygon fill="red" stroke="red" stroke-width="0.28" points="1294.5,-25.52 1283.98,-24.21 1291.38,-31.79 1294.5,-25.52"/>
</g>
<!-- &#45;9&#45;&gt;2 -->
<g id="edge128" class="edge">
<title>&#45;9&#45;&gt;2</title>
<path fill="none" stroke="red" stroke-width="0.14" d="M1389.7,-130.93C1383.6,-115.3 1368.34,-81.98 1343.74,-65.7 1271.34,-17.78 1233.17,-59.82 1151.74,-29.7 1150.87,-29.38 1150,-29.03 1149.12,-28.65"/>
<polygon fill="red" stroke="red" stroke-width="0.14" points="1150.55,-25.45 1140.05,-24.02 1147.36,-31.68 1150.55,-25.45"/>
</g>
<!-- &#45;9&#45;&gt;3 -->
<g id="edge129" class="edge">
<title>&#45;9&#45;&gt;3</title>
<path fill="none" stroke="red" stroke-width="0.18" d="M1404.99,-138.68C1461.79,-135.24 1697.6,-119.58 1718.74,-95.4 1727.43,-85.46 1727.71,-75.38 1718.74,-65.7 1683.07,-27.2 1297.88,-45.2 1247.74,-29.7 1246.68,-29.37 1245.62,-28.99 1244.57,-28.57"/>
<polygon fill="red" stroke="red" stroke-width="0.18" points="1245.97,-25.36 1235.46,-24.01 1242.83,-31.62 1245.97,-25.36"/>
</g>
<!-- &#45;9&#45;&gt;4 -->
<g id="edge130" class="edge">
<title>&#45;9&#45;&gt;4</title>
<path fill="none" stroke="green" stroke-width="0.17" d="M1404.98,-138.68C1476.17,-134.45 1834.3,-112.4 1849.74,-95.4 1858.61,-85.63 1858.63,-75.46 1849.74,-65.7 1815.37,-27.95 1445.47,-18.23 1344.87,-16.27"/>
<polygon fill="green" stroke="green" stroke-width="0.17" points="1344.79,-12.77 1334.72,-16.09 1344.66,-19.77 1344.79,-12.77"/>
</g>
<!-- &#45;9&#45;&gt;5 -->
<g id="edge41" class="edge">
<title>&#45;9&#45;&gt;5</title>
<path fill="none" stroke="red" stroke-width="0.44" d="M1380.62,-137.92C1349.63,-133.86 1265.33,-121.12 1199.74,-95.4 1198.88,-95.06 1198.01,-94.69 1197.14,-94.31"/>
<polygon fill="red" stroke="red" stroke-width="0.44" points="1198.58,-91.11 1188.09,-89.62 1195.36,-97.32 1198.58,-91.11"/>
</g>
<!-- &#45;9&#45;&gt;6 -->
<g id="edge42" class="edge">
<title>&#45;9&#45;&gt;6</title>
<path fill="none" stroke="red" stroke-width="0.4" d="M1380.37,-136.66C1354.91,-130.8 1295.05,-115.9 1247.74,-95.4 1246.89,-95.03 1246.03,-94.64 1245.17,-94.23"/>
<polygon fill="red" stroke="red" stroke-width="0.4" points="1246.64,-91.04 1236.16,-89.44 1243.35,-97.22 1246.64,-91.04"/>
</g>
<!-- &#45;9&#45;&gt;7 -->
<g id="edge43" class="edge">
<title>&#45;9&#45;&gt;7</title>
<path fill="none" stroke="green" stroke-width="0.27" d="M1380.61,-134.35C1362.07,-126.53 1325.67,-110.78 1295.74,-95.4 1294.92,-94.97 1294.08,-94.54 1293.24,-94.09"/>
<polygon fill="green" stroke="green" stroke-width="0.27" points="1294.76,-90.93 1284.32,-89.11 1291.35,-97.04 1294.76,-90.93"/>
</g>
<!-- &#45;9&#45;&gt;8 -->
<g id="edge44" class="edge">
<title>&#45;9&#45;&gt;8</title>
<path fill="none" stroke="green" stroke-width="0.18" d="M1382.59,-131.35C1371.43,-122.51 1353.23,-108.09 1339.28,-97.03"/>
<polygon fill="green" stroke="green" stroke-width="0.18" points="1341.26,-94.13 1331.25,-90.67 1336.91,-99.62 1341.26,-94.13"/>
</g>
<!-- &#45;9&#45;&gt;9 -->
<g id="edge45" class="edge">
<title>&#45;9&#45;&gt;9</title>
<path fill="none" stroke="red" stroke-width="0.22" d="M1380.57,-138.65C1344.56,-136.12 1235.78,-126.26 1151.74,-95.4 1150.87,-95.08 1150,-94.73 1149.12,-94.35"/>
<polygon fill="red" stroke="red" stroke-width="0.22" points="1150.55,-91.15 1140.05,-89.73 1147.37,-97.39 1150.55,-91.15"/>
</g>
<!-- &#45;10 -->
<g id="node10" class="node">
<title>&#45;10</title>
<polygon fill="lightgray" stroke="black" points="1795.24,-149.4 1766.24,-149.4 1766.24,-131.4 1795.24,-131.4 1795.24,-149.4"/>
<text text-anchor="middle" x="1780.74" y="-138.2" font-family="Times New Roman,serif" font-size="9.00">&#45;10</text>
</g>
<!-- &#45;10&#45;&gt;0 -->
<g id="edge131" class="edge">
<title>&#45;10&#45;&gt;0</title>
<path fill="none" stroke="green" stroke-width="0.22" d="M1765.99,-135.81C1719,-124.45 1568.58,-88.71 1442.74,-65.7 1335.34,-46.06 1302.84,-65.62 1199.74,-29.7 1198.86,-29.39 1197.99,-29.06 1197.11,-28.69"/>
<polygon fill="green" stroke="green" stroke-width="0.22" points="1198.52,-25.49 1188.02,-24.11 1195.37,-31.74 1198.52,-25.49"/>
</g>
<!-- &#45;10&#45;&gt;1 -->
<g id="edge132" class="edge">
<title>&#45;10&#45;&gt;1</title>
<path fill="none" stroke="red" stroke-width="0.41" d="M1795.56,-138.44C1869.82,-133.59 2198.4,-111.27 2212.74,-95.4 2221.59,-85.6 2221.89,-75.21 2212.74,-65.7 2177.4,-28.95 1344.72,-43.85 1295.74,-29.7 1294.68,-29.39 1293.61,-29.03 1292.55,-28.62"/>
<polygon fill="red" stroke="red" stroke-width="0.41" points="1293.95,-25.41 1283.43,-24.11 1290.84,-31.68 1293.95,-25.41"/>
</g>
<!-- &#45;10&#45;&gt;2 -->
<g id="edge133" class="edge">
<title>&#45;10&#45;&gt;2</title>
<path fill="none" stroke="red" stroke-width="0.18" d="M1766.19,-135.89C1718.49,-124.47 1562.4,-87.86 1431.74,-65.7 1308.04,-44.72 1270.62,-69.84 1151.74,-29.7 1150.86,-29.4 1149.98,-29.07 1149.1,-28.72"/>
<polygon fill="red" stroke="red" stroke-width="0.18" points="1150.51,-25.51 1140,-24.16 1147.38,-31.77 1150.51,-25.51"/>
</g>
<!-- &#45;10&#45;&gt;3 -->
<g id="edge134" class="edge">
<title>&#45;10&#45;&gt;3</title>
<path fill="none" stroke="red" stroke-width="0.23" d="M1795.4,-138.48C1855.21,-134.61 2078.47,-118.67 2098.74,-95.4 2107.41,-85.44 2107.87,-75.23 2098.74,-65.7 2033.25,2.62 1338.62,-56.11 1247.74,-29.7 1246.68,-29.39 1245.61,-29.02 1244.55,-28.62"/>
<polygon fill="red" stroke="red" stroke-width="0.23" points="1245.95,-25.4 1235.44,-24.1 1242.84,-31.67 1245.95,-25.4"/>
</g>
<!-- &#45;10&#45;&gt;4 -->
<g id="edge135" class="edge">
<title>&#45;10&#45;&gt;4</title>
<path fill="none" stroke="red" stroke-width="0.38" d="M1795.49,-138.56C1885.26,-133.44 2354.74,-106.18 2364.74,-95.4 2373.72,-85.72 2373.85,-75.25 2364.74,-65.7 2328.4,-27.59 1500.15,-17.62 1344.75,-16.08"/>
<polygon fill="red" stroke="red" stroke-width="0.38" points="1344.77,-12.58 1334.74,-15.98 1344.71,-19.58 1344.77,-12.58"/>
</g>
<!-- &#45;10&#45;&gt;5 -->
<g id="edge46" class="edge">
<title>&#45;10&#45;&gt;5</title>
<path fill="none" stroke="red" stroke-width="0.5" d="M1765.98,-138.67C1680.93,-134.45 1255.38,-112.58 1199.74,-95.4 1198.68,-95.07 1197.62,-94.69 1196.57,-94.27"/>
<polygon fill="red" stroke="red" stroke-width="0.5" points="1197.97,-91.06 1187.46,-89.71 1194.83,-97.32 1197.97,-91.06"/>
</g>
<!-- &#45;10&#45;&gt;6 -->
<g id="edge47" class="edge">
<title>&#45;10&#45;&gt;6</title>
<path fill="none" stroke="red" stroke-width="0.29" d="M1766.16,-138.58C1685.79,-134 1298.53,-111.27 1247.74,-95.4 1246.68,-95.07 1245.62,-94.68 1244.57,-94.26"/>
<polygon fill="red" stroke="red" stroke-width="0.29" points="1245.97,-91.05 1235.47,-89.69 1242.83,-97.31 1245.97,-91.05"/>
</g>
<!-- &#45;10&#45;&gt;7 -->
<g id="edge48" class="edge">
<title>&#45;10&#45;&gt;7</title>
<path fill="none" stroke="red" stroke-width="0.14" d="M1766,-138.44C1689.73,-133.43 1341.63,-109.94 1295.74,-95.4 1294.68,-95.06 1293.63,-94.68 1292.57,-94.25"/>
<polygon fill="red" stroke="red" stroke-width="0.14" points="1293.98,-91.04 1283.47,-89.67 1290.83,-97.29 1293.98,-91.04"/>
</g>
<!-- &#45;10&#45;&gt;8 -->
<g id="edge49" class="edge">
<title>&#45;10&#45;&gt;8</title>
<path fill="none" stroke="green" stroke-width="0.32" d="M1766.18,-137.57C1700.2,-129.29 1428.82,-95.24 1344.71,-84.68"/>
<polygon fill="green" stroke="green" stroke-width="0.32" points="1345.12,-81.21 1334.76,-83.43 1344.25,-88.15 1345.12,-81.21"/>
</g>
<!-- &#45;10&#45;&gt;9 -->
<g id="edge50" class="edge">
<title>&#45;10&#45;&gt;9</title>
<path fill="none" stroke="green" stroke-width="0.47" d="M1766.22,-138.77C1677.7,-134.92 1212.33,-113.91 1151.74,-95.4 1150.68,-95.07 1149.62,-94.7 1148.56,-94.28"/>
<polygon fill="green" stroke="green" stroke-width="0.47" points="1149.97,-91.07 1139.46,-89.72 1146.84,-97.33 1149.97,-91.07"/>
</g>
<!-- &#45;11 -->
<g id="node11" class="node">
<title>&#45;11</title>
<polygon fill="lightgray" stroke="black" points="410.24,-149.4 381.24,-149.4 381.24,-131.4 410.24,-131.4 410.24,-149.4"/>
<text text-anchor="middle" x="395.74" y="-138.2" font-family="Times New Roman,serif" font-size="9.00">&#45;11</text>
</g>
<!-- &#45;11&#45;&gt;0 -->
<g id="edge136" class="edge">
<title>&#45;11&#45;&gt;0</title>
<path fill="none" stroke="red" stroke-width="0.16" d="M380.88,-138.67C316.92,-135.4 67.39,-121.07 44.74,-95.4 36.01,-85.5 35.56,-75.18 44.74,-65.7 87.54,-21.49 1092.57,-46.58 1151.74,-29.7 1152.8,-29.39 1153.87,-29.03 1154.93,-28.63"/>
<polygon fill="red" stroke="red" stroke-width="0.16" points="1156.64,-31.69 1164.05,-24.12 1153.53,-25.41 1156.64,-31.69"/>
</g>
<!-- &#45;11&#45;&gt;1 -->
<g id="edge137" class="edge">
<title>&#45;11&#45;&gt;1</title>
<path fill="none" stroke="red" stroke-width="0.2" d="M381.14,-137.99C333.6,-132.91 188.84,-113.26 234.74,-65.7 273.85,-25.18 1193.61,-45.23 1247.74,-29.7 1248.8,-29.39 1249.87,-29.03 1250.93,-28.62"/>
<polygon fill="red" stroke="red" stroke-width="0.2" points="1252.64,-31.69 1260.05,-24.12 1249.53,-25.41 1252.64,-31.69"/>
</g>
<!-- &#45;11&#45;&gt;2 -->
<g id="edge138" class="edge">
<title>&#45;11&#45;&gt;2</title>
<path fill="none" stroke="red" stroke-width="0.28" d="M381.13,-138.87C313.4,-136.29 32.21,-123.91 6.74,-95.4 -2.05,-85.55 -2.38,-75.24 6.74,-65.7 45.9,-24.76 939.84,-17.06 1102.47,-16"/>
<polygon fill="red" stroke="red" stroke-width="0.28" points="1102.92,-19.49 1112.9,-15.93 1102.88,-12.49 1102.92,-19.49"/>
</g>
<!-- &#45;11&#45;&gt;3 -->
<g id="edge139" class="edge">
<title>&#45;11&#45;&gt;3</title>
<path fill="none" stroke="green" stroke-width="0.28" d="M410.52,-135.84C460.45,-123.98 627.56,-85.36 767.74,-65.7 958.54,-38.94 1015.87,-87.23 1199.74,-29.7 1200.8,-29.37 1201.86,-28.99 1202.91,-28.56"/>
<polygon fill="green" stroke="green" stroke-width="0.28" points="1204.65,-31.61 1212.01,-23.99 1201.5,-25.35 1204.65,-31.61"/>
</g>
<!-- &#45;11&#45;&gt;4 -->
<g id="edge140" class="edge">
<title>&#45;11&#45;&gt;4</title>
<path fill="none" stroke="red" stroke-width="0.15" d="M410.49,-135.56C458.87,-123.16 617.27,-83.87 750.74,-65.7 991.27,-32.95 1063.45,-100.2 1295.74,-29.7 1296.8,-29.38 1297.86,-29 1298.92,-28.58"/>
<polygon fill="red" stroke="red" stroke-width="0.15" points="1300.64,-31.64 1308.02,-24.04 1297.51,-25.37 1300.64,-31.64"/>
</g>
<!-- &#45;11&#45;&gt;5 -->
<g id="edge51" class="edge">
<title>&#45;11&#45;&gt;5</title>
<path fill="none" stroke="green" stroke-width="0.46" d="M410.37,-138.05C429.18,-136.34 462.87,-133.39 491.74,-131.4 638.28,-121.3 1010.94,-137.25 1151.74,-95.4 1152.8,-95.08 1153.86,-94.71 1154.92,-94.3"/>
<polygon fill="green" stroke="green" stroke-width="0.46" points="1156.64,-97.35 1164.03,-89.76 1153.52,-91.09 1156.64,-97.35"/>
</g>
<!-- &#45;11&#45;&gt;6 -->
<g id="edge52" class="edge">
<title>&#45;11&#45;&gt;6</title>
<path fill="none" stroke="red" stroke-width="0.3" d="M410.37,-138.03C429.18,-136.31 462.87,-133.33 491.74,-131.4 648.92,-120.85 1048.65,-140.01 1199.74,-95.4 1200.8,-95.08 1201.86,-94.71 1202.92,-94.3"/>
<polygon fill="red" stroke="red" stroke-width="0.3" points="1204.64,-97.36 1212.04,-89.77 1201.52,-91.09 1204.64,-97.36"/>
</g>
<!-- &#45;11&#45;&gt;7 -->
<g id="edge53" class="edge">
<title>&#45;11&#45;&gt;7</title>
<path fill="none" stroke="green" stroke-width="0.29" d="M410.37,-138.02C429.18,-136.28 462.87,-133.29 491.74,-131.4 659.57,-120.41 1086.36,-142.76 1247.74,-95.4 1248.8,-95.09 1249.87,-94.72 1250.92,-94.31"/>
<polygon fill="green" stroke="green" stroke-width="0.29" points="1252.64,-97.36 1260.04,-89.78 1249.53,-91.09 1252.64,-97.36"/>
</g>
<!-- &#45;11&#45;&gt;8 -->
<g id="edge54" class="edge">
<title>&#45;11&#45;&gt;8</title>
<path fill="none" stroke="red" stroke-width="0.15" d="M410.36,-138C429.18,-136.25 462.87,-133.25 491.74,-131.4 670.22,-119.97 1124.06,-145.52 1295.74,-95.4 1296.8,-95.09 1297.87,-94.72 1298.93,-94.31"/>
<polygon fill="red" stroke="red" stroke-width="0.15" points="1300.64,-97.37 1308.04,-89.79 1297.53,-91.1 1300.64,-97.37"/>
</g>
<!-- &#45;11&#45;&gt;9 -->
<g id="edge55" class="edge">
<title>&#45;11&#45;&gt;9</title>
<path fill="none" stroke="red" stroke-width="0.1" d="M410.38,-138.15C429.2,-136.56 462.9,-133.73 491.74,-131.4 729.7,-112.16 1017.83,-89.98 1102.95,-83.45"/>
<polygon fill="red" stroke="red" stroke-width="0.1" points="1103.24,-86.93 1112.95,-82.68 1102.71,-79.95 1103.24,-86.93"/>
</g>
<!-- &#45;12 -->
<g id="node12" class="node">
<title>&#45;12</title>
<polygon fill="lightgray" stroke="black" points="1061.24,-149.4 1032.24,-149.4 1032.24,-131.4 1061.24,-131.4 1061.24,-149.4"/>
<text text-anchor="middle" x="1046.74" y="-138.2" font-family="Times New Roman,serif" font-size="9.00">&#45;12</text>
</g>
<!-- &#45;12&#45;&gt;0 -->
<g id="edge141" class="edge">
<title>&#45;12&#45;&gt;0</title>
<path fill="none" stroke="green" stroke-width="0.14" d="M1032.09,-138.68C950.56,-134.63 555.9,-114.11 538.74,-95.4 529.82,-85.67 529.68,-75.3 538.74,-65.7 585.55,-16.06 1086.38,-49.28 1151.74,-29.7 1152.8,-29.38 1153.86,-29.01 1154.92,-28.59"/>
<polygon fill="green" stroke="green" stroke-width="0.14" points="1156.64,-31.65 1164.03,-24.05 1153.52,-25.38 1156.64,-31.65"/>
</g>
<!-- &#45;12&#45;&gt;1 -->
<g id="edge142" class="edge">
<title>&#45;12&#45;&gt;1</title>
<path fill="none" stroke="green" stroke-width="0.65" d="M1033.6,-131.27C1012.53,-117.26 975.44,-87.93 994.74,-65.7 1031.96,-22.81 1194.06,-48.23 1247.74,-29.7 1248.61,-29.4 1249.49,-29.06 1250.37,-28.7"/>
<polygon fill="green" stroke="green" stroke-width="0.65" points="1252.1,-31.75 1259.47,-24.13 1248.96,-25.49 1252.1,-31.75"/>
</g>
<!-- &#45;12&#45;&gt;2 -->
<g id="edge143" class="edge">
<title>&#45;12&#45;&gt;2</title>
<path fill="none" stroke="red" stroke-width="0.4" d="M1032.12,-138.77C947.09,-135.08 519.32,-115.54 500.74,-95.4 491.79,-85.7 491.78,-75.39 500.74,-65.7 542.2,-20.82 990.41,-16.31 1102.46,-15.89"/>
<polygon fill="red" stroke="red" stroke-width="0.4" points="1102.8,-19.39 1112.79,-15.86 1102.78,-12.39 1102.8,-19.39"/>
</g>
<!-- &#45;12&#45;&gt;3 -->
<g id="edge144" class="edge">
<title>&#45;12&#45;&gt;3</title>
<path fill="none" stroke="green" stroke-width="0.21" d="M1048.71,-131.22C1052.79,-116.05 1063.58,-83.48 1084.74,-65.7 1125.73,-31.23 1150.69,-51.21 1199.74,-29.7 1200.59,-29.33 1201.44,-28.93 1202.3,-28.52"/>
<polygon fill="green" stroke="green" stroke-width="0.21" points="1204.13,-31.51 1211.31,-23.72 1200.84,-25.34 1204.13,-31.51"/>
</g>
<!-- &#45;12&#45;&gt;4 -->
<g id="edge145" class="edge">
<title>&#45;12&#45;&gt;4</title>
<path fill="none" stroke="red" stroke-width="0.21" d="M1050.68,-130.92C1058.43,-115.26 1077.25,-81.9 1103.74,-65.7 1177.81,-20.4 1214.31,-59.82 1295.74,-29.7 1296.61,-29.38 1297.48,-29.03 1298.35,-28.65"/>
<polygon fill="red" stroke="red" stroke-width="0.21" points="1300.11,-31.68 1307.43,-24.02 1296.93,-25.45 1300.11,-31.68"/>
</g>
<!-- &#45;12&#45;&gt;5 -->
<g id="edge56" class="edge">
<title>&#45;12&#45;&gt;5</title>
<path fill="none" stroke="green" stroke-width="0.35" d="M1061.26,-133.98C1081.77,-126.19 1120.22,-111.02 1151.74,-95.4 1152.57,-94.99 1153.41,-94.56 1154.26,-94.12"/>
<polygon fill="green" stroke="green" stroke-width="0.35" points="1156.13,-97.08 1163.2,-89.18 1152.75,-90.95 1156.13,-97.08"/>
</g>
<!-- &#45;12&#45;&gt;6 -->
<g id="edge57" class="edge">
<title>&#45;12&#45;&gt;6</title>
<path fill="none" stroke="green" stroke-width="0.22" d="M1061.49,-136.41C1089.26,-130.52 1150.9,-116.15 1199.74,-95.4 1200.59,-95.03 1201.45,-94.65 1202.31,-94.24"/>
<polygon fill="green" stroke="green" stroke-width="0.22" points="1204.13,-97.24 1211.33,-89.47 1200.86,-91.06 1204.13,-97.24"/>
</g>
<!-- &#45;12&#45;&gt;7 -->
<g id="edge58" class="edge">
<title>&#45;12&#45;&gt;7</title>
<path fill="none" stroke="red" stroke-width="0.42" d="M1061.31,-137.77C1095.06,-133.66 1180.78,-121.32 1247.74,-95.4 1248.6,-95.06 1249.47,-94.7 1250.34,-94.32"/>
<polygon fill="red" stroke="red" stroke-width="0.42" points="1252.12,-97.34 1259.4,-89.64 1248.91,-91.12 1252.12,-97.34"/>
</g>
<!-- &#45;12&#45;&gt;8 -->
<g id="edge59" class="edge">
<title>&#45;12&#45;&gt;8</title>
<path fill="none" stroke="green" stroke-width="0.12" d="M1061.41,-137.49C1107.93,-131.32 1251.7,-111.43 1295.74,-95.4 1296.61,-95.08 1297.48,-94.73 1298.36,-94.36"/>
<polygon fill="green" stroke="green" stroke-width="0.12" points="1300.11,-97.4 1307.44,-89.74 1296.94,-91.16 1300.11,-97.4"/>
</g>
<!-- &#45;12&#45;&gt;9 -->
<g id="edge60" class="edge">
<title>&#45;12&#45;&gt;9</title>
<path fill="none" stroke="red" stroke-width="0.1" d="M1058,-131.35C1070.79,-122.22 1091.92,-107.13 1107.57,-95.95"/>
<polygon fill="red" stroke="red" stroke-width="0.1" points="1109.94,-98.56 1116.05,-89.9 1105.88,-92.86 1109.94,-98.56"/>
</g>
<!-- 5&#45;&gt;0 -->
<g id="edge61" class="edge">
<title>5&#45;&gt;0</title>
<path fill="none" stroke="green" stroke-width="0.46" d="M1175.74,-65.41C1175.74,-57.99 1175.74,-48.68 1175.74,-40.15"/>
<polygon fill="green" stroke="green" stroke-width="0.46" points="1179.24,-39.95 1175.74,-29.95 1172.24,-39.95 1179.24,-39.95"/>
</g>
<!-- 5&#45;&gt;1 -->
<g id="edge62" class="edge">
<title>5&#45;&gt;1</title>
<path fill="none" stroke="red" stroke-width="0.24" d="M1187.9,-71.48C1203.84,-60.9 1232.03,-42.19 1251.29,-29.42"/>
<polygon fill="red" stroke="red" stroke-width="0.24" points="1253.28,-32.3 1259.68,-23.85 1249.41,-26.46 1253.28,-32.3"/>
</g>
<!-- 5&#45;&gt;2 -->
<g id="edge63" class="edge">
<title>5&#45;&gt;2</title>
<path fill="none" stroke="red" stroke-width="0.11" d="M1167.16,-68.16C1160.26,-59.01 1150.43,-45.96 1142.3,-35.18"/>
<polygon fill="red" stroke="red" stroke-width="0.11" points="1145.06,-33.02 1136.25,-27.14 1139.47,-37.23 1145.06,-33.02"/>
</g>
<!-- 5&#45;&gt;3 -->
<g id="edge64" class="edge">
<title>5&#45;&gt;3</title>
<path fill="none" stroke="red" stroke-width="0.24" d="M1184.32,-68.16C1191.21,-59.01 1201.05,-45.96 1209.17,-35.18"/>
<polygon fill="red" stroke="red" stroke-width="0.24" points="1212.01,-37.23 1215.23,-27.14 1206.42,-33.02 1212.01,-37.23"/>
</g>
<!-- 5&#45;&gt;4 -->
<g id="edge65" class="edge">
<title>5&#45;&gt;4</title>
<path fill="none" stroke="green" stroke-width="0.34" d="M1188.24,-71.82C1191.88,-69.71 1195.91,-67.51 1199.74,-65.7 1240.95,-46.25 1254.53,-49.15 1295.74,-29.7 1296.58,-29.3 1297.42,-28.89 1298.27,-28.46"/>
<polygon fill="green" stroke="green" stroke-width="0.34" points="1300.13,-31.43 1307.24,-23.58 1296.79,-25.29 1300.13,-31.43"/>
</g>
<!-- 6&#45;&gt;0 -->
<g id="edge66" class="edge">
<title>6&#45;&gt;0</title>
<path fill="none" stroke="green" stroke-width="0.3" d="M1215.16,-68.16C1208.26,-59.01 1198.43,-45.96 1190.3,-35.18"/>
<polygon fill="green" stroke="green" stroke-width="0.3" points="1193.06,-33.02 1184.25,-27.14 1187.47,-37.23 1193.06,-33.02"/>
</g>
<!-- 6&#45;&gt;1 -->
<g id="edge67" class="edge">
<title>6&#45;&gt;1</title>
<path fill="none" stroke="green" stroke-width="0.21" d="M1232.32,-68.16C1239.21,-59.01 1249.05,-45.96 1257.17,-35.18"/>
<polygon fill="green" stroke="green" stroke-width="0.21" points="1260.01,-37.23 1263.23,-27.14 1254.42,-33.02 1260.01,-37.23"/>
</g>
<!-- 6&#45;&gt;2 -->
<g id="edge68" class="edge">
<title>6&#45;&gt;2</title>
<path fill="none" stroke="red" stroke-width="0.1" d="M1211.58,-71.48C1195.64,-60.9 1167.44,-42.19 1148.19,-29.42"/>
<polygon fill="red" stroke="red" stroke-width="0.1" points="1150.07,-26.46 1139.8,-23.85 1146.2,-32.3 1150.07,-26.46"/>
</g>
<!-- 6&#45;&gt;3 -->
<g id="edge69" class="edge">
<title>6&#45;&gt;3</title>
<path fill="none" stroke="red" stroke-width="0.47" d="M1223.74,-65.41C1223.74,-57.99 1223.74,-48.68 1223.74,-40.15"/>
<polygon fill="red" stroke="red" stroke-width="0.47" points="1227.24,-39.95 1223.74,-29.95 1220.24,-39.95 1227.24,-39.95"/>
</g>
<!-- 6&#45;&gt;4 -->
<g id="edge70" class="edge">
<title>6&#45;&gt;4</title>
<path fill="none" stroke="green" stroke-width="0.26" d="M1235.9,-71.48C1251.84,-60.9 1280.03,-42.19 1299.29,-29.42"/>
<polygon fill="green" stroke="green" stroke-width="0.26" points="1301.28,-32.3 1307.68,-23.85 1297.41,-26.46 1301.28,-32.3"/>
</g>
<!-- 7&#45;&gt;0 -->
<g id="edge71" class="edge">
<title>7&#45;&gt;0</title>
<path fill="none" stroke="green" stroke-width="0.27" d="M1259.58,-71.48C1243.64,-60.9 1215.44,-42.19 1196.19,-29.42"/>
<polygon fill="green" stroke="green" stroke-width="0.27" points="1198.07,-26.46 1187.8,-23.85 1194.2,-32.3 1198.07,-26.46"/>
</g>
<!-- 7&#45;&gt;1 -->
<g id="edge72" class="edge">
<title>7&#45;&gt;1</title>
<path fill="none" stroke="green" stroke-width="0.17" d="M1271.74,-65.41C1271.74,-57.99 1271.74,-48.68 1271.74,-40.15"/>
<polygon fill="green" stroke="green" stroke-width="0.17" points="1275.24,-39.95 1271.74,-29.95 1268.24,-39.95 1275.24,-39.95"/>
</g>
<!-- 7&#45;&gt;2 -->
<g id="edge73" class="edge">
<title>7&#45;&gt;2</title>
<path fill="none" stroke="red" stroke-width="0.32" d="M1259.24,-71.82C1255.6,-69.71 1251.57,-67.51 1247.74,-65.7 1206.53,-46.25 1192.95,-49.15 1151.74,-29.7 1150.9,-29.3 1150.05,-28.89 1149.2,-28.46"/>
<polygon fill="red" stroke="red" stroke-width="0.32" points="1150.69,-25.29 1140.24,-23.58 1147.35,-31.43 1150.69,-25.29"/>
</g>
<!-- 7&#45;&gt;3 -->
<g id="edge74" class="edge">
<title>7&#45;&gt;3</title>
<path fill="none" stroke="red" stroke-width="0.22" d="M1263.16,-68.16C1256.26,-59.01 1246.43,-45.96 1238.3,-35.18"/>
<polygon fill="red" stroke="red" stroke-width="0.22" points="1241.06,-33.02 1232.25,-27.14 1235.47,-37.23 1241.06,-33.02"/>
</g>
<!-- 7&#45;&gt;4 -->
<g id="edge75" class="edge">
<title>7&#45;&gt;4</title>
<path fill="none" stroke="red" stroke-width="0.14" d="M1280.32,-68.16C1287.21,-59.01 1297.05,-45.96 1305.17,-35.18"/>
<polygon fill="red" stroke="red" stroke-width="0.14" points="1308.01,-37.23 1311.23,-27.14 1302.42,-33.02 1308.01,-37.23"/>
</g>
<!-- 8&#45;&gt;0 -->
<g id="edge76" class="edge">
<title>8&#45;&gt;0</title>
<path fill="none" stroke="red" stroke-width="0.18" d="M1307.24,-71.82C1303.6,-69.71 1299.57,-67.51 1295.74,-65.7 1254.53,-46.25 1240.95,-49.15 1199.74,-29.7 1198.9,-29.3 1198.05,-28.89 1197.2,-28.46"/>
<polygon fill="red" stroke="red" stroke-width="0.18" points="1198.69,-25.29 1188.24,-23.58 1195.35,-31.43 1198.69,-25.29"/>
</g>
<!-- 8&#45;&gt;1 -->
<g id="edge77" class="edge">
<title>8&#45;&gt;1</title>
<path fill="none" stroke="red" stroke-width="0.17" d="M1311.16,-68.16C1304.26,-59.01 1294.43,-45.96 1286.3,-35.18"/>
<polygon fill="red" stroke="red" stroke-width="0.17" points="1289.06,-33.02 1280.25,-27.14 1283.47,-37.23 1289.06,-33.02"/>
</g>
<!-- 8&#45;&gt;2 -->
<g id="edge78" class="edge">
<title>8&#45;&gt;2</title>
<path fill="none" stroke="green" stroke-width="0.19" d="M1307.37,-71.53C1303.73,-69.42 1299.66,-67.29 1295.74,-65.7 1234.58,-40.97 1212.9,-54.42 1151.74,-29.7 1150.88,-29.35 1150.02,-28.98 1149.15,-28.58"/>
<polygon fill="green" stroke="green" stroke-width="0.19" points="1150.59,-25.39 1140.11,-23.86 1147.35,-31.6 1150.59,-25.39"/>
</g>
<!-- 8&#45;&gt;3 -->
<g id="edge79" class="edge">
<title>8&#45;&gt;3</title>
<path fill="none" stroke="red" stroke-width="0.15" d="M1307.58,-71.48C1291.64,-60.9 1263.44,-42.19 1244.19,-29.42"/>
<polygon fill="red" stroke="red" stroke-width="0.15" points="1246.07,-26.46 1235.8,-23.85 1242.2,-32.3 1246.07,-26.46"/>
</g>
<!-- 8&#45;&gt;4 -->
<g id="edge80" class="edge">
<title>8&#45;&gt;4</title>
<path fill="none" stroke="red" stroke-width="0.13" d="M1319.74,-65.41C1319.74,-57.99 1319.74,-48.68 1319.74,-40.15"/>
<polygon fill="red" stroke="red" stroke-width="0.13" points="1323.24,-39.95 1319.74,-29.95 1316.24,-39.95 1323.24,-39.95"/>
</g>
<!-- 9&#45;&gt;0 -->
<g id="edge81" class="edge">
<title>9&#45;&gt;0</title>
<path fill="none" stroke="red" stroke-width="0.13" d="M1136.32,-68.16C1143.21,-59.01 1153.05,-45.96 1161.17,-35.18"/>
<polygon fill="red" stroke="red" stroke-width="0.13" points="1164.01,-37.23 1167.23,-27.14 1158.42,-33.02 1164.01,-37.23"/>
</g>
<!-- 9&#45;&gt;1 -->
<g id="edge82" class="edge">
<title>9&#45;&gt;1</title>
<path fill="none" stroke="red" stroke-width="0.11" d="M1140.24,-71.82C1143.88,-69.71 1147.91,-67.51 1151.74,-65.7 1192.95,-46.25 1206.53,-49.15 1247.74,-29.7 1248.58,-29.3 1249.42,-28.89 1250.27,-28.46"/>
<polygon fill="red" stroke="red" stroke-width="0.11" points="1252.13,-31.43 1259.24,-23.58 1248.79,-25.29 1252.13,-31.43"/>
</g>
<!-- 9&#45;&gt;2 -->
<g id="edge83" class="edge">
<title>9&#45;&gt;2</title>
<path fill="none" stroke="red" stroke-width="0.14" d="M1127.74,-65.41C1127.74,-57.99 1127.74,-48.68 1127.74,-40.15"/>
<polygon fill="red" stroke="red" stroke-width="0.14" points="1131.24,-39.95 1127.74,-29.95 1124.24,-39.95 1131.24,-39.95"/>
</g>
<!-- 9&#45;&gt;3 -->
<g id="edge84" class="edge">
<title>9&#45;&gt;3</title>
<path fill="none" stroke="green" stroke-width="0.27" d="M1139.9,-71.48C1155.84,-60.9 1184.03,-42.19 1203.29,-29.42"/>
<polygon fill="green" stroke="green" stroke-width="0.27" points="1205.28,-32.3 1211.68,-23.85 1201.41,-26.46 1205.28,-32.3"/>
</g>
<!-- 9&#45;&gt;4 -->
<g id="edge85" class="edge">
<title>9&#45;&gt;4</title>
<path fill="none" stroke="red" stroke-width="0.12" d="M1140.11,-71.53C1143.75,-69.42 1147.81,-67.29 1151.74,-65.7 1212.9,-40.97 1234.58,-54.42 1295.74,-29.7 1296.6,-29.35 1297.46,-28.98 1298.33,-28.58"/>
<polygon fill="red" stroke="red" stroke-width="0.12" points="1300.12,-31.6 1307.37,-23.86 1296.88,-25.39 1300.12,-31.6"/>
</g>
</g>
</svg>
