<?xml version="1.0" encoding="UTF-8" standalone="no"?>
<!DOCTYPE svg PUBLIC "-//W3C//DTD SVG 1.1//EN"
 "http://www.w3.org/Graphics/SVG/1.1/DTD/svg11.dtd">
<!-- Generated by graphviz version 3.0.0 (20220226.1711)
 -->
<!-- Pages: 1 -->
<svg width="3634pt" height="393pt"
 viewBox="0.00 0.00 3633.87 392.68" xmlns="http://www.w3.org/2000/svg" xmlns:xlink="http://www.w3.org/1999/xlink">
<g id="graph0" class="graph" transform="scale(1 1) rotate(0) translate(4 388.68)">
<polygon fill="white" stroke="transparent" points="-4,4 -4,-388.68 3629.87,-388.68 3629.87,4 -4,4"/>
<!-- &#45;1 -->
<g id="node1" class="node">
<title>&#45;1</title>
<polygon fill="lightgray" stroke="black" points="2567.66,-384.68 2543.66,-384.68 2543.66,-366.68 2567.66,-366.68 2567.66,-384.68"/>
<text text-anchor="middle" x="2555.66" y="-373.48" font-family="Times New Roman,serif" font-size="9.00">&#45;1</text>
</g>
<!-- 0 -->
<g id="node13" class="node">
<title>0</title>
<ellipse fill="lightblue" stroke="black" cx="2191.66" cy="-237.4" rx="14.7" ry="14.7"/>
<text text-anchor="middle" x="2191.66" y="-235.2" font-family="Times New Roman,serif" font-size="9.00">0</text>
</g>
<!-- &#45;1&#45;&gt;0 -->
<g id="edge38" class="edge">
<title>&#45;1&#45;&gt;0</title>
<path fill="none" stroke="green" stroke-width="0.19" stroke-dasharray="1,5" d="M2567.67,-372.88C2587.92,-369.14 2628.34,-358.41 2645.66,-330.68 2655.64,-314.68 2658.24,-302.29 2645.66,-288.25 2616.83,-256.08 2308.12,-242.56 2216.9,-239.25"/>
<polygon fill="green" stroke="green" stroke-width="0.19" points="2216.78,-235.74 2206.66,-238.88 2216.53,-242.74 2216.78,-235.74"/>
</g>
<!-- 1 -->
<g id="node14" class="node">
<title>1</title>
<ellipse fill="lightblue" stroke="black" cx="2639.66" cy="-237.4" rx="14.7" ry="14.7"/>
<text text-anchor="middle" x="2639.66" y="-235.2" font-family="Times New Roman,serif" font-size="9.00">1</text>
</g>
<!-- &#45;1&#45;&gt;1 -->
<g id="edge39" class="edge">
<title>&#45;1&#45;&gt;1</title>
<path fill="none" stroke="green" stroke-width="0.41" stroke-dasharray="1,5" d="M2567.86,-374.32C2655.17,-371.69 3182.03,-354.89 3204.66,-330.68 3217.53,-316.9 3217.39,-302.16 3204.66,-288.25 3167.72,-247.91 2769.41,-240.04 2664.73,-238.67"/>
<polygon fill="green" stroke="green" stroke-width="0.41" points="2664.54,-235.17 2654.49,-238.54 2664.45,-242.17 2664.54,-235.17"/>
</g>
<!-- 2 -->
<g id="node15" class="node">
<title>2</title>
<ellipse fill="lightblue" stroke="black" cx="1963.66" cy="-237.4" rx="14.7" ry="14.7"/>
<text text-anchor="middle" x="1963.66" y="-235.2" font-family="Times New Roman,serif" font-size="9.00">2</text>
</g>
<!-- &#45;1&#45;&gt;2 -->
<g id="edge40" class="edge">
<title>&#45;1&#45;&gt;2</title>
<path fill="none" stroke="green" stroke-width="0.31" d="M2567.81,-368.53C2580.45,-361.38 2599.5,-348.27 2607.66,-330.68 2615.59,-313.57 2620.46,-302.09 2607.66,-288.25 2602.29,-282.45 2106.79,-248.2 1988.71,-240.11"/>
<polygon fill="green" stroke="green" stroke-width="0.31" points="1988.71,-236.6 1978.49,-239.41 1988.23,-243.59 1988.71,-236.6"/>
</g>
<!-- 3 -->
<g id="node16" class="node">
<title>3</title>
<ellipse fill="lightblue" stroke="black" cx="1316.66" cy="-237.4" rx="14.7" ry="14.7"/>
<text text-anchor="middle" x="1316.66" y="-235.2" font-family="Times New Roman,serif" font-size="9.00">3</text>
</g>
<!-- &#45;1&#45;&gt;3 -->
<g id="edge41" class="edge">
<title>&#45;1&#45;&gt;3</title>
<path fill="none" stroke="green" stroke-width="0.59" d="M2543.56,-371.47C2523.66,-365.76 2483.48,-352.37 2455.66,-330.68 2436.82,-315.99 2443.92,-299.13 2422.66,-288.25 2323.97,-237.76 1536.14,-261.24 1425.66,-252.25 1396.7,-249.89 1363.63,-245.44 1341.58,-242.22"/>
<polygon fill="green" stroke="green" stroke-width="0.59" points="1341.83,-238.72 1331.42,-240.71 1340.8,-245.64 1341.83,-238.72"/>
</g>
<!-- 4 -->
<g id="node17" class="node">
<title>4</title>
<ellipse fill="lightblue" stroke="black" cx="1540.66" cy="-237.4" rx="14.7" ry="14.7"/>
<text text-anchor="middle" x="1540.66" y="-235.2" font-family="Times New Roman,serif" font-size="9.00">4</text>
</g>
<!-- &#45;1&#45;&gt;4 -->
<g id="edge42" class="edge">
<title>&#45;1&#45;&gt;4</title>
<path fill="none" stroke="red" stroke-width="0.96" d="M2551.07,-366.53C2539.76,-346.76 2510.24,-297.17 2493.66,-288.25 2402.69,-239.3 1663.9,-280.9 1564.66,-252.25 1563.59,-251.94 1562.53,-251.58 1561.47,-251.17"/>
<polygon fill="red" stroke="red" stroke-width="0.96" points="1562.86,-247.96 1552.35,-246.66 1559.76,-254.23 1562.86,-247.96"/>
</g>
<!-- 5 -->
<g id="node18" class="node">
<title>5</title>
<ellipse fill="lightblue" stroke="black" cx="1449.66" cy="-237.4" rx="14.7" ry="14.7"/>
<text text-anchor="middle" x="1449.66" y="-235.2" font-family="Times New Roman,serif" font-size="9.00">5</text>
</g>
<!-- &#45;1&#45;&gt;5 -->
<g id="edge43" class="edge">
<title>&#45;1&#45;&gt;5</title>
<path fill="none" stroke="red" stroke-width="0.35" d="M2543.65,-367.3C2530.71,-359.1 2509.8,-345.09 2493.66,-330.68 2474.77,-313.82 2478.57,-299.02 2455.66,-288.25 2361.16,-243.84 1620.3,-264.86 1516.66,-252.25 1502.29,-250.5 1486.41,-247.28 1473.72,-244.38"/>
<polygon fill="red" stroke="red" stroke-width="0.35" points="1474.46,-240.96 1463.92,-242.06 1472.85,-247.77 1474.46,-240.96"/>
</g>
<!-- 6 -->
<g id="node19" class="node">
<title>6</title>
<ellipse fill="lightblue" stroke="black" cx="1827.66" cy="-237.4" rx="14.7" ry="14.7"/>
<text text-anchor="middle" x="1827.66" y="-235.2" font-family="Times New Roman,serif" font-size="9.00">6</text>
</g>
<!-- &#45;1&#45;&gt;6 -->
<g id="edge44" class="edge">
<title>&#45;1&#45;&gt;6</title>
<path fill="none" stroke="green" stroke-width="0.71" stroke-dasharray="1,5" d="M2560.82,-366.49C2570.84,-349.46 2590.22,-310.02 2569.66,-288.25 2521.51,-237.28 2009.49,-258.56 1939.66,-252.25 1909.64,-249.54 1875.26,-245.09 1852.59,-241.96"/>
<polygon fill="green" stroke="green" stroke-width="0.71" points="1852.87,-238.47 1842.48,-240.55 1851.9,-245.4 1852.87,-238.47"/>
</g>
<!-- 7 -->
<g id="node20" class="node">
<title>7</title>
<ellipse fill="lightblue" stroke="black" cx="1588.66" cy="-237.4" rx="14.7" ry="14.7"/>
<text text-anchor="middle" x="1588.66" y="-235.2" font-family="Times New Roman,serif" font-size="9.00">7</text>
</g>
<!-- &#45;1&#45;&gt;7 -->
<g id="edge45" class="edge">
<title>&#45;1&#45;&gt;7</title>
<path fill="none" stroke="red" stroke-width="0.11" stroke-dasharray="1,5" d="M2556.22,-366.61C2556.93,-349.09 2555.86,-307.61 2531.66,-288.25 2468.41,-237.66 1884.51,-256.85 1803.66,-252.25 1734.88,-248.33 1653.77,-242.88 1613.68,-240.13"/>
<polygon fill="red" stroke="red" stroke-width="0.11" points="1613.73,-236.63 1603.51,-239.43 1613.24,-243.61 1613.73,-236.63"/>
</g>
<!-- 8 -->
<g id="node21" class="node">
<title>8</title>
<ellipse fill="lightblue" stroke="black" cx="2066.66" cy="-93.28" rx="14.7" ry="14.7"/>
<text text-anchor="middle" x="2066.66" y="-91.08" font-family="Times New Roman,serif" font-size="9.00">8</text>
</g>
<!-- &#45;1&#45;&gt;8 -->
<g id="edge46" class="edge">
<title>&#45;1&#45;&gt;8</title>
<path fill="none" stroke="red" stroke-width="0.33" d="M2567.83,-374.11C2656.07,-370.01 3195.23,-344.41 3226.66,-330.68 3324.65,-287.83 3452.83,-221.17 3378.66,-144.12 3332.32,-96 2270.25,-94.21 2091.95,-94.25"/>
<polygon fill="red" stroke="red" stroke-width="0.33" points="2091.71,-90.75 2081.71,-94.26 2091.72,-97.75 2091.71,-90.75"/>
</g>
<!-- 124 -->
<g id="node27" class="node">
<title>124</title>
<ellipse fill="white" stroke="black" cx="1588.66" cy="-309.46" rx="21.43" ry="21.43"/>
<text text-anchor="middle" x="1588.66" y="-307.26" font-family="Times New Roman,serif" font-size="9.00">124</text>
</g>
<!-- &#45;1&#45;&gt;124 -->
<g id="edge1" class="edge">
<title>&#45;1&#45;&gt;124</title>
<path fill="none" stroke="green" stroke-width="0.12" stroke-dasharray="1,5" d="M2543.43,-373.86C2444.47,-367.29 1774.27,-322.79 1620.19,-312.56"/>
<polygon fill="green" stroke="green" stroke-width="0.12" points="1620.22,-309.05 1610.01,-311.88 1619.75,-316.04 1620.22,-309.05"/>
</g>
<!-- 125 -->
<g id="node28" class="node">
<title>125</title>
<ellipse fill="white" stroke="black" cx="2066.66" cy="-309.46" rx="21.43" ry="21.43"/>
<text text-anchor="middle" x="2066.66" y="-307.26" font-family="Times New Roman,serif" font-size="9.00">125</text>
</g>
<!-- &#45;1&#45;&gt;125 -->
<g id="edge2" class="edge">
<title>&#45;1&#45;&gt;125</title>
<path fill="none" stroke="green" stroke-width="0.58" d="M2543.57,-373.09C2481.04,-364.88 2193.56,-327.13 2097.79,-314.55"/>
<polygon fill="green" stroke="green" stroke-width="0.58" points="2097.97,-311.05 2087.6,-313.21 2097.06,-317.99 2097.97,-311.05"/>
</g>
<!-- &#45;2 -->
<g id="node2" class="node">
<title>&#45;2</title>
<polygon fill="lightgray" stroke="black" points="1185.66,-384.68 1161.66,-384.68 1161.66,-366.68 1185.66,-366.68 1185.66,-384.68"/>
<text text-anchor="middle" x="1173.66" y="-373.48" font-family="Times New Roman,serif" font-size="9.00">&#45;2</text>
</g>
<!-- &#45;2&#45;&gt;0 -->
<g id="edge47" class="edge">
<title>&#45;2&#45;&gt;0</title>
<path fill="none" stroke="red" stroke-width="0.29" stroke-dasharray="1,5" d="M1185.72,-373.76C1237.67,-369.73 1447.36,-352.92 1618.66,-330.68 1831.95,-302.98 2087.93,-257.32 2167.12,-242.9"/>
<polygon fill="red" stroke="red" stroke-width="0.29" points="2167.88,-246.32 2177.09,-241.08 2166.63,-239.44 2167.88,-246.32"/>
</g>
<!-- &#45;2&#45;&gt;1 -->
<g id="edge48" class="edge">
<title>&#45;2&#45;&gt;1</title>
<path fill="none" stroke="red" stroke-width="0.23" d="M1185.7,-374.23C1292.59,-370.29 2075.13,-341.09 2096.66,-330.68 2119.18,-319.78 2111.42,-299.71 2133.66,-288.25 2218.96,-244.28 2524.38,-239.04 2614.47,-238.46"/>
<polygon fill="red" stroke="red" stroke-width="0.23" points="2614.6,-241.96 2624.59,-238.41 2614.57,-234.96 2614.6,-241.96"/>
</g>
<!-- &#45;2&#45;&gt;2 -->
<g id="edge49" class="edge">
<title>&#45;2&#45;&gt;2</title>
<path fill="none" stroke="green" stroke-width="0.21" d="M1185.68,-373.21C1222.34,-368.61 1335.77,-353.39 1427.66,-330.68 1487.07,-315.99 1498.9,-301.47 1558.66,-288.25 1686.76,-259.91 1721.44,-268.3 1851.66,-252.25 1881.57,-248.56 1915.97,-244.31 1938.67,-241.5"/>
<polygon fill="green" stroke="green" stroke-width="0.21" points="1939.31,-244.94 1948.8,-240.24 1938.45,-238 1939.31,-244.94"/>
</g>
<!-- &#45;2&#45;&gt;3 -->
<g id="edge50" class="edge">
<title>&#45;2&#45;&gt;3</title>
<path fill="none" stroke="green" stroke-width="0.1" d="M1161.59,-374.49C1091.37,-373.27 737.31,-365.45 705.66,-330.68 692.96,-316.73 692.88,-302.11 705.66,-288.25 745.97,-244.51 1181.88,-239.15 1291.67,-238.49"/>
<polygon fill="green" stroke="green" stroke-width="0.1" points="1291.81,-241.99 1301.8,-238.44 1291.78,-234.99 1291.81,-241.99"/>
</g>
<!-- &#45;2&#45;&gt;4 -->
<g id="edge51" class="edge">
<title>&#45;2&#45;&gt;4</title>
<path fill="none" stroke="red" stroke-width="0.24" d="M1161.27,-374.68C1135.06,-373.95 1074.22,-368.08 1047.66,-330.68 1036.74,-315.3 1034.9,-302.13 1047.66,-288.25 1079.8,-253.28 1426.65,-259.07 1473.66,-252.25 1487.98,-250.17 1503.85,-246.93 1516.55,-244.11"/>
<polygon fill="red" stroke="red" stroke-width="0.24" points="1517.4,-247.51 1526.37,-241.87 1515.84,-240.68 1517.4,-247.51"/>
</g>
<!-- &#45;2&#45;&gt;5 -->
<g id="edge52" class="edge">
<title>&#45;2&#45;&gt;5</title>
<path fill="none" stroke="green" stroke-width="0.24" d="M1161.45,-370.99C1145.1,-365.32 1116.75,-352.73 1104.66,-330.68 1095.59,-314.14 1092.31,-302.5 1104.66,-288.25 1109.94,-282.15 1346.28,-251.56 1424.68,-241.57"/>
<polygon fill="green" stroke="green" stroke-width="0.24" points="1425.18,-245.03 1434.65,-240.3 1424.29,-238.09 1425.18,-245.03"/>
</g>
<!-- &#45;2&#45;&gt;6 -->
<g id="edge53" class="edge">
<title>&#45;2&#45;&gt;6</title>
<path fill="none" stroke="red" stroke-width="0.1" d="M1185.94,-370.89C1228.7,-357.81 1375.19,-313.94 1498.66,-288.25 1611.1,-264.85 1747.31,-247.73 1802.56,-241.25"/>
<polygon fill="red" stroke="red" stroke-width="0.1" points="1803.27,-244.69 1812.8,-240.06 1802.46,-237.74 1803.27,-244.69"/>
</g>
<!-- &#45;2&#45;&gt;7 -->
<g id="edge54" class="edge">
<title>&#45;2&#45;&gt;7</title>
<path fill="none" stroke="red" stroke-width="0.78" d="M1161.3,-368.97C1147.96,-362.04 1127.45,-348.97 1118.66,-330.68 1110.49,-313.68 1105.87,-302.11 1118.66,-288.25 1186.08,-215.17 1469.72,-281.82 1564.66,-252.25 1565.71,-251.92 1566.77,-251.54 1567.83,-251.12"/>
<polygon fill="red" stroke="red" stroke-width="0.78" points="1569.56,-254.16 1576.93,-246.55 1566.42,-247.91 1569.56,-254.16"/>
</g>
<!-- &#45;2&#45;&gt;8 -->
<g id="edge55" class="edge">
<title>&#45;2&#45;&gt;8</title>
<path fill="none" stroke="red" stroke-width="0.22" d="M1161.23,-374.52C1088.92,-373.47 724.3,-366.44 691.66,-330.68 678.94,-316.75 680,-303.07 691.66,-288.25 859.89,-74.4 1017.65,-184.98 1286.66,-144.12 1581.18,-99.39 1944.19,-94.72 2041.62,-94.3"/>
<polygon fill="red" stroke="red" stroke-width="0.22" points="2041.69,-97.8 2051.68,-94.27 2041.67,-90.8 2041.69,-97.8"/>
</g>
<!-- 160 -->
<g id="node22" class="node">
<title>160</title>
<ellipse fill="white" stroke="black" cx="1148.66" cy="-309.46" rx="21.43" ry="21.43"/>
<text text-anchor="middle" x="1148.66" y="-307.26" font-family="Times New Roman,serif" font-size="9.00">160</text>
</g>
<!-- &#45;2&#45;&gt;160 -->
<g id="edge136" class="edge">
<title>&#45;2&#45;&gt;160</title>
<path fill="none" stroke="green" stroke-width="0.2" d="M1170.49,-366.54C1167.76,-359.54 1163.66,-348.99 1159.74,-338.93"/>
<polygon fill="green" stroke="green" stroke-width="0.2" points="1162.98,-337.61 1156.09,-329.56 1156.46,-340.15 1162.98,-337.61"/>
</g>
<!-- &#45;2&#45;&gt;124 -->
<g id="edge3" class="edge">
<title>&#45;2&#45;&gt;124</title>
<path fill="none" stroke="red" stroke-width="0.23" stroke-dasharray="1,5" d="M1185.86,-375.03C1234,-376.08 1414.94,-376.57 1553.66,-330.68 1556.62,-329.69 1559.62,-328.44 1562.54,-327.04"/>
<polygon fill="red" stroke="red" stroke-width="0.23" points="1564.36,-330.04 1571.51,-322.22 1561.05,-323.87 1564.36,-330.04"/>
</g>
<!-- &#45;2&#45;&gt;125 -->
<g id="edge4" class="edge">
<title>&#45;2&#45;&gt;125</title>
<path fill="none" stroke="red" stroke-width="0.27" d="M1185.79,-374.22C1287.05,-370.36 1989.19,-343.23 2031.66,-330.68 2034.65,-329.79 2037.67,-328.6 2040.6,-327.24"/>
<polygon fill="red" stroke="red" stroke-width="0.27" points="2042.4,-330.25 2049.59,-322.47 2039.12,-324.07 2042.4,-330.25"/>
</g>
<!-- &#45;3 -->
<g id="node3" class="node">
<title>&#45;3</title>
<polygon fill="lightgray" stroke="black" points="520.66,-384.68 496.66,-384.68 496.66,-366.68 520.66,-366.68 520.66,-384.68"/>
<text text-anchor="middle" x="508.66" y="-373.48" font-family="Times New Roman,serif" font-size="9.00">&#45;3</text>
</g>
<!-- &#45;3&#45;&gt;0 -->
<g id="edge56" class="edge">
<title>&#45;3&#45;&gt;0</title>
<path fill="none" stroke="green" stroke-width="0.6" d="M521,-374.08C587.87,-370.78 913.33,-354.19 1178.66,-330.68 1347.93,-315.68 1389.48,-304.35 1558.66,-288.25 1794.96,-265.76 2081.59,-245.84 2166.7,-240.07"/>
<polygon fill="green" stroke="green" stroke-width="0.6" points="2167.18,-243.55 2176.92,-239.38 2166.71,-236.56 2167.18,-243.55"/>
</g>
<!-- &#45;3&#45;&gt;1 -->
<g id="edge57" class="edge">
<title>&#45;3&#45;&gt;1</title>
<path fill="none" stroke="green" stroke-width="0.85" d="M520.78,-374.21C639.47,-369.65 1589.83,-333.06 1618.66,-330.68 1769.1,-318.25 1805.43,-303.17 1955.66,-288.25 2212.7,-262.72 2525.32,-244.66 2614.71,-239.74"/>
<polygon fill="green" stroke="green" stroke-width="0.85" points="2614.92,-243.24 2624.71,-239.2 2614.53,-236.25 2614.92,-243.24"/>
</g>
<!-- &#45;3&#45;&gt;2 -->
<g id="edge58" class="edge">
<title>&#45;3&#45;&gt;2</title>
<path fill="none" stroke="red" stroke-width="0.29" stroke-dasharray="1,5" d="M520.82,-373.85C561.25,-370.91 694.53,-359.49 800.66,-330.68 849.63,-317.38 857.02,-298.8 906.66,-288.25 1112.22,-244.56 1642.18,-269.16 1851.66,-252.25 1881.7,-249.82 1916.08,-245.31 1938.73,-242.1"/>
<polygon fill="red" stroke="red" stroke-width="0.29" points="1939.44,-245.53 1948.84,-240.64 1938.44,-238.6 1939.44,-245.53"/>
</g>
<!-- &#45;3&#45;&gt;3 -->
<g id="edge59" class="edge">
<title>&#45;3&#45;&gt;3</title>
<path fill="none" stroke="red" stroke-width="0.51" stroke-dasharray="1,5" d="M496.54,-374.11C441.92,-371.19 223.86,-355.21 287.66,-288.25 323.35,-250.78 1135.66,-240.32 1291.08,-238.65"/>
<polygon fill="red" stroke="red" stroke-width="0.51" points="1291.53,-242.15 1301.49,-238.55 1291.46,-235.15 1291.53,-242.15"/>
</g>
<!-- &#45;3&#45;&gt;4 -->
<g id="edge60" class="edge">
<title>&#45;3&#45;&gt;4</title>
<path fill="none" stroke="red" stroke-width="0.83" d="M496.25,-375.33C467.29,-376.08 395.31,-373.36 363.66,-330.68 352.42,-315.53 350.54,-301.8 363.66,-288.25 406.57,-243.92 1412.39,-259.52 1473.66,-252.25 1488.03,-250.54 1503.9,-247.32 1516.59,-244.42"/>
<polygon fill="red" stroke="red" stroke-width="0.83" points="1517.47,-247.8 1526.4,-242.09 1515.86,-240.99 1517.47,-247.8"/>
</g>
<!-- &#45;3&#45;&gt;5 -->
<g id="edge61" class="edge">
<title>&#45;3&#45;&gt;5</title>
<path fill="none" stroke="green" stroke-width="0.33" d="M496.46,-373.66C459.05,-370.26 347.15,-357.94 325.66,-330.68 313.98,-315.87 312.56,-301.82 325.66,-288.25 364.84,-247.65 1284.42,-256.81 1340.66,-252.25 1369.61,-249.9 1402.68,-245.45 1424.73,-242.22"/>
<polygon fill="green" stroke="green" stroke-width="0.33" points="1425.52,-245.64 1434.89,-240.71 1424.48,-238.72 1425.52,-245.64"/>
</g>
<!-- &#45;3&#45;&gt;6 -->
<g id="edge62" class="edge">
<title>&#45;3&#45;&gt;6</title>
<path fill="none" stroke="green" stroke-width="0.28" d="M520.75,-371.14C567.81,-357.57 743.41,-308.52 891.66,-288.25 1209.54,-244.78 1292.34,-270.56 1612.66,-252.25 1681.44,-248.32 1762.54,-242.87 1802.63,-240.13"/>
<polygon fill="green" stroke="green" stroke-width="0.28" points="1803.07,-243.61 1812.8,-239.43 1802.59,-236.63 1803.07,-243.61"/>
</g>
<!-- &#45;3&#45;&gt;7 -->
<g id="edge63" class="edge">
<title>&#45;3&#45;&gt;7</title>
<path fill="none" stroke="green" stroke-width="0.37" d="M520.66,-368.82C554.94,-352.43 656.54,-306.16 746.66,-288.25 925.12,-252.79 1389.97,-303.18 1564.66,-252.25 1565.72,-251.94 1566.78,-251.57 1567.84,-251.16"/>
<polygon fill="green" stroke="green" stroke-width="0.37" points="1569.55,-254.22 1576.96,-246.64 1566.44,-247.95 1569.55,-254.22"/>
</g>
<!-- &#45;3&#45;&gt;8 -->
<g id="edge64" class="edge">
<title>&#45;3&#45;&gt;8</title>
<path fill="none" stroke="red" stroke-width="0.94" stroke-dasharray="1,5" d="M513.34,-366.22C533.46,-330.9 616.66,-194.55 728.66,-144.12 852.58,-88.33 1866.71,-92.88 2041.16,-94.08"/>
<polygon fill="red" stroke="red" stroke-width="0.94" points="2041.39,-97.58 2051.41,-94.15 2041.44,-90.58 2041.39,-97.58"/>
</g>
<!-- 247 -->
<g id="node25" class="node">
<title>247</title>
<ellipse fill="white" stroke="black" cx="1088.66" cy="-21.21" rx="21.43" ry="21.43"/>
<text text-anchor="middle" x="1088.66" y="-19.01" font-family="Times New Roman,serif" font-size="9.00">247</text>
</g>
<!-- &#45;3&#45;&gt;247 -->
<g id="edge139" class="edge">
<title>&#45;3&#45;&gt;247</title>
<path fill="none" stroke="green" stroke-width="0.66" d="M496.34,-373.23C429.33,-365.05 111.66,-321.84 111.66,-238.4 111.66,-238.4 111.66,-238.4 111.66,-164.34 111.66,-66.43 889.91,-30.08 1057.22,-23.39"/>
<polygon fill="green" stroke="green" stroke-width="0.66" points="1057.49,-26.89 1067.34,-23 1057.21,-19.89 1057.49,-26.89"/>
</g>
<!-- &#45;3&#45;&gt;124 -->
<g id="edge5" class="edge">
<title>&#45;3&#45;&gt;124</title>
<path fill="none" stroke="red" stroke-width="0.55" d="M520.88,-373.95C591.43,-369.77 953.77,-348.28 1249.66,-330.68 1362.68,-323.95 1496.91,-315.94 1556.92,-312.36"/>
<polygon fill="red" stroke="red" stroke-width="0.55" points="1557.46,-315.83 1567.24,-311.74 1557.05,-308.84 1557.46,-315.83"/>
</g>
<!-- &#45;3&#45;&gt;125 -->
<g id="edge6" class="edge">
<title>&#45;3&#45;&gt;125</title>
<path fill="none" stroke="red" stroke-width="0.3" d="M520.9,-374.17C553.12,-372.84 642.9,-369.19 717.66,-366.68 1267.8,-348.15 1408.21,-388.15 1955.66,-330.68 1983.07,-327.8 2013.88,-321.98 2036.08,-317.32"/>
<polygon fill="red" stroke="red" stroke-width="0.3" points="2036.88,-320.73 2045.92,-315.21 2035.41,-313.88 2036.88,-320.73"/>
</g>
<!-- &#45;4 -->
<g id="node4" class="node">
<title>&#45;4</title>
<polygon fill="lightgray" stroke="black" points="750.66,-384.68 726.66,-384.68 726.66,-366.68 750.66,-366.68 750.66,-384.68"/>
<text text-anchor="middle" x="738.66" y="-373.48" font-family="Times New Roman,serif" font-size="9.00">&#45;4</text>
</g>
<!-- &#45;4&#45;&gt;1 -->
<g id="edge65" class="edge">
<title>&#45;4&#45;&gt;1</title>
<path fill="none" stroke="green" stroke-width="0.45" d="M750.82,-374.39C874.13,-371.48 1894.22,-346.97 1955.66,-330.68 1994.94,-320.26 1997.63,-299.58 2036.66,-288.25 2147.99,-255.93 2515.61,-242.29 2614.81,-239.14"/>
<polygon fill="green" stroke="green" stroke-width="0.45" points="2614.92,-242.64 2624.8,-238.83 2614.7,-235.64 2614.92,-242.64"/>
</g>
<!-- &#45;4&#45;&gt;2 -->
<g id="edge66" class="edge">
<title>&#45;4&#45;&gt;2</title>
<path fill="none" stroke="green" stroke-width="0.55" d="M750.98,-371.04C798.13,-357.32 971.86,-308.39 1118.66,-288.25 1441.8,-243.91 1526.69,-280.28 1851.66,-252.25 1881.68,-249.66 1916.06,-245.18 1938.72,-242.02"/>
<polygon fill="green" stroke="green" stroke-width="0.55" points="1939.43,-245.46 1948.84,-240.59 1938.44,-238.52 1939.43,-245.46"/>
</g>
<!-- &#45;4&#45;&gt;3 -->
<g id="edge67" class="edge">
<title>&#45;4&#45;&gt;3</title>
<path fill="none" stroke="red" stroke-width="0.25" d="M726.36,-367.39C714.94,-359.84 698.68,-346.88 691.66,-330.68 684.15,-313.38 678.86,-302.1 691.66,-288.25 732.98,-243.5 1179.77,-238.9 1291.46,-238.44"/>
<polygon fill="red" stroke="red" stroke-width="0.25" points="1291.76,-241.94 1301.75,-238.41 1291.74,-234.94 1291.76,-241.94"/>
</g>
<!-- &#45;4&#45;&gt;4 -->
<g id="edge68" class="edge">
<title>&#45;4&#45;&gt;4</title>
<path fill="none" stroke="green" stroke-width="0.45" d="M726.4,-371.19C709.63,-365.69 680.21,-353.23 667.66,-330.68 658.48,-314.2 654.62,-301.88 667.66,-288.25 698.63,-255.86 1429.18,-257.8 1473.66,-252.25 1488.02,-250.46 1503.89,-247.23 1516.58,-244.34"/>
<polygon fill="green" stroke="green" stroke-width="0.45" points="1517.46,-247.73 1526.39,-242.04 1515.85,-240.92 1517.46,-247.73"/>
</g>
<!-- &#45;4&#45;&gt;5 -->
<g id="edge69" class="edge">
<title>&#45;4&#45;&gt;5</title>
<path fill="none" stroke="green" stroke-width="0.14" d="M726.47,-373.96C702.98,-371.84 651.8,-363.49 629.66,-330.68 619.11,-315.05 616.66,-301.92 629.66,-288.25 656.91,-259.58 1301.26,-255.74 1340.66,-252.25 1369.59,-249.68 1402.67,-245.27 1424.72,-242.11"/>
<polygon fill="green" stroke="green" stroke-width="0.14" points="1425.49,-245.54 1434.88,-240.64 1424.49,-238.61 1425.49,-245.54"/>
</g>
<!-- &#45;4&#45;&gt;6 -->
<g id="edge70" class="edge">
<title>&#45;4&#45;&gt;6</title>
<path fill="none" stroke="red" stroke-width="0.23" d="M750.79,-370.82C795.05,-356.93 952.26,-309.17 1085.66,-288.25 1103.78,-285.41 1675.11,-248.29 1802.6,-240.02"/>
<polygon fill="red" stroke="red" stroke-width="0.23" points="1803.15,-243.49 1812.9,-239.36 1802.7,-236.51 1803.15,-243.49"/>
</g>
<!-- &#45;4&#45;&gt;7 -->
<g id="edge71" class="edge">
<title>&#45;4&#45;&gt;7</title>
<path fill="none" stroke="red" stroke-width="0.45" d="M739.95,-366.44C743.23,-348.58 753.71,-306.46 781.66,-288.25 854.62,-240.7 1481.07,-276.71 1564.66,-252.25 1565.72,-251.94 1566.78,-251.57 1567.84,-251.16"/>
<polygon fill="red" stroke="red" stroke-width="0.45" points="1569.55,-254.22 1576.96,-246.64 1566.44,-247.95 1569.55,-254.22"/>
</g>
<!-- &#45;4&#45;&gt;8 -->
<g id="edge72" class="edge">
<title>&#45;4&#45;&gt;8</title>
<path fill="none" stroke="green" stroke-width="0.19" d="M726.45,-369.69C712.22,-363.12 689.4,-350.09 679.66,-330.68 671.2,-313.82 674.46,-306.38 679.66,-288.25 703,-206.74 726.4,-176.78 804.66,-144.12 922.66,-94.89 1873.37,-93.99 2041.34,-94.22"/>
<polygon fill="green" stroke="green" stroke-width="0.19" points="2041.46,-97.72 2051.46,-94.24 2041.47,-90.72 2041.46,-97.72"/>
</g>
<!-- &#45;4&#45;&gt;124 -->
<g id="edge7" class="edge">
<title>&#45;4&#45;&gt;124</title>
<path fill="none" stroke="green" stroke-width="0.34" stroke-dasharray="1,5" d="M750.67,-373.77C841.14,-366.93 1415.67,-323.53 1557.19,-312.84"/>
<polygon fill="green" stroke="green" stroke-width="0.34" points="1557.64,-316.32 1567.35,-312.07 1557.12,-309.34 1557.64,-316.32"/>
</g>
<!-- &#45;4&#45;&gt;125 -->
<g id="edge8" class="edge">
<title>&#45;4&#45;&gt;125</title>
<path fill="none" stroke="green" stroke-width="0.16" d="M750.78,-374.43C878.12,-371.85 1966.61,-349.3 2031.66,-330.68 2034.66,-329.82 2037.68,-328.64 2040.62,-327.29"/>
<polygon fill="green" stroke="green" stroke-width="0.16" points="2042.41,-330.3 2049.61,-322.53 2039.13,-324.12 2042.41,-330.3"/>
</g>
<!-- &#45;5 -->
<g id="node5" class="node">
<title>&#45;5</title>
<polygon fill="lightgray" stroke="black" points="1475.66,-384.68 1451.66,-384.68 1451.66,-366.68 1475.66,-366.68 1475.66,-384.68"/>
<text text-anchor="middle" x="1463.66" y="-373.48" font-family="Times New Roman,serif" font-size="9.00">&#45;5</text>
</g>
<!-- &#45;5&#45;&gt;0 -->
<g id="edge73" class="edge">
<title>&#45;5&#45;&gt;0</title>
<path fill="none" stroke="red" stroke-width="0.18" d="M1475.84,-374.33C1558.69,-371.92 2037.88,-356.93 2096.66,-330.68 2131.71,-315.02 2161.46,-280.52 2177.9,-258.43"/>
<polygon fill="red" stroke="red" stroke-width="0.18" points="2180.91,-260.24 2183.92,-250.08 2175.23,-256.15 2180.91,-260.24"/>
</g>
<!-- &#45;5&#45;&gt;1 -->
<g id="edge74" class="edge">
<title>&#45;5&#45;&gt;1</title>
<path fill="none" stroke="red" stroke-width="0.14" d="M1475.7,-374.12C1560.85,-370.15 2070.61,-345.88 2137.66,-330.68 2187.14,-319.46 2194.53,-300.95 2243.66,-288.25 2380.67,-252.83 2551.11,-242.2 2614.44,-239.35"/>
<polygon fill="red" stroke="red" stroke-width="0.14" points="2614.81,-242.83 2624.66,-238.91 2614.52,-235.84 2614.81,-242.83"/>
</g>
<!-- &#45;5&#45;&gt;2 -->
<g id="edge75" class="edge">
<title>&#45;5&#45;&gt;2</title>
<path fill="none" stroke="green" stroke-width="0.2" d="M1476.02,-371.31C1541.77,-353.39 1850.83,-269.15 1939.7,-244.93"/>
<polygon fill="green" stroke="green" stroke-width="0.2" points="1940.69,-248.29 1949.41,-242.28 1938.85,-241.53 1940.69,-248.29"/>
</g>
<!-- &#45;5&#45;&gt;3 -->
<g id="edge76" class="edge">
<title>&#45;5&#45;&gt;3</title>
<path fill="none" stroke="red" stroke-width="0.36" d="M1451.39,-374.12C1391.12,-371.26 1128.22,-357.3 1104.66,-330.68 1049.22,-268.03 1224.53,-246.23 1291.64,-240.29"/>
<polygon fill="red" stroke="red" stroke-width="0.36" points="1292.11,-243.76 1301.79,-239.44 1291.53,-236.78 1292.11,-243.76"/>
</g>
<!-- &#45;5&#45;&gt;4 -->
<g id="edge77" class="edge">
<title>&#45;5&#45;&gt;4</title>
<path fill="none" stroke="red" stroke-width="0.16" d="M1451.64,-372.88C1431.39,-369.14 1390.97,-358.41 1373.66,-330.68 1363.67,-314.68 1362.39,-303.37 1373.66,-288.25 1382.34,-276.59 1472.08,-254.35 1516.3,-243.98"/>
<polygon fill="red" stroke="red" stroke-width="0.16" points="1517.29,-247.34 1526.24,-241.67 1515.7,-240.53 1517.29,-247.34"/>
</g>
<!-- &#45;5&#45;&gt;5 -->
<g id="edge78" class="edge">
<title>&#45;5&#45;&gt;5</title>
<path fill="none" stroke="red" stroke-width="0.51" d="M1451.48,-374.06C1392.82,-370.97 1141.2,-356.28 1118.66,-330.68 1106.19,-316.52 1106.36,-302.54 1118.66,-288.25 1123.69,-282.4 1348.53,-251.9 1424.72,-241.72"/>
<polygon fill="red" stroke="red" stroke-width="0.51" points="1425.39,-245.16 1434.84,-240.37 1424.46,-238.22 1425.39,-245.16"/>
</g>
<!-- &#45;5&#45;&gt;6 -->
<g id="edge79" class="edge">
<title>&#45;5&#45;&gt;6</title>
<path fill="none" stroke="green" stroke-width="0.48" d="M1469.78,-366.66C1483.55,-349.26 1518.91,-307.98 1558.66,-288.25 1641.32,-247.22 1753.47,-239.76 1802.72,-238.54"/>
<polygon fill="green" stroke="green" stroke-width="0.48" points="1802.84,-242.04 1812.78,-238.36 1802.71,-235.04 1802.84,-242.04"/>
</g>
<!-- &#45;5&#45;&gt;7 -->
<g id="edge80" class="edge">
<title>&#45;5&#45;&gt;7</title>
<path fill="none" stroke="green" stroke-width="0.16" d="M1458.8,-366.62C1449.59,-350.16 1432.01,-312.26 1449.66,-288.25 1481.37,-245.09 1515.61,-273.76 1564.66,-252.25 1565.5,-251.88 1566.36,-251.48 1567.22,-251.07"/>
<polygon fill="green" stroke="green" stroke-width="0.16" points="1569.05,-254.06 1576.22,-246.27 1565.75,-247.89 1569.05,-254.06"/>
</g>
<!-- &#45;5&#45;&gt;8 -->
<g id="edge81" class="edge">
<title>&#45;5&#45;&gt;8</title>
<path fill="none" stroke="red" stroke-width="0.56" d="M1451.29,-374.18C1389.31,-371.55 1114.31,-358.4 1089.66,-330.68 1077.13,-316.59 1078.56,-303.5 1089.66,-288.25 1206.4,-127.76 1899.23,-99.13 2041.23,-94.92"/>
<polygon fill="red" stroke="red" stroke-width="0.56" points="2041.64,-98.41 2051.53,-94.63 2041.44,-91.41 2041.64,-98.41"/>
</g>
<!-- &#45;5&#45;&gt;124 -->
<g id="edge9" class="edge">
<title>&#45;5&#45;&gt;124</title>
<path fill="none" stroke="red" stroke-width="0.24" d="M1475.73,-369.1C1493.12,-360.99 1526.18,-345.31 1553.66,-330.68 1556.36,-329.24 1559.15,-327.7 1561.93,-326.15"/>
<polygon fill="red" stroke="red" stroke-width="0.24" points="1563.67,-329.19 1570.62,-321.19 1560.2,-323.11 1563.67,-329.19"/>
</g>
<!-- &#45;5&#45;&gt;125 -->
<g id="edge10" class="edge">
<title>&#45;5&#45;&gt;125</title>
<path fill="none" stroke="green" stroke-width="0.43" d="M1475.75,-374.06C1553.07,-370.09 1976.74,-347.69 2031.66,-330.68 2034.64,-329.75 2037.65,-328.53 2040.58,-327.16"/>
<polygon fill="green" stroke="green" stroke-width="0.43" points="2042.38,-330.16 2049.56,-322.37 2039.09,-323.99 2042.38,-330.16"/>
</g>
<!-- &#45;6 -->
<g id="node6" class="node">
<title>&#45;6</title>
<polygon fill="lightgray" stroke="black" points="161.66,-384.68 137.66,-384.68 137.66,-366.68 161.66,-366.68 161.66,-384.68"/>
<text text-anchor="middle" x="149.66" y="-373.48" font-family="Times New Roman,serif" font-size="9.00">&#45;6</text>
</g>
<!-- &#45;6&#45;&gt;0 -->
<g id="edge82" class="edge">
<title>&#45;6&#45;&gt;0</title>
<path fill="none" stroke="green" stroke-width="0.1" d="M162.02,-373.66C219.22,-368.93 464,-348.62 664.66,-330.68 866.51,-312.62 916.46,-301.88 1118.66,-288.25 1504.33,-262.26 1601.68,-273.34 1987.66,-252.25 2052.18,-248.72 2128.09,-243.21 2166.56,-240.32"/>
<polygon fill="green" stroke="green" stroke-width="0.1" points="2167.11,-243.79 2176.82,-239.54 2166.58,-236.81 2167.11,-243.79"/>
</g>
<!-- &#45;6&#45;&gt;2 -->
<g id="edge83" class="edge">
<title>&#45;6&#45;&gt;2</title>
<path fill="none" stroke="green" stroke-width="0.42" d="M161.87,-372.94C241.12,-361.71 683.62,-299.37 819.66,-288.25 1277.08,-250.85 1394.14,-288.45 1851.66,-252.25 1881.7,-249.87 1916.08,-245.35 1938.73,-242.12"/>
<polygon fill="green" stroke="green" stroke-width="0.42" points="1939.45,-245.55 1948.84,-240.65 1938.44,-238.63 1939.45,-245.55"/>
</g>
<!-- &#45;6&#45;&gt;3 -->
<g id="edge84" class="edge">
<title>&#45;6&#45;&gt;3</title>
<path fill="none" stroke="red" stroke-width="0.48" stroke-dasharray="1,5" d="M137.48,-374.76C111.1,-374.21 48.82,-368.74 21.66,-330.68 10.7,-315.33 8.58,-301.84 21.66,-288.25 67.38,-240.73 1115.7,-238.44 1291.69,-238.39"/>
<polygon fill="red" stroke="red" stroke-width="0.48" points="1291.79,-241.89 1301.79,-238.39 1291.79,-234.89 1291.79,-241.89"/>
</g>
<!-- &#45;6&#45;&gt;4 -->
<g id="edge85" class="edge">
<title>&#45;6&#45;&gt;4</title>
<path fill="none" stroke="red" stroke-width="0.15" d="M144.44,-366.44C134.32,-349.32 114.77,-309.71 135.66,-288.25 187.52,-234.97 1399.79,-260.81 1473.66,-252.25 1488.04,-250.58 1503.91,-247.36 1516.59,-244.45"/>
<polygon fill="red" stroke="red" stroke-width="0.15" points="1517.48,-247.84 1526.4,-242.11 1515.86,-241.03 1517.48,-247.84"/>
</g>
<!-- &#45;6&#45;&gt;5 -->
<g id="edge86" class="edge">
<title>&#45;6&#45;&gt;5</title>
<path fill="none" stroke="green" stroke-width="0.4" d="M137.64,-372.88C117.39,-369.14 76.97,-358.41 59.66,-330.68 49.67,-314.68 46.51,-301.77 59.66,-288.25 109.29,-237.21 1269.67,-257.74 1340.66,-252.25 1369.62,-250.01 1402.69,-245.53 1424.74,-242.28"/>
<polygon fill="green" stroke="green" stroke-width="0.4" points="1425.53,-245.7 1434.89,-240.74 1424.48,-238.77 1425.53,-245.7"/>
</g>
<!-- &#45;6&#45;&gt;6 -->
<g id="edge87" class="edge">
<title>&#45;6&#45;&gt;6</title>
<path fill="none" stroke="red" stroke-width="0.14" d="M161.83,-374C198.88,-371.63 313.13,-362.09 401.66,-330.68 438.11,-317.74 440.38,-298.58 477.66,-288.25 599.24,-254.54 1486.63,-258.31 1612.66,-252.25 1681.47,-248.94 1762.56,-243.23 1802.63,-240.28"/>
<polygon fill="red" stroke="red" stroke-width="0.14" points="1803.09,-243.75 1812.81,-239.52 1802.58,-236.77 1803.09,-243.75"/>
</g>
<!-- &#45;6&#45;&gt;7 -->
<g id="edge88" class="edge">
<title>&#45;6&#45;&gt;7</title>
<path fill="none" stroke="green" stroke-width="0.18" d="M161.86,-371.66C214.42,-358.8 426.89,-308.35 604.66,-288.25 816.79,-264.26 1359.51,-311.34 1564.66,-252.25 1565.72,-251.94 1566.78,-251.58 1567.84,-251.17"/>
<polygon fill="green" stroke="green" stroke-width="0.18" points="1569.55,-254.23 1576.96,-246.66 1566.45,-247.96 1569.55,-254.23"/>
</g>
<!-- &#45;6&#45;&gt;8 -->
<g id="edge89" class="edge">
<title>&#45;6&#45;&gt;8</title>
<path fill="none" stroke="red" stroke-width="0.29" d="M137.58,-375.2C109.39,-375.68 39.35,-372.4 8.66,-330.68 -2.52,-315.49 -3.15,-302.95 8.66,-288.25 194.18,-57.17 365.69,-181.55 659.66,-144.12 942.01,-108.17 1875.14,-96.38 2041.25,-94.54"/>
<polygon fill="red" stroke="red" stroke-width="0.29" points="2041.51,-98.04 2051.47,-94.43 2041.43,-91.04 2041.51,-98.04"/>
</g>
<!-- &#45;6&#45;&gt;125 -->
<g id="edge11" class="edge">
<title>&#45;6&#45;&gt;125</title>
<path fill="none" stroke="green" stroke-width="0.36" d="M161.75,-374.38C265.21,-371.87 1012.47,-353.43 1618.66,-330.68 1774.8,-324.82 1961.47,-315.72 2034.83,-312.06"/>
<polygon fill="green" stroke="green" stroke-width="0.36" points="2035.4,-315.54 2045.21,-311.55 2035.05,-308.55 2035.4,-315.54"/>
</g>
<!-- &#45;7 -->
<g id="node7" class="node">
<title>&#45;7</title>
<polygon fill="lightgray" stroke="black" points="1719.66,-384.68 1695.66,-384.68 1695.66,-366.68 1719.66,-366.68 1719.66,-384.68"/>
<text text-anchor="middle" x="1707.66" y="-373.48" font-family="Times New Roman,serif" font-size="9.00">&#45;7</text>
</g>
<!-- &#45;7&#45;&gt;0 -->
<g id="edge90" class="edge">
<title>&#45;7&#45;&gt;0</title>
<path fill="none" stroke="red" stroke-width="1.42" d="M1719.84,-374.33C1789.22,-372.27 2132.55,-360.6 2167.66,-330.68 2187.07,-314.13 2191.81,-284.05 2192.5,-262.74"/>
<polygon fill="red" stroke="red" stroke-width="1.42" points="2196,-262.53 2192.55,-252.52 2189,-262.5 2196,-262.53"/>
</g>
<!-- &#45;7&#45;&gt;1 -->
<g id="edge91" class="edge">
<title>&#45;7&#45;&gt;1</title>
<path fill="none" stroke="red" stroke-width="0.18" d="M1719.87,-374.11C1789.68,-370.79 2138.69,-353.29 2243.66,-330.68 2298.55,-318.85 2308.4,-302.7 2362.66,-288.25 2454.4,-263.82 2566.45,-247.76 2615.13,-241.43"/>
<polygon fill="red" stroke="red" stroke-width="0.18" points="2615.58,-244.91 2625.05,-240.17 2614.69,-237.96 2615.58,-244.91"/>
</g>
<!-- &#45;7&#45;&gt;2 -->
<g id="edge92" class="edge">
<title>&#45;7&#45;&gt;2</title>
<path fill="none" stroke="red" stroke-width="0.35" d="M1719.66,-368.29C1759.78,-346.93 1889.6,-277.82 1941.71,-250.08"/>
<polygon fill="red" stroke="red" stroke-width="0.35" points="1943.59,-253.05 1950.77,-245.26 1940.3,-246.87 1943.59,-253.05"/>
</g>
<!-- &#45;7&#45;&gt;3 -->
<g id="edge93" class="edge">
<title>&#45;7&#45;&gt;3</title>
<path fill="none" stroke="red" stroke-width="0.15" d="M1695.36,-373.74C1660.43,-370.77 1558.03,-359.99 1478.66,-330.68 1423.9,-310.45 1365.89,-272.93 1336.39,-252.52"/>
<polygon fill="red" stroke="red" stroke-width="0.15" points="1338.39,-249.64 1328.19,-246.77 1334.37,-255.37 1338.39,-249.64"/>
</g>
<!-- &#45;7&#45;&gt;4 -->
<g id="edge94" class="edge">
<title>&#45;7&#45;&gt;4</title>
<path fill="none" stroke="green" stroke-width="0.14" stroke-dasharray="1,5" d="M1695.39,-373.12C1661.33,-368.54 1566.8,-353.91 1547.66,-330.68 1532.07,-311.76 1532.58,-282.61 1535.53,-262.15"/>
<polygon fill="green" stroke="green" stroke-width="0.14" points="1539.02,-262.52 1537.28,-252.07 1532.12,-261.32 1539.02,-262.52"/>
</g>
<!-- &#45;7&#45;&gt;5 -->
<g id="edge95" class="edge">
<title>&#45;7&#45;&gt;5</title>
<path fill="none" stroke="red" stroke-width="0.38" d="M1695.46,-374.16C1665.19,-372.39 1585.04,-364.59 1529.66,-330.68 1500.36,-312.74 1476.1,-280.54 1462.24,-259.32"/>
<polygon fill="red" stroke="red" stroke-width="0.38" points="1465.09,-257.28 1456.79,-250.71 1459.18,-261.03 1465.09,-257.28"/>
</g>
<!-- &#45;7&#45;&gt;6 -->
<g id="edge96" class="edge">
<title>&#45;7&#45;&gt;6</title>
<path fill="none" stroke="red" stroke-width="0.32" d="M1714.8,-366.56C1733.62,-345.19 1784.9,-286.96 1811.37,-256.9"/>
<polygon fill="red" stroke="red" stroke-width="0.32" points="1814.14,-259.04 1818.13,-249.22 1808.89,-254.41 1814.14,-259.04"/>
</g>
<!-- &#45;7&#45;&gt;7 -->
<g id="edge97" class="edge">
<title>&#45;7&#45;&gt;7</title>
<path fill="none" stroke="red" stroke-width="0.27" d="M1695.36,-375.44C1665.92,-376.5 1591.43,-374.53 1558.66,-330.68 1542.14,-308.58 1559.03,-276.99 1573.35,-257.1"/>
<polygon fill="red" stroke="red" stroke-width="0.27" points="1576.16,-259.19 1579.42,-249.1 1570.58,-254.95 1576.16,-259.19"/>
</g>
<!-- &#45;7&#45;&gt;124 -->
<g id="edge12" class="edge">
<title>&#45;7&#45;&gt;124</title>
<path fill="none" stroke="green" stroke-width="0.15" d="M1695.37,-368.05C1676.83,-358.04 1641.24,-338.84 1616.27,-325.37"/>
<polygon fill="green" stroke="green" stroke-width="0.15" points="1617.74,-322.18 1607.28,-320.51 1614.42,-328.34 1617.74,-322.18"/>
</g>
<!-- &#45;7&#45;&gt;125 -->
<g id="edge13" class="edge">
<title>&#45;7&#45;&gt;125</title>
<path fill="none" stroke="red" stroke-width="0.5" d="M1719.81,-374.7C1763.34,-374.43 1915.09,-370.52 2031.66,-330.68 2034.61,-329.66 2037.6,-328.39 2040.52,-326.98"/>
<polygon fill="red" stroke="red" stroke-width="0.5" points="2042.35,-329.98 2049.49,-322.15 2039.03,-323.81 2042.35,-329.98"/>
</g>
<!-- &#45;8 -->
<g id="node8" class="node">
<title>&#45;8</title>
<polygon fill="lightgray" stroke="black" points="3463.66,-384.68 3439.66,-384.68 3439.66,-366.68 3463.66,-366.68 3463.66,-384.68"/>
<text text-anchor="middle" x="3451.66" y="-373.48" font-family="Times New Roman,serif" font-size="9.00">&#45;8</text>
</g>
<!-- &#45;8&#45;&gt;0 -->
<g id="edge98" class="edge">
<title>&#45;8&#45;&gt;0</title>
<path fill="none" stroke="red" stroke-width="0.41" d="M3463.81,-368.53C3476.45,-361.38 3495.5,-348.27 3503.66,-330.68 3511.59,-313.57 3516.73,-301.83 3503.66,-288.25 3497.86,-282.22 2398.69,-245.31 2216.96,-239.24"/>
<polygon fill="red" stroke="red" stroke-width="0.41" points="2216.88,-235.74 2206.77,-238.9 2216.65,-242.73 2216.88,-235.74"/>
</g>
<!-- &#45;8&#45;&gt;1 -->
<g id="edge99" class="edge">
<title>&#45;8&#45;&gt;1</title>
<path fill="none" stroke="red" stroke-width="0.22" d="M3439.55,-367.47C3409.91,-350.25 3330.85,-306.74 3258.66,-288.25 3143.26,-258.7 2765.9,-243.02 2664.78,-239.29"/>
<polygon fill="red" stroke="red" stroke-width="0.22" points="2664.72,-235.78 2654.6,-238.92 2664.46,-242.78 2664.72,-235.78"/>
</g>
<!-- &#45;8&#45;&gt;2 -->
<g id="edge100" class="edge">
<title>&#45;8&#45;&gt;2</title>
<path fill="none" stroke="green" stroke-width="0.14" stroke-dasharray="1,5" d="M3456.87,-366.44C3466.99,-349.32 3486.53,-309.72 3465.66,-288.25 3440.51,-262.39 2203.68,-253.97 2167.66,-252.25 2103.11,-249.17 2027.21,-243.46 1988.74,-240.43"/>
<polygon fill="green" stroke="green" stroke-width="0.14" points="1988.74,-236.92 1978.49,-239.61 1988.18,-243.89 1988.74,-236.92"/>
</g>
<!-- &#45;8&#45;&gt;3 -->
<g id="edge101" class="edge">
<title>&#45;8&#45;&gt;3</title>
<path fill="none" stroke="red" stroke-width="0.45" d="M3439.58,-373.45C3340.15,-363.34 2658.03,-294.15 2566.66,-288.25 2060.35,-255.58 1931.44,-292.27 1425.66,-252.25 1396.7,-249.96 1363.63,-245.49 1341.58,-242.25"/>
<polygon fill="red" stroke="red" stroke-width="0.45" points="1341.83,-238.75 1331.42,-240.73 1340.79,-245.67 1341.83,-238.75"/>
</g>
<!-- &#45;8&#45;&gt;4 -->
<g id="edge102" class="edge">
<title>&#45;8&#45;&gt;4</title>
<path fill="none" stroke="green" stroke-width="0.12" d="M3439.49,-373.81C3397.84,-370.67 3257.3,-358.53 3144.66,-330.68 3090.15,-317.2 3080.86,-298.5 3025.66,-288.25 2706.35,-228.97 1877.31,-340.13 1564.66,-252.25 1563.59,-251.95 1562.52,-251.59 1561.46,-251.19"/>
<polygon fill="green" stroke="green" stroke-width="0.12" points="1562.86,-247.98 1552.34,-246.7 1559.76,-254.25 1562.86,-247.98"/>
</g>
<!-- &#45;8&#45;&gt;6 -->
<g id="edge103" class="edge">
<title>&#45;8&#45;&gt;6</title>
<path fill="none" stroke="red" stroke-width="0.34" d="M3452.25,-366.56C3453.04,-348.96 3452.1,-307.3 3427.66,-288.25 3362.44,-237.42 2022.12,-258.33 1939.66,-252.25 1909.6,-250.03 1875.22,-245.48 1852.57,-242.2"/>
<polygon fill="red" stroke="red" stroke-width="0.34" points="1852.87,-238.7 1842.47,-240.71 1851.85,-245.63 1852.87,-238.7"/>
</g>
<!-- &#45;8&#45;&gt;7 -->
<g id="edge104" class="edge">
<title>&#45;8&#45;&gt;7</title>
<path fill="none" stroke="red" stroke-width="0.23" stroke-dasharray="1,5" d="M3439.43,-368.85C3404.09,-352.36 3298.28,-305.4 3204.66,-288.25 2898.32,-232.14 2114.78,-266.26 1803.66,-252.25 1734.83,-249.15 1653.75,-243.34 1613.67,-240.33"/>
<polygon fill="red" stroke="red" stroke-width="0.23" points="1613.74,-236.82 1603.5,-239.56 1613.21,-243.8 1613.74,-236.82"/>
</g>
<!-- &#45;8&#45;&gt;8 -->
<g id="edge105" class="edge">
<title>&#45;8&#45;&gt;8</title>
<path fill="none" stroke="green" stroke-width="0.29" stroke-dasharray="1,5" d="M3455.15,-366.5C3468.7,-333.35 3514.07,-207.79 3452.66,-144.12 3403.51,-93.18 2274.79,-93.77 2091.66,-94.2"/>
<polygon fill="green" stroke="green" stroke-width="0.29" points="2091.62,-90.7 2081.63,-94.23 2091.64,-97.7 2091.62,-90.7"/>
</g>
<!-- &#45;8&#45;&gt;125 -->
<g id="edge14" class="edge">
<title>&#45;8&#45;&gt;125</title>
<path fill="none" stroke="green" stroke-width="1.54" d="M3439.56,-374.32C3352,-371.68 2806.19,-354.78 2362.66,-330.68 2266.18,-325.43 2152.17,-317.02 2098.11,-312.9"/>
<polygon fill="green" stroke="green" stroke-width="1.54" points="2098.06,-309.39 2087.82,-312.11 2097.52,-316.36 2098.06,-309.39"/>
</g>
<!-- &#45;9 -->
<g id="node9" class="node">
<title>&#45;9</title>
<polygon fill="lightgray" stroke="black" points="2814.66,-384.68 2790.66,-384.68 2790.66,-366.68 2814.66,-366.68 2814.66,-384.68"/>
<text text-anchor="middle" x="2802.66" y="-373.48" font-family="Times New Roman,serif" font-size="9.00">&#45;9</text>
</g>
<!-- &#45;9&#45;&gt;0 -->
<g id="edge106" class="edge">
<title>&#45;9&#45;&gt;0</title>
<path fill="none" stroke="green" stroke-width="0.46" stroke-dasharray="1,5" d="M2810.77,-366.47C2826.34,-349.74 2857.04,-311.35 2835.66,-288.25 2814.23,-265.1 2333.03,-244.14 2216.77,-239.4"/>
<polygon fill="green" stroke="green" stroke-width="0.46" points="2216.82,-235.9 2206.68,-238.99 2216.54,-242.89 2216.82,-235.9"/>
</g>
<!-- &#45;9&#45;&gt;1 -->
<g id="edge107" class="edge">
<title>&#45;9&#45;&gt;1</title>
<path fill="none" stroke="red" stroke-width="0.67" d="M2814.75,-374.35C2880.65,-372.46 3194.57,-361.86 3222.66,-330.68 3235.28,-316.67 3235.41,-302.14 3222.66,-288.25 3184.42,-246.6 2771.8,-239.69 2664.85,-238.6"/>
<polygon fill="red" stroke="red" stroke-width="0.67" points="2664.71,-235.1 2654.68,-238.5 2664.65,-242.1 2664.71,-235.1"/>
</g>
<!-- &#45;9&#45;&gt;2 -->
<g id="edge108" class="edge">
<title>&#45;9&#45;&gt;2</title>
<path fill="none" stroke="green" stroke-width="0.28" d="M2805.24,-366.62C2810.19,-349.48 2818.71,-309.28 2797.66,-288.25 2748.06,-238.69 2237.63,-256.62 2167.66,-252.25 2103.16,-248.22 2027.24,-242.92 1988.75,-240.19"/>
<polygon fill="green" stroke="green" stroke-width="0.28" points="1988.72,-236.68 1978.5,-239.46 1988.23,-243.66 1988.72,-236.68"/>
</g>
<!-- &#45;9&#45;&gt;3 -->
<g id="edge109" class="edge">
<title>&#45;9&#45;&gt;3</title>
<path fill="none" stroke="red" stroke-width="0.92" stroke-dasharray="1,5" d="M2790.44,-370.68C2745.85,-356.29 2587.48,-307.05 2452.66,-288.25 2000.31,-225.17 1880.89,-289.07 1425.66,-252.25 1396.7,-249.91 1363.63,-245.45 1341.58,-242.23"/>
<polygon fill="red" stroke="red" stroke-width="0.92" points="1341.83,-238.72 1331.42,-240.71 1340.8,-245.65 1341.83,-238.72"/>
</g>
<!-- &#45;9&#45;&gt;4 -->
<g id="edge110" class="edge">
<title>&#45;9&#45;&gt;4</title>
<path fill="none" stroke="green" stroke-width="0.27" stroke-dasharray="1,5" d="M2794.62,-366.67C2785.9,-357.93 2771.62,-343.47 2759.66,-330.68 2742.36,-312.19 2744.6,-298.93 2721.66,-288.25 2605.06,-233.96 1688.36,-287.45 1564.66,-252.25 1563.59,-251.95 1562.52,-251.59 1561.46,-251.18"/>
<polygon fill="green" stroke="green" stroke-width="0.27" points="1562.86,-247.97 1552.34,-246.68 1559.76,-254.24 1562.86,-247.97"/>
</g>
<!-- &#45;9&#45;&gt;7 -->
<g id="edge111" class="edge">
<title>&#45;9&#45;&gt;7</title>
<path fill="none" stroke="red" stroke-width="0.49" d="M2801.38,-366.42C2798.12,-348.53 2787.67,-306.34 2759.66,-288.25 2715.01,-259.42 1856.74,-254.96 1803.66,-252.25 1734.85,-248.74 1653.76,-243.11 1613.68,-240.23"/>
<polygon fill="red" stroke="red" stroke-width="0.49" points="1613.73,-236.72 1603.51,-239.49 1613.23,-243.71 1613.73,-236.72"/>
</g>
<!-- &#45;9&#45;&gt;8 -->
<g id="edge112" class="edge">
<title>&#45;9&#45;&gt;8</title>
<path fill="none" stroke="red" stroke-width="0.66" d="M2815.04,-374.06C2877.43,-370.86 3157.49,-355.33 3240.66,-330.68 3345.94,-299.46 3478.84,-223.21 3402.66,-144.12 3355.39,-95.06 2270.63,-94.06 2091.58,-94.24"/>
<polygon fill="red" stroke="red" stroke-width="0.66" points="2091.53,-90.74 2081.54,-94.25 2091.54,-97.74 2091.53,-90.74"/>
</g>
<!-- &#45;9&#45;&gt;125 -->
<g id="edge15" class="edge">
<title>&#45;9&#45;&gt;125</title>
<path fill="none" stroke="green" stroke-width="0.4" d="M2790.5,-373.62C2707.68,-366.39 2226.1,-324.37 2097.97,-313.19"/>
<polygon fill="green" stroke="green" stroke-width="0.4" points="2097.95,-309.68 2087.68,-312.3 2097.34,-316.65 2097.95,-309.68"/>
</g>
<!-- &#45;10 -->
<g id="node10" class="node">
<title>&#45;10</title>
<polygon fill="lightgray" stroke="black" points="1981.16,-384.68 1952.16,-384.68 1952.16,-366.68 1981.16,-366.68 1981.16,-384.68"/>
<text text-anchor="middle" x="1966.66" y="-373.48" font-family="Times New Roman,serif" font-size="9.00">&#45;10</text>
</g>
<!-- &#45;10&#45;&gt;0 -->
<g id="edge113" class="edge">
<title>&#45;10&#45;&gt;0</title>
<path fill="none" stroke="red" stroke-width="0.23" d="M1981.28,-373.16C2009.27,-369.69 2071.44,-359.12 2114.66,-330.68 2142.74,-312.19 2165.98,-280.41 2179.34,-259.4"/>
<polygon fill="red" stroke="red" stroke-width="0.23" points="2182.34,-261.21 2184.61,-250.86 2176.38,-257.53 2182.34,-261.21"/>
</g>
<!-- &#45;10&#45;&gt;1 -->
<g id="edge114" class="edge">
<title>&#45;10&#45;&gt;1</title>
<path fill="none" stroke="green" stroke-width="0.2" d="M1981.5,-374.87C2039.17,-375.3 2253.47,-373.72 2422.66,-330.68 2497.32,-311.68 2579.47,-270.75 2617.76,-250.4"/>
<polygon fill="green" stroke="green" stroke-width="0.2" points="2619.78,-253.28 2626.93,-245.46 2616.47,-247.12 2619.78,-253.28"/>
</g>
<!-- &#45;10&#45;&gt;2 -->
<g id="edge115" class="edge">
<title>&#45;10&#45;&gt;2</title>
<path fill="none" stroke="green" stroke-width="0.19" d="M1981.53,-374.78C2009.58,-374.08 2069.85,-368.04 2096.66,-330.68 2107.65,-315.35 2107.4,-303.75 2096.66,-288.25 2072.28,-253.08 2019.83,-242.68 1988.58,-239.64"/>
<polygon fill="green" stroke="green" stroke-width="0.19" points="1988.73,-236.14 1978.49,-238.84 1988.18,-243.12 1988.73,-236.14"/>
</g>
<!-- &#45;10&#45;&gt;3 -->
<g id="edge116" class="edge">
<title>&#45;10&#45;&gt;3</title>
<path fill="none" stroke="red" stroke-width="0.35" d="M1952.05,-374.29C1910,-372.78 1785.55,-365.47 1689.66,-330.68 1655.1,-318.14 1653.17,-300.89 1618.66,-288.25 1592.66,-278.73 1408.86,-251.67 1341.4,-241.94"/>
<polygon fill="red" stroke="red" stroke-width="0.35" points="1341.66,-238.44 1331.26,-240.48 1340.66,-245.37 1341.66,-238.44"/>
</g>
<!-- &#45;10&#45;&gt;4 -->
<g id="edge117" class="edge">
<title>&#45;10&#45;&gt;4</title>
<path fill="none" stroke="green" stroke-width="0.12" d="M1951.92,-374.48C1917.1,-373.41 1827.99,-367.03 1765.66,-330.68 1743.79,-317.92 1749.51,-301.02 1727.66,-288.25 1663.6,-250.82 1633.82,-279.1 1564.66,-252.25 1563.79,-251.91 1562.92,-251.55 1562.05,-251.17"/>
<polygon fill="green" stroke="green" stroke-width="0.12" points="1563.49,-247.97 1553,-246.49 1560.28,-254.19 1563.49,-247.97"/>
</g>
<!-- &#45;10&#45;&gt;5 -->
<g id="edge118" class="edge">
<title>&#45;10&#45;&gt;5</title>
<path fill="none" stroke="green" stroke-width="0.31" d="M1952.11,-375.15C1913.08,-375.8 1803.82,-373.4 1727.66,-330.68 1705.58,-318.29 1711.59,-300.88 1689.66,-288.25 1689.06,-287.91 1535.25,-256.09 1474.2,-243.47"/>
<polygon fill="green" stroke="green" stroke-width="0.31" points="1474.77,-240.02 1464.27,-241.42 1473.35,-246.87 1474.77,-240.02"/>
</g>
<!-- &#45;10&#45;&gt;6 -->
<g id="edge119" class="edge">
<title>&#45;10&#45;&gt;6</title>
<path fill="none" stroke="green" stroke-width="0.63" d="M1958.38,-366.56C1936.27,-344.89 1875.5,-285.3 1845.24,-255.64"/>
<polygon fill="green" stroke="green" stroke-width="0.63" points="1847.5,-252.96 1837.91,-248.46 1842.6,-257.96 1847.5,-252.96"/>
</g>
<!-- &#45;10&#45;&gt;7 -->
<g id="edge120" class="edge">
<title>&#45;10&#45;&gt;7</title>
<path fill="none" stroke="red" stroke-width="0.28" d="M1952.04,-367.6C1919.26,-351.9 1837.09,-313.54 1765.66,-288.25 1712.16,-269.31 1647.61,-252.64 1613.16,-244.22"/>
<polygon fill="red" stroke="red" stroke-width="0.28" points="1613.62,-240.73 1603.08,-241.78 1611.98,-247.53 1613.62,-240.73"/>
</g>
<!-- &#45;10&#45;&gt;8 -->
<g id="edge121" class="edge">
<title>&#45;10&#45;&gt;8</title>
<path fill="none" stroke="green" stroke-width="0.33" d="M1981.58,-374.43C2120.44,-372.13 3182.32,-353.82 3204.66,-330.68 3369.19,-160.19 2274.27,-103.56 2092.08,-95.36"/>
<polygon fill="green" stroke="green" stroke-width="0.33" points="2092.01,-91.85 2081.86,-94.91 2091.7,-98.85 2092.01,-91.85"/>
</g>
<!-- 188 -->
<g id="node24" class="node">
<title>188</title>
<ellipse fill="white" stroke="black" cx="2392.66" cy="-309.46" rx="21.43" ry="21.43"/>
<text text-anchor="middle" x="2392.66" y="-307.26" font-family="Times New Roman,serif" font-size="9.00">188</text>
</g>
<!-- &#45;10&#45;&gt;188 -->
<g id="edge138" class="edge">
<title>&#45;10&#45;&gt;188</title>
<path fill="none" stroke="green" stroke-width="0.28" d="M1981.31,-375.15C2033.81,-376.41 2216.85,-377.01 2357.66,-330.68 2360.63,-329.7 2363.62,-328.45 2366.55,-327.05"/>
<polygon fill="green" stroke="green" stroke-width="0.28" points="2368.36,-330.05 2375.52,-322.24 2365.05,-323.88 2368.36,-330.05"/>
</g>
<!-- &#45;10&#45;&gt;124 -->
<g id="edge16" class="edge">
<title>&#45;10&#45;&gt;124</title>
<path fill="none" stroke="red" stroke-width="0.22" d="M1951.94,-373.22C1907.69,-368.71 1772.14,-353.84 1661.66,-330.68 1647.34,-327.67 1631.68,-323.46 1618.54,-319.66"/>
<polygon fill="red" stroke="red" stroke-width="0.22" points="1619.21,-316.21 1608.63,-316.73 1617.23,-322.92 1619.21,-316.21"/>
</g>
<!-- &#45;10&#45;&gt;125 -->
<g id="edge17" class="edge">
<title>&#45;10&#45;&gt;125</title>
<path fill="none" stroke="red" stroke-width="0.4" d="M1979.32,-366.54C1994.63,-356.71 2020.8,-339.91 2040.51,-327.25"/>
<polygon fill="red" stroke="red" stroke-width="0.4" points="2042.53,-330.12 2049.05,-321.77 2038.75,-324.23 2042.53,-330.12"/>
</g>
<!-- &#45;11 -->
<g id="node11" class="node">
<title>&#45;11</title>
<polygon fill="lightgray" stroke="black" points="3580.16,-384.68 3551.16,-384.68 3551.16,-366.68 3580.16,-366.68 3580.16,-384.68"/>
<text text-anchor="middle" x="3565.66" y="-373.48" font-family="Times New Roman,serif" font-size="9.00">&#45;11</text>
</g>
<!-- &#45;11&#45;&gt;0 -->
<g id="edge122" class="edge">
<title>&#45;11&#45;&gt;0</title>
<path fill="none" stroke="green" stroke-width="0.35" d="M3580.19,-367.16C3592.73,-359.76 3609.99,-347.2 3617.66,-330.68 3625.59,-313.57 3630.75,-301.81 3617.66,-288.25 3614.49,-284.97 2407.29,-245.44 2216.82,-239.22"/>
<polygon fill="green" stroke="green" stroke-width="0.35" points="2216.78,-235.72 2206.67,-238.89 2216.55,-242.71 2216.78,-235.72"/>
</g>
<!-- &#45;11&#45;&gt;1 -->
<g id="edge123" class="edge">
<title>&#45;11&#45;&gt;1</title>
<path fill="none" stroke="red" stroke-width="0.46" d="M3550.91,-367.75C3513.96,-350.75 3414.03,-307 3325.66,-288.25 3195.49,-260.63 2772.06,-243.32 2664.62,-239.3"/>
<polygon fill="red" stroke="red" stroke-width="0.46" points="2664.55,-235.8 2654.43,-238.93 2664.29,-242.79 2664.55,-235.8"/>
</g>
<!-- &#45;11&#45;&gt;2 -->
<g id="edge124" class="edge">
<title>&#45;11&#45;&gt;2</title>
<path fill="none" stroke="green" stroke-width="0.31" d="M3566.25,-366.57C3567.03,-348.97 3566.08,-307.32 3541.66,-288.25 3481.48,-241.25 2243.93,-255.84 2167.66,-252.25 2103.11,-249.21 2027.21,-243.49 1988.74,-240.44"/>
<polygon fill="green" stroke="green" stroke-width="0.31" points="1988.74,-236.93 1978.49,-239.62 1988.18,-243.91 1988.74,-236.93"/>
</g>
<!-- &#45;11&#45;&gt;4 -->
<g id="edge125" class="edge">
<title>&#45;11&#45;&gt;4</title>
<path fill="none" stroke="red" stroke-width="0.31" d="M3551.15,-369.5C3528.95,-361.51 3485.25,-345.55 3448.66,-330.68 3405.06,-312.96 3397.61,-298.35 3351.66,-288.25 3157.68,-245.64 1755.96,-305.56 1564.66,-252.25 1563.59,-251.95 1562.52,-251.6 1561.46,-251.2"/>
<polygon fill="red" stroke="red" stroke-width="0.31" points="1562.85,-247.98 1552.34,-246.71 1559.76,-254.26 1562.85,-247.98"/>
</g>
<!-- &#45;11&#45;&gt;5 -->
<g id="edge126" class="edge">
<title>&#45;11&#45;&gt;5</title>
<path fill="none" stroke="green" stroke-width="0.62" d="M3551.04,-372.08C3516.28,-365.81 3426.04,-349.03 3351.66,-330.68 3285.64,-314.39 3271.88,-298.49 3204.66,-288.25 2833.74,-231.75 1889.48,-294.4 1516.66,-252.25 1502.27,-250.62 1486.4,-247.41 1473.71,-244.48"/>
<polygon fill="green" stroke="green" stroke-width="0.62" points="1474.45,-241.06 1463.91,-242.14 1472.82,-247.87 1474.45,-241.06"/>
</g>
<!-- &#45;11&#45;&gt;6 -->
<g id="edge127" class="edge">
<title>&#45;11&#45;&gt;6</title>
<path fill="none" stroke="red" stroke-width="0.76" d="M3558.49,-366.43C3542.01,-348.17 3499.25,-304.65 3452.66,-288.25 3294.03,-232.43 2107.36,-264.58 1939.66,-252.25 1909.6,-250.04 1875.22,-245.48 1852.57,-242.2"/>
<polygon fill="red" stroke="red" stroke-width="0.76" points="1852.87,-238.71 1842.47,-240.71 1851.85,-245.63 1852.87,-238.71"/>
</g>
<!-- &#45;11&#45;&gt;8 -->
<g id="edge128" class="edge">
<title>&#45;11&#45;&gt;8</title>
<path fill="none" stroke="green" stroke-width="0.24" d="M3565.51,-366.48C3564.38,-332.2 3555.02,-199.45 3477.66,-144.12 3419.04,-102.21 2277.15,-95.24 2091.94,-94.38"/>
<polygon fill="green" stroke="green" stroke-width="0.24" points="2091.82,-90.88 2081.8,-94.33 2091.79,-97.88 2091.82,-90.88"/>
</g>
<!-- 323 -->
<g id="node23" class="node">
<title>323</title>
<ellipse fill="white" stroke="black" cx="3348.66" cy="-165.34" rx="21.43" ry="21.43"/>
<text text-anchor="middle" x="3348.66" y="-163.14" font-family="Times New Roman,serif" font-size="9.00">323</text>
</g>
<!-- &#45;11&#45;&gt;323 -->
<g id="edge143" class="edge">
<title>&#45;11&#45;&gt;323</title>
<path fill="none" stroke="green" stroke-width="0.12" d="M3557.15,-366.51C3526.05,-336.65 3417.87,-232.79 3370.81,-187.61"/>
<polygon fill="green" stroke="green" stroke-width="0.12" points="3373.18,-185.03 3363.54,-180.63 3368.33,-190.08 3373.18,-185.03"/>
</g>
<!-- &#45;11&#45;&gt;124 -->
<g id="edge18" class="edge">
<title>&#45;11&#45;&gt;124</title>
<path fill="none" stroke="green" stroke-width="0.7" stroke-dasharray="1,5" d="M3550.86,-373.12C3532.52,-371.27 3500.32,-368.21 3472.66,-366.68 2835.21,-331.3 2674.69,-353.07 2036.66,-330.68 1880.5,-325.2 1693.84,-315.89 1620.48,-312.12"/>
<polygon fill="green" stroke="green" stroke-width="0.7" points="1620.27,-308.6 1610.1,-311.58 1619.91,-315.59 1620.27,-308.6"/>
</g>
<!-- &#45;11&#45;&gt;125 -->
<g id="edge19" class="edge">
<title>&#45;11&#45;&gt;125</title>
<path fill="none" stroke="green" stroke-width="0.29" d="M3550.86,-373.16C3532.52,-371.33 3500.32,-368.31 3472.66,-366.68 2979.93,-337.51 2855.62,-355.49 2362.66,-330.68 2266.16,-325.82 2152.16,-317.23 2098.11,-312.98"/>
<polygon fill="green" stroke="green" stroke-width="0.29" points="2098.06,-309.47 2087.82,-312.17 2097.51,-316.45 2098.06,-309.47"/>
</g>
<!-- &#45;12 -->
<g id="node12" class="node">
<title>&#45;12</title>
<polygon fill="lightgray" stroke="black" points="3121.16,-384.68 3092.16,-384.68 3092.16,-366.68 3121.16,-366.68 3121.16,-384.68"/>
<text text-anchor="middle" x="3106.66" y="-373.48" font-family="Times New Roman,serif" font-size="9.00">&#45;12</text>
</g>
<!-- &#45;12&#45;&gt;0 -->
<g id="edge129" class="edge">
<title>&#45;12&#45;&gt;0</title>
<path fill="none" stroke="red" stroke-width="0.2" d="M3121.49,-372.97C3144,-369.5 3186.11,-359.33 3204.66,-330.68 3214.9,-314.85 3217.66,-301.91 3204.66,-288.25 3187.07,-269.78 2371.49,-243.91 2216.83,-239.16"/>
<polygon fill="red" stroke="red" stroke-width="0.2" points="2216.58,-235.65 2206.48,-238.85 2216.37,-242.65 2216.58,-235.65"/>
</g>
<!-- &#45;12&#45;&gt;1 -->
<g id="edge130" class="edge">
<title>&#45;12&#45;&gt;1</title>
<path fill="none" stroke="green" stroke-width="0.4" d="M3121.53,-374.95C3150.21,-374.58 3212.79,-369.15 3240.66,-330.68 3251.72,-315.4 3253.43,-302.12 3240.66,-288.25 3201.07,-245.24 2773.16,-239.33 2664.59,-238.53"/>
<polygon fill="green" stroke="green" stroke-width="0.4" points="2664.58,-235.03 2654.56,-238.46 2664.54,-242.03 2664.58,-235.03"/>
</g>
<!-- &#45;12&#45;&gt;2 -->
<g id="edge131" class="edge">
<title>&#45;12&#45;&gt;2</title>
<path fill="none" stroke="green" stroke-width="0.25" d="M3109.27,-366.59C3114.27,-349.39 3122.9,-309.09 3101.66,-288.25 3064.59,-251.89 2219.51,-255.01 2167.66,-252.25 2103.13,-248.82 2027.22,-243.26 1988.75,-240.34"/>
<polygon fill="green" stroke="green" stroke-width="0.25" points="1988.73,-236.83 1978.49,-239.56 1988.2,-243.81 1988.73,-236.83"/>
</g>
<!-- &#45;12&#45;&gt;4 -->
<g id="edge132" class="edge">
<title>&#45;12&#45;&gt;4</title>
<path fill="none" stroke="red" stroke-width="1.09" d="M3093.12,-366.42C3062.28,-348.13 2983.9,-304.55 2911.66,-288.25 2619.56,-222.33 1852.84,-333.58 1564.66,-252.25 1563.59,-251.95 1562.52,-251.59 1561.46,-251.19"/>
<polygon fill="red" stroke="red" stroke-width="1.09" points="1562.86,-247.97 1552.34,-246.69 1559.76,-254.25 1562.86,-247.97"/>
</g>
<!-- &#45;12&#45;&gt;5 -->
<g id="edge133" class="edge">
<title>&#45;12&#45;&gt;5</title>
<path fill="none" stroke="red" stroke-width="0.16" d="M3092.14,-371.67C3029.61,-358.86 2776.92,-308.6 2566.66,-288.25 2101.89,-243.27 1980.29,-307.71 1516.66,-252.25 1502.28,-250.53 1486.41,-247.31 1473.72,-244.41"/>
<polygon fill="red" stroke="red" stroke-width="0.16" points="1474.45,-240.98 1463.92,-242.08 1472.84,-247.79 1474.45,-240.98"/>
</g>
<!-- &#45;12&#45;&gt;7 -->
<g id="edge134" class="edge">
<title>&#45;12&#45;&gt;7</title>
<path fill="none" stroke="green" stroke-width="0.27" d="M3099,-366.45C3081.43,-348.22 3035.98,-304.76 2987.66,-288.25 2863.11,-245.69 1935.12,-258.48 1803.66,-252.25 1734.84,-248.99 1653.76,-243.25 1613.68,-240.29"/>
<polygon fill="green" stroke="green" stroke-width="0.27" points="1613.74,-236.78 1603.5,-239.53 1613.22,-243.76 1613.74,-236.78"/>
</g>
<!-- &#45;12&#45;&gt;8 -->
<g id="edge135" class="edge">
<title>&#45;12&#45;&gt;8</title>
<path fill="none" stroke="green" stroke-width="0.11" d="M3121.58,-373.28C3155.28,-369.73 3239.35,-358.56 3303.66,-330.68 3395,-291.07 3496.75,-215.8 3427.66,-144.12 3379.49,-94.16 2274.45,-93.92 2092.04,-94.22"/>
<polygon fill="green" stroke="green" stroke-width="0.11" points="2091.81,-90.72 2081.82,-94.24 2091.82,-97.72 2091.81,-90.72"/>
</g>
<!-- 251 -->
<g id="node26" class="node">
<title>251</title>
<ellipse fill="white" stroke="black" cx="3174.66" cy="-309.46" rx="21.43" ry="21.43"/>
<text text-anchor="middle" x="3174.66" y="-307.26" font-family="Times New Roman,serif" font-size="9.00">251</text>
</g>
<!-- &#45;12&#45;&gt;251 -->
<g id="edge140" class="edge">
<title>&#45;12&#45;&gt;251</title>
<path fill="none" stroke="green" stroke-width="0.15" d="M3115.27,-366.54C3124.5,-357.82 3139.54,-343.62 3152.17,-331.69"/>
<polygon fill="green" stroke="green" stroke-width="0.15" points="3154.79,-334.04 3159.65,-324.63 3149.98,-328.95 3154.79,-334.04"/>
</g>
<!-- &#45;12&#45;&gt;124 -->
<g id="edge20" class="edge">
<title>&#45;12&#45;&gt;124</title>
<path fill="none" stroke="green" stroke-width="0.4" d="M3091.88,-374.09C2997.38,-370.34 2468.06,-349.28 2036.66,-330.68 1880.54,-323.94 1693.86,-315.34 1620.49,-311.94"/>
<polygon fill="green" stroke="green" stroke-width="0.4" points="1620.26,-308.43 1610.1,-311.46 1619.93,-315.42 1620.26,-308.43"/>
</g>
<!-- &#45;12&#45;&gt;125 -->
<g id="edge21" class="edge">
<title>&#45;12&#45;&gt;125</title>
<path fill="none" stroke="green" stroke-width="0.4" stroke-dasharray="1,5" d="M3091.97,-373.86C3015.63,-369.59 2656.43,-349.39 2362.66,-330.68 2266.23,-324.53 2152.2,-316.54 2098.12,-312.71"/>
<polygon fill="green" stroke="green" stroke-width="0.4" points="2098.05,-309.19 2087.83,-311.98 2097.55,-316.17 2098.05,-309.19"/>
</g>
<!-- 6&#45;&gt;323 -->
<g id="edge145" class="edge">
<title>6&#45;&gt;323</title>
<path fill="none" stroke="red" stroke-width="0.39" d="M1842.47,-234.17C1863.87,-231.04 1904.7,-225.4 1939.66,-222.55 2490.09,-177.62 3164.54,-168.22 3317.03,-166.63"/>
<polygon fill="red" stroke="red" stroke-width="0.39" points="3317.13,-170.13 3327.09,-166.53 3317.06,-163.13 3317.13,-170.13"/>
</g>
<!-- 8&#45;&gt;247 -->
<g id="edge146" class="edge">
<title>8&#45;&gt;247</title>
<path fill="none" stroke="green" stroke-width="0.17" d="M2051.69,-91.2C1942.91,-83.41 1273.8,-35.48 1120.1,-24.47"/>
<polygon fill="green" stroke="green" stroke-width="0.17" points="1120.17,-20.96 1109.94,-23.74 1119.67,-27.94 1120.17,-20.96"/>
</g>
<!-- 160&#45;&gt;7 -->
<g id="edge137" class="edge">
<title>160&#45;&gt;7</title>
<path fill="none" stroke="green" stroke-width="0.24" d="M1165.77,-296.62C1171.26,-293.38 1177.51,-290.21 1183.66,-288.25 1345.69,-236.53 1402.61,-303.94 1564.66,-252.25 1565.71,-251.91 1566.77,-251.53 1567.82,-251.1"/>
<polygon fill="green" stroke="green" stroke-width="0.24" points="1569.56,-254.14 1576.92,-246.51 1566.41,-247.89 1569.56,-254.14"/>
</g>
<!-- 323&#45;&gt;8 -->
<g id="edge144" class="edge">
<title>323&#45;&gt;8</title>
<path fill="none" stroke="red" stroke-width="0.3" d="M3331.6,-152.29C3326.12,-149.04 3319.86,-145.92 3313.66,-144.12 3192.35,-109 2257.73,-96.51 2091.8,-94.56"/>
<polygon fill="red" stroke="red" stroke-width="0.3" points="2091.64,-91.05 2081.6,-94.44 2091.56,-98.05 2091.64,-91.05"/>
</g>
<!-- 251&#45;&gt;1 -->
<g id="edge142" class="edge">
<title>251&#45;&gt;1</title>
<path fill="none" stroke="red" stroke-width="0.37" d="M3157.53,-296.64C3152.05,-293.4 3145.8,-290.23 3139.66,-288.25 3049.67,-259.27 2753.68,-243.63 2664.99,-239.51"/>
<polygon fill="red" stroke="red" stroke-width="0.37" points="2664.93,-236.01 2654.78,-239.05 2664.61,-243 2664.93,-236.01"/>
</g>
<!-- 251&#45;&gt;7 -->
<g id="edge141" class="edge">
<title>251&#45;&gt;7</title>
<path fill="none" stroke="red" stroke-width="0.26" d="M3154.8,-301.56C3140.28,-296.85 3119.99,-291 3101.66,-288.25 2816.29,-245.43 2091.91,-265.53 1803.66,-252.25 1734.84,-249.08 1653.75,-243.3 1613.68,-240.31"/>
<polygon fill="red" stroke="red" stroke-width="0.26" points="1613.74,-236.81 1603.5,-239.54 1613.21,-243.79 1613.74,-236.81"/>
</g>
<!-- 124&#45;&gt;0 -->
<g id="edge22" class="edge">
<title>124&#45;&gt;0</title>
<path fill="none" stroke="green" stroke-width="0.36" d="M1609.76,-306.01C1701.78,-295.32 2067.7,-252.8 2166.8,-241.29"/>
<polygon fill="green" stroke="green" stroke-width="0.36" points="2167.26,-244.76 2176.79,-240.13 2166.45,-237.81 2167.26,-244.76"/>
</g>
<!-- 124&#45;&gt;1 -->
<g id="edge23" class="edge">
<title>124&#45;&gt;1</title>
<path fill="none" stroke="red" stroke-width="0.34" d="M1610.13,-307.03C1744.62,-298.07 2470.02,-249.71 2614.59,-240.07"/>
<polygon fill="red" stroke="red" stroke-width="0.34" points="2614.94,-243.56 2624.68,-239.4 2614.47,-236.57 2614.94,-243.56"/>
</g>
<!-- 124&#45;&gt;2 -->
<g id="edge24" class="edge">
<title>124&#45;&gt;2</title>
<path fill="none" stroke="green" stroke-width="0.13" stroke-dasharray="1,5" d="M1605.84,-296.82C1611.32,-293.58 1617.56,-290.37 1623.66,-288.25 1653.4,-277.91 1865.4,-250.71 1938.75,-241.5"/>
<polygon fill="green" stroke="green" stroke-width="0.13" points="1939.42,-244.94 1948.91,-240.23 1938.55,-238 1939.42,-244.94"/>
</g>
<!-- 124&#45;&gt;3 -->
<g id="edge25" class="edge">
<title>124&#45;&gt;3</title>
<path fill="none" stroke="red" stroke-width="0.31" d="M1568.21,-303.2C1518.86,-290.48 1393.38,-258.16 1340.61,-244.57"/>
<polygon fill="red" stroke="red" stroke-width="0.31" points="1341.35,-241.15 1330.79,-242.04 1339.6,-247.93 1341.35,-241.15"/>
</g>
<!-- 124&#45;&gt;4 -->
<g id="edge26" class="edge">
<title>124&#45;&gt;4</title>
<path fill="none" stroke="green" stroke-width="0.45" d="M1577.04,-291.5C1570.26,-281.6 1561.66,-269.06 1554.52,-258.64"/>
<polygon fill="green" stroke="green" stroke-width="0.45" points="1557.25,-256.43 1548.71,-250.16 1551.48,-260.39 1557.25,-256.43"/>
</g>
<!-- 124&#45;&gt;5 -->
<g id="edge27" class="edge">
<title>124&#45;&gt;5</title>
<path fill="none" stroke="green" stroke-width="0.38" d="M1569.91,-299.01C1544.43,-286.17 1498.95,-263.25 1471.82,-249.57"/>
<polygon fill="green" stroke="green" stroke-width="0.38" points="1473.23,-246.36 1462.72,-244.99 1470.08,-252.61 1473.23,-246.36"/>
</g>
<!-- 124&#45;&gt;6 -->
<g id="edge28" class="edge">
<title>124&#45;&gt;6</title>
<path fill="none" stroke="red" stroke-width="0.13" d="M1605.97,-297.17C1611.46,-293.94 1617.66,-290.65 1623.66,-288.25 1685.97,-263.24 1764.22,-248.41 1803.21,-242.06"/>
<polygon fill="red" stroke="red" stroke-width="0.13" points="1803.79,-245.51 1813.13,-240.5 1802.7,-238.6 1803.79,-245.51"/>
</g>
<!-- 124&#45;&gt;7 -->
<g id="edge29" class="edge">
<title>124&#45;&gt;7</title>
<path fill="none" stroke="green" stroke-width="0.29" d="M1588.66,-288.2C1588.66,-280.22 1588.66,-270.99 1588.66,-262.65"/>
<polygon fill="green" stroke="green" stroke-width="0.29" points="1592.16,-262.4 1588.66,-252.4 1585.16,-262.4 1592.16,-262.4"/>
</g>
<!-- 124&#45;&gt;8 -->
<g id="edge30" class="edge">
<title>124&#45;&gt;8</title>
<path fill="none" stroke="green" stroke-width="0.53" d="M1605.97,-296.85C1610.66,-293.9 1615.78,-290.83 1620.66,-288.25 1776.85,-205.57 1975.77,-128.43 2043.14,-103.03"/>
<polygon fill="green" stroke="green" stroke-width="0.53" points="2044.67,-106.2 2052.8,-99.41 2042.21,-99.64 2044.67,-106.2"/>
</g>
<!-- 125&#45;&gt;0 -->
<g id="edge31" class="edge">
<title>125&#45;&gt;0</title>
<path fill="none" stroke="green" stroke-width="0.62" d="M2084.79,-297.91C2090.2,-294.78 2096.16,-291.36 2101.66,-288.25 2124.85,-275.13 2151.58,-260.37 2169.84,-250.34"/>
<polygon fill="green" stroke="green" stroke-width="0.62" points="2171.71,-253.31 2178.8,-245.43 2168.35,-247.17 2171.71,-253.31"/>
</g>
<!-- 125&#45;&gt;1 -->
<g id="edge32" class="edge">
<title>125&#45;&gt;1</title>
<path fill="none" stroke="green" stroke-width="0.21" d="M2083.77,-296.62C2089.25,-293.37 2095.5,-290.21 2101.66,-288.25 2199.25,-257.19 2521.82,-242.85 2614.53,-239.3"/>
<polygon fill="green" stroke="green" stroke-width="0.21" points="2614.8,-242.79 2624.67,-238.92 2614.54,-235.8 2614.8,-242.79"/>
</g>
<!-- 125&#45;&gt;2 -->
<g id="edge33" class="edge">
<title>125&#45;&gt;2</title>
<path fill="none" stroke="green" stroke-width="1.2" d="M2049.18,-296.58C2031.15,-284.31 2003.03,-265.19 1984.01,-252.24"/>
<polygon fill="green" stroke="green" stroke-width="1.2" points="1985.96,-249.34 1975.73,-246.61 1982.03,-255.13 1985.96,-249.34"/>
</g>
<!-- 125&#45;&gt;3 -->
<g id="edge34" class="edge">
<title>125&#45;&gt;3</title>
<path fill="none" stroke="green" stroke-width="0.36" stroke-dasharray="1,5" d="M2045.32,-306.9C1964.4,-300.88 1668.63,-278.33 1425.66,-252.25 1396.77,-249.15 1363.69,-244.84 1341.61,-241.85"/>
<polygon fill="green" stroke="green" stroke-width="0.36" points="1341.83,-238.35 1331.44,-240.46 1340.88,-245.28 1341.83,-238.35"/>
</g>
<!-- 125&#45;&gt;5 -->
<g id="edge35" class="edge">
<title>125&#45;&gt;5</title>
<path fill="none" stroke="green" stroke-width="0.17" d="M2045.32,-307.07C1971.66,-302.09 1721.33,-283.78 1516.66,-252.25 1502.35,-250.05 1486.48,-246.8 1473.78,-244.01"/>
<polygon fill="green" stroke="green" stroke-width="0.17" points="1474.48,-240.58 1463.96,-241.8 1472.94,-247.41 1474.48,-240.58"/>
</g>
<!-- 125&#45;&gt;6 -->
<g id="edge36" class="edge">
<title>125&#45;&gt;6</title>
<path fill="none" stroke="red" stroke-width="0.14" d="M2046.28,-302.49C2002.2,-289.57 1898.2,-259.08 1851.31,-245.34"/>
<polygon fill="red" stroke="red" stroke-width="0.14" points="1852.28,-241.97 1841.7,-242.52 1850.31,-248.69 1852.28,-241.97"/>
</g>
<!-- 125&#45;&gt;8 -->
<g id="edge37" class="edge">
<title>125&#45;&gt;8</title>
<path fill="none" stroke="green" stroke-width="0.23" d="M2066.66,-287.93C2066.66,-248.23 2066.66,-161.14 2066.66,-118.61"/>
<polygon fill="green" stroke="green" stroke-width="0.23" points="2070.16,-118.35 2066.66,-108.35 2063.16,-118.35 2070.16,-118.35"/>
</g>
</g>
</svg>
