<?xml version="1.0" encoding="UTF-8" standalone="no"?>
<!DOCTYPE svg PUBLIC "-//W3C//DTD SVG 1.1//EN"
 "http://www.w3.org/Graphics/SVG/1.1/DTD/svg11.dtd">
<!-- Generated by graphviz version 3.0.0 (20220226.1711)
 -->
<!-- Pages: 1 -->
<svg width="2061pt" height="92pt"
 viewBox="0.00 0.00 2061.00 91.70" xmlns="http://www.w3.org/2000/svg" xmlns:xlink="http://www.w3.org/1999/xlink">
<g id="graph0" class="graph" transform="scale(1 1) rotate(0) translate(4 87.7)">
<polygon fill="white" stroke="transparent" points="-4,4 -4,-87.7 2057,-87.7 2057,4 -4,4"/>
<!-- &#45;1 -->
<g id="node1" class="node">
<title>&#45;1</title>
<polygon fill="lightgray" stroke="black" points="1843,-83.7 1819,-83.7 1819,-65.7 1843,-65.7 1843,-83.7"/>
<text text-anchor="middle" x="1831" y="-72.5" font-family="Times New Roman,serif" font-size="9.00">&#45;1</text>
</g>
<!-- 0 -->
<g id="node46" class="node">
<title>0</title>
<ellipse fill="lightblue" stroke="black" cx="1058" cy="-14.85" rx="14.7" ry="14.7"/>
<text text-anchor="middle" x="1058" y="-12.65" font-family="Times New Roman,serif" font-size="9.00">0</text>
</g>
<!-- &#45;1&#45;&gt;0 -->
<g id="edge1" class="edge">
<title>&#45;1&#45;&gt;0</title>
<path fill="none" stroke="red" stroke-width="0.21" d="M1818.76,-68.3C1815.93,-67.26 1812.9,-66.31 1810,-65.7 1492.94,0.78 1392.76,-121.21 1082,-29.7 1080.94,-29.39 1079.87,-29.02 1078.82,-28.61"/>
<polygon fill="red" stroke="red" stroke-width="0.21" points="1080.21,-25.39 1069.7,-24.08 1077.1,-31.66 1080.21,-25.39"/>
</g>
<!-- 1 -->
<g id="node47" class="node">
<title>1</title>
<ellipse fill="lightblue" stroke="black" cx="1106" cy="-14.85" rx="14.7" ry="14.7"/>
<text text-anchor="middle" x="1106" y="-12.65" font-family="Times New Roman,serif" font-size="9.00">1</text>
</g>
<!-- &#45;1&#45;&gt;1 -->
<g id="edge2" class="edge">
<title>&#45;1&#45;&gt;1</title>
<path fill="none" stroke="red" stroke-width="0.15" d="M1818.75,-68.34C1815.92,-67.3 1812.9,-66.34 1810,-65.7 1676.4,-36.2 1240.12,-20.23 1130.94,-16.64"/>
<polygon fill="red" stroke="red" stroke-width="0.15" points="1130.98,-13.14 1120.88,-16.31 1130.76,-20.13 1130.98,-13.14"/>
</g>
<!-- 2 -->
<g id="node48" class="node">
<title>2</title>
<ellipse fill="lightblue" stroke="black" cx="962" cy="-14.85" rx="14.7" ry="14.7"/>
<text text-anchor="middle" x="962" y="-12.65" font-family="Times New Roman,serif" font-size="9.00">2</text>
</g>
<!-- &#45;1&#45;&gt;2 -->
<g id="edge3" class="edge">
<title>&#45;1&#45;&gt;2</title>
<path fill="none" stroke="red" stroke-width="0.38" d="M1818.76,-68.29C1815.93,-67.25 1812.9,-66.3 1810,-65.7 1630.51,-28.6 1161.97,-80.97 986,-29.7 984.94,-29.39 983.87,-29.02 982.81,-28.61"/>
<polygon fill="red" stroke="red" stroke-width="0.38" points="984.21,-25.4 973.7,-24.09 981.1,-31.67 984.21,-25.4"/>
</g>
<!-- 3 -->
<g id="node49" class="node">
<title>3</title>
<ellipse fill="lightblue" stroke="black" cx="1010" cy="-14.85" rx="14.7" ry="14.7"/>
<text text-anchor="middle" x="1010" y="-12.65" font-family="Times New Roman,serif" font-size="9.00">3</text>
</g>
<!-- &#45;1&#45;&gt;3 -->
<g id="edge4" class="edge">
<title>&#45;1&#45;&gt;3</title>
<path fill="none" stroke="green" stroke-width="0.26" d="M1818.76,-68.29C1815.93,-67.25 1812.9,-66.3 1810,-65.7 1640.99,-30.53 1199.67,-78.21 1034,-29.7 1032.94,-29.39 1031.87,-29.02 1030.81,-28.61"/>
<polygon fill="green" stroke="green" stroke-width="0.26" points="1032.21,-25.4 1021.7,-24.09 1029.1,-31.67 1032.21,-25.4"/>
</g>
<!-- &#45;2 -->
<g id="node2" class="node">
<title>&#45;2</title>
<polygon fill="lightgray" stroke="black" points="1885,-83.7 1861,-83.7 1861,-65.7 1885,-65.7 1885,-83.7"/>
<text text-anchor="middle" x="1873" y="-72.5" font-family="Times New Roman,serif" font-size="9.00">&#45;2</text>
</g>
<!-- &#45;2&#45;&gt;0 -->
<g id="edge5" class="edge">
<title>&#45;2&#45;&gt;0</title>
<path fill="none" stroke="red" stroke-width="0.13" d="M1860.76,-68.29C1857.93,-67.25 1854.9,-66.3 1852,-65.7 1684.3,-30.77 1246.39,-77.87 1082,-29.7 1080.94,-29.39 1079.87,-29.02 1078.81,-28.61"/>
<polygon fill="red" stroke="red" stroke-width="0.13" points="1080.21,-25.4 1069.7,-24.09 1077.1,-31.67 1080.21,-25.4"/>
</g>
<!-- &#45;2&#45;&gt;1 -->
<g id="edge6" class="edge">
<title>&#45;2&#45;&gt;1</title>
<path fill="none" stroke="green" stroke-width="0.23" d="M1860.75,-68.33C1857.92,-67.29 1854.9,-66.33 1852,-65.7 1709.8,-34.59 1244.17,-19.73 1130.97,-16.52"/>
<polygon fill="green" stroke="green" stroke-width="0.23" points="1130.95,-13.02 1120.86,-16.24 1130.76,-20.02 1130.95,-13.02"/>
</g>
<!-- &#45;2&#45;&gt;2 -->
<g id="edge7" class="edge">
<title>&#45;2&#45;&gt;2</title>
<path fill="none" stroke="green" stroke-width="0.16" d="M1860.76,-68.28C1857.94,-67.24 1854.9,-66.3 1852,-65.7 1663.34,-26.91 1170.98,-83.38 986,-29.7 984.94,-29.39 983.87,-29.03 982.81,-28.62"/>
<polygon fill="green" stroke="green" stroke-width="0.16" points="984.21,-25.4 973.7,-24.1 981.1,-31.68 984.21,-25.4"/>
</g>
<!-- &#45;2&#45;&gt;3 -->
<g id="edge8" class="edge">
<title>&#45;2&#45;&gt;3</title>
<path fill="none" stroke="green" stroke-width="0.22" d="M1860.76,-68.29C1857.93,-67.25 1854.9,-66.3 1852,-65.7 1673.82,-28.84 1208.68,-80.63 1034,-29.7 1032.94,-29.39 1031.87,-29.02 1030.81,-28.61"/>
<polygon fill="green" stroke="green" stroke-width="0.22" points="1032.21,-25.4 1021.7,-24.09 1029.1,-31.67 1032.21,-25.4"/>
</g>
<!-- &#45;3 -->
<g id="node3" class="node">
<title>&#45;3</title>
<polygon fill="lightgray" stroke="black" points="1927,-83.7 1903,-83.7 1903,-65.7 1927,-65.7 1927,-83.7"/>
<text text-anchor="middle" x="1915" y="-72.5" font-family="Times New Roman,serif" font-size="9.00">&#45;3</text>
</g>
<!-- &#45;3&#45;&gt;0 -->
<g id="edge9" class="edge">
<title>&#45;3&#45;&gt;0</title>
<path fill="none" stroke="red" stroke-width="0.1" d="M1902.76,-68.29C1899.93,-67.25 1896.9,-66.3 1894,-65.7 1717.13,-29.08 1255.39,-80.28 1082,-29.7 1080.94,-29.39 1079.87,-29.02 1078.81,-28.61"/>
<polygon fill="red" stroke="red" stroke-width="0.1" points="1080.21,-25.4 1069.7,-24.09 1077.1,-31.67 1080.21,-25.4"/>
</g>
<!-- &#45;3&#45;&gt;1 -->
<g id="edge10" class="edge">
<title>&#45;3&#45;&gt;1</title>
<path fill="none" stroke="red" stroke-width="0.41" d="M1902.75,-68.33C1899.93,-67.29 1896.9,-66.33 1894,-65.7 1743.3,-33.01 1248.82,-19.28 1131.25,-16.43"/>
<polygon fill="red" stroke="red" stroke-width="0.41" points="1131.15,-12.92 1121.07,-16.19 1130.99,-19.92 1131.15,-12.92"/>
</g>
<!-- &#45;3&#45;&gt;2 -->
<g id="edge11" class="edge">
<title>&#45;3&#45;&gt;2</title>
<path fill="none" stroke="red" stroke-width="0.2" d="M1902.76,-68.28C1899.94,-67.24 1896.9,-66.29 1894,-65.7 1696.16,-25.22 1179.99,-85.8 986,-29.7 984.94,-29.39 983.87,-29.03 982.81,-28.62"/>
<polygon fill="red" stroke="red" stroke-width="0.2" points="984.21,-25.41 973.69,-24.1 981.1,-31.68 984.21,-25.41"/>
</g>
<!-- &#45;3&#45;&gt;3 -->
<g id="edge12" class="edge">
<title>&#45;3&#45;&gt;3</title>
<path fill="none" stroke="green" stroke-width="0.67" d="M1902.76,-68.28C1899.93,-67.24 1896.9,-66.3 1894,-65.7 1706.65,-27.15 1217.69,-83.04 1034,-29.7 1032.94,-29.39 1031.87,-29.03 1030.81,-28.62"/>
<polygon fill="green" stroke="green" stroke-width="0.67" points="1032.21,-25.4 1021.7,-24.1 1029.1,-31.67 1032.21,-25.4"/>
</g>
<!-- &#45;4 -->
<g id="node4" class="node">
<title>&#45;4</title>
<polygon fill="lightgray" stroke="black" points="1969,-83.7 1945,-83.7 1945,-65.7 1969,-65.7 1969,-83.7"/>
<text text-anchor="middle" x="1957" y="-72.5" font-family="Times New Roman,serif" font-size="9.00">&#45;4</text>
</g>
<!-- &#45;4&#45;&gt;0 -->
<g id="edge13" class="edge">
<title>&#45;4&#45;&gt;0</title>
<path fill="none" stroke="red" stroke-width="0.34" d="M1944.76,-68.28C1941.93,-67.24 1938.9,-66.3 1936,-65.7 1749.96,-27.39 1264.4,-82.69 1082,-29.7 1080.94,-29.39 1079.87,-29.02 1078.81,-28.62"/>
<polygon fill="red" stroke="red" stroke-width="0.34" points="1080.21,-25.4 1069.7,-24.1 1077.1,-31.67 1080.21,-25.4"/>
</g>
<!-- &#45;4&#45;&gt;1 -->
<g id="edge14" class="edge">
<title>&#45;4&#45;&gt;1</title>
<path fill="none" stroke="red" stroke-width="0.18" d="M1944.75,-68.32C1941.93,-67.28 1938.9,-66.32 1936,-65.7 1776.57,-31.39 1252.01,-18.81 1131.04,-16.33"/>
<polygon fill="red" stroke="red" stroke-width="0.18" points="1130.98,-12.83 1120.91,-16.13 1130.84,-19.83 1130.98,-12.83"/>
</g>
<!-- &#45;4&#45;&gt;2 -->
<g id="edge15" class="edge">
<title>&#45;4&#45;&gt;2</title>
<path fill="none" stroke="green" stroke-width="0.2" d="M1944.76,-68.27C1941.94,-67.24 1938.91,-66.29 1936,-65.7 1728.99,-23.53 1189,-88.21 986,-29.7 984.94,-29.39 983.87,-29.03 982.81,-28.62"/>
<polygon fill="green" stroke="green" stroke-width="0.2" points="984.21,-25.41 973.69,-24.11 981.1,-31.68 984.21,-25.41"/>
</g>
<!-- &#45;4&#45;&gt;3 -->
<g id="edge16" class="edge">
<title>&#45;4&#45;&gt;3</title>
<path fill="none" stroke="red" stroke-width="0.16" d="M1944.76,-68.28C1941.94,-67.24 1938.9,-66.29 1936,-65.7 1739.47,-25.46 1226.7,-85.45 1034,-29.7 1032.94,-29.39 1031.87,-29.03 1030.81,-28.62"/>
<polygon fill="red" stroke="red" stroke-width="0.16" points="1032.21,-25.41 1021.69,-24.1 1029.1,-31.68 1032.21,-25.41"/>
</g>
<!-- &#45;5 -->
<g id="node5" class="node">
<title>&#45;5</title>
<polygon fill="lightgray" stroke="black" points="2011,-83.7 1987,-83.7 1987,-65.7 2011,-65.7 2011,-83.7"/>
<text text-anchor="middle" x="1999" y="-72.5" font-family="Times New Roman,serif" font-size="9.00">&#45;5</text>
</g>
<!-- &#45;5&#45;&gt;0 -->
<g id="edge17" class="edge">
<title>&#45;5&#45;&gt;0</title>
<path fill="none" stroke="red" stroke-width="0.27" d="M1986.76,-68.28C1983.94,-67.24 1980.9,-66.29 1978,-65.7 1782.78,-25.71 1273.41,-85.11 1082,-29.7 1080.94,-29.39 1079.87,-29.03 1078.81,-28.62"/>
<polygon fill="red" stroke="red" stroke-width="0.27" points="1080.21,-25.4 1069.69,-24.1 1077.1,-31.68 1080.21,-25.4"/>
</g>
<!-- &#45;5&#45;&gt;1 -->
<g id="edge18" class="edge">
<title>&#45;5&#45;&gt;1</title>
<path fill="none" stroke="red" stroke-width="0.49" d="M1986.75,-68.31C1983.93,-67.27 1980.9,-66.32 1978,-65.7 1809.95,-29.78 1255.91,-18.39 1131.12,-16.25"/>
<polygon fill="red" stroke="red" stroke-width="0.49" points="1131.07,-12.75 1121.01,-16.08 1130.95,-19.75 1131.07,-12.75"/>
</g>
<!-- &#45;5&#45;&gt;2 -->
<g id="edge19" class="edge">
<title>&#45;5&#45;&gt;2</title>
<path fill="none" stroke="red" stroke-width="0.16" d="M1986.76,-68.27C1983.94,-67.23 1980.91,-66.29 1978,-65.7 1761.81,-21.85 1198.01,-90.62 986,-29.7 984.94,-29.39 983.87,-29.03 982.81,-28.62"/>
<polygon fill="red" stroke="red" stroke-width="0.16" points="984.21,-25.41 973.69,-24.11 981.1,-31.68 984.21,-25.41"/>
</g>
<!-- &#45;5&#45;&gt;3 -->
<g id="edge20" class="edge">
<title>&#45;5&#45;&gt;3</title>
<path fill="none" stroke="red" stroke-width="0.21" d="M1986.76,-68.27C1983.94,-67.24 1980.91,-66.29 1978,-65.7 1772.3,-23.78 1235.71,-87.86 1034,-29.7 1032.94,-29.39 1031.87,-29.03 1030.81,-28.62"/>
<polygon fill="red" stroke="red" stroke-width="0.21" points="1032.21,-25.41 1021.69,-24.11 1029.1,-31.68 1032.21,-25.41"/>
</g>
<!-- &#45;6 -->
<g id="node6" class="node">
<title>&#45;6</title>
<polygon fill="lightgray" stroke="black" points="2053,-83.7 2029,-83.7 2029,-65.7 2053,-65.7 2053,-83.7"/>
<text text-anchor="middle" x="2041" y="-72.5" font-family="Times New Roman,serif" font-size="9.00">&#45;6</text>
</g>
<!-- &#45;6&#45;&gt;0 -->
<g id="edge21" class="edge">
<title>&#45;6&#45;&gt;0</title>
<path fill="none" stroke="green" stroke-width="0.42" d="M2028.76,-68.27C2025.94,-67.24 2022.91,-66.29 2020,-65.7 1815.61,-24.02 1282.42,-87.52 1082,-29.7 1080.94,-29.39 1079.87,-29.03 1078.81,-28.62"/>
<polygon fill="green" stroke="green" stroke-width="0.42" points="1080.21,-25.41 1069.69,-24.11 1077.1,-31.68 1080.21,-25.41"/>
</g>
<!-- &#45;6&#45;&gt;1 -->
<g id="edge22" class="edge">
<title>&#45;6&#45;&gt;1</title>
<path fill="none" stroke="green" stroke-width="0.3" d="M2028.76,-68.31C2025.93,-67.27 2022.9,-66.31 2020,-65.7 1843.27,-28.17 1259.46,-17.98 1131.1,-16.17"/>
<polygon fill="green" stroke="green" stroke-width="0.3" points="1131.11,-12.67 1121.06,-16.03 1131.01,-19.67 1131.11,-12.67"/>
</g>
<!-- &#45;6&#45;&gt;2 -->
<g id="edge23" class="edge">
<title>&#45;6&#45;&gt;2</title>
<path fill="none" stroke="red" stroke-width="0.47" d="M2028.76,-68.27C2025.94,-67.23 2022.91,-66.29 2020,-65.7 1794.64,-20.16 1207.02,-93.04 986,-29.7 984.94,-29.39 983.87,-29.03 982.81,-28.63"/>
<polygon fill="red" stroke="red" stroke-width="0.47" points="984.21,-25.41 973.69,-24.12 981.1,-31.69 984.21,-25.41"/>
</g>
<!-- &#45;6&#45;&gt;3 -->
<g id="edge24" class="edge">
<title>&#45;6&#45;&gt;3</title>
<path fill="none" stroke="red" stroke-width="0.18" d="M2028.76,-68.27C2025.94,-67.23 2022.91,-66.29 2020,-65.7 1805.12,-22.09 1244.72,-90.28 1034,-29.7 1032.94,-29.39 1031.87,-29.03 1030.81,-28.62"/>
<polygon fill="red" stroke="red" stroke-width="0.18" points="1032.21,-25.41 1021.69,-24.11 1029.1,-31.68 1032.21,-25.41"/>
</g>
<!-- &#45;7 -->
<g id="node7" class="node">
<title>&#45;7</title>
<polygon fill="lightgray" stroke="black" points="24,-83.7 0,-83.7 0,-65.7 24,-65.7 24,-83.7"/>
<text text-anchor="middle" x="12" y="-72.5" font-family="Times New Roman,serif" font-size="9.00">&#45;7</text>
</g>
<!-- &#45;7&#45;&gt;0 -->
<g id="edge25" class="edge">
<title>&#45;7&#45;&gt;0</title>
<path fill="none" stroke="red" stroke-width="0.34" d="M24.24,-68.27C27.06,-67.23 30.09,-66.29 33,-65.7 251.15,-21.48 820.06,-91.14 1034,-29.7 1035.06,-29.39 1036.13,-29.03 1037.19,-28.62"/>
<polygon fill="red" stroke="red" stroke-width="0.34" points="1038.9,-31.68 1046.31,-24.11 1035.79,-25.41 1038.9,-31.68"/>
</g>
<!-- &#45;7&#45;&gt;1 -->
<g id="edge26" class="edge">
<title>&#45;7&#45;&gt;1</title>
<path fill="none" stroke="red" stroke-width="0.12" d="M24.24,-68.27C27.06,-67.23 30.09,-66.29 33,-65.7 261.64,-19.56 857.76,-93.9 1082,-29.7 1083.06,-29.39 1084.13,-29.03 1085.19,-28.63"/>
<polygon fill="red" stroke="red" stroke-width="0.12" points="1086.9,-31.69 1094.31,-24.12 1083.79,-25.41 1086.9,-31.69"/>
</g>
<!-- &#45;7&#45;&gt;2 -->
<g id="edge27" class="edge">
<title>&#45;7&#45;&gt;2</title>
<path fill="none" stroke="green" stroke-width="0.37" d="M24.24,-68.31C27.07,-67.27 30.1,-66.31 33,-65.7 212.83,-27.6 807.29,-17.84 936.9,-16.15"/>
<polygon fill="green" stroke="green" stroke-width="0.37" points="937.07,-19.64 947.03,-16.02 936.99,-12.65 937.07,-19.64"/>
</g>
<!-- &#45;7&#45;&gt;3 -->
<g id="edge28" class="edge">
<title>&#45;7&#45;&gt;3</title>
<path fill="none" stroke="green" stroke-width="0.11" d="M24.24,-68.27C27.06,-67.24 30.09,-66.29 33,-65.7 240.67,-23.41 782.36,-88.38 986,-29.7 987.06,-29.39 988.13,-29.03 989.19,-28.62"/>
<polygon fill="green" stroke="green" stroke-width="0.11" points="990.9,-31.68 998.31,-24.11 987.79,-25.41 990.9,-31.68"/>
</g>
<!-- &#45;8 -->
<g id="node8" class="node">
<title>&#45;8</title>
<polygon fill="lightgray" stroke="black" points="66,-83.7 42,-83.7 42,-65.7 66,-65.7 66,-83.7"/>
<text text-anchor="middle" x="54" y="-72.5" font-family="Times New Roman,serif" font-size="9.00">&#45;8</text>
</g>
<!-- &#45;8&#45;&gt;0 -->
<g id="edge29" class="edge">
<title>&#45;8&#45;&gt;0</title>
<path fill="none" stroke="red" stroke-width="0.12" d="M66.24,-68.27C69.06,-67.24 72.09,-66.29 75,-65.7 283.98,-23.17 829.07,-88.73 1034,-29.7 1035.06,-29.39 1036.13,-29.03 1037.19,-28.62"/>
<polygon fill="red" stroke="red" stroke-width="0.12" points="1038.9,-31.68 1046.31,-24.11 1035.79,-25.41 1038.9,-31.68"/>
</g>
<!-- &#45;8&#45;&gt;1 -->
<g id="edge30" class="edge">
<title>&#45;8&#45;&gt;1</title>
<path fill="none" stroke="green" stroke-width="0.28" d="M66.24,-68.27C69.06,-67.23 72.09,-66.29 75,-65.7 294.46,-21.24 866.77,-91.48 1082,-29.7 1083.06,-29.39 1084.13,-29.03 1085.19,-28.62"/>
<polygon fill="green" stroke="green" stroke-width="0.28" points="1086.9,-31.68 1094.31,-24.11 1083.79,-25.41 1086.9,-31.68"/>
</g>
<!-- &#45;8&#45;&gt;2 -->
<g id="edge31" class="edge">
<title>&#45;8&#45;&gt;2</title>
<path fill="none" stroke="green" stroke-width="0.52" d="M66.25,-68.31C69.07,-67.27 72.1,-66.32 75,-65.7 246.14,-29.21 810.72,-18.24 936.86,-16.22"/>
<polygon fill="green" stroke="green" stroke-width="0.52" points="937.11,-19.72 947.06,-16.06 937.01,-12.72 937.11,-19.72"/>
</g>
<!-- &#45;8&#45;&gt;3 -->
<g id="edge32" class="edge">
<title>&#45;8&#45;&gt;3</title>
<path fill="none" stroke="red" stroke-width="0.13" d="M66.24,-68.28C69.06,-67.24 72.1,-66.29 75,-65.7 273.49,-25.1 791.37,-85.97 986,-29.7 987.06,-29.39 988.13,-29.03 989.19,-28.62"/>
<polygon fill="red" stroke="red" stroke-width="0.13" points="990.9,-31.68 998.31,-24.1 987.79,-25.41 990.9,-31.68"/>
</g>
<!-- &#45;9 -->
<g id="node9" class="node">
<title>&#45;9</title>
<polygon fill="lightgray" stroke="black" points="108,-83.7 84,-83.7 84,-65.7 108,-65.7 108,-83.7"/>
<text text-anchor="middle" x="96" y="-72.5" font-family="Times New Roman,serif" font-size="9.00">&#45;9</text>
</g>
<!-- &#45;9&#45;&gt;0 -->
<g id="edge33" class="edge">
<title>&#45;9&#45;&gt;0</title>
<path fill="none" stroke="green" stroke-width="0.36" d="M108.24,-68.28C111.06,-67.24 114.09,-66.29 117,-65.7 316.8,-24.86 838.08,-86.31 1034,-29.7 1035.06,-29.39 1036.13,-29.03 1037.19,-28.62"/>
<polygon fill="green" stroke="green" stroke-width="0.36" points="1038.9,-31.68 1046.31,-24.11 1035.79,-25.41 1038.9,-31.68"/>
</g>
<!-- &#45;9&#45;&gt;1 -->
<g id="edge34" class="edge">
<title>&#45;9&#45;&gt;1</title>
<path fill="none" stroke="green" stroke-width="0.23" d="M108.24,-68.27C111.06,-67.23 114.09,-66.29 117,-65.7 327.29,-22.93 875.78,-89.07 1082,-29.7 1083.06,-29.39 1084.13,-29.03 1085.19,-28.62"/>
<polygon fill="green" stroke="green" stroke-width="0.23" points="1086.9,-31.68 1094.31,-24.11 1083.79,-25.41 1086.9,-31.68"/>
</g>
<!-- &#45;9&#45;&gt;2 -->
<g id="edge35" class="edge">
<title>&#45;9&#45;&gt;2</title>
<path fill="none" stroke="red" stroke-width="0.22" d="M108.25,-68.32C111.07,-67.28 114.1,-66.32 117,-65.7 279.5,-30.82 814.5,-18.66 936.9,-16.3"/>
<polygon fill="red" stroke="red" stroke-width="0.22" points="937.2,-19.8 947.14,-16.11 937.07,-12.8 937.2,-19.8"/>
</g>
<!-- &#45;9&#45;&gt;3 -->
<g id="edge36" class="edge">
<title>&#45;9&#45;&gt;3</title>
<path fill="none" stroke="red" stroke-width="0.24" d="M108.24,-68.28C111.06,-67.24 114.1,-66.3 117,-65.7 306.32,-26.79 800.38,-83.56 986,-29.7 987.06,-29.39 988.13,-29.03 989.19,-28.62"/>
<polygon fill="red" stroke="red" stroke-width="0.24" points="990.9,-31.68 998.3,-24.1 987.79,-25.4 990.9,-31.68"/>
</g>
<!-- &#45;10 -->
<g id="node10" class="node">
<title>&#45;10</title>
<polygon fill="lightgray" stroke="black" points="155.5,-83.7 126.5,-83.7 126.5,-65.7 155.5,-65.7 155.5,-83.7"/>
<text text-anchor="middle" x="141" y="-72.5" font-family="Times New Roman,serif" font-size="9.00">&#45;10</text>
</g>
<!-- &#45;10&#45;&gt;0 -->
<g id="edge37" class="edge">
<title>&#45;10&#45;&gt;0</title>
<path fill="none" stroke="red" stroke-width="0.2" d="M155.92,-67.8C158.58,-66.96 161.34,-66.2 164,-65.7 354.09,-29.53 848.16,-83.61 1034,-29.7 1035.06,-29.39 1036.13,-29.03 1037.19,-28.62"/>
<polygon fill="red" stroke="red" stroke-width="0.2" points="1038.9,-31.68 1046.3,-24.1 1035.79,-25.4 1038.9,-31.68"/>
</g>
<!-- &#45;10&#45;&gt;1 -->
<g id="edge38" class="edge">
<title>&#45;10&#45;&gt;1</title>
<path fill="none" stroke="red" stroke-width="0.16" d="M155.92,-67.8C158.57,-66.95 161.34,-66.2 164,-65.7 364.6,-27.75 885.87,-86.37 1082,-29.7 1083.06,-29.39 1084.13,-29.03 1085.19,-28.62"/>
<polygon fill="red" stroke="red" stroke-width="0.16" points="1086.9,-31.68 1094.31,-24.11 1083.79,-25.41 1086.9,-31.68"/>
</g>
<!-- &#45;10&#45;&gt;2 -->
<g id="edge39" class="edge">
<title>&#45;10&#45;&gt;2</title>
<path fill="none" stroke="red" stroke-width="0.25" d="M155.93,-67.85C158.58,-67 161.35,-66.23 164,-65.7 317.25,-34.86 818.56,-19.7 936.83,-16.5"/>
<polygon fill="red" stroke="red" stroke-width="0.25" points="937.16,-19.99 947.06,-16.23 936.97,-13 937.16,-19.99"/>
</g>
<!-- &#45;10&#45;&gt;3 -->
<g id="edge40" class="edge">
<title>&#45;10&#45;&gt;3</title>
<path fill="none" stroke="red" stroke-width="0.26" d="M155.92,-67.81C158.58,-66.96 161.34,-66.21 164,-65.7 343.58,-31.3 810.46,-80.86 986,-29.7 987.06,-29.39 988.13,-29.02 989.19,-28.61"/>
<polygon fill="red" stroke="red" stroke-width="0.26" points="990.9,-31.67 998.3,-24.09 987.79,-25.4 990.9,-31.67"/>
</g>
<!-- &#45;11 -->
<g id="node11" class="node">
<title>&#45;11</title>
<polygon fill="lightgray" stroke="black" points="202.5,-83.7 173.5,-83.7 173.5,-65.7 202.5,-65.7 202.5,-83.7"/>
<text text-anchor="middle" x="188" y="-72.5" font-family="Times New Roman,serif" font-size="9.00">&#45;11</text>
</g>
<!-- &#45;11&#45;&gt;0 -->
<g id="edge41" class="edge">
<title>&#45;11&#45;&gt;0</title>
<path fill="none" stroke="green" stroke-width="0.27" d="M202.92,-67.81C205.58,-66.96 208.34,-66.21 211,-65.7 390.8,-31.26 858.25,-80.91 1034,-29.7 1035.06,-29.39 1036.13,-29.02 1037.19,-28.61"/>
<polygon fill="green" stroke="green" stroke-width="0.27" points="1038.9,-31.67 1046.3,-24.09 1035.79,-25.4 1038.9,-31.67"/>
</g>
<!-- &#45;11&#45;&gt;1 -->
<g id="edge42" class="edge">
<title>&#45;11&#45;&gt;1</title>
<path fill="none" stroke="green" stroke-width="0.19" d="M202.92,-67.8C205.58,-66.96 208.34,-66.2 211,-65.7 401.31,-29.49 895.95,-83.67 1082,-29.7 1083.06,-29.39 1084.13,-29.03 1085.19,-28.62"/>
<polygon fill="green" stroke="green" stroke-width="0.19" points="1086.9,-31.68 1094.3,-24.1 1083.79,-25.4 1086.9,-31.68"/>
</g>
<!-- &#45;11&#45;&gt;2 -->
<g id="edge43" class="edge">
<title>&#45;11&#45;&gt;2</title>
<path fill="none" stroke="green" stroke-width="0.13" d="M202.93,-67.86C205.59,-67.01 208.35,-66.24 211,-65.7 354.6,-36.51 823.01,-20.2 936.88,-16.61"/>
<polygon fill="green" stroke="green" stroke-width="0.13" points="937.17,-20.1 947.05,-16.29 936.95,-13.11 937.17,-20.1"/>
</g>
<!-- &#45;11&#45;&gt;3 -->
<g id="edge44" class="edge">
<title>&#45;11&#45;&gt;3</title>
<path fill="none" stroke="green" stroke-width="0.18" d="M202.92,-67.81C205.58,-66.97 208.34,-66.21 211,-65.7 380.29,-33.04 820.54,-78.16 986,-29.7 987.06,-29.39 988.13,-29.02 989.19,-28.61"/>
<polygon fill="green" stroke="green" stroke-width="0.18" points="990.9,-31.67 998.3,-24.09 987.79,-25.4 990.9,-31.67"/>
</g>
<!-- &#45;12 -->
<g id="node12" class="node">
<title>&#45;12</title>
<polygon fill="lightgray" stroke="black" points="249.5,-83.7 220.5,-83.7 220.5,-65.7 249.5,-65.7 249.5,-83.7"/>
<text text-anchor="middle" x="235" y="-72.5" font-family="Times New Roman,serif" font-size="9.00">&#45;12</text>
</g>
<!-- &#45;12&#45;&gt;0 -->
<g id="edge45" class="edge">
<title>&#45;12&#45;&gt;0</title>
<path fill="none" stroke="green" stroke-width="0.27" d="M249.92,-67.81C252.58,-66.97 255.34,-66.21 258,-65.7 427.51,-33 868.33,-78.21 1034,-29.7 1035.06,-29.39 1036.13,-29.02 1037.19,-28.61"/>
<polygon fill="green" stroke="green" stroke-width="0.27" points="1038.9,-31.67 1046.3,-24.09 1035.79,-25.4 1038.9,-31.67"/>
</g>
<!-- &#45;12&#45;&gt;1 -->
<g id="edge46" class="edge">
<title>&#45;12&#45;&gt;1</title>
<path fill="none" stroke="green" stroke-width="0.15" d="M249.92,-67.81C252.58,-66.96 255.34,-66.21 258,-65.7 438.02,-31.23 906.03,-80.97 1082,-29.7 1083.06,-29.39 1084.13,-29.02 1085.19,-28.61"/>
<polygon fill="green" stroke="green" stroke-width="0.15" points="1086.9,-31.67 1094.3,-24.09 1083.79,-25.4 1086.9,-31.67"/>
</g>
<!-- &#45;12&#45;&gt;2 -->
<g id="edge47" class="edge">
<title>&#45;12&#45;&gt;2</title>
<path fill="none" stroke="green" stroke-width="0.13" d="M249.93,-67.87C252.59,-67.02 255.35,-66.24 258,-65.7 392.02,-38.15 827.99,-20.73 937.08,-16.73"/>
<polygon fill="green" stroke="green" stroke-width="0.13" points="937.27,-20.23 947.14,-16.37 937.02,-13.23 937.27,-20.23"/>
</g>
<!-- &#45;12&#45;&gt;3 -->
<g id="edge48" class="edge">
<title>&#45;12&#45;&gt;3</title>
<path fill="none" stroke="red" stroke-width="0.15" d="M249.92,-67.82C252.58,-66.97 255.34,-66.21 258,-65.7 417,-34.78 830.62,-75.46 986,-29.7 987.06,-29.39 988.13,-29.02 989.18,-28.61"/>
<polygon fill="red" stroke="red" stroke-width="0.15" points="990.9,-31.66 998.3,-24.08 987.79,-25.39 990.9,-31.66"/>
</g>
<!-- &#45;13 -->
<g id="node13" class="node">
<title>&#45;13</title>
<polygon fill="lightgray" stroke="black" points="296.5,-83.7 267.5,-83.7 267.5,-65.7 296.5,-65.7 296.5,-83.7"/>
<text text-anchor="middle" x="282" y="-72.5" font-family="Times New Roman,serif" font-size="9.00">&#45;13</text>
</g>
<!-- &#45;13&#45;&gt;0 -->
<g id="edge49" class="edge">
<title>&#45;13&#45;&gt;0</title>
<path fill="none" stroke="red" stroke-width="0.24" d="M296.92,-67.82C299.58,-66.97 302.34,-66.21 305,-65.7 464.22,-34.74 878.41,-75.51 1034,-29.7 1035.06,-29.39 1036.13,-29.02 1037.18,-28.61"/>
<polygon fill="red" stroke="red" stroke-width="0.24" points="1038.9,-31.66 1046.3,-24.08 1035.79,-25.39 1038.9,-31.66"/>
</g>
<!-- &#45;13&#45;&gt;1 -->
<g id="edge50" class="edge">
<title>&#45;13&#45;&gt;1</title>
<path fill="none" stroke="red" stroke-width="0.18" d="M296.92,-67.81C299.58,-66.97 302.34,-66.21 305,-65.7 474.72,-32.97 916.11,-78.27 1082,-29.7 1083.06,-29.39 1084.13,-29.02 1085.19,-28.61"/>
<polygon fill="red" stroke="red" stroke-width="0.18" points="1086.9,-31.67 1094.3,-24.09 1083.79,-25.4 1086.9,-31.67"/>
</g>
<!-- &#45;13&#45;&gt;2 -->
<g id="edge51" class="edge">
<title>&#45;13&#45;&gt;2</title>
<path fill="none" stroke="red" stroke-width="0.35" d="M296.94,-67.88C299.59,-67.03 302.35,-66.25 305,-65.7 547.18,-15.29 849.02,-14.47 936.92,-15.44"/>
<polygon fill="red" stroke="red" stroke-width="0.35" points="936.95,-18.94 947,-15.56 937.04,-11.94 936.95,-18.94"/>
</g>
<!-- &#45;13&#45;&gt;3 -->
<g id="edge52" class="edge">
<title>&#45;13&#45;&gt;3</title>
<path fill="none" stroke="red" stroke-width="0.3" d="M296.93,-67.83C299.58,-66.98 302.34,-66.22 305,-65.7 602.42,-7.33 695.4,-115.81 986,-29.7 987.06,-29.38 988.12,-29.01 989.18,-28.6"/>
<polygon fill="red" stroke="red" stroke-width="0.3" points="990.9,-31.66 998.3,-24.07 987.78,-25.39 990.9,-31.66"/>
</g>
<!-- &#45;14 -->
<g id="node14" class="node">
<title>&#45;14</title>
<polygon fill="lightgray" stroke="black" points="343.5,-83.7 314.5,-83.7 314.5,-65.7 343.5,-65.7 343.5,-83.7"/>
<text text-anchor="middle" x="329" y="-72.5" font-family="Times New Roman,serif" font-size="9.00">&#45;14</text>
</g>
<!-- &#45;14&#45;&gt;0 -->
<g id="edge53" class="edge">
<title>&#45;14&#45;&gt;0</title>
<path fill="none" stroke="green" stroke-width="0.34" d="M343.93,-67.83C346.58,-66.98 349.34,-66.22 352,-65.7 649.85,-7.26 742.97,-115.93 1034,-29.7 1035.06,-29.38 1036.12,-29.01 1037.18,-28.6"/>
<polygon fill="green" stroke="green" stroke-width="0.34" points="1038.9,-31.66 1046.3,-24.07 1035.78,-25.39 1038.9,-31.66"/>
</g>
<!-- &#45;14&#45;&gt;1 -->
<g id="edge54" class="edge">
<title>&#45;14&#45;&gt;1</title>
<path fill="none" stroke="red" stroke-width="0.15" d="M343.92,-67.82C346.58,-66.97 349.34,-66.21 352,-65.7 511.43,-34.7 926.19,-75.57 1082,-29.7 1083.06,-29.39 1084.13,-29.02 1085.18,-28.61"/>
<polygon fill="red" stroke="red" stroke-width="0.15" points="1086.9,-31.66 1094.3,-24.08 1083.79,-25.39 1086.9,-31.66"/>
</g>
<!-- &#45;14&#45;&gt;2 -->
<g id="edge55" class="edge">
<title>&#45;14&#45;&gt;2</title>
<path fill="none" stroke="red" stroke-width="0.43" d="M343.94,-67.89C346.59,-67.04 349.35,-66.26 352,-65.7 575.37,-18.52 853.47,-15.42 937.1,-15.64"/>
<polygon fill="red" stroke="red" stroke-width="0.43" points="937.15,-19.14 947.17,-15.69 937.18,-12.14 937.15,-19.14"/>
</g>
<!-- &#45;14&#45;&gt;3 -->
<g id="edge56" class="edge">
<title>&#45;14&#45;&gt;3</title>
<path fill="none" stroke="green" stroke-width="0.35" d="M343.93,-67.84C346.58,-66.99 349.35,-66.22 352,-65.7 628.84,-10.81 715.56,-110.42 986,-29.7 987.06,-29.38 988.12,-29.01 989.18,-28.6"/>
<polygon fill="green" stroke="green" stroke-width="0.35" points="990.9,-31.65 998.29,-24.06 987.78,-25.38 990.9,-31.65"/>
</g>
<!-- &#45;15 -->
<g id="node15" class="node">
<title>&#45;15</title>
<polygon fill="lightgray" stroke="black" points="390.5,-83.7 361.5,-83.7 361.5,-65.7 390.5,-65.7 390.5,-83.7"/>
<text text-anchor="middle" x="376" y="-72.5" font-family="Times New Roman,serif" font-size="9.00">&#45;15</text>
</g>
<!-- &#45;15&#45;&gt;0 -->
<g id="edge57" class="edge">
<title>&#45;15&#45;&gt;0</title>
<path fill="none" stroke="red" stroke-width="0.24" d="M390.93,-67.84C393.58,-66.99 396.35,-66.22 399,-65.7 676.28,-10.74 763.13,-110.53 1034,-29.7 1035.06,-29.38 1036.12,-29.01 1037.18,-28.6"/>
<polygon fill="red" stroke="red" stroke-width="0.24" points="1038.9,-31.65 1046.29,-24.06 1035.78,-25.38 1038.9,-31.65"/>
</g>
<!-- &#45;15&#45;&gt;1 -->
<g id="edge58" class="edge">
<title>&#45;15&#45;&gt;1</title>
<path fill="none" stroke="red" stroke-width="0.25" d="M390.93,-67.83C393.58,-66.98 396.34,-66.22 399,-65.7 697.29,-7.19 790.54,-116.04 1082,-29.7 1083.06,-29.38 1084.12,-29.01 1085.18,-28.6"/>
<polygon fill="red" stroke="red" stroke-width="0.25" points="1086.9,-31.66 1094.3,-24.07 1083.78,-25.39 1086.9,-31.66"/>
</g>
<!-- &#45;15&#45;&gt;2 -->
<g id="edge59" class="edge">
<title>&#45;15&#45;&gt;2</title>
<path fill="none" stroke="red" stroke-width="0.18" d="M390.94,-67.91C393.59,-67.05 396.35,-66.27 399,-65.7 603.33,-21.82 857.36,-16.45 936.96,-15.88"/>
<polygon fill="red" stroke="red" stroke-width="0.18" points="937.03,-19.38 947.01,-15.83 936.99,-12.38 937.03,-19.38"/>
</g>
<!-- &#45;15&#45;&gt;3 -->
<g id="edge60" class="edge">
<title>&#45;15&#45;&gt;3</title>
<path fill="none" stroke="green" stroke-width="0.23" d="M390.93,-67.85C393.58,-67 396.35,-66.23 399,-65.7 655.27,-14.28 735.71,-105.02 986,-29.7 987.06,-29.38 988.12,-29.01 989.18,-28.59"/>
<polygon fill="green" stroke="green" stroke-width="0.23" points="990.9,-31.64 998.29,-24.05 987.78,-25.38 990.9,-31.64"/>
</g>
<!-- &#45;16 -->
<g id="node16" class="node">
<title>&#45;16</title>
<polygon fill="lightgray" stroke="black" points="437.5,-83.7 408.5,-83.7 408.5,-65.7 437.5,-65.7 437.5,-83.7"/>
<text text-anchor="middle" x="423" y="-72.5" font-family="Times New Roman,serif" font-size="9.00">&#45;16</text>
</g>
<!-- &#45;16&#45;&gt;0 -->
<g id="edge61" class="edge">
<title>&#45;16&#45;&gt;0</title>
<path fill="none" stroke="red" stroke-width="0.3" d="M437.93,-67.85C440.58,-67 443.35,-66.23 446,-65.7 702.71,-14.21 783.28,-105.13 1034,-29.7 1035.06,-29.38 1036.12,-29.01 1037.18,-28.59"/>
<polygon fill="red" stroke="red" stroke-width="0.3" points="1038.9,-31.64 1046.29,-24.05 1035.78,-25.38 1038.9,-31.64"/>
</g>
<!-- &#45;16&#45;&gt;1 -->
<g id="edge62" class="edge">
<title>&#45;16&#45;&gt;1</title>
<path fill="none" stroke="red" stroke-width="0.42" d="M437.93,-67.84C440.58,-66.99 443.35,-66.22 446,-65.7 723.72,-10.66 810.7,-110.65 1082,-29.7 1083.06,-29.38 1084.12,-29.01 1085.18,-28.6"/>
<polygon fill="red" stroke="red" stroke-width="0.42" points="1086.9,-31.65 1094.29,-24.06 1083.78,-25.38 1086.9,-31.65"/>
</g>
<!-- &#45;16&#45;&gt;2 -->
<g id="edge63" class="edge">
<title>&#45;16&#45;&gt;2</title>
<path fill="none" stroke="red" stroke-width="0.58" d="M437.95,-67.92C440.6,-67.07 443.36,-66.28 446,-65.7 631.23,-25.15 861.07,-17.58 936.63,-16.17"/>
<polygon fill="red" stroke="red" stroke-width="0.58" points="937.08,-19.66 947.02,-16 936.97,-12.66 937.08,-19.66"/>
</g>
<!-- &#45;16&#45;&gt;3 -->
<g id="edge64" class="edge">
<title>&#45;16&#45;&gt;3</title>
<path fill="none" stroke="green" stroke-width="0.3" d="M437.93,-67.86C440.59,-67.01 443.35,-66.24 446,-65.7 681.71,-17.76 755.86,-99.62 986,-29.7 987.06,-29.38 988.12,-29 989.18,-28.58"/>
<polygon fill="green" stroke="green" stroke-width="0.3" points="990.9,-31.63 998.28,-24.03 987.77,-25.37 990.9,-31.63"/>
</g>
<!-- &#45;17 -->
<g id="node17" class="node">
<title>&#45;17</title>
<polygon fill="lightgray" stroke="black" points="484.5,-83.7 455.5,-83.7 455.5,-65.7 484.5,-65.7 484.5,-83.7"/>
<text text-anchor="middle" x="470" y="-72.5" font-family="Times New Roman,serif" font-size="9.00">&#45;17</text>
</g>
<!-- &#45;17&#45;&gt;0 -->
<g id="edge65" class="edge">
<title>&#45;17&#45;&gt;0</title>
<path fill="none" stroke="red" stroke-width="0.54" d="M484.93,-67.86C487.59,-67.01 490.35,-66.24 493,-65.7 729.14,-17.68 803.43,-99.74 1034,-29.7 1035.06,-29.38 1036.12,-29 1037.18,-28.58"/>
<polygon fill="red" stroke="red" stroke-width="0.54" points="1038.9,-31.63 1046.28,-24.03 1035.77,-25.37 1038.9,-31.63"/>
</g>
<!-- &#45;17&#45;&gt;1 -->
<g id="edge66" class="edge">
<title>&#45;17&#45;&gt;1</title>
<path fill="none" stroke="red" stroke-width="0.18" d="M484.93,-67.85C487.58,-67 490.35,-66.23 493,-65.7 750.15,-14.14 830.85,-105.25 1082,-29.7 1083.06,-29.38 1084.12,-29.01 1085.18,-28.59"/>
<polygon fill="red" stroke="red" stroke-width="0.18" points="1086.9,-31.64 1094.29,-24.05 1083.78,-25.38 1086.9,-31.64"/>
</g>
<!-- &#45;17&#45;&gt;2 -->
<g id="edge67" class="edge">
<title>&#45;17&#45;&gt;2</title>
<path fill="none" stroke="red" stroke-width="0.15" d="M484.95,-67.95C487.6,-67.09 490.36,-66.29 493,-65.7 659.48,-28.42 865.64,-18.8 936.61,-16.51"/>
<polygon fill="red" stroke="red" stroke-width="0.15" points="936.92,-20 946.81,-16.2 936.71,-13.01 936.92,-20"/>
</g>
<!-- &#45;17&#45;&gt;3 -->
<g id="edge68" class="edge">
<title>&#45;17&#45;&gt;3</title>
<path fill="none" stroke="red" stroke-width="0.71" d="M484.93,-67.87C487.59,-67.02 490.35,-66.25 493,-65.7 708.15,-21.23 776,-94.23 986,-29.7 987.06,-29.37 988.12,-29 989.17,-28.58"/>
<polygon fill="red" stroke="red" stroke-width="0.71" points="990.9,-31.62 998.28,-24.02 987.77,-25.36 990.9,-31.62"/>
</g>
<!-- &#45;18 -->
<g id="node18" class="node">
<title>&#45;18</title>
<polygon fill="lightgray" stroke="black" points="531.5,-83.7 502.5,-83.7 502.5,-65.7 531.5,-65.7 531.5,-83.7"/>
<text text-anchor="middle" x="517" y="-72.5" font-family="Times New Roman,serif" font-size="9.00">&#45;18</text>
</g>
<!-- &#45;18&#45;&gt;0 -->
<g id="edge69" class="edge">
<title>&#45;18&#45;&gt;0</title>
<path fill="none" stroke="green" stroke-width="0.32" d="M531.93,-67.87C534.59,-67.02 537.35,-66.25 540,-65.7 755.58,-21.16 823.57,-94.35 1034,-29.7 1035.06,-29.37 1036.12,-29 1037.17,-28.58"/>
<polygon fill="green" stroke="green" stroke-width="0.32" points="1038.9,-31.62 1046.28,-24.02 1035.77,-25.36 1038.9,-31.62"/>
</g>
<!-- &#45;18&#45;&gt;1 -->
<g id="edge70" class="edge">
<title>&#45;18&#45;&gt;1</title>
<path fill="none" stroke="green" stroke-width="0.22" d="M531.93,-67.86C534.59,-67.01 537.35,-66.24 540,-65.7 776.58,-17.61 851,-99.85 1082,-29.7 1083.06,-29.38 1084.12,-29 1085.18,-28.58"/>
<polygon fill="green" stroke="green" stroke-width="0.22" points="1086.9,-31.63 1094.28,-24.03 1083.77,-25.37 1086.9,-31.63"/>
</g>
<!-- &#45;18&#45;&gt;2 -->
<g id="edge71" class="edge">
<title>&#45;18&#45;&gt;2</title>
<path fill="none" stroke="red" stroke-width="0.39" d="M531.96,-67.97C534.61,-67.11 537.36,-66.31 540,-65.7 688.16,-31.61 871.25,-20.1 937.02,-16.91"/>
<polygon fill="red" stroke="red" stroke-width="0.39" points="937.4,-20.39 947.23,-16.43 937.07,-13.4 937.4,-20.39"/>
</g>
<!-- &#45;18&#45;&gt;3 -->
<g id="edge72" class="edge">
<title>&#45;18&#45;&gt;3</title>
<path fill="none" stroke="red" stroke-width="0.29" d="M531.94,-67.89C534.59,-67.04 537.35,-66.26 540,-65.7 734.6,-24.7 796.13,-88.84 986,-29.7 987.06,-29.37 988.12,-28.99 989.17,-28.57"/>
<polygon fill="red" stroke="red" stroke-width="0.29" points="990.91,-31.61 998.27,-24 987.77,-25.35 990.91,-31.61"/>
</g>
<!-- &#45;19 -->
<g id="node19" class="node">
<title>&#45;19</title>
<polygon fill="lightgray" stroke="black" points="578.5,-83.7 549.5,-83.7 549.5,-65.7 578.5,-65.7 578.5,-83.7"/>
<text text-anchor="middle" x="564" y="-72.5" font-family="Times New Roman,serif" font-size="9.00">&#45;19</text>
</g>
<!-- &#45;19&#45;&gt;0 -->
<g id="edge73" class="edge">
<title>&#45;19&#45;&gt;0</title>
<path fill="none" stroke="red" stroke-width="0.14" d="M578.94,-67.89C581.59,-67.03 584.35,-66.26 587,-65.7 782.03,-24.63 843.7,-88.95 1034,-29.7 1035.06,-29.37 1036.12,-28.99 1037.17,-28.57"/>
<polygon fill="red" stroke="red" stroke-width="0.14" points="1038.91,-31.61 1046.27,-24 1035.77,-25.36 1038.91,-31.61"/>
</g>
<!-- &#45;19&#45;&gt;1 -->
<g id="edge74" class="edge">
<title>&#45;19&#45;&gt;1</title>
<path fill="none" stroke="green" stroke-width="0.21" d="M578.93,-67.87C581.59,-67.02 584.35,-66.25 587,-65.7 803.02,-21.08 871.14,-94.46 1082,-29.7 1083.06,-29.37 1084.12,-29 1085.17,-28.58"/>
<polygon fill="green" stroke="green" stroke-width="0.21" points="1086.9,-31.62 1094.28,-24.02 1083.77,-25.36 1086.9,-31.62"/>
</g>
<!-- &#45;19&#45;&gt;2 -->
<g id="edge75" class="edge">
<title>&#45;19&#45;&gt;2</title>
<path fill="none" stroke="red" stroke-width="0.11" d="M578.96,-68C581.61,-67.14 584.37,-66.32 587,-65.7 716.63,-34.88 876.31,-21.6 937,-17.42"/>
<polygon fill="red" stroke="red" stroke-width="0.11" points="937.41,-20.9 947.15,-16.74 936.94,-13.91 937.41,-20.9"/>
</g>
<!-- &#45;19&#45;&gt;3 -->
<g id="edge76" class="edge">
<title>&#45;19&#45;&gt;3</title>
<path fill="none" stroke="red" stroke-width="0.19" d="M578.94,-67.91C581.6,-67.05 584.36,-66.27 587,-65.7 761.05,-28.17 816.25,-83.45 986,-29.7 987.05,-29.36 988.11,-28.98 989.17,-28.55"/>
<polygon fill="red" stroke="red" stroke-width="0.19" points="990.91,-31.6 998.27,-23.97 987.76,-25.34 990.91,-31.6"/>
</g>
<!-- &#45;20 -->
<g id="node20" class="node">
<title>&#45;20</title>
<polygon fill="lightgray" stroke="black" points="625.5,-83.7 596.5,-83.7 596.5,-65.7 625.5,-65.7 625.5,-83.7"/>
<text text-anchor="middle" x="611" y="-72.5" font-family="Times New Roman,serif" font-size="9.00">&#45;20</text>
</g>
<!-- &#45;20&#45;&gt;0 -->
<g id="edge77" class="edge">
<title>&#45;20&#45;&gt;0</title>
<path fill="none" stroke="green" stroke-width="0.29" d="M625.94,-67.91C628.59,-67.05 631.35,-66.27 634,-65.7 808.49,-28.1 863.83,-83.57 1034,-29.7 1035.05,-29.36 1036.11,-28.98 1037.17,-28.55"/>
<polygon fill="green" stroke="green" stroke-width="0.29" points="1038.91,-31.6 1046.27,-23.97 1035.76,-25.34 1038.91,-31.6"/>
</g>
<!-- &#45;20&#45;&gt;1 -->
<g id="edge78" class="edge">
<title>&#45;20&#45;&gt;1</title>
<path fill="none" stroke="green" stroke-width="0.21" d="M625.94,-67.89C628.59,-67.03 631.35,-66.26 634,-65.7 829.47,-24.55 891.27,-89.07 1082,-29.7 1083.06,-29.37 1084.12,-28.99 1085.17,-28.57"/>
<polygon fill="green" stroke="green" stroke-width="0.21" points="1086.91,-31.61 1094.27,-24 1083.77,-25.36 1086.91,-31.61"/>
</g>
<!-- &#45;20&#45;&gt;2 -->
<g id="edge79" class="edge">
<title>&#45;20&#45;&gt;2</title>
<path fill="none" stroke="red" stroke-width="0.13" d="M625.97,-68.05C628.62,-67.17 631.37,-66.35 634,-65.7 745.15,-38.17 881.47,-23.34 936.84,-18.08"/>
<polygon fill="red" stroke="red" stroke-width="0.13" points="937.46,-21.54 947.1,-17.13 936.82,-14.57 937.46,-21.54"/>
</g>
<!-- &#45;20&#45;&gt;3 -->
<g id="edge80" class="edge">
<title>&#45;20&#45;&gt;3</title>
<path fill="none" stroke="red" stroke-width="0.26" d="M625.95,-67.94C628.6,-67.08 631.36,-66.28 634,-65.7 787.53,-31.64 836.36,-78.07 986,-29.7 987.05,-29.36 988.11,-28.97 989.16,-28.54"/>
<polygon fill="red" stroke="red" stroke-width="0.26" points="990.91,-31.58 998.26,-23.94 987.75,-25.33 990.91,-31.58"/>
</g>
<!-- &#45;21 -->
<g id="node21" class="node">
<title>&#45;21</title>
<polygon fill="lightgray" stroke="black" points="672.5,-83.7 643.5,-83.7 643.5,-65.7 672.5,-65.7 672.5,-83.7"/>
<text text-anchor="middle" x="658" y="-72.5" font-family="Times New Roman,serif" font-size="9.00">&#45;21</text>
</g>
<!-- &#45;21&#45;&gt;0 -->
<g id="edge81" class="edge">
<title>&#45;21&#45;&gt;0</title>
<path fill="none" stroke="red" stroke-width="0.19" d="M672.95,-67.94C675.6,-67.08 678.36,-66.28 681,-65.7 834.96,-31.56 883.94,-78.18 1034,-29.7 1035.05,-29.36 1036.11,-28.97 1037.16,-28.54"/>
<polygon fill="red" stroke="red" stroke-width="0.19" points="1038.91,-31.58 1046.26,-23.94 1035.75,-25.33 1038.91,-31.58"/>
</g>
<!-- &#45;21&#45;&gt;1 -->
<g id="edge82" class="edge">
<title>&#45;21&#45;&gt;1</title>
<path fill="none" stroke="green" stroke-width="0.15" d="M672.94,-67.91C675.59,-67.05 678.35,-66.27 681,-65.7 855.93,-28.02 911.4,-83.68 1082,-29.7 1083.05,-29.36 1084.11,-28.98 1085.17,-28.55"/>
<polygon fill="green" stroke="green" stroke-width="0.15" points="1086.91,-31.6 1094.27,-23.97 1083.76,-25.34 1086.91,-31.6"/>
</g>
<!-- &#45;21&#45;&gt;2 -->
<g id="edge83" class="edge">
<title>&#45;21&#45;&gt;2</title>
<path fill="none" stroke="red" stroke-width="0.19" d="M672.99,-68.1C675.64,-67.22 678.38,-66.38 681,-65.7 774.15,-41.4 887.78,-25.27 937.14,-18.91"/>
<polygon fill="red" stroke="red" stroke-width="0.19" points="937.72,-22.36 947.2,-17.63 936.83,-15.42 937.72,-22.36"/>
</g>
<!-- &#45;21&#45;&gt;3 -->
<g id="edge84" class="edge">
<title>&#45;21&#45;&gt;3</title>
<path fill="none" stroke="green" stroke-width="0.15" d="M672.96,-67.97C675.61,-67.11 678.36,-66.31 681,-65.7 814.02,-35.1 856.45,-72.69 986,-29.7 986.88,-29.41 987.76,-29.08 988.64,-28.73"/>
<polygon fill="green" stroke="green" stroke-width="0.15" points="990.36,-31.78 997.75,-24.19 987.24,-25.52 990.36,-31.78"/>
</g>
<!-- &#45;22 -->
<g id="node22" class="node">
<title>&#45;22</title>
<polygon fill="lightgray" stroke="black" points="719.5,-83.7 690.5,-83.7 690.5,-65.7 719.5,-65.7 719.5,-83.7"/>
<text text-anchor="middle" x="705" y="-72.5" font-family="Times New Roman,serif" font-size="9.00">&#45;22</text>
</g>
<!-- &#45;22&#45;&gt;0 -->
<g id="edge85" class="edge">
<title>&#45;22&#45;&gt;0</title>
<path fill="none" stroke="red" stroke-width="0.17" d="M719.96,-67.97C722.61,-67.11 725.36,-66.3 728,-65.7 861.46,-35.02 904.02,-72.81 1034,-29.7 1034.88,-29.41 1035.76,-29.08 1036.64,-28.73"/>
<polygon fill="red" stroke="red" stroke-width="0.17" points="1038.36,-31.78 1045.75,-24.19 1035.24,-25.52 1038.36,-31.78"/>
</g>
<!-- &#45;22&#45;&gt;1 -->
<g id="edge86" class="edge">
<title>&#45;22&#45;&gt;1</title>
<path fill="none" stroke="red" stroke-width="0.1" d="M719.95,-67.94C722.6,-67.08 725.36,-66.28 728,-65.7 882.4,-31.49 931.51,-78.3 1082,-29.7 1083.05,-29.36 1084.11,-28.97 1085.16,-28.54"/>
<polygon fill="red" stroke="red" stroke-width="0.1" points="1086.91,-31.58 1094.26,-23.94 1083.75,-25.33 1086.91,-31.58"/>
</g>
<!-- &#45;22&#45;&gt;2 -->
<g id="edge87" class="edge">
<title>&#45;22&#45;&gt;2</title>
<path fill="none" stroke="red" stroke-width="0.16" d="M719.51,-68.34C722.31,-67.4 725.23,-66.47 728,-65.7 803.26,-44.68 894.27,-27.63 937.25,-20.07"/>
<polygon fill="red" stroke="red" stroke-width="0.16" points="938.08,-23.48 947.33,-18.32 936.88,-16.58 938.08,-23.48"/>
</g>
<!-- &#45;22&#45;&gt;3 -->
<g id="edge88" class="edge">
<title>&#45;22&#45;&gt;3</title>
<path fill="none" stroke="red" stroke-width="0.25" d="M719.97,-68.02C722.62,-67.15 725.37,-66.33 728,-65.7 840.55,-38.55 876.51,-67.33 986,-29.7 986.88,-29.4 987.76,-29.06 988.63,-28.7"/>
<polygon fill="red" stroke="red" stroke-width="0.25" points="990.36,-31.75 997.73,-24.14 987.22,-25.49 990.36,-31.75"/>
</g>
<!-- &#45;23 -->
<g id="node23" class="node">
<title>&#45;23</title>
<polygon fill="lightgray" stroke="black" points="766.5,-83.7 737.5,-83.7 737.5,-65.7 766.5,-65.7 766.5,-83.7"/>
<text text-anchor="middle" x="752" y="-72.5" font-family="Times New Roman,serif" font-size="9.00">&#45;23</text>
</g>
<!-- &#45;23&#45;&gt;0 -->
<g id="edge89" class="edge">
<title>&#45;23&#45;&gt;0</title>
<path fill="none" stroke="green" stroke-width="0.18" d="M766.97,-68.02C769.62,-67.15 772.37,-66.33 775,-65.7 887.98,-38.48 924.08,-67.44 1034,-29.7 1034.88,-29.4 1035.76,-29.06 1036.63,-28.7"/>
<polygon fill="green" stroke="green" stroke-width="0.18" points="1038.36,-31.75 1045.73,-24.14 1035.22,-25.5 1038.36,-31.75"/>
</g>
<!-- &#45;23&#45;&gt;1 -->
<g id="edge90" class="edge">
<title>&#45;23&#45;&gt;1</title>
<path fill="none" stroke="green" stroke-width="0.11" d="M766.96,-67.97C769.61,-67.11 772.36,-66.3 775,-65.7 908.89,-34.95 951.6,-72.92 1082,-29.7 1082.88,-29.41 1083.76,-29.08 1084.64,-28.73"/>
<polygon fill="green" stroke="green" stroke-width="0.11" points="1086.36,-31.78 1093.75,-24.19 1083.24,-25.52 1086.36,-31.78"/>
</g>
<!-- &#45;23&#45;&gt;2 -->
<g id="edge91" class="edge">
<title>&#45;23&#45;&gt;2</title>
<path fill="none" stroke="red" stroke-width="0.12" d="M766.55,-68.46C769.34,-67.5 772.25,-66.54 775,-65.7 832.64,-48.02 901.35,-30.63 937.29,-21.81"/>
<polygon fill="red" stroke="red" stroke-width="0.12" points="938.46,-25.13 947.35,-19.36 936.8,-18.33 938.46,-25.13"/>
</g>
<!-- &#45;23&#45;&gt;3 -->
<g id="edge92" class="edge">
<title>&#45;23&#45;&gt;3</title>
<path fill="none" stroke="red" stroke-width="0.12" d="M766.98,-68.09C769.63,-67.21 772.38,-66.37 775,-65.7 867.13,-41.99 896.51,-61.98 986,-29.7 986.87,-29.38 987.75,-29.04 988.62,-28.67"/>
<polygon fill="red" stroke="red" stroke-width="0.12" points="990.37,-31.71 997.7,-24.06 987.2,-25.46 990.37,-31.71"/>
</g>
<!-- &#45;24 -->
<g id="node24" class="node">
<title>&#45;24</title>
<polygon fill="lightgray" stroke="black" points="813.5,-83.7 784.5,-83.7 784.5,-65.7 813.5,-65.7 813.5,-83.7"/>
<text text-anchor="middle" x="799" y="-72.5" font-family="Times New Roman,serif" font-size="9.00">&#45;24</text>
</g>
<!-- &#45;24&#45;&gt;0 -->
<g id="edge93" class="edge">
<title>&#45;24&#45;&gt;0</title>
<path fill="none" stroke="red" stroke-width="0.15" d="M813.98,-68.08C816.63,-67.21 819.38,-66.37 822,-65.7 914.57,-41.92 944.09,-62.09 1034,-29.7 1034.87,-29.38 1035.75,-29.04 1036.62,-28.67"/>
<polygon fill="red" stroke="red" stroke-width="0.15" points="1038.37,-31.71 1045.7,-24.06 1035.2,-25.47 1038.37,-31.71"/>
</g>
<!-- &#45;24&#45;&gt;1 -->
<g id="edge94" class="edge">
<title>&#45;24&#45;&gt;1</title>
<path fill="none" stroke="red" stroke-width="0.34" d="M813.97,-68.02C816.62,-67.15 819.37,-66.33 822,-65.7 935.42,-38.4 971.65,-67.55 1082,-29.7 1082.88,-29.4 1083.76,-29.06 1084.63,-28.7"/>
<polygon fill="red" stroke="red" stroke-width="0.34" points="1086.36,-31.75 1093.73,-24.14 1083.22,-25.5 1086.36,-31.75"/>
</g>
<!-- &#45;24&#45;&gt;2 -->
<g id="edge95" class="edge">
<title>&#45;24&#45;&gt;2</title>
<path fill="none" stroke="green" stroke-width="0.2" d="M813.75,-68.46C842.16,-58.38 904.66,-36.2 938.73,-24.11"/>
<polygon fill="green" stroke="green" stroke-width="0.2" points="940.07,-27.35 948.32,-20.7 937.73,-20.75 940.07,-27.35"/>
</g>
<!-- &#45;24&#45;&gt;3 -->
<g id="edge96" class="edge">
<title>&#45;24&#45;&gt;3</title>
<path fill="none" stroke="red" stroke-width="0.23" d="M813.52,-68.36C816.31,-67.41 819.23,-66.48 822,-65.7 893.81,-45.4 916.42,-56.67 986,-29.7 986.86,-29.36 987.73,-29 988.6,-28.62"/>
<polygon fill="red" stroke="red" stroke-width="0.23" points="990.38,-31.64 997.66,-23.94 987.17,-25.42 990.38,-31.64"/>
</g>
<!-- &#45;25 -->
<g id="node25" class="node">
<title>&#45;25</title>
<polygon fill="lightgray" stroke="black" points="860.5,-83.7 831.5,-83.7 831.5,-65.7 860.5,-65.7 860.5,-83.7"/>
<text text-anchor="middle" x="846" y="-72.5" font-family="Times New Roman,serif" font-size="9.00">&#45;25</text>
</g>
<!-- &#45;25&#45;&gt;0 -->
<g id="edge97" class="edge">
<title>&#45;25&#45;&gt;0</title>
<path fill="none" stroke="green" stroke-width="0.5" d="M860.52,-68.35C863.31,-67.41 866.23,-66.48 869,-65.7 941.24,-45.33 964,-56.78 1034,-29.7 1034.86,-29.36 1035.73,-29 1036.6,-28.62"/>
<polygon fill="green" stroke="green" stroke-width="0.5" points="1038.38,-31.64 1045.66,-23.94 1035.17,-25.42 1038.38,-31.64"/>
</g>
<!-- &#45;25&#45;&gt;1 -->
<g id="edge98" class="edge">
<title>&#45;25&#45;&gt;1</title>
<path fill="none" stroke="red" stroke-width="0.12" d="M860.98,-68.08C863.63,-67.21 866.38,-66.37 869,-65.7 962,-41.84 991.66,-62.2 1082,-29.7 1082.87,-29.38 1083.75,-29.04 1084.62,-28.67"/>
<polygon fill="red" stroke="red" stroke-width="0.12" points="1086.37,-31.71 1093.7,-24.06 1083.2,-25.47 1086.37,-31.71"/>
</g>
<!-- &#45;25&#45;&gt;2 -->
<g id="edge99" class="edge">
<title>&#45;25&#45;&gt;2</title>
<path fill="none" stroke="red" stroke-width="0.21" d="M860.69,-66.37C880.64,-56.42 916.48,-38.55 939.74,-26.95"/>
<polygon fill="red" stroke="red" stroke-width="0.21" points="941.47,-30 948.86,-22.4 938.35,-23.73 941.47,-30"/>
</g>
<!-- &#45;25&#45;&gt;3 -->
<g id="edge100" class="edge">
<title>&#45;25&#45;&gt;3</title>
<path fill="none" stroke="green" stroke-width="0.23" d="M860.57,-68.54C863.36,-67.58 866.27,-66.59 869,-65.7 920.7,-48.76 936.12,-51.43 986,-29.7 986.85,-29.33 987.71,-28.94 988.56,-28.53"/>
<polygon fill="green" stroke="green" stroke-width="0.23" points="990.39,-31.52 997.57,-23.73 987.1,-25.34 990.39,-31.52"/>
</g>
<!-- &#45;26 -->
<g id="node26" class="node">
<title>&#45;26</title>
<polygon fill="lightgray" stroke="black" points="907.5,-83.7 878.5,-83.7 878.5,-65.7 907.5,-65.7 907.5,-83.7"/>
<text text-anchor="middle" x="893" y="-72.5" font-family="Times New Roman,serif" font-size="9.00">&#45;26</text>
</g>
<!-- &#45;26&#45;&gt;0 -->
<g id="edge101" class="edge">
<title>&#45;26&#45;&gt;0</title>
<path fill="none" stroke="green" stroke-width="0.11" d="M907.57,-68.53C910.36,-67.57 913.27,-66.59 916,-65.7 968.13,-48.69 983.71,-51.54 1034,-29.7 1034.85,-29.33 1035.71,-28.94 1036.57,-28.53"/>
<polygon fill="green" stroke="green" stroke-width="0.11" points="1038.39,-31.52 1045.57,-23.74 1035.1,-25.34 1038.39,-31.52"/>
</g>
<!-- &#45;26&#45;&gt;1 -->
<g id="edge102" class="edge">
<title>&#45;26&#45;&gt;1</title>
<path fill="none" stroke="green" stroke-width="0.19" d="M907.52,-68.35C910.31,-67.41 913.23,-66.48 916,-65.7 988.67,-45.26 1011.57,-56.89 1082,-29.7 1082.86,-29.36 1083.73,-29 1084.6,-28.62"/>
<polygon fill="green" stroke="green" stroke-width="0.19" points="1086.38,-31.64 1093.66,-23.94 1083.17,-25.42 1086.38,-31.64"/>
</g>
<!-- &#45;26&#45;&gt;2 -->
<g id="edge103" class="edge">
<title>&#45;26&#45;&gt;2</title>
<path fill="none" stroke="red" stroke-width="0.46" d="M902.59,-65.65C913.04,-56.89 930.02,-42.66 943.15,-31.65"/>
<polygon fill="red" stroke="red" stroke-width="0.46" points="945.71,-34.07 951.12,-24.97 941.21,-28.71 945.71,-34.07"/>
</g>
<!-- &#45;26&#45;&gt;3 -->
<g id="edge104" class="edge">
<title>&#45;26&#45;&gt;3</title>
<path fill="none" stroke="green" stroke-width="0.19" d="M907.68,-67.2C926.16,-58.92 958.79,-43.96 986,-29.7 986.82,-29.27 987.65,-28.83 988.49,-28.37"/>
<polygon fill="green" stroke="green" stroke-width="0.19" points="990.39,-31.32 997.4,-23.38 986.97,-25.21 990.39,-31.32"/>
</g>
<!-- &#45;27 -->
<g id="node27" class="node">
<title>&#45;27</title>
<polygon fill="lightgray" stroke="black" points="954.5,-83.7 925.5,-83.7 925.5,-65.7 954.5,-65.7 954.5,-83.7"/>
<text text-anchor="middle" x="940" y="-72.5" font-family="Times New Roman,serif" font-size="9.00">&#45;27</text>
</g>
<!-- &#45;27&#45;&gt;0 -->
<g id="edge105" class="edge">
<title>&#45;27&#45;&gt;0</title>
<path fill="none" stroke="green" stroke-width="0.25" d="M954.52,-67.37C973.15,-59.14 1006.36,-44.11 1034,-29.7 1034.82,-29.27 1035.65,-28.83 1036.49,-28.38"/>
<polygon fill="green" stroke="green" stroke-width="0.25" points="1038.39,-31.32 1045.41,-23.39 1034.97,-25.22 1038.39,-31.32"/>
</g>
<!-- &#45;27&#45;&gt;1 -->
<g id="edge106" class="edge">
<title>&#45;27&#45;&gt;1</title>
<path fill="none" stroke="red" stroke-width="0.37" d="M954.7,-68.73C957.77,-67.71 960.99,-66.66 964,-65.7 1016.24,-49.03 1031.71,-51.54 1082,-29.7 1082.85,-29.33 1083.71,-28.94 1084.57,-28.53"/>
<polygon fill="red" stroke="red" stroke-width="0.37" points="1086.39,-31.52 1093.57,-23.74 1083.1,-25.34 1086.39,-31.52"/>
</g>
<!-- &#45;27&#45;&gt;2 -->
<g id="edge107" class="edge">
<title>&#45;27&#45;&gt;2</title>
<path fill="none" stroke="red" stroke-width="0.11" d="M943.06,-65.65C945.72,-58.65 949.72,-48.15 953.35,-38.59"/>
<polygon fill="red" stroke="red" stroke-width="0.11" points="956.66,-39.75 956.94,-29.16 950.11,-37.26 956.66,-39.75"/>
</g>
<!-- &#45;27&#45;&gt;3 -->
<g id="edge108" class="edge">
<title>&#45;27&#45;&gt;3</title>
<path fill="none" stroke="green" stroke-width="0.18" d="M949.73,-65.65C960.33,-56.89 977.56,-42.66 990.88,-31.65"/>
<polygon fill="green" stroke="green" stroke-width="0.18" points="993.49,-34.04 998.97,-24.97 989.03,-28.64 993.49,-34.04"/>
</g>
<!-- &#45;28 -->
<g id="node28" class="node">
<title>&#45;28</title>
<polygon fill="lightgray" stroke="black" points="1001.5,-83.7 972.5,-83.7 972.5,-65.7 1001.5,-65.7 1001.5,-83.7"/>
<text text-anchor="middle" x="987" y="-72.5" font-family="Times New Roman,serif" font-size="9.00">&#45;28</text>
</g>
<!-- &#45;28&#45;&gt;0 -->
<g id="edge109" class="edge">
<title>&#45;28&#45;&gt;0</title>
<path fill="none" stroke="red" stroke-width="0.47" d="M996.87,-65.65C1007.73,-56.81 1025.43,-42.39 1038.99,-31.34"/>
<polygon fill="red" stroke="red" stroke-width="0.47" points="1041.27,-34 1046.81,-24.97 1036.85,-28.57 1041.27,-34"/>
</g>
<!-- &#45;28&#45;&gt;1 -->
<g id="edge110" class="edge">
<title>&#45;28&#45;&gt;1</title>
<path fill="none" stroke="green" stroke-width="0.15" d="M1001.68,-67.39C1020.52,-59.18 1054.09,-44.18 1082,-29.7 1082.82,-29.27 1083.66,-28.83 1084.5,-28.38"/>
<polygon fill="green" stroke="green" stroke-width="0.15" points="1086.39,-31.33 1093.41,-23.4 1082.98,-25.22 1086.39,-31.33"/>
</g>
<!-- &#45;28&#45;&gt;2 -->
<g id="edge111" class="edge">
<title>&#45;28&#45;&gt;2</title>
<path fill="none" stroke="green" stroke-width="0.48" d="M983.52,-65.65C980.42,-58.48 975.74,-47.64 971.53,-37.91"/>
<polygon fill="green" stroke="green" stroke-width="0.48" points="974.74,-36.51 967.56,-28.71 968.31,-39.28 974.74,-36.51"/>
</g>
<!-- &#45;28&#45;&gt;3 -->
<g id="edge112" class="edge">
<title>&#45;28&#45;&gt;3</title>
<path fill="none" stroke="green" stroke-width="0.13" d="M990.2,-65.65C992.98,-58.65 997.16,-48.15 1000.96,-38.59"/>
<polygon fill="green" stroke="green" stroke-width="0.13" points="1004.27,-39.74 1004.71,-29.16 997.76,-37.16 1004.27,-39.74"/>
</g>
<!-- &#45;29 -->
<g id="node29" class="node">
<title>&#45;29</title>
<polygon fill="lightgray" stroke="black" points="1048.5,-83.7 1019.5,-83.7 1019.5,-65.7 1048.5,-65.7 1048.5,-83.7"/>
<text text-anchor="middle" x="1034" y="-72.5" font-family="Times New Roman,serif" font-size="9.00">&#45;29</text>
</g>
<!-- &#45;29&#45;&gt;0 -->
<g id="edge113" class="edge">
<title>&#45;29&#45;&gt;0</title>
<path fill="none" stroke="red" stroke-width="0.46" d="M1037.34,-65.65C1040.28,-58.56 1044.72,-47.87 1048.72,-38.21"/>
<polygon fill="red" stroke="red" stroke-width="0.46" points="1052.06,-39.29 1052.66,-28.71 1045.6,-36.61 1052.06,-39.29"/>
</g>
<!-- &#45;29&#45;&gt;1 -->
<g id="edge114" class="edge">
<title>&#45;29&#45;&gt;1</title>
<path fill="none" stroke="red" stroke-width="0.17" d="M1044.01,-65.65C1055.02,-56.81 1072.97,-42.39 1086.73,-31.34"/>
<polygon fill="red" stroke="red" stroke-width="0.17" points="1089.05,-33.96 1094.65,-24.97 1084.66,-28.5 1089.05,-33.96"/>
</g>
<!-- &#45;29&#45;&gt;2 -->
<g id="edge115" class="edge">
<title>&#45;29&#45;&gt;2</title>
<path fill="none" stroke="red" stroke-width="0.13" d="M1023.99,-65.65C1012.98,-56.81 995.03,-42.39 981.27,-31.34"/>
<polygon fill="red" stroke="red" stroke-width="0.13" points="983.34,-28.5 973.35,-24.97 978.95,-33.96 983.34,-28.5"/>
</g>
<!-- &#45;29&#45;&gt;3 -->
<g id="edge116" class="edge">
<title>&#45;29&#45;&gt;3</title>
<path fill="none" stroke="red" stroke-width="0.18" d="M1030.66,-65.65C1027.72,-58.56 1023.28,-47.87 1019.28,-38.21"/>
<polygon fill="red" stroke="red" stroke-width="0.18" points="1022.4,-36.61 1015.34,-28.71 1015.94,-39.29 1022.4,-36.61"/>
</g>
<!-- &#45;30 -->
<g id="node30" class="node">
<title>&#45;30</title>
<polygon fill="lightgray" stroke="black" points="1095.5,-83.7 1066.5,-83.7 1066.5,-65.7 1095.5,-65.7 1095.5,-83.7"/>
<text text-anchor="middle" x="1081" y="-72.5" font-family="Times New Roman,serif" font-size="9.00">&#45;30</text>
</g>
<!-- &#45;30&#45;&gt;0 -->
<g id="edge117" class="edge">
<title>&#45;30&#45;&gt;0</title>
<path fill="none" stroke="red" stroke-width="0.23" d="M1077.8,-65.65C1075.02,-58.65 1070.84,-48.15 1067.04,-38.59"/>
<polygon fill="red" stroke="red" stroke-width="0.23" points="1070.24,-37.16 1063.29,-29.16 1063.73,-39.74 1070.24,-37.16"/>
</g>
<!-- &#45;30&#45;&gt;1 -->
<g id="edge118" class="edge">
<title>&#45;30&#45;&gt;1</title>
<path fill="none" stroke="red" stroke-width="0.13" d="M1084.48,-65.65C1087.58,-58.48 1092.26,-47.64 1096.47,-37.91"/>
<polygon fill="red" stroke="red" stroke-width="0.13" points="1099.69,-39.28 1100.44,-28.71 1093.26,-36.51 1099.69,-39.28"/>
</g>
<!-- &#45;30&#45;&gt;2 -->
<g id="edge119" class="edge">
<title>&#45;30&#45;&gt;2</title>
<path fill="none" stroke="red" stroke-width="0.43" d="M1066.32,-67.39C1047.48,-59.18 1013.91,-44.18 986,-29.7 985.18,-29.27 984.34,-28.83 983.5,-28.38"/>
<polygon fill="red" stroke="red" stroke-width="0.43" points="985.02,-25.22 974.59,-23.4 981.61,-31.33 985.02,-25.22"/>
</g>
<!-- &#45;30&#45;&gt;3 -->
<g id="edge120" class="edge">
<title>&#45;30&#45;&gt;3</title>
<path fill="none" stroke="green" stroke-width="0.25" d="M1071.13,-65.65C1060.27,-56.81 1042.57,-42.39 1029.01,-31.34"/>
<polygon fill="green" stroke="green" stroke-width="0.25" points="1031.15,-28.57 1021.19,-24.97 1026.73,-34 1031.15,-28.57"/>
</g>
<!-- &#45;31 -->
<g id="node31" class="node">
<title>&#45;31</title>
<polygon fill="lightgray" stroke="black" points="1142.5,-83.7 1113.5,-83.7 1113.5,-65.7 1142.5,-65.7 1142.5,-83.7"/>
<text text-anchor="middle" x="1128" y="-72.5" font-family="Times New Roman,serif" font-size="9.00">&#45;31</text>
</g>
<!-- &#45;31&#45;&gt;0 -->
<g id="edge121" class="edge">
<title>&#45;31&#45;&gt;0</title>
<path fill="none" stroke="red" stroke-width="0.11" d="M1118.27,-65.65C1107.67,-56.89 1090.44,-42.66 1077.12,-31.65"/>
<polygon fill="red" stroke="red" stroke-width="0.11" points="1078.97,-28.64 1069.03,-24.97 1074.51,-34.04 1078.97,-28.64"/>
</g>
<!-- &#45;31&#45;&gt;1 -->
<g id="edge122" class="edge">
<title>&#45;31&#45;&gt;1</title>
<path fill="none" stroke="green" stroke-width="0.27" d="M1124.94,-65.65C1122.28,-58.65 1118.28,-48.15 1114.65,-38.59"/>
<polygon fill="green" stroke="green" stroke-width="0.27" points="1117.89,-37.26 1111.06,-29.16 1111.34,-39.75 1117.89,-37.26"/>
</g>
<!-- &#45;31&#45;&gt;2 -->
<g id="edge123" class="edge">
<title>&#45;31&#45;&gt;2</title>
<path fill="none" stroke="green" stroke-width="0.2" d="M1113.43,-68.53C1110.64,-67.57 1107.73,-66.59 1105,-65.7 1052.45,-48.62 1036.71,-51.65 986,-29.7 985.15,-29.33 984.29,-28.94 983.43,-28.53"/>
<polygon fill="green" stroke="green" stroke-width="0.2" points="984.9,-25.35 974.42,-23.74 981.61,-31.53 984.9,-25.35"/>
</g>
<!-- &#45;31&#45;&gt;3 -->
<g id="edge124" class="edge">
<title>&#45;31&#45;&gt;3</title>
<path fill="none" stroke="green" stroke-width="0.17" d="M1113.48,-67.37C1094.85,-59.14 1061.64,-44.11 1034,-29.7 1033.18,-29.27 1032.35,-28.83 1031.51,-28.38"/>
<polygon fill="green" stroke="green" stroke-width="0.17" points="1033.03,-25.22 1022.59,-23.39 1029.61,-31.32 1033.03,-25.22"/>
</g>
<!-- &#45;32 -->
<g id="node32" class="node">
<title>&#45;32</title>
<polygon fill="lightgray" stroke="black" points="1189.5,-83.7 1160.5,-83.7 1160.5,-65.7 1189.5,-65.7 1189.5,-83.7"/>
<text text-anchor="middle" x="1175" y="-72.5" font-family="Times New Roman,serif" font-size="9.00">&#45;32</text>
</g>
<!-- &#45;32&#45;&gt;0 -->
<g id="edge125" class="edge">
<title>&#45;32&#45;&gt;0</title>
<path fill="none" stroke="green" stroke-width="0.14" d="M1160.32,-67.2C1141.84,-58.92 1109.21,-43.96 1082,-29.7 1081.18,-29.27 1080.35,-28.83 1079.51,-28.37"/>
<polygon fill="green" stroke="green" stroke-width="0.14" points="1081.03,-25.21 1070.6,-23.38 1077.61,-31.32 1081.03,-25.21"/>
</g>
<!-- &#45;32&#45;&gt;1 -->
<g id="edge126" class="edge">
<title>&#45;32&#45;&gt;1</title>
<path fill="none" stroke="red" stroke-width="0.23" d="M1165.41,-65.65C1154.96,-56.89 1137.98,-42.66 1124.85,-31.65"/>
<polygon fill="red" stroke="red" stroke-width="0.23" points="1126.79,-28.71 1116.88,-24.97 1122.29,-34.07 1126.79,-28.71"/>
</g>
<!-- &#45;32&#45;&gt;2 -->
<g id="edge127" class="edge">
<title>&#45;32&#45;&gt;2</title>
<path fill="none" stroke="red" stroke-width="0.17" d="M1160.48,-68.35C1157.69,-67.41 1154.77,-66.48 1152,-65.7 1079.33,-45.26 1056.43,-56.89 986,-29.7 985.14,-29.36 984.27,-29 983.4,-28.62"/>
<polygon fill="red" stroke="red" stroke-width="0.17" points="984.83,-25.42 974.34,-23.94 981.62,-31.64 984.83,-25.42"/>
</g>
<!-- &#45;32&#45;&gt;3 -->
<g id="edge128" class="edge">
<title>&#45;32&#45;&gt;3</title>
<path fill="none" stroke="red" stroke-width="0.22" d="M1160.43,-68.53C1157.64,-67.57 1154.73,-66.59 1152,-65.7 1099.87,-48.69 1084.29,-51.54 1034,-29.7 1033.15,-29.33 1032.29,-28.94 1031.43,-28.53"/>
<polygon fill="red" stroke="red" stroke-width="0.22" points="1032.9,-25.34 1022.43,-23.74 1029.61,-31.52 1032.9,-25.34"/>
</g>
<!-- &#45;33 -->
<g id="node33" class="node">
<title>&#45;33</title>
<polygon fill="lightgray" stroke="black" points="1236.5,-83.7 1207.5,-83.7 1207.5,-65.7 1236.5,-65.7 1236.5,-83.7"/>
<text text-anchor="middle" x="1222" y="-72.5" font-family="Times New Roman,serif" font-size="9.00">&#45;33</text>
</g>
<!-- &#45;33&#45;&gt;0 -->
<g id="edge129" class="edge">
<title>&#45;33&#45;&gt;0</title>
<path fill="none" stroke="red" stroke-width="0.35" d="M1207.43,-68.54C1204.64,-67.58 1201.73,-66.59 1199,-65.7 1147.3,-48.76 1131.88,-51.43 1082,-29.7 1081.15,-29.33 1080.29,-28.94 1079.44,-28.53"/>
<polygon fill="red" stroke="red" stroke-width="0.35" points="1080.9,-25.34 1070.43,-23.73 1077.61,-31.52 1080.9,-25.34"/>
</g>
<!-- &#45;33&#45;&gt;1 -->
<g id="edge130" class="edge">
<title>&#45;33&#45;&gt;1</title>
<path fill="none" stroke="red" stroke-width="0.23" d="M1207.31,-66.37C1187.36,-56.42 1151.52,-38.55 1128.26,-26.95"/>
<polygon fill="red" stroke="red" stroke-width="0.23" points="1129.65,-23.73 1119.14,-22.4 1126.53,-30 1129.65,-23.73"/>
</g>
<!-- &#45;33&#45;&gt;2 -->
<g id="edge131" class="edge">
<title>&#45;33&#45;&gt;2</title>
<path fill="none" stroke="green" stroke-width="0.18" d="M1207.02,-68.08C1204.37,-67.21 1201.62,-66.37 1199,-65.7 1106,-41.84 1076.34,-62.2 986,-29.7 985.13,-29.38 984.25,-29.04 983.38,-28.67"/>
<polygon fill="green" stroke="green" stroke-width="0.18" points="984.8,-25.47 974.3,-24.06 981.63,-31.71 984.8,-25.47"/>
</g>
<!-- &#45;33&#45;&gt;3 -->
<g id="edge132" class="edge">
<title>&#45;33&#45;&gt;3</title>
<path fill="none" stroke="red" stroke-width="0.19" d="M1207.48,-68.35C1204.69,-67.41 1201.77,-66.48 1199,-65.7 1126.76,-45.33 1104,-56.78 1034,-29.7 1033.14,-29.36 1032.27,-29 1031.4,-28.62"/>
<polygon fill="red" stroke="red" stroke-width="0.19" points="1032.83,-25.42 1022.34,-23.94 1029.62,-31.64 1032.83,-25.42"/>
</g>
<!-- &#45;34 -->
<g id="node34" class="node">
<title>&#45;34</title>
<polygon fill="lightgray" stroke="black" points="1283.5,-83.7 1254.5,-83.7 1254.5,-65.7 1283.5,-65.7 1283.5,-83.7"/>
<text text-anchor="middle" x="1269" y="-72.5" font-family="Times New Roman,serif" font-size="9.00">&#45;34</text>
</g>
<!-- &#45;34&#45;&gt;0 -->
<g id="edge133" class="edge">
<title>&#45;34&#45;&gt;0</title>
<path fill="none" stroke="red" stroke-width="0.24" d="M1254.48,-68.36C1251.69,-67.41 1248.77,-66.48 1246,-65.7 1174.19,-45.4 1151.58,-56.67 1082,-29.7 1081.14,-29.36 1080.27,-29 1079.4,-28.62"/>
<polygon fill="red" stroke="red" stroke-width="0.24" points="1080.83,-25.42 1070.34,-23.94 1077.62,-31.64 1080.83,-25.42"/>
</g>
<!-- &#45;34&#45;&gt;1 -->
<g id="edge134" class="edge">
<title>&#45;34&#45;&gt;1</title>
<path fill="none" stroke="red" stroke-width="0.19" d="M1254.25,-68.46C1225.84,-58.38 1163.34,-36.2 1129.27,-24.11"/>
<polygon fill="red" stroke="red" stroke-width="0.19" points="1130.27,-20.75 1119.68,-20.7 1127.93,-27.35 1130.27,-20.75"/>
</g>
<!-- &#45;34&#45;&gt;2 -->
<g id="edge135" class="edge">
<title>&#45;34&#45;&gt;2</title>
<path fill="none" stroke="green" stroke-width="0.16" d="M1254.03,-68.02C1251.38,-67.15 1248.63,-66.33 1246,-65.7 1132.58,-38.4 1096.35,-67.55 986,-29.7 985.12,-29.4 984.24,-29.06 983.37,-28.7"/>
<polygon fill="green" stroke="green" stroke-width="0.16" points="984.78,-25.5 974.27,-24.14 981.64,-31.75 984.78,-25.5"/>
</g>
<!-- &#45;34&#45;&gt;3 -->
<g id="edge136" class="edge">
<title>&#45;34&#45;&gt;3</title>
<path fill="none" stroke="green" stroke-width="0.41" d="M1254.02,-68.08C1251.37,-67.21 1248.62,-66.37 1246,-65.7 1153.43,-41.92 1123.91,-62.09 1034,-29.7 1033.13,-29.38 1032.25,-29.04 1031.38,-28.67"/>
<polygon fill="green" stroke="green" stroke-width="0.41" points="1032.8,-25.47 1022.3,-24.06 1029.63,-31.71 1032.8,-25.47"/>
</g>
<!-- &#45;35 -->
<g id="node35" class="node">
<title>&#45;35</title>
<polygon fill="lightgray" stroke="black" points="1330.5,-83.7 1301.5,-83.7 1301.5,-65.7 1330.5,-65.7 1330.5,-83.7"/>
<text text-anchor="middle" x="1316" y="-72.5" font-family="Times New Roman,serif" font-size="9.00">&#45;35</text>
</g>
<!-- &#45;35&#45;&gt;0 -->
<g id="edge137" class="edge">
<title>&#45;35&#45;&gt;0</title>
<path fill="none" stroke="green" stroke-width="0.25" d="M1301.02,-68.09C1298.37,-67.21 1295.62,-66.37 1293,-65.7 1200.87,-41.99 1171.49,-61.98 1082,-29.7 1081.13,-29.38 1080.25,-29.04 1079.38,-28.67"/>
<polygon fill="green" stroke="green" stroke-width="0.25" points="1080.8,-25.46 1070.3,-24.06 1077.63,-31.71 1080.8,-25.46"/>
</g>
<!-- &#45;35&#45;&gt;1 -->
<g id="edge138" class="edge">
<title>&#45;35&#45;&gt;1</title>
<path fill="none" stroke="red" stroke-width="0.27" d="M1301.45,-68.46C1298.66,-67.5 1295.75,-66.54 1293,-65.7 1235.36,-48.02 1166.65,-30.63 1130.71,-21.81"/>
<polygon fill="red" stroke="red" stroke-width="0.27" points="1131.2,-18.33 1120.65,-19.36 1129.54,-25.13 1131.2,-18.33"/>
</g>
<!-- &#45;35&#45;&gt;2 -->
<g id="edge139" class="edge">
<title>&#45;35&#45;&gt;2</title>
<path fill="none" stroke="red" stroke-width="0.4" d="M1301.04,-67.97C1298.39,-67.11 1295.64,-66.3 1293,-65.7 1159.11,-34.95 1116.4,-72.92 986,-29.7 985.12,-29.41 984.24,-29.08 983.36,-28.73"/>
<polygon fill="red" stroke="red" stroke-width="0.4" points="984.76,-25.52 974.25,-24.19 981.64,-31.78 984.76,-25.52"/>
</g>
<!-- &#45;35&#45;&gt;3 -->
<g id="edge140" class="edge">
<title>&#45;35&#45;&gt;3</title>
<path fill="none" stroke="green" stroke-width="0.17" d="M1301.03,-68.02C1298.38,-67.15 1295.63,-66.33 1293,-65.7 1180.02,-38.48 1143.92,-67.44 1034,-29.7 1033.12,-29.4 1032.24,-29.06 1031.37,-28.7"/>
<polygon fill="green" stroke="green" stroke-width="0.17" points="1032.78,-25.5 1022.27,-24.14 1029.64,-31.75 1032.78,-25.5"/>
</g>
<!-- &#45;36 -->
<g id="node36" class="node">
<title>&#45;36</title>
<polygon fill="lightgray" stroke="black" points="1377.5,-83.7 1348.5,-83.7 1348.5,-65.7 1377.5,-65.7 1377.5,-83.7"/>
<text text-anchor="middle" x="1363" y="-72.5" font-family="Times New Roman,serif" font-size="9.00">&#45;36</text>
</g>
<!-- &#45;36&#45;&gt;0 -->
<g id="edge141" class="edge">
<title>&#45;36&#45;&gt;0</title>
<path fill="none" stroke="green" stroke-width="0.26" d="M1348.03,-68.02C1345.38,-67.15 1342.63,-66.33 1340,-65.7 1227.45,-38.55 1191.49,-67.33 1082,-29.7 1081.12,-29.4 1080.24,-29.06 1079.37,-28.7"/>
<polygon fill="green" stroke="green" stroke-width="0.26" points="1080.78,-25.49 1070.27,-24.14 1077.64,-31.75 1080.78,-25.49"/>
</g>
<!-- &#45;36&#45;&gt;1 -->
<g id="edge142" class="edge">
<title>&#45;36&#45;&gt;1</title>
<path fill="none" stroke="green" stroke-width="0.21" d="M1348.49,-68.34C1345.69,-67.4 1342.77,-66.47 1340,-65.7 1264.74,-44.68 1173.73,-27.63 1130.75,-20.07"/>
<polygon fill="green" stroke="green" stroke-width="0.21" points="1131.12,-16.58 1120.67,-18.32 1129.92,-23.48 1131.12,-16.58"/>
</g>
<!-- &#45;36&#45;&gt;2 -->
<g id="edge143" class="edge">
<title>&#45;36&#45;&gt;2</title>
<path fill="none" stroke="red" stroke-width="0.3" d="M1348.05,-67.94C1345.4,-67.08 1342.64,-66.28 1340,-65.7 1185.6,-31.49 1136.49,-78.3 986,-29.7 984.95,-29.36 983.89,-28.97 982.84,-28.54"/>
<polygon fill="red" stroke="red" stroke-width="0.3" points="984.25,-25.33 973.74,-23.94 981.09,-31.58 984.25,-25.33"/>
</g>
<!-- &#45;36&#45;&gt;3 -->
<g id="edge144" class="edge">
<title>&#45;36&#45;&gt;3</title>
<path fill="none" stroke="green" stroke-width="0.53" d="M1348.04,-67.97C1345.39,-67.11 1342.64,-66.3 1340,-65.7 1206.54,-35.02 1163.98,-72.81 1034,-29.7 1033.12,-29.41 1032.24,-29.08 1031.36,-28.73"/>
<polygon fill="green" stroke="green" stroke-width="0.53" points="1032.76,-25.52 1022.25,-24.19 1029.64,-31.78 1032.76,-25.52"/>
</g>
<!-- &#45;37 -->
<g id="node37" class="node">
<title>&#45;37</title>
<polygon fill="lightgray" stroke="black" points="1424.5,-83.7 1395.5,-83.7 1395.5,-65.7 1424.5,-65.7 1424.5,-83.7"/>
<text text-anchor="middle" x="1410" y="-72.5" font-family="Times New Roman,serif" font-size="9.00">&#45;37</text>
</g>
<!-- &#45;37&#45;&gt;0 -->
<g id="edge145" class="edge">
<title>&#45;37&#45;&gt;0</title>
<path fill="none" stroke="red" stroke-width="0.21" d="M1395.04,-67.97C1392.39,-67.11 1389.64,-66.31 1387,-65.7 1253.98,-35.1 1211.55,-72.69 1082,-29.7 1081.12,-29.41 1080.24,-29.08 1079.36,-28.73"/>
<polygon fill="red" stroke="red" stroke-width="0.21" points="1080.76,-25.52 1070.25,-24.19 1077.64,-31.78 1080.76,-25.52"/>
</g>
<!-- &#45;37&#45;&gt;1 -->
<g id="edge146" class="edge">
<title>&#45;37&#45;&gt;1</title>
<path fill="none" stroke="green" stroke-width="0.12" d="M1395.01,-68.1C1392.36,-67.22 1389.62,-66.38 1387,-65.7 1293.85,-41.4 1180.22,-25.27 1130.86,-18.91"/>
<polygon fill="green" stroke="green" stroke-width="0.12" points="1131.17,-15.42 1120.8,-17.63 1130.28,-22.36 1131.17,-15.42"/>
</g>
<!-- &#45;37&#45;&gt;2 -->
<g id="edge147" class="edge">
<title>&#45;37&#45;&gt;2</title>
<path fill="none" stroke="red" stroke-width="0.25" d="M1395.06,-67.91C1392.41,-67.05 1389.65,-66.27 1387,-65.7 1212.07,-28.02 1156.6,-83.68 986,-29.7 984.95,-29.36 983.89,-28.98 982.83,-28.55"/>
<polygon fill="red" stroke="red" stroke-width="0.25" points="984.24,-25.34 973.73,-23.97 981.09,-31.6 984.24,-25.34"/>
</g>
<!-- &#45;37&#45;&gt;3 -->
<g id="edge148" class="edge">
<title>&#45;37&#45;&gt;3</title>
<path fill="none" stroke="red" stroke-width="0.19" d="M1395.05,-67.94C1392.4,-67.08 1389.64,-66.28 1387,-65.7 1233.04,-31.56 1184.06,-78.18 1034,-29.7 1032.95,-29.36 1031.89,-28.97 1030.84,-28.54"/>
<polygon fill="red" stroke="red" stroke-width="0.19" points="1032.25,-25.33 1021.74,-23.94 1029.09,-31.58 1032.25,-25.33"/>
</g>
<!-- &#45;38 -->
<g id="node38" class="node">
<title>&#45;38</title>
<polygon fill="lightgray" stroke="black" points="1471.5,-83.7 1442.5,-83.7 1442.5,-65.7 1471.5,-65.7 1471.5,-83.7"/>
<text text-anchor="middle" x="1457" y="-72.5" font-family="Times New Roman,serif" font-size="9.00">&#45;38</text>
</g>
<!-- &#45;38&#45;&gt;0 -->
<g id="edge149" class="edge">
<title>&#45;38&#45;&gt;0</title>
<path fill="none" stroke="red" stroke-width="0.24" d="M1442.05,-67.94C1439.4,-67.08 1436.64,-66.28 1434,-65.7 1280.47,-31.64 1231.64,-78.07 1082,-29.7 1080.95,-29.36 1079.89,-28.97 1078.84,-28.54"/>
<polygon fill="red" stroke="red" stroke-width="0.24" points="1080.25,-25.33 1069.74,-23.94 1077.09,-31.58 1080.25,-25.33"/>
</g>
<!-- &#45;38&#45;&gt;1 -->
<g id="edge150" class="edge">
<title>&#45;38&#45;&gt;1</title>
<path fill="none" stroke="red" stroke-width="0.13" d="M1442.03,-68.05C1439.38,-67.17 1436.63,-66.35 1434,-65.7 1322.85,-38.17 1186.53,-23.34 1131.16,-18.08"/>
<polygon fill="red" stroke="red" stroke-width="0.13" points="1131.18,-14.57 1120.9,-17.13 1130.54,-21.54 1131.18,-14.57"/>
</g>
<!-- &#45;38&#45;&gt;2 -->
<g id="edge151" class="edge">
<title>&#45;38&#45;&gt;2</title>
<path fill="none" stroke="green" stroke-width="0.14" d="M1442.06,-67.89C1439.41,-67.03 1436.65,-66.26 1434,-65.7 1238.53,-24.55 1176.73,-89.07 986,-29.7 984.94,-29.37 983.88,-28.99 982.83,-28.57"/>
<polygon fill="green" stroke="green" stroke-width="0.14" points="984.23,-25.36 973.73,-24 981.09,-31.61 984.23,-25.36"/>
</g>
<!-- &#45;38&#45;&gt;3 -->
<g id="edge152" class="edge">
<title>&#45;38&#45;&gt;3</title>
<path fill="none" stroke="green" stroke-width="0.44" d="M1442.06,-67.91C1439.41,-67.05 1436.65,-66.27 1434,-65.7 1259.51,-28.1 1204.17,-83.57 1034,-29.7 1032.95,-29.36 1031.89,-28.98 1030.83,-28.55"/>
<polygon fill="green" stroke="green" stroke-width="0.44" points="1032.24,-25.34 1021.73,-23.97 1029.09,-31.6 1032.24,-25.34"/>
</g>
<!-- &#45;39 -->
<g id="node39" class="node">
<title>&#45;39</title>
<polygon fill="lightgray" stroke="black" points="1518.5,-83.7 1489.5,-83.7 1489.5,-65.7 1518.5,-65.7 1518.5,-83.7"/>
<text text-anchor="middle" x="1504" y="-72.5" font-family="Times New Roman,serif" font-size="9.00">&#45;39</text>
</g>
<!-- &#45;39&#45;&gt;0 -->
<g id="edge153" class="edge">
<title>&#45;39&#45;&gt;0</title>
<path fill="none" stroke="red" stroke-width="0.44" d="M1489.06,-67.91C1486.4,-67.05 1483.64,-66.27 1481,-65.7 1306.95,-28.17 1251.75,-83.45 1082,-29.7 1080.95,-29.36 1079.89,-28.98 1078.83,-28.55"/>
<polygon fill="red" stroke="red" stroke-width="0.44" points="1080.24,-25.34 1069.73,-23.97 1077.09,-31.6 1080.24,-25.34"/>
</g>
<!-- &#45;39&#45;&gt;1 -->
<g id="edge154" class="edge">
<title>&#45;39&#45;&gt;1</title>
<path fill="none" stroke="red" stroke-width="0.38" d="M1489.04,-68C1486.39,-67.14 1483.63,-66.32 1481,-65.7 1351.37,-34.88 1191.69,-21.6 1131,-17.42"/>
<polygon fill="red" stroke="red" stroke-width="0.38" points="1131.06,-13.91 1120.85,-16.74 1130.59,-20.9 1131.06,-13.91"/>
</g>
<!-- &#45;39&#45;&gt;2 -->
<g id="edge155" class="edge">
<title>&#45;39&#45;&gt;2</title>
<path fill="none" stroke="green" stroke-width="0.18" d="M1489.07,-67.87C1486.41,-67.02 1483.65,-66.25 1481,-65.7 1264.98,-21.08 1196.86,-94.46 986,-29.7 984.94,-29.37 983.88,-29 982.83,-28.58"/>
<polygon fill="green" stroke="green" stroke-width="0.18" points="984.23,-25.36 973.72,-24.02 981.1,-31.62 984.23,-25.36"/>
</g>
<!-- &#45;39&#45;&gt;3 -->
<g id="edge156" class="edge">
<title>&#45;39&#45;&gt;3</title>
<path fill="none" stroke="green" stroke-width="0.14" d="M1489.06,-67.89C1486.41,-67.03 1483.65,-66.26 1481,-65.7 1285.97,-24.63 1224.3,-88.95 1034,-29.7 1032.94,-29.37 1031.88,-28.99 1030.83,-28.57"/>
<polygon fill="green" stroke="green" stroke-width="0.14" points="1032.23,-25.36 1021.73,-24 1029.09,-31.61 1032.23,-25.36"/>
</g>
<!-- &#45;40 -->
<g id="node40" class="node">
<title>&#45;40</title>
<polygon fill="lightgray" stroke="black" points="1565.5,-83.7 1536.5,-83.7 1536.5,-65.7 1565.5,-65.7 1565.5,-83.7"/>
<text text-anchor="middle" x="1551" y="-72.5" font-family="Times New Roman,serif" font-size="9.00">&#45;40</text>
</g>
<!-- &#45;40&#45;&gt;0 -->
<g id="edge157" class="edge">
<title>&#45;40&#45;&gt;0</title>
<path fill="none" stroke="green" stroke-width="0.55" d="M1536.06,-67.89C1533.41,-67.04 1530.65,-66.26 1528,-65.7 1333.4,-24.7 1271.87,-88.84 1082,-29.7 1080.94,-29.37 1079.88,-28.99 1078.83,-28.57"/>
<polygon fill="green" stroke="green" stroke-width="0.55" points="1080.23,-25.35 1069.73,-24 1077.09,-31.61 1080.23,-25.35"/>
</g>
<!-- &#45;40&#45;&gt;1 -->
<g id="edge158" class="edge">
<title>&#45;40&#45;&gt;1</title>
<path fill="none" stroke="green" stroke-width="0.25" d="M1536.04,-67.97C1533.39,-67.11 1530.64,-66.31 1528,-65.7 1379.84,-31.61 1196.75,-20.1 1130.98,-16.91"/>
<polygon fill="green" stroke="green" stroke-width="0.25" points="1130.93,-13.4 1120.77,-16.43 1130.6,-20.39 1130.93,-13.4"/>
</g>
<!-- &#45;40&#45;&gt;2 -->
<g id="edge159" class="edge">
<title>&#45;40&#45;&gt;2</title>
<path fill="none" stroke="red" stroke-width="0.11" d="M1536.07,-67.86C1533.41,-67.01 1530.65,-66.24 1528,-65.7 1291.42,-17.61 1217,-99.85 986,-29.7 984.94,-29.38 983.88,-29 982.82,-28.58"/>
<polygon fill="red" stroke="red" stroke-width="0.11" points="984.23,-25.37 973.72,-24.03 981.1,-31.63 984.23,-25.37"/>
</g>
<!-- &#45;40&#45;&gt;3 -->
<g id="edge160" class="edge">
<title>&#45;40&#45;&gt;3</title>
<path fill="none" stroke="red" stroke-width="0.13" d="M1536.07,-67.87C1533.41,-67.02 1530.65,-66.25 1528,-65.7 1312.42,-21.16 1244.43,-94.35 1034,-29.7 1032.94,-29.37 1031.88,-29 1030.83,-28.58"/>
<polygon fill="red" stroke="red" stroke-width="0.13" points="1032.23,-25.36 1021.72,-24.02 1029.1,-31.62 1032.23,-25.36"/>
</g>
<!-- &#45;41 -->
<g id="node41" class="node">
<title>&#45;41</title>
<polygon fill="lightgray" stroke="black" points="1612.5,-83.7 1583.5,-83.7 1583.5,-65.7 1612.5,-65.7 1612.5,-83.7"/>
<text text-anchor="middle" x="1598" y="-72.5" font-family="Times New Roman,serif" font-size="9.00">&#45;41</text>
</g>
<!-- &#45;41&#45;&gt;0 -->
<g id="edge161" class="edge">
<title>&#45;41&#45;&gt;0</title>
<path fill="none" stroke="green" stroke-width="0.17" d="M1583.07,-67.87C1580.41,-67.02 1577.65,-66.25 1575,-65.7 1359.85,-21.23 1292,-94.23 1082,-29.7 1080.94,-29.37 1079.88,-29 1078.83,-28.58"/>
<polygon fill="green" stroke="green" stroke-width="0.17" points="1080.23,-25.36 1069.72,-24.02 1077.1,-31.62 1080.23,-25.36"/>
</g>
<!-- &#45;41&#45;&gt;1 -->
<g id="edge162" class="edge">
<title>&#45;41&#45;&gt;1</title>
<path fill="none" stroke="green" stroke-width="0.12" d="M1583.05,-67.95C1580.4,-67.09 1577.64,-66.29 1575,-65.7 1408.52,-28.42 1202.36,-18.8 1131.39,-16.51"/>
<polygon fill="green" stroke="green" stroke-width="0.12" points="1131.29,-13.01 1121.19,-16.2 1131.08,-20 1131.29,-13.01"/>
</g>
<!-- &#45;41&#45;&gt;2 -->
<g id="edge163" class="edge">
<title>&#45;41&#45;&gt;2</title>
<path fill="none" stroke="red" stroke-width="0.22" d="M1583.07,-67.85C1580.42,-67 1577.65,-66.23 1575,-65.7 1317.85,-14.14 1237.15,-105.25 986,-29.7 984.94,-29.38 983.88,-29.01 982.82,-28.59"/>
<polygon fill="red" stroke="red" stroke-width="0.22" points="984.22,-25.38 973.71,-24.05 981.1,-31.64 984.22,-25.38"/>
</g>
<!-- &#45;41&#45;&gt;3 -->
<g id="edge164" class="edge">
<title>&#45;41&#45;&gt;3</title>
<path fill="none" stroke="green" stroke-width="0.19" d="M1583.07,-67.86C1580.41,-67.01 1577.65,-66.24 1575,-65.7 1338.86,-17.68 1264.57,-99.74 1034,-29.7 1032.94,-29.38 1031.88,-29 1030.82,-28.58"/>
<polygon fill="green" stroke="green" stroke-width="0.19" points="1032.23,-25.37 1021.72,-24.03 1029.1,-31.63 1032.23,-25.37"/>
</g>
<!-- &#45;42 -->
<g id="node42" class="node">
<title>&#45;42</title>
<polygon fill="lightgray" stroke="black" points="1659.5,-83.7 1630.5,-83.7 1630.5,-65.7 1659.5,-65.7 1659.5,-83.7"/>
<text text-anchor="middle" x="1645" y="-72.5" font-family="Times New Roman,serif" font-size="9.00">&#45;42</text>
</g>
<!-- &#45;42&#45;&gt;0 -->
<g id="edge165" class="edge">
<title>&#45;42&#45;&gt;0</title>
<path fill="none" stroke="red" stroke-width="0.21" d="M1630.07,-67.86C1627.41,-67.01 1624.65,-66.24 1622,-65.7 1386.29,-17.76 1312.14,-99.62 1082,-29.7 1080.94,-29.38 1079.88,-29 1078.82,-28.58"/>
<polygon fill="red" stroke="red" stroke-width="0.21" points="1080.23,-25.37 1069.72,-24.03 1077.1,-31.63 1080.23,-25.37"/>
</g>
<!-- &#45;42&#45;&gt;1 -->
<g id="edge166" class="edge">
<title>&#45;42&#45;&gt;1</title>
<path fill="none" stroke="red" stroke-width="0.12" d="M1630.05,-67.92C1627.4,-67.07 1624.64,-66.28 1622,-65.7 1436.77,-25.15 1206.93,-17.58 1131.37,-16.17"/>
<polygon fill="red" stroke="red" stroke-width="0.12" points="1131.03,-12.66 1120.98,-16 1130.92,-19.66 1131.03,-12.66"/>
</g>
<!-- &#45;42&#45;&gt;2 -->
<g id="edge167" class="edge">
<title>&#45;42&#45;&gt;2</title>
<path fill="none" stroke="green" stroke-width="0.3" d="M1630.07,-67.84C1627.42,-66.99 1624.65,-66.22 1622,-65.7 1344.28,-10.66 1257.3,-110.65 986,-29.7 984.94,-29.38 983.88,-29.01 982.82,-28.6"/>
<polygon fill="green" stroke="green" stroke-width="0.3" points="984.22,-25.38 973.71,-24.06 981.1,-31.65 984.22,-25.38"/>
</g>
<!-- &#45;42&#45;&gt;3 -->
<g id="edge168" class="edge">
<title>&#45;42&#45;&gt;3</title>
<path fill="none" stroke="red" stroke-width="0.36" d="M1630.07,-67.85C1627.42,-67 1624.65,-66.23 1622,-65.7 1365.29,-14.21 1284.72,-105.13 1034,-29.7 1032.94,-29.38 1031.88,-29.01 1030.82,-28.59"/>
<polygon fill="red" stroke="red" stroke-width="0.36" points="1032.22,-25.38 1021.71,-24.05 1029.1,-31.64 1032.22,-25.38"/>
</g>
<!-- &#45;43 -->
<g id="node43" class="node">
<title>&#45;43</title>
<polygon fill="lightgray" stroke="black" points="1706.5,-83.7 1677.5,-83.7 1677.5,-65.7 1706.5,-65.7 1706.5,-83.7"/>
<text text-anchor="middle" x="1692" y="-72.5" font-family="Times New Roman,serif" font-size="9.00">&#45;43</text>
</g>
<!-- &#45;43&#45;&gt;0 -->
<g id="edge169" class="edge">
<title>&#45;43&#45;&gt;0</title>
<path fill="none" stroke="green" stroke-width="0.37" d="M1677.07,-67.85C1674.42,-67 1671.65,-66.23 1669,-65.7 1412.73,-14.28 1332.29,-105.02 1082,-29.7 1080.94,-29.38 1079.88,-29.01 1078.82,-28.59"/>
<polygon fill="green" stroke="green" stroke-width="0.37" points="1080.22,-25.38 1069.71,-24.05 1077.1,-31.64 1080.22,-25.38"/>
</g>
<!-- &#45;43&#45;&gt;1 -->
<g id="edge170" class="edge">
<title>&#45;43&#45;&gt;1</title>
<path fill="none" stroke="green" stroke-width="0.21" d="M1677.06,-67.91C1674.41,-67.05 1671.65,-66.27 1669,-65.7 1464.67,-21.82 1210.64,-16.45 1131.04,-15.88"/>
<polygon fill="green" stroke="green" stroke-width="0.21" points="1131.01,-12.38 1120.99,-15.83 1130.97,-19.38 1131.01,-12.38"/>
</g>
<!-- &#45;43&#45;&gt;2 -->
<g id="edge171" class="edge">
<title>&#45;43&#45;&gt;2</title>
<path fill="none" stroke="green" stroke-width="0.29" d="M1677.07,-67.83C1674.42,-66.98 1671.66,-66.22 1669,-65.7 1370.71,-7.19 1277.46,-116.04 986,-29.7 984.94,-29.38 983.88,-29.01 982.82,-28.6"/>
<polygon fill="green" stroke="green" stroke-width="0.29" points="984.22,-25.39 973.7,-24.07 981.1,-31.66 984.22,-25.39"/>
</g>
<!-- &#45;43&#45;&gt;3 -->
<g id="edge172" class="edge">
<title>&#45;43&#45;&gt;3</title>
<path fill="none" stroke="green" stroke-width="0.17" d="M1677.07,-67.84C1674.42,-66.99 1671.65,-66.22 1669,-65.7 1391.72,-10.74 1304.87,-110.53 1034,-29.7 1032.94,-29.38 1031.88,-29.01 1030.82,-28.6"/>
<polygon fill="green" stroke="green" stroke-width="0.17" points="1032.22,-25.38 1021.71,-24.06 1029.1,-31.65 1032.22,-25.38"/>
</g>
<!-- &#45;44 -->
<g id="node44" class="node">
<title>&#45;44</title>
<polygon fill="lightgray" stroke="black" points="1753.5,-83.7 1724.5,-83.7 1724.5,-65.7 1753.5,-65.7 1753.5,-83.7"/>
<text text-anchor="middle" x="1739" y="-72.5" font-family="Times New Roman,serif" font-size="9.00">&#45;44</text>
</g>
<!-- &#45;44&#45;&gt;0 -->
<g id="edge173" class="edge">
<title>&#45;44&#45;&gt;0</title>
<path fill="none" stroke="green" stroke-width="0.13" d="M1724.07,-67.84C1721.42,-66.99 1718.65,-66.22 1716,-65.7 1439.16,-10.81 1352.44,-110.42 1082,-29.7 1080.94,-29.38 1079.88,-29.01 1078.82,-28.6"/>
<polygon fill="green" stroke="green" stroke-width="0.13" points="1080.22,-25.38 1069.71,-24.06 1077.1,-31.65 1080.22,-25.38"/>
</g>
<!-- &#45;44&#45;&gt;1 -->
<g id="edge174" class="edge">
<title>&#45;44&#45;&gt;1</title>
<path fill="none" stroke="red" stroke-width="0.13" d="M1724.06,-67.89C1721.41,-67.04 1718.65,-66.26 1716,-65.7 1492.63,-18.52 1214.53,-15.42 1130.9,-15.64"/>
<polygon fill="red" stroke="red" stroke-width="0.13" points="1130.82,-12.14 1120.83,-15.69 1130.85,-19.14 1130.82,-12.14"/>
</g>
<!-- &#45;44&#45;&gt;2 -->
<g id="edge175" class="edge">
<title>&#45;44&#45;&gt;2</title>
<path fill="none" stroke="red" stroke-width="0.2" d="M1724.08,-67.82C1721.42,-66.97 1718.66,-66.21 1716,-65.7 1556.57,-34.7 1141.81,-75.57 986,-29.7 984.94,-29.39 983.87,-29.02 982.82,-28.61"/>
<polygon fill="red" stroke="red" stroke-width="0.2" points="984.21,-25.39 973.7,-24.08 981.1,-31.66 984.21,-25.39"/>
</g>
<!-- &#45;44&#45;&gt;3 -->
<g id="edge176" class="edge">
<title>&#45;44&#45;&gt;3</title>
<path fill="none" stroke="green" stroke-width="0.34" d="M1724.07,-67.83C1721.42,-66.98 1718.66,-66.22 1716,-65.7 1418.15,-7.26 1325.03,-115.93 1034,-29.7 1032.94,-29.38 1031.88,-29.01 1030.82,-28.6"/>
<polygon fill="green" stroke="green" stroke-width="0.34" points="1032.22,-25.39 1021.7,-24.07 1029.1,-31.66 1032.22,-25.39"/>
</g>
<!-- &#45;45 -->
<g id="node45" class="node">
<title>&#45;45</title>
<polygon fill="lightgray" stroke="black" points="1800.5,-83.7 1771.5,-83.7 1771.5,-65.7 1800.5,-65.7 1800.5,-83.7"/>
<text text-anchor="middle" x="1786" y="-72.5" font-family="Times New Roman,serif" font-size="9.00">&#45;45</text>
</g>
<!-- &#45;45&#45;&gt;0 -->
<g id="edge177" class="edge">
<title>&#45;45&#45;&gt;0</title>
<path fill="none" stroke="green" stroke-width="0.41" d="M1771.07,-67.83C1768.42,-66.98 1765.66,-66.22 1763,-65.7 1465.58,-7.33 1372.6,-115.81 1082,-29.7 1080.94,-29.38 1079.88,-29.01 1078.82,-28.6"/>
<polygon fill="green" stroke="green" stroke-width="0.41" points="1080.22,-25.39 1069.7,-24.07 1077.1,-31.66 1080.22,-25.39"/>
</g>
<!-- &#45;45&#45;&gt;1 -->
<g id="edge178" class="edge">
<title>&#45;45&#45;&gt;1</title>
<path fill="none" stroke="green" stroke-width="0.38" d="M1771.06,-67.88C1768.41,-67.03 1765.65,-66.25 1763,-65.7 1520.82,-15.29 1218.98,-14.47 1131.08,-15.44"/>
<polygon fill="green" stroke="green" stroke-width="0.38" points="1130.96,-11.94 1121,-15.56 1131.05,-18.94 1130.96,-11.94"/>
</g>
<!-- &#45;45&#45;&gt;2 -->
<g id="edge179" class="edge">
<title>&#45;45&#45;&gt;2</title>
<path fill="none" stroke="red" stroke-width="0.19" d="M1771.08,-67.81C1768.42,-66.97 1765.66,-66.21 1763,-65.7 1593.28,-32.97 1151.89,-78.27 986,-29.7 984.94,-29.39 983.87,-29.02 982.81,-28.61"/>
<polygon fill="red" stroke="red" stroke-width="0.19" points="984.21,-25.4 973.7,-24.09 981.1,-31.67 984.21,-25.4"/>
</g>
<!-- &#45;45&#45;&gt;3 -->
<g id="edge180" class="edge">
<title>&#45;45&#45;&gt;3</title>
<path fill="none" stroke="red" stroke-width="0.25" d="M1771.08,-67.82C1768.42,-66.97 1765.66,-66.21 1763,-65.7 1603.78,-34.74 1189.59,-75.51 1034,-29.7 1032.94,-29.39 1031.87,-29.02 1030.82,-28.61"/>
<polygon fill="red" stroke="red" stroke-width="0.25" points="1032.21,-25.39 1021.7,-24.08 1029.1,-31.66 1032.21,-25.39"/>
</g>
</g>
</svg>
