<?xml version="1.0" encoding="UTF-8" standalone="no"?>
<!DOCTYPE svg PUBLIC "-//W3C//DTD SVG 1.1//EN"
 "http://www.w3.org/Graphics/SVG/1.1/DTD/svg11.dtd">
<!-- Generated by graphviz version 3.0.0 (20220226.1711)
 -->
<!-- Pages: 1 -->
<svg width="392pt" height="103pt"
 viewBox="0.00 0.00 391.85 103.40" xmlns="http://www.w3.org/2000/svg" xmlns:xlink="http://www.w3.org/1999/xlink">
<g id="graph0" class="graph" transform="scale(1 1) rotate(0) translate(4 99.4)">
<polygon fill="white" stroke="transparent" points="-4,4 -4,-99.4 387.85,-99.4 387.85,4 -4,4"/>
<!-- &#45;1 -->
<g id="node1" class="node">
<title>&#45;1</title>
<polygon fill="lightgray" stroke="black" points="24,-89.55 0,-89.55 0,-71.55 24,-71.55 24,-89.55"/>
<text text-anchor="middle" x="12" y="-78.35" font-family="Times New Roman,serif" font-size="9.00">&#45;1</text>
</g>
<!-- &#45;2 -->
<g id="node2" class="node">
<title>&#45;2</title>
<polygon fill="lightgray" stroke="black" points="66,-89.55 42,-89.55 42,-71.55 66,-71.55 66,-89.55"/>
<text text-anchor="middle" x="54" y="-78.35" font-family="Times New Roman,serif" font-size="9.00">&#45;2</text>
</g>
<!-- &#45;3 -->
<g id="node3" class="node">
<title>&#45;3</title>
<polygon fill="lightgray" stroke="black" points="108,-89.55 84,-89.55 84,-71.55 108,-71.55 108,-89.55"/>
<text text-anchor="middle" x="96" y="-78.35" font-family="Times New Roman,serif" font-size="9.00">&#45;3</text>
</g>
<!-- 3 -->
<g id="node9" class="node">
<title>3</title>
<ellipse fill="lightblue" stroke="black" cx="96" cy="-14.85" rx="14.7" ry="14.7"/>
<text text-anchor="middle" x="96" y="-12.65" font-family="Times New Roman,serif" font-size="9.00">3</text>
</g>
<!-- &#45;3&#45;&gt;3 -->
<g id="edge1" class="edge">
<title>&#45;3&#45;&gt;3</title>
<path fill="none" stroke="red" stroke-width="0.28" d="M96,-71.48C96,-63.56 96,-51.1 96,-39.97"/>
<polygon fill="red" stroke="red" stroke-width="0.28" points="99.5,-39.9 96,-29.9 92.5,-39.9 99.5,-39.9"/>
</g>
<!-- &#45;4 -->
<g id="node4" class="node">
<title>&#45;4</title>
<polygon fill="lightgray" stroke="black" points="150,-89.55 126,-89.55 126,-71.55 150,-71.55 150,-89.55"/>
<text text-anchor="middle" x="138" y="-78.35" font-family="Times New Roman,serif" font-size="9.00">&#45;4</text>
</g>
<!-- &#45;5 -->
<g id="node5" class="node">
<title>&#45;5</title>
<polygon fill="lightgray" stroke="black" points="192,-89.55 168,-89.55 168,-71.55 192,-71.55 192,-89.55"/>
<text text-anchor="middle" x="180" y="-78.35" font-family="Times New Roman,serif" font-size="9.00">&#45;5</text>
</g>
<!-- 0 -->
<g id="node6" class="node">
<title>0</title>
<ellipse fill="lightblue" stroke="black" cx="225" cy="-80.55" rx="14.7" ry="14.7"/>
<text text-anchor="middle" x="225" y="-78.35" font-family="Times New Roman,serif" font-size="9.00">0</text>
</g>
<!-- 1 -->
<g id="node7" class="node">
<title>1</title>
<ellipse fill="lightblue" stroke="black" cx="273" cy="-80.55" rx="14.7" ry="14.7"/>
<text text-anchor="middle" x="273" y="-78.35" font-family="Times New Roman,serif" font-size="9.00">1</text>
</g>
<!-- 2 -->
<g id="node8" class="node">
<title>2</title>
<ellipse fill="lightblue" stroke="black" cx="321" cy="-80.55" rx="14.7" ry="14.7"/>
<text text-anchor="middle" x="321" y="-78.35" font-family="Times New Roman,serif" font-size="9.00">2</text>
</g>
<!-- 4 -->
<g id="node10" class="node">
<title>4</title>
<ellipse fill="lightblue" stroke="black" cx="369" cy="-80.55" rx="14.7" ry="14.7"/>
<text text-anchor="middle" x="369" y="-78.35" font-family="Times New Roman,serif" font-size="9.00">4</text>
</g>
</g>
</svg>
