<?xml version="1.0" encoding="UTF-8" standalone="no"?>
<!DOCTYPE svg PUBLIC "-//W3C//DTD SVG 1.1//EN"
 "http://www.w3.org/Graphics/SVG/1.1/DTD/svg11.dtd">
<!-- Generated by graphviz version 3.0.0 (20220226.1711)
 -->
<!-- Pages: 1 -->
<svg width="459pt" height="339pt"
 viewBox="0.00 0.00 458.85 338.68" xmlns="http://www.w3.org/2000/svg" xmlns:xlink="http://www.w3.org/1999/xlink">
<g id="graph0" class="graph" transform="scale(1 1) rotate(0) translate(4 334.68)">
<polygon fill="white" stroke="transparent" points="-4,4 -4,-334.68 454.85,-334.68 454.85,4 -4,4"/>
<!-- &#45;1 -->
<g id="node1" class="node">
<title>&#45;1</title>
<polygon fill="lightgray" stroke="black" points="450.85,-240.04 426.85,-240.04 426.85,-222.04 450.85,-222.04 450.85,-240.04"/>
<text text-anchor="middle" x="438.85" y="-228.84" font-family="Times New Roman,serif" font-size="9.00">&#45;1</text>
</g>
<!-- 1 -->
<g id="node7" class="node">
<title>1</title>
<ellipse fill="lightblue" stroke="black" cx="242.85" cy="-158.97" rx="14.7" ry="14.7"/>
<text text-anchor="middle" x="242.85" y="-156.77" font-family="Times New Roman,serif" font-size="9.00">1</text>
</g>
<!-- &#45;1&#45;&gt;1 -->
<g id="edge1" class="edge">
<title>&#45;1&#45;&gt;1</title>
<path fill="none" stroke="red" stroke-width="0.16" d="M430.66,-222.01C426.04,-217.87 419.98,-213.03 413.85,-209.82 365.38,-184.48 302.27,-170.36 267.88,-164.06"/>
<polygon fill="red" stroke="red" stroke-width="0.16" points="268.23,-160.56 257.77,-162.28 267.02,-167.46 268.23,-160.56"/>
</g>
<!-- 4 -->
<g id="node10" class="node">
<title>4</title>
<ellipse fill="lightblue" stroke="black" cx="362.85" cy="-14.85" rx="14.7" ry="14.7"/>
<text text-anchor="middle" x="362.85" y="-12.65" font-family="Times New Roman,serif" font-size="9.00">4</text>
</g>
<!-- &#45;1&#45;&gt;4 -->
<g id="edge2" class="edge">
<title>&#45;1&#45;&gt;4</title>
<path fill="none" stroke="green" stroke-width="0.14" d="M440.12,-221.9C443.6,-196.86 451.3,-119.4 422.85,-65.7 414.24,-49.46 397.91,-36.43 384.45,-27.77"/>
<polygon fill="green" stroke="green" stroke-width="0.14" points="386.09,-24.67 375.72,-22.49 382.46,-30.66 386.09,-24.67"/>
</g>
<!-- &#45;2 -->
<g id="node2" class="node">
<title>&#45;2</title>
<polygon fill="lightgray" stroke="black" points="146.85,-318.46 122.85,-318.46 122.85,-300.46 146.85,-300.46 146.85,-318.46"/>
<text text-anchor="middle" x="134.85" y="-307.26" font-family="Times New Roman,serif" font-size="9.00">&#45;2</text>
</g>
<!-- &#45;2&#45;&gt;1 -->
<g id="edge3" class="edge">
<title>&#45;2&#45;&gt;1</title>
<path fill="none" stroke="red" stroke-width="0.32" stroke-dasharray="1,5" d="M134.25,-300.43C133.32,-282.4 133.43,-238.1 153.85,-209.82 169.72,-187.83 198.45,-174.32 218.97,-167"/>
<polygon fill="red" stroke="red" stroke-width="0.32" points="220.19,-170.29 228.57,-163.81 217.98,-163.64 220.19,-170.29"/>
</g>
<!-- 2 -->
<g id="node8" class="node">
<title>2</title>
<ellipse fill="lightblue" stroke="black" cx="94.85" cy="-14.85" rx="14.7" ry="14.7"/>
<text text-anchor="middle" x="94.85" y="-12.65" font-family="Times New Roman,serif" font-size="9.00">2</text>
</g>
<!-- &#45;2&#45;&gt;2 -->
<g id="edge4" class="edge">
<title>&#45;2&#45;&gt;2</title>
<path fill="none" stroke="green" stroke-width="0.37" d="M122.67,-301.61C107.91,-292.51 83.79,-274.94 73.85,-252.25 41.91,-179.39 70.1,-81.96 85.88,-38.47"/>
<polygon fill="green" stroke="green" stroke-width="0.37" points="89.25,-39.44 89.49,-28.85 82.7,-36.98 89.25,-39.44"/>
</g>
<!-- 372 -->
<g id="node15" class="node">
<title>372</title>
<ellipse fill="white" stroke="black" cx="183.85" cy="-231.04" rx="21.43" ry="21.43"/>
<text text-anchor="middle" x="183.85" y="-228.84" font-family="Times New Roman,serif" font-size="9.00">372</text>
</g>
<!-- &#45;2&#45;&gt;372 -->
<g id="edge23" class="edge">
<title>&#45;2&#45;&gt;372</title>
<path fill="none" stroke="green" stroke-width="0.15" d="M140.09,-300.28C146.51,-290.27 157.7,-272.83 167.15,-258.08"/>
<polygon fill="green" stroke="green" stroke-width="0.15" points="170.31,-259.64 172.76,-249.34 164.41,-255.87 170.31,-259.64"/>
</g>
<!-- &#45;3 -->
<g id="node3" class="node">
<title>&#45;3</title>
<polygon fill="lightgray" stroke="black" points="26.85,-95.91 2.85,-95.91 2.85,-77.91 26.85,-77.91 26.85,-95.91"/>
<text text-anchor="middle" x="14.85" y="-84.71" font-family="Times New Roman,serif" font-size="9.00">&#45;3</text>
</g>
<!-- &#45;3&#45;&gt;2 -->
<g id="edge5" class="edge">
<title>&#45;3&#45;&gt;2</title>
<path fill="none" stroke="green" stroke-width="0.27" d="M24.03,-77.87C36.68,-66.79 59.77,-46.57 76.14,-32.23"/>
<polygon fill="green" stroke="green" stroke-width="0.27" points="78.78,-34.57 84,-25.35 74.17,-29.31 78.78,-34.57"/>
</g>
<!-- 3 -->
<g id="node9" class="node">
<title>3</title>
<ellipse fill="lightblue" stroke="black" cx="14.85" cy="-14.85" rx="14.7" ry="14.7"/>
<text text-anchor="middle" x="14.85" y="-12.65" font-family="Times New Roman,serif" font-size="9.00">3</text>
</g>
<!-- &#45;3&#45;&gt;3 -->
<g id="edge6" class="edge">
<title>&#45;3&#45;&gt;3</title>
<path fill="none" stroke="red" stroke-width="0.42" d="M14.85,-77.87C14.85,-68.72 14.85,-53.33 14.85,-40.16"/>
<polygon fill="red" stroke="red" stroke-width="0.42" points="18.35,-39.82 14.85,-29.82 11.35,-39.82 18.35,-39.82"/>
</g>
<!-- &#45;4 -->
<g id="node4" class="node">
<title>&#45;4</title>
<polygon fill="lightgray" stroke="black" points="106.85,-240.04 82.85,-240.04 82.85,-222.04 106.85,-222.04 106.85,-240.04"/>
<text text-anchor="middle" x="94.85" y="-228.84" font-family="Times New Roman,serif" font-size="9.00">&#45;4</text>
</g>
<!-- &#45;4&#45;&gt;1 -->
<g id="edge7" class="edge">
<title>&#45;4&#45;&gt;1</title>
<path fill="none" stroke="red" stroke-width="0.5" d="M104.04,-221.89C108.83,-217.91 114.91,-213.26 120.85,-209.82 153.08,-191.18 193.64,-176.09 218.91,-167.58"/>
<polygon fill="red" stroke="red" stroke-width="0.5" points="220.33,-170.79 228.74,-164.34 218.14,-164.15 220.33,-170.79"/>
</g>
<!-- &#45;4&#45;&gt;2 -->
<g id="edge20" class="edge">
<title>&#45;4&#45;&gt;2</title>
<path fill="none" stroke="red" stroke-width="0.5" d="M94.85,-221.9C94.85,-191.99 94.85,-87.34 94.85,-39.74"/>
<polygon fill="red" stroke="red" stroke-width="0.5" points="98.35,-39.72 94.85,-29.72 91.35,-39.72 98.35,-39.72"/>
</g>
<!-- &#45;4&#45;&gt;4 -->
<g id="edge8" class="edge">
<title>&#45;4&#45;&gt;4</title>
<path fill="none" stroke="red" stroke-width="0.16" d="M105.03,-221.9C144.88,-190.05 290.7,-73.51 343.56,-31.27"/>
<polygon fill="red" stroke="red" stroke-width="0.16" points="345.86,-33.91 351.48,-24.93 341.49,-28.44 345.86,-33.91"/>
</g>
<!-- &#45;5 -->
<g id="node5" class="node">
<title>&#45;5</title>
<polygon fill="lightgray" stroke="black" points="404.85,-240.04 380.85,-240.04 380.85,-222.04 404.85,-222.04 404.85,-240.04"/>
<text text-anchor="middle" x="392.85" y="-228.84" font-family="Times New Roman,serif" font-size="9.00">&#45;5</text>
</g>
<!-- 0 -->
<g id="node6" class="node">
<title>0</title>
<ellipse fill="lightblue" stroke="black" cx="392.85" cy="-158.97" rx="14.7" ry="14.7"/>
<text text-anchor="middle" x="392.85" y="-156.77" font-family="Times New Roman,serif" font-size="9.00">0</text>
</g>
<!-- &#45;5&#45;&gt;0 -->
<g id="edge9" class="edge">
<title>&#45;5&#45;&gt;0</title>
<path fill="none" stroke="red" stroke-width="0.4" d="M392.85,-222C392.85,-212.85 392.85,-197.45 392.85,-184.29"/>
<polygon fill="red" stroke="red" stroke-width="0.4" points="396.35,-183.94 392.85,-173.94 389.35,-183.94 396.35,-183.94"/>
</g>
<!-- &#45;5&#45;&gt;1 -->
<g id="edge10" class="edge">
<title>&#45;5&#45;&gt;1</title>
<path fill="none" stroke="red" stroke-width="0.35" d="M385.73,-221.7C381.94,-217.67 377.01,-213.03 371.85,-209.82 331.73,-184.89 315.44,-192.02 271.85,-173.82 269.59,-172.88 267.25,-171.85 264.93,-170.8"/>
<polygon fill="red" stroke="red" stroke-width="0.35" points="266.25,-167.55 255.72,-166.46 263.27,-173.89 266.25,-167.55"/>
</g>
<!-- &#45;5&#45;&gt;2 -->
<g id="edge11" class="edge">
<title>&#45;5&#45;&gt;2</title>
<path fill="none" stroke="green" stroke-width="0.3" stroke-dasharray="1,5" d="M384.94,-221.86C381.12,-218.05 376.38,-213.55 371.85,-209.82 281.12,-135.15 162.93,-58.67 115.69,-28.85"/>
<polygon fill="green" stroke="green" stroke-width="0.3" points="117.54,-25.89 107.22,-23.53 113.82,-31.81 117.54,-25.89"/>
</g>
<!-- 319 -->
<g id="node16" class="node">
<title>319</title>
<ellipse fill="white" stroke="black" cx="332.85" cy="-86.91" rx="21.43" ry="21.43"/>
<text text-anchor="middle" x="332.85" y="-84.71" font-family="Times New Roman,serif" font-size="9.00">319</text>
</g>
<!-- &#45;5&#45;&gt;319 -->
<g id="edge25" class="edge">
<title>&#45;5&#45;&gt;319</title>
<path fill="none" stroke="green" stroke-width="0.27" d="M389.25,-221.66C384.54,-210.69 376.04,-190.83 368.85,-173.82 360.69,-154.52 351.56,-132.75 344.55,-115.96"/>
<polygon fill="green" stroke="green" stroke-width="0.27" points="347.76,-114.58 340.68,-106.7 341.3,-117.27 347.76,-114.58"/>
</g>
<!-- 198 -->
<g id="node12" class="node">
<title>198</title>
<ellipse fill="white" stroke="black" cx="392.85" cy="-86.91" rx="21.43" ry="21.43"/>
<text text-anchor="middle" x="392.85" y="-84.71" font-family="Times New Roman,serif" font-size="9.00">198</text>
</g>
<!-- 0&#45;&gt;198 -->
<g id="edge13" class="edge">
<title>0&#45;&gt;198</title>
<path fill="none" stroke="green" stroke-width="0.21" d="M392.85,-143.8C392.85,-136.44 392.85,-127.15 392.85,-118.27"/>
<polygon fill="green" stroke="green" stroke-width="0.21" points="396.35,-118.18 392.85,-108.18 389.35,-118.18 396.35,-118.18"/>
</g>
<!-- 1&#45;&gt;319 -->
<g id="edge17" class="edge">
<title>1&#45;&gt;319</title>
<path fill="none" stroke="red" stroke-width="0.36" d="M254.25,-149.1C267.74,-138.59 290.61,-120.8 308.21,-107.1"/>
<polygon fill="red" stroke="red" stroke-width="0.36" points="310.62,-109.65 316.36,-100.75 306.32,-104.13 310.62,-109.65"/>
</g>
<!-- 357 -->
<g id="node11" class="node">
<title>357</title>
<ellipse fill="white" stroke="black" cx="341.85" cy="-231.04" rx="21.43" ry="21.43"/>
<text text-anchor="middle" x="341.85" y="-228.84" font-family="Times New Roman,serif" font-size="9.00">357</text>
</g>
<!-- 357&#45;&gt;1 -->
<g id="edge19" class="edge">
<title>357&#45;&gt;1</title>
<path fill="none" stroke="red" stroke-width="0.46" d="M324.6,-217.83C307.53,-205.75 281.38,-187.24 263.27,-174.43"/>
<polygon fill="red" stroke="red" stroke-width="0.46" points="264.81,-171.23 254.63,-168.31 260.77,-176.94 264.81,-171.23"/>
</g>
<!-- 198&#45;&gt;4 -->
<g id="edge12" class="edge">
<title>198&#45;&gt;4</title>
<path fill="none" stroke="red" stroke-width="0.19" d="M384.81,-67.14C380.99,-58.21 376.39,-47.47 372.39,-38.13"/>
<polygon fill="red" stroke="red" stroke-width="0.19" points="375.5,-36.51 368.35,-28.69 369.07,-39.26 375.5,-36.51"/>
</g>
<!-- 359 -->
<g id="node13" class="node">
<title>359</title>
<ellipse fill="white" stroke="black" cx="243.85" cy="-231.04" rx="21.43" ry="21.43"/>
<text text-anchor="middle" x="243.85" y="-228.84" font-family="Times New Roman,serif" font-size="9.00">359</text>
</g>
<!-- 359&#45;&gt;1 -->
<g id="edge22" class="edge">
<title>359&#45;&gt;1</title>
<path fill="none" stroke="green" stroke-width="0.37" d="M243.56,-209.77C243.45,-201.79 243.31,-192.56 243.2,-184.23"/>
<polygon fill="green" stroke="green" stroke-width="0.37" points="246.69,-183.93 243.05,-173.98 239.69,-184.03 246.69,-183.93"/>
</g>
<!-- 332 -->
<g id="node14" class="node">
<title>332</title>
<ellipse fill="white" stroke="black" cx="292.85" cy="-309.46" rx="21.43" ry="21.43"/>
<text text-anchor="middle" x="292.85" y="-307.26" font-family="Times New Roman,serif" font-size="9.00">332</text>
</g>
<!-- 332&#45;&gt;1 -->
<g id="edge16" class="edge">
<title>332&#45;&gt;1</title>
<path fill="none" stroke="red" stroke-width="0.32" d="M291.13,-288.21C288.9,-267.84 284.03,-235.8 273.85,-209.82 269.71,-199.26 263.31,-188.46 257.4,-179.62"/>
<polygon fill="red" stroke="red" stroke-width="0.32" points="260.12,-177.41 251.52,-171.21 254.38,-181.42 260.12,-177.41"/>
</g>
<!-- 332&#45;&gt;357 -->
<g id="edge18" class="edge">
<title>332&#45;&gt;357</title>
<path fill="none" stroke="red" stroke-width="0.32" d="M303.97,-291.12C310.23,-281.35 318.18,-268.95 325.18,-258.04"/>
<polygon fill="red" stroke="red" stroke-width="0.32" points="328.32,-259.62 330.77,-249.31 322.43,-255.84 328.32,-259.62"/>
</g>
<!-- 332&#45;&gt;359 -->
<g id="edge21" class="edge">
<title>332&#45;&gt;359</title>
<path fill="none" stroke="green" stroke-width="0.14" d="M281.73,-291.12C275.47,-281.35 267.52,-268.95 260.52,-258.04"/>
<polygon fill="green" stroke="green" stroke-width="0.14" points="263.27,-255.84 254.92,-249.31 257.38,-259.62 263.27,-255.84"/>
</g>
<!-- 372&#45;&gt;1 -->
<g id="edge24" class="edge">
<title>372&#45;&gt;1</title>
<path fill="none" stroke="red" stroke-width="0.52" d="M197.24,-214.14C206.12,-203.59 217.82,-189.69 227.15,-178.62"/>
<polygon fill="red" stroke="red" stroke-width="0.52" points="229.97,-180.7 233.73,-170.8 224.61,-176.2 229.97,-180.7"/>
</g>
<!-- 319&#45;&gt;2 -->
<g id="edge15" class="edge">
<title>319&#45;&gt;2</title>
<path fill="none" stroke="red" stroke-width="0.47" stroke-dasharray="1,5" d="M315.54,-74.62C310.04,-71.39 303.84,-68.11 297.85,-65.7 235.99,-40.83 158.36,-25.98 119.46,-19.58"/>
<polygon fill="red" stroke="red" stroke-width="0.47" points="119.99,-16.12 109.56,-18 118.88,-23.03 119.99,-16.12"/>
</g>
<!-- 319&#45;&gt;4 -->
<g id="edge14" class="edge">
<title>319&#45;&gt;4</title>
<path fill="none" stroke="green" stroke-width="0.28" stroke-dasharray="1,5" d="M340.89,-67.14C344.71,-58.21 349.31,-47.47 353.31,-38.13"/>
<polygon fill="green" stroke="green" stroke-width="0.28" points="356.63,-39.26 357.35,-28.69 350.2,-36.51 356.63,-39.26"/>
</g>
</g>
</svg>
