<?xml version="1.0" encoding="UTF-8" standalone="no"?>
<!DOCTYPE svg PUBLIC "-//W3C//DTD SVG 1.1//EN"
 "http://www.w3.org/Graphics/SVG/1.1/DTD/svg11.dtd">
<!-- Generated by graphviz version 3.0.0 (20220226.1711)
 -->
<!-- Pages: 1 -->
<svg width="287pt" height="260pt"
 viewBox="0.00 0.00 287.21 260.25" xmlns="http://www.w3.org/2000/svg" xmlns:xlink="http://www.w3.org/1999/xlink">
<g id="graph0" class="graph" transform="scale(1 1) rotate(0) translate(4 256.25)">
<polygon fill="white" stroke="transparent" points="-4,4 -4,-256.25 283.21,-256.25 283.21,4 -4,4"/>
<!-- &#45;1 -->
<g id="node1" class="node">
<title>&#45;1</title>
<polygon fill="lightgray" stroke="black" points="24,-167.97 0,-167.97 0,-149.97 24,-149.97 24,-167.97"/>
<text text-anchor="middle" x="12" y="-156.77" font-family="Times New Roman,serif" font-size="9.00">&#45;1</text>
</g>
<!-- 0 -->
<g id="node6" class="node">
<title>0</title>
<ellipse fill="lightblue" stroke="black" cx="102" cy="-86.91" rx="14.7" ry="14.7"/>
<text text-anchor="middle" x="102" y="-84.71" font-family="Times New Roman,serif" font-size="9.00">0</text>
</g>
<!-- &#45;1&#45;&gt;0 -->
<g id="edge1" class="edge">
<title>&#45;1&#45;&gt;0</title>
<path fill="none" stroke="red" stroke-width="0.21" stroke-dasharray="1,5" d="M23.35,-149.69C36.61,-139.94 59.14,-123.17 78,-108.12 79.6,-106.85 81.24,-105.52 82.88,-104.17"/>
<polygon fill="red" stroke="red" stroke-width="0.21" points="85.44,-106.59 90.87,-97.5 80.95,-101.22 85.44,-106.59"/>
</g>
<!-- 2 -->
<g id="node8" class="node">
<title>2</title>
<ellipse fill="lightblue" stroke="black" cx="54" cy="-86.91" rx="14.7" ry="14.7"/>
<text text-anchor="middle" x="54" y="-84.71" font-family="Times New Roman,serif" font-size="9.00">2</text>
</g>
<!-- &#45;1&#45;&gt;2 -->
<g id="edge2" class="edge">
<title>&#45;1&#45;&gt;2</title>
<path fill="none" stroke="green" stroke-width="0.2" d="M16.82,-149.94C22.77,-140.01 33.12,-122.74 41.4,-108.94"/>
<polygon fill="green" stroke="green" stroke-width="0.2" points="44.57,-110.45 46.71,-100.07 38.57,-106.85 44.57,-110.45"/>
</g>
<!-- 3 -->
<g id="node9" class="node">
<title>3</title>
<ellipse fill="lightblue" stroke="black" cx="156" cy="-14.85" rx="14.7" ry="14.7"/>
<text text-anchor="middle" x="156" y="-12.65" font-family="Times New Roman,serif" font-size="9.00">3</text>
</g>
<!-- &#45;1&#45;&gt;3 -->
<g id="edge3" class="edge">
<title>&#45;1&#45;&gt;3</title>
<path fill="none" stroke="red" stroke-width="0.46" d="M11.17,-149.74C9.87,-132.16 9.35,-90.55 30,-65.7 55.46,-35.06 102.38,-23.14 131.22,-18.58"/>
<polygon fill="red" stroke="red" stroke-width="0.46" points="131.89,-22.03 141.31,-17.17 130.92,-15.09 131.89,-22.03"/>
</g>
<!-- &#45;2 -->
<g id="node2" class="node">
<title>&#45;2</title>
<polygon fill="lightgray" stroke="black" points="200,-240.04 176,-240.04 176,-222.04 200,-222.04 200,-240.04"/>
<text text-anchor="middle" x="188" y="-228.84" font-family="Times New Roman,serif" font-size="9.00">&#45;2</text>
</g>
<!-- &#45;2&#45;&gt;0 -->
<g id="edge4" class="edge">
<title>&#45;2&#45;&gt;0</title>
<path fill="none" stroke="red" stroke-width="0.64" stroke-dasharray="1,5" d="M175.81,-225.34C157.68,-217.63 124.14,-200.46 109,-173.82 98.29,-154.99 97.46,-129.98 98.75,-111.81"/>
<polygon fill="red" stroke="red" stroke-width="0.64" points="102.25,-112.03 99.73,-101.74 95.28,-111.35 102.25,-112.03"/>
</g>
<!-- 1 -->
<g id="node7" class="node">
<title>1</title>
<ellipse fill="lightblue" stroke="black" cx="217" cy="-158.97" rx="14.7" ry="14.7"/>
<text text-anchor="middle" x="217" y="-156.77" font-family="Times New Roman,serif" font-size="9.00">1</text>
</g>
<!-- &#45;2&#45;&gt;1 -->
<g id="edge5" class="edge">
<title>&#45;2&#45;&gt;1</title>
<path fill="none" stroke="green" stroke-width="0.68" stroke-dasharray="1,5" d="M191.33,-222C195.29,-212.43 202.07,-196.05 207.67,-182.53"/>
<polygon fill="green" stroke="green" stroke-width="0.68" points="211.06,-183.48 211.65,-172.9 204.59,-180.8 211.06,-183.48"/>
</g>
<!-- &#45;3 -->
<g id="node3" class="node">
<title>&#45;3</title>
<polygon fill="lightgray" stroke="black" points="184,-167.97 160,-167.97 160,-149.97 184,-149.97 184,-167.97"/>
<text text-anchor="middle" x="172" y="-156.77" font-family="Times New Roman,serif" font-size="9.00">&#45;3</text>
</g>
<!-- &#45;3&#45;&gt;0 -->
<g id="edge6" class="edge">
<title>&#45;3&#45;&gt;0</title>
<path fill="none" stroke="red" stroke-width="0.24" stroke-dasharray="1,5" d="M163.97,-149.94C153.18,-139.14 133.72,-119.66 119.48,-105.41"/>
<polygon fill="red" stroke="red" stroke-width="0.24" points="121.74,-102.71 112.19,-98.11 116.78,-107.66 121.74,-102.71"/>
</g>
<!-- 354 -->
<g id="node11" class="node">
<title>354</title>
<ellipse fill="white" stroke="black" cx="258" cy="-86.91" rx="21.43" ry="21.43"/>
<text text-anchor="middle" x="258" y="-84.71" font-family="Times New Roman,serif" font-size="9.00">354</text>
</g>
<!-- &#45;3&#45;&gt;354 -->
<g id="edge12" class="edge">
<title>&#45;3&#45;&gt;354</title>
<path fill="none" stroke="green" stroke-width="0.47" d="M181.87,-149.94C194.45,-139.68 216.65,-121.6 233.84,-107.59"/>
<polygon fill="green" stroke="green" stroke-width="0.47" points="236.28,-110.12 241.82,-101.1 231.85,-104.7 236.28,-110.12"/>
</g>
<!-- 342 -->
<g id="node13" class="node">
<title>342</title>
<ellipse fill="white" stroke="black" cx="156" cy="-86.91" rx="21.43" ry="21.43"/>
<text text-anchor="middle" x="156" y="-84.71" font-family="Times New Roman,serif" font-size="9.00">342</text>
</g>
<!-- &#45;3&#45;&gt;342 -->
<g id="edge10" class="edge">
<title>&#45;3&#45;&gt;342</title>
<path fill="none" stroke="green" stroke-width="0.39" d="M170.16,-149.94C168.36,-142.04 165.5,-129.5 162.82,-117.76"/>
<polygon fill="green" stroke="green" stroke-width="0.39" points="166.18,-116.75 160.54,-107.78 159.35,-118.31 166.18,-116.75"/>
</g>
<!-- &#45;4 -->
<g id="node4" class="node">
<title>&#45;4</title>
<polygon fill="lightgray" stroke="black" points="142,-167.97 118,-167.97 118,-149.97 142,-149.97 142,-167.97"/>
<text text-anchor="middle" x="130" y="-156.77" font-family="Times New Roman,serif" font-size="9.00">&#45;4</text>
</g>
<!-- &#45;4&#45;&gt;0 -->
<g id="edge7" class="edge">
<title>&#45;4&#45;&gt;0</title>
<path fill="none" stroke="green" stroke-width="0.28" d="M126.79,-149.94C122.96,-140.37 116.42,-123.99 111.01,-110.46"/>
<polygon fill="green" stroke="green" stroke-width="0.28" points="114.13,-108.82 107.17,-100.84 107.63,-111.42 114.13,-108.82"/>
</g>
<!-- &#45;4&#45;&gt;2 -->
<g id="edge14" class="edge">
<title>&#45;4&#45;&gt;2</title>
<path fill="none" stroke="green" stroke-width="0.38" d="M121.28,-149.94C109.33,-138.92 87.57,-118.86 72.03,-104.53"/>
<polygon fill="green" stroke="green" stroke-width="0.38" points="74.28,-101.85 64.56,-97.64 69.54,-107 74.28,-101.85"/>
</g>
<!-- &#45;4&#45;&gt;342 -->
<g id="edge15" class="edge">
<title>&#45;4&#45;&gt;342</title>
<path fill="none" stroke="green" stroke-width="0.39" d="M132.98,-149.94C135.98,-141.85 140.79,-128.89 145.24,-116.91"/>
<polygon fill="green" stroke="green" stroke-width="0.39" points="148.65,-117.79 148.84,-107.2 142.08,-115.35 148.65,-117.79"/>
</g>
<!-- &#45;5 -->
<g id="node5" class="node">
<title>&#45;5</title>
<polygon fill="lightgray" stroke="black" points="219,-95.91 195,-95.91 195,-77.91 219,-77.91 219,-95.91"/>
<text text-anchor="middle" x="207" y="-84.71" font-family="Times New Roman,serif" font-size="9.00">&#45;5</text>
</g>
<!-- &#45;5&#45;&gt;3 -->
<g id="edge8" class="edge">
<title>&#45;5&#45;&gt;3</title>
<path fill="none" stroke="red" stroke-width="0.49" d="M201.15,-77.87C193.7,-67.64 180.56,-49.59 170.37,-35.59"/>
<polygon fill="red" stroke="red" stroke-width="0.49" points="173.2,-33.53 164.49,-27.51 167.54,-37.65 173.2,-33.53"/>
</g>
<!-- 1&#45;&gt;342 -->
<g id="edge13" class="edge">
<title>1&#45;&gt;342</title>
<path fill="none" stroke="red" stroke-width="0.22" d="M207.74,-147.33C199.37,-137.72 186.77,-123.25 176.1,-111"/>
<polygon fill="red" stroke="red" stroke-width="0.22" points="178.64,-108.58 169.43,-103.34 173.36,-113.18 178.64,-108.58"/>
</g>
<!-- 4 -->
<g id="node10" class="node">
<title>4</title>
<ellipse fill="lightblue" stroke="black" cx="233" cy="-231.04" rx="14.7" ry="14.7"/>
<text text-anchor="middle" x="233" y="-228.84" font-family="Times New Roman,serif" font-size="9.00">4</text>
</g>
<!-- 334 -->
<g id="node12" class="node">
<title>334</title>
<ellipse fill="white" stroke="black" cx="109" cy="-231.04" rx="21.43" ry="21.43"/>
<text text-anchor="middle" x="109" y="-228.84" font-family="Times New Roman,serif" font-size="9.00">334</text>
</g>
<!-- 334&#45;&gt;1 -->
<g id="edge9" class="edge">
<title>334&#45;&gt;1</title>
<path fill="none" stroke="red" stroke-width="0.18" d="M126.35,-218.78C145.38,-206.44 175.9,-186.63 196.2,-173.47"/>
<polygon fill="red" stroke="red" stroke-width="0.18" points="198.24,-176.31 204.73,-167.93 194.44,-170.44 198.24,-176.31"/>
</g>
<!-- 334&#45;&gt;2 -->
<g id="edge16" class="edge">
<title>334&#45;&gt;2</title>
<path fill="none" stroke="green" stroke-width="0.39" d="M97.28,-212.97C90.29,-202.15 81.69,-187.64 76,-173.82 67.65,-153.55 61.78,-129.24 58.22,-111.66"/>
<polygon fill="green" stroke="green" stroke-width="0.39" points="61.62,-110.84 56.29,-101.68 54.75,-112.16 61.62,-110.84"/>
</g>
<!-- 342&#45;&gt;3 -->
<g id="edge11" class="edge">
<title>342&#45;&gt;3</title>
<path fill="none" stroke="green" stroke-width="0.27" d="M156,-65.65C156,-57.67 156,-48.43 156,-40.1"/>
<polygon fill="green" stroke="green" stroke-width="0.27" points="159.5,-39.85 156,-29.85 152.5,-39.85 159.5,-39.85"/>
</g>
</g>
</svg>
