<?xml version="1.0" encoding="UTF-8" standalone="no"?>
<!DOCTYPE svg PUBLIC "-//W3C//DTD SVG 1.1//EN"
 "http://www.w3.org/Graphics/SVG/1.1/DTD/svg11.dtd">
<!-- Generated by graphviz version 3.0.0 (20220226.1711)
 -->
<!-- Pages: 1 -->
<svg width="1132pt" height="170pt"
 viewBox="0.00 0.00 1132.21 170.12" xmlns="http://www.w3.org/2000/svg" xmlns:xlink="http://www.w3.org/1999/xlink">
<g id="graph0" class="graph" transform="scale(1 1) rotate(0) translate(4 166.12)">
<polygon fill="white" stroke="transparent" points="-4,4 -4,-166.12 1128.21,-166.12 1128.21,4 -4,4"/>
<!-- &#45;1 -->
<g id="node1" class="node">
<title>&#45;1</title>
<polygon fill="lightgray" stroke="black" points="410.85,-162.12 386.85,-162.12 386.85,-144.12 410.85,-144.12 410.85,-162.12"/>
<text text-anchor="middle" x="398.85" y="-150.92" font-family="Times New Roman,serif" font-size="9.00">&#45;1</text>
</g>
<!-- 0 -->
<g id="node6" class="node">
<title>0</title>
<ellipse fill="lightblue" stroke="black" cx="388.85" cy="-14.85" rx="14.7" ry="14.7"/>
<text text-anchor="middle" x="388.85" y="-12.65" font-family="Times New Roman,serif" font-size="9.00">0</text>
</g>
<!-- &#45;1&#45;&gt;0 -->
<g id="edge40" class="edge">
<title>&#45;1&#45;&gt;0</title>
<path fill="none" stroke="green" stroke-width="0.16" d="M386.71,-151.81C342.6,-150.41 191.88,-143.07 162.85,-108.12 106.03,-39.74 294.09,-21.47 363.85,-17.1"/>
<polygon fill="green" stroke="green" stroke-width="0.16" points="364.19,-20.59 373.97,-16.51 363.79,-13.6 364.19,-20.59"/>
</g>
<!-- 1 -->
<g id="node7" class="node">
<title>1</title>
<ellipse fill="lightblue" stroke="black" cx="486.85" cy="-14.85" rx="14.7" ry="14.7"/>
<text text-anchor="middle" x="486.85" y="-12.65" font-family="Times New Roman,serif" font-size="9.00">1</text>
</g>
<!-- &#45;1&#45;&gt;1 -->
<g id="edge41" class="edge">
<title>&#45;1&#45;&gt;1</title>
<path fill="none" stroke="green" stroke-width="0.43" d="M386.72,-151.05C364.4,-148.34 317.19,-139.06 296.85,-108.12 286.49,-92.37 285.33,-80.63 296.85,-65.7 307.06,-52.46 413.18,-30.24 462.23,-20.58"/>
<polygon fill="green" stroke="green" stroke-width="0.43" points="463.17,-23.96 472.32,-18.61 461.83,-17.09 463.17,-23.96"/>
</g>
<!-- 2 -->
<g id="node8" class="node">
<title>2</title>
<ellipse fill="lightblue" stroke="black" cx="220.85" cy="-14.85" rx="14.7" ry="14.7"/>
<text text-anchor="middle" x="220.85" y="-12.65" font-family="Times New Roman,serif" font-size="9.00">2</text>
</g>
<!-- &#45;1&#45;&gt;2 -->
<g id="edge42" class="edge">
<title>&#45;1&#45;&gt;2</title>
<path fill="none" stroke="red" stroke-width="0.11" d="M386.45,-151.68C322.98,-149.28 36.53,-136.88 10.85,-108.12 -44.43,-46.22 129.45,-23.95 196.03,-17.81"/>
<polygon fill="red" stroke="red" stroke-width="0.11" points="196.44,-21.29 206.09,-16.93 195.83,-14.32 196.44,-21.29"/>
</g>
<!-- 3 -->
<g id="node9" class="node">
<title>3</title>
<ellipse fill="lightblue" stroke="black" cx="611.85" cy="-14.85" rx="14.7" ry="14.7"/>
<text text-anchor="middle" x="611.85" y="-12.65" font-family="Times New Roman,serif" font-size="9.00">3</text>
</g>
<!-- &#45;1&#45;&gt;3 -->
<g id="edge43" class="edge">
<title>&#45;1&#45;&gt;3</title>
<path fill="none" stroke="green" stroke-width="0.15" d="M411.07,-144.34C424.86,-135.56 447.98,-120.83 467.85,-108.12 511.68,-80.11 562.96,-47.22 590.96,-29.25"/>
<polygon fill="green" stroke="green" stroke-width="0.15" points="593,-32.1 599.53,-23.76 589.22,-26.21 593,-32.1"/>
</g>
<!-- 4 -->
<g id="node10" class="node">
<title>4</title>
<ellipse fill="lightblue" stroke="black" cx="758.85" cy="-14.85" rx="14.7" ry="14.7"/>
<text text-anchor="middle" x="758.85" y="-12.65" font-family="Times New Roman,serif" font-size="9.00">4</text>
</g>
<!-- &#45;1&#45;&gt;4 -->
<g id="edge44" class="edge">
<title>&#45;1&#45;&gt;4</title>
<path fill="none" stroke="green" stroke-width="0.36" d="M411.13,-146.89C413.95,-145.84 416.97,-144.85 419.85,-144.12 542.41,-113.42 595.62,-176.54 701.85,-108.12 726.99,-91.93 742.88,-60.31 751.31,-38.63"/>
<polygon fill="green" stroke="green" stroke-width="0.36" points="754.62,-39.78 754.77,-29.19 748.05,-37.38 754.62,-39.78"/>
</g>
<!-- 115 -->
<g id="node11" class="node">
<title>115</title>
<ellipse fill="white" stroke="black" cx="437.85" cy="-86.91" rx="21.43" ry="21.43"/>
<text text-anchor="middle" x="437.85" y="-84.71" font-family="Times New Roman,serif" font-size="9.00">115</text>
</g>
<!-- &#45;1&#45;&gt;115 -->
<g id="edge1" class="edge">
<title>&#45;1&#45;&gt;115</title>
<path fill="none" stroke="green" stroke-width="0.4" d="M403.79,-143.99C408.37,-136.45 415.44,-124.81 421.95,-114.09"/>
<polygon fill="green" stroke="green" stroke-width="0.4" points="425.02,-115.77 427.22,-105.4 419.04,-112.13 425.02,-115.77"/>
</g>
<!-- 117 -->
<g id="node12" class="node">
<title>117</title>
<ellipse fill="white" stroke="black" cx="671.85" cy="-86.91" rx="21.43" ry="21.43"/>
<text text-anchor="middle" x="671.85" y="-84.71" font-family="Times New Roman,serif" font-size="9.00">117</text>
</g>
<!-- &#45;1&#45;&gt;117 -->
<g id="edge2" class="edge">
<title>&#45;1&#45;&gt;117</title>
<path fill="none" stroke="green" stroke-width="0.17" d="M411.15,-146.96C413.97,-145.91 416.98,-144.89 419.85,-144.12 516.38,-118.2 548.91,-144.91 641.85,-108.12 643.45,-107.49 645.06,-106.76 646.65,-105.96"/>
<polygon fill="green" stroke="green" stroke-width="0.17" points="648.57,-108.89 655.43,-100.82 645.03,-102.85 648.57,-108.89"/>
</g>
<!-- 118 -->
<g id="node13" class="node">
<title>118</title>
<ellipse fill="white" stroke="black" cx="611.85" cy="-86.91" rx="21.43" ry="21.43"/>
<text text-anchor="middle" x="611.85" y="-84.71" font-family="Times New Roman,serif" font-size="9.00">118</text>
</g>
<!-- &#45;1&#45;&gt;118 -->
<g id="edge3" class="edge">
<title>&#45;1&#45;&gt;118</title>
<path fill="none" stroke="green" stroke-width="0.22" d="M411.23,-147.22C414.04,-146.16 417.04,-145.07 419.85,-144.12 450.07,-133.96 535.71,-109.46 581.72,-96.42"/>
<polygon fill="green" stroke="green" stroke-width="0.22" points="582.78,-99.76 591.44,-93.66 580.87,-93.02 582.78,-99.76"/>
</g>
<!-- 119 -->
<g id="node14" class="node">
<title>119</title>
<ellipse fill="white" stroke="black" cx="339.85" cy="-86.91" rx="21.43" ry="21.43"/>
<text text-anchor="middle" x="339.85" y="-84.71" font-family="Times New Roman,serif" font-size="9.00">119</text>
</g>
<!-- &#45;1&#45;&gt;119 -->
<g id="edge4" class="edge">
<title>&#45;1&#45;&gt;119</title>
<path fill="none" stroke="green" stroke-width="0.27" d="M391.37,-143.99C383.72,-135.66 371.45,-122.31 360.81,-110.73"/>
<polygon fill="green" stroke="green" stroke-width="0.27" points="363.13,-108.07 353.78,-103.08 357.97,-112.81 363.13,-108.07"/>
</g>
<!-- &#45;2 -->
<g id="node2" class="node">
<title>&#45;2</title>
<polygon fill="lightgray" stroke="black" points="452.85,-162.12 428.85,-162.12 428.85,-144.12 452.85,-144.12 452.85,-162.12"/>
<text text-anchor="middle" x="440.85" y="-150.92" font-family="Times New Roman,serif" font-size="9.00">&#45;2</text>
</g>
<!-- &#45;2&#45;&gt;0 -->
<g id="edge45" class="edge">
<title>&#45;2&#45;&gt;0</title>
<path fill="none" stroke="red" stroke-width="0.11" d="M428.55,-146.97C425.72,-145.92 422.71,-144.9 419.85,-144.12 372.23,-131.28 232.77,-145.72 200.85,-108.12 188.64,-93.75 189.35,-80.64 200.85,-65.7 220.72,-39.87 317.51,-24.65 363.92,-18.73"/>
<polygon fill="red" stroke="red" stroke-width="0.11" points="364.55,-22.17 374.05,-17.48 363.7,-15.23 364.55,-22.17"/>
</g>
<!-- &#45;2&#45;&gt;1 -->
<g id="edge46" class="edge">
<title>&#45;2&#45;&gt;1</title>
<path fill="none" stroke="green" stroke-width="0.39" d="M428.45,-147.29C425.63,-146.22 422.64,-145.11 419.85,-144.12 371.35,-126.96 340.04,-149.77 309.85,-108.12 298.78,-92.86 298.46,-80.73 309.85,-65.7 319.21,-53.33 416.38,-31.01 462.63,-20.98"/>
<polygon fill="green" stroke="green" stroke-width="0.39" points="463.41,-24.39 472.45,-18.87 461.94,-17.55 463.41,-24.39"/>
</g>
<!-- &#45;2&#45;&gt;2 -->
<g id="edge47" class="edge">
<title>&#45;2&#45;&gt;2</title>
<path fill="none" stroke="green" stroke-width="0.29" d="M428.58,-146.83C425.76,-145.78 422.73,-144.8 419.85,-144.12 339.2,-125.21 104.52,-169.46 48.85,-108.12 36.17,-94.16 37.52,-80.77 48.85,-65.7 66.62,-42.04 153.07,-26 196.23,-19.33"/>
<polygon fill="green" stroke="green" stroke-width="0.29" points="196.83,-22.78 206.2,-17.84 195.8,-15.86 196.83,-22.78"/>
</g>
<!-- &#45;2&#45;&gt;3 -->
<g id="edge48" class="edge">
<title>&#45;2&#45;&gt;3</title>
<path fill="none" stroke="red" stroke-width="0.12" d="M453.15,-147.45C476.16,-138.58 524.65,-119.18 538.85,-108.12 564.56,-88.1 586.58,-57.19 599.52,-36.74"/>
<polygon fill="red" stroke="red" stroke-width="0.12" points="602.54,-38.51 604.81,-28.16 596.58,-34.84 602.54,-38.51"/>
</g>
<!-- &#45;2&#45;&gt;4 -->
<g id="edge49" class="edge">
<title>&#45;2&#45;&gt;4</title>
<path fill="none" stroke="green" stroke-width="0.19" d="M452.93,-147.74C456.99,-146.41 461.57,-145.05 465.85,-144.12 532.98,-129.59 727.19,-159.45 772.85,-108.12 790.05,-88.79 780.34,-57.67 770.6,-36.99"/>
<polygon fill="green" stroke="green" stroke-width="0.19" points="773.71,-35.38 766.08,-28.04 767.46,-38.54 773.71,-35.38"/>
</g>
<!-- &#45;2&#45;&gt;115 -->
<g id="edge5" class="edge">
<title>&#45;2&#45;&gt;115</title>
<path fill="none" stroke="red" stroke-width="0.31" d="M440.47,-143.99C440.16,-137.45 439.71,-127.82 439.27,-118.38"/>
<polygon fill="red" stroke="red" stroke-width="0.31" points="442.77,-118.19 438.8,-108.37 435.77,-118.52 442.77,-118.19"/>
</g>
<!-- &#45;2&#45;&gt;117 -->
<g id="edge6" class="edge">
<title>&#45;2&#45;&gt;117</title>
<path fill="none" stroke="red" stroke-width="0.22" d="M452.98,-147.95C457.04,-146.63 461.61,-145.23 465.85,-144.12 543.09,-123.93 568.23,-139.02 641.85,-108.12 643.44,-107.46 645.04,-106.7 646.62,-105.88"/>
<polygon fill="red" stroke="red" stroke-width="0.22" points="648.56,-108.79 655.37,-100.68 644.99,-102.77 648.56,-108.79"/>
</g>
<!-- &#45;2&#45;&gt;118 -->
<g id="edge7" class="edge">
<title>&#45;2&#45;&gt;118</title>
<path fill="none" stroke="red" stroke-width="0.5" d="M453.09,-148.2C485.96,-137.66 573.9,-109.44 576.85,-108.12 579.55,-106.92 582.32,-105.57 585.05,-104.14"/>
<polygon fill="red" stroke="red" stroke-width="0.5" points="587.01,-107.06 594.06,-99.15 583.62,-100.93 587.01,-107.06"/>
</g>
<!-- &#45;2&#45;&gt;119 -->
<g id="edge8" class="edge">
<title>&#45;2&#45;&gt;119</title>
<path fill="none" stroke="green" stroke-width="0.27" d="M428.46,-144.25C413.02,-134.43 386.22,-117.39 366.12,-104.62"/>
<polygon fill="green" stroke="green" stroke-width="0.27" points="367.74,-101.5 357.43,-99.09 363.99,-107.41 367.74,-101.5"/>
</g>
<!-- &#45;3 -->
<g id="node3" class="node">
<title>&#45;3</title>
<polygon fill="lightgray" stroke="black" points="498.85,-162.12 474.85,-162.12 474.85,-144.12 498.85,-144.12 498.85,-162.12"/>
<text text-anchor="middle" x="486.85" y="-150.92" font-family="Times New Roman,serif" font-size="9.00">&#45;3</text>
</g>
<!-- &#45;3&#45;&gt;0 -->
<g id="edge50" class="edge">
<title>&#45;3&#45;&gt;0</title>
<path fill="none" stroke="green" stroke-width="0.47" d="M474.7,-148.03C470.63,-146.71 466.06,-145.3 461.85,-144.12 394.96,-125.53 352.91,-162.58 309.85,-108.12 298.15,-93.33 300.74,-82.21 309.85,-65.7 321.6,-44.39 346.71,-30.94 365.49,-23.45"/>
<polygon fill="green" stroke="green" stroke-width="0.47" points="366.71,-26.73 374.88,-19.98 364.29,-20.16 366.71,-26.73"/>
</g>
<!-- &#45;3&#45;&gt;1 -->
<g id="edge51" class="edge">
<title>&#45;3&#45;&gt;1</title>
<path fill="none" stroke="red" stroke-width="0.28" d="M486.85,-144.01C486.85,-123.92 486.85,-71.23 486.85,-40.02"/>
<polygon fill="red" stroke="red" stroke-width="0.28" points="490.35,-39.97 486.85,-29.97 483.35,-39.97 490.35,-39.97"/>
</g>
<!-- &#45;3&#45;&gt;2 -->
<g id="edge52" class="edge">
<title>&#45;3&#45;&gt;2</title>
<path fill="none" stroke="red" stroke-width="0.48" d="M474.78,-147.69C470.72,-146.35 466.13,-145.01 461.85,-144.12 379.84,-127.27 143.14,-170.09 86.85,-108.12 74.17,-94.17 76.09,-81.18 86.85,-65.7 111.43,-30.33 164.26,-20 195.75,-17.02"/>
<polygon fill="red" stroke="red" stroke-width="0.48" points="196.21,-20.5 205.91,-16.25 195.67,-13.52 196.21,-20.5"/>
</g>
<!-- &#45;3&#45;&gt;3 -->
<g id="edge53" class="edge">
<title>&#45;3&#45;&gt;3</title>
<path fill="none" stroke="red" stroke-width="0.2" d="M499.05,-151.57C540.66,-149.41 675.83,-140 701.85,-108.12 713.77,-93.52 711.42,-81.94 701.85,-65.7 687.74,-41.76 657.55,-28.51 636.03,-21.8"/>
<polygon fill="red" stroke="red" stroke-width="0.2" points="636.85,-18.39 626.27,-19.01 634.92,-25.12 636.85,-18.39"/>
</g>
<!-- &#45;3&#45;&gt;4 -->
<g id="edge54" class="edge">
<title>&#45;3&#45;&gt;4</title>
<path fill="none" stroke="red" stroke-width="0.17" d="M499,-151.33C541.84,-148.28 685.08,-136.17 719.85,-108.12 740.81,-91.22 750.68,-61 755.21,-39.77"/>
<polygon fill="red" stroke="red" stroke-width="0.17" points="758.66,-40.36 757.08,-29.88 751.78,-39.06 758.66,-40.36"/>
</g>
<!-- &#45;3&#45;&gt;115 -->
<g id="edge9" class="edge">
<title>&#45;3&#45;&gt;115</title>
<path fill="none" stroke="red" stroke-width="0.17" d="M480.64,-143.99C474.61,-136.09 465.14,-123.67 456.64,-112.53"/>
<polygon fill="red" stroke="red" stroke-width="0.17" points="459.25,-110.18 450.4,-104.36 453.68,-114.43 459.25,-110.18"/>
</g>
<!-- &#45;3&#45;&gt;117 -->
<g id="edge10" class="edge">
<title>&#45;3&#45;&gt;117</title>
<path fill="none" stroke="red" stroke-width="0.31" d="M498.97,-150.04C525.7,-145.15 591.36,-131.57 641.85,-108.12 643.41,-107.4 644.99,-106.59 646.56,-105.74"/>
<polygon fill="red" stroke="red" stroke-width="0.31" points="648.54,-108.62 655.27,-100.44 644.9,-102.64 648.54,-108.62"/>
</g>
<!-- &#45;3&#45;&gt;118 -->
<g id="edge11" class="edge">
<title>&#45;3&#45;&gt;118</title>
<path fill="none" stroke="green" stroke-width="0.17" d="M498.92,-146.55C516.31,-138.44 549.37,-122.76 576.85,-108.12 579.55,-106.69 582.34,-105.15 585.12,-103.6"/>
<polygon fill="green" stroke="green" stroke-width="0.17" points="586.86,-106.64 593.81,-98.64 583.39,-100.55 586.86,-106.64"/>
</g>
<!-- &#45;3&#45;&gt;119 -->
<g id="edge12" class="edge">
<title>&#45;3&#45;&gt;119</title>
<path fill="none" stroke="green" stroke-width="0.43" d="M474.83,-148.07C454.05,-140.91 410.23,-125.17 374.85,-108.12 372.09,-106.8 369.26,-105.34 366.46,-103.82"/>
<polygon fill="green" stroke="green" stroke-width="0.43" points="368.17,-100.77 357.73,-98.93 364.74,-106.88 368.17,-100.77"/>
</g>
<!-- &#45;4 -->
<g id="node4" class="node">
<title>&#45;4</title>
<polygon fill="lightgray" stroke="black" points="623.85,-162.12 599.85,-162.12 599.85,-144.12 623.85,-144.12 623.85,-162.12"/>
<text text-anchor="middle" x="611.85" y="-150.92" font-family="Times New Roman,serif" font-size="9.00">&#45;4</text>
</g>
<!-- &#45;4&#45;&gt;0 -->
<g id="edge55" class="edge">
<title>&#45;4&#45;&gt;0</title>
<path fill="none" stroke="red" stroke-width="0.29" d="M599.66,-151.21C559.93,-147.97 435.19,-135.73 407.85,-108.12 390.2,-90.31 386.88,-60.75 387.05,-39.89"/>
<polygon fill="red" stroke="red" stroke-width="0.29" points="390.55,-40.01 387.4,-29.89 383.55,-39.76 390.55,-40.01"/>
</g>
<!-- &#45;4&#45;&gt;1 -->
<g id="edge56" class="edge">
<title>&#45;4&#45;&gt;1</title>
<path fill="none" stroke="green" stroke-width="0.17" d="M623.86,-150.33C644.11,-146.59 684.53,-135.86 701.85,-108.12 711.83,-92.13 713.58,-80.46 701.85,-65.7 689.94,-50.72 565.73,-28.77 511.71,-19.84"/>
<polygon fill="green" stroke="green" stroke-width="0.17" points="512.04,-16.35 501.6,-18.19 510.91,-23.26 512.04,-16.35"/>
</g>
<!-- &#45;4&#45;&gt;2 -->
<g id="edge57" class="edge">
<title>&#45;4&#45;&gt;2</title>
<path fill="none" stroke="green" stroke-width="0.27" d="M599.75,-150.83C546.72,-145.09 336.19,-121.64 309.85,-108.12 277.27,-91.41 249.81,-58.08 234.34,-36.38"/>
<polygon fill="green" stroke="green" stroke-width="0.27" points="237.03,-34.12 228.47,-27.88 231.27,-38.1 237.03,-34.12"/>
</g>
<!-- &#45;4&#45;&gt;3 -->
<g id="edge58" class="edge">
<title>&#45;4&#45;&gt;3</title>
<path fill="none" stroke="green" stroke-width="0.12" d="M624.19,-151.08C675.42,-146.64 869.44,-128.54 886.85,-108.12 899.08,-93.78 898.93,-80.17 886.85,-65.7 870.79,-46.47 701.62,-25.82 636.87,-18.56"/>
<polygon fill="green" stroke="green" stroke-width="0.12" points="637.05,-15.06 626.73,-17.44 636.28,-22.01 637.05,-15.06"/>
</g>
<!-- &#45;4&#45;&gt;4 -->
<g id="edge59" class="edge">
<title>&#45;4&#45;&gt;4</title>
<path fill="none" stroke="red" stroke-width="0.39" d="M624,-150.75C678.17,-144.54 895.45,-119.04 904.85,-108.12 917.15,-93.84 915.82,-81.04 904.85,-65.7 877.29,-27.17 818.13,-18.08 784.18,-16.15"/>
<polygon fill="red" stroke="red" stroke-width="0.39" points="784.25,-12.65 774.11,-15.74 783.97,-19.64 784.25,-12.65"/>
</g>
<!-- &#45;4&#45;&gt;115 -->
<g id="edge13" class="edge">
<title>&#45;4&#45;&gt;115</title>
<path fill="none" stroke="green" stroke-width="0.23" stroke-dasharray="1,5" d="M599.61,-147.61C572.34,-137.55 505.95,-113.04 467.22,-98.75"/>
<polygon fill="green" stroke="green" stroke-width="0.23" points="468.15,-95.36 457.55,-95.18 465.72,-101.93 468.15,-95.36"/>
</g>
<!-- &#45;4&#45;&gt;117 -->
<g id="edge14" class="edge">
<title>&#45;4&#45;&gt;117</title>
<path fill="none" stroke="green" stroke-width="0.14" d="M619.45,-143.99C627.31,-135.58 639.94,-122.05 650.84,-110.4"/>
<polygon fill="green" stroke="green" stroke-width="0.14" points="653.41,-112.77 657.68,-103.08 648.29,-108 653.41,-112.77"/>
</g>
<!-- &#45;4&#45;&gt;118 -->
<g id="edge15" class="edge">
<title>&#45;4&#45;&gt;118</title>
<path fill="none" stroke="green" stroke-width="0.23" stroke-dasharray="1,5" d="M611.85,-143.99C611.85,-137.45 611.85,-127.82 611.85,-118.38"/>
<polygon fill="green" stroke="green" stroke-width="0.23" points="615.35,-118.37 611.85,-108.37 608.35,-118.37 615.35,-118.37"/>
</g>
<!-- &#45;4&#45;&gt;119 -->
<g id="edge16" class="edge">
<title>&#45;4&#45;&gt;119</title>
<path fill="none" stroke="red" stroke-width="0.12" d="M599.63,-151.32C563.96,-148.67 457.29,-138.56 374.85,-108.12 371.91,-107.04 368.94,-105.72 366.03,-104.28"/>
<polygon fill="red" stroke="red" stroke-width="0.12" points="367.54,-101.12 357.08,-99.42 364.19,-107.27 367.54,-101.12"/>
</g>
<!-- &#45;5 -->
<g id="node5" class="node">
<title>&#45;5</title>
<polygon fill="lightgray" stroke="black" points="732.85,-162.12 708.85,-162.12 708.85,-144.12 732.85,-144.12 732.85,-162.12"/>
<text text-anchor="middle" x="720.85" y="-150.92" font-family="Times New Roman,serif" font-size="9.00">&#45;5</text>
</g>
<!-- &#45;5&#45;&gt;0 -->
<g id="edge60" class="edge">
<title>&#45;5&#45;&gt;0</title>
<path fill="none" stroke="green" stroke-width="0.12" d="M725.88,-144.06C735.65,-127.26 754.58,-88.22 734.85,-65.7 694.66,-19.84 523.06,-39.31 462.85,-29.7 446.29,-27.06 427.74,-23.58 413.36,-20.78"/>
<polygon fill="green" stroke="green" stroke-width="0.12" points="413.76,-17.29 403.27,-18.78 412.4,-24.16 413.76,-17.29"/>
</g>
<!-- &#45;5&#45;&gt;1 -->
<g id="edge61" class="edge">
<title>&#45;5&#45;&gt;1</title>
<path fill="none" stroke="green" stroke-width="0.48" d="M732.99,-151.43C773.12,-148.87 900.38,-138.43 924.85,-108.12 936.69,-93.45 937.45,-79.72 924.85,-65.7 874.5,-9.69 662.61,-38.82 587.85,-29.7 561.79,-26.52 532.01,-22.38 511.58,-19.45"/>
<polygon fill="green" stroke="green" stroke-width="0.48" points="511.95,-15.97 501.55,-18.01 510.95,-22.9 511.95,-15.97"/>
</g>
<!-- &#45;5&#45;&gt;2 -->
<g id="edge62" class="edge">
<title>&#45;5&#45;&gt;2</title>
<path fill="none" stroke="red" stroke-width="0.18" d="M721.86,-143.95C723.49,-126.58 724.54,-85.96 701.85,-65.7 697.53,-61.85 343.8,-27.65 245.78,-18.24"/>
<polygon fill="red" stroke="red" stroke-width="0.18" points="245.91,-14.73 235.62,-17.26 245.24,-21.7 245.91,-14.73"/>
</g>
<!-- &#45;5&#45;&gt;3 -->
<g id="edge63" class="edge">
<title>&#45;5&#45;&gt;3</title>
<path fill="none" stroke="green" stroke-width="0.63" d="M733.01,-151.56C792.78,-148.66 1053.49,-134.55 1076.85,-108.12 1089.34,-94 1089.46,-79.71 1076.85,-65.7 1051.28,-37.3 772.83,-33.84 734.85,-29.7 700.79,-25.99 661.46,-21.53 636.62,-18.69"/>
<polygon fill="green" stroke="green" stroke-width="0.63" points="636.94,-15.21 626.61,-17.55 636.15,-22.16 636.94,-15.21"/>
</g>
<!-- &#45;5&#45;&gt;4 -->
<g id="edge64" class="edge">
<title>&#45;5&#45;&gt;4</title>
<path fill="none" stroke="red" stroke-width="0.2" d="M733.02,-151.71C796.6,-149.42 1088.69,-137.37 1114.85,-108.12 1127.42,-94.07 1127.22,-79.93 1114.85,-65.7 1071.7,-16.09 858.45,-14.37 784.31,-15.32"/>
<polygon fill="red" stroke="red" stroke-width="0.2" points="783.97,-11.82 774.03,-15.48 784.08,-18.82 783.97,-11.82"/>
</g>
<!-- &#45;5&#45;&gt;115 -->
<g id="edge17" class="edge">
<title>&#45;5&#45;&gt;115</title>
<path fill="none" stroke="green" stroke-width="0.14" d="M708.69,-149.37C667.18,-139.95 530.27,-108.88 468.53,-94.87"/>
<polygon fill="green" stroke="green" stroke-width="0.14" points="469.13,-91.42 458.6,-92.62 467.58,-98.25 469.13,-91.42"/>
</g>
<!-- &#45;5&#45;&gt;117 -->
<g id="edge18" class="edge">
<title>&#45;5&#45;&gt;117</title>
<path fill="none" stroke="red" stroke-width="0.19" d="M714.64,-143.99C708.61,-136.09 699.14,-123.67 690.64,-112.53"/>
<polygon fill="red" stroke="red" stroke-width="0.19" points="693.25,-110.18 684.4,-104.36 687.68,-114.43 693.25,-110.18"/>
</g>
<!-- &#45;5&#45;&gt;118 -->
<g id="edge19" class="edge">
<title>&#45;5&#45;&gt;118</title>
<path fill="none" stroke="green" stroke-width="0.22" d="M708.62,-145.73C692.93,-137.43 664.99,-122.33 641.85,-108.12 640.38,-107.22 638.87,-106.28 637.37,-105.32"/>
<polygon fill="green" stroke="green" stroke-width="0.22" points="639.1,-102.27 628.82,-99.71 635.26,-108.12 639.1,-102.27"/>
</g>
<!-- &#45;5&#45;&gt;119 -->
<g id="edge20" class="edge">
<title>&#45;5&#45;&gt;119</title>
<path fill="none" stroke="red" stroke-width="0.3" d="M708.79,-151.08C666.87,-147.33 523.66,-133.33 407.85,-108.12 395.19,-105.37 381.45,-101.47 369.66,-97.82"/>
<polygon fill="red" stroke="red" stroke-width="0.3" points="370.47,-94.41 359.88,-94.72 368.35,-101.08 370.47,-94.41"/>
</g>
<!-- 115&#45;&gt;0 -->
<g id="edge21" class="edge">
<title>115&#45;&gt;0</title>
<path fill="none" stroke="red" stroke-width="0.13" d="M425.99,-68.95C419.06,-59.05 410.29,-46.5 403,-36.09"/>
<polygon fill="red" stroke="red" stroke-width="0.13" points="405.67,-33.8 397.07,-27.61 399.94,-37.81 405.67,-33.8"/>
</g>
<!-- 115&#45;&gt;1 -->
<g id="edge22" class="edge">
<title>115&#45;&gt;1</title>
<path fill="none" stroke="green" stroke-width="0.45" d="M449.71,-68.95C456.63,-59.05 465.41,-46.5 472.69,-36.09"/>
<polygon fill="green" stroke="green" stroke-width="0.45" points="475.76,-37.81 478.62,-27.61 470.02,-33.8 475.76,-37.81"/>
</g>
<!-- 115&#45;&gt;2 -->
<g id="edge23" class="edge">
<title>115&#45;&gt;2</title>
<path fill="none" stroke="red" stroke-width="0.27" d="M417.82,-79.45C377.6,-66.46 287.17,-37.26 244.27,-23.41"/>
<polygon fill="red" stroke="red" stroke-width="0.27" points="245.28,-20.06 234.69,-20.32 243.13,-26.72 245.28,-20.06"/>
</g>
<!-- 115&#45;&gt;3 -->
<g id="edge24" class="edge">
<title>115&#45;&gt;3</title>
<path fill="none" stroke="green" stroke-width="0.24" d="M457.47,-78.01C489.83,-64.98 554.22,-39.05 588.73,-25.16"/>
<polygon fill="green" stroke="green" stroke-width="0.24" points="590.05,-28.4 598.02,-21.42 587.44,-21.91 590.05,-28.4"/>
</g>
<!-- 115&#45;&gt;4 -->
<g id="edge25" class="edge">
<title>115&#45;&gt;4</title>
<path fill="none" stroke="green" stroke-width="0.13" d="M458.42,-81.42C515.07,-69.06 673.22,-34.54 734.32,-21.2"/>
<polygon fill="green" stroke="green" stroke-width="0.13" points="735.21,-24.59 744.24,-19.04 733.72,-17.75 735.21,-24.59"/>
</g>
<!-- 117&#45;&gt;0 -->
<g id="edge26" class="edge">
<title>117&#45;&gt;0</title>
<path fill="none" stroke="green" stroke-width="0.17" d="M655.38,-73.12C651.16,-70.32 646.49,-67.63 641.85,-65.7 636.53,-63.49 476.49,-32.66 413.74,-20.62"/>
<polygon fill="green" stroke="green" stroke-width="0.17" points="414.02,-17.11 403.54,-18.66 412.71,-23.98 414.02,-17.11"/>
</g>
<!-- 117&#45;&gt;1 -->
<g id="edge27" class="edge">
<title>117&#45;&gt;1</title>
<path fill="none" stroke="green" stroke-width="0.33" d="M655.21,-73.5C650.99,-70.69 646.37,-67.89 641.85,-65.7 597.95,-44.38 542.76,-29.15 511.48,-21.48"/>
<polygon fill="green" stroke="green" stroke-width="0.33" points="512.01,-18.01 501.47,-19.09 510.38,-24.82 512.01,-18.01"/>
</g>
<!-- 117&#45;&gt;3 -->
<g id="edge28" class="edge">
<title>117&#45;&gt;3</title>
<path fill="none" stroke="green" stroke-width="0.23" d="M658.53,-70.36C649.51,-59.83 637.53,-45.84 627.97,-34.67"/>
<polygon fill="green" stroke="green" stroke-width="0.23" points="630.38,-32.11 621.21,-26.79 625.06,-36.66 630.38,-32.11"/>
</g>
<!-- 117&#45;&gt;4 -->
<g id="edge29" class="edge">
<title>117&#45;&gt;4</title>
<path fill="none" stroke="red" stroke-width="0.55" d="M688.21,-72.73C702.83,-60.96 724.26,-43.71 739.67,-31.29"/>
<polygon fill="red" stroke="red" stroke-width="0.55" points="741.95,-33.95 747.54,-24.95 737.56,-28.5 741.95,-33.95"/>
</g>
<!-- 118&#45;&gt;0 -->
<g id="edge30" class="edge">
<title>118&#45;&gt;0</title>
<path fill="none" stroke="red" stroke-width="0.35" d="M591.66,-79.57C550.37,-66.6 456.45,-37.09 412.43,-23.26"/>
<polygon fill="red" stroke="red" stroke-width="0.35" points="413.45,-19.91 402.86,-20.25 411.35,-26.59 413.45,-19.91"/>
</g>
<!-- 118&#45;&gt;1 -->
<g id="edge31" class="edge">
<title>118&#45;&gt;1</title>
<path fill="none" stroke="green" stroke-width="0.51" d="M593.67,-75.72C570.96,-62.99 532.15,-41.24 508.09,-27.75"/>
<polygon fill="green" stroke="green" stroke-width="0.51" points="509.79,-24.7 499.36,-22.86 506.37,-30.8 509.79,-24.7"/>
</g>
<!-- 118&#45;&gt;2 -->
<g id="edge32" class="edge">
<title>118&#45;&gt;2</title>
<path fill="none" stroke="green" stroke-width="0.56" d="M591.1,-82.19C524.58,-70.27 316.77,-33.04 245.29,-20.23"/>
<polygon fill="green" stroke="green" stroke-width="0.56" points="245.86,-16.78 235.4,-18.46 244.62,-23.67 245.86,-16.78"/>
</g>
<!-- 118&#45;&gt;3 -->
<g id="edge33" class="edge">
<title>118&#45;&gt;3</title>
<path fill="none" stroke="green" stroke-width="0.41" d="M611.85,-65.65C611.85,-57.67 611.85,-48.43 611.85,-40.1"/>
<polygon fill="green" stroke="green" stroke-width="0.41" points="615.35,-39.85 611.85,-29.85 608.35,-39.85 615.35,-39.85"/>
</g>
<!-- 118&#45;&gt;4 -->
<g id="edge34" class="edge">
<title>118&#45;&gt;4</title>
<path fill="none" stroke="green" stroke-width="0.27" d="M628.63,-73.79C632.85,-70.97 637.43,-68.1 641.85,-65.7 673.11,-48.71 711.38,-33.35 735.44,-24.31"/>
<polygon fill="green" stroke="green" stroke-width="0.27" points="736.96,-27.48 745.12,-20.72 734.53,-20.92 736.96,-27.48"/>
</g>
<!-- 119&#45;&gt;0 -->
<g id="edge35" class="edge">
<title>119&#45;&gt;0</title>
<path fill="none" stroke="red" stroke-width="0.17" d="M351.71,-68.95C358.63,-59.05 367.41,-46.5 374.69,-36.09"/>
<polygon fill="red" stroke="red" stroke-width="0.17" points="377.76,-37.81 380.62,-27.61 372.02,-33.8 377.76,-37.81"/>
</g>
<!-- 119&#45;&gt;1 -->
<g id="edge36" class="edge">
<title>119&#45;&gt;1</title>
<path fill="none" stroke="red" stroke-width="0.15" d="M358.76,-76.9C385.82,-64 435.47,-40.34 464.36,-26.57"/>
<polygon fill="red" stroke="red" stroke-width="0.15" points="466.13,-29.6 473.65,-22.14 463.11,-23.28 466.13,-29.6"/>
</g>
<!-- 119&#45;&gt;2 -->
<g id="edge37" class="edge">
<title>119&#45;&gt;2</title>
<path fill="none" stroke="green" stroke-width="0.11" d="M321.77,-75.27C300.38,-62.68 264.81,-41.73 242.11,-28.37"/>
<polygon fill="green" stroke="green" stroke-width="0.11" points="243.65,-25.21 233.25,-23.15 240.09,-31.24 243.65,-25.21"/>
</g>
<!-- 119&#45;&gt;3 -->
<g id="edge38" class="edge">
<title>119&#45;&gt;3</title>
<path fill="none" stroke="green" stroke-width="0.17" d="M360.01,-79.64C373.5,-75.51 391.68,-70.07 407.85,-65.7 472.23,-48.27 548.77,-30.3 587.22,-21.45"/>
<polygon fill="green" stroke="green" stroke-width="0.17" points="588.47,-24.76 597.44,-19.11 586.91,-17.93 588.47,-24.76"/>
</g>
<!-- 119&#45;&gt;4 -->
<g id="edge39" class="edge">
<title>119&#45;&gt;4</title>
<path fill="none" stroke="green" stroke-width="0.15" d="M359.88,-79.11C373.31,-74.75 391.48,-69.27 407.85,-65.7 470.63,-51.99 664.55,-27.47 733.88,-18.91"/>
<polygon fill="green" stroke="green" stroke-width="0.15" points="734.4,-22.37 743.9,-17.67 733.55,-15.42 734.4,-22.37"/>
</g>
</g>
</svg>
