<?xml version="1.0" encoding="UTF-8" standalone="no"?>
<!DOCTYPE svg PUBLIC "-//W3C//DTD SVG 1.1//EN"
 "http://www.w3.org/Graphics/SVG/1.1/DTD/svg11.dtd">
<!-- Generated by graphviz version 3.0.0 (20220226.1711)
 -->
<!-- Pages: 1 -->
<svg width="1510pt" height="471pt"
 viewBox="0.00 0.00 1510.38 471.10" xmlns="http://www.w3.org/2000/svg" xmlns:xlink="http://www.w3.org/1999/xlink">
<g id="graph0" class="graph" transform="scale(1 1) rotate(0) translate(4 467.1)">
<polygon fill="white" stroke="transparent" points="-4,4 -4,-467.1 1506.38,-467.1 1506.38,4 -4,4"/>
<!-- &#45;1 -->
<g id="node1" class="node">
<title>&#45;1</title>
<polygon fill="lightgray" stroke="black" points="492.38,-463.1 468.38,-463.1 468.38,-445.1 492.38,-445.1 492.38,-463.1"/>
<text text-anchor="middle" x="480.38" y="-451.9" font-family="Times New Roman,serif" font-size="9.00">&#45;1</text>
</g>
<!-- 0 -->
<g id="node6" class="node">
<title>0</title>
<ellipse fill="lightblue" stroke="black" cx="198.38" cy="-14.85" rx="14.7" ry="14.7"/>
<text text-anchor="middle" x="198.38" y="-12.65" font-family="Times New Roman,serif" font-size="9.00">0</text>
</g>
<!-- &#45;1&#45;&gt;0 -->
<g id="edge36" class="edge">
<title>&#45;1&#45;&gt;0</title>
<path fill="none" stroke="green" stroke-width="0.63" stroke-dasharray="1,5" d="M468.23,-453.35C409.78,-453.85 160.38,-447.93 160.38,-310.46 160.38,-310.46 160.38,-310.46 160.38,-157.97 160.38,-114.49 177.19,-65.98 188.45,-38.37"/>
<polygon fill="green" stroke="green" stroke-width="0.63" points="191.8,-39.44 192.45,-28.86 185.34,-36.72 191.8,-39.44"/>
</g>
<!-- 1 -->
<g id="node7" class="node">
<title>1</title>
<ellipse fill="lightblue" stroke="black" cx="793.38" cy="-158.97" rx="14.7" ry="14.7"/>
<text text-anchor="middle" x="793.38" y="-156.77" font-family="Times New Roman,serif" font-size="9.00">1</text>
</g>
<!-- &#45;1&#45;&gt;1 -->
<g id="edge37" class="edge">
<title>&#45;1&#45;&gt;1</title>
<path fill="none" stroke="red" stroke-width="0.15" stroke-dasharray="1,5" d="M476.31,-444.68C460.42,-410.52 406.49,-280.74 467.38,-209.82 487.03,-186.94 695.14,-167.96 768.2,-161.96"/>
<polygon fill="red" stroke="red" stroke-width="0.15" points="768.66,-165.43 778.34,-161.14 768.09,-158.45 768.66,-165.43"/>
</g>
<!-- 4 -->
<g id="node10" class="node">
<title>4</title>
<ellipse fill="lightblue" stroke="black" cx="986.38" cy="-158.97" rx="14.7" ry="14.7"/>
<text text-anchor="middle" x="986.38" y="-156.77" font-family="Times New Roman,serif" font-size="9.00">4</text>
</g>
<!-- &#45;1&#45;&gt;4 -->
<g id="edge38" class="edge">
<title>&#45;1&#45;&gt;4</title>
<path fill="none" stroke="red" stroke-width="0.16" d="M492.52,-449.88C515.89,-443.47 568.51,-428.12 610.38,-409.1 644.55,-393.58 650.58,-384.89 683.38,-366.68 748.47,-330.54 763.4,-318.58 831.38,-288.25 873.76,-269.34 893.44,-281.6 929.38,-252.25 941.63,-242.25 962.32,-205.69 975.12,-181.7"/>
<polygon fill="red" stroke="red" stroke-width="0.16" points="978.35,-183.08 979.92,-172.6 972.16,-179.81 978.35,-183.08"/>
</g>
<!-- 134 -->
<g id="node12" class="node">
<title>134</title>
<ellipse fill="white" stroke="black" cx="328.38" cy="-387.89" rx="21.43" ry="21.43"/>
<text text-anchor="middle" x="328.38" y="-385.69" font-family="Times New Roman,serif" font-size="9.00">134</text>
</g>
<!-- &#45;1&#45;&gt;134 -->
<g id="edge53" class="edge">
<title>&#45;1&#45;&gt;134</title>
<path fill="none" stroke="green" stroke-width="0.7" d="M468.2,-447.96C444.22,-437.83 390.33,-415.06 356.89,-400.93"/>
<polygon fill="green" stroke="green" stroke-width="0.7" points="358.21,-397.69 347.64,-397.02 355.49,-404.14 358.21,-397.69"/>
</g>
<!-- 194 -->
<g id="node13" class="node">
<title>194</title>
<ellipse fill="white" stroke="black" cx="247.38" cy="-309.46" rx="21.43" ry="21.43"/>
<text text-anchor="middle" x="247.38" y="-307.26" font-family="Times New Roman,serif" font-size="9.00">194</text>
</g>
<!-- &#45;1&#45;&gt;194 -->
<g id="edge62" class="edge">
<title>&#45;1&#45;&gt;194</title>
<path fill="none" stroke="green" stroke-width="0.11" d="M468.3,-453.45C436.81,-453.74 351.06,-450.45 298.38,-409.1 276.29,-391.76 262.82,-362.21 255.32,-339.97"/>
<polygon fill="green" stroke="green" stroke-width="0.11" points="258.63,-338.81 252.29,-330.33 251.95,-340.92 258.63,-338.81"/>
</g>
<!-- 110 -->
<g id="node16" class="node">
<title>110</title>
<ellipse fill="white" stroke="black" cx="541.38" cy="-387.89" rx="21.43" ry="21.43"/>
<text text-anchor="middle" x="541.38" y="-385.69" font-family="Times New Roman,serif" font-size="9.00">110</text>
</g>
<!-- &#45;1&#45;&gt;110 -->
<g id="edge1" class="edge">
<title>&#45;1&#45;&gt;110</title>
<path fill="none" stroke="green" stroke-width="0.12" d="M488.11,-444.97C496.1,-436.55 508.95,-423.03 520.02,-411.38"/>
<polygon fill="green" stroke="green" stroke-width="0.12" points="522.63,-413.72 526.97,-404.06 517.55,-408.9 522.63,-413.72"/>
</g>
<!-- 112 -->
<g id="node18" class="node">
<title>112</title>
<ellipse fill="white" stroke="black" cx="1035.38" cy="-231.04" rx="21.43" ry="21.43"/>
<text text-anchor="middle" x="1035.38" y="-228.84" font-family="Times New Roman,serif" font-size="9.00">112</text>
</g>
<!-- &#45;1&#45;&gt;112 -->
<g id="edge2" class="edge">
<title>&#45;1&#45;&gt;112</title>
<path fill="none" stroke="red" stroke-width="0.25" stroke-dasharray="1,5" d="M492.41,-450.81C555.47,-438.64 847.92,-380.3 924.38,-330.68 945.62,-316.9 943.83,-305.47 962.38,-288.25 977.24,-274.46 995.27,-260.55 1009.69,-250.02"/>
<polygon fill="red" stroke="red" stroke-width="0.25" points="1012.08,-252.61 1018.15,-243.93 1007.99,-246.93 1012.08,-252.61"/>
</g>
<!-- 113 -->
<g id="node19" class="node">
<title>113</title>
<ellipse fill="white" stroke="black" cx="899.38" cy="-231.04" rx="21.43" ry="21.43"/>
<text text-anchor="middle" x="899.38" y="-228.84" font-family="Times New Roman,serif" font-size="9.00">113</text>
</g>
<!-- &#45;1&#45;&gt;113 -->
<g id="edge3" class="edge">
<title>&#45;1&#45;&gt;113</title>
<path fill="none" stroke="red" stroke-width="0.11" d="M492.62,-448.23C510.53,-440.86 544.67,-425.95 571.38,-409.1 644.09,-363.25 645.42,-326.54 722.38,-288.25 780.68,-259.25 804.07,-276.76 864.38,-252.25 867.28,-251.07 870.23,-249.69 873.12,-248.22"/>
<polygon fill="red" stroke="red" stroke-width="0.11" points="874.98,-251.19 882.06,-243.3 871.61,-245.05 874.98,-251.19"/>
</g>
<!-- &#45;2 -->
<g id="node2" class="node">
<title>&#45;2</title>
<polygon fill="lightgray" stroke="black" points="215.38,-463.1 191.38,-463.1 191.38,-445.1 215.38,-445.1 215.38,-463.1"/>
<text text-anchor="middle" x="203.38" y="-451.9" font-family="Times New Roman,serif" font-size="9.00">&#45;2</text>
</g>
<!-- &#45;2&#45;&gt;0 -->
<g id="edge39" class="edge">
<title>&#45;2&#45;&gt;0</title>
<path fill="none" stroke="green" stroke-width="0.22" d="M191.2,-452.57C163.9,-450.77 96.96,-442.95 55.38,-409.1 16.79,-377.68 2.38,-360.23 2.38,-310.46 2.38,-310.46 2.38,-310.46 2.38,-157.97 2.38,-116.1 -7.15,-96.35 21.38,-65.7 61.18,-22.95 134.49,-15.84 173.09,-15.27"/>
<polygon fill="green" stroke="green" stroke-width="0.22" points="173.44,-18.77 183.44,-15.26 173.44,-11.77 173.44,-18.77"/>
</g>
<!-- 2 -->
<g id="node8" class="node">
<title>2</title>
<ellipse fill="lightblue" stroke="black" cx="546.38" cy="-158.97" rx="14.7" ry="14.7"/>
<text text-anchor="middle" x="546.38" y="-156.77" font-family="Times New Roman,serif" font-size="9.00">2</text>
</g>
<!-- &#45;2&#45;&gt;2 -->
<g id="edge40" class="edge">
<title>&#45;2&#45;&gt;2</title>
<path fill="none" stroke="green" stroke-width="0.23" d="M191.09,-447.76C177.3,-441.01 155.64,-427.95 146.38,-409.1 138.07,-392.18 140.05,-384.44 146.38,-366.68 176.58,-281.92 196.92,-255.61 274.38,-209.82 316.22,-185.1 462,-168.3 521.15,-162.36"/>
<polygon fill="green" stroke="green" stroke-width="0.23" points="521.85,-165.81 531.46,-161.35 521.16,-158.84 521.85,-165.81"/>
</g>
<!-- 164 -->
<g id="node11" class="node">
<title>164</title>
<ellipse fill="white" stroke="black" cx="51.38" cy="-86.91" rx="21.43" ry="21.43"/>
<text text-anchor="middle" x="51.38" y="-84.71" font-family="Times New Roman,serif" font-size="9.00">164</text>
</g>
<!-- &#45;2&#45;&gt;164 -->
<g id="edge58" class="edge">
<title>&#45;2&#45;&gt;164</title>
<path fill="none" stroke="green" stroke-width="0.1" d="M191.1,-450.88C169.67,-446.43 125.1,-434.59 97.38,-409.1 61.06,-375.7 46.38,-359.82 46.38,-310.46 46.38,-310.46 46.38,-310.46 46.38,-230.04 46.38,-191.51 48.24,-147.13 49.69,-118.36"/>
<polygon fill="green" stroke="green" stroke-width="0.1" points="53.2,-118.31 50.22,-108.14 46.21,-117.95 53.2,-118.31"/>
</g>
<!-- &#45;2&#45;&gt;110 -->
<g id="edge4" class="edge">
<title>&#45;2&#45;&gt;110</title>
<path fill="none" stroke="green" stroke-width="0.28" d="M215.41,-450.82C262.95,-441.79 438.63,-408.41 510.46,-394.76"/>
<polygon fill="green" stroke="green" stroke-width="0.28" points="511.5,-398.13 520.68,-392.82 510.2,-391.25 511.5,-398.13"/>
</g>
<!-- &#45;2&#45;&gt;112 -->
<g id="edge5" class="edge">
<title>&#45;2&#45;&gt;112</title>
<path fill="none" stroke="red" stroke-width="0.23" stroke-dasharray="1,5" d="M215.65,-452.71C262.51,-451.01 434.53,-442.67 571.38,-409.1 623.08,-396.42 632.04,-380.71 683.38,-366.68 773.88,-341.95 810.94,-378.96 891.38,-330.68 911.87,-318.38 905.95,-303.44 924.38,-288.25 937.88,-277.13 978.7,-257.59 1006.89,-244.73"/>
<polygon fill="red" stroke="red" stroke-width="0.23" points="1008.6,-247.8 1016.27,-240.48 1005.71,-241.42 1008.6,-247.8"/>
</g>
<!-- &#45;2&#45;&gt;113 -->
<g id="edge6" class="edge">
<title>&#45;2&#45;&gt;113</title>
<path fill="none" stroke="red" stroke-width="0.43" d="M210.59,-445.07C225.63,-428.67 261.98,-390.86 298.38,-366.68 367.36,-320.86 387.85,-311.29 467.38,-288.25 612.84,-246.12 795.02,-235.5 867.51,-232.88"/>
<polygon fill="red" stroke="red" stroke-width="0.43" points="867.91,-236.37 877.79,-232.53 867.67,-229.37 867.91,-236.37"/>
</g>
<!-- 114 -->
<g id="node20" class="node">
<title>114</title>
<ellipse fill="white" stroke="black" cx="861.38" cy="-309.46" rx="21.43" ry="21.43"/>
<text text-anchor="middle" x="861.38" y="-307.26" font-family="Times New Roman,serif" font-size="9.00">114</text>
</g>
<!-- &#45;2&#45;&gt;114 -->
<g id="edge7" class="edge">
<title>&#45;2&#45;&gt;114</title>
<path fill="none" stroke="red" stroke-width="0.42" d="M215.53,-449.65C270.77,-433.97 496.16,-370.02 511.38,-366.68 627.91,-341.06 768.66,-322 830.13,-314.26"/>
<polygon fill="red" stroke="red" stroke-width="0.42" points="830.83,-317.7 840.32,-312.99 829.96,-310.76 830.83,-317.7"/>
</g>
<!-- 238 -->
<g id="node21" class="node">
<title>238</title>
<ellipse fill="white" stroke="black" cx="111.38" cy="-86.91" rx="21.43" ry="21.43"/>
<text text-anchor="middle" x="111.38" y="-84.71" font-family="Times New Roman,serif" font-size="9.00">238</text>
</g>
<!-- &#45;2&#45;&gt;238 -->
<g id="edge70" class="edge">
<title>&#45;2&#45;&gt;238</title>
<path fill="none" stroke="green" stroke-width="0.29" d="M191.37,-447.41C177.07,-440.14 153.13,-426.42 137.38,-409.1 103.9,-372.28 84.38,-360.23 84.38,-310.46 84.38,-310.46 84.38,-310.46 84.38,-230.04 84.38,-190.44 94.62,-145.72 102.49,-117.2"/>
<polygon fill="green" stroke="green" stroke-width="0.29" points="105.89,-118.04 105.26,-107.46 99.15,-116.12 105.89,-118.04"/>
</g>
<!-- &#45;3 -->
<g id="node3" class="node">
<title>&#45;3</title>
<polygon fill="lightgray" stroke="black" points="1058.38,-463.1 1034.38,-463.1 1034.38,-445.1 1058.38,-445.1 1058.38,-463.1"/>
<text text-anchor="middle" x="1046.38" y="-451.9" font-family="Times New Roman,serif" font-size="9.00">&#45;3</text>
</g>
<!-- &#45;3&#45;&gt;1 -->
<g id="edge41" class="edge">
<title>&#45;3&#45;&gt;1</title>
<path fill="none" stroke="red" stroke-width="0.44" stroke-dasharray="1,5" d="M1034.16,-450.34C996.37,-441.08 880.95,-407.32 831.38,-330.68 801.77,-284.9 795.01,-219.35 793.6,-184.3"/>
<polygon fill="red" stroke="red" stroke-width="0.44" points="797.1,-183.95 793.32,-174.05 790.1,-184.14 797.1,-183.95"/>
</g>
<!-- &#45;3&#45;&gt;2 -->
<g id="edge42" class="edge">
<title>&#45;3&#45;&gt;2</title>
<path fill="none" stroke="green" stroke-width="0.23" d="M1034.34,-451.54C986.15,-444.82 804.1,-414.75 684.38,-330.68 625.98,-289.66 579.18,-217.31 558.26,-181.41"/>
<polygon fill="green" stroke="green" stroke-width="0.23" points="561.28,-179.65 553.28,-172.71 555.21,-183.13 561.28,-179.65"/>
</g>
<!-- 3 -->
<g id="node9" class="node">
<title>3</title>
<ellipse fill="lightblue" stroke="black" cx="1369.38" cy="-158.97" rx="14.7" ry="14.7"/>
<text text-anchor="middle" x="1369.38" y="-156.77" font-family="Times New Roman,serif" font-size="9.00">3</text>
</g>
<!-- &#45;3&#45;&gt;3 -->
<g id="edge43" class="edge">
<title>&#45;3&#45;&gt;3</title>
<path fill="none" stroke="red" stroke-width="0.44" d="M1058.58,-450.13C1083.13,-443.95 1140.06,-428.65 1185.38,-409.1 1251.23,-380.71 1269.49,-374.32 1326.38,-330.68 1364.89,-301.13 1384.16,-297.24 1402.38,-252.25 1409.46,-234.77 1407.82,-227.88 1402.38,-209.82 1398.97,-198.49 1392.06,-187.37 1385.43,-178.51"/>
<polygon fill="red" stroke="red" stroke-width="0.44" points="1388.01,-176.14 1379.05,-170.49 1382.53,-180.5 1388.01,-176.14"/>
</g>
<!-- &#45;3&#45;&gt;4 -->
<g id="edge44" class="edge">
<title>&#45;3&#45;&gt;4</title>
<path fill="none" stroke="green" stroke-width="0.29" d="M1058.73,-451.77C1081.62,-448.64 1130.74,-438.67 1157.38,-409.1 1193.93,-368.55 1204.79,-336.57 1179.38,-288.25 1143.49,-219.99 1053.13,-182.03 1010,-167.27"/>
<polygon fill="green" stroke="green" stroke-width="0.29" points="1010.95,-163.89 1000.36,-164.09 1008.76,-170.54 1010.95,-163.89"/>
</g>
<!-- 199 -->
<g id="node14" class="node">
<title>199</title>
<ellipse fill="white" stroke="black" cx="1149.38" cy="-309.46" rx="21.43" ry="21.43"/>
<text text-anchor="middle" x="1149.38" y="-307.26" font-family="Times New Roman,serif" font-size="9.00">199</text>
</g>
<!-- &#45;3&#45;&gt;199 -->
<g id="edge65" class="edge">
<title>&#45;3&#45;&gt;199</title>
<path fill="none" stroke="red" stroke-width="0.39" d="M1058.65,-450.92C1078.54,-446.69 1117.49,-435.36 1136.38,-409.1 1150.53,-389.43 1153.08,-361.69 1152.49,-340.64"/>
<polygon fill="red" stroke="red" stroke-width="0.39" points="1155.98,-340.42 1151.96,-330.61 1148.99,-340.78 1155.98,-340.42"/>
</g>
<!-- &#45;3&#45;&gt;110 -->
<g id="edge8" class="edge">
<title>&#45;3&#45;&gt;110</title>
<path fill="none" stroke="green" stroke-width="0.39" d="M1034.08,-451.64C988.51,-446.19 825.02,-426.55 690.38,-409.1 649.62,-403.82 602.64,-397.39 572.51,-393.22"/>
<polygon fill="green" stroke="green" stroke-width="0.39" points="572.98,-389.75 562.59,-391.85 572.02,-396.69 572.98,-389.75"/>
</g>
<!-- &#45;3&#45;&gt;112 -->
<g id="edge9" class="edge">
<title>&#45;3&#45;&gt;112</title>
<path fill="none" stroke="green" stroke-width="0.46" stroke-dasharray="1,5" d="M1049.85,-444.85C1053.31,-436.15 1058.39,-421.94 1060.38,-409.1 1068.47,-357.03 1054.84,-296.16 1044.74,-261.06"/>
<polygon fill="green" stroke="green" stroke-width="0.46" points="1048.08,-260.03 1041.87,-251.45 1041.38,-262.03 1048.08,-260.03"/>
</g>
<!-- &#45;3&#45;&gt;113 -->
<g id="edge10" class="edge">
<title>&#45;3&#45;&gt;113</title>
<path fill="none" stroke="red" stroke-width="0.57" d="M1040.98,-444.97C1020.84,-414.69 949.63,-307.61 916.53,-257.83"/>
<polygon fill="red" stroke="red" stroke-width="0.57" points="919.27,-255.62 910.82,-249.23 913.44,-259.5 919.27,-255.62"/>
</g>
<!-- &#45;3&#45;&gt;114 -->
<g id="edge11" class="edge">
<title>&#45;3&#45;&gt;114</title>
<path fill="none" stroke="green" stroke-width="0.56" d="M1035.91,-445.02C1007.22,-422.91 926.81,-360.91 885.93,-329.39"/>
<polygon fill="green" stroke="green" stroke-width="0.56" points="887.89,-326.48 877.83,-323.15 883.62,-332.02 887.89,-326.48"/>
</g>
<!-- &#45;4 -->
<g id="node4" class="node">
<title>&#45;4</title>
<polygon fill="lightgray" stroke="black" points="1324.38,-463.1 1300.38,-463.1 1300.38,-445.1 1324.38,-445.1 1324.38,-463.1"/>
<text text-anchor="middle" x="1312.38" y="-451.9" font-family="Times New Roman,serif" font-size="9.00">&#45;4</text>
</g>
<!-- &#45;4&#45;&gt;0 -->
<g id="edge45" class="edge">
<title>&#45;4&#45;&gt;0</title>
<path fill="none" stroke="red" stroke-width="0.37" d="M1324.56,-450.34C1366.49,-440.04 1502.38,-399.76 1502.38,-310.46 1502.38,-310.46 1502.38,-310.46 1502.38,-157.97 1502.38,-24.28 405.1,-16.27 223.65,-15.86"/>
<polygon fill="red" stroke="red" stroke-width="0.37" points="223.48,-12.36 213.48,-15.84 223.47,-19.36 223.48,-12.36"/>
</g>
<!-- &#45;4&#45;&gt;1 -->
<g id="edge46" class="edge">
<title>&#45;4&#45;&gt;1</title>
<path fill="none" stroke="green" stroke-width="0.4" stroke-dasharray="1,5" d="M1310.91,-445.03C1307.79,-429.19 1299.52,-393.27 1284.38,-366.68 1261.42,-326.33 1251.9,-316.92 1215.38,-288.25 1156.21,-241.8 1136.52,-234.31 1065.38,-209.82 977.57,-179.6 867.17,-166.59 818.45,-162.04"/>
<polygon fill="green" stroke="green" stroke-width="0.4" points="818.5,-158.53 808.23,-161.12 817.87,-165.5 818.5,-158.53"/>
</g>
<!-- &#45;4&#45;&gt;2 -->
<g id="edge47" class="edge">
<title>&#45;4&#45;&gt;2</title>
<path fill="none" stroke="red" stroke-width="0.24" stroke-dasharray="1,5" d="M1300.31,-452.41C1259.6,-449.83 1123.91,-439.36 1016.38,-409.1 846.81,-361.39 800.84,-347.07 652.38,-252.25 628.39,-236.92 625.85,-228.53 604.38,-209.82 591.33,-198.45 576.54,-185.73 565.15,-175.99"/>
<polygon fill="red" stroke="red" stroke-width="0.24" points="567.42,-173.32 557.54,-169.48 562.87,-178.64 567.42,-173.32"/>
</g>
<!-- &#45;4&#45;&gt;3 -->
<g id="edge48" class="edge">
<title>&#45;4&#45;&gt;3</title>
<path fill="none" stroke="red" stroke-width="0.46" d="M1324.68,-449.91C1343.58,-444.44 1379.92,-431.65 1402.38,-409.1 1429.72,-381.67 1431.72,-368.43 1440.38,-330.68 1452.4,-278.32 1465.15,-257.48 1440.38,-209.82 1430.34,-190.5 1408.98,-177.1 1392.3,-169.1"/>
<polygon fill="red" stroke="red" stroke-width="0.46" points="1393.7,-165.89 1383.14,-165.01 1390.85,-172.28 1393.7,-165.89"/>
</g>
<!-- &#45;4&#45;&gt;4 -->
<g id="edge49" class="edge">
<title>&#45;4&#45;&gt;4</title>
<path fill="none" stroke="red" stroke-width="0.27" d="M1324.54,-446.96C1337.18,-439.81 1356.22,-426.7 1364.38,-409.1 1386.98,-360.38 1395.43,-332.08 1364.38,-288.25 1280.73,-170.16 1082.02,-159.37 1011.64,-159.41"/>
<polygon fill="red" stroke="red" stroke-width="0.27" points="1011.45,-155.91 1001.48,-159.49 1011.51,-162.91 1011.45,-155.91"/>
</g>
<!-- &#45;4&#45;&gt;110 -->
<g id="edge12" class="edge">
<title>&#45;4&#45;&gt;110</title>
<path fill="none" stroke="red" stroke-width="0.36" d="M1300.27,-452.09C1215.12,-445 705.83,-402.59 573.03,-391.53"/>
<polygon fill="red" stroke="red" stroke-width="0.36" points="573,-388.01 562.74,-390.67 572.42,-394.99 573,-388.01"/>
</g>
<!-- &#45;4&#45;&gt;112 -->
<g id="edge13" class="edge">
<title>&#45;4&#45;&gt;112</title>
<path fill="none" stroke="green" stroke-width="0.36" d="M1307.94,-445C1293.16,-418.7 1242.88,-334.74 1179.38,-288.25 1144.56,-262.75 1096.66,-247.1 1065.86,-239"/>
<polygon fill="green" stroke="green" stroke-width="0.36" points="1066.66,-235.59 1056.11,-236.53 1064.95,-242.38 1066.66,-235.59"/>
</g>
<!-- &#45;4&#45;&gt;113 -->
<g id="edge14" class="edge">
<title>&#45;4&#45;&gt;113</title>
<path fill="none" stroke="green" stroke-width="0.52" d="M1300.02,-446.49C1243.4,-416.18 1008.11,-290.23 927,-246.82"/>
<polygon fill="green" stroke="green" stroke-width="0.52" points="928.37,-243.58 917.9,-241.95 925.07,-249.75 928.37,-243.58"/>
</g>
<!-- &#45;4&#45;&gt;114 -->
<g id="edge15" class="edge">
<title>&#45;4&#45;&gt;114</title>
<path fill="none" stroke="green" stroke-width="0.73" d="M1300.22,-450.21C1272.65,-443.57 1203.42,-426.5 1146.38,-409.1 1051.78,-380.24 941.61,-340.26 890.36,-321.29"/>
<polygon fill="green" stroke="green" stroke-width="0.73" points="891.51,-317.98 880.91,-317.78 889.07,-324.55 891.51,-317.98"/>
</g>
<!-- &#45;5 -->
<g id="node5" class="node">
<title>&#45;5</title>
<polygon fill="lightgray" stroke="black" points="792.38,-463.1 768.38,-463.1 768.38,-445.1 792.38,-445.1 792.38,-463.1"/>
<text text-anchor="middle" x="780.38" y="-451.9" font-family="Times New Roman,serif" font-size="9.00">&#45;5</text>
</g>
<!-- &#45;5&#45;&gt;1 -->
<g id="edge50" class="edge">
<title>&#45;5&#45;&gt;1</title>
<path fill="none" stroke="red" stroke-width="0.36" d="M777.57,-444.9C767.29,-413.55 733.63,-298.69 760.38,-209.82 763.79,-198.49 770.71,-187.37 777.33,-178.51"/>
<polygon fill="red" stroke="red" stroke-width="0.36" points="780.23,-180.5 783.72,-170.49 774.75,-176.14 780.23,-180.5"/>
</g>
<!-- &#45;5&#45;&gt;2 -->
<g id="edge51" class="edge">
<title>&#45;5&#45;&gt;2</title>
<path fill="none" stroke="green" stroke-width="0.28" d="M768.29,-452.25C721.99,-448.81 556.44,-434.93 511.38,-409.1 472.11,-386.59 461.74,-373.26 446.38,-330.68 428.17,-280.15 418.12,-255.5 446.38,-209.82 462.74,-183.38 497.82,-170.51 521.76,-164.58"/>
<polygon fill="green" stroke="green" stroke-width="0.28" points="522.57,-167.99 531.56,-162.38 521.04,-161.16 522.57,-167.99"/>
</g>
<!-- &#45;5&#45;&gt;3 -->
<g id="edge52" class="edge">
<title>&#45;5&#45;&gt;3</title>
<path fill="none" stroke="green" stroke-width="0.95" d="M792.39,-451.62C845.84,-444.68 1066.5,-412.17 1226.38,-330.68 1276.08,-305.34 1289.53,-295.81 1324.38,-252.25 1341.36,-231.04 1354.07,-202.37 1361.58,-182.65"/>
<polygon fill="green" stroke="green" stroke-width="0.95" points="1364.87,-183.83 1365.03,-173.24 1358.3,-181.42 1364.87,-183.83"/>
</g>
<!-- &#45;5&#45;&gt;110 -->
<g id="edge16" class="edge">
<title>&#45;5&#45;&gt;110</title>
<path fill="none" stroke="red" stroke-width="0.29" d="M768.2,-449.83C732.08,-440.13 624.8,-411.3 571.76,-397.05"/>
<polygon fill="red" stroke="red" stroke-width="0.29" points="572.48,-393.62 561.91,-394.41 570.66,-400.38 572.48,-393.62"/>
</g>
<!-- &#45;5&#45;&gt;112 -->
<g id="edge17" class="edge">
<title>&#45;5&#45;&gt;112</title>
<path fill="none" stroke="red" stroke-width="0.5" stroke-dasharray="1,5" d="M792.46,-446.88C823.19,-430.68 905.96,-384.62 962.38,-330.68 985.15,-308.91 1005.98,-279.37 1019.5,-258.31"/>
<polygon fill="red" stroke="red" stroke-width="0.5" points="1022.46,-260.18 1024.84,-249.85 1016.54,-256.44 1022.46,-260.18"/>
</g>
<!-- &#45;5&#45;&gt;114 -->
<g id="edge18" class="edge">
<title>&#45;5&#45;&gt;114</title>
<path fill="none" stroke="red" stroke-width="0.57" d="M784.97,-445.02C796.54,-424.64 827.35,-370.39 846.12,-337.34"/>
<polygon fill="red" stroke="red" stroke-width="0.57" points="849.41,-338.64 851.3,-328.22 843.32,-335.18 849.41,-338.64"/>
</g>
<!-- 148 -->
<g id="node22" class="node">
<title>148</title>
<ellipse fill="white" stroke="black" cx="793.38" cy="-86.91" rx="21.43" ry="21.43"/>
<text text-anchor="middle" x="793.38" y="-84.71" font-family="Times New Roman,serif" font-size="9.00">148</text>
</g>
<!-- 1&#45;&gt;148 -->
<g id="edge60" class="edge">
<title>1&#45;&gt;148</title>
<path fill="none" stroke="green" stroke-width="0.33" d="M793.38,-143.8C793.38,-136.44 793.38,-127.15 793.38,-118.27"/>
<polygon fill="green" stroke="green" stroke-width="0.33" points="796.88,-118.18 793.38,-108.18 789.88,-118.18 796.88,-118.18"/>
</g>
<!-- 164&#45;&gt;0 -->
<g id="edge59" class="edge">
<title>164&#45;&gt;0</title>
<path fill="none" stroke="green" stroke-width="0.14" d="M68.17,-73.79C72.38,-70.97 76.97,-68.1 81.38,-65.7 112.65,-48.71 150.91,-33.35 174.98,-24.31"/>
<polygon fill="green" stroke="green" stroke-width="0.14" points="176.5,-27.48 184.66,-20.72 174.06,-20.92 176.5,-27.48"/>
</g>
<!-- 134&#45;&gt;0 -->
<g id="edge54" class="edge">
<title>134&#45;&gt;0</title>
<path fill="none" stroke="green" stroke-width="0.13" d="M307.6,-382.29C282.17,-375.52 239.75,-360.34 217.38,-330.68 190.5,-295.03 198.38,-276.68 198.38,-232.04 198.38,-232.04 198.38,-232.04 198.38,-157.97 198.38,-116.59 198.38,-68.42 198.38,-40.12"/>
<polygon fill="green" stroke="green" stroke-width="0.13" points="201.88,-39.97 198.38,-29.97 194.88,-39.97 201.88,-39.97"/>
</g>
<!-- 134&#45;&gt;114 -->
<g id="edge64" class="edge">
<title>134&#45;&gt;114</title>
<path fill="none" stroke="red" stroke-width="0.26" d="M345.52,-375.12C351.01,-371.87 357.25,-368.7 363.38,-366.68 451.02,-337.82 735.23,-318.2 830.17,-312.31"/>
<polygon fill="red" stroke="red" stroke-width="0.26" points="830.52,-315.8 840.28,-311.69 830.09,-308.81 830.52,-315.8"/>
</g>
<!-- 194&#45;&gt;2 -->
<g id="edge63" class="edge">
<title>194&#45;&gt;2</title>
<path fill="none" stroke="green" stroke-width="0.17" d="M255.87,-290.01C267.25,-267.44 289.64,-229.76 320.38,-209.82 384.09,-168.5 476.9,-161.02 521.13,-159.94"/>
<polygon fill="green" stroke="green" stroke-width="0.17" points="521.33,-163.44 531.28,-159.78 521.22,-156.44 521.33,-163.44"/>
</g>
<!-- 199&#45;&gt;112 -->
<g id="edge66" class="edge">
<title>199&#45;&gt;112</title>
<path fill="none" stroke="red" stroke-width="0.35" d="M1132.07,-296.86C1113.24,-284.23 1082.93,-263.91 1061.27,-249.39"/>
<polygon fill="red" stroke="red" stroke-width="0.35" points="1063.12,-246.41 1052.86,-243.75 1059.22,-252.23 1063.12,-246.41"/>
</g>
<!-- 232 -->
<g id="node15" class="node">
<title>232</title>
<ellipse fill="white" stroke="black" cx="497.38" cy="-231.04" rx="21.43" ry="21.43"/>
<text text-anchor="middle" x="497.38" y="-228.84" font-family="Times New Roman,serif" font-size="9.00">232</text>
</g>
<!-- 232&#45;&gt;2 -->
<g id="edge69" class="edge">
<title>232&#45;&gt;2</title>
<path fill="none" stroke="red" stroke-width="0.38" d="M509.24,-213.08C516.17,-203.18 524.94,-190.63 532.23,-180.22"/>
<polygon fill="red" stroke="red" stroke-width="0.38" points="535.29,-181.94 538.16,-171.74 529.56,-177.92 535.29,-181.94"/>
</g>
<!-- 110&#45;&gt;0 -->
<g id="edge19" class="edge">
<title>110&#45;&gt;0</title>
<path fill="none" stroke="red" stroke-width="0.15" stroke-dasharray="1,5" d="M523.03,-377.15C499.13,-364.28 458.94,-341.93 446.38,-330.68 405.57,-294.1 372.38,-286.84 372.38,-232.04 372.38,-232.04 372.38,-232.04 372.38,-157.97 372.38,-81.3 269.79,-38.58 222.16,-22.87"/>
<polygon fill="red" stroke="red" stroke-width="0.15" points="223.21,-19.54 212.62,-19.85 221.1,-26.21 223.21,-19.54"/>
</g>
<!-- 110&#45;&gt;1 -->
<g id="edge20" class="edge">
<title>110&#45;&gt;1</title>
<path fill="none" stroke="red" stroke-width="0.3" stroke-dasharray="1,5" d="M551.31,-368.82C571.68,-333.34 621.61,-254.17 684.38,-209.82 711.35,-190.77 746.77,-176.18 769.8,-167.85"/>
<polygon fill="red" stroke="red" stroke-width="0.3" points="771.16,-171.08 779.44,-164.46 768.84,-164.47 771.16,-171.08"/>
</g>
<!-- 110&#45;&gt;2 -->
<g id="edge21" class="edge">
<title>110&#45;&gt;2</title>
<path fill="none" stroke="green" stroke-width="0.21" d="M522.13,-378.52C504.25,-369.57 478.71,-353.51 467.38,-330.68 443.51,-282.56 441.45,-256.86 467.38,-209.82 479.13,-188.52 504.24,-175.06 523.02,-167.57"/>
<polygon fill="green" stroke="green" stroke-width="0.21" points="524.25,-170.85 532.42,-164.1 521.82,-164.29 524.25,-170.85"/>
</g>
<!-- 110&#45;&gt;3 -->
<g id="edge22" class="edge">
<title>110&#45;&gt;3</title>
<path fill="none" stroke="red" stroke-width="0.26" d="M562.79,-386.8C660.56,-386.15 1064.91,-380.42 1179.38,-330.68 1258.07,-296.48 1326.35,-216.46 1355,-179.42"/>
<polygon fill="red" stroke="red" stroke-width="0.26" points="1357.85,-181.47 1361.12,-171.39 1352.28,-177.23 1357.85,-181.47"/>
</g>
<!-- 110&#45;&gt;4 -->
<g id="edge23" class="edge">
<title>110&#45;&gt;4</title>
<path fill="none" stroke="red" stroke-width="0.46" d="M556.65,-372.79C582.93,-348.72 635.93,-301.06 657.38,-288.25 763.46,-224.92 906.39,-181.81 962.43,-166.33"/>
<polygon fill="red" stroke="red" stroke-width="0.46" points="963.42,-169.68 972.15,-163.68 961.58,-162.93 963.42,-169.68"/>
</g>
<!-- 142 -->
<g id="node17" class="node">
<title>142</title>
<ellipse fill="white" stroke="black" cx="497.38" cy="-309.46" rx="21.43" ry="21.43"/>
<text text-anchor="middle" x="497.38" y="-307.26" font-family="Times New Roman,serif" font-size="9.00">142</text>
</g>
<!-- 110&#45;&gt;142 -->
<g id="edge67" class="edge">
<title>110&#45;&gt;142</title>
<path fill="none" stroke="red" stroke-width="0.42" d="M531.18,-369.16C525.68,-359.61 518.79,-347.64 512.66,-337"/>
<polygon fill="red" stroke="red" stroke-width="0.42" points="515.56,-335.01 507.53,-328.09 509.49,-338.51 515.56,-335.01"/>
</g>
<!-- 142&#45;&gt;2 -->
<g id="edge55" class="edge">
<title>142&#45;&gt;2</title>
<path fill="none" stroke="red" stroke-width="0.47" d="M508.48,-290.84C514.84,-280.06 522.5,-265.78 527.38,-252.25 535.51,-229.75 540.55,-202.83 543.38,-183.89"/>
<polygon fill="red" stroke="red" stroke-width="0.47" points="546.88,-184.15 544.8,-173.76 539.95,-183.18 546.88,-184.15"/>
</g>
<!-- 142&#45;&gt;232 -->
<g id="edge68" class="edge">
<title>142&#45;&gt;232</title>
<path fill="none" stroke="green" stroke-width="0.15" d="M497.38,-287.98C497.38,-280.12 497.38,-270.98 497.38,-262.39"/>
<polygon fill="green" stroke="green" stroke-width="0.15" points="500.88,-262.31 497.38,-252.31 493.88,-262.31 500.88,-262.31"/>
</g>
<!-- 142&#45;&gt;112 -->
<g id="edge72" class="edge">
<title>142&#45;&gt;112</title>
<path fill="none" stroke="red" stroke-width="0.43" d="M518.57,-306.15C581.42,-299.21 772.18,-277.44 929.38,-252.25 954.86,-248.17 983.61,-242.63 1004.73,-238.38"/>
<polygon fill="red" stroke="red" stroke-width="0.43" points="1005.62,-241.77 1014.73,-236.35 1004.23,-234.91 1005.62,-241.77"/>
</g>
<!-- 112&#45;&gt;0 -->
<g id="edge24" class="edge">
<title>112&#45;&gt;0</title>
<path fill="none" stroke="green" stroke-width="0.23" d="M1034.34,-209.59C1032.34,-190.51 1026.62,-162.32 1010.38,-144.12 950.39,-76.87 910.96,-86.98 823.38,-65.7 706.39,-37.27 324.92,-20.75 223.4,-16.79"/>
<polygon fill="green" stroke="green" stroke-width="0.23" points="223.31,-13.28 213.19,-16.39 223.04,-20.28 223.31,-13.28"/>
</g>
<!-- 112&#45;&gt;1 -->
<g id="edge25" class="edge">
<title>112&#45;&gt;1</title>
<path fill="none" stroke="red" stroke-width="0.42" d="M1015.17,-224.18C970.7,-211.31 864.61,-180.6 817.1,-166.84"/>
<polygon fill="red" stroke="red" stroke-width="0.42" points="817.96,-163.45 807.38,-164.03 816.01,-170.17 817.96,-163.45"/>
</g>
<!-- 112&#45;&gt;2 -->
<g id="edge26" class="edge">
<title>112&#45;&gt;2</title>
<path fill="none" stroke="green" stroke-width="0.22" d="M1014.73,-225.72C993.41,-221.36 959.17,-214.6 929.38,-209.82 794.75,-188.24 632.35,-169.49 571.24,-162.69"/>
<polygon fill="green" stroke="green" stroke-width="0.22" points="571.36,-159.19 561.04,-161.57 570.59,-166.14 571.36,-159.19"/>
</g>
<!-- 112&#45;&gt;3 -->
<g id="edge27" class="edge">
<title>112&#45;&gt;3</title>
<path fill="none" stroke="red" stroke-width="0.12" d="M1056.02,-225.71C1114.64,-213.41 1281.95,-178.32 1344.97,-165.1"/>
<polygon fill="red" stroke="red" stroke-width="0.12" points="1345.75,-168.51 1354.82,-163.03 1344.31,-161.66 1345.75,-168.51"/>
</g>
<!-- 112&#45;&gt;4 -->
<g id="edge28" class="edge">
<title>112&#45;&gt;4</title>
<path fill="none" stroke="red" stroke-width="0.12" d="M1023.52,-213.08C1016.6,-203.18 1007.82,-190.63 1000.54,-180.22"/>
<polygon fill="red" stroke="red" stroke-width="0.12" points="1003.21,-177.92 994.61,-171.74 997.47,-181.94 1003.21,-177.92"/>
</g>
<!-- 113&#45;&gt;1 -->
<g id="edge29" class="edge">
<title>113&#45;&gt;1</title>
<path fill="none" stroke="red" stroke-width="0.41" d="M881.88,-218.47C863.2,-206.12 833.63,-186.58 813.88,-173.52"/>
<polygon fill="red" stroke="red" stroke-width="0.41" points="815.58,-170.45 805.31,-167.86 811.72,-176.29 815.58,-170.45"/>
</g>
<!-- 113&#45;&gt;2 -->
<g id="edge30" class="edge">
<title>113&#45;&gt;2</title>
<path fill="none" stroke="red" stroke-width="0.24" d="M878.62,-225.92C817.16,-213.72 636.37,-177.83 570.63,-164.79"/>
<polygon fill="red" stroke="red" stroke-width="0.24" points="571.25,-161.34 560.76,-162.83 569.89,-168.21 571.25,-161.34"/>
</g>
<!-- 113&#45;&gt;3 -->
<g id="edge31" class="edge">
<title>113&#45;&gt;3</title>
<path fill="none" stroke="red" stroke-width="0.11" d="M920.04,-225.76C941.37,-221.43 975.62,-214.7 1005.38,-209.82 1132.52,-189.01 1285.63,-170.01 1344.58,-162.92"/>
<polygon fill="red" stroke="red" stroke-width="0.11" points="1345.26,-166.36 1354.78,-161.7 1344.43,-159.41 1345.26,-166.36"/>
</g>
<!-- 113&#45;&gt;4 -->
<g id="edge32" class="edge">
<title>113&#45;&gt;4</title>
<path fill="none" stroke="green" stroke-width="0.58" d="M915.75,-216.86C930.37,-205.09 951.79,-187.83 967.21,-175.41"/>
<polygon fill="green" stroke="green" stroke-width="0.58" points="969.48,-178.08 975.08,-169.08 965.09,-172.63 969.48,-178.08"/>
</g>
<!-- 113&#45;&gt;148 -->
<g id="edge56" class="edge">
<title>113&#45;&gt;148</title>
<path fill="none" stroke="red" stroke-width="0.13" d="M887.02,-213.45C868.51,-188.64 833.47,-141.66 811.9,-112.74"/>
<polygon fill="red" stroke="red" stroke-width="0.13" points="814.46,-110.31 805.67,-104.39 808.84,-114.5 814.46,-110.31"/>
</g>
<!-- 114&#45;&gt;1 -->
<g id="edge33" class="edge">
<title>114&#45;&gt;1</title>
<path fill="none" stroke="red" stroke-width="0.32" d="M852.91,-289.96C840.42,-262.7 817.12,-211.81 803.67,-182.44"/>
<polygon fill="red" stroke="red" stroke-width="0.32" points="806.71,-180.66 799.36,-173.03 800.34,-183.57 806.71,-180.66"/>
</g>
<!-- 114&#45;&gt;2 -->
<g id="edge34" class="edge">
<title>114&#45;&gt;2</title>
<path fill="none" stroke="red" stroke-width="0.36" d="M842.15,-299.4C786.85,-273.33 627.57,-198.24 568.64,-170.47"/>
<polygon fill="red" stroke="red" stroke-width="0.36" points="570,-167.24 559.47,-166.14 567.02,-173.57 570,-167.24"/>
</g>
<!-- 114&#45;&gt;4 -->
<g id="edge35" class="edge">
<title>114&#45;&gt;4</title>
<path fill="none" stroke="red" stroke-width="0.17" d="M879.5,-297.89C884.92,-294.76 890.88,-291.34 896.38,-288.25 925.52,-271.89 941.82,-278.59 962.38,-252.25 977.68,-232.66 983.29,-204.29 985.31,-184.19"/>
<polygon fill="red" stroke="red" stroke-width="0.17" points="988.82,-184.23 986.11,-173.99 981.84,-183.68 988.82,-184.23"/>
</g>
<!-- 114&#45;&gt;112 -->
<g id="edge61" class="edge">
<title>114&#45;&gt;112</title>
<path fill="none" stroke="green" stroke-width="0.23" d="M879.2,-297.3C884.61,-294.15 890.64,-290.87 896.38,-288.25 940.87,-267.93 955.89,-272.57 1000.38,-252.25 1003.08,-251.02 1005.83,-249.65 1008.56,-248.21"/>
<polygon fill="green" stroke="green" stroke-width="0.23" points="1010.53,-251.12 1017.56,-243.2 1007.12,-245 1010.53,-251.12"/>
</g>
<!-- 238&#45;&gt;0 -->
<g id="edge71" class="edge">
<title>238&#45;&gt;0</title>
<path fill="none" stroke="red" stroke-width="0.3" d="M127.75,-72.73C142.37,-60.96 163.79,-43.71 179.21,-31.29"/>
<polygon fill="red" stroke="red" stroke-width="0.3" points="181.48,-33.95 187.08,-24.95 177.09,-28.5 181.48,-33.95"/>
</g>
<!-- 148&#45;&gt;0 -->
<g id="edge57" class="edge">
<title>148&#45;&gt;0</title>
<path fill="none" stroke="red" stroke-width="0.34" stroke-dasharray="1,5" d="M772.21,-83.42C680.91,-72.67 321.17,-30.31 223.16,-18.77"/>
<polygon fill="red" stroke="red" stroke-width="0.34" points="223.36,-15.27 213.02,-17.57 222.54,-22.22 223.36,-15.27"/>
</g>
</g>
</svg>
