<?xml version="1.0" encoding="UTF-8" standalone="no"?>
<!DOCTYPE svg PUBLIC "-//W3C//DTD SVG 1.1//EN"
 "http://www.w3.org/Graphics/SVG/1.1/DTD/svg11.dtd">
<!-- Generated by graphviz version 3.0.0 (20220226.1711)
 -->
<!-- Pages: 1 -->
<svg width="4320pt" height="164pt"
 viewBox="0.00 0.00 4320.28 164.47" xmlns="http://www.w3.org/2000/svg" xmlns:xlink="http://www.w3.org/1999/xlink">
<g id="graph0" class="graph" transform="scale(1 1) rotate(0) translate(4 160.47)">
<polygon fill="white" stroke="transparent" points="-4,4 -4,-160.47 4316.28,-160.47 4316.28,4 -4,4"/>
<!-- &#45;1 -->
<g id="node1" class="node">
<title>&#45;1</title>
<polygon fill="lightgray" stroke="black" points="930.76,-156.47 906.76,-156.47 906.76,-138.47 930.76,-138.47 930.76,-156.47"/>
<text text-anchor="middle" x="918.76" y="-145.27" font-family="Times New Roman,serif" font-size="9.00">&#45;1</text>
</g>
<!-- 0 -->
<g id="node13" class="node">
<title>0</title>
<ellipse fill="lightblue" stroke="black" cx="2029.76" cy="-14.85" rx="14.7" ry="14.7"/>
<text text-anchor="middle" x="2029.76" y="-12.65" font-family="Times New Roman,serif" font-size="9.00">0</text>
</g>
<!-- &#45;1&#45;&gt;0 -->
<g id="edge106" class="edge">
<title>&#45;1&#45;&gt;0</title>
<path fill="none" stroke="red" stroke-width="0.15" d="M906.55,-146.12C851.48,-144.2 631.63,-132.27 695.76,-65.7 742.96,-16.7 1826.09,-15.65 2004.88,-15.81"/>
<polygon fill="red" stroke="red" stroke-width="0.15" points="2004.9,-19.31 2014.9,-15.82 2004.91,-12.31 2004.9,-19.31"/>
</g>
<!-- 1 -->
<g id="node14" class="node">
<title>1</title>
<ellipse fill="lightblue" stroke="black" cx="2125.76" cy="-14.85" rx="14.7" ry="14.7"/>
<text text-anchor="middle" x="2125.76" y="-12.65" font-family="Times New Roman,serif" font-size="9.00">1</text>
</g>
<!-- &#45;1&#45;&gt;1 -->
<g id="edge107" class="edge">
<title>&#45;1&#45;&gt;1</title>
<path fill="none" stroke="red" stroke-width="0.36" stroke-dasharray="1,5" d="M906.62,-147.17C877.57,-148.1 804.06,-145.84 771.76,-102.47 762.01,-89.36 760.37,-77.41 771.76,-65.7 823.32,-12.73 2030.63,-49.79 2101.76,-29.7 2102.83,-29.4 2103.9,-29.04 2104.96,-28.64"/>
<polygon fill="red" stroke="red" stroke-width="0.36" points="2106.66,-31.7 2114.08,-24.14 2103.56,-25.42 2106.66,-31.7"/>
</g>
<!-- 2 -->
<g id="node15" class="node">
<title>2</title>
<ellipse fill="lightblue" stroke="black" cx="2380.76" cy="-14.85" rx="14.7" ry="14.7"/>
<text text-anchor="middle" x="2380.76" y="-12.65" font-family="Times New Roman,serif" font-size="9.00">2</text>
</g>
<!-- &#45;1&#45;&gt;2 -->
<g id="edge108" class="edge">
<title>&#45;1&#45;&gt;2</title>
<path fill="none" stroke="green" stroke-width="0.12" d="M920.27,-138.46C923.92,-121.51 935.01,-82.24 961.76,-65.7 1027.71,-24.93 2282.14,-50.72 2356.76,-29.7 2357.83,-29.4 2358.9,-29.04 2359.96,-28.64"/>
<polygon fill="green" stroke="green" stroke-width="0.12" points="2361.66,-31.7 2369.08,-24.14 2358.56,-25.42 2361.66,-31.7"/>
</g>
<!-- 3 -->
<g id="node16" class="node">
<title>3</title>
<ellipse fill="lightblue" stroke="black" cx="2284.76" cy="-14.85" rx="14.7" ry="14.7"/>
<text text-anchor="middle" x="2284.76" y="-12.65" font-family="Times New Roman,serif" font-size="9.00">3</text>
</g>
<!-- &#45;1&#45;&gt;3 -->
<g id="edge109" class="edge">
<title>&#45;1&#45;&gt;3</title>
<path fill="none" stroke="green" stroke-width="0.2" d="M910.29,-138.25C894.78,-122.28 865.26,-86.75 885.76,-65.7 938.97,-11.08 2183.89,-48.57 2257.76,-29.7 2259.68,-29.21 2261.61,-28.57 2263.52,-27.83"/>
<polygon fill="green" stroke="green" stroke-width="0.2" points="2265.03,-30.98 2272.59,-23.56 2262.05,-24.65 2265.03,-30.98"/>
</g>
<!-- 4 -->
<g id="node17" class="node">
<title>4</title>
<ellipse fill="lightblue" stroke="black" cx="2178.76" cy="-14.85" rx="14.7" ry="14.7"/>
<text text-anchor="middle" x="2178.76" y="-12.65" font-family="Times New Roman,serif" font-size="9.00">4</text>
</g>
<!-- &#45;1&#45;&gt;4 -->
<g id="edge110" class="edge">
<title>&#45;1&#45;&gt;4</title>
<path fill="none" stroke="red" stroke-width="0.38" d="M906.58,-145.75C883.09,-143.63 831.91,-135.29 809.76,-102.47 800.62,-88.92 798.37,-77.41 809.76,-65.7 861.71,-12.34 2077.36,-47.13 2149.76,-29.7 2152.14,-29.13 2154.56,-28.34 2156.93,-27.44"/>
<polygon fill="red" stroke="red" stroke-width="0.38" points="2158.52,-30.56 2166.2,-23.26 2155.65,-24.18 2158.52,-30.56"/>
</g>
<!-- 5 -->
<g id="node18" class="node">
<title>5</title>
<ellipse fill="lightblue" stroke="black" cx="2332.76" cy="-14.85" rx="14.7" ry="14.7"/>
<text text-anchor="middle" x="2332.76" y="-12.65" font-family="Times New Roman,serif" font-size="9.00">5</text>
</g>
<!-- &#45;1&#45;&gt;5 -->
<g id="edge111" class="edge">
<title>&#45;1&#45;&gt;5</title>
<path fill="none" stroke="green" stroke-width="0.12" d="M916.19,-138.39C911.54,-122.01 903.95,-84.82 923.76,-65.7 979.16,-12.26 2234.68,-50.58 2308.76,-29.7 2309.83,-29.4 2310.9,-29.04 2311.96,-28.64"/>
<polygon fill="green" stroke="green" stroke-width="0.12" points="2313.66,-31.7 2321.08,-24.14 2310.56,-25.42 2313.66,-31.7"/>
</g>
<!-- 6 -->
<g id="node19" class="node">
<title>6</title>
<ellipse fill="lightblue" stroke="black" cx="2077.76" cy="-14.85" rx="14.7" ry="14.7"/>
<text text-anchor="middle" x="2077.76" y="-12.65" font-family="Times New Roman,serif" font-size="9.00">6</text>
</g>
<!-- &#45;1&#45;&gt;6 -->
<g id="edge112" class="edge">
<title>&#45;1&#45;&gt;6</title>
<path fill="none" stroke="green" stroke-width="0.21" d="M906.64,-145.49C857.67,-141.16 679.63,-121.33 733.76,-65.7 784.93,-13.12 1983.17,-49.64 2053.76,-29.7 2054.83,-29.4 2055.9,-29.04 2056.96,-28.64"/>
<polygon fill="green" stroke="green" stroke-width="0.21" points="2058.66,-31.7 2066.08,-24.14 2055.56,-25.42 2058.66,-31.7"/>
</g>
<!-- 7 -->
<g id="node20" class="node">
<title>7</title>
<ellipse fill="lightblue" stroke="black" cx="2233.76" cy="-14.85" rx="14.7" ry="14.7"/>
<text text-anchor="middle" x="2233.76" y="-12.65" font-family="Times New Roman,serif" font-size="9.00">7</text>
</g>
<!-- &#45;1&#45;&gt;7 -->
<g id="edge113" class="edge">
<title>&#45;1&#45;&gt;7</title>
<path fill="none" stroke="red" stroke-width="0.29" d="M906.5,-142.98C889.74,-137.48 860.32,-125.02 847.76,-102.47 839.82,-88.19 836.36,-77.41 847.76,-65.7 900.3,-11.75 2129.33,-46.38 2202.76,-29.7 2205.83,-29 2208.96,-28 2212,-26.84"/>
<polygon fill="red" stroke="red" stroke-width="0.29" points="2213.42,-30.03 2221.19,-22.82 2210.62,-23.62 2213.42,-30.03"/>
</g>
<!-- 8 -->
<g id="node21" class="node">
<title>8</title>
<ellipse fill="lightblue" stroke="black" cx="2428.76" cy="-14.85" rx="14.7" ry="14.7"/>
<text text-anchor="middle" x="2428.76" y="-12.65" font-family="Times New Roman,serif" font-size="9.00">8</text>
</g>
<!-- &#45;1&#45;&gt;8 -->
<g id="edge114" class="edge">
<title>&#45;1&#45;&gt;8</title>
<path fill="none" stroke="green" stroke-width="0.13" d="M930.93,-145.01C1004.37,-136.27 1396.04,-90.31 1716.76,-65.7 1869.41,-53.99 2257.96,-73.16 2404.76,-29.7 2405.83,-29.38 2406.89,-29.01 2407.95,-28.6"/>
<polygon fill="green" stroke="green" stroke-width="0.13" points="2409.66,-31.66 2417.06,-24.07 2406.55,-25.39 2409.66,-31.66"/>
</g>
<!-- 14 -->
<g id="node22" class="node">
<title>14</title>
<ellipse fill="white" stroke="black" cx="2233.76" cy="-84.08" rx="18.27" ry="18.27"/>
<text text-anchor="middle" x="2233.76" y="-81.88" font-family="Times New Roman,serif" font-size="9.00">14</text>
</g>
<!-- &#45;1&#45;&gt;14 -->
<g id="edge1" class="edge">
<title>&#45;1&#45;&gt;14</title>
<path fill="none" stroke="green" stroke-width="0.26" d="M930.77,-146.14C1059.08,-142.67 2173.51,-112.27 2205.76,-102.47 2207.24,-102.02 2208.71,-101.48 2210.16,-100.86"/>
<polygon fill="green" stroke="green" stroke-width="0.26" points="2212.14,-103.77 2219.35,-96.01 2208.87,-97.58 2212.14,-103.77"/>
</g>
<!-- 15 -->
<g id="node23" class="node">
<title>15</title>
<ellipse fill="white" stroke="black" cx="2288.76" cy="-84.08" rx="18.27" ry="18.27"/>
<text text-anchor="middle" x="2288.76" y="-81.88" font-family="Times New Roman,serif" font-size="9.00">15</text>
</g>
<!-- &#45;1&#45;&gt;15 -->
<g id="edge2" class="edge">
<title>&#45;1&#45;&gt;15</title>
<path fill="none" stroke="green" stroke-width="0.63" d="M930.87,-146.16C1062.67,-142.78 2227.09,-112.67 2260.76,-102.47 2262.24,-102.02 2263.71,-101.48 2265.16,-100.86"/>
<polygon fill="green" stroke="green" stroke-width="0.63" points="2267.14,-103.78 2274.35,-96.01 2263.87,-97.58 2267.14,-103.78"/>
</g>
<!-- 16 -->
<g id="node24" class="node">
<title>16</title>
<ellipse fill="white" stroke="black" cx="2343.76" cy="-84.08" rx="18.27" ry="18.27"/>
<text text-anchor="middle" x="2343.76" y="-81.88" font-family="Times New Roman,serif" font-size="9.00">16</text>
</g>
<!-- &#45;1&#45;&gt;16 -->
<g id="edge3" class="edge">
<title>&#45;1&#45;&gt;16</title>
<path fill="none" stroke="green" stroke-width="0.4" d="M930.94,-146.17C1066.05,-142.89 2280.67,-113.08 2315.76,-102.47 2317.24,-102.02 2318.71,-101.48 2320.16,-100.86"/>
<polygon fill="green" stroke="green" stroke-width="0.4" points="2322.14,-103.78 2329.35,-96.02 2318.88,-97.59 2322.14,-103.78"/>
</g>
<!-- 17 -->
<g id="node25" class="node">
<title>17</title>
<ellipse fill="white" stroke="black" cx="2123.76" cy="-84.08" rx="18.27" ry="18.27"/>
<text text-anchor="middle" x="2123.76" y="-81.88" font-family="Times New Roman,serif" font-size="9.00">17</text>
</g>
<!-- &#45;1&#45;&gt;17 -->
<g id="edge4" class="edge">
<title>&#45;1&#45;&gt;17</title>
<path fill="none" stroke="red" stroke-width="0.43" d="M931.08,-145.84C1045.62,-140.01 1924.04,-95.26 2094.99,-86.55"/>
<polygon fill="red" stroke="red" stroke-width="0.43" points="2095.4,-90.03 2105.21,-86.03 2095.04,-83.04 2095.4,-90.03"/>
</g>
<!-- 18 -->
<g id="node26" class="node">
<title>18</title>
<ellipse fill="white" stroke="black" cx="2178.76" cy="-84.08" rx="18.27" ry="18.27"/>
<text text-anchor="middle" x="2178.76" y="-81.88" font-family="Times New Roman,serif" font-size="9.00">18</text>
</g>
<!-- &#45;1&#45;&gt;18 -->
<g id="edge5" class="edge">
<title>&#45;1&#45;&gt;18</title>
<path fill="none" stroke="green" stroke-width="0.34" d="M931.03,-146.12C1057.5,-142.5 2119.96,-111.85 2150.76,-102.47 2152.24,-102.02 2153.71,-101.47 2155.16,-100.86"/>
<polygon fill="green" stroke="green" stroke-width="0.34" points="2157.14,-103.77 2164.35,-96 2153.87,-97.58 2157.14,-103.77"/>
</g>
<!-- &#45;2 -->
<g id="node2" class="node">
<title>&#45;2</title>
<polygon fill="lightgray" stroke="black" points="2378.76,-156.47 2354.76,-156.47 2354.76,-138.47 2378.76,-138.47 2378.76,-156.47"/>
<text text-anchor="middle" x="2366.76" y="-145.27" font-family="Times New Roman,serif" font-size="9.00">&#45;2</text>
</g>
<!-- &#45;2&#45;&gt;0 -->
<g id="edge115" class="edge">
<title>&#45;2&#45;&gt;0</title>
<path fill="none" stroke="green" stroke-width="0.58" d="M2354.51,-143.75C2346.84,-142.11 2336.75,-140.03 2327.76,-138.47 2215.86,-119.05 2167.43,-168.14 2074.76,-102.47 2053.57,-87.45 2041.62,-59.36 2035.45,-39.24"/>
<polygon fill="green" stroke="green" stroke-width="0.58" points="2038.8,-38.24 2032.73,-29.56 2032.06,-40.13 2038.8,-38.24"/>
</g>
<!-- &#45;2&#45;&gt;1 -->
<g id="edge116" class="edge">
<title>&#45;2&#45;&gt;1</title>
<path fill="none" stroke="green" stroke-width="0.13" d="M2370.45,-138.21C2377,-122.15 2388.37,-86.48 2370.76,-65.7 2339.31,-28.57 2201.18,-44.33 2154.76,-29.7 2152.43,-28.96 2150.04,-28.07 2147.69,-27.1"/>
<polygon fill="green" stroke="green" stroke-width="0.13" points="2148.99,-23.85 2138.44,-22.85 2146.07,-30.21 2148.99,-23.85"/>
</g>
<!-- &#45;2&#45;&gt;2 -->
<g id="edge117" class="edge">
<title>&#45;2&#45;&gt;2</title>
<path fill="none" stroke="red" stroke-width="0.32" d="M2379.18,-146.15C2519.56,-142.53 3803.17,-109.27 3809.76,-102.47 3821.14,-90.74 3821.17,-77.4 3809.76,-65.7 3755.26,-9.78 2479.92,-50.86 2404.76,-29.7 2403.7,-29.4 2402.63,-29.04 2401.57,-28.64"/>
<polygon fill="red" stroke="red" stroke-width="0.32" points="2402.97,-25.42 2392.45,-24.14 2399.87,-31.7 2402.97,-25.42"/>
</g>
<!-- &#45;2&#45;&gt;3 -->
<g id="edge118" class="edge">
<title>&#45;2&#45;&gt;3</title>
<path fill="none" stroke="green" stroke-width="0.2" d="M2378.95,-146.38C2453.22,-145.72 2842.92,-140.44 2877.76,-102.47 2888.81,-90.43 2888.95,-77.61 2877.76,-65.7 2834.41,-19.51 2369.41,-48.01 2308.76,-29.7 2307.71,-29.38 2306.64,-29 2305.59,-28.59"/>
<polygon fill="green" stroke="green" stroke-width="0.2" points="2306.99,-25.38 2296.48,-24.04 2303.86,-31.64 2306.99,-25.38"/>
</g>
<!-- &#45;2&#45;&gt;4 -->
<g id="edge119" class="edge">
<title>&#45;2&#45;&gt;4</title>
<path fill="none" stroke="red" stroke-width="0.15" d="M2373,-138.38C2384.33,-122.62 2405.56,-87.45 2387.76,-65.7 2336.66,-3.22 2286.63,-54.31 2209.76,-29.7 2206.92,-28.79 2203.99,-27.7 2201.12,-26.53"/>
<polygon fill="red" stroke="red" stroke-width="0.15" points="2202.35,-23.25 2191.79,-22.44 2199.54,-29.66 2202.35,-23.25"/>
</g>
<!-- &#45;2&#45;&gt;5 -->
<g id="edge120" class="edge">
<title>&#45;2&#45;&gt;5</title>
<path fill="none" stroke="green" stroke-width="0.41" d="M2378.79,-146.1C2483.83,-142.89 3241.86,-119.17 3257.76,-102.47 3269.03,-90.63 3269.09,-77.48 3257.76,-65.7 3188.35,6.55 2453.01,-57.55 2356.76,-29.7 2355.7,-29.39 2354.64,-29.03 2353.58,-28.62"/>
<polygon fill="green" stroke="green" stroke-width="0.41" points="2354.97,-25.41 2344.46,-24.1 2351.87,-31.68 2354.97,-25.41"/>
</g>
<!-- &#45;2&#45;&gt;6 -->
<g id="edge121" class="edge">
<title>&#45;2&#45;&gt;6</title>
<path fill="none" stroke="red" stroke-width="0.2" d="M2354.5,-143.8C2346.83,-142.16 2336.74,-140.09 2327.76,-138.47 2276.64,-129.25 2134.61,-138.06 2096.76,-102.47 2079.92,-86.63 2076.3,-59.56 2076.19,-39.89"/>
<polygon fill="red" stroke="red" stroke-width="0.2" points="2079.69,-39.92 2076.42,-29.84 2072.69,-39.76 2079.69,-39.92"/>
</g>
<!-- &#45;2&#45;&gt;7 -->
<g id="edge122" class="edge">
<title>&#45;2&#45;&gt;7</title>
<path fill="none" stroke="red" stroke-width="0.25" d="M2376.14,-138.25C2392.55,-122.86 2423.08,-89.15 2404.76,-65.7 2364.17,-13.7 2322.52,-52.9 2260.76,-29.7 2259.1,-29.07 2257.41,-28.37 2255.73,-27.63"/>
<polygon fill="red" stroke="red" stroke-width="0.25" points="2256.92,-24.32 2246.4,-23.09 2253.86,-30.61 2256.92,-24.32"/>
</g>
<!-- &#45;2&#45;&gt;8 -->
<g id="edge123" class="edge">
<title>&#45;2&#45;&gt;8</title>
<path fill="none" stroke="green" stroke-width="0.43" d="M2378.9,-146.16C2518.77,-142.61 3821.08,-109.36 3827.76,-102.47 3839.15,-90.74 3839.11,-77.46 3827.76,-65.7 3778.15,-14.28 2638.85,-15.27 2454,-15.76"/>
<polygon fill="green" stroke="green" stroke-width="0.43" points="2453.87,-12.26 2443.88,-15.79 2453.89,-19.26 2453.87,-12.26"/>
</g>
<!-- &#45;2&#45;&gt;14 -->
<g id="edge6" class="edge">
<title>&#45;2&#45;&gt;14</title>
<path fill="none" stroke="red" stroke-width="0.19" d="M2354.51,-142.06C2334.62,-134.74 2294.26,-119.23 2261.76,-102.47 2260.4,-101.76 2259.01,-101.01 2257.62,-100.24"/>
<polygon fill="red" stroke="red" stroke-width="0.19" points="2259.01,-97 2248.62,-94.92 2255.45,-103.02 2259.01,-97"/>
</g>
<!-- &#45;2&#45;&gt;15 -->
<g id="edge7" class="edge">
<title>&#45;2&#45;&gt;15</title>
<path fill="none" stroke="red" stroke-width="0.28" d="M2356.57,-138.44C2345.11,-129.42 2326.15,-114.5 2311.19,-102.73"/>
<polygon fill="red" stroke="red" stroke-width="0.28" points="2312.95,-99.66 2302.93,-96.23 2308.62,-105.17 2312.95,-99.66"/>
</g>
<!-- &#45;2&#45;&gt;16 -->
<g id="edge8" class="edge">
<title>&#45;2&#45;&gt;16</title>
<path fill="none" stroke="red" stroke-width="0.19" d="M2363.76,-138.44C2361.15,-131.47 2357.21,-120.98 2353.53,-111.13"/>
<polygon fill="red" stroke="red" stroke-width="0.19" points="2356.76,-109.8 2349.98,-101.66 2350.21,-112.25 2356.76,-109.8"/>
</g>
<!-- &#45;2&#45;&gt;17 -->
<g id="edge9" class="edge">
<title>&#45;2&#45;&gt;17</title>
<path fill="none" stroke="red" stroke-width="0.31" d="M2354.47,-143.94C2346.79,-142.37 2336.7,-140.3 2327.76,-138.47 2249.55,-122.45 2225.95,-131.99 2151.76,-102.47 2150.34,-101.9 2148.9,-101.26 2147.47,-100.57"/>
<polygon fill="red" stroke="red" stroke-width="0.31" points="2148.8,-97.3 2138.36,-95.49 2145.39,-103.42 2148.8,-97.3"/>
</g>
<!-- &#45;2&#45;&gt;18 -->
<g id="edge10" class="edge">
<title>&#45;2&#45;&gt;18</title>
<path fill="none" stroke="red" stroke-width="0.12" d="M2354.43,-143.56C2321.84,-135.81 2234.09,-114.41 2206.76,-102.47 2205.36,-101.85 2203.93,-101.17 2202.52,-100.45"/>
<polygon fill="red" stroke="red" stroke-width="0.12" points="2203.87,-97.19 2193.44,-95.29 2200.41,-103.28 2203.87,-97.19"/>
</g>
<!-- &#45;3 -->
<g id="node3" class="node">
<title>&#45;3</title>
<polygon fill="lightgray" stroke="black" points="246.76,-156.47 222.76,-156.47 222.76,-138.47 246.76,-138.47 246.76,-156.47"/>
<text text-anchor="middle" x="234.76" y="-145.27" font-family="Times New Roman,serif" font-size="9.00">&#45;3</text>
</g>
<!-- &#45;3&#45;&gt;0 -->
<g id="edge124" class="edge">
<title>&#45;3&#45;&gt;0</title>
<path fill="none" stroke="green" stroke-width="0.21" d="M222.53,-146.11C167.38,-144.1 -52.79,-131.87 11.76,-65.7 48.32,-28.23 1774.95,-17.28 2004.62,-15.98"/>
<polygon fill="green" stroke="green" stroke-width="0.21" points="2004.71,-19.48 2014.69,-15.93 2004.67,-12.48 2004.71,-19.48"/>
</g>
<!-- &#45;3&#45;&gt;1 -->
<g id="edge125" class="edge">
<title>&#45;3&#45;&gt;1</title>
<path fill="none" stroke="red" stroke-width="0.1" d="M222.62,-147.17C193.57,-148.1 120.06,-145.84 87.76,-102.47 78.01,-89.36 76.31,-77.36 87.76,-65.7 126.97,-25.78 2047.85,-44.66 2101.76,-29.7 2102.83,-29.4 2103.9,-29.05 2104.96,-28.65"/>
<polygon fill="red" stroke="red" stroke-width="0.1" points="2106.66,-31.71 2114.09,-24.16 2103.57,-25.43 2106.66,-31.71"/>
</g>
<!-- &#45;3&#45;&gt;2 -->
<g id="edge126" class="edge">
<title>&#45;3&#45;&gt;2</title>
<path fill="none" stroke="red" stroke-width="0.23" d="M236.26,-138.44C239.89,-121.46 250.94,-82.12 277.76,-65.7 376.28,-5.37 2245.44,-60.55 2356.76,-29.7 2357.83,-29.4 2358.9,-29.05 2359.96,-28.65"/>
<polygon fill="red" stroke="red" stroke-width="0.23" points="2361.66,-31.72 2369.09,-24.16 2358.57,-25.43 2361.66,-31.72"/>
</g>
<!-- &#45;3&#45;&gt;3 -->
<g id="edge127" class="edge">
<title>&#45;3&#45;&gt;3</title>
<path fill="none" stroke="red" stroke-width="0.23" d="M226.27,-138.24C210.74,-122.24 181.17,-86.66 201.76,-65.7 241.8,-24.96 2202.36,-43.59 2257.76,-29.7 2259.68,-29.22 2261.62,-28.58 2263.52,-27.84"/>
<polygon fill="red" stroke="red" stroke-width="0.23" points="2265.03,-31 2272.6,-23.58 2262.06,-24.66 2265.03,-31"/>
</g>
<!-- &#45;3&#45;&gt;4 -->
<g id="edge128" class="edge">
<title>&#45;3&#45;&gt;4</title>
<path fill="none" stroke="red" stroke-width="0.2" d="M222.58,-145.75C199.09,-143.63 147.91,-135.29 125.76,-102.47 116.62,-88.92 114.31,-77.36 125.76,-65.7 165.17,-25.59 2095.04,-42.61 2149.76,-29.7 2152.15,-29.14 2154.57,-28.36 2156.94,-27.46"/>
<polygon fill="red" stroke="red" stroke-width="0.2" points="2158.52,-30.58 2166.21,-23.29 2155.65,-24.2 2158.52,-30.58"/>
</g>
<!-- &#45;3&#45;&gt;5 -->
<g id="edge129" class="edge">
<title>&#45;3&#45;&gt;5</title>
<path fill="none" stroke="green" stroke-width="0.21" d="M232.18,-138.37C227.51,-121.97 219.87,-84.73 239.76,-65.7 281.3,-25.97 2253.37,-45.05 2308.76,-29.7 2309.83,-29.4 2310.9,-29.05 2311.96,-28.65"/>
<polygon fill="green" stroke="green" stroke-width="0.21" points="2313.66,-31.72 2321.09,-24.16 2310.57,-25.43 2313.66,-31.72"/>
</g>
<!-- &#45;3&#45;&gt;6 -->
<g id="edge130" class="edge">
<title>&#45;3&#45;&gt;6</title>
<path fill="none" stroke="red" stroke-width="0.23" d="M222.63,-145.48C173.6,-141.09 -4.63,-121.08 49.76,-65.7 88.78,-25.98 2000.12,-44.58 2053.76,-29.7 2054.83,-29.4 2055.9,-29.05 2056.96,-28.65"/>
<polygon fill="red" stroke="red" stroke-width="0.23" points="2058.66,-31.71 2066.09,-24.16 2055.57,-25.43 2058.66,-31.71"/>
</g>
<!-- &#45;3&#45;&gt;7 -->
<g id="edge131" class="edge">
<title>&#45;3&#45;&gt;7</title>
<path fill="none" stroke="red" stroke-width="0.44" d="M222.5,-142.98C205.74,-137.48 176.32,-125.02 163.76,-102.47 155.82,-88.19 152.31,-77.36 163.76,-65.7 203.47,-25.29 2147.47,-42 2202.76,-29.7 2205.83,-29.02 2208.96,-28.02 2212,-26.87"/>
<polygon fill="red" stroke="red" stroke-width="0.44" points="2213.43,-30.06 2221.19,-22.85 2210.63,-23.65 2213.43,-30.06"/>
</g>
<!-- &#45;3&#45;&gt;8 -->
<g id="edge132" class="edge">
<title>&#45;3&#45;&gt;8</title>
<path fill="none" stroke="green" stroke-width="0.31" d="M247.08,-144.61C315.22,-134.44 652.88,-85.18 930.76,-65.7 1094.19,-54.24 2247.05,-74.01 2404.76,-29.7 2405.83,-29.4 2406.9,-29.04 2407.96,-28.64"/>
<polygon fill="green" stroke="green" stroke-width="0.31" points="2409.66,-31.7 2417.08,-24.14 2406.56,-25.42 2409.66,-31.7"/>
</g>
<!-- &#45;3&#45;&gt;14 -->
<g id="edge11" class="edge">
<title>&#45;3&#45;&gt;14</title>
<path fill="none" stroke="red" stroke-width="0.16" d="M247.01,-146.15C289.62,-145.04 435.39,-141.28 555.76,-138.47 647.43,-136.33 2117.87,-128.57 2205.76,-102.47 2207.24,-102.03 2208.71,-101.49 2210.17,-100.88"/>
<polygon fill="red" stroke="red" stroke-width="0.16" points="2212.14,-103.8 2219.36,-96.05 2208.88,-97.6 2212.14,-103.8"/>
</g>
<!-- &#45;3&#45;&gt;15 -->
<g id="edge12" class="edge">
<title>&#45;3&#45;&gt;15</title>
<path fill="none" stroke="green" stroke-width="0.17" d="M247.01,-146.15C289.62,-145.03 435.38,-141.24 555.76,-138.47 650.48,-136.29 2169.93,-129.41 2260.76,-102.47 2262.42,-101.98 2264.08,-101.36 2265.72,-100.65"/>
<polygon fill="green" stroke="green" stroke-width="0.17" points="2267.49,-103.67 2274.65,-95.87 2264.18,-97.5 2267.49,-103.67"/>
</g>
<!-- &#45;3&#45;&gt;16 -->
<g id="edge13" class="edge">
<title>&#45;3&#45;&gt;16</title>
<path fill="none" stroke="green" stroke-width="0.34" d="M247.01,-146.14C289.62,-145.02 435.38,-141.2 555.76,-138.47 653.54,-136.25 2222,-130.25 2315.76,-102.47 2317.42,-101.98 2319.08,-101.36 2320.72,-100.65"/>
<polygon fill="green" stroke="green" stroke-width="0.34" points="2322.49,-103.67 2329.65,-95.87 2319.18,-97.5 2322.49,-103.67"/>
</g>
<!-- &#45;3&#45;&gt;17 -->
<g id="edge14" class="edge">
<title>&#45;3&#45;&gt;17</title>
<path fill="none" stroke="green" stroke-width="0.23" d="M246.83,-146.08C395.38,-141.25 1869.92,-93.33 2095.01,-86.02"/>
<polygon fill="green" stroke="green" stroke-width="0.23" points="2095.45,-89.51 2105.33,-85.68 2095.22,-82.51 2095.45,-89.51"/>
</g>
<!-- &#45;3&#45;&gt;18 -->
<g id="edge15" class="edge">
<title>&#45;3&#45;&gt;18</title>
<path fill="none" stroke="green" stroke-width="0.38" d="M247.01,-146.15C289.62,-145.06 435.39,-141.33 555.76,-138.47 644.37,-136.36 2065.81,-127.74 2150.76,-102.47 2152.24,-102.03 2153.71,-101.49 2155.17,-100.88"/>
<polygon fill="green" stroke="green" stroke-width="0.38" points="2157.14,-103.8 2164.36,-96.04 2153.88,-97.6 2157.14,-103.8"/>
</g>
<!-- &#45;4 -->
<g id="node4" class="node">
<title>&#45;4</title>
<polygon fill="lightgray" stroke="black" points="2195.76,-156.47 2171.76,-156.47 2171.76,-138.47 2195.76,-138.47 2195.76,-156.47"/>
<text text-anchor="middle" x="2183.76" y="-145.27" font-family="Times New Roman,serif" font-size="9.00">&#45;4</text>
</g>
<!-- &#45;4&#45;&gt;0 -->
<g id="edge133" class="edge">
<title>&#45;4&#45;&gt;0</title>
<path fill="none" stroke="green" stroke-width="0.32" d="M2171.62,-142.68C2166.2,-141.14 2159.72,-139.48 2153.76,-138.47 2102.35,-129.71 1721.2,-140.73 1685.76,-102.47 1674.66,-90.48 1675.07,-78.05 1685.76,-65.7 1727.27,-17.74 1932.56,-14.93 2004.67,-15.46"/>
<polygon fill="green" stroke="green" stroke-width="0.32" points="2004.64,-18.96 2014.68,-15.56 2004.72,-11.96 2004.64,-18.96"/>
</g>
<!-- &#45;4&#45;&gt;1 -->
<g id="edge134" class="edge">
<title>&#45;4&#45;&gt;1</title>
<path fill="none" stroke="red" stroke-width="0.24" d="M2171.61,-142.7C2166.2,-141.15 2159.71,-139.49 2153.76,-138.47 2104.99,-130.06 1743.32,-138.85 1709.76,-102.47 1698.69,-90.45 1698.75,-77.77 1709.76,-65.7 1768.72,-1.08 2018.39,-56.17 2101.76,-29.7 2102.82,-29.36 2103.88,-28.98 2104.93,-28.55"/>
<polygon fill="red" stroke="red" stroke-width="0.24" points="2106.67,-31.59 2114.03,-23.97 2103.52,-25.34 2106.67,-31.59"/>
</g>
<!-- &#45;4&#45;&gt;2 -->
<g id="edge135" class="edge">
<title>&#45;4&#45;&gt;2</title>
<path fill="none" stroke="green" stroke-width="0.39" d="M2195.91,-143.8C2204.05,-142.09 2215.01,-139.92 2224.76,-138.47 2301.88,-126.99 2521.54,-160.36 2573.76,-102.47 2584.71,-90.33 2584.05,-78.4 2573.76,-65.7 2525.45,-6.01 2476.46,-57.23 2404.76,-29.7 2403.9,-29.37 2403.03,-29.01 2402.16,-28.62"/>
<polygon fill="green" stroke="green" stroke-width="0.39" points="2403.59,-25.42 2393.1,-23.95 2400.39,-31.65 2403.59,-25.42"/>
</g>
<!-- &#45;4&#45;&gt;3 -->
<g id="edge136" class="edge">
<title>&#45;4&#45;&gt;3</title>
<path fill="none" stroke="red" stroke-width="0.23" d="M2195.91,-144.04C2236.49,-135.88 2365.19,-109.51 2370.76,-102.47 2380.91,-89.66 2378.92,-79.86 2370.76,-65.7 2370.65,-65.5 2331.86,-43.06 2306.42,-28.36"/>
<polygon fill="red" stroke="red" stroke-width="0.23" points="2307.84,-25.14 2297.43,-23.16 2304.34,-31.2 2307.84,-25.14"/>
</g>
<!-- &#45;4&#45;&gt;4 -->
<g id="edge137" class="edge">
<title>&#45;4&#45;&gt;4</title>
<path fill="none" stroke="red" stroke-width="0.14" d="M2171.61,-142.7C2166.2,-141.16 2159.71,-139.5 2153.76,-138.47 2106.31,-130.23 1754.38,-137.91 1721.76,-102.47 1710.7,-90.44 1710.7,-77.73 1721.76,-65.7 1786.37,4.56 2057.64,-54.67 2149.76,-29.7 2152.13,-29.06 2154.53,-28.23 2156.9,-27.3"/>
<polygon fill="red" stroke="red" stroke-width="0.14" points="2158.5,-30.41 2166.16,-23.09 2155.61,-24.04 2158.5,-30.41"/>
</g>
<!-- &#45;4&#45;&gt;5 -->
<g id="edge138" class="edge">
<title>&#45;4&#45;&gt;5</title>
<path fill="none" stroke="red" stroke-width="0.3" d="M2195.92,-143.82C2204.05,-142.11 2215.01,-139.95 2224.76,-138.47 2297.92,-127.37 2506.36,-157.54 2555.76,-102.47 2566.68,-90.3 2566.24,-78.24 2555.76,-65.7 2498.14,3.28 2441.16,-60.62 2356.76,-29.7 2355.9,-29.38 2355.02,-29.03 2354.15,-28.66"/>
<polygon fill="red" stroke="red" stroke-width="0.3" points="2355.57,-25.45 2345.07,-24.03 2352.39,-31.69 2355.57,-25.45"/>
</g>
<!-- &#45;4&#45;&gt;6 -->
<g id="edge139" class="edge">
<title>&#45;4&#45;&gt;6</title>
<path fill="none" stroke="green" stroke-width="0.31" d="M2171.62,-142.69C2166.2,-141.15 2159.72,-139.49 2153.76,-138.47 2103.67,-129.88 1732.26,-139.79 1697.76,-102.47 1686.67,-90.47 1686.81,-77.82 1697.76,-65.7 1751.09,-6.71 1978.09,-54.11 2053.76,-29.7 2054.82,-29.36 2055.88,-28.97 2056.93,-28.54"/>
<polygon fill="green" stroke="green" stroke-width="0.31" points="2058.67,-31.58 2066.02,-23.95 2055.52,-25.33 2058.67,-31.58"/>
</g>
<!-- &#45;4&#45;&gt;7 -->
<g id="edge140" class="edge">
<title>&#45;4&#45;&gt;7</title>
<path fill="none" stroke="green" stroke-width="0.36" d="M2171.42,-142.06C2149.49,-133.95 2105.23,-116.24 2096.76,-102.47 2088.21,-88.55 2087.25,-78.98 2096.76,-65.7 2125.74,-25.25 2156.45,-47.87 2202.76,-29.7 2205.54,-28.61 2208.43,-27.41 2211.29,-26.18"/>
<polygon fill="green" stroke="green" stroke-width="0.36" points="2212.88,-29.31 2220.6,-22.05 2210.04,-22.91 2212.88,-29.31"/>
</g>
<!-- &#45;4&#45;&gt;8 -->
<g id="edge141" class="edge">
<title>&#45;4&#45;&gt;8</title>
<path fill="none" stroke="green" stroke-width="0.16" d="M2195.91,-143.78C2204.04,-142.07 2215.01,-139.9 2224.76,-138.47 2265.2,-132.55 2563.32,-132.74 2590.76,-102.47 2633.94,-54.84 2508.7,-28.51 2453.48,-19.47"/>
<polygon fill="green" stroke="green" stroke-width="0.16" points="2453.87,-15.99 2443.44,-17.89 2452.78,-22.91 2453.87,-15.99"/>
</g>
<!-- &#45;4&#45;&gt;14 -->
<g id="edge16" class="edge">
<title>&#45;4&#45;&gt;14</title>
<path fill="none" stroke="green" stroke-width="0.21" d="M2190.3,-138.44C2196.8,-130.47 2207.05,-117.88 2215.97,-106.93"/>
<polygon fill="green" stroke="green" stroke-width="0.21" points="2218.84,-108.94 2222.45,-98.98 2213.42,-104.52 2218.84,-108.94"/>
</g>
<!-- &#45;4&#45;&gt;15 -->
<g id="edge17" class="edge">
<title>&#45;4&#45;&gt;15</title>
<path fill="none" stroke="red" stroke-width="0.42" d="M2195.85,-139.74C2211.08,-131.23 2238.02,-116.02 2260.76,-102.47 2262.06,-101.7 2263.38,-100.91 2264.71,-100.1"/>
<polygon fill="red" stroke="red" stroke-width="0.42" points="2266.73,-102.96 2273.42,-94.75 2263.07,-97 2266.73,-102.96"/>
</g>
<!-- &#45;4&#45;&gt;16 -->
<g id="edge18" class="edge">
<title>&#45;4&#45;&gt;16</title>
<path fill="none" stroke="red" stroke-width="0.2" d="M2195.78,-143.48C2219.41,-137.38 2273.34,-122.37 2315.76,-102.47 2317.16,-101.81 2318.57,-101.11 2319.97,-100.36"/>
<polygon fill="red" stroke="red" stroke-width="0.2" points="2322.11,-103.17 2329.02,-95.14 2318.61,-97.11 2322.11,-103.17"/>
</g>
<!-- &#45;4&#45;&gt;17 -->
<g id="edge19" class="edge">
<title>&#45;4&#45;&gt;17</title>
<path fill="none" stroke="red" stroke-width="0.21" d="M2175.92,-138.44C2167.77,-130.1 2154.67,-116.71 2143.65,-105.42"/>
<polygon fill="red" stroke="red" stroke-width="0.21" points="2145.92,-102.75 2136.43,-98.04 2140.92,-107.64 2145.92,-102.75"/>
</g>
<!-- &#45;4&#45;&gt;18 -->
<g id="edge20" class="edge">
<title>&#45;4&#45;&gt;18</title>
<path fill="none" stroke="red" stroke-width="0.36" d="M2183.11,-138.44C2182.57,-131.83 2181.78,-122.05 2181.01,-112.66"/>
<polygon fill="red" stroke="red" stroke-width="0.36" points="2184.48,-112.1 2180.18,-102.42 2177.5,-112.67 2184.48,-112.1"/>
</g>
<!-- &#45;5 -->
<g id="node5" class="node">
<title>&#45;5</title>
<polygon fill="lightgray" stroke="black" points="2318.76,-156.47 2294.76,-156.47 2294.76,-138.47 2318.76,-138.47 2318.76,-156.47"/>
<text text-anchor="middle" x="2306.76" y="-145.27" font-family="Times New Roman,serif" font-size="9.00">&#45;5</text>
</g>
<!-- &#45;5&#45;&gt;0 -->
<g id="edge142" class="edge">
<title>&#45;5&#45;&gt;0</title>
<path fill="none" stroke="green" stroke-width="0.19" d="M2294.49,-143.5C2287.79,-141.93 2279.34,-140 2271.76,-138.47 2181.53,-120.2 2140.16,-159.35 2067.76,-102.47 2048.17,-87.07 2038.46,-59.5 2033.79,-39.59"/>
<polygon fill="green" stroke="green" stroke-width="0.19" points="2037.2,-38.79 2031.74,-29.71 2030.35,-40.22 2037.2,-38.79"/>
</g>
<!-- &#45;5&#45;&gt;1 -->
<g id="edge143" class="edge">
<title>&#45;5&#45;&gt;1</title>
<path fill="none" stroke="red" stroke-width="0.2" d="M2294.47,-143.59C2287.77,-142.04 2279.32,-140.11 2271.76,-138.47 2194.17,-121.62 2146.94,-164.01 2096.76,-102.47 2080.68,-82.73 2096.18,-53.68 2109.97,-34.76"/>
<polygon fill="red" stroke="red" stroke-width="0.2" points="2112.92,-36.66 2116.27,-26.61 2107.38,-32.38 2112.92,-36.66"/>
</g>
<!-- &#45;5&#45;&gt;2 -->
<g id="edge144" class="edge">
<title>&#45;5&#45;&gt;2</title>
<path fill="none" stroke="green" stroke-width="0.2" d="M2318.98,-143.43C2326.62,-141.66 2336.71,-139.57 2345.76,-138.47 2396.1,-132.35 3222.62,-139.02 3257.76,-102.47 3269.09,-90.69 3269.07,-77.5 3257.76,-65.7 3192.12,2.78 2495.86,-56.17 2404.76,-29.7 2403.7,-29.39 2402.64,-29.02 2401.58,-28.62"/>
<polygon fill="green" stroke="green" stroke-width="0.2" points="2402.98,-25.4 2392.46,-24.1 2399.87,-31.67 2402.98,-25.4"/>
</g>
<!-- &#45;5&#45;&gt;3 -->
<g id="edge145" class="edge">
<title>&#45;5&#45;&gt;3</title>
<path fill="none" stroke="red" stroke-width="0.21" d="M2318.99,-143.53C2326.64,-141.79 2336.73,-139.71 2345.76,-138.47 2402.49,-130.7 2820.72,-144.34 2859.76,-102.47 2870.91,-90.52 2870.94,-77.62 2859.76,-65.7 2817.82,-20.92 2367.48,-47.5 2308.76,-29.7 2307.71,-29.38 2306.64,-29 2305.59,-28.59"/>
<polygon fill="red" stroke="red" stroke-width="0.21" points="2306.99,-25.37 2296.48,-24.04 2303.86,-31.64 2306.99,-25.37"/>
</g>
<!-- &#45;5&#45;&gt;4 -->
<g id="edge146" class="edge">
<title>&#45;5&#45;&gt;4</title>
<path fill="none" stroke="green" stroke-width="0.19" d="M2318.9,-142.21C2334.2,-136.1 2359.84,-123.23 2370.76,-102.47 2378.37,-88 2380.98,-78.45 2370.76,-65.7 2324.92,-8.47 2279.36,-52.77 2209.76,-29.7 2206.93,-28.76 2204.01,-27.65 2201.14,-26.48"/>
<polygon fill="green" stroke="green" stroke-width="0.19" points="2202.37,-23.19 2191.81,-22.38 2199.56,-29.6 2202.37,-23.19"/>
</g>
<!-- &#45;5&#45;&gt;5 -->
<g id="edge147" class="edge">
<title>&#45;5&#45;&gt;5</title>
<path fill="none" stroke="red" stroke-width="0.38" d="M2318.98,-143.43C2326.62,-141.66 2336.71,-139.57 2345.76,-138.47 2395.11,-132.45 3205.33,-138.32 3239.76,-102.47 3251.09,-90.68 3251.08,-77.49 3239.76,-65.7 3171.76,5.13 2451.08,-57.03 2356.76,-29.7 2355.7,-29.39 2354.64,-29.03 2353.58,-28.62"/>
<polygon fill="red" stroke="red" stroke-width="0.38" points="2354.97,-25.4 2344.46,-24.1 2351.87,-31.68 2354.97,-25.4"/>
</g>
<!-- &#45;5&#45;&gt;6 -->
<g id="edge148" class="edge">
<title>&#45;5&#45;&gt;6</title>
<path fill="none" stroke="red" stroke-width="0.27" d="M2294.48,-143.55C2287.78,-141.99 2279.33,-140.06 2271.76,-138.47 2189.38,-121.08 2142.28,-164.88 2085.76,-102.47 2070.61,-85.73 2070.43,-59.01 2072.9,-39.66"/>
<polygon fill="red" stroke="red" stroke-width="0.27" points="2076.4,-39.95 2074.52,-29.52 2069.48,-38.85 2076.4,-39.95"/>
</g>
<!-- &#45;5&#45;&gt;7 -->
<g id="edge149" class="edge">
<title>&#45;5&#45;&gt;7</title>
<path fill="none" stroke="red" stroke-width="0.16" d="M2318.81,-143.99C2337.45,-139.43 2372.71,-127.78 2387.76,-102.47 2396.12,-88.42 2397.62,-78.73 2387.76,-65.7 2352.39,-18.9 2315.35,-51.19 2260.76,-29.7 2259.11,-29.05 2257.43,-28.33 2255.75,-27.57"/>
<polygon fill="red" stroke="red" stroke-width="0.16" points="2256.95,-24.26 2246.43,-23 2253.87,-30.55 2256.95,-24.26"/>
</g>
<!-- &#45;5&#45;&gt;8 -->
<g id="edge150" class="edge">
<title>&#45;5&#45;&gt;8</title>
<path fill="none" stroke="green" stroke-width="0.54" d="M2318.98,-143.43C2326.62,-141.66 2336.71,-139.56 2345.76,-138.47 2397.1,-132.25 3239.92,-139.73 3275.76,-102.47 3287.09,-90.69 3286.98,-77.59 3275.76,-65.7 3246.83,-35.01 2591.56,-19.33 2453.97,-16.37"/>
<polygon fill="green" stroke="green" stroke-width="0.54" points="2453.69,-12.86 2443.62,-16.15 2453.54,-19.86 2453.69,-12.86"/>
</g>
<!-- &#45;5&#45;&gt;14 -->
<g id="edge21" class="edge">
<title>&#45;5&#45;&gt;14</title>
<path fill="none" stroke="red" stroke-width="0.11" d="M2297.22,-138.44C2286.62,-129.53 2269.18,-114.86 2255.26,-103.16"/>
<polygon fill="red" stroke="red" stroke-width="0.11" points="2257.46,-100.43 2247.55,-96.67 2252.95,-105.79 2257.46,-100.43"/>
</g>
<!-- &#45;5&#45;&gt;15 -->
<g id="edge22" class="edge">
<title>&#45;5&#45;&gt;15</title>
<path fill="none" stroke="red" stroke-width="0.3" d="M2304.41,-138.44C2302.4,-131.59 2299.4,-121.34 2296.55,-111.65"/>
<polygon fill="red" stroke="red" stroke-width="0.3" points="2299.87,-110.52 2293.7,-101.91 2293.16,-112.49 2299.87,-110.52"/>
</g>
<!-- &#45;5&#45;&gt;16 -->
<g id="edge23" class="edge">
<title>&#45;5&#45;&gt;16</title>
<path fill="none" stroke="green" stroke-width="0.17" d="M2311.6,-138.44C2316.09,-131 2322.99,-119.55 2329.25,-109.16"/>
<polygon fill="green" stroke="green" stroke-width="0.17" points="2332.35,-110.8 2334.52,-100.42 2326.36,-107.18 2332.35,-110.8"/>
</g>
<!-- &#45;5&#45;&gt;17 -->
<g id="edge24" class="edge">
<title>&#45;5&#45;&gt;17</title>
<path fill="none" stroke="green" stroke-width="0.21" d="M2294.35,-143.42C2262.43,-135.51 2178.12,-114.11 2151.76,-102.47 2150.36,-101.85 2148.94,-101.16 2147.52,-100.44"/>
<polygon fill="green" stroke="green" stroke-width="0.21" points="2148.87,-97.18 2138.45,-95.27 2145.41,-103.26 2148.87,-97.18"/>
</g>
<!-- &#45;5&#45;&gt;18 -->
<g id="edge25" class="edge">
<title>&#45;5&#45;&gt;18</title>
<path fill="none" stroke="red" stroke-width="0.45" d="M2294.5,-141.72C2275.38,-134.18 2237.47,-118.65 2206.76,-102.47 2205.44,-101.77 2204.09,-101.03 2202.73,-100.26"/>
<polygon fill="red" stroke="red" stroke-width="0.45" points="2204.33,-97.14 2193.94,-95.05 2200.75,-103.16 2204.33,-97.14"/>
</g>
<!-- &#45;6 -->
<g id="node6" class="node">
<title>&#45;6</title>
<polygon fill="lightgray" stroke="black" points="1272.76,-156.47 1248.76,-156.47 1248.76,-138.47 1272.76,-138.47 1272.76,-156.47"/>
<text text-anchor="middle" x="1260.76" y="-145.27" font-family="Times New Roman,serif" font-size="9.00">&#45;6</text>
</g>
<!-- &#45;6&#45;&gt;0 -->
<g id="edge151" class="edge">
<title>&#45;6&#45;&gt;0</title>
<path fill="none" stroke="green" stroke-width="0.21" d="M1248.57,-146.14C1193.59,-144.3 974.06,-132.68 1037.76,-65.7 1072.11,-29.58 1853.62,-18.04 2004.63,-16.15"/>
<polygon fill="green" stroke="green" stroke-width="0.21" points="2004.81,-19.64 2014.76,-16.02 2004.72,-12.64 2004.81,-19.64"/>
</g>
<!-- &#45;6&#45;&gt;1 -->
<g id="edge152" class="edge">
<title>&#45;6&#45;&gt;1</title>
<path fill="none" stroke="red" stroke-width="0.25" d="M1248.62,-147.17C1219.57,-148.1 1146.06,-145.84 1113.76,-102.47 1104.01,-89.36 1102.42,-77.46 1113.76,-65.7 1151.89,-26.16 2048.98,-44.87 2101.76,-29.7 2102.83,-29.39 2103.89,-29.03 2104.95,-28.62"/>
<polygon fill="red" stroke="red" stroke-width="0.25" points="2106.66,-31.68 2114.07,-24.11 2103.56,-25.41 2106.66,-31.68"/>
</g>
<!-- &#45;6&#45;&gt;2 -->
<g id="edge153" class="edge">
<title>&#45;6&#45;&gt;2</title>
<path fill="none" stroke="green" stroke-width="0.2" d="M1262.33,-138.22C1266.06,-121.16 1277.21,-82.27 1303.76,-65.7 1403.08,-3.72 2244.22,-61.91 2356.76,-29.7 2357.83,-29.39 2358.89,-29.03 2359.95,-28.63"/>
<polygon fill="green" stroke="green" stroke-width="0.2" points="2361.66,-31.69 2369.07,-24.12 2358.56,-25.41 2361.66,-31.69"/>
</g>
<!-- &#45;6&#45;&gt;3 -->
<g id="edge154" class="edge">
<title>&#45;6&#45;&gt;3</title>
<path fill="none" stroke="red" stroke-width="0.3" d="M1252.3,-138.27C1236.83,-122.32 1207.35,-86.84 1227.76,-65.7 1267.54,-24.51 2202.35,-44.11 2257.76,-29.7 2259.68,-29.2 2261.61,-28.55 2263.51,-27.81"/>
<polygon fill="red" stroke="red" stroke-width="0.3" points="2265.03,-30.96 2272.59,-23.53 2262.05,-24.63 2265.03,-30.96"/>
</g>
<!-- &#45;6&#45;&gt;4 -->
<g id="edge155" class="edge">
<title>&#45;6&#45;&gt;4</title>
<path fill="none" stroke="red" stroke-width="0.47" d="M1248.58,-145.75C1225.09,-143.63 1173.91,-135.29 1151.76,-102.47 1142.62,-88.92 1140.42,-77.46 1151.76,-65.7 1190.28,-25.77 2095.89,-42.93 2149.76,-29.7 2152.14,-29.11 2154.56,-28.32 2156.93,-27.42"/>
<polygon fill="red" stroke="red" stroke-width="0.47" points="2158.52,-30.54 2166.19,-23.24 2155.64,-24.16 2158.52,-30.54"/>
</g>
<!-- &#45;6&#45;&gt;5 -->
<g id="edge156" class="edge">
<title>&#45;6&#45;&gt;5</title>
<path fill="none" stroke="red" stroke-width="0.47" d="M1258.21,-138.4C1253.58,-122.05 1246.03,-84.9 1265.76,-65.7 1307.32,-25.27 2253.03,-45.66 2308.76,-29.7 2309.83,-29.39 2310.89,-29.03 2311.95,-28.63"/>
<polygon fill="red" stroke="red" stroke-width="0.47" points="2313.66,-31.69 2321.07,-24.12 2310.56,-25.41 2313.66,-31.69"/>
</g>
<!-- &#45;6&#45;&gt;6 -->
<g id="edge157" class="edge">
<title>&#45;6&#45;&gt;6</title>
<path fill="none" stroke="red" stroke-width="0.48" d="M1248.66,-145.51C1199.74,-141.23 1021.89,-121.59 1075.76,-65.7 1113.5,-26.55 2001.51,-44.73 2053.76,-29.7 2054.83,-29.39 2055.89,-29.03 2056.95,-28.62"/>
<polygon fill="red" stroke="red" stroke-width="0.48" points="2058.66,-31.68 2066.07,-24.11 2055.56,-25.41 2058.66,-31.68"/>
</g>
<!-- &#45;6&#45;&gt;7 -->
<g id="edge158" class="edge">
<title>&#45;6&#45;&gt;7</title>
<path fill="none" stroke="green" stroke-width="0.15" d="M1248.5,-142.98C1231.74,-137.48 1202.32,-125.02 1189.76,-102.47 1181.82,-88.19 1178.42,-77.46 1189.76,-65.7 1228.87,-25.18 2147.91,-42.42 2202.76,-29.7 2205.82,-28.99 2208.95,-27.98 2211.99,-26.81"/>
<polygon fill="green" stroke="green" stroke-width="0.15" points="2213.42,-30.01 2221.18,-22.8 2210.62,-23.59 2213.42,-30.01"/>
</g>
<!-- &#45;6&#45;&gt;8 -->
<g id="edge159" class="edge">
<title>&#45;6&#45;&gt;8</title>
<path fill="none" stroke="green" stroke-width="0.47" d="M1272.9,-145.3C1393.69,-133.68 2376.24,-38.92 2404.76,-29.7 2405.82,-29.36 2406.88,-28.97 2407.93,-28.54"/>
<polygon fill="green" stroke="green" stroke-width="0.47" points="2409.67,-31.58 2417.02,-23.94 2406.52,-25.33 2409.67,-31.58"/>
</g>
<!-- &#45;6&#45;&gt;14 -->
<g id="edge26" class="edge">
<title>&#45;6&#45;&gt;14</title>
<path fill="none" stroke="red" stroke-width="0.53" d="M1273.07,-146.27C1377.41,-144.55 2112.54,-131.42 2205.76,-102.47 2207.23,-102.01 2208.7,-101.46 2210.16,-100.84"/>
<polygon fill="red" stroke="red" stroke-width="0.53" points="2212.14,-103.75 2219.34,-95.97 2208.86,-97.56 2212.14,-103.75"/>
</g>
<!-- &#45;6&#45;&gt;15 -->
<g id="edge27" class="edge">
<title>&#45;6&#45;&gt;15</title>
<path fill="none" stroke="red" stroke-width="0.2" d="M1273.09,-146.3C1380.92,-144.82 2161.87,-133.04 2260.76,-102.47 2262.23,-102.01 2263.7,-101.46 2265.16,-100.84"/>
<polygon fill="red" stroke="red" stroke-width="0.2" points="2267.14,-103.75 2274.34,-95.98 2263.87,-97.57 2267.14,-103.75"/>
</g>
<!-- &#45;6&#45;&gt;16 -->
<g id="edge28" class="edge">
<title>&#45;6&#45;&gt;16</title>
<path fill="none" stroke="green" stroke-width="0.41" d="M1273.07,-146.33C1384.06,-145.08 2211.19,-134.66 2315.76,-102.47 2317.23,-102.02 2318.7,-101.47 2320.16,-100.85"/>
<polygon fill="green" stroke="green" stroke-width="0.41" points="2322.14,-103.76 2329.34,-95.98 2318.87,-97.57 2322.14,-103.76"/>
</g>
<!-- &#45;6&#45;&gt;17 -->
<g id="edge29" class="edge">
<title>&#45;6&#45;&gt;17</title>
<path fill="none" stroke="green" stroke-width="0.17" d="M1272.96,-145.6C1365.52,-139.02 1957.13,-96.94 2095.05,-87.13"/>
<polygon fill="green" stroke="green" stroke-width="0.17" points="2095.51,-90.6 2105.24,-86.4 2095.02,-83.62 2095.51,-90.6"/>
</g>
<!-- &#45;6&#45;&gt;18 -->
<g id="edge30" class="edge">
<title>&#45;6&#45;&gt;18</title>
<path fill="none" stroke="green" stroke-width="0.19" d="M1272.98,-146.23C1373.53,-144.26 2063.17,-129.8 2150.76,-102.47 2152.23,-102.01 2153.7,-101.46 2155.15,-100.83"/>
<polygon fill="green" stroke="green" stroke-width="0.19" points="2157.14,-103.74 2164.34,-95.96 2153.86,-97.56 2157.14,-103.74"/>
</g>
<!-- &#45;7 -->
<g id="node7" class="node">
<title>&#45;7</title>
<polygon fill="lightgray" stroke="black" points="3066.76,-156.47 3042.76,-156.47 3042.76,-138.47 3066.76,-138.47 3066.76,-156.47"/>
<text text-anchor="middle" x="3054.76" y="-145.27" font-family="Times New Roman,serif" font-size="9.00">&#45;7</text>
</g>
<!-- &#45;7&#45;&gt;0 -->
<g id="edge160" class="edge">
<title>&#45;7&#45;&gt;0</title>
<path fill="none" stroke="green" stroke-width="0.3" d="M3042.42,-144.53C2980.77,-134.9 2699.92,-91.64 2468.76,-65.7 2284.78,-45.05 2230.36,-85.29 2053.76,-29.7 2052.71,-29.37 2051.65,-28.98 2050.6,-28.56"/>
<polygon fill="green" stroke="green" stroke-width="0.3" points="2052,-25.35 2041.5,-23.98 2048.86,-31.6 2052,-25.35"/>
</g>
<!-- &#45;7&#45;&gt;1 -->
<g id="edge161" class="edge">
<title>&#45;7&#45;&gt;1</title>
<path fill="none" stroke="green" stroke-width="0.45" d="M3057.31,-138.41C3061.92,-122.07 3069.45,-84.96 3049.76,-65.7 2978.63,3.91 2251.37,-53.63 2154.76,-29.7 2152.39,-29.11 2149.98,-28.32 2147.61,-27.4"/>
<polygon fill="green" stroke="green" stroke-width="0.45" points="2148.89,-24.15 2138.34,-23.22 2146.01,-30.53 2148.89,-24.15"/>
</g>
<!-- &#45;7&#45;&gt;2 -->
<g id="edge162" class="edge">
<title>&#45;7&#45;&gt;2</title>
<path fill="none" stroke="green" stroke-width="0.27" d="M3067.07,-146.17C3181.6,-143.41 4057.41,-121.63 4075.76,-102.47 4087.07,-90.67 4087.2,-77.38 4075.76,-65.7 4010.82,0.66 2494.19,-54.69 2404.76,-29.7 2403.7,-29.4 2402.63,-29.04 2401.57,-28.64"/>
<polygon fill="green" stroke="green" stroke-width="0.27" points="2402.96,-25.43 2392.45,-24.15 2399.87,-31.71 2402.96,-25.43"/>
</g>
<!-- &#45;7&#45;&gt;3 -->
<g id="edge163" class="edge">
<title>&#45;7&#45;&gt;3</title>
<path fill="none" stroke="green" stroke-width="0.21" d="M3044.57,-138.37C3022.37,-121.25 2967.29,-81.66 2913.76,-65.7 2655.63,11.28 2566.77,-107.09 2308.76,-29.7 2307.71,-29.38 2306.64,-29.01 2305.58,-28.59"/>
<polygon fill="green" stroke="green" stroke-width="0.21" points="2306.99,-25.38 2296.47,-24.05 2303.86,-31.65 2306.99,-25.38"/>
</g>
<!-- &#45;7&#45;&gt;4 -->
<g id="edge164" class="edge">
<title>&#45;7&#45;&gt;4</title>
<path fill="none" stroke="red" stroke-width="0.17" d="M3042.45,-144.64C2982.11,-135.71 2711.67,-95.82 2489.76,-65.7 2365.44,-48.82 2330.55,-63.65 2209.76,-29.7 2206.89,-28.89 2203.94,-27.86 2201.06,-26.73"/>
<polygon fill="red" stroke="red" stroke-width="0.17" points="2202.29,-23.45 2191.72,-22.66 2199.49,-29.86 2202.29,-23.45"/>
</g>
<!-- &#45;7&#45;&gt;5 -->
<g id="edge165" class="edge">
<title>&#45;7&#45;&gt;5</title>
<path fill="none" stroke="red" stroke-width="0.43" d="M3067.05,-146.33C3124.64,-145.33 3362.25,-136.86 3293.76,-65.7 3257.64,-28.16 2406.82,-44.14 2356.76,-29.7 2355.7,-29.39 2354.64,-29.03 2353.58,-28.62"/>
<polygon fill="red" stroke="red" stroke-width="0.43" points="2354.97,-25.41 2344.46,-24.11 2351.87,-31.68 2354.97,-25.41"/>
</g>
<!-- &#45;7&#45;&gt;6 -->
<g id="edge166" class="edge">
<title>&#45;7&#45;&gt;6</title>
<path fill="none" stroke="green" stroke-width="0.13" d="M3053.19,-138.23C3049.45,-121.2 3038.27,-82.34 3011.76,-65.7 2926.06,-11.9 2198.97,-57.8 2101.76,-29.7 2100.7,-29.39 2099.64,-29.03 2098.58,-28.62"/>
<polygon fill="green" stroke="green" stroke-width="0.13" points="2099.97,-25.41 2089.46,-24.1 2096.87,-31.68 2099.97,-25.41"/>
</g>
<!-- &#45;7&#45;&gt;7 -->
<g id="edge167" class="edge">
<title>&#45;7&#45;&gt;7</title>
<path fill="none" stroke="green" stroke-width="0.26" d="M3042.69,-144.71C2943.44,-130.22 2265.68,-31.27 2260.76,-29.7 2258.88,-29.1 2256.97,-28.37 2255.08,-27.58"/>
<polygon fill="green" stroke="green" stroke-width="0.26" points="2256.56,-24.4 2246.03,-23.22 2253.53,-30.71 2256.56,-24.4"/>
</g>
<!-- &#45;7&#45;&gt;8 -->
<g id="edge168" class="edge">
<title>&#45;7&#45;&gt;8</title>
<path fill="none" stroke="red" stroke-width="0.21" d="M3066.92,-146.04C3166.83,-142.48 3849.42,-117.61 3863.76,-102.47 3875,-90.6 3875.12,-77.45 3863.76,-65.7 3812.8,-12.93 2641.82,-15.06 2454.06,-15.74"/>
<polygon fill="red" stroke="red" stroke-width="0.21" points="2453.79,-12.24 2443.8,-15.78 2453.81,-19.24 2453.79,-12.24"/>
</g>
<!-- &#45;7&#45;&gt;14 -->
<g id="edge31" class="edge">
<title>&#45;7&#45;&gt;14</title>
<path fill="none" stroke="green" stroke-width="0.17" d="M3042.72,-146.16C2949.11,-143.72 2339.43,-126.96 2261.76,-102.47 2260.3,-102.01 2258.83,-101.45 2257.38,-100.82"/>
<polygon fill="green" stroke="green" stroke-width="0.17" points="2258.67,-97.55 2248.2,-95.94 2255.39,-103.73 2258.67,-97.55"/>
</g>
<!-- &#45;7&#45;&gt;15 -->
<g id="edge32" class="edge">
<title>&#45;7&#45;&gt;15</title>
<path fill="none" stroke="green" stroke-width="0.19" d="M3042.71,-146.11C2952.84,-143.37 2388.79,-125.35 2316.76,-102.47 2315.3,-102 2313.83,-101.44 2312.38,-100.81"/>
<polygon fill="green" stroke="green" stroke-width="0.19" points="2313.68,-97.54 2303.2,-95.93 2310.39,-103.72 2313.68,-97.54"/>
</g>
<!-- &#45;7&#45;&gt;16 -->
<g id="edge33" class="edge">
<title>&#45;7&#45;&gt;16</title>
<path fill="none" stroke="red" stroke-width="0.11" d="M3042.72,-145.43C2961.5,-138.42 2493.25,-97.99 2372.28,-87.55"/>
<polygon fill="red" stroke="red" stroke-width="0.11" points="2372.25,-84.03 2361.99,-86.66 2371.65,-91 2372.25,-84.03"/>
</g>
<!-- &#45;7&#45;&gt;17 -->
<g id="edge34" class="edge">
<title>&#45;7&#45;&gt;17</title>
<path fill="none" stroke="red" stroke-width="0.33" d="M3042.66,-146.05C2938.51,-142.45 2196.34,-116.36 2151.76,-102.47 2150.3,-102.01 2148.83,-101.46 2147.38,-100.83"/>
<polygon fill="red" stroke="red" stroke-width="0.33" points="2148.67,-97.56 2138.19,-95.96 2145.39,-103.74 2148.67,-97.56"/>
</g>
<!-- &#45;7&#45;&gt;18 -->
<g id="edge35" class="edge">
<title>&#45;7&#45;&gt;18</title>
<path fill="none" stroke="green" stroke-width="0.12" d="M3042.51,-146.2C2944.55,-144.02 2290.03,-128.56 2206.76,-102.47 2205.3,-102.01 2203.83,-101.45 2202.38,-100.83"/>
<polygon fill="green" stroke="green" stroke-width="0.12" points="2203.67,-97.55 2193.2,-95.95 2200.39,-103.73 2203.67,-97.55"/>
</g>
<!-- &#45;8 -->
<g id="node8" class="node">
<title>&#45;8</title>
<polygon fill="lightgray" stroke="black" points="2144.76,-156.47 2120.76,-156.47 2120.76,-138.47 2144.76,-138.47 2144.76,-156.47"/>
<text text-anchor="middle" x="2132.76" y="-145.27" font-family="Times New Roman,serif" font-size="9.00">&#45;8</text>
</g>
<!-- &#45;8&#45;&gt;0 -->
<g id="edge169" class="edge">
<title>&#45;8&#45;&gt;0</title>
<path fill="none" stroke="green" stroke-width="0.15" d="M2120.76,-146.18C2030.14,-143.93 1456.37,-128.66 1431.76,-102.47 1420.58,-90.56 1420.7,-77.72 1431.76,-65.7 1471.11,-22.94 1896.07,-16.85 2004.63,-15.99"/>
<polygon fill="green" stroke="green" stroke-width="0.15" points="2004.96,-19.49 2014.94,-15.92 2004.91,-12.49 2004.96,-19.49"/>
</g>
<!-- &#45;8&#45;&gt;1 -->
<g id="edge170" class="edge">
<title>&#45;8&#45;&gt;1</title>
<path fill="none" stroke="green" stroke-width="0.16" d="M2120.52,-146.65C2032.88,-147.84 1503.03,-152.91 1455.76,-102.47 1444.59,-90.54 1444.54,-77.57 1455.76,-65.7 1505.16,-13.47 2032.87,-50.22 2101.76,-29.7 2102.83,-29.38 2103.89,-29.01 2104.95,-28.6"/>
<polygon fill="green" stroke="green" stroke-width="0.16" points="2106.67,-31.65 2114.06,-24.06 2103.55,-25.39 2106.67,-31.65"/>
</g>
<!-- &#45;8&#45;&gt;2 -->
<g id="edge171" class="edge">
<title>&#45;8&#45;&gt;2</title>
<path fill="none" stroke="green" stroke-width="0.48" stroke-dasharray="1,5" d="M2144.96,-142.91C2150.38,-141.41 2156.86,-139.72 2162.76,-138.47 2212.29,-127.93 2354.91,-141 2387.76,-102.47 2402.78,-84.85 2397.29,-57.24 2390.47,-37.94"/>
<polygon fill="green" stroke="green" stroke-width="0.48" points="2393.66,-36.5 2386.78,-28.45 2387.14,-39.04 2393.66,-36.5"/>
</g>
<!-- &#45;8&#45;&gt;3 -->
<g id="edge172" class="edge">
<title>&#45;8&#45;&gt;3</title>
<path fill="none" stroke="green" stroke-width="0.21" d="M2123.68,-138.16C2107.8,-122.63 2078.34,-88.7 2096.76,-65.7 2142.61,-8.47 2188.81,-54.63 2257.76,-29.7 2259.43,-29.1 2261.13,-28.41 2262.82,-27.68"/>
<polygon fill="green" stroke="green" stroke-width="0.21" points="2264.68,-30.67 2272.15,-23.16 2261.63,-24.37 2264.68,-30.67"/>
</g>
<!-- &#45;8&#45;&gt;4 -->
<g id="edge173" class="edge">
<title>&#45;8&#45;&gt;4</title>
<path fill="none" stroke="red" stroke-width="0.1" d="M2120.67,-146.6C2036.35,-147.4 1538.2,-150.07 1493.76,-102.47 1482.61,-90.52 1482.53,-77.57 1493.76,-65.7 1543.95,-12.69 2079.04,-47.77 2149.76,-29.7 2152.14,-29.09 2154.55,-28.29 2156.91,-27.37"/>
<polygon fill="red" stroke="red" stroke-width="0.1" points="2158.51,-30.49 2166.18,-23.18 2155.63,-24.11 2158.51,-30.49"/>
</g>
<!-- &#45;8&#45;&gt;5 -->
<g id="edge174" class="edge">
<title>&#45;8&#45;&gt;5</title>
<path fill="none" stroke="red" stroke-width="0.2" d="M2144.97,-142.95C2150.39,-141.45 2156.87,-139.76 2162.76,-138.47 2208.58,-128.41 2340.56,-138.36 2370.76,-102.47 2388.25,-81.69 2367.29,-51.61 2350.25,-32.92"/>
<polygon fill="red" stroke="red" stroke-width="0.2" points="2352.76,-30.47 2343.32,-25.66 2347.7,-35.31 2352.76,-30.47"/>
</g>
<!-- &#45;8&#45;&gt;6 -->
<g id="edge175" class="edge">
<title>&#45;8&#45;&gt;6</title>
<path fill="none" stroke="green" stroke-width="0.53" d="M2120.68,-146.16C2030.7,-143.82 1467.91,-128.2 1443.76,-102.47 1432.58,-90.55 1432.55,-77.59 1443.76,-65.7 1490.34,-16.29 1988.73,-49.19 2053.76,-29.7 2054.82,-29.38 2055.89,-29.01 2056.95,-28.59"/>
<polygon fill="green" stroke="green" stroke-width="0.53" points="2058.67,-31.65 2066.06,-24.05 2055.54,-25.38 2058.67,-31.65"/>
</g>
<!-- &#45;8&#45;&gt;7 -->
<g id="edge176" class="edge">
<title>&#45;8&#45;&gt;7</title>
<path fill="none" stroke="red" stroke-width="0.12" d="M2120.75,-146.23C2052.34,-144.76 1714.02,-135.83 1683.76,-102.47 1672.79,-90.36 1672.62,-77.65 1683.76,-65.7 1723.2,-23.43 2146.68,-43.7 2202.76,-29.7 2205.81,-28.94 2208.93,-27.89 2211.97,-26.72"/>
<polygon fill="red" stroke="red" stroke-width="0.12" points="2213.4,-29.91 2221.16,-22.69 2210.59,-23.5 2213.4,-29.91"/>
</g>
<!-- &#45;8&#45;&gt;8 -->
<g id="edge177" class="edge">
<title>&#45;8&#45;&gt;8</title>
<path fill="none" stroke="green" stroke-width="0.13" d="M2144.95,-142.88C2150.37,-141.37 2156.85,-139.69 2162.76,-138.47 2216.22,-127.42 2365.06,-138.84 2405.76,-102.47 2423.19,-86.9 2428.09,-59.79 2429.16,-40.03"/>
<polygon fill="green" stroke="green" stroke-width="0.13" points="2432.66,-40.02 2429.41,-29.93 2425.66,-39.84 2432.66,-40.02"/>
</g>
<!-- &#45;8&#45;&gt;14 -->
<g id="edge36" class="edge">
<title>&#45;8&#45;&gt;14</title>
<path fill="none" stroke="red" stroke-width="0.41" d="M2144.94,-139.2C2159.45,-130.51 2184.43,-115.52 2205.76,-102.47 2207.05,-101.68 2208.36,-100.88 2209.68,-100.06"/>
<polygon fill="red" stroke="red" stroke-width="0.41" points="2211.72,-102.92 2218.38,-94.68 2208.04,-96.97 2211.72,-102.92"/>
</g>
<!-- &#45;8&#45;&gt;15 -->
<g id="edge37" class="edge">
<title>&#45;8&#45;&gt;15</title>
<path fill="none" stroke="red" stroke-width="0.46" d="M2145.12,-143.22C2168.39,-136.9 2220.01,-121.82 2260.76,-102.47 2262.15,-101.81 2263.56,-101.1 2264.96,-100.35"/>
<polygon fill="red" stroke="red" stroke-width="0.46" points="2267.11,-103.15 2274,-95.11 2263.6,-97.1 2267.11,-103.15"/>
</g>
<!-- &#45;8&#45;&gt;16 -->
<g id="edge38" class="edge">
<title>&#45;8&#45;&gt;16</title>
<path fill="none" stroke="red" stroke-width="0.26" d="M2145,-143.12C2150.44,-141.65 2156.91,-139.94 2162.76,-138.47 2230.52,-121.47 2251.24,-129.24 2315.76,-102.47 2317.19,-101.88 2318.62,-101.22 2320.04,-100.52"/>
<polygon fill="red" stroke="red" stroke-width="0.26" points="2322.13,-103.36 2329.13,-95.41 2318.7,-97.25 2322.13,-103.36"/>
</g>
<!-- &#45;8&#45;&gt;17 -->
<g id="edge39" class="edge">
<title>&#45;8&#45;&gt;17</title>
<path fill="none" stroke="red" stroke-width="0.25" d="M2131.59,-138.44C2130.61,-131.76 2129.15,-121.84 2127.76,-112.36"/>
<polygon fill="red" stroke="red" stroke-width="0.25" points="2131.22,-111.8 2126.31,-102.42 2124.29,-112.82 2131.22,-111.8"/>
</g>
<!-- &#45;8&#45;&gt;18 -->
<g id="edge40" class="edge">
<title>&#45;8&#45;&gt;18</title>
<path fill="none" stroke="green" stroke-width="0.47" d="M2138.78,-138.44C2144.62,-130.65 2153.77,-118.44 2161.84,-107.67"/>
<polygon fill="green" stroke="green" stroke-width="0.47" points="2164.8,-109.56 2167.99,-99.46 2159.2,-105.36 2164.8,-109.56"/>
</g>
<!-- &#45;9 -->
<g id="node9" class="node">
<title>&#45;9</title>
<polygon fill="lightgray" stroke="black" points="588.76,-156.47 564.76,-156.47 564.76,-138.47 588.76,-138.47 588.76,-156.47"/>
<text text-anchor="middle" x="576.76" y="-145.27" font-family="Times New Roman,serif" font-size="9.00">&#45;9</text>
</g>
<!-- &#45;9&#45;&gt;0 -->
<g id="edge178" class="edge">
<title>&#45;9&#45;&gt;0</title>
<path fill="none" stroke="green" stroke-width="0.32" d="M564.54,-146.11C509.42,-144.14 289.38,-132.03 353.76,-65.7 383.83,-34.72 1797.77,-18.35 2004.62,-16.11"/>
<polygon fill="green" stroke="green" stroke-width="0.32" points="2004.83,-19.61 2014.79,-16 2004.76,-12.61 2004.83,-19.61"/>
</g>
<!-- &#45;9&#45;&gt;1 -->
<g id="edge179" class="edge">
<title>&#45;9&#45;&gt;1</title>
<path fill="none" stroke="red" stroke-width="0.23" d="M564.62,-147.17C535.57,-148.1 462.06,-145.84 429.76,-102.47 420.01,-89.36 418.33,-77.38 429.76,-65.7 494.75,0.7 2012.28,-54.7 2101.76,-29.7 2102.83,-29.4 2103.9,-29.04 2104.96,-28.64"/>
<polygon fill="red" stroke="red" stroke-width="0.23" points="2106.66,-31.71 2114.08,-24.15 2103.57,-25.43 2106.66,-31.71"/>
</g>
<!-- &#45;9&#45;&gt;2 -->
<g id="edge180" class="edge">
<title>&#45;9&#45;&gt;2</title>
<path fill="none" stroke="red" stroke-width="0.52" d="M578.26,-138.45C581.9,-121.48 592.97,-82.17 619.76,-65.7 701.99,-15.15 2263.79,-55.63 2356.76,-29.7 2357.83,-29.4 2358.9,-29.05 2359.96,-28.64"/>
<polygon fill="red" stroke="red" stroke-width="0.52" points="2361.66,-31.71 2369.08,-24.15 2358.57,-25.43 2361.66,-31.71"/>
</g>
<!-- &#45;9&#45;&gt;3 -->
<g id="edge181" class="edge">
<title>&#45;9&#45;&gt;3</title>
<path fill="none" stroke="green" stroke-width="0.15" d="M568.28,-138.24C552.76,-122.25 523.2,-86.69 543.76,-65.7 610.4,2.35 2165.42,-53.03 2257.76,-29.7 2259.68,-29.21 2261.61,-28.58 2263.52,-27.84"/>
<polygon fill="green" stroke="green" stroke-width="0.15" points="2265.03,-30.99 2272.6,-23.57 2262.06,-24.66 2265.03,-30.99"/>
</g>
<!-- &#45;9&#45;&gt;4 -->
<g id="edge182" class="edge">
<title>&#45;9&#45;&gt;4</title>
<path fill="none" stroke="green" stroke-width="0.19" d="M564.58,-145.75C541.09,-143.63 489.91,-135.29 467.76,-102.47 458.62,-88.92 456.33,-77.38 467.76,-65.7 533.14,1.1 2058.83,-51.32 2149.76,-29.7 2152.15,-29.13 2154.56,-28.35 2156.93,-27.45"/>
<polygon fill="green" stroke="green" stroke-width="0.19" points="2158.52,-30.57 2166.2,-23.28 2155.65,-24.19 2158.52,-30.57"/>
</g>
<!-- &#45;9&#45;&gt;5 -->
<g id="edge183" class="edge">
<title>&#45;9&#45;&gt;5</title>
<path fill="none" stroke="red" stroke-width="0.18" d="M574.19,-138.38C569.52,-121.98 561.9,-84.77 581.76,-65.7 651,0.75 2216.33,-55.49 2308.76,-29.7 2309.83,-29.4 2310.9,-29.05 2311.96,-28.64"/>
<polygon fill="red" stroke="red" stroke-width="0.18" points="2313.66,-31.71 2321.08,-24.15 2310.57,-25.43 2313.66,-31.71"/>
</g>
<!-- &#45;9&#45;&gt;6 -->
<g id="edge184" class="edge">
<title>&#45;9&#45;&gt;6</title>
<path fill="none" stroke="red" stroke-width="0.34" d="M564.63,-145.49C515.63,-141.12 337.47,-121.18 391.76,-65.7 456.36,0.31 1964.82,-54.56 2053.76,-29.7 2054.83,-29.4 2055.9,-29.04 2056.96,-28.64"/>
<polygon fill="red" stroke="red" stroke-width="0.34" points="2058.66,-31.71 2066.08,-24.15 2055.57,-25.43 2058.66,-31.71"/>
</g>
<!-- &#45;9&#45;&gt;7 -->
<g id="edge185" class="edge">
<title>&#45;9&#45;&gt;7</title>
<path fill="none" stroke="green" stroke-width="0.27" d="M564.5,-142.98C547.74,-137.48 518.32,-125.02 505.76,-102.47 497.82,-88.19 494.33,-77.38 505.76,-65.7 571.73,1.68 2110.75,-50.34 2202.76,-29.7 2205.83,-29.01 2208.96,-28.01 2212,-26.86"/>
<polygon fill="green" stroke="green" stroke-width="0.27" points="2213.43,-30.05 2221.19,-22.84 2210.63,-23.64 2213.43,-30.05"/>
</g>
<!-- &#45;9&#45;&gt;8 -->
<g id="edge186" class="edge">
<title>&#45;9&#45;&gt;8</title>
<path fill="none" stroke="red" stroke-width="0.25" d="M588.99,-144.79C659.56,-135.18 1022.08,-86.79 1319.76,-65.7 1440.09,-57.17 2288.78,-62.83 2404.76,-29.7 2405.83,-29.39 2406.9,-29.03 2407.96,-28.63"/>
<polygon fill="red" stroke="red" stroke-width="0.25" points="2409.66,-31.69 2417.08,-24.12 2406.56,-25.41 2409.66,-31.69"/>
</g>
<!-- &#45;9&#45;&gt;14 -->
<g id="edge41" class="edge">
<title>&#45;9&#45;&gt;14</title>
<path fill="none" stroke="red" stroke-width="0.13" d="M588.86,-146.16C736.96,-142.43 2195.48,-105.55 2205.76,-102.47 2207.24,-102.03 2208.71,-101.49 2210.17,-100.87"/>
<polygon fill="red" stroke="red" stroke-width="0.13" points="2212.14,-103.79 2219.36,-96.03 2208.88,-97.59 2212.14,-103.79"/>
</g>
<!-- &#45;9&#45;&gt;15 -->
<g id="edge42" class="edge">
<title>&#45;9&#45;&gt;15</title>
<path fill="none" stroke="green" stroke-width="0.25" d="M588.84,-146.16C739.8,-142.35 2255.44,-104.06 2260.76,-102.47 2262.24,-102.03 2263.71,-101.49 2265.17,-100.87"/>
<polygon fill="green" stroke="green" stroke-width="0.25" points="2267.14,-103.79 2274.36,-96.03 2263.88,-97.6 2267.14,-103.79"/>
</g>
<!-- &#45;9&#45;&gt;16 -->
<g id="edge43" class="edge">
<title>&#45;9&#45;&gt;16</title>
<path fill="none" stroke="green" stroke-width="0.18" d="M588.79,-146.17C742.31,-142.32 2314.39,-102.88 2315.76,-102.47 2317.24,-102.03 2318.71,-101.49 2320.17,-100.88"/>
<polygon fill="green" stroke="green" stroke-width="0.18" points="2322.14,-103.79 2329.36,-96.04 2318.88,-97.6 2322.14,-103.79"/>
</g>
<!-- &#45;9&#45;&gt;17 -->
<g id="edge44" class="edge">
<title>&#45;9&#45;&gt;17</title>
<path fill="none" stroke="red" stroke-width="0.58" d="M588.77,-145.99C720.5,-140.76 1895.88,-94.13 2095.13,-86.22"/>
<polygon fill="red" stroke="red" stroke-width="0.58" points="2095.51,-89.71 2105.37,-85.81 2095.24,-82.71 2095.51,-89.71"/>
</g>
<!-- &#45;9&#45;&gt;18 -->
<g id="edge45" class="edge">
<title>&#45;9&#45;&gt;18</title>
<path fill="none" stroke="red" stroke-width="0.32" d="M588.9,-146.15C734.45,-142.34 2140.83,-105.45 2150.76,-102.47 2152.24,-102.03 2153.71,-101.48 2155.17,-100.87"/>
<polygon fill="red" stroke="red" stroke-width="0.32" points="2157.14,-103.79 2164.36,-96.03 2153.88,-97.59 2157.14,-103.79"/>
</g>
<!-- &#45;10 -->
<g id="node10" class="node">
<title>&#45;10</title>
<polygon fill="lightgray" stroke="black" points="3411.26,-156.47 3382.26,-156.47 3382.26,-138.47 3411.26,-138.47 3411.26,-156.47"/>
<text text-anchor="middle" x="3396.76" y="-145.27" font-family="Times New Roman,serif" font-size="9.00">&#45;10</text>
</g>
<!-- &#45;10&#45;&gt;0 -->
<g id="edge187" class="edge">
<title>&#45;10&#45;&gt;0</title>
<path fill="none" stroke="red" stroke-width="0.37" d="M3382.21,-144.74C3304.2,-135.51 2927.64,-91.56 2618.76,-65.7 2493.39,-55.2 2174.19,-66.1 2053.76,-29.7 2052.71,-29.38 2051.64,-29 2050.59,-28.59"/>
<polygon fill="red" stroke="red" stroke-width="0.37" points="2051.99,-25.38 2041.48,-24.04 2048.86,-31.64 2051.99,-25.38"/>
</g>
<!-- &#45;10&#45;&gt;1 -->
<g id="edge188" class="edge">
<title>&#45;10&#45;&gt;1</title>
<path fill="none" stroke="green" stroke-width="0.24" d="M3399.33,-138.39C3403.97,-122.02 3411.55,-84.85 3391.76,-65.7 3342.36,-17.89 2221.59,-45.86 2154.76,-29.7 2152.39,-29.12 2149.97,-28.34 2147.6,-27.43"/>
<polygon fill="green" stroke="green" stroke-width="0.24" points="2148.89,-24.17 2138.33,-23.26 2146.01,-30.55 2148.89,-24.17"/>
</g>
<!-- &#45;10&#45;&gt;2 -->
<g id="edge189" class="edge">
<title>&#45;10&#45;&gt;2</title>
<path fill="none" stroke="red" stroke-width="0.3" d="M3411.29,-146.3C3522.44,-144.91 4235.06,-134.77 4265.76,-102.47 4277.02,-90.62 4277.21,-77.37 4265.76,-65.7 4229.56,-28.79 2454.58,-43.56 2404.76,-29.7 2403.7,-29.4 2402.63,-29.05 2401.57,-28.65"/>
<polygon fill="red" stroke="red" stroke-width="0.3" points="2402.96,-25.43 2392.44,-24.16 2399.87,-31.71 2402.96,-25.43"/>
</g>
<!-- &#45;10&#45;&gt;3 -->
<g id="edge190" class="edge">
<title>&#45;10&#45;&gt;3</title>
<path fill="none" stroke="green" stroke-width="0.45" d="M3381.95,-142.97C3327.06,-130.17 3129.91,-85.58 2964.76,-65.7 2819.81,-48.25 2448.7,-71.32 2308.76,-29.7 2307.7,-29.38 2306.64,-29.01 2305.58,-28.6"/>
<polygon fill="green" stroke="green" stroke-width="0.45" points="2306.98,-25.39 2296.47,-24.06 2303.86,-31.65 2306.98,-25.39"/>
</g>
<!-- &#45;10&#45;&gt;4 -->
<g id="edge191" class="edge">
<title>&#45;10&#45;&gt;4</title>
<path fill="none" stroke="green" stroke-width="0.13" d="M3382.11,-144.83C3304.39,-136.14 2932.45,-94.82 2627.76,-65.7 2442.15,-47.96 2390.29,-76.38 2209.76,-29.7 2206.88,-28.95 2203.92,-27.96 2201.03,-26.85"/>
<polygon fill="green" stroke="green" stroke-width="0.13" points="2202.25,-23.56 2191.69,-22.79 2199.46,-29.98 2202.25,-23.56"/>
</g>
<!-- &#45;10&#45;&gt;5 -->
<g id="edge192" class="edge">
<title>&#45;10&#45;&gt;5</title>
<path fill="none" stroke="red" stroke-width="0.38" d="M3391.55,-138.32C3380,-121.12 3350.36,-81.37 3313.76,-65.7 3118.14,18.09 2561.27,-88.61 2356.76,-29.7 2355.7,-29.39 2354.64,-29.03 2353.58,-28.62"/>
<polygon fill="red" stroke="red" stroke-width="0.38" points="2354.97,-25.41 2344.46,-24.11 2351.87,-31.68 2354.97,-25.41"/>
</g>
<!-- &#45;10&#45;&gt;6 -->
<g id="edge193" class="edge">
<title>&#45;10&#45;&gt;6</title>
<path fill="none" stroke="green" stroke-width="0.18" d="M3395.26,-138.46C3391.6,-121.53 3380.49,-82.28 3353.76,-65.7 3235.5,7.65 2235.66,-67.63 2101.76,-29.7 2100.7,-29.4 2099.63,-29.04 2098.57,-28.63"/>
<polygon fill="green" stroke="green" stroke-width="0.18" points="2099.97,-25.42 2089.45,-24.13 2096.87,-31.7 2099.97,-25.42"/>
</g>
<!-- &#45;10&#45;&gt;7 -->
<g id="edge194" class="edge">
<title>&#45;10&#45;&gt;7</title>
<path fill="none" stroke="red" stroke-width="0.26" d="M3382.07,-144.84C3304.89,-136.3 2938.65,-95.96 2638.76,-65.7 2470.86,-48.76 2422.74,-77.06 2260.76,-29.7 2258.87,-29.14 2256.95,-28.45 2255.05,-27.68"/>
<polygon fill="red" stroke="red" stroke-width="0.26" points="2256.52,-24.51 2245.99,-23.36 2253.51,-30.83 2256.52,-24.51"/>
</g>
<!-- &#45;10&#45;&gt;8 -->
<g id="edge195" class="edge">
<title>&#45;10&#45;&gt;8</title>
<path fill="none" stroke="green" stroke-width="0.23" d="M3411.55,-146.32C3526.36,-145.14 4271.65,-136.18 4303.76,-102.47 4315.04,-90.64 4315.17,-77.41 4303.76,-65.7 4269.94,-30.96 2675.3,-17.71 2454.12,-16.03"/>
<polygon fill="green" stroke="green" stroke-width="0.23" points="2453.87,-12.53 2443.84,-15.96 2453.81,-19.53 2453.87,-12.53"/>
</g>
<!-- &#45;10&#45;&gt;14 -->
<g id="edge46" class="edge">
<title>&#45;10&#45;&gt;14</title>
<path fill="none" stroke="red" stroke-width="0.34" d="M3381.96,-146.11C3252.62,-142.96 2317.92,-119.67 2261.76,-102.47 2260.29,-102.02 2258.82,-101.47 2257.37,-100.85"/>
<polygon fill="red" stroke="red" stroke-width="0.34" points="2258.66,-97.57 2248.18,-95.99 2255.39,-103.76 2258.66,-97.57"/>
</g>
<!-- &#45;10&#45;&gt;15 -->
<g id="edge47" class="edge">
<title>&#45;10&#45;&gt;15</title>
<path fill="none" stroke="green" stroke-width="0.22" d="M3381.89,-146.08C3255.87,-142.75 2370.07,-118.85 2316.76,-102.47 2315.29,-102.02 2313.83,-101.47 2312.37,-100.85"/>
<polygon fill="green" stroke="green" stroke-width="0.22" points="2313.66,-97.57 2303.19,-95.99 2310.39,-103.76 2313.66,-97.57"/>
</g>
<!-- &#45;10&#45;&gt;16 -->
<g id="edge48" class="edge">
<title>&#45;10&#45;&gt;16</title>
<path fill="none" stroke="red" stroke-width="0.22" d="M3381.88,-145.6C3267.51,-138.93 2528.6,-95.86 2372.64,-86.77"/>
<polygon fill="red" stroke="red" stroke-width="0.22" points="2372.62,-83.26 2362.44,-86.17 2372.22,-90.25 2372.62,-83.26"/>
</g>
<!-- &#45;10&#45;&gt;17 -->
<g id="edge49" class="edge">
<title>&#45;10&#45;&gt;17</title>
<path fill="none" stroke="red" stroke-width="0.12" d="M3381.87,-146.05C3243.22,-142.13 2182.7,-111.89 2151.76,-102.47 2150.29,-102.02 2148.82,-101.47 2147.37,-100.86"/>
<polygon fill="red" stroke="red" stroke-width="0.12" points="2148.66,-97.58 2138.18,-96 2145.39,-103.77 2148.66,-97.58"/>
</g>
<!-- &#45;10&#45;&gt;18 -->
<g id="edge50" class="edge">
<title>&#45;10&#45;&gt;18</title>
<path fill="none" stroke="green" stroke-width="0.17" d="M3382.11,-146.03C3247.89,-142.02 2236.3,-111.48 2206.76,-102.47 2205.29,-102.02 2203.82,-101.47 2202.37,-100.85"/>
<polygon fill="green" stroke="green" stroke-width="0.17" points="2203.66,-97.58 2193.18,-96 2200.39,-103.77 2203.66,-97.58"/>
</g>
<!-- &#45;11 -->
<g id="node11" class="node">
<title>&#45;11</title>
<polygon fill="lightgray" stroke="black" points="2262.26,-156.47 2233.26,-156.47 2233.26,-138.47 2262.26,-138.47 2262.26,-156.47"/>
<text text-anchor="middle" x="2247.76" y="-145.27" font-family="Times New Roman,serif" font-size="9.00">&#45;11</text>
</g>
<!-- &#45;11&#45;&gt;0 -->
<g id="edge196" class="edge">
<title>&#45;11&#45;&gt;0</title>
<path fill="none" stroke="green" stroke-width="0.24" d="M2233.07,-143.53C2224.78,-141.92 2214.22,-139.96 2204.76,-138.47 2143.45,-128.79 1968.73,-149.1 1927.76,-102.47 1916.98,-90.19 1919.11,-79.56 1927.76,-65.7 1944.59,-38.76 1980.65,-25.98 2005.06,-20.21"/>
<polygon fill="green" stroke="green" stroke-width="0.24" points="2005.98,-23.59 2015.04,-18.09 2004.53,-16.75 2005.98,-23.59"/>
</g>
<!-- &#45;11&#45;&gt;1 -->
<g id="edge197" class="edge">
<title>&#45;11&#45;&gt;1</title>
<path fill="none" stroke="green" stroke-width="0.29" d="M2233.07,-143.57C2224.77,-141.97 2214.21,-140.01 2204.76,-138.47 2148.29,-129.23 1987.3,-145.67 1949.76,-102.47 1939.05,-90.13 1939.63,-78.52 1949.76,-65.7 1992.83,-11.24 2037.24,-55.32 2101.76,-29.7 2102.63,-29.36 2103.49,-28.99 2104.36,-28.6"/>
<polygon fill="green" stroke="green" stroke-width="0.29" points="2106.15,-31.61 2113.41,-23.9 2102.92,-25.4 2106.15,-31.61"/>
</g>
<!-- &#45;11&#45;&gt;2 -->
<g id="edge198" class="edge">
<title>&#45;11&#45;&gt;2</title>
<path fill="none" stroke="green" stroke-width="0.24" d="M2262.47,-142.83C2269.48,-141.24 2278.01,-139.5 2285.76,-138.47 2355.27,-129.22 2867.62,-153.44 2915.76,-102.47 2926.99,-90.59 2926.91,-77.65 2915.76,-65.7 2876.96,-24.06 2459.19,-46.35 2404.76,-29.7 2403.71,-29.37 2402.65,-29 2401.59,-28.58"/>
<polygon fill="green" stroke="green" stroke-width="0.24" points="2402.99,-25.37 2392.48,-24.02 2399.86,-31.63 2402.99,-25.37"/>
</g>
<!-- &#45;11&#45;&gt;3 -->
<g id="edge199" class="edge">
<title>&#45;11&#45;&gt;3</title>
<path fill="none" stroke="green" stroke-width="0.54" d="M2262.53,-143.17C2269.55,-141.65 2278.07,-139.87 2285.76,-138.47 2337.09,-129.09 2483.82,-142.09 2517.76,-102.47 2528.4,-90.06 2528.29,-78.2 2517.76,-65.7 2457.03,6.39 2397.4,-61.75 2308.76,-29.7 2307.89,-29.38 2307.02,-29.04 2306.14,-28.67"/>
<polygon fill="green" stroke="green" stroke-width="0.54" points="2307.56,-25.46 2297.06,-24.05 2304.39,-31.7 2307.56,-25.46"/>
</g>
<!-- &#45;11&#45;&gt;4 -->
<g id="edge200" class="edge">
<title>&#45;11&#45;&gt;4</title>
<path fill="none" stroke="red" stroke-width="0.12" d="M2233.17,-143.26C2196.94,-135.14 2105.16,-113.66 2096.76,-102.47 2086.96,-89.4 2088.75,-79.94 2096.76,-65.7 2100.17,-59.64 2134.03,-40.27 2157.16,-27.54"/>
<polygon fill="red" stroke="red" stroke-width="0.12" points="2158.9,-30.57 2166,-22.71 2155.54,-24.43 2158.9,-30.57"/>
</g>
<!-- &#45;11&#45;&gt;5 -->
<g id="edge201" class="edge">
<title>&#45;11&#45;&gt;5</title>
<path fill="none" stroke="green" stroke-width="0.25" d="M2262.47,-142.84C2269.48,-141.25 2278.01,-139.51 2285.76,-138.47 2353.28,-129.43 2851.03,-152.03 2897.76,-102.47 2908.98,-90.58 2908.93,-77.63 2897.76,-65.7 2856.6,-21.71 2414.41,-47.21 2356.76,-29.7 2355.71,-29.38 2354.64,-29 2353.59,-28.58"/>
<polygon fill="green" stroke="green" stroke-width="0.25" points="2354.99,-25.37 2344.48,-24.03 2351.86,-31.63 2354.99,-25.37"/>
</g>
<!-- &#45;11&#45;&gt;6 -->
<g id="edge202" class="edge">
<title>&#45;11&#45;&gt;6</title>
<path fill="none" stroke="green" stroke-width="0.42" d="M2233.07,-143.55C2224.78,-141.95 2214.21,-139.99 2204.76,-138.47 2145.87,-129.01 1978.01,-147.39 1938.76,-102.47 1928.01,-90.16 1929.09,-78.87 1938.76,-65.7 1970.48,-22.54 2004.72,-51.21 2053.76,-29.7 2054.61,-29.33 2055.47,-28.93 2056.33,-28.52"/>
<polygon fill="green" stroke="green" stroke-width="0.42" points="2058.16,-31.51 2065.33,-23.72 2054.86,-25.34 2058.16,-31.51"/>
</g>
<!-- &#45;11&#45;&gt;7 -->
<g id="edge203" class="edge">
<title>&#45;11&#45;&gt;7</title>
<path fill="none" stroke="red" stroke-width="0.14" d="M2262.3,-143.44C2292,-136.94 2357.9,-120.73 2370.76,-102.47 2380.18,-89.11 2380.36,-78.93 2370.76,-65.7 2340.57,-24.05 2308.24,-49.5 2260.76,-29.7 2259.13,-29.02 2257.45,-28.27 2255.78,-27.5"/>
<polygon fill="red" stroke="red" stroke-width="0.14" points="2256.99,-24.19 2246.48,-22.89 2253.89,-30.47 2256.99,-24.19"/>
</g>
<!-- &#45;11&#45;&gt;8 -->
<g id="edge204" class="edge">
<title>&#45;11&#45;&gt;8</title>
<path fill="none" stroke="red" stroke-width="0.34" d="M2262.47,-142.83C2269.48,-141.23 2278.01,-139.49 2285.76,-138.47 2357.25,-129.01 2884.21,-154.85 2933.76,-102.47 2945,-90.6 2944.74,-77.81 2933.76,-65.7 2901.19,-29.75 2550.83,-18.76 2453.64,-16.39"/>
<polygon fill="red" stroke="red" stroke-width="0.34" points="2453.64,-12.89 2443.56,-16.15 2453.48,-19.89 2453.64,-12.89"/>
</g>
<!-- &#45;11&#45;&gt;14 -->
<g id="edge51" class="edge">
<title>&#45;11&#45;&gt;14</title>
<path fill="none" stroke="red" stroke-width="0.25" d="M2245.93,-138.44C2244.4,-131.71 2242.12,-121.7 2239.94,-112.16"/>
<polygon fill="red" stroke="red" stroke-width="0.25" points="2243.3,-111.14 2237.66,-102.16 2236.47,-112.69 2243.3,-111.14"/>
</g>
<!-- &#45;11&#45;&gt;15 -->
<g id="edge52" class="edge">
<title>&#45;11&#45;&gt;15</title>
<path fill="none" stroke="red" stroke-width="0.43" d="M2253.12,-138.44C2258.21,-130.83 2266.11,-119 2273.18,-108.42"/>
<polygon fill="red" stroke="red" stroke-width="0.43" points="2276.2,-110.2 2278.84,-99.94 2270.38,-106.31 2276.2,-110.2"/>
</g>
<!-- &#45;11&#45;&gt;16 -->
<g id="edge53" class="edge">
<title>&#45;11&#45;&gt;16</title>
<path fill="none" stroke="red" stroke-width="0.48" d="M2260.32,-138.44C2275.43,-128.78 2301.13,-112.34 2320.03,-100.26"/>
<polygon fill="red" stroke="red" stroke-width="0.48" points="2322.14,-103.06 2328.68,-94.73 2318.37,-97.17 2322.14,-103.06"/>
</g>
<!-- &#45;11&#45;&gt;17 -->
<g id="edge54" class="edge">
<title>&#45;11&#45;&gt;17</title>
<path fill="none" stroke="red" stroke-width="0.3" d="M2233.18,-140.46C2214.12,-132.46 2179.87,-117.56 2151.76,-102.47 2150.44,-101.76 2149.1,-101.01 2147.74,-100.24"/>
<polygon fill="red" stroke="red" stroke-width="0.3" points="2149.35,-97.12 2138.96,-95 2145.76,-103.13 2149.35,-97.12"/>
</g>
<!-- &#45;11&#45;&gt;18 -->
<g id="edge55" class="edge">
<title>&#45;11&#45;&gt;18</title>
<path fill="none" stroke="green" stroke-width="0.27" d="M2238.74,-138.44C2228.88,-129.67 2212.74,-115.31 2199.69,-103.7"/>
<polygon fill="green" stroke="green" stroke-width="0.27" points="2201.84,-100.93 2192.05,-96.9 2197.19,-106.16 2201.84,-100.93"/>
</g>
<!-- &#45;12 -->
<g id="node12" class="node">
<title>&#45;12</title>
<polygon fill="lightgray" stroke="black" points="2727.26,-156.47 2698.26,-156.47 2698.26,-138.47 2727.26,-138.47 2727.26,-156.47"/>
<text text-anchor="middle" x="2712.76" y="-145.27" font-family="Times New Roman,serif" font-size="9.00">&#45;12</text>
</g>
<!-- &#45;12&#45;&gt;0 -->
<g id="edge205" class="edge">
<title>&#45;12&#45;&gt;0</title>
<path fill="none" stroke="green" stroke-width="0.15" d="M2698.23,-142.38C2651.24,-129.3 2499.08,-88.06 2370.76,-65.7 2231.07,-41.36 2188.44,-74.06 2053.76,-29.7 2052.89,-29.41 2052,-29.08 2051.12,-28.73"/>
<polygon fill="green" stroke="green" stroke-width="0.15" points="2052.52,-25.52 2042.01,-24.2 2049.41,-31.79 2052.52,-25.52"/>
</g>
<!-- &#45;12&#45;&gt;1 -->
<g id="edge206" class="edge">
<title>&#45;12&#45;&gt;1</title>
<path fill="none" stroke="green" stroke-width="0.15" d="M2715.27,-138.45C2719.81,-122.19 2727.21,-85.2 2707.76,-65.7 2664.29,-22.09 2214.34,-45.25 2154.76,-29.7 2152.4,-29.08 2149.99,-28.27 2147.62,-27.34"/>
<polygon fill="green" stroke="green" stroke-width="0.15" points="2148.91,-24.09 2138.36,-23.15 2146.02,-30.46 2148.91,-24.09"/>
</g>
<!-- &#45;12&#45;&gt;2 -->
<g id="edge207" class="edge">
<title>&#45;12&#45;&gt;2</title>
<path fill="none" stroke="red" stroke-width="0.11" d="M2727.52,-146.09C2867.13,-142.48 3950.49,-114.15 3961.76,-102.47 3973.12,-90.71 3973.19,-77.39 3961.76,-65.7 3901.3,-3.81 2488.08,-53.05 2404.76,-29.7 2403.7,-29.4 2402.63,-29.04 2401.57,-28.64"/>
<polygon fill="red" stroke="red" stroke-width="0.11" points="2402.96,-25.43 2392.45,-24.15 2399.87,-31.71 2402.96,-25.43"/>
</g>
<!-- &#45;12&#45;&gt;3 -->
<g id="edge208" class="edge">
<title>&#45;12&#45;&gt;3</title>
<path fill="none" stroke="green" stroke-width="0.41" d="M2727.45,-145.27C2779.23,-140.55 2947.51,-120.72 2895.76,-65.7 2851,-18.1 2371.34,-48.53 2308.76,-29.7 2307.71,-29.38 2306.64,-29.01 2305.59,-28.59"/>
<polygon fill="green" stroke="green" stroke-width="0.41" points="2306.99,-25.38 2296.48,-24.05 2303.86,-31.64 2306.99,-25.38"/>
</g>
<!-- &#45;12&#45;&gt;4 -->
<g id="edge209" class="edge">
<title>&#45;12&#45;&gt;4</title>
<path fill="none" stroke="red" stroke-width="0.2" d="M2698.11,-142.21C2654.02,-129.5 2518.61,-91.1 2404.76,-65.7 2318.75,-46.51 2293.92,-55.86 2209.76,-29.7 2206.92,-28.81 2203.98,-27.74 2201.11,-26.58"/>
<polygon fill="red" stroke="red" stroke-width="0.2" points="2202.34,-23.3 2191.77,-22.49 2199.53,-29.71 2202.34,-23.3"/>
</g>
<!-- &#45;12&#45;&gt;5 -->
<g id="edge210" class="edge">
<title>&#45;12&#45;&gt;5</title>
<path fill="none" stroke="red" stroke-width="0.54" d="M2727.27,-145.89C2813.6,-142.35 3256.54,-123.25 3275.76,-102.47 3286.86,-90.47 3287.09,-77.48 3275.76,-65.7 3240.35,-28.87 2405.85,-43.88 2356.76,-29.7 2355.7,-29.39 2354.64,-29.03 2353.58,-28.62"/>
<polygon fill="red" stroke="red" stroke-width="0.54" points="2354.97,-25.41 2344.46,-24.11 2351.87,-31.68 2354.97,-25.41"/>
</g>
<!-- &#45;12&#45;&gt;6 -->
<g id="edge211" class="edge">
<title>&#45;12&#45;&gt;6</title>
<path fill="none" stroke="green" stroke-width="0.14" d="M2711.16,-138.28C2707.35,-121.34 2696.07,-82.65 2669.76,-65.7 2563.45,2.81 2222.84,-66.27 2101.76,-29.7 2100.71,-29.38 2099.64,-29 2098.59,-28.59"/>
<polygon fill="green" stroke="green" stroke-width="0.14" points="2099.99,-25.38 2089.48,-24.04 2096.86,-31.64 2099.99,-25.38"/>
</g>
<!-- &#45;12&#45;&gt;7 -->
<g id="edge212" class="edge">
<title>&#45;12&#45;&gt;7</title>
<path fill="none" stroke="green" stroke-width="0.24" d="M2698.25,-142.18C2655.76,-129.7 2527.91,-92.55 2420.76,-65.7 2350.06,-47.98 2329.29,-54.53 2260.76,-29.7 2259.1,-29.09 2257.4,-28.41 2255.71,-27.67"/>
<polygon fill="green" stroke="green" stroke-width="0.24" points="2256.9,-24.36 2246.38,-23.15 2253.85,-30.66 2256.9,-24.36"/>
</g>
<!-- &#45;12&#45;&gt;8 -->
<g id="edge213" class="edge">
<title>&#45;12&#45;&gt;8</title>
<path fill="none" stroke="red" stroke-width="0.31" d="M2727.37,-146.04C2858.94,-142.16 3835.58,-113.05 3845.76,-102.47 3857.09,-90.69 3857.12,-77.46 3845.76,-65.7 3795.45,-13.58 2639.15,-15.16 2453.74,-15.75"/>
<polygon fill="red" stroke="red" stroke-width="0.31" points="2453.6,-12.25 2443.61,-15.79 2453.62,-19.25 2453.6,-12.25"/>
</g>
<!-- &#45;12&#45;&gt;14 -->
<g id="edge56" class="edge">
<title>&#45;12&#45;&gt;14</title>
<path fill="none" stroke="red" stroke-width="0.35" d="M2698.21,-145.94C2630.45,-143.33 2345.6,-130.85 2261.76,-102.47 2260.31,-101.97 2258.85,-101.39 2257.4,-100.75"/>
<polygon fill="red" stroke="red" stroke-width="0.35" points="2258.71,-97.47 2248.24,-95.81 2255.39,-103.64 2258.71,-97.47"/>
</g>
<!-- &#45;12&#45;&gt;15 -->
<g id="edge57" class="edge">
<title>&#45;12&#45;&gt;15</title>
<path fill="none" stroke="red" stroke-width="0.15" d="M2697.93,-145.7C2634.94,-142.29 2389.49,-127.63 2316.76,-102.47 2315.31,-101.97 2313.85,-101.38 2312.41,-100.72"/>
<polygon fill="red" stroke="red" stroke-width="0.15" points="2313.72,-97.45 2303.26,-95.77 2310.39,-103.61 2313.72,-97.45"/>
</g>
<!-- &#45;12&#45;&gt;16 -->
<g id="edge58" class="edge">
<title>&#45;12&#45;&gt;16</title>
<path fill="none" stroke="green" stroke-width="0.5" d="M2697.84,-143.99C2642.07,-134.71 2445.3,-101.97 2371.76,-89.74"/>
<polygon fill="green" stroke="green" stroke-width="0.5" points="2372.28,-86.28 2361.84,-88.09 2371.13,-93.18 2372.28,-86.28"/>
</g>
<!-- &#45;12&#45;&gt;17 -->
<g id="edge59" class="edge">
<title>&#45;12&#45;&gt;17</title>
<path fill="none" stroke="red" stroke-width="0.14" d="M2698.15,-146.25C2620.7,-144.98 2257.71,-137.22 2151.76,-102.47 2150.3,-101.99 2148.84,-101.42 2147.39,-100.78"/>
<polygon fill="red" stroke="red" stroke-width="0.14" points="2148.69,-97.51 2138.22,-95.87 2145.39,-103.68 2148.69,-97.51"/>
</g>
<!-- &#45;12&#45;&gt;18 -->
<g id="edge60" class="edge">
<title>&#45;12&#45;&gt;18</title>
<path fill="none" stroke="red" stroke-width="0.73" d="M2697.93,-146.11C2624.71,-144.18 2301.52,-133.99 2206.76,-102.47 2205.31,-101.98 2203.84,-101.41 2202.4,-100.77"/>
<polygon fill="red" stroke="red" stroke-width="0.73" points="2203.7,-97.49 2193.23,-95.85 2200.39,-103.66 2203.7,-97.49"/>
</g>
<!-- 14&#45;&gt;0 -->
<g id="edge61" class="edge">
<title>14&#45;&gt;0</title>
<path fill="none" stroke="red" stroke-width="0.27" d="M2219.13,-72.77C2214.96,-70.17 2210.31,-67.59 2205.76,-65.7 2141.66,-39.04 2118.29,-55.32 2053.76,-29.7 2052.9,-29.36 2052.04,-28.99 2051.17,-28.6"/>
<polygon fill="red" stroke="red" stroke-width="0.27" points="2052.61,-25.4 2042.12,-23.9 2049.38,-31.61 2052.61,-25.4"/>
</g>
<!-- 14&#45;&gt;1 -->
<g id="edge62" class="edge">
<title>14&#45;&gt;1</title>
<path fill="none" stroke="red" stroke-width="0.23" d="M2218.29,-73.45C2199.49,-61.75 2167.7,-41.95 2146.72,-28.89"/>
<polygon fill="red" stroke="red" stroke-width="0.23" points="2148.53,-25.9 2138.19,-23.58 2144.83,-31.84 2148.53,-25.9"/>
</g>
<!-- 14&#45;&gt;2 -->
<g id="edge63" class="edge">
<title>14&#45;&gt;2</title>
<path fill="none" stroke="red" stroke-width="0.64" d="M2248.57,-73.15C2252.75,-70.56 2257.35,-67.88 2261.76,-65.7 2302.24,-45.7 2315.97,-49.04 2356.76,-29.7 2357.6,-29.3 2358.45,-28.89 2359.3,-28.46"/>
<polygon fill="red" stroke="red" stroke-width="0.64" points="2361.16,-31.43 2368.26,-23.57 2357.81,-25.28 2361.16,-31.43"/>
</g>
<!-- 14&#45;&gt;3 -->
<g id="edge64" class="edge">
<title>14&#45;&gt;3</title>
<path fill="none" stroke="red" stroke-width="0.48" d="M2244.58,-68.82C2251.96,-59.09 2261.84,-46.07 2269.95,-35.38"/>
<polygon fill="red" stroke="red" stroke-width="0.48" points="2272.74,-37.49 2276,-27.41 2267.17,-33.26 2272.74,-37.49"/>
</g>
<!-- 14&#45;&gt;4 -->
<g id="edge65" class="edge">
<title>14&#45;&gt;4</title>
<path fill="none" stroke="green" stroke-width="0.51" d="M2222.37,-69.15C2214.25,-59.22 2203.23,-45.75 2194.3,-34.84"/>
<polygon fill="green" stroke="green" stroke-width="0.51" points="2197,-32.61 2187.96,-27.09 2191.58,-37.05 2197,-32.61"/>
</g>
<!-- 14&#45;&gt;5 -->
<g id="edge66" class="edge">
<title>14&#45;&gt;5</title>
<path fill="none" stroke="red" stroke-width="0.35" d="M2248.8,-72.87C2265.72,-61.38 2293.31,-42.65 2312.21,-29.81"/>
<polygon fill="red" stroke="red" stroke-width="0.35" points="2314.4,-32.55 2320.71,-24.04 2310.47,-26.76 2314.4,-32.55"/>
</g>
<!-- 14&#45;&gt;6 -->
<g id="edge67" class="edge">
<title>14&#45;&gt;6</title>
<path fill="none" stroke="green" stroke-width="0.39" d="M2219,-73.07C2214.83,-70.47 2210.21,-67.81 2205.76,-65.7 2161.6,-44.67 2146.26,-50.01 2101.76,-29.7 2100.92,-29.31 2100.07,-28.91 2099.22,-28.49"/>
<polygon fill="green" stroke="green" stroke-width="0.39" points="2100.69,-25.31 2090.23,-23.64 2097.37,-31.47 2100.69,-25.31"/>
</g>
<!-- 14&#45;&gt;7 -->
<g id="edge68" class="edge">
<title>14&#45;&gt;7</title>
<path fill="none" stroke="red" stroke-width="0.54" d="M2233.76,-65.42C2233.76,-57.74 2233.76,-48.61 2233.76,-40.29"/>
<polygon fill="red" stroke="red" stroke-width="0.54" points="2237.26,-40.01 2233.76,-30.01 2230.26,-40.01 2237.26,-40.01"/>
</g>
<!-- 14&#45;&gt;8 -->
<g id="edge69" class="edge">
<title>14&#45;&gt;8</title>
<path fill="none" stroke="green" stroke-width="0.3" d="M2248.42,-72.81C2252.59,-70.21 2257.23,-67.62 2261.76,-65.7 2322.1,-40.11 2344.02,-54.31 2404.76,-29.7 2405.62,-29.35 2406.49,-28.98 2407.35,-28.58"/>
<polygon fill="green" stroke="green" stroke-width="0.3" points="2409.15,-31.59 2416.39,-23.86 2405.91,-25.39 2409.15,-31.59"/>
</g>
<!-- 15&#45;&gt;0 -->
<g id="edge70" class="edge">
<title>15&#45;&gt;0</title>
<path fill="none" stroke="green" stroke-width="0.37" d="M2274.21,-72.58C2270.03,-69.99 2265.36,-67.45 2260.76,-65.7 2173.5,-32.46 2141.56,-61.52 2053.76,-29.7 2052.89,-29.38 2052.02,-29.04 2051.14,-28.67"/>
<polygon fill="green" stroke="green" stroke-width="0.37" points="2052.57,-25.46 2042.06,-24.05 2049.39,-31.7 2052.57,-25.46"/>
</g>
<!-- 15&#45;&gt;1 -->
<g id="edge71" class="edge">
<title>15&#45;&gt;1</title>
<path fill="none" stroke="red" stroke-width="0.13" d="M2274.01,-73.05C2269.83,-70.45 2265.21,-67.8 2260.76,-65.7 2215.78,-44.44 2200.85,-48.45 2154.76,-29.7 2152.5,-28.78 2150.16,-27.76 2147.83,-26.72"/>
<polygon fill="red" stroke="red" stroke-width="0.13" points="2149.15,-23.47 2138.61,-22.39 2146.17,-29.81 2149.15,-23.47"/>
</g>
<!-- 15&#45;&gt;2 -->
<g id="edge72" class="edge">
<title>15&#45;&gt;2</title>
<path fill="none" stroke="red" stroke-width="0.36" d="M2303.14,-72.58C2318.63,-61.26 2343.4,-43.15 2360.78,-30.45"/>
<polygon fill="red" stroke="red" stroke-width="0.36" points="2363.1,-33.09 2369.11,-24.36 2358.97,-27.44 2363.1,-33.09"/>
</g>
<!-- 15&#45;&gt;3 -->
<g id="edge73" class="edge">
<title>15&#45;&gt;3</title>
<path fill="none" stroke="green" stroke-width="0.26" d="M2287.71,-65.42C2287.25,-57.65 2286.7,-48.4 2286.2,-40.01"/>
<polygon fill="green" stroke="green" stroke-width="0.26" points="2289.7,-39.78 2285.61,-30.01 2282.71,-40.2 2289.7,-39.78"/>
</g>
<!-- 15&#45;&gt;4 -->
<g id="edge74" class="edge">
<title>15&#45;&gt;4</title>
<path fill="none" stroke="green" stroke-width="0.19" d="M2273.38,-73.49C2269.28,-70.95 2264.86,-68.21 2260.76,-65.7 2240.24,-53.09 2216.73,-38.82 2200.17,-28.78"/>
<polygon fill="green" stroke="green" stroke-width="0.19" points="2201.66,-25.6 2191.29,-23.41 2198.03,-31.58 2201.66,-25.6"/>
</g>
<!-- 15&#45;&gt;5 -->
<g id="edge75" class="edge">
<title>15&#45;&gt;5</title>
<path fill="none" stroke="green" stroke-width="0.13" d="M2298.53,-68.16C2304.72,-58.71 2312.8,-46.36 2319.56,-36.03"/>
<polygon fill="green" stroke="green" stroke-width="0.13" points="2322.53,-37.89 2325.07,-27.6 2316.67,-34.05 2322.53,-37.89"/>
</g>
<!-- 15&#45;&gt;6 -->
<g id="edge76" class="edge">
<title>15&#45;&gt;6</title>
<path fill="none" stroke="green" stroke-width="0.45" d="M2274.14,-72.74C2269.97,-70.14 2265.32,-67.57 2260.76,-65.7 2193.73,-38.21 2169.24,-56.1 2101.76,-29.7 2100.9,-29.36 2100.03,-29 2099.17,-28.61"/>
<polygon fill="green" stroke="green" stroke-width="0.45" points="2100.6,-25.41 2090.11,-23.92 2097.38,-31.63 2100.6,-25.41"/>
</g>
<!-- 15&#45;&gt;7 -->
<g id="edge77" class="edge">
<title>15&#45;&gt;7</title>
<path fill="none" stroke="green" stroke-width="0.29" d="M2277.37,-69.15C2269.25,-59.22 2258.23,-45.75 2249.3,-34.84"/>
<polygon fill="green" stroke="green" stroke-width="0.29" points="2252,-32.61 2242.96,-27.09 2246.58,-37.05 2252,-32.61"/>
</g>
<!-- 15&#45;&gt;8 -->
<g id="edge78" class="edge">
<title>15&#45;&gt;8</title>
<path fill="none" stroke="green" stroke-width="0.15" d="M2303.61,-73.23C2307.78,-70.63 2312.38,-67.94 2316.76,-65.7 2354.4,-46.49 2366.82,-48.3 2404.76,-29.7 2405.6,-29.29 2406.44,-28.87 2407.28,-28.43"/>
<polygon fill="green" stroke="green" stroke-width="0.15" points="2409.16,-31.39 2416.23,-23.51 2405.79,-25.26 2409.16,-31.39"/>
</g>
<!-- 16&#45;&gt;0 -->
<g id="edge79" class="edge">
<title>16&#45;&gt;0</title>
<path fill="none" stroke="green" stroke-width="0.19" d="M2329.25,-72.47C2325.07,-69.88 2320.39,-67.37 2315.76,-65.7 2205.2,-25.83 2164.96,-67.78 2053.76,-29.7 2052.89,-29.4 2052.01,-29.07 2051.13,-28.71"/>
<polygon fill="green" stroke="green" stroke-width="0.19" points="2052.54,-25.5 2042.03,-24.14 2049.4,-31.75 2052.54,-25.5"/>
</g>
<!-- 16&#45;&gt;1 -->
<g id="edge80" class="edge">
<title>16&#45;&gt;1</title>
<path fill="none" stroke="red" stroke-width="0.33" d="M2329.15,-72.73C2324.97,-70.13 2320.32,-67.56 2315.76,-65.7 2247.89,-37.97 2224.07,-53.65 2154.76,-29.7 2152.45,-28.9 2150.08,-27.97 2147.74,-26.97"/>
<polygon fill="red" stroke="red" stroke-width="0.33" points="2149.04,-23.72 2138.49,-22.69 2146.1,-30.07 2149.04,-23.72"/>
</g>
<!-- 16&#45;&gt;2 -->
<g id="edge81" class="edge">
<title>16&#45;&gt;2</title>
<path fill="none" stroke="red" stroke-width="0.13" d="M2352.35,-67.49C2357.33,-58.44 2363.67,-46.9 2369.11,-37.04"/>
<polygon fill="red" stroke="red" stroke-width="0.13" points="2372.2,-38.67 2373.96,-28.22 2366.07,-35.29 2372.2,-38.67"/>
</g>
<!-- 16&#45;&gt;3 -->
<g id="edge82" class="edge">
<title>16&#45;&gt;3</title>
<path fill="none" stroke="red" stroke-width="0.1" d="M2332.11,-69.8C2323.14,-59.58 2310.64,-45.33 2300.74,-34.05"/>
<polygon fill="red" stroke="red" stroke-width="0.1" points="2303.3,-31.66 2294.07,-26.45 2298.04,-36.28 2303.3,-31.66"/>
</g>
<!-- 16&#45;&gt;4 -->
<g id="edge83" class="edge">
<title>16&#45;&gt;4</title>
<path fill="none" stroke="green" stroke-width="0.55" d="M2329.01,-73.05C2324.83,-70.45 2320.21,-67.8 2315.76,-65.7 2270.78,-44.44 2256.08,-47.87 2209.76,-29.7 2206.99,-28.61 2204.1,-27.41 2201.24,-26.18"/>
<polygon fill="green" stroke="green" stroke-width="0.55" points="2202.49,-22.91 2191.93,-22.05 2199.65,-29.31 2202.49,-22.91"/>
</g>
<!-- 16&#45;&gt;5 -->
<g id="edge84" class="edge">
<title>16&#45;&gt;5</title>
<path fill="none" stroke="red" stroke-width="0.45" d="M2340.93,-65.77C2339.63,-57.8 2338.06,-48.22 2336.65,-39.6"/>
<polygon fill="red" stroke="red" stroke-width="0.45" points="2340.1,-39.02 2335.03,-29.72 2333.19,-40.15 2340.1,-39.02"/>
</g>
<!-- 16&#45;&gt;6 -->
<g id="edge85" class="edge">
<title>16&#45;&gt;6</title>
<path fill="none" stroke="green" stroke-width="0.12" d="M2329.21,-72.57C2325.04,-69.97 2320.37,-67.44 2315.76,-65.7 2225.54,-31.62 2192.53,-62.32 2101.76,-29.7 2100.89,-29.39 2100.02,-29.04 2099.14,-28.67"/>
<polygon fill="green" stroke="green" stroke-width="0.12" points="2100.56,-25.47 2090.06,-24.06 2097.39,-31.71 2100.56,-25.47"/>
</g>
<!-- 16&#45;&gt;7 -->
<g id="edge86" class="edge">
<title>16&#45;&gt;7</title>
<path fill="none" stroke="green" stroke-width="0.28" d="M2328.38,-73.49C2324.28,-70.95 2319.86,-68.21 2315.76,-65.7 2295.24,-53.09 2271.73,-38.82 2255.17,-28.78"/>
<polygon fill="green" stroke="green" stroke-width="0.28" points="2256.66,-25.6 2246.29,-23.41 2253.03,-31.58 2256.66,-25.6"/>
</g>
<!-- 16&#45;&gt;8 -->
<g id="edge87" class="edge">
<title>16&#45;&gt;8</title>
<path fill="none" stroke="red" stroke-width="0.18" d="M2357.8,-71.98C2371.88,-60.84 2393.69,-43.6 2409.41,-31.16"/>
<polygon fill="red" stroke="red" stroke-width="0.18" points="2411.76,-33.76 2417.43,-24.81 2407.42,-28.27 2411.76,-33.76"/>
</g>
<!-- 17&#45;&gt;0 -->
<g id="edge88" class="edge">
<title>17&#45;&gt;0</title>
<path fill="none" stroke="green" stroke-width="0.41" d="M2109.08,-72.58C2093.16,-61.19 2067.66,-42.95 2049.88,-30.24"/>
<polygon fill="green" stroke="green" stroke-width="0.41" points="2051.56,-27.13 2041.39,-24.16 2047.48,-32.83 2051.56,-27.13"/>
</g>
<!-- 17&#45;&gt;1 -->
<g id="edge89" class="edge">
<title>17&#45;&gt;1</title>
<path fill="none" stroke="red" stroke-width="0.2" d="M2124.29,-65.42C2124.52,-57.65 2124.8,-48.4 2125.05,-40.01"/>
<polygon fill="red" stroke="red" stroke-width="0.2" points="2128.54,-40.11 2125.34,-30.01 2121.55,-39.9 2128.54,-40.11"/>
</g>
<!-- 17&#45;&gt;2 -->
<g id="edge90" class="edge">
<title>17&#45;&gt;2</title>
<path fill="none" stroke="red" stroke-width="0.15" d="M2138.33,-72.59C2142.5,-69.99 2147.17,-67.45 2151.76,-65.7 2238.19,-32.7 2269.82,-61.3 2356.76,-29.7 2357.64,-29.38 2358.51,-29.04 2359.38,-28.66"/>
<polygon fill="red" stroke="red" stroke-width="0.15" points="2361.14,-31.7 2368.46,-24.05 2357.96,-25.46 2361.14,-31.7"/>
</g>
<!-- 17&#45;&gt;3 -->
<g id="edge91" class="edge">
<title>17&#45;&gt;3</title>
<path fill="none" stroke="red" stroke-width="0.19" d="M2138.52,-73.05C2142.7,-70.45 2147.32,-67.8 2151.76,-65.7 2196.75,-44.44 2211.95,-49.1 2257.76,-29.7 2259.4,-29.01 2261.07,-28.26 2262.74,-27.48"/>
<polygon fill="red" stroke="red" stroke-width="0.19" points="2264.64,-30.44 2272.04,-22.86 2261.52,-24.17 2264.64,-30.44"/>
</g>
<!-- 17&#45;&gt;4 -->
<g id="edge92" class="edge">
<title>17&#45;&gt;4</title>
<path fill="none" stroke="green" stroke-width="0.27" d="M2135.16,-69.15C2143.28,-59.22 2154.3,-45.75 2163.23,-34.84"/>
<polygon fill="green" stroke="green" stroke-width="0.27" points="2165.95,-37.05 2169.57,-27.09 2160.53,-32.61 2165.95,-37.05"/>
</g>
<!-- 17&#45;&gt;5 -->
<g id="edge93" class="edge">
<title>17&#45;&gt;5</title>
<path fill="none" stroke="red" stroke-width="0.28" d="M2138.39,-72.74C2142.56,-70.15 2147.21,-67.57 2151.76,-65.7 2217.96,-38.45 2242.14,-55.88 2308.76,-29.7 2309.63,-29.36 2310.49,-28.99 2311.36,-28.61"/>
<polygon fill="red" stroke="red" stroke-width="0.28" points="2313.15,-31.62 2320.41,-23.91 2309.92,-25.41 2313.15,-31.62"/>
</g>
<!-- 17&#45;&gt;6 -->
<g id="edge94" class="edge">
<title>17&#45;&gt;6</title>
<path fill="none" stroke="green" stroke-width="0.45" d="M2113.78,-68.49C2107.33,-59.06 2098.83,-46.63 2091.7,-36.22"/>
<polygon fill="green" stroke="green" stroke-width="0.45" points="2094.42,-34 2085.89,-27.72 2088.65,-37.95 2094.42,-34"/>
</g>
<!-- 17&#45;&gt;7 -->
<g id="edge95" class="edge">
<title>17&#45;&gt;7</title>
<path fill="none" stroke="red" stroke-width="0.2" d="M2139.15,-73.49C2143.25,-70.95 2147.67,-68.21 2151.76,-65.7 2172.29,-53.09 2195.8,-38.82 2212.36,-28.78"/>
<polygon fill="red" stroke="red" stroke-width="0.2" points="2214.5,-31.58 2221.24,-23.41 2210.87,-25.6 2214.5,-31.58"/>
</g>
<!-- 17&#45;&gt;8 -->
<g id="edge96" class="edge">
<title>17&#45;&gt;8</title>
<path fill="none" stroke="green" stroke-width="0.13" d="M2138.29,-72.49C2142.46,-69.89 2147.14,-67.38 2151.76,-65.7 2258.51,-26.91 2297.4,-66.76 2404.76,-29.7 2405.64,-29.4 2406.52,-29.06 2407.4,-28.7"/>
<polygon fill="green" stroke="green" stroke-width="0.13" points="2409.13,-31.75 2416.49,-24.13 2405.99,-25.49 2409.13,-31.75"/>
</g>
<!-- 18&#45;&gt;0 -->
<g id="edge97" class="edge">
<title>18&#45;&gt;0</title>
<path fill="none" stroke="red" stroke-width="0.31" d="M2163.97,-73.13C2159.79,-70.54 2155.18,-67.86 2150.76,-65.7 2109.47,-45.47 2095.38,-49.26 2053.76,-29.7 2052.93,-29.3 2052.08,-28.89 2051.23,-28.46"/>
<polygon fill="red" stroke="red" stroke-width="0.31" points="2052.71,-25.29 2042.26,-23.59 2049.37,-31.44 2052.71,-25.29"/>
</g>
<!-- 18&#45;&gt;1 -->
<g id="edge98" class="edge">
<title>18&#45;&gt;1</title>
<path fill="none" stroke="red" stroke-width="0.39" d="M2167.78,-69.15C2160.03,-59.32 2149.54,-46.02 2140.99,-35.16"/>
<polygon fill="red" stroke="red" stroke-width="0.39" points="2143.57,-32.78 2134.63,-27.09 2138.07,-37.11 2143.57,-32.78"/>
</g>
<!-- 18&#45;&gt;2 -->
<g id="edge99" class="edge">
<title>18&#45;&gt;2</title>
<path fill="none" stroke="red" stroke-width="0.68" d="M2193.4,-72.77C2197.57,-70.18 2202.22,-67.59 2206.76,-65.7 2270.03,-39.28 2293.08,-55.09 2356.76,-29.7 2357.63,-29.36 2358.49,-28.99 2359.36,-28.6"/>
<polygon fill="red" stroke="red" stroke-width="0.68" points="2361.15,-31.61 2368.4,-23.89 2357.92,-25.4 2361.15,-31.61"/>
</g>
<!-- 18&#45;&gt;3 -->
<g id="edge100" class="edge">
<title>18&#45;&gt;3</title>
<path fill="none" stroke="red" stroke-width="0.29" d="M2193.95,-73.45C2212.32,-61.8 2243.33,-42.13 2263.93,-29.07"/>
<polygon fill="red" stroke="red" stroke-width="0.29" points="2266,-31.9 2272.57,-23.58 2262.25,-25.98 2266,-31.9"/>
</g>
<!-- 18&#45;&gt;4 -->
<g id="edge101" class="edge">
<title>18&#45;&gt;4</title>
<path fill="none" stroke="green" stroke-width="0.55" d="M2178.76,-65.42C2178.76,-57.74 2178.76,-48.61 2178.76,-40.29"/>
<polygon fill="green" stroke="green" stroke-width="0.55" points="2182.26,-40.01 2178.76,-30.01 2175.26,-40.01 2182.26,-40.01"/>
</g>
<!-- 18&#45;&gt;5 -->
<g id="edge102" class="edge">
<title>18&#45;&gt;5</title>
<path fill="none" stroke="green" stroke-width="0.11" d="M2193.54,-73.08C2197.71,-70.49 2202.33,-67.83 2206.76,-65.7 2250.11,-44.9 2265.09,-49.8 2308.76,-29.7 2309.61,-29.31 2310.46,-28.9 2311.31,-28.48"/>
<polygon fill="green" stroke="green" stroke-width="0.11" points="2313.16,-31.46 2320.29,-23.63 2309.83,-25.3 2313.16,-31.46"/>
</g>
<!-- 18&#45;&gt;6 -->
<g id="edge103" class="edge">
<title>18&#45;&gt;6</title>
<path fill="none" stroke="green" stroke-width="0.16" d="M2163.86,-73.16C2146.52,-61.62 2117.8,-42.5 2098.34,-29.55"/>
<polygon fill="green" stroke="green" stroke-width="0.16" points="2100.14,-26.54 2089.88,-23.91 2096.26,-32.37 2100.14,-26.54"/>
</g>
<!-- 18&#45;&gt;7 -->
<g id="edge104" class="edge">
<title>18&#45;&gt;7</title>
<path fill="none" stroke="green" stroke-width="0.18" d="M2190.16,-69.15C2198.28,-59.22 2209.3,-45.75 2218.23,-34.84"/>
<polygon fill="green" stroke="green" stroke-width="0.18" points="2220.95,-37.05 2224.57,-27.09 2215.53,-32.61 2220.95,-37.05"/>
</g>
<!-- 18&#45;&gt;8 -->
<g id="edge105" class="edge">
<title>18&#45;&gt;8</title>
<path fill="none" stroke="red" stroke-width="0.29" d="M2193.33,-72.61C2197.51,-70.01 2202.17,-67.47 2206.76,-65.7 2290.23,-33.54 2320.79,-60.5 2404.76,-29.7 2405.63,-29.38 2406.51,-29.03 2407.38,-28.66"/>
<polygon fill="red" stroke="red" stroke-width="0.29" points="2409.14,-31.69 2416.46,-24.03 2405.96,-25.45 2409.14,-31.69"/>
</g>
</g>
</svg>
