<?xml version="1.0" encoding="UTF-8" standalone="no"?>
<!DOCTYPE svg PUBLIC "-//W3C//DTD SVG 1.1//EN"
 "http://www.w3.org/Graphics/SVG/1.1/DTD/svg11.dtd">
<!-- Generated by graphviz version 3.0.0 (20220226.1711)
 -->
<!-- Pages: 1 -->
<svg width="512pt" height="92pt"
 viewBox="0.00 0.00 511.50 91.70" xmlns="http://www.w3.org/2000/svg" xmlns:xlink="http://www.w3.org/1999/xlink">
<g id="graph0" class="graph" transform="scale(1 1) rotate(0) translate(4 87.7)">
<polygon fill="white" stroke="transparent" points="-4,4 -4,-87.7 507.5,-87.7 507.5,4 -4,4"/>
<!-- &#45;1 -->
<g id="node1" class="node">
<title>&#45;1</title>
<polygon fill="lightgray" stroke="black" points="24,-83.7 0,-83.7 0,-65.7 24,-65.7 24,-83.7"/>
<text text-anchor="middle" x="12" y="-72.5" font-family="Times New Roman,serif" font-size="9.00">&#45;1</text>
</g>
<!-- 0 -->
<g id="node13" class="node">
<title>0</title>
<ellipse fill="lightblue" stroke="black" cx="69" cy="-14.85" rx="14.7" ry="14.7"/>
<text text-anchor="middle" x="69" y="-12.65" font-family="Times New Roman,serif" font-size="9.00">0</text>
</g>
<!-- &#45;1&#45;&gt;0 -->
<g id="edge1" class="edge">
<title>&#45;1&#45;&gt;0</title>
<path fill="none" stroke="red" stroke-width="0.38" d="M19.93,-65.65C28.1,-57.36 41.1,-44.16 51.67,-33.44"/>
<polygon fill="red" stroke="red" stroke-width="0.38" points="54.31,-35.75 58.83,-26.17 49.32,-30.83 54.31,-35.75"/>
</g>
<!-- 1 -->
<g id="node14" class="node">
<title>1</title>
<ellipse fill="lightblue" stroke="black" cx="309" cy="-14.85" rx="14.7" ry="14.7"/>
<text text-anchor="middle" x="309" y="-12.65" font-family="Times New Roman,serif" font-size="9.00">1</text>
</g>
<!-- &#45;1&#45;&gt;1 -->
<g id="edge2" class="edge">
<title>&#45;1&#45;&gt;1</title>
<path fill="none" stroke="red" stroke-width="0.19" d="M24.29,-68.5C27.11,-67.45 30.13,-66.44 33,-65.7 142.54,-37.39 178.06,-66.64 285,-29.7 285.88,-29.4 286.75,-29.06 287.63,-28.7"/>
<polygon fill="red" stroke="red" stroke-width="0.19" points="289.36,-31.75 296.73,-24.13 286.22,-25.49 289.36,-31.75"/>
</g>
<!-- 2 -->
<g id="node15" class="node">
<title>2</title>
<ellipse fill="lightblue" stroke="black" cx="117" cy="-14.85" rx="14.7" ry="14.7"/>
<text text-anchor="middle" x="117" y="-12.65" font-family="Times New Roman,serif" font-size="9.00">2</text>
</g>
<!-- &#45;1&#45;&gt;2 -->
<g id="edge3" class="edge">
<title>&#45;1&#45;&gt;2</title>
<path fill="none" stroke="green" stroke-width="0.29" stroke-dasharray="1,5" d="M24.13,-67.24C40.02,-58.74 68.7,-43.3 93,-29.7 93.81,-29.25 94.63,-28.78 95.46,-28.31"/>
<polygon fill="green" stroke="green" stroke-width="0.29" points="97.39,-31.24 104.33,-23.24 93.91,-25.17 97.39,-31.24"/>
</g>
<!-- 3 -->
<g id="node16" class="node">
<title>3</title>
<ellipse fill="lightblue" stroke="black" cx="213" cy="-14.85" rx="14.7" ry="14.7"/>
<text text-anchor="middle" x="213" y="-12.65" font-family="Times New Roman,serif" font-size="9.00">3</text>
</g>
<!-- &#45;1&#45;&gt;3 -->
<g id="edge4" class="edge">
<title>&#45;1&#45;&gt;3</title>
<path fill="none" stroke="red" stroke-width="0.36" d="M24.34,-68.68C27.16,-67.62 30.16,-66.56 33,-65.7 101.07,-44.98 122.79,-55.77 189,-29.7 189.86,-29.36 190.73,-28.99 191.6,-28.6"/>
<polygon fill="red" stroke="red" stroke-width="0.36" points="193.38,-31.62 200.65,-23.91 190.16,-25.41 193.38,-31.62"/>
</g>
<!-- 5 -->
<g id="node18" class="node">
<title>5</title>
<ellipse fill="lightblue" stroke="black" cx="165" cy="-14.85" rx="14.7" ry="14.7"/>
<text text-anchor="middle" x="165" y="-12.65" font-family="Times New Roman,serif" font-size="9.00">5</text>
</g>
<!-- &#45;1&#45;&gt;5 -->
<g id="edge5" class="edge">
<title>&#45;1&#45;&gt;5</title>
<path fill="none" stroke="green" stroke-width="0.19" d="M24.4,-68.87C27.22,-67.81 30.21,-66.7 33,-65.7 80.65,-48.69 94.85,-50.45 141,-29.7 141.84,-29.32 142.7,-28.92 143.55,-28.5"/>
<polygon fill="green" stroke="green" stroke-width="0.19" points="145.39,-31.49 152.55,-23.67 142.08,-25.32 145.39,-31.49"/>
</g>
<!-- &#45;2 -->
<g id="node2" class="node">
<title>&#45;2</title>
<polygon fill="lightgray" stroke="black" points="108,-83.7 84,-83.7 84,-65.7 108,-65.7 108,-83.7"/>
<text text-anchor="middle" x="96" y="-72.5" font-family="Times New Roman,serif" font-size="9.00">&#45;2</text>
</g>
<!-- &#45;2&#45;&gt;0 -->
<g id="edge6" class="edge">
<title>&#45;2&#45;&gt;0</title>
<path fill="none" stroke="green" stroke-width="0.38" d="M92.25,-65.65C88.9,-58.48 83.84,-47.64 79.3,-37.91"/>
<polygon fill="green" stroke="green" stroke-width="0.38" points="82.41,-36.3 75,-28.71 76.06,-39.26 82.41,-36.3"/>
</g>
<!-- &#45;2&#45;&gt;1 -->
<g id="edge7" class="edge">
<title>&#45;2&#45;&gt;1</title>
<path fill="none" stroke="green" stroke-width="0.15" stroke-dasharray="1,5" d="M108.33,-68.64C111.15,-67.59 114.16,-66.54 117,-65.7 190.23,-44.04 213.73,-57.12 285,-29.7 285.86,-29.37 286.73,-29.01 287.6,-28.62"/>
<polygon fill="green" stroke="green" stroke-width="0.15" points="289.38,-31.64 296.66,-23.95 286.17,-25.42 289.38,-31.64"/>
</g>
<!-- &#45;2&#45;&gt;2 -->
<g id="edge8" class="edge">
<title>&#45;2&#45;&gt;2</title>
<path fill="none" stroke="red" stroke-width="0.32" stroke-dasharray="1,5" d="M98.92,-65.65C101.46,-58.65 105.28,-48.15 108.75,-38.59"/>
<polygon fill="red" stroke="red" stroke-width="0.32" points="112.05,-39.75 112.17,-29.16 105.47,-37.36 112.05,-39.75"/>
</g>
<!-- &#45;2&#45;&gt;3 -->
<g id="edge9" class="edge">
<title>&#45;2&#45;&gt;3</title>
<path fill="none" stroke="red" stroke-width="0.53" d="M108.19,-68.31C126.11,-60.31 160.52,-44.62 189,-29.7 189.82,-29.27 190.65,-28.83 191.49,-28.37"/>
<polygon fill="red" stroke="red" stroke-width="0.53" points="193.39,-31.32 200.4,-23.38 189.97,-25.21 193.39,-31.32"/>
</g>
<!-- &#45;2&#45;&gt;5 -->
<g id="edge10" class="edge">
<title>&#45;2&#45;&gt;5</title>
<path fill="none" stroke="green" stroke-width="0.22" stroke-dasharray="1,5" d="M105.59,-65.65C116.04,-56.89 133.02,-42.66 146.15,-31.65"/>
<polygon fill="green" stroke="green" stroke-width="0.22" points="148.71,-34.07 154.12,-24.97 144.21,-28.71 148.71,-34.07"/>
</g>
<!-- 7 -->
<g id="node20" class="node">
<title>7</title>
<ellipse fill="lightblue" stroke="black" cx="405" cy="-14.85" rx="14.7" ry="14.7"/>
<text text-anchor="middle" x="405" y="-12.65" font-family="Times New Roman,serif" font-size="9.00">7</text>
</g>
<!-- &#45;2&#45;&gt;7 -->
<g id="edge83" class="edge">
<title>&#45;2&#45;&gt;7</title>
<path fill="none" stroke="red" stroke-width="0.63" d="M108.29,-68.48C111.11,-67.43 114.13,-66.43 117,-65.7 231.75,-36.43 268.95,-68.01 381,-29.7 381.88,-29.4 382.76,-29.07 383.63,-28.71"/>
<polygon fill="red" stroke="red" stroke-width="0.63" points="385.36,-31.76 392.73,-24.14 382.23,-25.5 385.36,-31.76"/>
</g>
<!-- 8 -->
<g id="node21" class="node">
<title>8</title>
<ellipse fill="lightblue" stroke="black" cx="261" cy="-14.85" rx="14.7" ry="14.7"/>
<text text-anchor="middle" x="261" y="-12.65" font-family="Times New Roman,serif" font-size="9.00">8</text>
</g>
<!-- &#45;2&#45;&gt;8 -->
<g id="edge11" class="edge">
<title>&#45;2&#45;&gt;8</title>
<path fill="none" stroke="red" stroke-width="1.29" d="M108.38,-68.81C111.2,-67.75 114.19,-66.65 117,-65.7 169.72,-47.78 185.88,-51.76 237,-29.7 237.85,-29.33 238.71,-28.94 239.57,-28.53"/>
<polygon fill="red" stroke="red" stroke-width="1.29" points="241.39,-31.53 248.58,-23.75 238.11,-25.35 241.39,-31.53"/>
</g>
<!-- &#45;3 -->
<g id="node3" class="node">
<title>&#45;3</title>
<polygon fill="lightgray" stroke="black" points="150,-83.7 126,-83.7 126,-65.7 150,-65.7 150,-83.7"/>
<text text-anchor="middle" x="138" y="-72.5" font-family="Times New Roman,serif" font-size="9.00">&#45;3</text>
</g>
<!-- &#45;3&#45;&gt;0 -->
<g id="edge12" class="edge">
<title>&#45;3&#45;&gt;0</title>
<path fill="none" stroke="red" stroke-width="0.16" d="M128.41,-65.65C117.96,-56.89 100.98,-42.66 87.85,-31.65"/>
<polygon fill="red" stroke="red" stroke-width="0.16" points="89.79,-28.71 79.88,-24.97 85.29,-34.07 89.79,-28.71"/>
</g>
<!-- &#45;3&#45;&gt;1 -->
<g id="edge13" class="edge">
<title>&#45;3&#45;&gt;1</title>
<path fill="none" stroke="red" stroke-width="0.38" d="M150.37,-68.78C153.19,-67.72 156.19,-66.63 159,-65.7 214.26,-47.31 231.38,-52.42 285,-29.7 285.85,-29.34 286.71,-28.95 287.57,-28.55"/>
<polygon fill="red" stroke="red" stroke-width="0.38" points="289.39,-31.55 296.59,-23.78 286.12,-25.36 289.39,-31.55"/>
</g>
<!-- &#45;3&#45;&gt;2 -->
<g id="edge14" class="edge">
<title>&#45;3&#45;&gt;2</title>
<path fill="none" stroke="red" stroke-width="0.43" d="M135.08,-65.65C132.54,-58.65 128.72,-48.15 125.25,-38.59"/>
<polygon fill="red" stroke="red" stroke-width="0.43" points="128.53,-37.36 121.83,-29.16 121.95,-39.75 128.53,-37.36"/>
</g>
<!-- &#45;3&#45;&gt;3 -->
<g id="edge15" class="edge">
<title>&#45;3&#45;&gt;3</title>
<path fill="none" stroke="red" stroke-width="0.15" d="M148.43,-65.65C160.03,-56.71 179.03,-42.05 193.42,-30.95"/>
<polygon fill="red" stroke="red" stroke-width="0.15" points="195.9,-33.46 201.68,-24.58 191.62,-27.92 195.9,-33.46"/>
</g>
<!-- 4 -->
<g id="node17" class="node">
<title>4</title>
<ellipse fill="lightblue" stroke="black" cx="357" cy="-14.85" rx="14.7" ry="14.7"/>
<text text-anchor="middle" x="357" y="-12.65" font-family="Times New Roman,serif" font-size="9.00">4</text>
</g>
<!-- &#45;3&#45;&gt;4 -->
<g id="edge16" class="edge">
<title>&#45;3&#45;&gt;4</title>
<path fill="none" stroke="green" stroke-width="0.22" stroke-dasharray="1,5" d="M150.32,-68.63C153.15,-67.57 156.15,-66.53 159,-65.7 234.81,-43.57 259.19,-57.79 333,-29.7 333.87,-29.37 334.74,-29.01 335.61,-28.63"/>
<polygon fill="green" stroke="green" stroke-width="0.22" points="337.38,-31.66 344.67,-23.97 334.18,-25.43 337.38,-31.66"/>
</g>
<!-- &#45;3&#45;&gt;5 -->
<g id="edge17" class="edge">
<title>&#45;3&#45;&gt;5</title>
<path fill="none" stroke="green" stroke-width="0.15" stroke-dasharray="1,5" d="M141.75,-65.65C145.1,-58.48 150.16,-47.64 154.7,-37.91"/>
<polygon fill="green" stroke="green" stroke-width="0.15" points="157.94,-39.26 159,-28.71 151.59,-36.3 157.94,-39.26"/>
</g>
<!-- &#45;3&#45;&gt;7 -->
<g id="edge18" class="edge">
<title>&#45;3&#45;&gt;7</title>
<path fill="none" stroke="green" stroke-width="1.51" d="M150.3,-68.54C153.12,-67.49 156.14,-66.47 159,-65.7 255.53,-39.77 286.84,-63.23 381,-29.7 381.87,-29.39 382.75,-29.05 383.63,-28.68"/>
<polygon fill="green" stroke="green" stroke-width="1.51" points="385.37,-31.72 392.71,-24.08 382.21,-25.47 385.37,-31.72"/>
</g>
<!-- &#45;3&#45;&gt;8 -->
<g id="edge19" class="edge">
<title>&#45;3&#45;&gt;8</title>
<path fill="none" stroke="green" stroke-width="0.21" d="M150.08,-68.81C168.92,-61.09 206.32,-45.31 237,-29.7 237.83,-29.28 238.66,-28.84 239.5,-28.4"/>
<polygon fill="green" stroke="green" stroke-width="0.21" points="241.39,-31.35 248.43,-23.43 237.99,-25.23 241.39,-31.35"/>
</g>
<!-- &#45;4 -->
<g id="node4" class="node">
<title>&#45;4</title>
<polygon fill="lightgray" stroke="black" points="330,-83.7 306,-83.7 306,-65.7 330,-65.7 330,-83.7"/>
<text text-anchor="middle" x="318" y="-72.5" font-family="Times New Roman,serif" font-size="9.00">&#45;4</text>
</g>
<!-- &#45;4&#45;&gt;0 -->
<g id="edge20" class="edge">
<title>&#45;4&#45;&gt;0</title>
<path fill="none" stroke="red" stroke-width="0.1" stroke-dasharray="1,5" d="M305.69,-68.57C302.87,-67.51 299.86,-66.49 297,-65.7 208.25,-41.2 179.52,-61.18 93,-29.7 92.13,-29.38 91.25,-29.03 90.38,-28.66"/>
<polygon fill="red" stroke="red" stroke-width="0.1" points="91.8,-25.46 81.3,-24.04 88.63,-31.7 91.8,-25.46"/>
</g>
<!-- &#45;4&#45;&gt;1 -->
<g id="edge21" class="edge">
<title>&#45;4&#45;&gt;1</title>
<path fill="none" stroke="red" stroke-width="0.24" stroke-dasharray="1,5" d="M316.75,-65.65C315.7,-58.89 314.14,-48.86 312.69,-39.57"/>
<polygon fill="red" stroke="red" stroke-width="0.24" points="316.14,-38.95 311.14,-29.6 309.22,-40.02 316.14,-38.95"/>
</g>
<!-- &#45;4&#45;&gt;3 -->
<g id="edge22" class="edge">
<title>&#45;4&#45;&gt;3</title>
<path fill="none" stroke="red" stroke-width="0.47" stroke-dasharray="1,5" d="M305.87,-67.24C289.98,-58.74 261.3,-43.3 237,-29.7 236.19,-29.25 235.37,-28.78 234.54,-28.31"/>
<polygon fill="red" stroke="red" stroke-width="0.47" points="236.09,-25.17 225.67,-23.24 232.61,-31.24 236.09,-25.17"/>
</g>
<!-- &#45;4&#45;&gt;4 -->
<g id="edge23" class="edge">
<title>&#45;4&#45;&gt;4</title>
<path fill="none" stroke="red" stroke-width="0.25" stroke-dasharray="1,5" d="M323.42,-65.65C328.54,-58.07 336.42,-46.37 343.26,-36.22"/>
<polygon fill="red" stroke="red" stroke-width="0.25" points="346.23,-38.09 348.91,-27.84 340.42,-34.18 346.23,-38.09"/>
</g>
<!-- &#45;4&#45;&gt;5 -->
<g id="edge24" class="edge">
<title>&#45;4&#45;&gt;5</title>
<path fill="none" stroke="green" stroke-width="0.63" stroke-dasharray="1,5" d="M305.6,-68.87C302.78,-67.81 299.79,-66.7 297,-65.7 249.35,-48.69 235.15,-50.45 189,-29.7 188.16,-29.32 187.3,-28.92 186.45,-28.5"/>
<polygon fill="green" stroke="green" stroke-width="0.63" points="187.92,-25.32 177.45,-23.67 184.61,-31.49 187.92,-25.32"/>
</g>
<!-- 6 -->
<g id="node19" class="node">
<title>6</title>
<ellipse fill="lightblue" stroke="black" cx="453" cy="-14.85" rx="14.7" ry="14.7"/>
<text text-anchor="middle" x="453" y="-12.65" font-family="Times New Roman,serif" font-size="9.00">6</text>
</g>
<!-- &#45;4&#45;&gt;6 -->
<g id="edge25" class="edge">
<title>&#45;4&#45;&gt;6</title>
<path fill="none" stroke="red" stroke-width="0.15" d="M330.27,-68.95C357.17,-58.53 419.67,-34.21 429,-29.7 429.83,-29.3 430.68,-28.87 431.53,-28.44"/>
<polygon fill="red" stroke="red" stroke-width="0.15" points="433.39,-31.41 440.48,-23.53 430.03,-25.27 433.39,-31.41"/>
</g>
<!-- &#45;4&#45;&gt;7 -->
<g id="edge26" class="edge">
<title>&#45;4&#45;&gt;7</title>
<path fill="none" stroke="red" stroke-width="0.61" d="M330.1,-65.65C344.12,-56.33 367.47,-40.8 384.38,-29.56"/>
<polygon fill="red" stroke="red" stroke-width="0.61" points="386.62,-32.28 393.01,-23.82 382.74,-26.45 386.62,-32.28"/>
</g>
<!-- &#45;4&#45;&gt;8 -->
<g id="edge27" class="edge">
<title>&#45;4&#45;&gt;8</title>
<path fill="none" stroke="green" stroke-width="0.35" d="M310.07,-65.65C301.9,-57.36 288.9,-44.16 278.33,-33.44"/>
<polygon fill="green" stroke="green" stroke-width="0.35" points="280.68,-30.83 271.17,-26.17 275.69,-35.75 280.68,-30.83"/>
</g>
<!-- &#45;5 -->
<g id="node5" class="node">
<title>&#45;5</title>
<polygon fill="lightgray" stroke="black" points="372,-83.7 348,-83.7 348,-65.7 372,-65.7 372,-83.7"/>
<text text-anchor="middle" x="360" y="-72.5" font-family="Times New Roman,serif" font-size="9.00">&#45;5</text>
</g>
<!-- &#45;5&#45;&gt;1 -->
<g id="edge28" class="edge">
<title>&#45;5&#45;&gt;1</title>
<path fill="none" stroke="red" stroke-width="0.18" d="M352.91,-65.65C345.75,-57.54 334.46,-44.73 325.12,-34.13"/>
<polygon fill="red" stroke="red" stroke-width="0.18" points="327.7,-31.76 318.46,-26.58 322.45,-36.39 327.7,-31.76"/>
</g>
<!-- &#45;5&#45;&gt;2 -->
<g id="edge29" class="edge">
<title>&#45;5&#45;&gt;2</title>
<path fill="none" stroke="red" stroke-width="0.11" d="M347.69,-68.58C344.87,-67.52 341.86,-66.49 339,-65.7 252.84,-41.68 224.97,-60.5 141,-29.7 140.13,-29.38 139.26,-29.03 138.38,-28.66"/>
<polygon fill="red" stroke="red" stroke-width="0.11" points="139.81,-25.45 129.31,-24.03 136.63,-31.69 139.81,-25.45"/>
</g>
<!-- &#45;5&#45;&gt;3 -->
<g id="edge30" class="edge">
<title>&#45;5&#45;&gt;3</title>
<path fill="none" stroke="red" stroke-width="0.18" d="M347.58,-68.91C344.77,-67.84 341.78,-66.72 339,-65.7 293.87,-49.14 280.67,-49.8 237,-29.7 236.16,-29.31 235.31,-28.9 234.45,-28.48"/>
<polygon fill="red" stroke="red" stroke-width="0.18" points="235.93,-25.3 225.47,-23.63 232.61,-31.46 235.93,-25.3"/>
</g>
<!-- &#45;5&#45;&gt;4 -->
<g id="edge31" class="edge">
<title>&#45;5&#45;&gt;4</title>
<path fill="none" stroke="red" stroke-width="0.24" stroke-dasharray="1,5" d="M359.58,-65.65C359.24,-59.05 358.74,-49.33 358.26,-40.23"/>
<polygon fill="red" stroke="red" stroke-width="0.24" points="361.75,-39.86 357.74,-30.06 354.76,-40.22 361.75,-39.86"/>
</g>
<!-- &#45;5&#45;&gt;5 -->
<g id="edge32" class="edge">
<title>&#45;5&#45;&gt;5</title>
<path fill="none" stroke="red" stroke-width="0.52" stroke-dasharray="1,5" d="M347.66,-68.69C344.83,-67.63 341.83,-66.57 339,-65.7 273.5,-45.45 252.68,-55.09 189,-29.7 188.14,-29.36 187.27,-28.99 186.41,-28.6"/>
<polygon fill="red" stroke="red" stroke-width="0.52" points="187.85,-25.4 177.36,-23.89 184.62,-31.61 187.85,-25.4"/>
</g>
<!-- &#45;5&#45;&gt;6 -->
<g id="edge33" class="edge">
<title>&#45;5&#45;&gt;6</title>
<path fill="none" stroke="red" stroke-width="1.67" d="M372.16,-66.14C387.41,-56.65 413.78,-40.24 432.25,-28.76"/>
<polygon fill="red" stroke="red" stroke-width="1.67" points="434.2,-31.67 440.84,-23.41 430.5,-25.72 434.2,-31.67"/>
</g>
<!-- &#45;5&#45;&gt;7 -->
<g id="edge34" class="edge">
<title>&#45;5&#45;&gt;7</title>
<path fill="none" stroke="green" stroke-width="0.42" stroke-dasharray="1,5" d="M366.26,-65.65C372.37,-57.8 381.91,-45.53 389.99,-35.14"/>
<polygon fill="green" stroke="green" stroke-width="0.42" points="392.95,-37.04 396.33,-26.99 387.43,-32.74 392.95,-37.04"/>
</g>
<!-- &#45;5&#45;&gt;8 -->
<g id="edge35" class="edge">
<title>&#45;5&#45;&gt;8</title>
<path fill="none" stroke="red" stroke-width="0.46" d="M347.86,-66.61C331.55,-57.07 302.29,-39.98 282.28,-28.28"/>
<polygon fill="red" stroke="red" stroke-width="0.46" points="283.95,-25.21 273.55,-23.18 280.42,-31.25 283.95,-25.21"/>
</g>
<!-- &#45;6 -->
<g id="node6" class="node">
<title>&#45;6</title>
<polygon fill="lightgray" stroke="black" points="456,-83.7 432,-83.7 432,-65.7 456,-65.7 456,-83.7"/>
<text text-anchor="middle" x="444" y="-72.5" font-family="Times New Roman,serif" font-size="9.00">&#45;6</text>
</g>
<!-- &#45;6&#45;&gt;0 -->
<g id="edge36" class="edge">
<title>&#45;6&#45;&gt;0</title>
<path fill="none" stroke="red" stroke-width="0.38" d="M431.73,-68.42C428.9,-67.38 425.88,-66.39 423,-65.7 279.56,-31.16 233.23,-75.55 93,-29.7 92.12,-29.41 91.24,-29.09 90.35,-28.74"/>
<polygon fill="red" stroke="red" stroke-width="0.38" points="91.76,-25.53 81.24,-24.21 88.64,-31.8 91.76,-25.53"/>
</g>
<!-- &#45;6&#45;&gt;1 -->
<g id="edge37" class="edge">
<title>&#45;6&#45;&gt;1</title>
<path fill="none" stroke="green" stroke-width="0.18" stroke-dasharray="1,5" d="M431.73,-68.95C404.83,-58.53 342.33,-34.21 333,-29.7 332.17,-29.3 331.32,-28.87 330.47,-28.44"/>
<polygon fill="green" stroke="green" stroke-width="0.18" points="331.97,-25.27 321.52,-23.53 328.61,-31.41 331.97,-25.27"/>
</g>
<!-- &#45;6&#45;&gt;3 -->
<g id="edge38" class="edge">
<title>&#45;6&#45;&gt;3</title>
<path fill="none" stroke="red" stroke-width="0.14" stroke-dasharray="1,5" d="M431.68,-68.6C428.86,-67.55 425.85,-66.51 423,-65.7 342.02,-42.62 315.88,-59.15 237,-29.7 236.13,-29.37 235.26,-29.02 234.39,-28.64"/>
<polygon fill="red" stroke="red" stroke-width="0.14" points="235.81,-25.44 225.32,-24 232.62,-31.67 235.81,-25.44"/>
</g>
<!-- &#45;6&#45;&gt;4 -->
<g id="edge39" class="edge">
<title>&#45;6&#45;&gt;4</title>
<path fill="none" stroke="green" stroke-width="0.17" d="M431.9,-65.65C417.88,-56.33 394.53,-40.8 377.62,-29.56"/>
<polygon fill="green" stroke="green" stroke-width="0.17" points="379.26,-26.45 368.99,-23.82 375.38,-32.28 379.26,-26.45"/>
</g>
<!-- &#45;6&#45;&gt;6 -->
<g id="edge40" class="edge">
<title>&#45;6&#45;&gt;6</title>
<path fill="none" stroke="green" stroke-width="0.27" d="M445.25,-65.65C446.3,-58.89 447.86,-48.86 449.31,-39.57"/>
<polygon fill="green" stroke="green" stroke-width="0.27" points="452.78,-40.02 450.86,-29.6 445.86,-38.95 452.78,-40.02"/>
</g>
<!-- &#45;6&#45;&gt;7 -->
<g id="edge41" class="edge">
<title>&#45;6&#45;&gt;7</title>
<path fill="none" stroke="red" stroke-width="0.42" d="M438.58,-65.65C433.46,-58.07 425.58,-46.37 418.74,-36.22"/>
<polygon fill="red" stroke="red" stroke-width="0.42" points="421.58,-34.18 413.09,-27.84 415.77,-38.09 421.58,-34.18"/>
</g>
<!-- &#45;6&#45;&gt;8 -->
<g id="edge42" class="edge">
<title>&#45;6&#45;&gt;8</title>
<path fill="none" stroke="green" stroke-width="0.32" d="M431.64,-68.73C428.82,-67.67 425.82,-66.6 423,-65.7 362.63,-46.39 343.64,-53.75 285,-29.7 284.14,-29.35 283.28,-28.97 282.42,-28.57"/>
<polygon fill="green" stroke="green" stroke-width="0.32" points="283.86,-25.38 273.38,-23.84 280.61,-31.58 283.86,-25.38"/>
</g>
<!-- &#45;7 -->
<g id="node7" class="node">
<title>&#45;7</title>
<polygon fill="lightgray" stroke="black" points="66,-83.7 42,-83.7 42,-65.7 66,-65.7 66,-83.7"/>
<text text-anchor="middle" x="54" y="-72.5" font-family="Times New Roman,serif" font-size="9.00">&#45;7</text>
</g>
<!-- &#45;7&#45;&gt;0 -->
<g id="edge43" class="edge">
<title>&#45;7&#45;&gt;0</title>
<path fill="none" stroke="red" stroke-width="0.17" stroke-dasharray="1,5" d="M56.09,-65.65C57.84,-58.89 60.44,-48.86 62.85,-39.57"/>
<polygon fill="red" stroke="red" stroke-width="0.17" points="66.31,-40.16 65.43,-29.6 59.54,-38.41 66.31,-40.16"/>
</g>
<!-- &#45;7&#45;&gt;2 -->
<g id="edge44" class="edge">
<title>&#45;7&#45;&gt;2</title>
<path fill="none" stroke="green" stroke-width="0.31" d="M62.76,-65.65C71.99,-57.18 86.8,-43.58 98.61,-32.73"/>
<polygon fill="green" stroke="green" stroke-width="0.31" points="101.21,-35.1 106.21,-25.76 96.47,-29.95 101.21,-35.1"/>
</g>
<!-- &#45;7&#45;&gt;4 -->
<g id="edge45" class="edge">
<title>&#45;7&#45;&gt;4</title>
<path fill="none" stroke="red" stroke-width="0.13" d="M66.29,-68.49C69.11,-67.44 72.13,-66.44 75,-65.7 187.14,-36.91 223.51,-67.33 333,-29.7 333.88,-29.4 334.76,-29.06 335.63,-28.7"/>
<polygon fill="red" stroke="red" stroke-width="0.13" points="337.36,-31.75 344.73,-24.14 334.22,-25.49 337.36,-31.75"/>
</g>
<!-- &#45;7&#45;&gt;5 -->
<g id="edge46" class="edge">
<title>&#45;7&#45;&gt;5</title>
<path fill="none" stroke="green" stroke-width="0.14" d="M66.21,-67.79C83.15,-59.53 114.65,-43.95 141,-29.7 141.81,-29.26 142.64,-28.81 143.48,-28.34"/>
<polygon fill="green" stroke="green" stroke-width="0.14" points="145.39,-31.28 152.37,-23.31 141.94,-25.19 145.39,-31.28"/>
</g>
<!-- &#45;7&#45;&gt;8 -->
<g id="edge47" class="edge">
<title>&#45;7&#45;&gt;8</title>
<path fill="none" stroke="green" stroke-width="0.35" d="M66.33,-68.66C69.16,-67.6 72.16,-66.55 75,-65.7 145.65,-44.51 168.26,-56.44 237,-29.7 237.86,-29.36 238.73,-29 239.6,-28.61"/>
<polygon fill="green" stroke="green" stroke-width="0.35" points="241.38,-31.63 248.66,-23.93 238.17,-25.42 241.38,-31.63"/>
</g>
<!-- &#45;8 -->
<g id="node8" class="node">
<title>&#45;8</title>
<polygon fill="lightgray" stroke="black" points="240,-83.7 216,-83.7 216,-65.7 240,-65.7 240,-83.7"/>
<text text-anchor="middle" x="228" y="-72.5" font-family="Times New Roman,serif" font-size="9.00">&#45;8</text>
</g>
<!-- &#45;8&#45;&gt;0 -->
<g id="edge48" class="edge">
<title>&#45;8&#45;&gt;0</title>
<path fill="none" stroke="green" stroke-width="0.19" d="M215.61,-68.84C212.79,-67.77 209.8,-66.67 207,-65.7 156.82,-48.23 141.63,-51.1 93,-29.7 92.15,-29.33 91.3,-28.93 90.44,-28.52"/>
<polygon fill="green" stroke="green" stroke-width="0.19" points="91.91,-25.33 81.44,-23.71 88.61,-31.51 91.91,-25.33"/>
</g>
<!-- &#45;8&#45;&gt;2 -->
<g id="edge49" class="edge">
<title>&#45;8&#45;&gt;2</title>
<path fill="none" stroke="red" stroke-width="0.29" d="M215.79,-67.79C198.85,-59.53 167.35,-43.95 141,-29.7 140.19,-29.26 139.36,-28.81 138.52,-28.34"/>
<polygon fill="red" stroke="red" stroke-width="0.29" points="140.06,-25.19 129.63,-23.31 136.61,-31.28 140.06,-25.19"/>
</g>
<!-- &#45;8&#45;&gt;3 -->
<g id="edge50" class="edge">
<title>&#45;8&#45;&gt;3</title>
<path fill="none" stroke="red" stroke-width="0.49" d="M225.91,-65.65C224.16,-58.89 221.56,-48.86 219.15,-39.57"/>
<polygon fill="red" stroke="red" stroke-width="0.49" points="222.46,-38.41 216.57,-29.6 215.69,-40.16 222.46,-38.41"/>
</g>
<!-- &#45;8&#45;&gt;4 -->
<g id="edge51" class="edge">
<title>&#45;8&#45;&gt;4</title>
<path fill="none" stroke="green" stroke-width="0.12" d="M240.19,-69.17C259.99,-61.68 300.24,-45.93 333,-29.7 333.83,-29.29 334.67,-28.86 335.52,-28.42"/>
<polygon fill="green" stroke="green" stroke-width="0.12" points="337.39,-31.38 344.46,-23.49 334.01,-25.25 337.39,-31.38"/>
</g>
<!-- &#45;8&#45;&gt;5 -->
<g id="edge52" class="edge">
<title>&#45;8&#45;&gt;5</title>
<path fill="none" stroke="green" stroke-width="0.34" stroke-dasharray="1,5" d="M219.24,-65.65C210.01,-57.18 195.2,-43.58 183.39,-32.73"/>
<polygon fill="green" stroke="green" stroke-width="0.34" points="185.53,-29.95 175.79,-25.76 180.79,-35.1 185.53,-29.95"/>
</g>
<!-- &#45;8&#45;&gt;6 -->
<g id="edge53" class="edge">
<title>&#45;8&#45;&gt;6</title>
<path fill="none" stroke="green" stroke-width="0.24" stroke-dasharray="1,5" d="M240.46,-68.8C243.55,-67.69 246.87,-66.58 250,-65.7 328.13,-43.77 353.08,-58.36 429,-29.7 429.87,-29.37 430.74,-29.02 431.61,-28.64"/>
<polygon fill="green" stroke="green" stroke-width="0.24" points="433.38,-31.66 440.68,-23.98 430.18,-25.44 433.38,-31.66"/>
</g>
<!-- &#45;8&#45;&gt;7 -->
<g id="edge54" class="edge">
<title>&#45;8&#45;&gt;7</title>
<path fill="none" stroke="green" stroke-width="0.36" stroke-dasharray="1,5" d="M240.04,-69.12C243.26,-67.95 246.75,-66.73 250,-65.7 307.53,-47.37 325.29,-52.98 381,-29.7 381.85,-29.34 382.72,-28.96 383.58,-28.56"/>
<polygon fill="green" stroke="green" stroke-width="0.36" points="385.39,-31.56 392.6,-23.81 382.13,-25.37 385.39,-31.56"/>
</g>
<!-- &#45;8&#45;&gt;8 -->
<g id="edge55" class="edge">
<title>&#45;8&#45;&gt;8</title>
<path fill="none" stroke="red" stroke-width="0.11" stroke-dasharray="1,5" d="M232.59,-65.65C236.78,-58.31 243.15,-47.13 248.81,-37.22"/>
<polygon fill="red" stroke="red" stroke-width="0.11" points="252,-38.7 253.91,-28.28 245.92,-35.23 252,-38.7"/>
</g>
<!-- &#45;9 -->
<g id="node9" class="node">
<title>&#45;9</title>
<polygon fill="lightgray" stroke="black" points="414,-83.7 390,-83.7 390,-65.7 414,-65.7 414,-83.7"/>
<text text-anchor="middle" x="402" y="-72.5" font-family="Times New Roman,serif" font-size="9.00">&#45;9</text>
</g>
<!-- &#45;9&#45;&gt;1 -->
<g id="edge56" class="edge">
<title>&#45;9&#45;&gt;1</title>
<path fill="none" stroke="green" stroke-width="0.25" d="M389.84,-66.14C374.59,-56.65 348.22,-40.24 329.75,-28.76"/>
<polygon fill="green" stroke="green" stroke-width="0.25" points="331.5,-25.72 321.16,-23.41 327.8,-31.67 331.5,-25.72"/>
</g>
<!-- &#45;9&#45;&gt;2 -->
<g id="edge57" class="edge">
<title>&#45;9&#45;&gt;2</title>
<path fill="none" stroke="green" stroke-width="0.17" d="M389.71,-68.51C386.88,-67.46 383.87,-66.45 381,-65.7 276.67,-38.34 242.82,-65.27 141,-29.7 140.13,-29.39 139.25,-29.06 138.37,-28.69"/>
<polygon fill="green" stroke="green" stroke-width="0.17" points="139.78,-25.48 129.28,-24.11 136.63,-31.74 139.78,-25.48"/>
</g>
<!-- &#45;9&#45;&gt;3 -->
<g id="edge58" class="edge">
<title>&#45;9&#45;&gt;3</title>
<path fill="none" stroke="red" stroke-width="0.22" stroke-dasharray="1,5" d="M389.65,-68.71C386.83,-67.65 383.83,-66.59 381,-65.7 318.06,-45.92 298.16,-54.42 237,-29.7 236.14,-29.35 235.28,-28.98 234.41,-28.58"/>
<polygon fill="red" stroke="red" stroke-width="0.22" points="235.86,-25.39 225.37,-23.86 232.61,-31.6 235.86,-25.39"/>
</g>
<!-- &#45;9&#45;&gt;4 -->
<g id="edge59" class="edge">
<title>&#45;9&#45;&gt;4</title>
<path fill="none" stroke="green" stroke-width="0.35" stroke-dasharray="1,5" d="M395.74,-65.65C389.63,-57.8 380.09,-45.53 372.01,-35.14"/>
<polygon fill="green" stroke="green" stroke-width="0.35" points="374.57,-32.74 365.67,-26.99 369.05,-37.04 374.57,-32.74"/>
</g>
<!-- &#45;9&#45;&gt;5 -->
<g id="edge60" class="edge">
<title>&#45;9&#45;&gt;5</title>
<path fill="none" stroke="green" stroke-width="0.12" stroke-dasharray="1,5" d="M389.69,-68.59C386.86,-67.53 383.85,-66.5 381,-65.7 297.43,-42.15 270.43,-59.82 189,-29.7 188.13,-29.38 187.26,-29.03 186.38,-28.65"/>
<polygon fill="green" stroke="green" stroke-width="0.12" points="187.81,-25.45 177.31,-24.02 184.63,-31.68 187.81,-25.45"/>
</g>
<!-- &#45;9&#45;&gt;6 -->
<g id="edge61" class="edge">
<title>&#45;9&#45;&gt;6</title>
<path fill="none" stroke="green" stroke-width="0.13" d="M409.09,-65.65C416.25,-57.54 427.54,-44.73 436.88,-34.13"/>
<polygon fill="green" stroke="green" stroke-width="0.13" points="439.55,-36.39 443.54,-26.58 434.3,-31.76 439.55,-36.39"/>
</g>
<!-- &#45;9&#45;&gt;7 -->
<g id="edge84" class="edge">
<title>&#45;9&#45;&gt;7</title>
<path fill="none" stroke="red" stroke-width="0.31" d="M402.42,-65.65C402.76,-59.05 403.26,-49.33 403.74,-40.23"/>
<polygon fill="red" stroke="red" stroke-width="0.31" points="407.24,-40.22 404.26,-30.06 400.25,-39.86 407.24,-40.22"/>
</g>
<!-- &#45;9&#45;&gt;8 -->
<g id="edge62" class="edge">
<title>&#45;9&#45;&gt;8</title>
<path fill="none" stroke="red" stroke-width="1.08" d="M389.57,-68.95C386.75,-67.88 383.77,-66.75 381,-65.7 338.38,-49.59 326.21,-49.15 285,-29.7 284.16,-29.3 283.32,-28.89 282.46,-28.46"/>
<polygon fill="red" stroke="red" stroke-width="1.08" points="283.95,-25.29 273.5,-23.58 280.61,-31.43 283.95,-25.29"/>
</g>
<!-- &#45;10 -->
<g id="node10" class="node">
<title>&#45;10</title>
<polygon fill="lightgray" stroke="black" points="287.5,-83.7 258.5,-83.7 258.5,-65.7 287.5,-65.7 287.5,-83.7"/>
<text text-anchor="middle" x="273" y="-72.5" font-family="Times New Roman,serif" font-size="9.00">&#45;10</text>
</g>
<!-- &#45;10&#45;&gt;1 -->
<g id="edge63" class="edge">
<title>&#45;10&#45;&gt;1</title>
<path fill="none" stroke="green" stroke-width="0.56" stroke-dasharray="1,5" d="M278.01,-65.65C282.68,-58.14 289.86,-46.61 296.13,-36.53"/>
<polygon fill="green" stroke="green" stroke-width="0.56" points="299.22,-38.18 301.54,-27.84 293.28,-34.49 299.22,-38.18"/>
</g>
<!-- &#45;10&#45;&gt;2 -->
<g id="edge64" class="edge">
<title>&#45;10&#45;&gt;2</title>
<path fill="none" stroke="green" stroke-width="0.25" d="M258.41,-68.84C224.15,-57.43 141.35,-29.86 141,-29.7 140.16,-29.32 139.3,-28.92 138.45,-28.5"/>
<polygon fill="green" stroke="green" stroke-width="0.25" points="139.92,-25.32 129.45,-23.67 136.61,-31.49 139.92,-25.32"/>
</g>
<!-- &#45;10&#45;&gt;4 -->
<g id="edge65" class="edge">
<title>&#45;10&#45;&gt;4</title>
<path fill="none" stroke="red" stroke-width="0.49" d="M284.68,-65.65C298.14,-56.38 320.51,-40.98 336.81,-29.75"/>
<polygon fill="red" stroke="red" stroke-width="0.49" points="338.9,-32.57 345.15,-24.01 334.93,-26.8 338.9,-32.57"/>
</g>
<!-- &#45;10&#45;&gt;5 -->
<g id="edge66" class="edge">
<title>&#45;10&#45;&gt;5</title>
<path fill="none" stroke="green" stroke-width="0.15" stroke-dasharray="1,5" d="M258.34,-66.25C241.5,-57.64 213.09,-42.95 189,-29.7 188.19,-29.25 187.36,-28.79 186.53,-28.33"/>
<polygon fill="green" stroke="green" stroke-width="0.15" points="188.07,-25.18 177.65,-23.28 184.61,-31.26 188.07,-25.18"/>
</g>
<!-- &#45;10&#45;&gt;6 -->
<g id="edge67" class="edge">
<title>&#45;10&#45;&gt;6</title>
<path fill="none" stroke="green" stroke-width="0.56" d="M287.68,-68.66C290.75,-67.65 293.97,-66.61 297,-65.7 355.2,-48.08 372.87,-53.09 429,-29.7 429.85,-29.34 430.72,-28.96 431.58,-28.56"/>
<polygon fill="green" stroke="green" stroke-width="0.56" points="433.39,-31.57 440.61,-23.81 430.13,-25.37 433.39,-31.57"/>
</g>
<!-- &#45;10&#45;&gt;8 -->
<g id="edge68" class="edge">
<title>&#45;10&#45;&gt;8</title>
<path fill="none" stroke="red" stroke-width="0.37" stroke-dasharray="1,5" d="M271.33,-65.65C269.93,-58.89 267.85,-48.86 265.92,-39.57"/>
<polygon fill="red" stroke="red" stroke-width="0.37" points="269.31,-38.69 263.85,-29.6 262.46,-40.11 269.31,-38.69"/>
</g>
<!-- &#45;11 -->
<g id="node11" class="node">
<title>&#45;11</title>
<polygon fill="lightgray" stroke="black" points="503.5,-83.7 474.5,-83.7 474.5,-65.7 503.5,-65.7 503.5,-83.7"/>
<text text-anchor="middle" x="489" y="-72.5" font-family="Times New Roman,serif" font-size="9.00">&#45;11</text>
</g>
<!-- &#45;11&#45;&gt;1 -->
<g id="edge69" class="edge">
<title>&#45;11&#45;&gt;1</title>
<path fill="none" stroke="red" stroke-width="0.27" d="M474.32,-68.66C471.25,-67.65 468.03,-66.61 465,-65.7 406.8,-48.08 389.13,-53.09 333,-29.7 332.15,-29.34 331.28,-28.96 330.42,-28.56"/>
<polygon fill="red" stroke="red" stroke-width="0.27" points="331.87,-25.37 321.39,-23.81 328.61,-31.57 331.87,-25.37"/>
</g>
<!-- &#45;11&#45;&gt;3 -->
<g id="edge70" class="edge">
<title>&#45;11&#45;&gt;3</title>
<path fill="none" stroke="red" stroke-width="0.26" d="M474.39,-68.4C471.31,-67.41 468.07,-66.45 465,-65.7 365.33,-41.39 333.72,-63.91 237,-29.7 236.13,-29.39 235.25,-29.05 234.37,-28.68"/>
<polygon fill="red" stroke="red" stroke-width="0.26" points="235.79,-25.48 225.29,-24.09 232.63,-31.72 235.79,-25.48"/>
</g>
<!-- &#45;11&#45;&gt;4 -->
<g id="edge71" class="edge">
<title>&#45;11&#45;&gt;4</title>
<path fill="none" stroke="green" stroke-width="0.2" d="M474.4,-68.47C453.38,-60.79 413.55,-45.63 381,-29.7 380.17,-29.29 379.33,-28.87 378.48,-28.43"/>
<polygon fill="green" stroke="green" stroke-width="0.2" points="379.98,-25.26 369.53,-23.51 376.61,-31.39 379.98,-25.26"/>
</g>
<!-- &#45;11&#45;&gt;5 -->
<g id="edge72" class="edge">
<title>&#45;11&#45;&gt;5</title>
<path fill="none" stroke="green" stroke-width="0.45" d="M474.4,-68.34C471.33,-67.35 468.08,-66.41 465,-65.7 344.43,-38.01 306.17,-69.38 189,-29.7 188.12,-29.4 187.24,-29.07 186.36,-28.71"/>
<polygon fill="green" stroke="green" stroke-width="0.45" points="187.77,-25.5 177.26,-24.16 184.64,-31.76 187.77,-25.5"/>
</g>
<!-- &#45;11&#45;&gt;6 -->
<g id="edge73" class="edge">
<title>&#45;11&#45;&gt;6</title>
<path fill="none" stroke="green" stroke-width="0.29" d="M483.99,-65.65C479.32,-58.14 472.14,-46.61 465.87,-36.53"/>
<polygon fill="green" stroke="green" stroke-width="0.29" points="468.72,-34.49 460.46,-27.84 462.78,-38.18 468.72,-34.49"/>
</g>
<!-- &#45;11&#45;&gt;7 -->
<g id="edge74" class="edge">
<title>&#45;11&#45;&gt;7</title>
<path fill="none" stroke="green" stroke-width="0.93" d="M477.32,-65.65C463.86,-56.38 441.49,-40.98 425.19,-29.75"/>
<polygon fill="green" stroke="green" stroke-width="0.93" points="427.07,-26.8 416.85,-24.01 423.1,-32.57 427.07,-26.8"/>
</g>
<!-- &#45;11&#45;&gt;8 -->
<g id="edge82" class="edge">
<title>&#45;11&#45;&gt;8</title>
<path fill="none" stroke="red" stroke-width="0.37" d="M474.36,-68.5C471.29,-67.5 468.06,-66.51 465,-65.7 386.15,-44.76 361.34,-58.47 285,-29.7 284.13,-29.37 283.26,-29.02 282.39,-28.64"/>
<polygon fill="red" stroke="red" stroke-width="0.37" points="283.82,-25.44 273.32,-23.99 280.62,-31.66 283.82,-25.44"/>
</g>
<!-- &#45;12 -->
<g id="node12" class="node">
<title>&#45;12</title>
<polygon fill="lightgray" stroke="black" points="197.5,-83.7 168.5,-83.7 168.5,-65.7 197.5,-65.7 197.5,-83.7"/>
<text text-anchor="middle" x="183" y="-72.5" font-family="Times New Roman,serif" font-size="9.00">&#45;12</text>
</g>
<!-- &#45;12&#45;&gt;0 -->
<g id="edge75" class="edge">
<title>&#45;12&#45;&gt;0</title>
<path fill="none" stroke="green" stroke-width="0.33" d="M168.19,-66.84C150.22,-58.43 119.1,-43.59 93,-29.7 92.18,-29.26 91.35,-28.82 90.52,-28.36"/>
<polygon fill="green" stroke="green" stroke-width="0.33" points="92.04,-25.2 81.61,-23.34 88.61,-31.3 92.04,-25.2"/>
</g>
<!-- &#45;12&#45;&gt;1 -->
<g id="edge76" class="edge">
<title>&#45;12&#45;&gt;1</title>
<path fill="none" stroke="green" stroke-width="0.21" d="M197.77,-67.96C217.83,-60.01 254.67,-44.93 285,-29.7 285.83,-29.28 286.67,-28.85 287.51,-28.41"/>
<polygon fill="green" stroke="green" stroke-width="0.21" points="289.39,-31.37 296.45,-23.46 286,-25.24 289.39,-31.37"/>
</g>
<!-- &#45;12&#45;&gt;2 -->
<g id="edge77" class="edge">
<title>&#45;12&#45;&gt;2</title>
<path fill="none" stroke="red" stroke-width="0.25" d="M173.82,-65.65C163.94,-57 147.97,-42.99 135.47,-32.03"/>
<polygon fill="red" stroke="red" stroke-width="0.25" points="137.68,-29.32 127.85,-25.36 133.07,-34.58 137.68,-29.32"/>
</g>
<!-- &#45;12&#45;&gt;3 -->
<g id="edge78" class="edge">
<title>&#45;12&#45;&gt;3</title>
<path fill="none" stroke="red" stroke-width="0.47" d="M187.17,-65.65C190.98,-58.31 196.78,-47.13 201.92,-37.22"/>
<polygon fill="red" stroke="red" stroke-width="0.47" points="205.06,-38.77 206.56,-28.28 198.84,-35.54 205.06,-38.77"/>
</g>
<!-- &#45;12&#45;&gt;4 -->
<g id="edge79" class="edge">
<title>&#45;12&#45;&gt;4</title>
<path fill="none" stroke="green" stroke-width="0.36" stroke-dasharray="1,5" d="M197.69,-68.69C200.76,-67.67 203.98,-66.63 207,-65.7 262.64,-48.49 279.38,-52.42 333,-29.7 333.85,-29.34 334.71,-28.95 335.57,-28.55"/>
<polygon fill="green" stroke="green" stroke-width="0.36" points="337.39,-31.55 344.59,-23.78 334.12,-25.36 337.39,-31.55"/>
</g>
<!-- &#45;12&#45;&gt;6 -->
<g id="edge80" class="edge">
<title>&#45;12&#45;&gt;6</title>
<path fill="none" stroke="green" stroke-width="0.48" stroke-dasharray="1,5" d="M197.61,-68.41C200.69,-67.42 203.93,-66.45 207,-65.7 304.06,-41.82 334.84,-63.23 429,-29.7 429.87,-29.39 430.75,-29.05 431.63,-28.68"/>
<polygon fill="green" stroke="green" stroke-width="0.48" points="433.37,-31.72 440.71,-24.08 430.21,-25.47 433.37,-31.72"/>
</g>
<!-- &#45;12&#45;&gt;8 -->
<g id="edge81" class="edge">
<title>&#45;12&#45;&gt;8</title>
<path fill="none" stroke="red" stroke-width="0.2" stroke-dasharray="1,5" d="M193.85,-65.65C206.09,-56.57 226.27,-41.61 241.32,-30.45"/>
<polygon fill="red" stroke="red" stroke-width="0.2" points="243.54,-33.16 249.49,-24.39 239.37,-27.53 243.54,-33.16"/>
</g>
</g>
</svg>
