<?xml version="1.0" encoding="UTF-8" standalone="no"?>
<!DOCTYPE svg PUBLIC "-//W3C//DTD SVG 1.1//EN"
 "http://www.w3.org/Graphics/SVG/1.1/DTD/svg11.dtd">
<!-- Generated by graphviz version 3.0.0 (20220226.1711)
 -->
<!-- Pages: 1 -->
<svg width="3238pt" height="164pt"
 viewBox="0.00 0.00 3237.88 164.47" xmlns="http://www.w3.org/2000/svg" xmlns:xlink="http://www.w3.org/1999/xlink">
<g id="graph0" class="graph" transform="scale(1 1) rotate(0) translate(4 160.47)">
<polygon fill="white" stroke="transparent" points="-4,4 -4,-160.47 3233.88,-160.47 3233.88,4 -4,4"/>
<!-- &#45;1 -->
<g id="node1" class="node">
<title>&#45;1</title>
<polygon fill="lightgray" stroke="black" points="1827.26,-156.47 1803.26,-156.47 1803.26,-138.47 1827.26,-138.47 1827.26,-156.47"/>
<text text-anchor="middle" x="1815.26" y="-145.27" font-family="Times New Roman,serif" font-size="9.00">&#45;1</text>
</g>
<!-- 0 -->
<g id="node13" class="node">
<title>0</title>
<ellipse fill="lightblue" stroke="black" cx="1336.26" cy="-14.85" rx="14.7" ry="14.7"/>
<text text-anchor="middle" x="1336.26" y="-12.65" font-family="Times New Roman,serif" font-size="9.00">0</text>
</g>
<!-- &#45;1&#45;&gt;0 -->
<g id="edge21" class="edge">
<title>&#45;1&#45;&gt;0</title>
<path fill="none" stroke="green" stroke-width="0.4" d="M1817.79,-138.24C1822.25,-121.93 1829.34,-85.36 1810.26,-65.7 1779.96,-34.47 1463.42,-35.24 1420.26,-29.7 1400.18,-27.12 1377.54,-23.33 1360.82,-20.37"/>
<polygon fill="green" stroke="green" stroke-width="0.4" points="1361.24,-16.89 1350.78,-18.57 1360.01,-23.78 1361.24,-16.89"/>
</g>
<!-- 1 -->
<g id="node14" class="node">
<title>1</title>
<ellipse fill="lightblue" stroke="black" cx="972.26" cy="-14.85" rx="14.7" ry="14.7"/>
<text text-anchor="middle" x="972.26" y="-12.65" font-family="Times New Roman,serif" font-size="9.00">1</text>
</g>
<!-- &#45;1&#45;&gt;1 -->
<g id="edge22" class="edge">
<title>&#45;1&#45;&gt;1</title>
<path fill="none" stroke="green" stroke-width="0.38" d="M1803.23,-141.5C1786.7,-134.34 1756.49,-120.02 1734.26,-102.47 1717.03,-88.86 1721.08,-75.16 1701.26,-65.7 1561.51,1.04 1156.25,-64.18 1005.26,-29.7 1001.7,-28.89 998.04,-27.72 994.5,-26.4"/>
<polygon fill="green" stroke="green" stroke-width="0.38" points="995.66,-23.09 985.08,-22.45 992.95,-29.54 995.66,-23.09"/>
</g>
<!-- 2 -->
<g id="node15" class="node">
<title>2</title>
<ellipse fill="lightblue" stroke="black" cx="1967.26" cy="-14.85" rx="14.7" ry="14.7"/>
<text text-anchor="middle" x="1967.26" y="-12.65" font-family="Times New Roman,serif" font-size="9.00">2</text>
</g>
<!-- &#45;1&#45;&gt;2 -->
<g id="edge23" class="edge">
<title>&#45;1&#45;&gt;2</title>
<path fill="none" stroke="red" stroke-width="0.16" d="M1827.39,-146.22C1872.21,-145.02 2027.37,-138.29 2057.26,-102.47 2067.73,-89.92 2065.56,-79.78 2057.26,-65.7 2043.16,-41.76 2012.97,-28.51 1991.44,-21.8"/>
<polygon fill="red" stroke="red" stroke-width="0.16" points="1992.26,-18.39 1981.68,-19.01 1990.34,-25.12 1992.26,-18.39"/>
</g>
<!-- 3 -->
<g id="node16" class="node">
<title>3</title>
<ellipse fill="lightblue" stroke="black" cx="1677.26" cy="-84.08" rx="14.7" ry="14.7"/>
<text text-anchor="middle" x="1677.26" y="-81.88" font-family="Times New Roman,serif" font-size="9.00">3</text>
</g>
<!-- &#45;1&#45;&gt;3 -->
<g id="edge24" class="edge">
<title>&#45;1&#45;&gt;3</title>
<path fill="none" stroke="red" stroke-width="0.25" d="M1803.22,-142.31C1782.84,-135.11 1740.42,-119.47 1706.26,-102.47 1703.6,-101.14 1700.86,-99.66 1698.17,-98.14"/>
<polygon fill="red" stroke="red" stroke-width="0.25" points="1699.83,-95.05 1689.44,-92.96 1696.26,-101.08 1699.83,-95.05"/>
</g>
<!-- 4 -->
<g id="node17" class="node">
<title>4</title>
<ellipse fill="lightblue" stroke="black" cx="2632.26" cy="-14.85" rx="14.7" ry="14.7"/>
<text text-anchor="middle" x="2632.26" y="-12.65" font-family="Times New Roman,serif" font-size="9.00">4</text>
</g>
<!-- &#45;1&#45;&gt;4 -->
<g id="edge25" class="edge">
<title>&#45;1&#45;&gt;4</title>
<path fill="none" stroke="red" stroke-width="0.33" d="M1827.44,-144.52C1917.62,-130.1 2481.38,-39.97 2607.33,-19.84"/>
<polygon fill="red" stroke="red" stroke-width="0.33" points="2608.19,-23.24 2617.51,-18.21 2607.08,-16.33 2608.19,-23.24"/>
</g>
<!-- 5 -->
<g id="node18" class="node">
<title>5</title>
<ellipse fill="lightblue" stroke="black" cx="1086.26" cy="-14.85" rx="14.7" ry="14.7"/>
<text text-anchor="middle" x="1086.26" y="-12.65" font-family="Times New Roman,serif" font-size="9.00">5</text>
</g>
<!-- &#45;1&#45;&gt;5 -->
<g id="edge26" class="edge">
<title>&#45;1&#45;&gt;5</title>
<path fill="none" stroke="red" stroke-width="0.59" d="M1813.64,-138.3C1809.81,-121.4 1798.49,-82.77 1772.26,-65.7 1758.11,-56.49 1233.43,-24.64 1111.43,-17.35"/>
<polygon fill="red" stroke="red" stroke-width="0.59" points="1111.4,-13.84 1101.21,-16.74 1110.98,-20.82 1111.4,-13.84"/>
</g>
<!-- 6 -->
<g id="node19" class="node">
<title>6</title>
<ellipse fill="lightblue" stroke="black" cx="1029.26" cy="-14.85" rx="14.7" ry="14.7"/>
<text text-anchor="middle" x="1029.26" y="-12.65" font-family="Times New Roman,serif" font-size="9.00">6</text>
</g>
<!-- &#45;1&#45;&gt;6 -->
<g id="edge27" class="edge">
<title>&#45;1&#45;&gt;6</title>
<path fill="none" stroke="red" stroke-width="0.11" d="M1807.17,-138.25C1787.13,-117.9 1736.59,-66.73 1734.26,-65.7 1597.63,-4.89 1208.02,-63.13 1062.26,-29.7 1058.7,-28.88 1055.04,-27.71 1051.5,-26.39"/>
<polygon fill="red" stroke="red" stroke-width="0.11" points="1052.66,-23.08 1042.08,-22.44 1049.96,-29.54 1052.66,-23.08"/>
</g>
<!-- 7 -->
<g id="node20" class="node">
<title>7</title>
<ellipse fill="lightblue" stroke="black" cx="1786.26" cy="-14.85" rx="14.7" ry="14.7"/>
<text text-anchor="middle" x="1786.26" y="-12.65" font-family="Times New Roman,serif" font-size="9.00">7</text>
</g>
<!-- &#45;1&#45;&gt;7 -->
<g id="edge28" class="edge">
<title>&#45;1&#45;&gt;7</title>
<path fill="none" stroke="red" stroke-width="0.39" d="M1827.59,-146.34C1882.16,-145.35 2096.81,-136.97 2038.26,-65.7 2009.67,-30.9 1869.32,-19.98 1811.37,-16.92"/>
<polygon fill="red" stroke="red" stroke-width="0.39" points="1811.4,-13.42 1801.24,-16.43 1811.06,-20.41 1811.4,-13.42"/>
</g>
<!-- 8 -->
<g id="node21" class="node">
<title>8</title>
<ellipse fill="lightblue" stroke="black" cx="1444.26" cy="-14.85" rx="14.7" ry="14.7"/>
<text text-anchor="middle" x="1444.26" y="-12.65" font-family="Times New Roman,serif" font-size="9.00">8</text>
</g>
<!-- &#45;1&#45;&gt;8 -->
<g id="edge29" class="edge">
<title>&#45;1&#45;&gt;8</title>
<path fill="none" stroke="green" stroke-width="0.12" d="M1823.56,-138.42C1838.74,-122.75 1867.73,-87.71 1848.26,-65.7 1823.04,-37.17 1553.87,-21.34 1469.44,-17.05"/>
<polygon fill="green" stroke="green" stroke-width="0.12" points="1469.6,-13.56 1459.44,-16.56 1469.25,-20.55 1469.6,-13.56"/>
</g>
<!-- 11 -->
<g id="node22" class="node">
<title>11</title>
<ellipse fill="white" stroke="black" cx="1398.26" cy="-84.08" rx="18.27" ry="18.27"/>
<text text-anchor="middle" x="1398.26" y="-81.88" font-family="Times New Roman,serif" font-size="9.00">11</text>
</g>
<!-- &#45;1&#45;&gt;11 -->
<g id="edge1" class="edge">
<title>&#45;1&#45;&gt;11</title>
<path fill="none" stroke="red" stroke-width="0.7" stroke-dasharray="1,5" d="M1803.23,-144.7C1746.94,-136.41 1508.85,-101.36 1426.46,-89.23"/>
<polygon fill="red" stroke="red" stroke-width="0.7" points="1426.95,-85.77 1416.55,-87.78 1425.93,-92.69 1426.95,-85.77"/>
</g>
<!-- &#45;2 -->
<g id="node2" class="node">
<title>&#45;2</title>
<polygon fill="lightgray" stroke="black" points="566.26,-156.47 542.26,-156.47 542.26,-138.47 566.26,-138.47 566.26,-156.47"/>
<text text-anchor="middle" x="554.26" y="-145.27" font-family="Times New Roman,serif" font-size="9.00">&#45;2</text>
</g>
<!-- &#45;2&#45;&gt;0 -->
<g id="edge30" class="edge">
<title>&#45;2&#45;&gt;0</title>
<path fill="none" stroke="red" stroke-width="0.31" d="M548.87,-138.09C539.15,-121.83 521.36,-85.82 540.26,-65.7 541.11,-64.8 1176.37,-25.68 1311.27,-17.39"/>
<polygon fill="red" stroke="red" stroke-width="0.31" points="1311.67,-20.87 1321.44,-16.76 1311.24,-13.88 1311.67,-20.87"/>
</g>
<!-- &#45;2&#45;&gt;1 -->
<g id="edge31" class="edge">
<title>&#45;2&#45;&gt;1</title>
<path fill="none" stroke="red" stroke-width="0.17" stroke-dasharray="1,5" d="M542.24,-145.79C485.43,-142.45 245.73,-126.98 224.26,-102.47 213.5,-90.17 213.1,-77.63 224.26,-65.7 274.65,-11.84 822.18,-14.28 947.02,-15.54"/>
<polygon fill="red" stroke="red" stroke-width="0.17" points="947.11,-19.04 957.15,-15.65 947.18,-12.04 947.11,-19.04"/>
</g>
<!-- &#45;2&#45;&gt;2 -->
<g id="edge32" class="edge">
<title>&#45;2&#45;&gt;2</title>
<path fill="none" stroke="red" stroke-width="0.19" d="M566.51,-143.69C619.26,-131.86 832.46,-85.36 1010.26,-65.7 1364.02,-26.58 1455.13,-53.34 1810.26,-29.7 1856.95,-26.59 1911.31,-21.46 1942.27,-18.39"/>
<polygon fill="red" stroke="red" stroke-width="0.19" points="1942.96,-21.84 1952.56,-17.36 1942.26,-14.87 1942.96,-21.84"/>
</g>
<!-- &#45;2&#45;&gt;3 -->
<g id="edge33" class="edge">
<title>&#45;2&#45;&gt;3</title>
<path fill="none" stroke="green" stroke-width="0.36" d="M566.55,-145.93C644.17,-142.53 1074.62,-123.42 1425.26,-102.47 1508.57,-97.49 1607.28,-90.31 1652.45,-86.95"/>
<polygon fill="green" stroke="green" stroke-width="0.36" points="1652.79,-90.43 1662.5,-86.2 1652.26,-83.45 1652.79,-90.43"/>
</g>
<!-- &#45;2&#45;&gt;5 -->
<g id="edge34" class="edge">
<title>&#45;2&#45;&gt;5</title>
<path fill="none" stroke="red" stroke-width="0.81" d="M542.25,-144.67C522,-140.93 481.58,-130.21 464.26,-102.47 455.61,-88.61 453.06,-77.6 464.26,-65.7 509.19,-17.94 989.41,-44.59 1053.26,-29.7 1056.82,-28.87 1060.48,-27.69 1064.01,-26.37"/>
<polygon fill="red" stroke="red" stroke-width="0.81" points="1065.56,-29.51 1073.43,-22.42 1062.86,-23.06 1065.56,-29.51"/>
</g>
<!-- &#45;2&#45;&gt;6 -->
<g id="edge35" class="edge">
<title>&#45;2&#45;&gt;6</title>
<path fill="none" stroke="green" stroke-width="0.45" d="M542.1,-145.9C482.32,-143 221.62,-128.89 198.26,-102.47 187.44,-90.22 186.97,-77.51 198.26,-65.7 259.59,-1.54 909.67,-49.17 996.26,-29.7 999.82,-28.9 1003.49,-27.73 1007.03,-26.42"/>
<polygon fill="green" stroke="green" stroke-width="0.45" points="1008.57,-29.56 1016.44,-22.47 1005.87,-23.11 1008.57,-29.56"/>
</g>
<!-- &#45;2&#45;&gt;7 -->
<g id="edge36" class="edge">
<title>&#45;2&#45;&gt;7</title>
<path fill="none" stroke="red" stroke-width="0.1" stroke-dasharray="1,5" d="M559.26,-138.3C570.97,-119.46 600.42,-73.93 616.26,-65.7 700.34,-22.01 1373.6,-33.76 1468.26,-29.7 1577.28,-25.02 1707.31,-19.32 1761.08,-16.96"/>
<polygon fill="red" stroke="red" stroke-width="0.1" points="1761.52,-20.44 1771.36,-16.51 1761.22,-13.45 1761.52,-20.44"/>
</g>
<!-- &#45;2&#45;&gt;8 -->
<g id="edge37" class="edge">
<title>&#45;2&#45;&gt;8</title>
<path fill="none" stroke="red" stroke-width="0.22" stroke-dasharray="1,5" d="M553.88,-138.41C553.59,-121.71 555.57,-83.46 578.26,-65.7 646.76,-12.1 1273.76,-38.79 1360.26,-29.7 1380.4,-27.58 1403.04,-23.77 1419.73,-20.67"/>
<polygon fill="red" stroke="red" stroke-width="0.22" points="1420.59,-24.07 1429.76,-18.77 1419.29,-17.2 1420.59,-24.07"/>
</g>
<!-- &#45;2&#45;&gt;11 -->
<g id="edge2" class="edge">
<title>&#45;2&#45;&gt;11</title>
<path fill="none" stroke="red" stroke-width="0.2" d="M566.52,-145.58C658,-138.92 1234.38,-97 1369.8,-87.15"/>
<polygon fill="red" stroke="red" stroke-width="0.2" points="1370.09,-90.64 1379.81,-86.42 1369.59,-83.66 1370.09,-90.64"/>
</g>
<!-- &#45;3 -->
<g id="node3" class="node">
<title>&#45;3</title>
<polygon fill="lightgray" stroke="black" points="2226.26,-156.47 2202.26,-156.47 2202.26,-138.47 2226.26,-138.47 2226.26,-156.47"/>
<text text-anchor="middle" x="2214.26" y="-145.27" font-family="Times New Roman,serif" font-size="9.00">&#45;3</text>
</g>
<!-- &#45;3&#45;&gt;1 -->
<g id="edge38" class="edge">
<title>&#45;3&#45;&gt;1</title>
<path fill="none" stroke="red" stroke-width="0.29" d="M2201.98,-145.27C2158.6,-140.93 2008.57,-125.12 1886.26,-102.47 1816.64,-89.57 1801.36,-75.66 1731.26,-65.7 1411.41,-20.22 1320.29,-101.29 1005.26,-29.7 1001.7,-28.89 998.03,-27.72 994.5,-26.4"/>
<polygon fill="red" stroke="red" stroke-width="0.29" points="995.66,-23.09 985.08,-22.46 992.95,-29.55 995.66,-23.09"/>
</g>
<!-- &#45;3&#45;&gt;2 -->
<g id="edge39" class="edge">
<title>&#45;3&#45;&gt;2</title>
<path fill="none" stroke="red" stroke-width="0.63" d="M2226.42,-145.9C2286.2,-143 2546.91,-128.89 2570.26,-102.47 2581.08,-90.22 2581.33,-77.72 2570.26,-65.7 2530.54,-22.55 2101.21,-16.75 1992.28,-15.97"/>
<polygon fill="red" stroke="red" stroke-width="0.63" points="1992.24,-12.47 1982.21,-15.91 1992.19,-19.47 1992.24,-12.47"/>
</g>
<!-- &#45;3&#45;&gt;3 -->
<g id="edge40" class="edge">
<title>&#45;3&#45;&gt;3</title>
<path fill="none" stroke="green" stroke-width="0.33" d="M2202.04,-145.07C2133.48,-137.23 1796.52,-98.72 1701.97,-87.91"/>
<polygon fill="green" stroke="green" stroke-width="0.33" points="1702.24,-84.42 1691.91,-86.76 1701.45,-91.37 1702.24,-84.42"/>
</g>
<!-- &#45;3&#45;&gt;4 -->
<g id="edge41" class="edge">
<title>&#45;3&#45;&gt;4</title>
<path fill="none" stroke="red" stroke-width="0.18" d="M2226.7,-146.17C2294.48,-144.43 2617.33,-134.5 2646.26,-102.47 2662.25,-84.77 2653.45,-56.33 2644.2,-36.9"/>
<polygon fill="red" stroke="red" stroke-width="0.18" points="2647.27,-35.21 2639.59,-27.92 2641.04,-38.41 2647.27,-35.21"/>
</g>
<!-- &#45;3&#45;&gt;5 -->
<g id="edge42" class="edge">
<title>&#45;3&#45;&gt;5</title>
<path fill="none" stroke="green" stroke-width="0.21" stroke-dasharray="1,5" d="M2202.22,-141.39C2166.45,-126.56 2057.36,-83.27 1962.26,-65.7 1677.75,-13.12 1601.1,-46.55 1312.26,-29.7 1239.13,-25.43 1152.72,-20.04 1111.11,-17.42"/>
<polygon fill="green" stroke="green" stroke-width="0.21" points="1111.27,-13.92 1101.07,-16.79 1110.83,-20.91 1111.27,-13.92"/>
</g>
<!-- &#45;3&#45;&gt;6 -->
<g id="edge43" class="edge">
<title>&#45;3&#45;&gt;6</title>
<path fill="none" stroke="green" stroke-width="0.2" d="M2202.02,-143.07C2155.18,-130.25 1982.64,-84.52 1837.26,-65.7 1495.3,-21.43 1398.62,-105.58 1062.26,-29.7 1058.7,-28.89 1055.03,-27.73 1051.5,-26.41"/>
<polygon fill="green" stroke="green" stroke-width="0.2" points="1052.66,-23.1 1042.08,-22.47 1049.95,-29.56 1052.66,-23.1"/>
</g>
<!-- &#45;3&#45;&gt;7 -->
<g id="edge44" class="edge">
<title>&#45;3&#45;&gt;7</title>
<path fill="none" stroke="red" stroke-width="0.53" d="M2226.57,-145.12C2261.7,-140.99 2361.17,-127.28 2380.26,-102.47 2390.23,-89.52 2391.33,-77.72 2380.26,-65.7 2347.26,-29.86 1991.8,-33.84 1943.26,-29.7 1896.64,-25.72 1842.25,-20.88 1811.27,-18.1"/>
<polygon fill="red" stroke="red" stroke-width="0.53" points="1811.25,-14.58 1800.98,-17.18 1810.62,-21.56 1811.25,-14.58"/>
</g>
<!-- &#45;3&#45;&gt;8 -->
<g id="edge45" class="edge">
<title>&#45;3&#45;&gt;8</title>
<path fill="none" stroke="red" stroke-width="0.27" stroke-dasharray="1,5" d="M2202.01,-142.47C2161.21,-129.31 2026.08,-87 1911.26,-65.7 1744.23,-34.71 1539.74,-21.14 1469.41,-17.17"/>
<polygon fill="red" stroke="red" stroke-width="0.27" points="1469.48,-13.67 1459.3,-16.61 1469.09,-20.65 1469.48,-13.67"/>
</g>
<!-- &#45;3&#45;&gt;11 -->
<g id="edge3" class="edge">
<title>&#45;3&#45;&gt;11</title>
<path fill="none" stroke="green" stroke-width="0.18" d="M2202.09,-145.55C2112.91,-138.84 1559.91,-97.24 1426.97,-87.24"/>
<polygon fill="green" stroke="green" stroke-width="0.18" points="1427.01,-83.74 1416.78,-86.48 1426.49,-90.72 1427.01,-83.74"/>
</g>
<!-- &#45;4 -->
<g id="node4" class="node">
<title>&#45;4</title>
<polygon fill="lightgray" stroke="black" points="319.26,-156.47 295.26,-156.47 295.26,-138.47 319.26,-138.47 319.26,-156.47"/>
<text text-anchor="middle" x="307.26" y="-145.27" font-family="Times New Roman,serif" font-size="9.00">&#45;4</text>
</g>
<!-- &#45;4&#45;&gt;0 -->
<g id="edge46" class="edge">
<title>&#45;4&#45;&gt;0</title>
<path fill="none" stroke="green" stroke-width="0.24" d="M304.72,-138.42C300.13,-122.09 292.63,-85.01 312.26,-65.7 343.9,-34.58 1065.95,-32.06 1110.26,-29.7 1183.41,-25.81 1269.82,-20.24 1311.42,-17.5"/>
<polygon fill="green" stroke="green" stroke-width="0.24" points="1311.71,-20.99 1321.46,-16.84 1311.25,-14.01 1311.71,-20.99"/>
</g>
<!-- &#45;4&#45;&gt;1 -->
<g id="edge47" class="edge">
<title>&#45;4&#45;&gt;1</title>
<path fill="none" stroke="green" stroke-width="0.11" d="M295.2,-146.67C244.11,-147.27 46.41,-146.65 8.26,-102.47 -2.42,-90.1 -2.99,-77.55 8.26,-65.7 41.55,-30.65 797.97,-18.28 946.93,-16.19"/>
<polygon fill="green" stroke="green" stroke-width="0.11" points="947.36,-19.68 957.31,-16.04 947.26,-12.68 947.36,-19.68"/>
</g>
<!-- &#45;4&#45;&gt;2 -->
<g id="edge48" class="edge">
<title>&#45;4&#45;&gt;2</title>
<path fill="none" stroke="red" stroke-width="0.54" d="M319.31,-143.73C372.13,-131.84 588.66,-84.52 769.26,-65.7 1229.71,-17.72 1348.19,-58.05 1810.26,-29.7 1856.96,-26.83 1911.33,-21.62 1942.28,-18.47"/>
<polygon fill="red" stroke="red" stroke-width="0.54" points="1942.97,-21.91 1952.56,-17.41 1942.26,-14.95 1942.97,-21.91"/>
</g>
<!-- &#45;4&#45;&gt;3 -->
<g id="edge49" class="edge">
<title>&#45;4&#45;&gt;3</title>
<path fill="none" stroke="green" stroke-width="0.56" d="M319.31,-146.04C424.88,-142.31 1194.2,-114.98 1425.26,-102.47 1508.6,-97.95 1607.29,-90.54 1652.46,-87.04"/>
<polygon fill="green" stroke="green" stroke-width="0.56" points="1652.8,-90.52 1662.5,-86.25 1652.26,-83.54 1652.8,-90.52"/>
</g>
<!-- &#45;4&#45;&gt;5 -->
<g id="edge50" class="edge">
<title>&#45;4&#45;&gt;5</title>
<path fill="none" stroke="red" stroke-width="0.18" d="M317.87,-138.37C340.96,-121.26 398.18,-81.69 453.26,-65.7 709.81,8.8 793.07,-90.25 1053.26,-29.7 1056.82,-28.87 1060.48,-27.69 1064.02,-26.37"/>
<polygon fill="red" stroke="red" stroke-width="0.18" points="1065.56,-29.52 1073.43,-22.42 1062.86,-23.06 1065.56,-29.52"/>
</g>
<!-- &#45;4&#45;&gt;6 -->
<g id="edge51" class="edge">
<title>&#45;4&#45;&gt;6</title>
<path fill="none" stroke="green" stroke-width="0.33" d="M295.05,-146.13C239.99,-144.21 20.2,-132.34 84.26,-65.7 119.4,-29.14 946.76,-40.68 996.26,-29.7 999.83,-28.91 1003.49,-27.75 1007.03,-26.43"/>
<polygon fill="green" stroke="green" stroke-width="0.33" points="1008.58,-29.58 1016.45,-22.49 1005.87,-23.12 1008.58,-29.58"/>
</g>
<!-- &#45;4&#45;&gt;8 -->
<g id="edge52" class="edge">
<title>&#45;4&#45;&gt;8</title>
<path fill="none" stroke="red" stroke-width="0.38" d="M308.83,-138.22C312.57,-121.17 323.72,-82.29 350.26,-65.7 397.87,-35.94 1304.39,-35.28 1360.26,-29.7 1380.41,-27.69 1403.05,-23.86 1419.74,-20.74"/>
<polygon fill="red" stroke="red" stroke-width="0.38" points="1420.61,-24.14 1429.77,-18.82 1419.29,-17.26 1420.61,-24.14"/>
</g>
<!-- &#45;4&#45;&gt;11 -->
<g id="edge4" class="edge">
<title>&#45;4&#45;&gt;11</title>
<path fill="none" stroke="red" stroke-width="1.15" d="M319.51,-145.78C427.07,-139.73 1210.24,-95.66 1369.89,-86.68"/>
<polygon fill="red" stroke="red" stroke-width="1.15" points="1370.11,-90.17 1379.9,-86.12 1369.72,-83.18 1370.11,-90.17"/>
</g>
<!-- &#45;5 -->
<g id="node5" class="node">
<title>&#45;5</title>
<polygon fill="lightgray" stroke="black" points="1136.26,-156.47 1112.26,-156.47 1112.26,-138.47 1136.26,-138.47 1136.26,-156.47"/>
<text text-anchor="middle" x="1124.26" y="-145.27" font-family="Times New Roman,serif" font-size="9.00">&#45;5</text>
</g>
<!-- &#45;5&#45;&gt;0 -->
<g id="edge53" class="edge">
<title>&#45;5&#45;&gt;0</title>
<path fill="none" stroke="green" stroke-width="0.14" d="M1119.15,-138.34C1109.92,-122.51 1092.97,-87.22 1110.26,-65.7 1135.28,-34.56 1257.73,-21.72 1311.2,-17.54"/>
<polygon fill="green" stroke="green" stroke-width="0.14" points="1311.51,-21.03 1321.22,-16.8 1310.99,-14.05 1311.51,-21.03"/>
</g>
<!-- &#45;5&#45;&gt;1 -->
<g id="edge54" class="edge">
<title>&#45;5&#45;&gt;1</title>
<path fill="none" stroke="green" stroke-width="0.22" d="M1111.93,-146.21C1043.27,-144.65 710.1,-135.41 680.26,-102.47 603.65,-17.89 863.72,-14.36 947.27,-15.33"/>
<polygon fill="green" stroke="green" stroke-width="0.22" points="947.35,-18.83 957.41,-15.48 947.46,-11.83 947.35,-18.83"/>
</g>
<!-- &#45;5&#45;&gt;3 -->
<g id="edge55" class="edge">
<title>&#45;5&#45;&gt;3</title>
<path fill="none" stroke="green" stroke-width="0.15" d="M1136.33,-145.13C1205.91,-137.41 1556.2,-98.52 1652.65,-87.82"/>
<polygon fill="green" stroke="green" stroke-width="0.15" points="1653.08,-91.29 1662.63,-86.71 1652.31,-84.33 1653.08,-91.29"/>
</g>
<!-- &#45;5&#45;&gt;4 -->
<g id="edge56" class="edge">
<title>&#45;5&#45;&gt;4</title>
<path fill="none" stroke="red" stroke-width="0.45" d="M1136.29,-141.2C1171.54,-126.07 1278.01,-82.45 1371.26,-65.7 1496.95,-43.12 2439.58,-20.32 2606.9,-16.43"/>
<polygon fill="red" stroke="red" stroke-width="0.45" points="2607.28,-19.92 2617.19,-16.19 2607.11,-12.92 2607.28,-19.92"/>
</g>
<!-- &#45;5&#45;&gt;5 -->
<g id="edge57" class="edge">
<title>&#45;5&#45;&gt;5</title>
<path fill="none" stroke="green" stroke-width="0.1" d="M1112.13,-146.22C1067.31,-145.02 912.15,-138.29 882.26,-102.47 871.79,-89.92 871.96,-78.39 882.26,-65.7 931.2,-5.39 979.12,-52.83 1053.26,-29.7 1056.69,-28.63 1060.25,-27.34 1063.7,-25.98"/>
<polygon fill="green" stroke="green" stroke-width="0.1" points="1065.11,-29.18 1072.99,-22.1 1062.41,-22.73 1065.11,-29.18"/>
</g>
<!-- &#45;5&#45;&gt;6 -->
<g id="edge58" class="edge">
<title>&#45;5&#45;&gt;6</title>
<path fill="none" stroke="green" stroke-width="0.6" d="M1111.82,-146.17C1044.04,-144.43 721.19,-134.5 692.26,-102.47 681.31,-90.34 681.41,-77.91 692.26,-65.7 737.45,-14.85 930.48,-47.03 996.26,-29.7 999.73,-28.78 1003.31,-27.58 1006.78,-26.26"/>
<polygon fill="green" stroke="green" stroke-width="0.6" points="1008.19,-29.46 1016.07,-22.38 1005.49,-23 1008.19,-29.46"/>
</g>
<!-- &#45;5&#45;&gt;7 -->
<g id="edge59" class="edge">
<title>&#45;5&#45;&gt;7</title>
<path fill="none" stroke="green" stroke-width="0.16" stroke-dasharray="1,5" d="M1131.03,-138.46C1145.88,-121.52 1183.29,-82.25 1224.26,-65.7 1274.59,-45.37 1659.15,-22.87 1761.37,-17.2"/>
<polygon fill="green" stroke="green" stroke-width="0.16" points="1761.6,-20.69 1771.39,-16.65 1761.21,-13.7 1761.6,-20.69"/>
</g>
<!-- &#45;5&#45;&gt;8 -->
<g id="edge60" class="edge">
<title>&#45;5&#45;&gt;8</title>
<path fill="none" stroke="red" stroke-width="0.13" d="M1124.06,-138.37C1124.13,-121.95 1126.79,-84.7 1148.26,-65.7 1149.54,-64.56 1348.38,-31.67 1419.4,-19.95"/>
<polygon fill="red" stroke="red" stroke-width="0.13" points="1420.36,-23.34 1429.66,-18.26 1419.22,-16.43 1420.36,-23.34"/>
</g>
<!-- &#45;5&#45;&gt;11 -->
<g id="edge5" class="edge">
<title>&#45;5&#45;&gt;11</title>
<path fill="none" stroke="green" stroke-width="0.39" d="M1136.39,-143.75C1177.44,-134.56 1311.85,-104.44 1370.49,-91.31"/>
<polygon fill="green" stroke="green" stroke-width="0.39" points="1371.52,-94.66 1380.52,-89.06 1369.99,-87.83 1371.52,-94.66"/>
</g>
<!-- &#45;6 -->
<g id="node6" class="node">
<title>&#45;6</title>
<polygon fill="lightgray" stroke="black" points="2454.26,-156.47 2430.26,-156.47 2430.26,-138.47 2454.26,-138.47 2454.26,-156.47"/>
<text text-anchor="middle" x="2442.26" y="-145.27" font-family="Times New Roman,serif" font-size="9.00">&#45;6</text>
</g>
<!-- &#45;6&#45;&gt;0 -->
<g id="edge61" class="edge">
<title>&#45;6&#45;&gt;0</title>
<path fill="none" stroke="red" stroke-width="0.32" d="M2430.13,-140.31C2398.13,-124.43 2308.39,-82.17 2228.26,-65.7 1876.15,6.67 1777.79,-67 1420.26,-29.7 1400.12,-27.6 1377.48,-23.78 1360.79,-20.68"/>
<polygon fill="red" stroke="red" stroke-width="0.32" points="1361.24,-17.21 1350.76,-18.78 1359.93,-24.08 1361.24,-17.21"/>
</g>
<!-- &#45;6&#45;&gt;1 -->
<g id="edge62" class="edge">
<title>&#45;6&#45;&gt;1</title>
<path fill="none" stroke="red" stroke-width="0.44" d="M2430.07,-144.48C2366.68,-134.25 2068.28,-87.1 1822.26,-65.7 1641.21,-49.95 1182.59,-69.48 1005.26,-29.7 1001.7,-28.9 998.03,-27.74 994.5,-26.42"/>
<polygon fill="red" stroke="red" stroke-width="0.44" points="995.65,-23.11 985.08,-22.47 992.95,-29.57 995.65,-23.11"/>
</g>
<!-- &#45;6&#45;&gt;2 -->
<g id="edge63" class="edge">
<title>&#45;6&#45;&gt;2</title>
<path fill="none" stroke="red" stroke-width="0.22" stroke-dasharray="1,5" d="M2454.43,-146.05C2518.01,-143.77 2810.1,-131.71 2836.26,-102.47 2847.16,-90.29 2847.48,-77.58 2836.26,-65.7 2806.49,-34.17 2131.5,-19.11 1992.25,-16.33"/>
<polygon fill="red" stroke="red" stroke-width="0.22" points="1992.21,-12.83 1982.14,-16.13 1992.07,-19.82 1992.21,-12.83"/>
</g>
<!-- &#45;6&#45;&gt;3 -->
<g id="edge64" class="edge">
<title>&#45;6&#45;&gt;3</title>
<path fill="none" stroke="green" stroke-width="0.47" d="M2430.24,-145.5C2344.35,-138.61 1823.51,-96.82 1702.41,-87.1"/>
<polygon fill="green" stroke="green" stroke-width="0.47" points="1702.51,-83.6 1692.26,-86.29 1701.95,-90.58 1702.51,-83.6"/>
</g>
<!-- &#45;6&#45;&gt;4 -->
<g id="edge65" class="edge">
<title>&#45;6&#45;&gt;4</title>
<path fill="none" stroke="green" stroke-width="0.38" d="M2454.38,-146.28C2524.9,-145.09 2880.46,-137.38 2912.26,-102.47 2985.8,-21.72 2739.2,-15.49 2657.59,-15.58"/>
<polygon fill="green" stroke="green" stroke-width="0.38" points="2657.41,-12.08 2647.43,-15.62 2657.45,-19.08 2657.41,-12.08"/>
</g>
<!-- &#45;6&#45;&gt;6 -->
<g id="edge66" class="edge">
<title>&#45;6&#45;&gt;6</title>
<path fill="none" stroke="green" stroke-width="0.56" d="M2430.14,-145.2C2396.61,-141.43 2300.09,-128.92 2224.26,-102.47 2190.34,-90.63 2187.05,-74.68 2152.26,-65.7 1917.6,-5.13 1299.03,-81.45 1062.26,-29.7 1058.69,-28.92 1055.02,-27.77 1051.49,-26.45"/>
<polygon fill="green" stroke="green" stroke-width="0.56" points="1052.65,-23.15 1042.07,-22.51 1049.94,-29.6 1052.65,-23.15"/>
</g>
<!-- &#45;6&#45;&gt;7 -->
<g id="edge67" class="edge">
<title>&#45;6&#45;&gt;7</title>
<path fill="none" stroke="red" stroke-width="0.32" d="M2440.43,-138.3C2436.17,-121.4 2423.87,-82.78 2397.26,-65.7 2312.1,-11.02 2044.11,-38.15 1943.26,-29.7 1896.63,-25.79 1842.25,-20.93 1811.27,-18.12"/>
<polygon fill="red" stroke="red" stroke-width="0.32" points="1811.25,-14.61 1800.98,-17.19 1810.62,-21.58 1811.25,-14.61"/>
</g>
<!-- &#45;6&#45;&gt;8 -->
<g id="edge68" class="edge">
<title>&#45;6&#45;&gt;8</title>
<path fill="none" stroke="red" stroke-width="0.27" d="M2447.68,-138.07C2457.44,-121.77 2475.3,-85.7 2456.26,-65.7 2451.87,-61.08 1624.77,-23.91 1469.29,-16.97"/>
<polygon fill="red" stroke="red" stroke-width="0.27" points="1469.43,-13.47 1459.28,-16.52 1469.12,-20.46 1469.43,-13.47"/>
</g>
<!-- &#45;6&#45;&gt;11 -->
<g id="edge6" class="edge">
<title>&#45;6&#45;&gt;11</title>
<path fill="none" stroke="red" stroke-width="0.52" d="M2430.21,-145.85C2357.46,-142.12 1969.57,-122.07 1653.26,-102.47 1570.88,-97.36 1473.59,-90.5 1426.55,-87.13"/>
<polygon fill="red" stroke="red" stroke-width="0.52" points="1426.72,-83.63 1416.5,-86.4 1426.22,-90.61 1426.72,-83.63"/>
</g>
<!-- &#45;7 -->
<g id="node7" class="node">
<title>&#45;7</title>
<polygon fill="lightgray" stroke="black" points="832.26,-156.47 808.26,-156.47 808.26,-138.47 832.26,-138.47 832.26,-156.47"/>
<text text-anchor="middle" x="820.26" y="-145.27" font-family="Times New Roman,serif" font-size="9.00">&#45;7</text>
</g>
<!-- &#45;7&#45;&gt;0 -->
<g id="edge69" class="edge">
<title>&#45;7&#45;&gt;0</title>
<path fill="none" stroke="green" stroke-width="0.47" d="M814.92,-138.14C805.3,-121.97 787.68,-86.11 806.26,-65.7 823.52,-46.74 1209.12,-23.19 1311.49,-17.26"/>
<polygon fill="green" stroke="green" stroke-width="0.47" points="1311.74,-20.75 1321.52,-16.68 1311.34,-13.76 1311.74,-20.75"/>
</g>
<!-- &#45;7&#45;&gt;1 -->
<g id="edge70" class="edge">
<title>&#45;7&#45;&gt;1</title>
<path fill="none" stroke="green" stroke-width="0.56" d="M808.25,-146.02C726.67,-142.94 256.46,-124.25 236.26,-102.47 225.15,-90.49 225.1,-77.64 236.26,-65.7 285.76,-12.73 823.49,-14.46 947.05,-15.57"/>
<polygon fill="green" stroke="green" stroke-width="0.56" points="947.35,-19.07 957.39,-15.67 947.42,-12.07 947.35,-19.07"/>
</g>
<!-- &#45;7&#45;&gt;2 -->
<g id="edge71" class="edge">
<title>&#45;7&#45;&gt;2</title>
<path fill="none" stroke="red" stroke-width="0.37" d="M832.39,-143.41C881.16,-131.26 1067.86,-86.04 1224.26,-65.7 1483.02,-32.04 1550.05,-49.16 1810.26,-29.7 1856.92,-26.21 1911.3,-21.2 1942.26,-18.26"/>
<polygon fill="red" stroke="red" stroke-width="0.37" points="1942.93,-21.71 1952.55,-17.28 1942.27,-14.75 1942.93,-21.71"/>
</g>
<!-- &#45;7&#45;&gt;3 -->
<g id="edge72" class="edge">
<title>&#45;7&#45;&gt;3</title>
<path fill="none" stroke="red" stroke-width="0.43" d="M832.38,-145.6C925.09,-138.96 1522.1,-96.2 1652.24,-86.88"/>
<polygon fill="red" stroke="red" stroke-width="0.43" points="1652.68,-90.35 1662.4,-86.15 1652.18,-83.37 1652.68,-90.35"/>
</g>
<!-- &#45;7&#45;&gt;5 -->
<g id="edge73" class="edge">
<title>&#45;7&#45;&gt;5</title>
<path fill="none" stroke="red" stroke-width="0.16" d="M808.25,-144.67C788,-140.93 747.58,-130.21 730.26,-102.47 721.61,-88.61 719.36,-77.88 730.26,-65.7 778.42,-11.88 983.36,-47.86 1053.26,-29.7 1056.8,-28.78 1060.45,-27.55 1063.98,-26.21"/>
<polygon fill="red" stroke="red" stroke-width="0.16" points="1065.52,-29.35 1073.39,-22.26 1062.82,-22.9 1065.52,-29.35"/>
</g>
<!-- &#45;7&#45;&gt;6 -->
<g id="edge74" class="edge">
<title>&#45;7&#45;&gt;6</title>
<path fill="none" stroke="green" stroke-width="0.32" stroke-dasharray="1,5" d="M807.85,-146.96C779.59,-147.33 710.56,-143.75 680.26,-102.47 670.59,-89.29 669.38,-77.89 680.26,-65.7 727.32,-12.97 927.88,-47.55 996.26,-29.7 999.73,-28.79 1003.32,-27.59 1006.79,-26.27"/>
<polygon fill="green" stroke="green" stroke-width="0.32" points="1008.19,-29.48 1016.07,-22.4 1005.5,-23.02 1008.19,-29.48"/>
</g>
<!-- &#45;7&#45;&gt;7 -->
<g id="edge75" class="edge">
<title>&#45;7&#45;&gt;7</title>
<path fill="none" stroke="red" stroke-width="0.14" d="M826.99,-138.36C841.76,-121.23 879.04,-81.61 920.26,-65.7 940.42,-57.92 1620.62,-24.01 1761.05,-17.09"/>
<polygon fill="red" stroke="red" stroke-width="0.14" points="1761.44,-20.57 1771.25,-16.59 1761.09,-13.58 1761.44,-20.57"/>
</g>
<!-- &#45;7&#45;&gt;8 -->
<g id="edge76" class="edge">
<title>&#45;7&#45;&gt;8</title>
<path fill="none" stroke="red" stroke-width="0.13" d="M819.92,-138.45C819.69,-121.84 821.78,-83.72 844.26,-65.7 889.1,-29.75 1303.18,-36.38 1360.26,-29.7 1380.37,-27.34 1403.01,-23.54 1419.72,-20.52"/>
<polygon fill="red" stroke="red" stroke-width="0.13" points="1420.55,-23.92 1429.75,-18.67 1419.28,-17.04 1420.55,-23.92"/>
</g>
<!-- &#45;7&#45;&gt;11 -->
<g id="edge7" class="edge">
<title>&#45;7&#45;&gt;11</title>
<path fill="none" stroke="red" stroke-width="0.74" d="M832.33,-145.19C903.18,-137.66 1265.42,-99.19 1369.97,-88.09"/>
<polygon fill="red" stroke="red" stroke-width="0.74" points="1370.51,-91.55 1380.08,-87.01 1369.77,-84.59 1370.51,-91.55"/>
</g>
<!-- &#45;8 -->
<g id="node8" class="node">
<title>&#45;8</title>
<polygon fill="lightgray" stroke="black" points="1345.26,-156.47 1321.26,-156.47 1321.26,-138.47 1345.26,-138.47 1345.26,-156.47"/>
<text text-anchor="middle" x="1333.26" y="-145.27" font-family="Times New Roman,serif" font-size="9.00">&#45;8</text>
</g>
<!-- &#45;8&#45;&gt;0 -->
<g id="edge77" class="edge">
<title>&#45;8&#45;&gt;0</title>
<path fill="none" stroke="red" stroke-width="0.29" d="M1321,-142.98C1304.24,-137.48 1274.82,-125.02 1262.26,-102.47 1254.31,-88.19 1254.58,-80.13 1262.26,-65.7 1272.84,-45.81 1295.29,-32.43 1312.7,-24.58"/>
<polygon fill="red" stroke="red" stroke-width="0.29" points="1314.37,-27.68 1322.24,-20.59 1311.67,-21.22 1314.37,-27.68"/>
</g>
<!-- &#45;8&#45;&gt;1 -->
<g id="edge78" class="edge">
<title>&#45;8&#45;&gt;1</title>
<path fill="none" stroke="green" stroke-width="0.43" stroke-dasharray="1,5" d="M1321.06,-145.79C1262.25,-142.4 1009.87,-126.51 985.26,-102.47 968.93,-86.51 967.28,-59.46 968.72,-39.83"/>
<polygon fill="green" stroke="green" stroke-width="0.43" points="972.21,-40.11 969.75,-29.8 965.24,-39.39 972.21,-40.11"/>
</g>
<!-- &#45;8&#45;&gt;2 -->
<g id="edge79" class="edge">
<title>&#45;8&#45;&gt;2</title>
<path fill="none" stroke="green" stroke-width="0.27" d="M1345.49,-140.75C1381.59,-123.95 1487.52,-75.32 1524.26,-65.7 1564.83,-55.08 1854.22,-26.71 1942.05,-18.26"/>
<polygon fill="green" stroke="green" stroke-width="0.27" points="1942.56,-21.73 1952.18,-17.29 1941.89,-14.76 1942.56,-21.73"/>
</g>
<!-- &#45;8&#45;&gt;3 -->
<g id="edge80" class="edge">
<title>&#45;8&#45;&gt;3</title>
<path fill="none" stroke="green" stroke-width="0.23" stroke-dasharray="1,5" d="M1345.49,-144.95C1384.39,-140.04 1508.73,-123.65 1610.26,-102.47 1624.69,-99.46 1640.67,-95.34 1653.41,-91.87"/>
<polygon fill="green" stroke="green" stroke-width="0.23" points="1654.54,-95.19 1663.24,-89.14 1652.67,-88.44 1654.54,-95.19"/>
</g>
<!-- &#45;8&#45;&gt;4 -->
<g id="edge81" class="edge">
<title>&#45;8&#45;&gt;4</title>
<path fill="none" stroke="red" stroke-width="0.68" d="M1345.35,-143.3C1372.09,-136.27 1438.27,-118.67 1493.26,-102.47 1545.55,-87.07 1556.6,-75.28 1610.26,-65.7 1810.34,-29.99 2469.24,-18.29 2606.91,-16.21"/>
<polygon fill="red" stroke="red" stroke-width="0.68" points="2607.31,-19.7 2617.26,-16.06 2607.21,-12.7 2607.31,-19.7"/>
</g>
<!-- &#45;8&#45;&gt;5 -->
<g id="edge82" class="edge">
<title>&#45;8&#45;&gt;5</title>
<path fill="none" stroke="green" stroke-width="0.33" stroke-dasharray="1,5" d="M1321.16,-146.39C1274.2,-145.82 1104.9,-141.07 1072.26,-102.47 1057.02,-84.44 1065.36,-56.49 1074.32,-37.24"/>
<polygon fill="green" stroke="green" stroke-width="0.33" points="1077.57,-38.58 1078.94,-28.07 1071.32,-35.43 1077.57,-38.58"/>
</g>
<!-- &#45;8&#45;&gt;6 -->
<g id="edge83" class="edge">
<title>&#45;8&#45;&gt;6</title>
<path fill="none" stroke="red" stroke-width="0.57" d="M1320.98,-145.81C1262.97,-142.56 1018.21,-127.46 996.26,-102.47 978.87,-82.66 997.24,-52.75 1012.73,-33.77"/>
<polygon fill="red" stroke="red" stroke-width="0.57" points="1015.43,-35.99 1019.29,-26.12 1010.12,-31.43 1015.43,-35.99"/>
</g>
<!-- &#45;8&#45;&gt;7 -->
<g id="edge84" class="edge">
<title>&#45;8&#45;&gt;7</title>
<path fill="none" stroke="red" stroke-width="0.14" stroke-dasharray="1,5" d="M1334.44,-138.42C1337.35,-121.77 1346.51,-83.57 1371.26,-65.7 1434.06,-20.36 1680.67,-15.97 1760.89,-15.77"/>
<polygon fill="red" stroke="red" stroke-width="0.14" points="1761.07,-19.27 1771.07,-15.76 1761.07,-12.27 1761.07,-19.27"/>
</g>
<!-- &#45;8&#45;&gt;8 -->
<g id="edge85" class="edge">
<title>&#45;8&#45;&gt;8</title>
<path fill="none" stroke="green" stroke-width="0.68" d="M1331.2,-138.03C1327.87,-122.29 1323.11,-88.01 1338.26,-65.7 1356.85,-38.32 1394.65,-25.6 1419.71,-19.97"/>
<polygon fill="green" stroke="green" stroke-width="0.68" points="1420.48,-23.39 1429.59,-17.97 1419.09,-16.53 1420.48,-23.39"/>
</g>
<!-- &#45;8&#45;&gt;11 -->
<g id="edge8" class="edge">
<title>&#45;8&#45;&gt;11</title>
<path fill="none" stroke="green" stroke-width="0.54" stroke-dasharray="1,5" d="M1341.76,-138.44C1350.79,-129.91 1365.41,-116.1 1377.52,-104.67"/>
<polygon fill="green" stroke="green" stroke-width="0.54" points="1380.16,-106.99 1385.03,-97.58 1375.36,-101.9 1380.16,-106.99"/>
</g>
<!-- &#45;9 -->
<g id="node9" class="node">
<title>&#45;9</title>
<polygon fill="lightgray" stroke="black" points="1433.26,-156.47 1409.26,-156.47 1409.26,-138.47 1433.26,-138.47 1433.26,-156.47"/>
<text text-anchor="middle" x="1421.26" y="-145.27" font-family="Times New Roman,serif" font-size="9.00">&#45;9</text>
</g>
<!-- &#45;9&#45;&gt;0 -->
<g id="edge86" class="edge">
<title>&#45;9&#45;&gt;0</title>
<path fill="none" stroke="red" stroke-width="0.32" d="M1409.11,-138.31C1397.98,-130.3 1381.69,-117.18 1371.26,-102.47 1357.54,-83.11 1348.07,-57.59 1342.48,-39.27"/>
<polygon fill="red" stroke="red" stroke-width="0.32" points="1345.77,-38.06 1339.63,-29.42 1339.04,-40 1345.77,-38.06"/>
</g>
<!-- &#45;9&#45;&gt;1 -->
<g id="edge87" class="edge">
<title>&#45;9&#45;&gt;1</title>
<path fill="none" stroke="red" stroke-width="0.48" d="M1409.18,-144.93C1357.15,-138.27 1153.57,-111.83 1126.26,-102.47 1074.68,-84.79 1020.48,-49.9 992.17,-30.22"/>
<polygon fill="red" stroke="red" stroke-width="0.48" points="994.11,-27.31 983.92,-24.41 990.08,-33.03 994.11,-27.31"/>
</g>
<!-- &#45;9&#45;&gt;2 -->
<g id="edge88" class="edge">
<title>&#45;9&#45;&gt;2</title>
<path fill="none" stroke="green" stroke-width="0.33" d="M1433.45,-141.32C1473.7,-124.34 1600.92,-70.93 1620.26,-65.7 1738.13,-33.82 1884.37,-21.29 1942.12,-17.36"/>
<polygon fill="green" stroke="green" stroke-width="0.33" points="1942.71,-20.83 1952.46,-16.69 1942.25,-13.85 1942.71,-20.83"/>
</g>
<!-- &#45;9&#45;&gt;3 -->
<g id="edge89" class="edge">
<title>&#45;9&#45;&gt;3</title>
<path fill="none" stroke="red" stroke-width="0.37" d="M1433.48,-145.6C1468.19,-142.81 1569.91,-132.47 1648.26,-102.47 1651.09,-101.39 1653.95,-100.03 1656.72,-98.57"/>
<polygon fill="red" stroke="red" stroke-width="0.37" points="1658.76,-101.43 1665.61,-93.34 1655.21,-95.39 1658.76,-101.43"/>
</g>
<!-- &#45;9&#45;&gt;4 -->
<g id="edge90" class="edge">
<title>&#45;9&#45;&gt;4</title>
<path fill="none" stroke="green" stroke-width="0.12" d="M1433.44,-145.64C1464.51,-143.1 1548.63,-133.63 1610.26,-102.47 1632.7,-91.12 1629.9,-75.01 1653.26,-65.7 1744.27,-29.44 2463.54,-18.08 2607.3,-16.16"/>
<polygon fill="green" stroke="green" stroke-width="0.12" points="2607.39,-19.66 2617.35,-16.03 2607.3,-12.66 2607.39,-19.66"/>
</g>
<!-- &#45;9&#45;&gt;5 -->
<g id="edge91" class="edge">
<title>&#45;9&#45;&gt;5</title>
<path fill="none" stroke="green" stroke-width="0.4" d="M1408.94,-141.66C1359.42,-122.35 1174.38,-50.21 1109.18,-24.78"/>
<polygon fill="green" stroke="green" stroke-width="0.4" points="1110.37,-21.49 1099.78,-21.12 1107.83,-28.01 1110.37,-21.49"/>
</g>
<!-- &#45;9&#45;&gt;6 -->
<g id="edge92" class="edge">
<title>&#45;9&#45;&gt;6</title>
<path fill="none" stroke="red" stroke-width="0.26" d="M1409.25,-144.74C1377.69,-140.02 1290.1,-125.66 1220.26,-102.47 1156.78,-81.38 1086.04,-45.95 1051.16,-27.62"/>
<polygon fill="red" stroke="red" stroke-width="0.26" points="1052.78,-24.52 1042.3,-22.93 1049.5,-30.71 1052.78,-24.52"/>
</g>
<!-- &#45;9&#45;&gt;7 -->
<g id="edge93" class="edge">
<title>&#45;9&#45;&gt;7</title>
<path fill="none" stroke="red" stroke-width="0.39" d="M1430.74,-138.39C1450.47,-122.01 1497.99,-84.83 1544.26,-65.7 1619.7,-34.5 1716.72,-22.14 1761.54,-17.85"/>
<polygon fill="red" stroke="red" stroke-width="0.39" points="1761.87,-21.33 1771.52,-16.95 1761.24,-14.36 1761.87,-21.33"/>
</g>
<!-- &#45;9&#45;&gt;8 -->
<g id="edge94" class="edge">
<title>&#45;9&#45;&gt;8</title>
<path fill="none" stroke="red" stroke-width="0.24" d="M1422.7,-138.3C1426.12,-118.9 1434.82,-69.46 1440.07,-39.68"/>
<polygon fill="red" stroke="red" stroke-width="0.24" points="1443.54,-40.14 1441.83,-29.68 1436.64,-38.92 1443.54,-40.14"/>
</g>
<!-- &#45;9&#45;&gt;11 -->
<g id="edge9" class="edge">
<title>&#45;9&#45;&gt;11</title>
<path fill="none" stroke="green" stroke-width="0.33" d="M1418.25,-138.44C1415.64,-131.47 1411.71,-120.98 1408.02,-111.13"/>
<polygon fill="green" stroke="green" stroke-width="0.33" points="1411.26,-109.8 1404.47,-101.66 1404.7,-112.25 1411.26,-109.8"/>
</g>
<!-- &#45;10 -->
<g id="node10" class="node">
<title>&#45;10</title>
<polygon fill="lightgray" stroke="black" points="2950.76,-156.47 2921.76,-156.47 2921.76,-138.47 2950.76,-138.47 2950.76,-156.47"/>
<text text-anchor="middle" x="2936.26" y="-145.27" font-family="Times New Roman,serif" font-size="9.00">&#45;10</text>
</g>
<!-- &#45;10&#45;&gt;0 -->
<g id="edge95" class="edge">
<title>&#45;10&#45;&gt;0</title>
<path fill="none" stroke="green" stroke-width="0.28" d="M2923.24,-138.23C2894.92,-120.85 2825.1,-80.78 2760.26,-65.7 2470.12,1.79 1716.8,-57.99 1420.26,-29.7 1400.11,-27.78 1377.47,-23.94 1360.77,-20.8"/>
<polygon fill="green" stroke="green" stroke-width="0.28" points="1361.23,-17.32 1350.75,-18.86 1359.9,-24.19 1361.23,-17.32"/>
</g>
<!-- &#45;10&#45;&gt;2 -->
<g id="edge96" class="edge">
<title>&#45;10&#45;&gt;2</title>
<path fill="none" stroke="red" stroke-width="0.37" stroke-dasharray="1,5" d="M2951.05,-145.69C3006.78,-142.29 3198.11,-126.06 3140.26,-65.7 3119.68,-44.22 2160.74,-20.45 1992.37,-16.44"/>
<polygon fill="red" stroke="red" stroke-width="0.37" points="1992.31,-12.94 1982.23,-16.2 1992.15,-19.93 1992.31,-12.94"/>
</g>
<!-- &#45;10&#45;&gt;3 -->
<g id="edge97" class="edge">
<title>&#45;10&#45;&gt;3</title>
<path fill="none" stroke="red" stroke-width="0.35" d="M2921.69,-145.76C2794.02,-139.53 1866.76,-94.32 1702.2,-86.3"/>
<polygon fill="red" stroke="red" stroke-width="0.35" points="1702.24,-82.8 1692.08,-85.81 1701.9,-89.79 1702.24,-82.8"/>
</g>
<!-- &#45;10&#45;&gt;4 -->
<g id="edge98" class="edge">
<title>&#45;10&#45;&gt;4</title>
<path fill="none" stroke="red" stroke-width="0.55" stroke-dasharray="1,5" d="M2950.97,-146.89C3018.61,-148.4 3293.26,-149.54 3216.26,-65.7 3177.96,-23.98 2764.63,-17.12 2657.5,-16.04"/>
<polygon fill="red" stroke="red" stroke-width="0.55" points="2657.34,-12.54 2647.31,-15.95 2657.28,-19.54 2657.34,-12.54"/>
</g>
<!-- &#45;10&#45;&gt;5 -->
<g id="edge99" class="edge">
<title>&#45;10&#45;&gt;5</title>
<path fill="none" stroke="red" stroke-width="0.36" d="M2921.35,-143.82C2890.63,-138.12 2818.3,-123.51 2760.26,-102.47 2724.98,-89.68 2720.72,-74.56 2684.26,-65.7 2536.08,-29.68 1464.61,-36.36 1312.26,-29.7 1239.08,-26.5 1152.69,-20.62 1111.1,-17.66"/>
<polygon fill="red" stroke="red" stroke-width="0.36" points="1111.28,-14.16 1101.06,-16.94 1110.78,-21.14 1111.28,-14.16"/>
</g>
<!-- &#45;10&#45;&gt;6 -->
<g id="edge100" class="edge">
<title>&#45;10&#45;&gt;6</title>
<path fill="none" stroke="green" stroke-width="0.62" d="M2921.65,-144.46C2845.72,-134.08 2488.33,-86.35 2194.26,-65.7 1943.2,-48.07 1308.17,-83.29 1062.26,-29.7 1058.69,-28.92 1055.02,-27.77 1051.49,-26.46"/>
<polygon fill="green" stroke="green" stroke-width="0.62" points="1052.65,-23.15 1042.07,-22.51 1049.94,-29.61 1052.65,-23.15"/>
</g>
<!-- &#45;10&#45;&gt;7 -->
<g id="edge101" class="edge">
<title>&#45;10&#45;&gt;7</title>
<path fill="none" stroke="green" stroke-width="0.12" d="M2921.72,-143.01C2867.84,-130.35 2674.33,-86.18 2512.26,-65.7 2260.87,-33.93 2195.93,-48.83 1943.26,-29.7 1896.6,-26.17 1842.23,-21.17 1811.26,-18.25"/>
<polygon fill="green" stroke="green" stroke-width="0.12" points="1811.26,-14.73 1800.97,-17.27 1810.59,-21.7 1811.26,-14.73"/>
</g>
<!-- &#45;10&#45;&gt;8 -->
<g id="edge102" class="edge">
<title>&#45;10&#45;&gt;8</title>
<path fill="none" stroke="red" stroke-width="0.24" d="M2941.71,-138.04C2951.53,-121.68 2969.49,-85.51 2950.26,-65.7 2927.27,-42 1795.25,-30.92 1762.26,-29.7 1653.22,-25.67 1523.2,-19.62 1469.44,-17.06"/>
<polygon fill="red" stroke="red" stroke-width="0.24" points="1469.32,-13.55 1459.16,-16.57 1468.98,-20.54 1469.32,-13.55"/>
</g>
<!-- &#45;10&#45;&gt;11 -->
<g id="edge10" class="edge">
<title>&#45;10&#45;&gt;11</title>
<path fill="none" stroke="green" stroke-width="0.29" d="M2921.42,-145.86C2887.77,-144.48 2803.1,-141.04 2732.26,-138.47 2252.75,-121.07 2132.47,-126.79 1653.26,-102.47 1570.83,-98.28 1473.56,-91 1426.53,-87.33"/>
<polygon fill="green" stroke="green" stroke-width="0.29" points="1426.73,-83.84 1416.49,-86.54 1426.19,-90.82 1426.73,-83.84"/>
</g>
<!-- &#45;11 -->
<g id="node11" class="node">
<title>&#45;11</title>
<polygon fill="lightgray" stroke="black" points="2000.76,-156.47 1971.76,-156.47 1971.76,-138.47 2000.76,-138.47 2000.76,-156.47"/>
<text text-anchor="middle" x="1986.26" y="-145.27" font-family="Times New Roman,serif" font-size="9.00">&#45;11</text>
</g>
<!-- &#45;11&#45;&gt;0 -->
<g id="edge103" class="edge">
<title>&#45;11&#45;&gt;0</title>
<path fill="none" stroke="green" stroke-width="0.55" d="M1982.9,-138.46C1975.32,-121.53 1955.08,-82.29 1924.26,-65.7 1825.38,-12.49 1531.77,-42.85 1420.26,-29.7 1400.15,-27.33 1377.51,-23.53 1360.81,-20.51"/>
<polygon fill="green" stroke="green" stroke-width="0.55" points="1361.24,-17.03 1350.77,-18.66 1359.97,-23.91 1361.24,-17.03"/>
</g>
<!-- &#45;11&#45;&gt;2 -->
<g id="edge104" class="edge">
<title>&#45;11&#45;&gt;2</title>
<path fill="none" stroke="green" stroke-width="0.68" d="M2000.93,-145.55C2060.73,-141.68 2283.99,-125.74 2304.26,-102.47 2315,-90.15 2314.94,-78.07 2304.26,-65.7 2263.82,-18.84 2064.24,-15.28 1992.77,-15.54"/>
<polygon fill="green" stroke="green" stroke-width="0.68" points="1992.42,-12.04 1982.45,-15.61 1992.47,-19.04 1992.42,-12.04"/>
</g>
<!-- &#45;11&#45;&gt;3 -->
<g id="edge105" class="edge">
<title>&#45;11&#45;&gt;3</title>
<path fill="none" stroke="green" stroke-width="0.28" d="M1971.36,-143.51C1921.89,-133.68 1762.79,-102.07 1701.58,-89.91"/>
<polygon fill="green" stroke="green" stroke-width="0.28" points="1702.15,-86.46 1691.66,-87.94 1700.78,-93.32 1702.15,-86.46"/>
</g>
<!-- &#45;11&#45;&gt;6 -->
<g id="edge106" class="edge">
<title>&#45;11&#45;&gt;6</title>
<path fill="none" stroke="green" stroke-width="0.11" d="M1971.52,-139.28C1936.76,-122.72 1846.59,-82.1 1766.26,-65.7 1459.3,-3 1367.72,-99.36 1062.26,-29.7 1058.7,-28.89 1055.03,-27.72 1051.5,-26.4"/>
<polygon fill="green" stroke="green" stroke-width="0.11" points="1052.66,-23.09 1042.08,-22.45 1049.95,-29.54 1052.66,-23.09"/>
</g>
<!-- &#45;11&#45;&gt;7 -->
<g id="edge107" class="edge">
<title>&#45;11&#45;&gt;7</title>
<path fill="none" stroke="red" stroke-width="0.77" d="M2000.94,-146.92C2068.43,-148.57 2342.48,-150.25 2266.26,-65.7 2262.4,-61.41 1909.08,-27.53 1811.17,-18.21"/>
<polygon fill="red" stroke="red" stroke-width="0.77" points="1811.31,-14.71 1801.02,-17.25 1810.64,-21.68 1811.31,-14.71"/>
</g>
<!-- &#45;11&#45;&gt;8 -->
<g id="edge108" class="edge">
<title>&#45;11&#45;&gt;8</title>
<path fill="none" stroke="red" stroke-width="0.3" stroke-dasharray="1,5" d="M1977.38,-138.32C1958.43,-121.46 1911.95,-82.91 1865.26,-65.7 1791.56,-38.52 1548.06,-22.01 1469.17,-17.27"/>
<polygon fill="red" stroke="red" stroke-width="0.3" points="1469.35,-13.78 1459.16,-16.68 1468.94,-20.76 1469.35,-13.78"/>
</g>
<!-- &#45;11&#45;&gt;11 -->
<g id="edge11" class="edge">
<title>&#45;11&#45;&gt;11</title>
<path fill="none" stroke="red" stroke-width="0.4" d="M1971.73,-144.95C1894.44,-136.88 1531.27,-98.97 1426.57,-88.04"/>
<polygon fill="red" stroke="red" stroke-width="0.4" points="1426.76,-84.54 1416.45,-86.98 1426.04,-91.5 1426.76,-84.54"/>
</g>
<!-- &#45;12 -->
<g id="node12" class="node">
<title>&#45;12</title>
<polygon fill="lightgray" stroke="black" points="2722.76,-156.47 2693.76,-156.47 2693.76,-138.47 2722.76,-138.47 2722.76,-156.47"/>
<text text-anchor="middle" x="2708.26" y="-145.27" font-family="Times New Roman,serif" font-size="9.00">&#45;12</text>
</g>
<!-- &#45;12&#45;&gt;0 -->
<g id="edge109" class="edge">
<title>&#45;12&#45;&gt;0</title>
<path fill="none" stroke="green" stroke-width="0.46" stroke-dasharray="1,5" d="M2693.71,-139.05C2659.82,-122.21 2572.53,-81.34 2494.26,-65.7 2260.09,-18.91 1657.91,-53.17 1420.26,-29.7 1400.11,-27.71 1377.47,-23.88 1360.78,-20.76"/>
<polygon fill="green" stroke="green" stroke-width="0.46" points="1361.23,-17.28 1350.75,-18.83 1359.91,-24.15 1361.23,-17.28"/>
</g>
<!-- &#45;12&#45;&gt;1 -->
<g id="edge110" class="edge">
<title>&#45;12&#45;&gt;1</title>
<path fill="none" stroke="red" stroke-width="0.31" d="M2693.27,-144.33C2618.38,-133.77 2277.25,-86.71 1996.26,-65.7 1776.51,-49.27 1220.47,-77.11 1005.26,-29.7 1001.69,-28.91 998.03,-27.76 994.49,-26.44"/>
<polygon fill="red" stroke="red" stroke-width="0.31" points="995.65,-23.13 985.07,-22.5 992.94,-29.59 995.65,-23.13"/>
</g>
<!-- &#45;12&#45;&gt;2 -->
<g id="edge111" class="edge">
<title>&#45;12&#45;&gt;2</title>
<path fill="none" stroke="green" stroke-width="0.34" d="M2722.93,-145.55C2782.73,-141.68 3005.99,-125.74 3026.26,-102.47 3037,-90.15 3037.54,-77.52 3026.26,-65.7 3007.82,-46.37 2151.75,-21.1 1992.59,-16.56"/>
<polygon fill="green" stroke="green" stroke-width="0.34" points="1992.45,-13.06 1982.35,-16.27 1992.25,-20.05 1992.45,-13.06"/>
</g>
<!-- &#45;12&#45;&gt;3 -->
<g id="edge112" class="edge">
<title>&#45;12&#45;&gt;3</title>
<path fill="none" stroke="red" stroke-width="0.75" stroke-dasharray="1,5" d="M2693.69,-145.6C2580.86,-138.88 1847.22,-95.2 1702.16,-86.57"/>
<polygon fill="red" stroke="red" stroke-width="0.75" points="1702.23,-83.06 1692.04,-85.96 1701.81,-90.05 1702.23,-83.06"/>
</g>
<!-- &#45;12&#45;&gt;4 -->
<g id="edge113" class="edge">
<title>&#45;12&#45;&gt;4</title>
<path fill="none" stroke="green" stroke-width="0.47" d="M2723.06,-145.96C2791.65,-143.45 3076.45,-131.32 3102.26,-102.47 3113.16,-90.29 3113.19,-77.85 3102.26,-65.7 3072.27,-32.36 2750.76,-19.61 2657.49,-16.59"/>
<polygon fill="green" stroke="green" stroke-width="0.47" points="2657.38,-13.09 2647.28,-16.28 2657.16,-20.09 2657.38,-13.09"/>
</g>
<!-- &#45;12&#45;&gt;5 -->
<g id="edge114" class="edge">
<title>&#45;12&#45;&gt;5</title>
<path fill="none" stroke="green" stroke-width="0.14" d="M2693.66,-144.74C2658.57,-140.3 2567.01,-127.12 2494.26,-102.47 2458.72,-90.43 2454.69,-74.68 2418.26,-65.7 2179.49,-6.87 1557.9,-41.22 1312.26,-29.7 1239.09,-26.27 1152.69,-20.49 1111.1,-17.6"/>
<polygon fill="green" stroke="green" stroke-width="0.14" points="1111.28,-14.11 1101.06,-16.9 1110.79,-21.09 1111.28,-14.11"/>
</g>
<!-- &#45;12&#45;&gt;7 -->
<g id="edge115" class="edge">
<title>&#45;12&#45;&gt;7</title>
<path fill="none" stroke="green" stroke-width="0.18" d="M2693.48,-141.09C2651.9,-126.21 2530.14,-84.38 2425.26,-65.7 2213.77,-28.03 2157.37,-47.14 1943.26,-29.7 1896.63,-25.9 1842.24,-21 1811.27,-18.16"/>
<polygon fill="green" stroke="green" stroke-width="0.18" points="1811.25,-14.64 1800.97,-17.21 1810.61,-21.61 1811.25,-14.64"/>
</g>
<!-- &#45;12&#45;&gt;8 -->
<g id="edge116" class="edge">
<title>&#45;12&#45;&gt;8</title>
<path fill="none" stroke="green" stroke-width="0.32" d="M2713.7,-138.05C2723.5,-121.71 2741.41,-85.58 2722.26,-65.7 2685.24,-27.26 1815.59,-31.86 1762.26,-29.7 1653.24,-25.28 1523.21,-19.44 1469.44,-17"/>
<polygon fill="green" stroke="green" stroke-width="0.32" points="1469.31,-13.49 1459.16,-16.53 1468.99,-20.48 1469.31,-13.49"/>
</g>
<!-- &#45;12&#45;&gt;11 -->
<g id="edge12" class="edge">
<title>&#45;12&#45;&gt;11</title>
<path fill="none" stroke="red" stroke-width="0.13" d="M2693.68,-146.01C2600.47,-143.02 2078.38,-125.82 1653.26,-102.47 1570.85,-97.94 1473.57,-90.81 1426.54,-87.26"/>
<polygon fill="red" stroke="red" stroke-width="0.13" points="1426.73,-83.76 1416.49,-86.49 1426.2,-90.74 1426.73,-83.76"/>
</g>
<!-- 11&#45;&gt;0 -->
<g id="edge13" class="edge">
<title>11&#45;&gt;0</title>
<path fill="none" stroke="red" stroke-width="0.42" d="M1386.01,-69.8C1376.58,-59.58 1363.45,-45.33 1353.04,-34.05"/>
<polygon fill="red" stroke="red" stroke-width="0.42" points="1355.39,-31.43 1346.04,-26.45 1350.25,-36.18 1355.39,-31.43"/>
</g>
<!-- 11&#45;&gt;1 -->
<g id="edge14" class="edge">
<title>11&#45;&gt;1</title>
<path fill="none" stroke="green" stroke-width="0.17" d="M1379.9,-82.3C1323.19,-79.51 1146.09,-68.1 1005.26,-29.7 1001.8,-28.75 998.22,-27.53 994.75,-26.2"/>
<polygon fill="green" stroke="green" stroke-width="0.17" points="996.04,-22.95 985.47,-22.33 993.35,-29.41 996.04,-22.95"/>
</g>
<!-- 11&#45;&gt;2 -->
<g id="edge15" class="edge">
<title>11&#45;&gt;2</title>
<path fill="none" stroke="green" stroke-width="0.81" d="M1415.66,-78.02C1429.74,-74.11 1450.12,-68.84 1468.26,-65.7 1515.3,-57.55 1847.98,-26.78 1942.36,-18.12"/>
<polygon fill="green" stroke="green" stroke-width="0.81" points="1942.77,-21.6 1952.41,-17.2 1942.14,-14.63 1942.77,-21.6"/>
</g>
<!-- 11&#45;&gt;4 -->
<g id="edge16" class="edge">
<title>11&#45;&gt;4</title>
<path fill="none" stroke="red" stroke-width="0.55" stroke-dasharray="1,5" d="M1416.52,-81.07C1449.55,-77.5 1521.45,-70.01 1582.26,-65.7 1991.39,-36.67 2491.45,-20.19 2607.43,-16.6"/>
<polygon fill="red" stroke="red" stroke-width="0.55" points="2607.55,-20.1 2617.44,-16.29 2607.34,-13.1 2607.55,-20.1"/>
</g>
<!-- 11&#45;&gt;5 -->
<g id="edge17" class="edge">
<title>11&#45;&gt;5</title>
<path fill="none" stroke="red" stroke-width="0.26" d="M1380.14,-79.18C1326.89,-67.7 1170.89,-34.09 1110.51,-21.08"/>
<polygon fill="red" stroke="red" stroke-width="0.26" points="1111.23,-17.65 1100.71,-18.96 1109.75,-24.49 1111.23,-17.65"/>
</g>
<!-- 11&#45;&gt;6 -->
<g id="edge18" class="edge">
<title>11&#45;&gt;6</title>
<path fill="none" stroke="green" stroke-width="0.37" d="M1379.72,-81.71C1328.38,-77.56 1180.42,-63.35 1062.26,-29.7 1058.81,-28.72 1055.24,-27.47 1051.77,-26.13"/>
<polygon fill="green" stroke="green" stroke-width="0.37" points="1053.06,-22.88 1042.49,-22.26 1050.37,-29.34 1053.06,-22.88"/>
</g>
<!-- 11&#45;&gt;7 -->
<g id="edge19" class="edge">
<title>11&#45;&gt;7</title>
<path fill="none" stroke="red" stroke-width="0.92" d="M1415.71,-78.3C1429.82,-74.54 1450.22,-69.35 1468.26,-65.7 1576.9,-43.74 1708.08,-25.88 1761.66,-18.95"/>
<polygon fill="red" stroke="red" stroke-width="0.92" points="1762.13,-22.42 1771.6,-17.68 1761.24,-15.48 1762.13,-22.42"/>
</g>
<!-- 11&#45;&gt;8 -->
<g id="edge20" class="edge">
<title>11&#45;&gt;8</title>
<path fill="none" stroke="red" stroke-width="0.12" d="M1408.24,-68.49C1414.7,-59.06 1423.2,-46.63 1430.32,-36.22"/>
<polygon fill="red" stroke="red" stroke-width="0.12" points="1433.38,-37.95 1436.14,-27.72 1427.6,-34 1433.38,-37.95"/>
</g>
</g>
</svg>
