<?xml version="1.0" encoding="UTF-8" standalone="no"?>
<!DOCTYPE svg PUBLIC "-//W3C//DTD SVG 1.1//EN"
 "http://www.w3.org/Graphics/SVG/1.1/DTD/svg11.dtd">
<!-- Generated by graphviz version 3.0.0 (20220226.1711)
 -->
<!-- Pages: 1 -->
<svg width="5204pt" height="405pt"
 viewBox="0.00 0.00 5204.00 405.40" xmlns="http://www.w3.org/2000/svg" xmlns:xlink="http://www.w3.org/1999/xlink">
<g id="graph0" class="graph" transform="scale(1 1) rotate(0) translate(4 401.4)">
<polygon fill="white" stroke="transparent" points="-4,4 -4,-401.4 5200,-401.4 5200,4 -4,4"/>
<!-- &#45;1 -->
<g id="node1" class="node">
<title>&#45;1</title>
<polygon fill="lightgray" stroke="black" points="1126,-252.76 1102,-252.76 1102,-234.76 1126,-234.76 1126,-252.76"/>
<text text-anchor="middle" x="1114" y="-241.56" font-family="Times New Roman,serif" font-size="9.00">&#45;1</text>
</g>
<!-- 0 -->
<g id="node13" class="node">
<title>0</title>
<ellipse fill="lightblue" stroke="black" cx="2559" cy="-14.85" rx="14.7" ry="14.7"/>
<text text-anchor="middle" x="2559" y="-12.65" font-family="Times New Roman,serif" font-size="9.00">0</text>
</g>
<!-- &#45;1&#45;&gt;0 -->
<g id="edge81" class="edge">
<title>&#45;1&#45;&gt;0</title>
<path fill="none" stroke="red" stroke-width="0.89" d="M1109.71,-234.73C1100.92,-217.08 1083.08,-174.1 1100,-144.12 1133.18,-85.37 1165.34,-85 1230,-65.7 1359.35,-27.08 2361.48,-17.42 2533.81,-16.04"/>
<polygon fill="red" stroke="red" stroke-width="0.89" points="2533.97,-19.54 2543.95,-15.96 2533.92,-12.54 2533.97,-19.54"/>
</g>
<!-- 1 -->
<g id="node14" class="node">
<title>1</title>
<ellipse fill="lightblue" stroke="black" cx="953" cy="-14.85" rx="14.7" ry="14.7"/>
<text text-anchor="middle" x="953" y="-12.65" font-family="Times New Roman,serif" font-size="9.00">1</text>
</g>
<!-- &#45;1&#45;&gt;1 -->
<g id="edge82" class="edge">
<title>&#45;1&#45;&gt;1</title>
<path fill="none" stroke="red" stroke-width="0.23" d="M1101.78,-242.81C1011.65,-243.02 449.26,-242.06 290,-186.55 231.93,-166.31 204.62,-162.56 176,-108.12 167.22,-91.44 163.1,-79.45 176,-65.7 202.34,-37.62 797.35,-20.03 927.85,-16.51"/>
<polygon fill="red" stroke="red" stroke-width="0.23" points="928.15,-20 938.05,-16.23 927.96,-13 928.15,-20"/>
</g>
<!-- 2 -->
<g id="node15" class="node">
<title>2</title>
<ellipse fill="lightblue" stroke="black" cx="1738" cy="-14.85" rx="14.7" ry="14.7"/>
<text text-anchor="middle" x="1738" y="-12.65" font-family="Times New Roman,serif" font-size="9.00">2</text>
</g>
<!-- &#45;1&#45;&gt;2 -->
<g id="edge83" class="edge">
<title>&#45;1&#45;&gt;2</title>
<path fill="none" stroke="green" stroke-width="0.5" d="M1101.93,-236.5C1058.06,-212.97 912.67,-128.09 972,-65.7 1026.74,-8.13 1607.52,-41.99 1686,-29.7 1695.42,-28.22 1705.59,-25.72 1714.42,-23.25"/>
<polygon fill="green" stroke="green" stroke-width="0.5" points="1715.44,-26.6 1724.05,-20.42 1713.46,-19.88 1715.44,-26.6"/>
</g>
<!-- 3 -->
<g id="node16" class="node">
<title>3</title>
<ellipse fill="lightblue" stroke="black" cx="4680" cy="-14.85" rx="14.7" ry="14.7"/>
<text text-anchor="middle" x="4680" y="-12.65" font-family="Times New Roman,serif" font-size="9.00">3</text>
</g>
<!-- &#45;1&#45;&gt;3 -->
<g id="edge84" class="edge">
<title>&#45;1&#45;&gt;3</title>
<path fill="none" stroke="red" stroke-width="0.33" d="M1126.38,-240.3C1188.23,-228.1 1470,-173.43 1703,-144.12 2113.68,-92.47 2217.7,-88.17 2631,-65.7 2684.09,-62.81 4425.18,-21.84 4655.04,-16.44"/>
<polygon fill="red" stroke="red" stroke-width="0.33" points="4655.19,-19.93 4665.1,-16.2 4655.02,-12.94 4655.19,-19.93"/>
</g>
<!-- 4 -->
<g id="node17" class="node">
<title>4</title>
<ellipse fill="lightblue" stroke="black" cx="2932" cy="-14.85" rx="14.7" ry="14.7"/>
<text text-anchor="middle" x="2932" y="-12.65" font-family="Times New Roman,serif" font-size="9.00">4</text>
</g>
<!-- &#45;1&#45;&gt;4 -->
<g id="edge85" class="edge">
<title>&#45;1&#45;&gt;4</title>
<path fill="none" stroke="red" stroke-width="0.37" d="M1116.6,-234.51C1123.14,-215.22 1142.19,-167.07 1176,-144.12 1334.57,-36.51 1409.51,-86.69 1600,-65.7 2034.55,-17.81 2146.14,-46.37 2583,-29.7 2704.28,-25.07 2849.26,-19.21 2906.74,-16.88"/>
<polygon fill="red" stroke="red" stroke-width="0.37" points="2907.18,-20.36 2917.03,-16.46 2906.9,-13.37 2907.18,-20.36"/>
</g>
<!-- 5 -->
<g id="node18" class="node">
<title>5</title>
<ellipse fill="lightblue" stroke="black" cx="1662" cy="-14.85" rx="14.7" ry="14.7"/>
<text text-anchor="middle" x="1662" y="-12.65" font-family="Times New Roman,serif" font-size="9.00">5</text>
</g>
<!-- &#45;1&#45;&gt;5 -->
<g id="edge86" class="edge">
<title>&#45;1&#45;&gt;5</title>
<path fill="none" stroke="red" stroke-width="0.26" stroke-dasharray="1,5" d="M1101.81,-242.81C1046.48,-242.73 813.85,-239.1 633,-186.55 591.31,-174.44 585.23,-160.45 545,-144.12 498.12,-125.1 466.58,-149.17 437,-108.12 425.97,-92.83 423.93,-79.29 437,-65.7 471.83,-29.46 1290.78,-31.78 1341,-29.7 1451.28,-25.12 1582.85,-19.35 1636.92,-16.96"/>
<polygon fill="red" stroke="red" stroke-width="0.26" points="1637.12,-20.45 1646.96,-16.52 1636.81,-13.46 1637.12,-20.45"/>
</g>
<!-- 6 -->
<g id="node19" class="node">
<title>6</title>
<ellipse fill="lightblue" stroke="black" cx="1317" cy="-14.85" rx="14.7" ry="14.7"/>
<text text-anchor="middle" x="1317" y="-12.65" font-family="Times New Roman,serif" font-size="9.00">6</text>
</g>
<!-- &#45;1&#45;&gt;6 -->
<g id="edge87" class="edge">
<title>&#45;1&#45;&gt;6</title>
<path fill="none" stroke="green" stroke-width="0.23" d="M1101.92,-242.74C1045.03,-242.36 798.39,-237.67 605,-186.55 511.13,-161.74 356.28,-136.24 423,-65.7 430.69,-57.57 1147.75,-23.74 1291.92,-17.01"/>
<polygon fill="green" stroke="green" stroke-width="0.23" points="1292.17,-20.51 1302,-16.54 1291.85,-13.51 1292.17,-20.51"/>
</g>
<!-- 7 -->
<g id="node20" class="node">
<title>7</title>
<ellipse fill="lightblue" stroke="black" cx="4053" cy="-14.85" rx="14.7" ry="14.7"/>
<text text-anchor="middle" x="4053" y="-12.65" font-family="Times New Roman,serif" font-size="9.00">7</text>
</g>
<!-- &#45;1&#45;&gt;7 -->
<g id="edge88" class="edge">
<title>&#45;1&#45;&gt;7</title>
<path fill="none" stroke="red" stroke-width="0.28" d="M1126.37,-240.53C1159.69,-234.29 1253.85,-215.25 1328,-186.55 1398.16,-159.4 1414.46,-148.41 1478,-108.12 1504.37,-91.4 1504.5,-75.94 1534,-65.7 1541.78,-63 3765.79,-21.23 4027.87,-16.32"/>
<polygon fill="red" stroke="red" stroke-width="0.28" points="4028,-19.82 4037.94,-16.13 4027.87,-12.82 4028,-19.82"/>
</g>
<!-- 8 -->
<g id="node21" class="node">
<title>8</title>
<ellipse fill="lightblue" stroke="black" cx="3274" cy="-14.85" rx="14.7" ry="14.7"/>
<text text-anchor="middle" x="3274" y="-12.65" font-family="Times New Roman,serif" font-size="9.00">8</text>
</g>
<!-- &#45;1&#45;&gt;8 -->
<g id="edge89" class="edge">
<title>&#45;1&#45;&gt;8</title>
<path fill="none" stroke="red" stroke-width="0.19" d="M1126.27,-238.56C1169.53,-223.54 1318.54,-170.07 1433,-108.12 1462.69,-92.06 1463.84,-75.95 1496,-65.7 1650.6,-16.4 2793.82,-35.23 2956,-29.7 3065.05,-25.98 3195.06,-19.76 3248.82,-17.11"/>
<polygon fill="red" stroke="red" stroke-width="0.19" points="3249.29,-20.59 3259.1,-16.6 3248.94,-13.6 3249.29,-20.59"/>
</g>
<!-- 15 -->
<g id="node22" class="node">
<title>15</title>
<ellipse fill="white" stroke="black" cx="2962" cy="-165.34" rx="18.27" ry="18.27"/>
<text text-anchor="middle" x="2962" y="-163.14" font-family="Times New Roman,serif" font-size="9.00">15</text>
</g>
<!-- &#45;1&#45;&gt;15 -->
<g id="edge1" class="edge">
<title>&#45;1&#45;&gt;15</title>
<path fill="none" stroke="red" stroke-width="0.31" d="M1126.01,-241.97C1171.23,-239 1335.49,-228.43 1471,-222.55 2000.08,-199.58 2133.05,-212.36 2662,-186.55 2762,-181.67 2880.54,-172.76 2933.72,-168.59"/>
<polygon fill="red" stroke="red" stroke-width="0.31" points="2934.06,-172.08 2943.75,-167.8 2933.51,-165.1 2934.06,-172.08"/>
</g>
<!-- 17 -->
<g id="node24" class="node">
<title>17</title>
<ellipse fill="white" stroke="black" cx="1730" cy="-165.34" rx="18.27" ry="18.27"/>
<text text-anchor="middle" x="1730" y="-163.14" font-family="Times New Roman,serif" font-size="9.00">17</text>
</g>
<!-- &#45;1&#45;&gt;17 -->
<g id="edge2" class="edge">
<title>&#45;1&#45;&gt;17</title>
<path fill="none" stroke="green" stroke-width="0.11" d="M1126.03,-241.27C1199.9,-232.11 1592.6,-183.39 1701.8,-169.84"/>
<polygon fill="green" stroke="green" stroke-width="0.11" points="1702.25,-173.31 1711.75,-168.6 1701.39,-166.36 1702.25,-173.31"/>
</g>
<!-- 18 -->
<g id="node25" class="node">
<title>18</title>
<ellipse fill="white" stroke="black" cx="2635" cy="-165.34" rx="18.27" ry="18.27"/>
<text text-anchor="middle" x="2635" y="-163.14" font-family="Times New Roman,serif" font-size="9.00">18</text>
</g>
<!-- &#45;1&#45;&gt;18 -->
<g id="edge3" class="edge">
<title>&#45;1&#45;&gt;18</title>
<path fill="none" stroke="red" stroke-width="0.16" stroke-dasharray="1,5" d="M1126.02,-242.05C1171.25,-239.36 1335.54,-229.66 1471,-222.55 1923.52,-198.81 2475.19,-173.58 2606.15,-167.64"/>
<polygon fill="red" stroke="red" stroke-width="0.16" points="2606.68,-171.12 2616.52,-167.17 2606.37,-164.13 2606.68,-171.12"/>
</g>
<!-- 341 -->
<g id="node29" class="node">
<title>341</title>
<ellipse fill="white" stroke="black" cx="467" cy="-86.91" rx="21.43" ry="21.43"/>
<text text-anchor="middle" x="467" y="-84.71" font-family="Times New Roman,serif" font-size="9.00">341</text>
</g>
<!-- &#45;1&#45;&gt;341 -->
<g id="edge198" class="edge">
<title>&#45;1&#45;&gt;341</title>
<path fill="none" stroke="green" stroke-width="0.28" d="M1101.6,-242.13C1039.2,-238.81 759.33,-222.14 681,-186.55 655.08,-174.77 658.04,-157.68 633,-144.12 579.9,-115.39 557.71,-131.41 502,-108.12 499.27,-106.98 496.49,-105.67 493.75,-104.27"/>
<polygon fill="green" stroke="green" stroke-width="0.28" points="495.16,-101.06 484.71,-99.31 491.8,-107.19 495.16,-101.06"/>
</g>
<!-- &#45;2 -->
<g id="node2" class="node">
<title>&#45;2</title>
<polygon fill="lightgray" stroke="black" points="2396,-252.76 2372,-252.76 2372,-234.76 2396,-234.76 2396,-252.76"/>
<text text-anchor="middle" x="2384" y="-241.56" font-family="Times New Roman,serif" font-size="9.00">&#45;2</text>
</g>
<!-- &#45;2&#45;&gt;0 -->
<g id="edge90" class="edge">
<title>&#45;2&#45;&gt;0</title>
<path fill="none" stroke="red" stroke-width="0.19" d="M2379.92,-234.64C2366.91,-207.41 2329.54,-118.22 2370,-65.7 2389.99,-39.75 2487.29,-24.59 2533.94,-18.7"/>
<polygon fill="red" stroke="red" stroke-width="0.19" points="2534.62,-22.15 2544.12,-17.47 2533.77,-15.2 2534.62,-22.15"/>
</g>
<!-- &#45;2&#45;&gt;1 -->
<g id="edge91" class="edge">
<title>&#45;2&#45;&gt;1</title>
<path fill="none" stroke="green" stroke-width="0.48" stroke-dasharray="1,5" d="M2371.85,-242.34C2315.65,-240.18 2075.5,-228.81 1884,-186.55 1825.89,-173.73 1814.8,-158.29 1757,-144.12 1454.61,-70.03 1077.38,-28.48 977.95,-18.32"/>
<polygon fill="green" stroke="green" stroke-width="0.48" points="978.02,-14.81 967.72,-17.28 977.31,-21.77 978.02,-14.81"/>
</g>
<!-- &#45;2&#45;&gt;2 -->
<g id="edge92" class="edge">
<title>&#45;2&#45;&gt;2</title>
<path fill="none" stroke="red" stroke-width="0.69" d="M2371.77,-237.68C2335.48,-222.67 2225.11,-177.47 2132,-144.12 1993.04,-94.36 1823.73,-41.96 1761.99,-23.12"/>
<polygon fill="red" stroke="red" stroke-width="0.69" points="1762.64,-19.67 1752.06,-20.1 1760.61,-26.36 1762.64,-19.67"/>
</g>
<!-- &#45;2&#45;&gt;3 -->
<g id="edge93" class="edge">
<title>&#45;2&#45;&gt;3</title>
<path fill="none" stroke="green" stroke-width="0.45" d="M2396.1,-241.76C2434.61,-238.59 2557.85,-228.65 2660,-222.55 3006.42,-201.88 3094.21,-215.94 3440,-186.55 3592.62,-173.58 3629.89,-162.09 3782,-144.12 3924.57,-127.29 3960.75,-127.47 4103,-108.12 4317.57,-78.95 4575.48,-34.27 4655.27,-20.23"/>
<polygon fill="green" stroke="green" stroke-width="0.45" points="4656.09,-23.64 4665.33,-18.46 4654.87,-16.75 4656.09,-23.64"/>
</g>
<!-- &#45;2&#45;&gt;4 -->
<g id="edge94" class="edge">
<title>&#45;2&#45;&gt;4</title>
<path fill="none" stroke="red" stroke-width="0.11" d="M2383.36,-234.71C2382.36,-216.25 2382.55,-170.47 2406,-144.12 2474.61,-67.06 2812.44,-27.83 2907.23,-18.22"/>
<polygon fill="red" stroke="red" stroke-width="0.11" points="2907.71,-21.69 2917.31,-17.22 2907.02,-14.73 2907.71,-21.69"/>
</g>
<!-- &#45;2&#45;&gt;5 -->
<g id="edge95" class="edge">
<title>&#45;2&#45;&gt;5</title>
<path fill="none" stroke="red" stroke-width="0.24" d="M2371.83,-241.32C2334.8,-236.66 2220.58,-220.33 2132,-186.55 2095.85,-172.77 2092.09,-158.04 2056,-144.12 1989.61,-118.53 1968.01,-129.04 1900,-108.12 1819,-83.22 1726.21,-44.03 1684.44,-25.8"/>
<polygon fill="red" stroke="red" stroke-width="0.24" points="1685.75,-22.55 1675.18,-21.73 1682.93,-28.96 1685.75,-22.55"/>
</g>
<!-- &#45;2&#45;&gt;6 -->
<g id="edge96" class="edge">
<title>&#45;2&#45;&gt;6</title>
<path fill="none" stroke="red" stroke-width="0.15" d="M2371.71,-241.06C2328.31,-234.97 2178.22,-213.16 2056,-186.55 1851.14,-141.94 1804.76,-110.78 1600,-65.7 1505.33,-44.86 1391.34,-26.93 1341.89,-19.51"/>
<polygon fill="red" stroke="red" stroke-width="0.15" points="1342.22,-16.02 1331.82,-18.01 1341.19,-22.94 1342.22,-16.02"/>
</g>
<!-- &#45;2&#45;&gt;7 -->
<g id="edge97" class="edge">
<title>&#45;2&#45;&gt;7</title>
<path fill="none" stroke="red" stroke-width="0.13" d="M2396.15,-241.84C2480.95,-235.37 2982.83,-196.84 3050,-186.55 3135.53,-173.45 3154.38,-156.61 3240,-144.12 3466.61,-111.08 3528.89,-150.17 3754,-108.12 3859.69,-88.39 3980.68,-44.01 4030.13,-24.89"/>
<polygon fill="red" stroke="red" stroke-width="0.13" points="4031.53,-28.11 4039.57,-21.22 4028.98,-21.59 4031.53,-28.11"/>
</g>
<!-- &#45;2&#45;&gt;8 -->
<g id="edge98" class="edge">
<title>&#45;2&#45;&gt;8</title>
<path fill="none" stroke="red" stroke-width="0.2" d="M2396.09,-241.93C2476.28,-236.36 2930.08,-204.22 2989,-186.55 3099.83,-153.31 3211.99,-67.33 3255.32,-31.69"/>
<polygon fill="red" stroke="red" stroke-width="0.2" points="3257.6,-34.35 3263.05,-25.26 3253.12,-28.97 3257.6,-34.35"/>
</g>
<!-- &#45;2&#45;&gt;15 -->
<g id="edge4" class="edge">
<title>&#45;2&#45;&gt;15</title>
<path fill="none" stroke="green" stroke-width="0.32" d="M2396.07,-241.17C2466.92,-231.8 2829.16,-183.9 2933.71,-170.08"/>
<polygon fill="green" stroke="green" stroke-width="0.32" points="2934.37,-173.52 2943.82,-168.74 2933.45,-166.58 2934.37,-173.52"/>
</g>
<!-- 16 -->
<g id="node23" class="node">
<title>16</title>
<ellipse fill="white" stroke="black" cx="2658" cy="-86.91" rx="18.27" ry="18.27"/>
<text text-anchor="middle" x="2658" y="-84.71" font-family="Times New Roman,serif" font-size="9.00">16</text>
</g>
<!-- &#45;2&#45;&gt;16 -->
<g id="edge5" class="edge">
<title>&#45;2&#45;&gt;16</title>
<path fill="none" stroke="red" stroke-width="0.17" stroke-dasharray="1,5" d="M2386.7,-234.66C2393.46,-215.68 2412.96,-168.16 2446,-144.12 2498.65,-105.82 2525.16,-125.16 2588,-108.12 2602.16,-104.29 2617.86,-99.78 2630.8,-95.99"/>
<polygon fill="red" stroke="red" stroke-width="0.17" points="2631.89,-99.32 2640.5,-93.14 2629.92,-92.6 2631.89,-99.32"/>
</g>
<!-- &#45;2&#45;&gt;17 -->
<g id="edge6" class="edge">
<title>&#45;2&#45;&gt;17</title>
<path fill="none" stroke="green" stroke-width="0.33" d="M2371.77,-242.44C2295.18,-240.29 1881.12,-226.92 1762,-186.55 1758.99,-185.53 1755.97,-184.17 1753.05,-182.64"/>
<polygon fill="green" stroke="green" stroke-width="0.33" points="1754.61,-179.49 1744.23,-177.36 1751.01,-185.5 1754.61,-179.49"/>
</g>
<!-- &#45;2&#45;&gt;18 -->
<g id="edge7" class="edge">
<title>&#45;2&#45;&gt;18</title>
<path fill="none" stroke="red" stroke-width="0.23" d="M2396.11,-239.08C2434.47,-227.4 2553.98,-191.01 2608.01,-174.56"/>
<polygon fill="red" stroke="red" stroke-width="0.23" points="2609.05,-177.9 2617.6,-171.64 2607.01,-171.2 2609.05,-177.9"/>
</g>
<!-- &#45;3 -->
<g id="node3" class="node">
<title>&#45;3</title>
<polygon fill="lightgray" stroke="black" points="1504,-252.76 1480,-252.76 1480,-234.76 1504,-234.76 1504,-252.76"/>
<text text-anchor="middle" x="1492" y="-241.56" font-family="Times New Roman,serif" font-size="9.00">&#45;3</text>
</g>
<!-- &#45;3&#45;&gt;0 -->
<g id="edge99" class="edge">
<title>&#45;3&#45;&gt;0</title>
<path fill="none" stroke="red" stroke-width="0.12" d="M1479.82,-239.19C1459.74,-232.57 1420.29,-216.28 1404,-186.55 1394.94,-170.01 1393.19,-159.57 1404,-144.12 1462.31,-60.78 1519.34,-86.04 1619,-65.7 1801.43,-28.46 2403.8,-18.02 2534.03,-16.17"/>
<polygon fill="red" stroke="red" stroke-width="0.12" points="2534.24,-19.67 2544.2,-16.03 2534.15,-12.67 2534.24,-19.67"/>
</g>
<!-- &#45;3&#45;&gt;1 -->
<g id="edge100" class="edge">
<title>&#45;3&#45;&gt;1</title>
<path fill="none" stroke="red" stroke-width="0.16" d="M1479.65,-242.06C1366.62,-235.63 515.47,-187.15 514,-186.55 464.5,-166.53 445.24,-156.66 423,-108.12 415.14,-90.98 410.31,-79.64 423,-65.7 457.37,-27.95 827.27,-18.23 927.87,-16.27"/>
<polygon fill="red" stroke="red" stroke-width="0.16" points="928.08,-19.77 938.02,-16.09 927.95,-12.77 928.08,-19.77"/>
</g>
<!-- &#45;3&#45;&gt;2 -->
<g id="edge101" class="edge">
<title>&#45;3&#45;&gt;2</title>
<path fill="none" stroke="red" stroke-width="0.33" stroke-dasharray="1,5" d="M1479.74,-242.28C1433.65,-240.18 1266.9,-229.81 1138,-186.55 1057.82,-159.64 932.76,-127.03 991,-65.7 1044.24,-9.62 1609.61,-41.71 1686,-29.7 1695.42,-28.22 1705.59,-25.72 1714.42,-23.24"/>
<polygon fill="red" stroke="red" stroke-width="0.33" points="1715.44,-26.59 1724.05,-20.42 1713.46,-19.88 1715.44,-26.59"/>
</g>
<!-- &#45;3&#45;&gt;4 -->
<g id="edge102" class="edge">
<title>&#45;3&#45;&gt;4</title>
<path fill="none" stroke="green" stroke-width="0.22" d="M1495.43,-234.52C1503.48,-216.07 1525.23,-170.96 1556,-144.12 1617.8,-90.23 1643.35,-85.2 1723,-65.7 1730.46,-63.87 2733.26,-23.78 2906.61,-16.86"/>
<polygon fill="green" stroke="green" stroke-width="0.22" points="2906.96,-20.35 2916.81,-16.45 2906.68,-13.36 2906.96,-20.35"/>
</g>
<!-- &#45;3&#45;&gt;5 -->
<g id="edge103" class="edge">
<title>&#45;3&#45;&gt;5</title>
<path fill="none" stroke="green" stroke-width="0.68" d="M1479.82,-242.29C1428.32,-240.04 1223.72,-228.76 1062,-186.55 962.98,-160.71 795.93,-140.29 866,-65.7 879.54,-51.28 1503.48,-22.87 1637.02,-16.95"/>
<polygon fill="green" stroke="green" stroke-width="0.68" points="1637.26,-20.44 1647.09,-16.5 1636.95,-13.45 1637.26,-20.44"/>
</g>
<!-- &#45;3&#45;&gt;6 -->
<g id="edge104" class="edge">
<title>&#45;3&#45;&gt;6</title>
<path fill="none" stroke="red" stroke-width="0.36" stroke-dasharray="1,5" d="M1479.93,-242.22C1367.52,-236.98 506.24,-194.17 437,-108.12 425.18,-93.43 424.05,-79.4 437,-65.7 452.09,-49.73 1149.04,-22.27 1291.67,-16.81"/>
<polygon fill="red" stroke="red" stroke-width="0.36" points="1292.15,-20.29 1302.01,-16.41 1291.88,-13.3 1292.15,-20.29"/>
</g>
<!-- &#45;3&#45;&gt;7 -->
<g id="edge105" class="edge">
<title>&#45;3&#45;&gt;7</title>
<path fill="none" stroke="green" stroke-width="0.23" d="M1504.22,-236.99C1548.42,-216.09 1697.69,-145.6 1703,-144.12 2018.6,-56.12 2109.14,-88.19 2436,-65.7 2764.66,-43.08 3848.8,-20.06 4027.85,-16.36"/>
<polygon fill="green" stroke="green" stroke-width="0.23" points="4027.97,-19.86 4037.9,-16.16 4027.83,-12.86 4027.97,-19.86"/>
</g>
<!-- &#45;3&#45;&gt;8 -->
<g id="edge106" class="edge">
<title>&#45;3&#45;&gt;8</title>
<path fill="none" stroke="green" stroke-width="0.37" d="M1501.54,-234.5C1523.3,-216.01 1578.86,-170.81 1632,-144.12 1731.9,-93.95 1760.91,-85.18 1871,-65.7 2108.55,-23.67 2714.93,-38.95 2956,-29.7 3065.03,-25.52 3195.05,-19.55 3248.82,-17.03"/>
<polygon fill="green" stroke="green" stroke-width="0.37" points="3249.28,-20.52 3259.1,-16.55 3248.95,-13.52 3249.28,-20.52"/>
</g>
<!-- &#45;3&#45;&gt;15 -->
<g id="edge8" class="edge">
<title>&#45;3&#45;&gt;15</title>
<path fill="none" stroke="green" stroke-width="0.68" d="M1504.23,-239.93C1524.59,-235.35 1566.78,-226.44 1603,-222.55 2071.24,-172.23 2191.66,-210.38 2662,-186.55 2761.99,-181.48 2880.54,-172.66 2933.72,-168.56"/>
<polygon fill="green" stroke="green" stroke-width="0.68" points="2934.05,-172.04 2943.75,-167.78 2933.51,-165.06 2934.05,-172.04"/>
</g>
<!-- &#45;3&#45;&gt;16 -->
<g id="edge9" class="edge">
<title>&#45;3&#45;&gt;16</title>
<path fill="none" stroke="green" stroke-width="0.54" d="M1504.25,-240.24C1572.74,-226.17 1909.02,-157.52 2014,-144.12 2250.84,-113.9 2313.14,-138.14 2550,-108.12 2577.48,-104.64 2608.54,-98.61 2630.28,-94.03"/>
<polygon fill="green" stroke="green" stroke-width="0.54" points="2631.09,-97.44 2640.14,-91.92 2629.63,-90.59 2631.09,-97.44"/>
</g>
<!-- &#45;3&#45;&gt;17 -->
<g id="edge10" class="edge">
<title>&#45;3&#45;&gt;17</title>
<path fill="none" stroke="green" stroke-width="0.28" d="M1504.13,-238.87C1540.82,-227.09 1651.25,-191.62 1702.87,-175.05"/>
<polygon fill="green" stroke="green" stroke-width="0.28" points="1704.2,-178.3 1712.65,-171.91 1702.06,-171.63 1704.2,-178.3"/>
</g>
<!-- &#45;3&#45;&gt;18 -->
<g id="edge11" class="edge">
<title>&#45;3&#45;&gt;18</title>
<path fill="none" stroke="green" stroke-width="0.33" d="M1504.24,-240.01C1524.62,-235.55 1566.82,-226.81 1603,-222.55 1998.72,-175.93 2484.46,-167.89 2606.27,-166.58"/>
<polygon fill="green" stroke="green" stroke-width="0.33" points="2606.64,-170.08 2616.6,-166.48 2606.57,-163.08 2606.64,-170.08"/>
</g>
<!-- &#45;4 -->
<g id="node4" class="node">
<title>&#45;4</title>
<polygon fill="lightgray" stroke="black" points="3495,-252.76 3471,-252.76 3471,-234.76 3495,-234.76 3495,-252.76"/>
<text text-anchor="middle" x="3483" y="-241.56" font-family="Times New Roman,serif" font-size="9.00">&#45;4</text>
</g>
<!-- &#45;4&#45;&gt;0 -->
<g id="edge107" class="edge">
<title>&#45;4&#45;&gt;0</title>
<path fill="none" stroke="red" stroke-width="1.08" stroke-dasharray="1,5" d="M3489.68,-234.65C3497.75,-224.25 3510.89,-205.33 3516,-186.55 3530.77,-132.22 3524.88,-96.88 3478,-65.7 3458.83,-52.95 2729.18,-22.75 2583.98,-16.86"/>
<polygon fill="red" stroke="red" stroke-width="1.08" points="2583.98,-13.35 2573.84,-16.45 2583.69,-20.35 2583.98,-13.35"/>
</g>
<!-- &#45;4&#45;&gt;2 -->
<g id="edge108" class="edge">
<title>&#45;4&#45;&gt;2</title>
<path fill="none" stroke="red" stroke-width="0.24" d="M3484.27,-234.7C3488.37,-205.22 3497.89,-103.17 3440,-65.7 3403.18,-41.87 1971.2,-19.37 1763.11,-16.22"/>
<polygon fill="red" stroke="red" stroke-width="0.24" points="1762.94,-12.72 1752.89,-16.07 1762.83,-19.72 1762.94,-12.72"/>
</g>
<!-- &#45;4&#45;&gt;3 -->
<g id="edge109" class="edge">
<title>&#45;4&#45;&gt;3</title>
<path fill="none" stroke="green" stroke-width="0.37" d="M3495.06,-242.03C3626.43,-233.95 4787.45,-161.13 4835,-108.12 4847.59,-94.09 4846.11,-80.94 4835,-65.7 4805.12,-24.71 4740.98,-16.69 4705.28,-15.56"/>
<polygon fill="green" stroke="green" stroke-width="0.37" points="4705.24,-12.06 4695.19,-15.4 4705.13,-19.06 4705.24,-12.06"/>
</g>
<!-- &#45;4&#45;&gt;4 -->
<g id="edge110" class="edge">
<title>&#45;4&#45;&gt;4</title>
<path fill="none" stroke="red" stroke-width="0.84" stroke-dasharray="1,5" d="M3495.08,-237.44C3511.92,-229.27 3541.74,-211.89 3554,-186.55 3562.21,-169.58 3565.62,-158.98 3554,-144.12 3478.39,-47.45 3063.91,-21.91 2957.11,-16.89"/>
<polygon fill="red" stroke="red" stroke-width="0.84" points="2957.1,-13.39 2946.95,-16.43 2956.79,-20.38 2957.1,-13.39"/>
</g>
<!-- &#45;4&#45;&gt;5 -->
<g id="edge111" class="edge">
<title>&#45;4&#45;&gt;5</title>
<path fill="none" stroke="green" stroke-width="0.25" stroke-dasharray="1,5" d="M3480.49,-234.46C3470.56,-202.21 3433.07,-86.12 3402,-65.7 3323.62,-14.17 1806.87,-42.86 1714,-29.7 1704.56,-28.36 1694.38,-25.89 1685.55,-23.4"/>
<polygon fill="green" stroke="green" stroke-width="0.25" points="1686.52,-20.03 1675.94,-20.53 1684.52,-26.74 1686.52,-20.03"/>
</g>
<!-- &#45;4&#45;&gt;6 -->
<g id="edge112" class="edge">
<title>&#45;4&#45;&gt;6</title>
<path fill="none" stroke="green" stroke-width="0.26" d="M3470.87,-235.81C3421.2,-207.73 3227.58,-102.55 3053,-65.7 2899.12,-33.22 1795.18,-35.09 1638,-29.7 1527.69,-25.92 1396.13,-19.71 1342.08,-17.08"/>
<polygon fill="green" stroke="green" stroke-width="0.26" points="1342.2,-13.58 1332.04,-16.59 1341.86,-20.58 1342.2,-13.58"/>
</g>
<!-- &#45;4&#45;&gt;8 -->
<g id="edge113" class="edge">
<title>&#45;4&#45;&gt;8</title>
<path fill="none" stroke="green" stroke-width="0.1" stroke-dasharray="1,5" d="M3495.1,-241.97C3522.61,-239.45 3589.69,-229.01 3618,-186.55 3627.71,-171.99 3633.37,-84.38 3617,-65.7 3575.4,-18.23 3371.66,-15.08 3299.44,-15.5"/>
<polygon fill="green" stroke="green" stroke-width="0.1" points="3298.99,-12 3289.02,-15.59 3299.05,-19 3298.99,-12"/>
</g>
<!-- &#45;4&#45;&gt;15 -->
<g id="edge12" class="edge">
<title>&#45;4&#45;&gt;15</title>
<path fill="none" stroke="red" stroke-width="0.37" d="M3470.89,-240.99C3404.77,-231.29 3086.84,-184.65 2990.03,-170.45"/>
<polygon fill="red" stroke="red" stroke-width="0.37" points="2990.5,-166.98 2980.1,-168.99 2989.49,-173.91 2990.5,-166.98"/>
</g>
<!-- &#45;4&#45;&gt;16 -->
<g id="edge13" class="edge">
<title>&#45;4&#45;&gt;16</title>
<path fill="none" stroke="red" stroke-width="0.12" d="M3470.8,-240.19C3415.38,-228.54 3181.64,-179.71 2989,-144.12 2877.27,-123.49 2743.77,-101.68 2686.44,-92.46"/>
<polygon fill="red" stroke="red" stroke-width="0.12" points="2686.76,-88.96 2676.33,-90.83 2685.65,-95.88 2686.76,-88.96"/>
</g>
<!-- &#45;4&#45;&gt;17 -->
<g id="edge14" class="edge">
<title>&#45;4&#45;&gt;17</title>
<path fill="none" stroke="red" stroke-width="0.58" d="M3470.93,-242.06C3423.98,-239.35 3249.09,-229.35 3105,-222.55 2564.23,-197.04 1903.49,-172.65 1758.85,-167.38"/>
<polygon fill="red" stroke="red" stroke-width="0.58" points="1758.73,-163.88 1748.61,-167.01 1758.47,-170.87 1758.73,-163.88"/>
</g>
<!-- &#45;4&#45;&gt;18 -->
<g id="edge15" class="edge">
<title>&#45;4&#45;&gt;18</title>
<path fill="none" stroke="green" stroke-width="0.37" d="M3470.69,-241.65C3378.77,-233.37 2799.66,-181.18 2663.6,-168.92"/>
<polygon fill="green" stroke="green" stroke-width="0.37" points="2663.81,-165.42 2653.53,-168.01 2663.18,-172.39 2663.81,-165.42"/>
</g>
<!-- 241 -->
<g id="node31" class="node">
<title>241</title>
<ellipse fill="white" stroke="black" cx="4083" cy="-165.34" rx="21.43" ry="21.43"/>
<text text-anchor="middle" x="4083" y="-163.14" font-family="Times New Roman,serif" font-size="9.00">241</text>
</g>
<!-- &#45;4&#45;&gt;241 -->
<g id="edge185" class="edge">
<title>&#45;4&#45;&gt;241</title>
<path fill="none" stroke="green" stroke-width="0.59" d="M3495.37,-242.2C3553.65,-239.36 3806.63,-225.28 4010,-186.55 4024.37,-183.81 4040.04,-179.64 4053.16,-175.79"/>
<polygon fill="green" stroke="green" stroke-width="0.59" points="4054.5,-179.04 4063.07,-172.81 4052.48,-172.34 4054.5,-179.04"/>
</g>
<!-- &#45;5 -->
<g id="node5" class="node">
<title>&#45;5</title>
<polygon fill="lightgray" stroke="black" points="2693,-252.76 2669,-252.76 2669,-234.76 2693,-234.76 2693,-252.76"/>
<text text-anchor="middle" x="2681" y="-241.56" font-family="Times New Roman,serif" font-size="9.00">&#45;5</text>
</g>
<!-- &#45;5&#45;&gt;0 -->
<g id="edge114" class="edge">
<title>&#45;5&#45;&gt;0</title>
<path fill="none" stroke="green" stroke-width="0.24" stroke-dasharray="1,5" d="M2684.27,-234.42C2694.34,-207.29 2721.99,-120.12 2685,-65.7 2662.38,-32.43 2613.76,-21.36 2583.97,-17.68"/>
<polygon fill="green" stroke="green" stroke-width="0.24" points="2584.24,-14.19 2573.93,-16.63 2583.51,-21.15 2584.24,-14.19"/>
</g>
<!-- &#45;5&#45;&gt;1 -->
<g id="edge115" class="edge">
<title>&#45;5&#45;&gt;1</title>
<path fill="none" stroke="red" stroke-width="0.14" d="M2668.98,-241.1C2620.65,-234.41 2435.88,-208.75 2284,-186.55 1927.32,-134.43 1839.8,-109.48 1482,-65.7 1288.26,-41.99 1053.39,-23.42 977.74,-17.69"/>
<polygon fill="red" stroke="red" stroke-width="0.14" points="977.99,-14.2 967.76,-16.94 977.47,-21.18 977.99,-14.2"/>
</g>
<!-- &#45;5&#45;&gt;2 -->
<g id="edge116" class="edge">
<title>&#45;5&#45;&gt;2</title>
<path fill="none" stroke="green" stroke-width="0.75" d="M2670.68,-234.64C2645.35,-215.2 2577.41,-165.97 2512,-144.12 2381.28,-100.47 2339.83,-131.48 2204,-108.12 2120.44,-93.75 2101.1,-82.56 2018,-65.7 1923.98,-46.62 1811.38,-27.78 1762.57,-19.81"/>
<polygon fill="green" stroke="green" stroke-width="0.75" points="1763.05,-16.35 1752.62,-18.2 1761.93,-23.26 1763.05,-16.35"/>
</g>
<!-- &#45;5&#45;&gt;3 -->
<g id="edge117" class="edge">
<title>&#45;5&#45;&gt;3</title>
<path fill="none" stroke="green" stroke-width="0.25" d="M2693.2,-242.11C2740.65,-239.55 2917.42,-230.05 3063,-222.55 3382.53,-206.1 3464.95,-229.57 3782,-186.55 3867.74,-174.92 3886.28,-155.87 3972,-144.12 4047.4,-133.8 4597.04,-156.24 4656,-108.12 4675.88,-91.9 4680.48,-61.5 4681.02,-40.04"/>
<polygon fill="green" stroke="green" stroke-width="0.25" points="4684.52,-39.74 4680.99,-29.75 4677.52,-39.76 4684.52,-39.74"/>
</g>
<!-- &#45;5&#45;&gt;4 -->
<g id="edge118" class="edge">
<title>&#45;5&#45;&gt;4</title>
<path fill="none" stroke="red" stroke-width="0.35" d="M2689.93,-234.69C2726.33,-201.78 2863.88,-77.43 2913.78,-32.32"/>
<polygon fill="red" stroke="red" stroke-width="0.35" points="2916.19,-34.86 2921.27,-25.55 2911.5,-29.66 2916.19,-34.86"/>
</g>
<!-- &#45;5&#45;&gt;5 -->
<g id="edge119" class="edge">
<title>&#45;5&#45;&gt;5</title>
<path fill="none" stroke="red" stroke-width="0.14" d="M2668.76,-238.68C2623.39,-223.68 2460.29,-171.15 2322,-144.12 2188.47,-118.03 2138.74,-170.85 2018,-108.12 1995.54,-96.46 2002.37,-77.55 1980,-65.7 1874.59,-9.82 1830.98,-53.1 1714,-29.7 1704.65,-27.83 1694.49,-25.25 1685.65,-22.82"/>
<polygon fill="red" stroke="red" stroke-width="0.14" points="1686.59,-19.45 1676.01,-20.09 1684.68,-26.18 1686.59,-19.45"/>
</g>
<!-- &#45;5&#45;&gt;6 -->
<g id="edge120" class="edge">
<title>&#45;5&#45;&gt;6</title>
<path fill="none" stroke="red" stroke-width="0.28" stroke-dasharray="1,5" d="M2668.86,-241.96C2613.4,-238.1 2384.22,-220.37 2322,-186.55 2299.76,-174.46 2306.46,-155.79 2284,-144.12 2163.26,-81.4 2100.74,-170.85 1980,-108.12 1957.54,-96.46 1964.68,-76.94 1942,-65.7 1887.48,-38.69 1451.5,-20.84 1341.92,-16.75"/>
<polygon fill="red" stroke="red" stroke-width="0.28" points="1341.94,-13.24 1331.81,-16.37 1341.68,-20.24 1341.94,-13.24"/>
</g>
<!-- &#45;5&#45;&gt;7 -->
<g id="edge121" class="edge">
<title>&#45;5&#45;&gt;7</title>
<path fill="none" stroke="green" stroke-width="0.59" stroke-dasharray="1,5" d="M2693.17,-241.44C2777.93,-232.25 3288.99,-177.35 3706,-144.12 3769.26,-139.08 4232.56,-154.39 4276,-108.12 4336.16,-44.05 4147.98,-23.02 4078.07,-17.52"/>
<polygon fill="green" stroke="green" stroke-width="0.59" points="4078.15,-14.02 4067.92,-16.77 4077.63,-21 4078.15,-14.02"/>
</g>
<!-- &#45;5&#45;&gt;8 -->
<g id="edge122" class="edge">
<title>&#45;5&#45;&gt;8</title>
<path fill="none" stroke="green" stroke-width="0.16" d="M2693.28,-242.81C2747.02,-242.71 2966.41,-238.94 3136,-186.55 3208.63,-164.11 3248.45,-173.04 3288,-108.12 3301.13,-86.58 3293.11,-57.11 3284.81,-37.32"/>
<polygon fill="green" stroke="green" stroke-width="0.16" points="3287.99,-35.87 3280.68,-28.21 3281.62,-38.76 3287.99,-35.87"/>
</g>
<!-- &#45;5&#45;&gt;15 -->
<g id="edge16" class="edge">
<title>&#45;5&#45;&gt;15</title>
<path fill="none" stroke="green" stroke-width="0.24" d="M2693.39,-239.56C2725.98,-231.11 2816.75,-207.44 2892,-186.55 2906.14,-182.63 2921.83,-178.11 2934.78,-174.34"/>
<polygon fill="green" stroke="green" stroke-width="0.24" points="2935.86,-177.67 2944.48,-171.51 2933.9,-170.95 2935.86,-177.67"/>
</g>
<!-- &#45;5&#45;&gt;16 -->
<g id="edge17" class="edge">
<title>&#45;5&#45;&gt;16</title>
<path fill="none" stroke="green" stroke-width="0.61" d="M2679.76,-234.44C2676.48,-212.35 2667.44,-151.49 2662.1,-115.53"/>
<polygon fill="green" stroke="green" stroke-width="0.61" points="2665.51,-114.62 2660.57,-105.24 2658.58,-115.65 2665.51,-114.62"/>
</g>
<!-- &#45;5&#45;&gt;17 -->
<g id="edge18" class="edge">
<title>&#45;5&#45;&gt;17</title>
<path fill="none" stroke="red" stroke-width="0.62" d="M2668.98,-241.8C2571.12,-233.93 1905.32,-180.43 1758.58,-168.63"/>
<polygon fill="red" stroke="red" stroke-width="0.62" points="1758.8,-165.14 1748.55,-167.83 1758.24,-172.12 1758.8,-165.14"/>
</g>
<!-- &#45;5&#45;&gt;18 -->
<g id="edge19" class="edge">
<title>&#45;5&#45;&gt;18</title>
<path fill="none" stroke="green" stroke-width="0.47" d="M2676.08,-234.59C2669.78,-224.13 2658.6,-205.56 2649.5,-190.43"/>
<polygon fill="green" stroke="green" stroke-width="0.47" points="2652.31,-188.31 2644.16,-181.55 2646.32,-191.92 2652.31,-188.31"/>
</g>
<!-- &#45;6 -->
<g id="node6" class="node">
<title>&#45;6</title>
<polygon fill="lightgray" stroke="black" points="1940,-252.76 1916,-252.76 1916,-234.76 1940,-234.76 1940,-252.76"/>
<text text-anchor="middle" x="1928" y="-241.56" font-family="Times New Roman,serif" font-size="9.00">&#45;6</text>
</g>
<!-- &#45;6&#45;&gt;0 -->
<g id="edge123" class="edge">
<title>&#45;6&#45;&gt;0</title>
<path fill="none" stroke="green" stroke-width="0.4" stroke-dasharray="1,5" d="M1923.13,-234.51C1912.94,-216.03 1892.05,-170.87 1914,-144.12 1994.88,-45.57 2425.52,-21.35 2534.12,-16.77"/>
<polygon fill="green" stroke="green" stroke-width="0.4" points="2534.29,-20.26 2544.14,-16.36 2534.01,-13.27 2534.29,-20.26"/>
</g>
<!-- &#45;6&#45;&gt;1 -->
<g id="edge124" class="edge">
<title>&#45;6&#45;&gt;1</title>
<path fill="none" stroke="green" stroke-width="0.35" d="M1915.98,-240.89C1890.56,-236.98 1829.49,-227.88 1778,-222.55 1596.08,-203.74 1083.33,-245.85 963,-108.12 946.82,-89.61 946.38,-60.39 948.66,-39.8"/>
<polygon fill="green" stroke="green" stroke-width="0.35" points="952.16,-40.03 950.07,-29.64 945.23,-39.06 952.16,-40.03"/>
</g>
<!-- &#45;6&#45;&gt;2 -->
<g id="edge125" class="edge">
<title>&#45;6&#45;&gt;2</title>
<path fill="none" stroke="red" stroke-width="0.24" d="M1915.93,-236.74C1875.41,-216.27 1745.67,-148.39 1724,-108.12 1712.16,-86.13 1719.66,-57.17 1727.49,-37.61"/>
<polygon fill="red" stroke="red" stroke-width="0.24" points="1730.75,-38.89 1731.52,-28.32 1724.33,-36.1 1730.75,-38.89"/>
</g>
<!-- &#45;6&#45;&gt;3 -->
<g id="edge126" class="edge">
<title>&#45;6&#45;&gt;3</title>
<path fill="none" stroke="green" stroke-width="0.91" d="M1940.07,-242.2C2042.71,-237.4 2770.35,-203.15 2989,-186.55 3165.57,-173.15 3605.81,-125.89 3782,-108.12 4128.39,-73.2 4549.79,-29.41 4655.2,-18.43"/>
<polygon fill="green" stroke="green" stroke-width="0.91" points="4655.61,-21.91 4665.19,-17.39 4654.88,-14.95 4655.61,-21.91"/>
</g>
<!-- &#45;6&#45;&gt;4 -->
<g id="edge127" class="edge">
<title>&#45;6&#45;&gt;4</title>
<path fill="none" stroke="red" stroke-width="0.46" d="M1927.25,-234.66C1925.99,-215.69 1925.76,-168.19 1952,-144.12 1988.55,-110.6 2758.5,-33 2907.25,-18.28"/>
<polygon fill="red" stroke="red" stroke-width="0.46" points="2907.62,-21.76 2917.23,-17.3 2906.93,-14.8 2907.62,-21.76"/>
</g>
<!-- &#45;6&#45;&gt;5 -->
<g id="edge128" class="edge">
<title>&#45;6&#45;&gt;5</title>
<path fill="none" stroke="red" stroke-width="0.76" d="M1915.99,-240.59C1853.59,-229.34 1559.84,-176.97 1318,-144.12 1245.56,-134.29 1039.78,-162.57 991,-108.12 978.42,-94.08 978.17,-79.52 991,-65.7 1013.42,-41.55 1517.89,-21.23 1636.97,-16.76"/>
<polygon fill="red" stroke="red" stroke-width="0.76" points="1637.11,-20.26 1646.97,-16.39 1636.85,-13.27 1637.11,-20.26"/>
</g>
<!-- &#45;6&#45;&gt;6 -->
<g id="edge129" class="edge">
<title>&#45;6&#45;&gt;6</title>
<path fill="none" stroke="green" stroke-width="0.33" d="M1915.97,-240.91C1890.55,-237.05 1829.48,-228.03 1778,-222.55 1676.04,-211.7 1409.91,-232 1318,-186.55 1295.31,-175.33 1302.46,-155.8 1280,-144.12 1219.83,-112.85 1022.03,-158.82 977,-108.12 964.48,-94.03 964.67,-79.97 977,-65.7 1017.91,-18.35 1220.08,-15.13 1291.75,-15.51"/>
<polygon fill="green" stroke="green" stroke-width="0.33" points="1292.06,-19.01 1302.09,-15.59 1292.12,-12.01 1292.06,-19.01"/>
</g>
<!-- &#45;6&#45;&gt;7 -->
<g id="edge130" class="edge">
<title>&#45;6&#45;&gt;7</title>
<path fill="none" stroke="green" stroke-width="0.29" d="M1940.05,-240.85C2006.71,-230.32 2337,-178.57 2608,-144.12 2926.45,-103.65 3006.25,-94.11 3326,-65.7 3600.88,-41.27 3935.15,-22.28 4028.03,-17.2"/>
<polygon fill="green" stroke="green" stroke-width="0.29" points="4028.34,-20.68 4038.14,-16.64 4027.96,-13.69 4028.34,-20.68"/>
</g>
<!-- &#45;6&#45;&gt;8 -->
<g id="edge131" class="edge">
<title>&#45;6&#45;&gt;8</title>
<path fill="none" stroke="green" stroke-width="0.56" d="M1940.29,-235.47C1971.89,-217.05 2059.08,-168.4 2138,-144.12 2244.03,-111.51 2520.83,-78.71 2631,-65.7 2870.68,-37.39 3162.6,-21.41 3248.87,-17.07"/>
<polygon fill="green" stroke="green" stroke-width="0.56" points="3249.19,-20.56 3259,-16.57 3248.84,-13.57 3249.19,-20.56"/>
</g>
<!-- &#45;6&#45;&gt;15 -->
<g id="edge20" class="edge">
<title>&#45;6&#45;&gt;15</title>
<path fill="none" stroke="green" stroke-width="0.3" d="M1940.33,-241.85C2044.58,-234.15 2778.33,-179.91 2933.3,-168.46"/>
<polygon fill="green" stroke="green" stroke-width="0.3" points="2933.73,-171.94 2943.44,-167.71 2933.21,-164.96 2933.73,-171.94"/>
</g>
<!-- &#45;6&#45;&gt;16 -->
<g id="edge21" class="edge">
<title>&#45;6&#45;&gt;16</title>
<path fill="none" stroke="green" stroke-width="0.31" d="M1940.13,-239.33C1988.92,-225.63 2175.65,-174.13 2332,-144.12 2444.84,-122.47 2475.64,-132.12 2588,-108.12 2602.35,-105.06 2618.07,-100.62 2630.96,-96.69"/>
<polygon fill="green" stroke="green" stroke-width="0.31" points="2632.12,-99.99 2640.63,-93.67 2630.04,-93.31 2632.12,-99.99"/>
</g>
<!-- &#45;6&#45;&gt;17 -->
<g id="edge22" class="edge">
<title>&#45;6&#45;&gt;17</title>
<path fill="none" stroke="green" stroke-width="0.28" d="M1915.88,-238.75C1878.86,-226.47 1769.3,-190.03 1762,-186.55 1759.18,-185.21 1756.31,-183.67 1753.5,-182.05"/>
<polygon fill="green" stroke="green" stroke-width="0.28" points="1755.23,-179.01 1744.88,-176.77 1751.58,-184.98 1755.23,-179.01"/>
</g>
<!-- &#45;6&#45;&gt;18 -->
<g id="edge23" class="edge">
<title>&#45;6&#45;&gt;18</title>
<path fill="none" stroke="green" stroke-width="0.3" d="M1940.27,-241.44C2021.8,-232.62 2485.63,-182.48 2606.31,-169.44"/>
<polygon fill="green" stroke="green" stroke-width="0.3" points="2607.02,-172.88 2616.58,-168.33 2606.26,-165.92 2607.02,-172.88"/>
</g>
<!-- &#45;7 -->
<g id="node7" class="node">
<title>&#45;7</title>
<polygon fill="lightgray" stroke="black" points="3096,-252.76 3072,-252.76 3072,-234.76 3096,-234.76 3096,-252.76"/>
<text text-anchor="middle" x="3084" y="-241.56" font-family="Times New Roman,serif" font-size="9.00">&#45;7</text>
</g>
<!-- &#45;7&#45;&gt;0 -->
<g id="edge132" class="edge">
<title>&#45;7&#45;&gt;0</title>
<path fill="none" stroke="green" stroke-width="0.22" d="M3096.28,-241.66C3122.89,-238.53 3185.59,-226.99 3212,-186.55 3246.69,-133.43 3193.31,-92.93 3136,-65.7 3085.62,-41.76 2689.01,-21.86 2584.28,-16.99"/>
<polygon fill="green" stroke="green" stroke-width="0.22" points="2584.18,-13.48 2574.03,-16.52 2583.86,-20.48 2584.18,-13.48"/>
</g>
<!-- &#45;7&#45;&gt;1 -->
<g id="edge133" class="edge">
<title>&#45;7&#45;&gt;1</title>
<path fill="none" stroke="green" stroke-width="0.19" d="M3078.64,-234.68C3065.65,-215.75 3030.48,-168.34 2989,-144.12 2868.49,-73.79 2823.19,-85.05 2685,-65.7 2378.55,-22.77 1602.27,-40 1293,-29.7 1175.1,-25.77 1034.26,-19.54 978,-16.99"/>
<polygon fill="green" stroke="green" stroke-width="0.19" points="978.06,-13.49 967.91,-16.54 977.74,-20.49 978.06,-13.49"/>
</g>
<!-- &#45;7&#45;&gt;2 -->
<g id="edge134" class="edge">
<title>&#45;7&#45;&gt;2</title>
<path fill="none" stroke="green" stroke-width="0.19" d="M3088.3,-234.66C3102.48,-206.74 3144.23,-113.65 3098,-65.7 3073.9,-40.69 1946.15,-19.56 1763.01,-16.29"/>
<polygon fill="green" stroke="green" stroke-width="0.19" points="1763.05,-12.79 1752.99,-16.11 1762.92,-19.79 1763.05,-12.79"/>
</g>
<!-- &#45;7&#45;&gt;3 -->
<g id="edge135" class="edge">
<title>&#45;7&#45;&gt;3</title>
<path fill="none" stroke="red" stroke-width="0.18" d="M3096.22,-242.14C3199.79,-236.8 3927.79,-198.92 3972,-186.55 4011.14,-175.6 4013.83,-154.94 4053,-144.12 4121.76,-125.15 4644.99,-159.96 4694,-108.12 4711.87,-89.22 4701.82,-57.73 4691.84,-36.88"/>
<polygon fill="red" stroke="red" stroke-width="0.18" points="4694.89,-35.16 4687.21,-27.86 4688.66,-38.36 4694.89,-35.16"/>
</g>
<!-- &#45;7&#45;&gt;4 -->
<g id="edge136" class="edge">
<title>&#45;7&#45;&gt;4</title>
<path fill="none" stroke="red" stroke-width="0.38" d="M3096.15,-241.82C3147.07,-237.38 3338.32,-215.74 3288,-144.12 3209.65,-32.61 3024.51,-17.59 2957.1,-15.91"/>
<polygon fill="red" stroke="red" stroke-width="0.38" points="2957.03,-12.41 2946.98,-15.74 2956.92,-19.41 2957.03,-12.41"/>
</g>
<!-- &#45;7&#45;&gt;5 -->
<g id="edge137" class="edge">
<title>&#45;7&#45;&gt;5</title>
<path fill="none" stroke="red" stroke-width="0.14" d="M3086.08,-234.42C3092.67,-205.74 3109.87,-110.45 3060,-65.7 3004.33,-15.74 1788.04,-40.4 1714,-29.7 1704.56,-28.33 1694.39,-25.86 1685.56,-23.37"/>
<polygon fill="red" stroke="red" stroke-width="0.14" points="1686.52,-20.01 1675.94,-20.51 1684.53,-26.72 1686.52,-20.01"/>
</g>
<!-- &#45;7&#45;&gt;6 -->
<g id="edge138" class="edge">
<title>&#45;7&#45;&gt;6</title>
<path fill="none" stroke="red" stroke-width="0.12" d="M3084.1,-234.59C3083.95,-205.61 3079.11,-107.34 3022,-65.7 2959.85,-20.38 1714.87,-32.36 1638,-29.7 1527.69,-25.88 1396.14,-19.69 1342.08,-17.08"/>
<polygon fill="red" stroke="red" stroke-width="0.12" points="1342.2,-13.58 1332.04,-16.59 1341.86,-20.57 1342.2,-13.58"/>
</g>
<!-- &#45;7&#45;&gt;7 -->
<g id="edge139" class="edge">
<title>&#45;7&#45;&gt;7</title>
<path fill="none" stroke="green" stroke-width="0.63" d="M3096.04,-241.55C3153.88,-235.69 3409.07,-209.72 3618,-186.55 3779.88,-168.6 3820.05,-161.44 3982,-144.12 4023.07,-139.73 4324.24,-138.71 4352,-108.12 4430.87,-21.21 4163.7,-15.27 4078.36,-15.54"/>
<polygon fill="green" stroke="green" stroke-width="0.63" points="4078.2,-12.04 4068.23,-15.6 4078.25,-19.04 4078.2,-12.04"/>
</g>
<!-- &#45;7&#45;&gt;8 -->
<g id="edge140" class="edge">
<title>&#45;7&#45;&gt;8</title>
<path fill="none" stroke="red" stroke-width="0.41" d="M3096.13,-242.37C3170.02,-239.84 3557.74,-224.81 3592,-186.55 3627.83,-146.54 3626.92,-106.51 3592,-65.7 3554.23,-21.55 3368.04,-16.23 3299.44,-15.79"/>
<polygon fill="red" stroke="red" stroke-width="0.41" points="3299.13,-12.29 3289.12,-15.76 3299.11,-19.29 3299.13,-12.29"/>
</g>
<!-- &#45;7&#45;&gt;15 -->
<g id="edge24" class="edge">
<title>&#45;7&#45;&gt;15</title>
<path fill="none" stroke="red" stroke-width="0.43" d="M3071.76,-235.15C3054.43,-224.36 3021.77,-203.99 2994,-186.55 2991.36,-184.89 2988.6,-183.15 2985.85,-181.42"/>
<polygon fill="red" stroke="red" stroke-width="0.43" points="2987.61,-178.4 2977.29,-176.02 2983.88,-184.32 2987.61,-178.4"/>
</g>
<!-- &#45;7&#45;&gt;16 -->
<g id="edge25" class="edge">
<title>&#45;7&#45;&gt;16</title>
<path fill="none" stroke="red" stroke-width="0.11" d="M3071.82,-238.74C3046.14,-230.11 2984.7,-208.84 2935,-186.55 2897.92,-169.92 2892.19,-158.03 2854,-144.12 2783.88,-118.59 2759.03,-136.48 2690,-108.12 2687.06,-106.92 2684.08,-105.44 2681.19,-103.84"/>
<polygon fill="red" stroke="red" stroke-width="0.11" points="2682.76,-100.7 2672.39,-98.5 2679.12,-106.68 2682.76,-100.7"/>
</g>
<!-- &#45;7&#45;&gt;17 -->
<g id="edge26" class="edge">
<title>&#45;7&#45;&gt;17</title>
<path fill="none" stroke="red" stroke-width="0.63" d="M3071.88,-242.08C2949.8,-235.19 1942.64,-178.34 1758.76,-167.96"/>
<polygon fill="red" stroke="red" stroke-width="0.63" points="1758.72,-164.45 1748.54,-167.38 1758.32,-171.44 1758.72,-164.45"/>
</g>
<!-- &#45;7&#45;&gt;18 -->
<g id="edge27" class="edge">
<title>&#45;7&#45;&gt;18</title>
<path fill="none" stroke="red" stroke-width="0.16" d="M3071.99,-240.72C3012.62,-230.61 2749.83,-185.88 2662.97,-171.1"/>
<polygon fill="red" stroke="red" stroke-width="0.16" points="2663.5,-167.64 2653.05,-169.41 2662.32,-174.54 2663.5,-167.64"/>
</g>
<!-- &#45;8 -->
<g id="node8" class="node">
<title>&#45;8</title>
<polygon fill="lightgray" stroke="black" points="1636,-252.76 1612,-252.76 1612,-234.76 1636,-234.76 1636,-252.76"/>
<text text-anchor="middle" x="1624" y="-241.56" font-family="Times New Roman,serif" font-size="9.00">&#45;8</text>
</g>
<!-- &#45;8&#45;&gt;0 -->
<g id="edge141" class="edge">
<title>&#45;8&#45;&gt;0</title>
<path fill="none" stroke="red" stroke-width="0.24" d="M1617.33,-234.59C1603.87,-217.01 1576.18,-174.76 1594,-144.12 1629.48,-83.15 1664.37,-85.77 1732,-65.7 1887.78,-19.47 2412.8,-16.01 2533.92,-15.84"/>
<polygon fill="red" stroke="red" stroke-width="0.24" points="2534.07,-19.34 2544.06,-15.83 2534.06,-12.34 2534.07,-19.34"/>
</g>
<!-- &#45;8&#45;&gt;1 -->
<g id="edge142" class="edge">
<title>&#45;8&#45;&gt;1</title>
<path fill="none" stroke="red" stroke-width="0.67" stroke-dasharray="1,5" d="M1611.76,-240.02C1591.38,-235.58 1549.18,-226.86 1513,-222.55 1443.49,-214.26 940.51,-227.87 884,-186.55 839.32,-153.89 824.97,-112.82 854,-65.7 870.11,-39.56 904.6,-26.64 928.29,-20.61"/>
<polygon fill="red" stroke="red" stroke-width="0.67" points="929.36,-23.96 938.32,-18.31 927.79,-17.14 929.36,-23.96"/>
</g>
<!-- &#45;8&#45;&gt;2 -->
<g id="edge143" class="edge">
<title>&#45;8&#45;&gt;2</title>
<path fill="none" stroke="red" stroke-width="0.13" d="M1611.8,-240.98C1542.82,-230.46 1208.2,-173.2 1306,-65.7 1363.08,-2.96 1602.51,-44.66 1686,-29.7 1695.39,-28.02 1705.55,-25.47 1714.39,-23.02"/>
<polygon fill="red" stroke="red" stroke-width="0.13" points="1715.38,-26.38 1724.02,-20.25 1713.44,-19.66 1715.38,-26.38"/>
</g>
<!-- &#45;8&#45;&gt;4 -->
<g id="edge144" class="edge">
<title>&#45;8&#45;&gt;4</title>
<path fill="none" stroke="red" stroke-width="0.32" d="M1625.27,-234.59C1628.69,-215.48 1639.96,-167.68 1670,-144.12 1811.19,-33.42 1888.02,-88.34 2066,-65.7 2235.31,-44.16 2783.68,-21.69 2907.15,-16.82"/>
<polygon fill="red" stroke="red" stroke-width="0.32" points="2907.29,-20.31 2917.15,-16.42 2907.02,-13.32 2907.29,-20.31"/>
</g>
<!-- &#45;8&#45;&gt;5 -->
<g id="edge145" class="edge">
<title>&#45;8&#45;&gt;5</title>
<path fill="none" stroke="red" stroke-width="0.39" stroke-dasharray="1,5" d="M1611.68,-240.52C1591.2,-236.78 1548.85,-229.07 1513,-222.55 1370.84,-196.72 783.14,-171.08 882,-65.7 895.24,-51.59 1504.14,-23.05 1636.7,-16.99"/>
<polygon fill="red" stroke="red" stroke-width="0.39" points="1637.22,-20.47 1647.05,-16.52 1636.9,-13.48 1637.22,-20.47"/>
</g>
<!-- &#45;8&#45;&gt;6 -->
<g id="edge146" class="edge">
<title>&#45;8&#45;&gt;6</title>
<path fill="none" stroke="red" stroke-width="0.31" d="M1611.75,-240.06C1591.37,-235.66 1549.16,-227.01 1513,-222.55 1391.22,-207.53 1076.17,-231.51 962,-186.55 910.74,-166.37 889.61,-157.9 866,-108.12 857.92,-91.09 853.42,-79.75 866,-65.7 894.63,-33.73 1201.3,-20.07 1291.92,-16.71"/>
<polygon fill="red" stroke="red" stroke-width="0.31" points="1292.23,-20.2 1302.1,-16.34 1291.98,-13.2 1292.23,-20.2"/>
</g>
<!-- &#45;8&#45;&gt;7 -->
<g id="edge147" class="edge">
<title>&#45;8&#45;&gt;7</title>
<path fill="none" stroke="green" stroke-width="0.31" d="M1636.1,-238.92C1683.94,-223.88 1864.83,-168.69 2018,-144.12 2235.36,-109.26 2296.59,-153.5 2512,-108.12 2566.94,-96.55 2575.85,-76.23 2631,-65.7 2773.3,-38.51 3848.88,-19.29 4027.81,-16.27"/>
<polygon fill="green" stroke="green" stroke-width="0.31" points="4027.91,-19.77 4037.85,-16.1 4027.79,-12.77 4027.91,-19.77"/>
</g>
<!-- &#45;8&#45;&gt;8 -->
<g id="edge148" class="edge">
<title>&#45;8&#45;&gt;8</title>
<path fill="none" stroke="green" stroke-width="0.57" d="M1630.5,-234.5C1648.95,-211.03 1700.53,-145.61 1703,-144.12 1723.11,-132.04 2094.69,-68.39 2118,-65.7 2488.33,-22.98 2583.56,-45.81 2956,-29.7 3065.01,-24.98 3195.04,-19.3 3248.82,-16.95"/>
<polygon fill="green" stroke="green" stroke-width="0.57" points="3249.26,-20.44 3259.1,-16.5 3248.96,-13.44 3249.26,-20.44"/>
</g>
<!-- &#45;8&#45;&gt;15 -->
<g id="edge28" class="edge">
<title>&#45;8&#45;&gt;15</title>
<path fill="none" stroke="red" stroke-width="0.28" d="M1636.05,-239.47C1653.83,-234.77 1688.19,-226.3 1718,-222.55 2134.59,-170.22 2242.72,-208.67 2662,-186.55 2761.98,-181.28 2880.53,-172.56 2933.71,-168.52"/>
<polygon fill="red" stroke="red" stroke-width="0.28" points="2934.04,-172.01 2943.75,-167.75 2933.51,-165.03 2934.04,-172.01"/>
</g>
<!-- &#45;8&#45;&gt;16 -->
<g id="edge29" class="edge">
<title>&#45;8&#45;&gt;16</title>
<path fill="none" stroke="red" stroke-width="0.33" d="M1636.1,-239.79C1653.93,-235.49 1688.36,-227.5 1718,-222.55 1850.45,-200.41 1887.24,-217.12 2018,-186.55 2073.08,-173.68 2082.67,-155.91 2138,-144.12 2334.24,-102.33 2390.62,-144.14 2588,-108.12 2602.53,-105.47 2618.37,-101.03 2631.3,-96.99"/>
<polygon fill="red" stroke="red" stroke-width="0.33" points="2632.53,-100.27 2640.97,-93.87 2630.38,-93.61 2632.53,-100.27"/>
</g>
<!-- &#45;8&#45;&gt;17 -->
<g id="edge30" class="edge">
<title>&#45;8&#45;&gt;17</title>
<path fill="none" stroke="green" stroke-width="0.29" d="M1635.34,-234.59C1652.41,-222.28 1685.05,-198.75 1707.17,-182.8"/>
<polygon fill="green" stroke="green" stroke-width="0.29" points="1709.3,-185.58 1715.37,-176.89 1705.21,-179.9 1709.3,-185.58"/>
</g>
<!-- &#45;8&#45;&gt;18 -->
<g id="edge31" class="edge">
<title>&#45;8&#45;&gt;18</title>
<path fill="none" stroke="red" stroke-width="0.12" d="M1636.06,-239.56C1653.85,-234.97 1688.23,-226.64 1718,-222.55 1895.9,-198.11 2470.28,-173.18 2606.05,-167.52"/>
<polygon fill="red" stroke="red" stroke-width="0.12" points="2606.59,-171 2616.44,-167.09 2606.3,-164.01 2606.59,-171"/>
</g>
<!-- &#45;9 -->
<g id="node9" class="node">
<title>&#45;9</title>
<polygon fill="lightgray" stroke="black" points="3875,-252.76 3851,-252.76 3851,-234.76 3875,-234.76 3875,-252.76"/>
<text text-anchor="middle" x="3863" y="-241.56" font-family="Times New Roman,serif" font-size="9.00">&#45;9</text>
</g>
<!-- &#45;9&#45;&gt;0 -->
<g id="edge149" class="edge">
<title>&#45;9&#45;&gt;0</title>
<path fill="none" stroke="red" stroke-width="0.47" d="M3865.4,-234.57C3870.22,-216.2 3878.97,-171.26 3858,-144.12 3825.52,-102.08 3788.64,-136.94 3744,-108.12 3722.73,-94.4 3728.88,-76.52 3706,-65.7 3699.43,-62.59 2751.52,-23.72 2584.11,-16.87"/>
<polygon fill="red" stroke="red" stroke-width="0.47" points="2583.96,-13.37 2573.83,-16.45 2583.68,-20.36 2583.96,-13.37"/>
</g>
<!-- &#45;9&#45;&gt;1 -->
<g id="edge150" class="edge">
<title>&#45;9&#45;&gt;1</title>
<path fill="none" stroke="green" stroke-width="0.36" d="M3850.9,-240.04C3765.51,-220.96 3244.68,-106.93 2814,-65.7 2140.89,-1.26 1968.84,-51.46 1293,-29.7 1175.09,-25.9 1034.26,-19.6 978,-17.01"/>
<polygon fill="green" stroke="green" stroke-width="0.36" points="978.06,-13.51 967.91,-16.55 977.74,-20.51 978.06,-13.51"/>
</g>
<!-- &#45;9&#45;&gt;3 -->
<g id="edge151" class="edge">
<title>&#45;9&#45;&gt;3</title>
<path fill="none" stroke="red" stroke-width="0.17" d="M3875.01,-240.03C3894.59,-235.67 3934.65,-227.17 3969,-222.55 4168.59,-195.71 4738.57,-262.42 4868,-108.12 4880.12,-93.68 4879.5,-80.64 4868,-65.7 4848.13,-39.87 4751.34,-24.65 4704.92,-18.73"/>
<polygon fill="red" stroke="red" stroke-width="0.17" points="4705.15,-15.23 4694.8,-17.48 4704.3,-22.17 4705.15,-15.23"/>
</g>
<!-- &#45;9&#45;&gt;4 -->
<g id="edge152" class="edge">
<title>&#45;9&#45;&gt;4</title>
<path fill="none" stroke="red" stroke-width="0.14" d="M3870.38,-234.64C3886.01,-216.44 3919.2,-171.8 3896,-144.12 3833.5,-69.56 3102.06,-25.28 2956.94,-17.19"/>
<polygon fill="red" stroke="red" stroke-width="0.14" points="2956.99,-13.69 2946.81,-16.64 2956.6,-20.68 2956.99,-13.69"/>
</g>
<!-- &#45;9&#45;&gt;5 -->
<g id="edge153" class="edge">
<title>&#45;9&#45;&gt;5</title>
<path fill="none" stroke="green" stroke-width="0.5" d="M3852.68,-234.7C3826.96,-214.44 3758.35,-159.36 3706,-108.12 3687.91,-90.42 3691.02,-76.24 3668,-65.7 3569.28,-20.5 1821.52,-44.78 1714,-29.7 1704.56,-28.37 1694.38,-25.9 1685.55,-23.41"/>
<polygon fill="green" stroke="green" stroke-width="0.5" points="1686.52,-20.05 1675.94,-20.55 1684.52,-26.76 1686.52,-20.05"/>
</g>
<!-- &#45;9&#45;&gt;7 -->
<g id="edge154" class="edge">
<title>&#45;9&#45;&gt;7</title>
<path fill="none" stroke="red" stroke-width="0.25" d="M3875.05,-240.28C3894.68,-236.26 3934.81,-228.24 3969,-222.55 4192.59,-185.35 4332.48,-291.29 4466,-108.12 4477.11,-92.89 4478.51,-79.81 4466,-65.7 4440.12,-36.51 4163.82,-21.09 4078.17,-16.98"/>
<polygon fill="red" stroke="red" stroke-width="0.25" points="4078.19,-13.48 4068.04,-16.51 4077.86,-20.47 4078.19,-13.48"/>
</g>
<!-- &#45;9&#45;&gt;8 -->
<g id="edge155" class="edge">
<title>&#45;9&#45;&gt;8</title>
<path fill="none" stroke="green" stroke-width="0.19" stroke-dasharray="1,5" d="M3875.31,-240.44C3924.59,-231.07 4105.32,-196.15 4113,-186.55 4124.78,-171.83 4125.2,-158.5 4113,-144.12 4004.58,-16.42 3426.9,-14.37 3299.06,-15.51"/>
<polygon fill="green" stroke="green" stroke-width="0.19" points="3299.01,-12.01 3289.05,-15.62 3299.09,-19.01 3299.01,-12.01"/>
</g>
<!-- &#45;9&#45;&gt;15 -->
<g id="edge32" class="edge">
<title>&#45;9&#45;&gt;15</title>
<path fill="none" stroke="green" stroke-width="0.13" stroke-dasharray="1,5" d="M3850.94,-241.74C3756.21,-233.71 3131.39,-180.71 2990.29,-168.74"/>
<polygon fill="green" stroke="green" stroke-width="0.13" points="2990.52,-165.24 2980.26,-167.89 2989.93,-172.22 2990.52,-165.24"/>
</g>
<!-- &#45;9&#45;&gt;17 -->
<g id="edge33" class="edge">
<title>&#45;9&#45;&gt;17</title>
<path fill="none" stroke="green" stroke-width="0.61" d="M3850.92,-241.98C3805.45,-239.03 3640.27,-228.55 3504,-222.55 2794.96,-191.36 1925.77,-170.79 1758.56,-166.98"/>
<polygon fill="green" stroke="green" stroke-width="0.61" points="1758.44,-163.48 1748.36,-166.75 1758.28,-170.47 1758.44,-163.48"/>
</g>
<!-- &#45;9&#45;&gt;18 -->
<g id="edge34" class="edge">
<title>&#45;9&#45;&gt;18</title>
<path fill="none" stroke="green" stroke-width="0.56" stroke-dasharray="1,5" d="M3850.96,-242.07C3771.18,-237.43 3310.31,-210.56 2935,-186.55 2835.09,-180.16 2716.5,-172 2663.3,-168.31"/>
<polygon fill="green" stroke="green" stroke-width="0.56" points="2663.48,-164.81 2653.26,-167.61 2662.99,-171.8 2663.48,-164.81"/>
</g>
<!-- &#45;10 -->
<g id="node10" class="node">
<title>&#45;10</title>
<polygon fill="lightgray" stroke="black" points="4412.5,-252.76 4383.5,-252.76 4383.5,-234.76 4412.5,-234.76 4412.5,-252.76"/>
<text text-anchor="middle" x="4398" y="-241.56" font-family="Times New Roman,serif" font-size="9.00">&#45;10</text>
</g>
<!-- &#45;10&#45;&gt;0 -->
<g id="edge156" class="edge">
<title>&#45;10&#45;&gt;0</title>
<path fill="none" stroke="green" stroke-width="0.17" d="M4402.85,-234.67C4413.26,-216.13 4435.01,-170.19 4412,-144.12 4369.32,-95.77 4181.14,-138.04 4124,-108.12 4101.57,-96.38 4108.95,-76.38 4086,-65.7 4026.64,-38.08 2973.43,-32 2908,-29.7 2786.7,-25.44 2641.74,-19.37 2584.26,-16.93"/>
<polygon fill="green" stroke="green" stroke-width="0.17" points="2584.1,-13.42 2573.97,-16.49 2583.81,-20.41 2584.1,-13.42"/>
</g>
<!-- &#45;10&#45;&gt;1 -->
<g id="edge157" class="edge">
<title>&#45;10&#45;&gt;1</title>
<path fill="none" stroke="green" stroke-width="0.43" d="M4383.22,-237.48C4357.65,-228.19 4303.71,-207.87 4260,-186.55 4225.92,-169.94 4222.29,-155.08 4186,-144.12 3813.85,-31.81 1300.59,-29.93 1293,-29.7 1175.09,-26.05 1034.25,-19.67 978,-17.04"/>
<polygon fill="green" stroke="green" stroke-width="0.43" points="978.06,-13.53 967.91,-16.56 977.73,-20.53 978.06,-13.53"/>
</g>
<!-- &#45;10&#45;&gt;2 -->
<g id="edge158" class="edge">
<title>&#45;10&#45;&gt;2</title>
<path fill="none" stroke="green" stroke-width="0.29" d="M4395.55,-234.71C4389.24,-215.41 4370.43,-166.5 4336,-144.12 4241.88,-82.95 4184.96,-161.12 4086,-108.12 4063.69,-96.17 4071,-76.27 4048,-65.7 4034.32,-59.41 2012.93,-21.04 1763.21,-16.32"/>
<polygon fill="green" stroke="green" stroke-width="0.29" points="1763.03,-12.82 1752.96,-16.13 1762.89,-19.82 1763.03,-12.82"/>
</g>
<!-- &#45;10&#45;&gt;3 -->
<g id="edge159" class="edge">
<title>&#45;10&#45;&gt;3</title>
<path fill="none" stroke="red" stroke-width="0.48" d="M4412.73,-241.95C4482.66,-237.96 4781.31,-219.26 4868,-186.55 4925.54,-164.84 4953.38,-162.56 4982,-108.12 4990.78,-91.44 4994.2,-80.08 4982,-65.7 4946.49,-23.85 4771.68,-17.08 4705.48,-16.03"/>
<polygon fill="red" stroke="red" stroke-width="0.48" points="4705.17,-12.52 4695.12,-15.9 4705.08,-19.52 4705.17,-12.52"/>
</g>
<!-- &#45;10&#45;&gt;4 -->
<g id="edge160" class="edge">
<title>&#45;10&#45;&gt;4</title>
<path fill="none" stroke="red" stroke-width="0.91" d="M4412.84,-238.51C4433.96,-231.56 4471.92,-215.55 4488,-186.55 4497.14,-170.06 4500.26,-158.45 4488,-144.12 4451.29,-101.24 4042.17,-71.4 3986,-65.7 3933.21,-60.34 3112.57,-23.85 2957.26,-16.97"/>
<polygon fill="red" stroke="red" stroke-width="0.91" points="2957.01,-13.45 2946.87,-16.51 2956.71,-20.45 2957.01,-13.45"/>
</g>
<!-- &#45;10&#45;&gt;5 -->
<g id="edge161" class="edge">
<title>&#45;10&#45;&gt;5</title>
<path fill="none" stroke="red" stroke-width="0.36" d="M4388.48,-234.68C4376.06,-224.01 4353.82,-204.48 4336,-186.55 4318.15,-168.6 4320.31,-156.08 4298,-144.12 4199.04,-91.13 4146.96,-161.12 4048,-108.12 4025.69,-96.17 4033.03,-76.21 4010,-65.7 3893.94,-12.75 1840.36,-47.25 1714,-29.7 1704.56,-28.39 1694.38,-25.92 1685.55,-23.43"/>
<polygon fill="red" stroke="red" stroke-width="0.36" points="1686.52,-20.06 1675.93,-20.56 1684.52,-26.77 1686.52,-20.06"/>
</g>
<!-- &#45;10&#45;&gt;6 -->
<g id="edge162" class="edge">
<title>&#45;10&#45;&gt;6</title>
<path fill="none" stroke="red" stroke-width="0.52" stroke-dasharray="1,5" d="M4383.16,-236.31C4362.77,-227.04 4325.49,-208.61 4298,-186.55 4278.26,-170.71 4282.31,-156.08 4260,-144.12 4161.04,-91.13 4108.96,-161.12 4010,-108.12 3987.69,-96.17 3995.03,-76.2 3972,-65.7 3913.01,-38.79 1702.81,-31.6 1638,-29.7 1527.67,-26.47 1396.13,-19.96 1342.07,-17.17"/>
<polygon fill="red" stroke="red" stroke-width="0.52" points="1342.2,-13.67 1332.04,-16.65 1341.84,-20.66 1342.2,-13.67"/>
</g>
<!-- &#45;10&#45;&gt;7 -->
<g id="edge163" class="edge">
<title>&#45;10&#45;&gt;7</title>
<path fill="none" stroke="red" stroke-width="0.31" d="M4412.52,-242.02C4501.46,-237.02 4964.81,-204.04 4835,-65.7 4808.49,-37.44 4209.65,-19.99 4078.31,-16.5"/>
<polygon fill="red" stroke="red" stroke-width="0.31" points="4078.13,-12.99 4068.04,-16.23 4077.95,-19.99 4078.13,-12.99"/>
</g>
<!-- &#45;10&#45;&gt;8 -->
<g id="edge164" class="edge">
<title>&#45;10&#45;&gt;8</title>
<path fill="none" stroke="green" stroke-width="0.46" d="M4412.79,-241.35C4440.64,-237.81 4500.39,-225.77 4526,-186.55 4586.95,-93.21 4417.88,-73.83 4390,-65.7 4282.15,-34.24 3455.32,-18.89 3299.34,-16.26"/>
<polygon fill="green" stroke="green" stroke-width="0.46" points="3298.97,-12.75 3288.91,-16.09 3298.85,-19.75 3298.97,-12.75"/>
</g>
<!-- &#45;10&#45;&gt;15 -->
<g id="edge35" class="edge">
<title>&#45;10&#45;&gt;15</title>
<path fill="none" stroke="red" stroke-width="0.56" d="M4383.24,-241.94C4333.39,-239.18 4166.74,-229.95 4029,-222.55 3616.79,-200.4 3114.96,-174.28 2990.8,-167.83"/>
<polygon fill="red" stroke="red" stroke-width="0.56" points="2990.77,-164.33 2980.61,-167.3 2990.41,-171.32 2990.77,-164.33"/>
</g>
<!-- &#45;10&#45;&gt;16 -->
<g id="edge36" class="edge">
<title>&#45;10&#45;&gt;16</title>
<path fill="none" stroke="green" stroke-width="0.2" d="M4383.32,-237.88C4354.34,-228.22 4287.76,-205.93 4232,-186.55 4178.96,-168.12 4168.13,-154.76 4113,-144.12 3825.2,-88.61 2864.91,-87.55 2686.62,-87.84"/>
<polygon fill="green" stroke="green" stroke-width="0.2" points="2686.45,-84.34 2676.46,-87.86 2686.47,-91.34 2686.45,-84.34"/>
</g>
<!-- &#45;10&#45;&gt;18 -->
<g id="edge37" class="edge">
<title>&#45;10&#45;&gt;18</title>
<path fill="none" stroke="red" stroke-width="0.68" stroke-dasharray="1,5" d="M4383.24,-241.84C4333.41,-238.74 4166.81,-228.59 4029,-222.55 3542.98,-201.25 3420.88,-210.91 2935,-186.55 2835.01,-181.54 2716.46,-172.69 2663.28,-168.57"/>
<polygon fill="red" stroke="red" stroke-width="0.68" points="2663.49,-165.08 2653.25,-167.79 2662.95,-172.05 2663.49,-165.08"/>
</g>
<!-- 248 -->
<g id="node32" class="node">
<title>248</title>
<ellipse fill="white" stroke="black" cx="4805" cy="-86.91" rx="21.43" ry="21.43"/>
<text text-anchor="middle" x="4805" y="-84.71" font-family="Times New Roman,serif" font-size="9.00">248</text>
</g>
<!-- &#45;10&#45;&gt;248 -->
<g id="edge187" class="edge">
<title>&#45;10&#45;&gt;248</title>
<path fill="none" stroke="green" stroke-width="0.42" d="M4412.66,-240.97C4451.11,-235.94 4557.6,-219.8 4640,-186.55 4692.9,-165.2 4748.72,-128.39 4779.97,-106.28"/>
<polygon fill="green" stroke="green" stroke-width="0.42" points="4782.02,-109.12 4788.11,-100.46 4777.94,-103.43 4782.02,-109.12"/>
</g>
<!-- &#45;11 -->
<g id="node11" class="node">
<title>&#45;11</title>
<polygon fill="lightgray" stroke="black" points="2933.5,-331.19 2904.5,-331.19 2904.5,-313.19 2933.5,-313.19 2933.5,-331.19"/>
<text text-anchor="middle" x="2919" y="-319.99" font-family="Times New Roman,serif" font-size="9.00">&#45;11</text>
</g>
<!-- &#45;11&#45;&gt;0 -->
<g id="edge165" class="edge">
<title>&#45;11&#45;&gt;0</title>
<path fill="none" stroke="red" stroke-width="0.23" d="M2933.82,-320.58C2987.05,-317.48 3168.69,-298.72 3231,-186.55 3259.14,-135.88 3231.53,-95.8 3182,-65.7 3130.17,-34.2 2693.71,-19.7 2583.96,-16.53"/>
<polygon fill="red" stroke="red" stroke-width="0.23" points="2583.94,-13.03 2573.84,-16.24 2583.74,-20.03 2583.94,-13.03"/>
</g>
<!-- &#45;11&#45;&gt;1 -->
<g id="edge166" class="edge">
<title>&#45;11&#45;&gt;1</title>
<path fill="none" stroke="red" stroke-width="0.35" d="M2904.36,-320.93C2706.82,-317.4 576.16,-279 514,-264.98 347.32,-227.39 255.96,-251.49 163,-108.12 152.74,-92.3 150.09,-79.45 163,-65.7 189.82,-37.13 796.04,-19.9 927.85,-16.48"/>
<polygon fill="red" stroke="red" stroke-width="0.35" points="928.24,-19.97 938.14,-16.21 928.06,-12.97 928.24,-19.97"/>
</g>
<!-- &#45;11&#45;&gt;2 -->
<g id="edge167" class="edge">
<title>&#45;11&#45;&gt;2</title>
<path fill="none" stroke="green" stroke-width="0.34" d="M2904.3,-320.97C2736.34,-318.42 1184.45,-294.14 1093,-264.98 1033.01,-245.85 1012.04,-237.48 975,-186.55 942.89,-142.4 915.35,-105.24 953,-65.7 1009.23,-6.64 1605.43,-42.26 1686,-29.7 1695.42,-28.23 1705.6,-25.73 1714.43,-23.26"/>
<polygon fill="green" stroke="green" stroke-width="0.34" points="1715.44,-26.61 1724.05,-20.43 1713.47,-19.89 1715.44,-26.61"/>
</g>
<!-- &#45;11&#45;&gt;3 -->
<g id="edge168" class="edge">
<title>&#45;11&#45;&gt;3</title>
<path fill="none" stroke="red" stroke-width="0.4" d="M2933.72,-321C3094.14,-318.85 4515.44,-298.91 4699,-264.98 4803.55,-245.65 4835.73,-244.3 4925,-186.55 4977.88,-152.34 5039.95,-113.55 4999,-65.7 4961.11,-21.42 4774.33,-16.19 4705.52,-15.78"/>
<polygon fill="red" stroke="red" stroke-width="0.4" points="4705.18,-12.28 4695.17,-15.75 4705.16,-19.28 4705.18,-12.28"/>
</g>
<!-- &#45;11&#45;&gt;4 -->
<g id="edge169" class="edge">
<title>&#45;11&#45;&gt;4</title>
<path fill="none" stroke="red" stroke-width="0.13" d="M2933.72,-321.26C3080.43,-321.9 4277.2,-325.22 4422,-264.98 4469.16,-245.36 4485.65,-233.4 4506,-186.55 4513.51,-169.26 4517.62,-158.97 4506,-144.12 4416.54,-29.84 4332.71,-86.01 4189,-65.7 3775.47,-7.24 3667.29,-46.78 3250,-29.7 3140.98,-25.23 3010.95,-19.42 2957.18,-16.99"/>
<polygon fill="red" stroke="red" stroke-width="0.13" points="2957.05,-13.48 2946.9,-16.53 2956.73,-20.47 2957.05,-13.48"/>
</g>
<!-- &#45;11&#45;&gt;6 -->
<g id="edge170" class="edge">
<title>&#45;11&#45;&gt;6</title>
<path fill="none" stroke="red" stroke-width="0.3" d="M2904.14,-320.99C2747.78,-318.82 1401.74,-299.28 1002,-264.98 756.43,-243.9 660.77,-319.15 453,-186.55 403.86,-155.19 361.91,-108.03 402,-65.7 409.88,-57.38 1145.33,-23.63 1291.8,-16.99"/>
<polygon fill="red" stroke="red" stroke-width="0.3" points="1292.19,-20.47 1302.02,-16.52 1291.87,-13.48 1292.19,-20.47"/>
</g>
<!-- &#45;11&#45;&gt;7 -->
<g id="edge171" class="edge">
<title>&#45;11&#45;&gt;7</title>
<path fill="none" stroke="green" stroke-width="0.44" stroke-dasharray="1,5" d="M2933.88,-321C3090.22,-318.92 4429.41,-300.15 4602,-264.98 4733.49,-238.18 4819.6,-236.09 4860,-108.12 4865.68,-90.14 4872.92,-79.44 4860,-65.7 4832.53,-36.48 4210.76,-19.7 4077.86,-16.44"/>
<polygon fill="green" stroke="green" stroke-width="0.44" points="4077.91,-12.94 4067.83,-16.19 4077.74,-19.94 4077.91,-12.94"/>
</g>
<!-- &#45;11&#45;&gt;8 -->
<g id="edge172" class="edge">
<title>&#45;11&#45;&gt;8</title>
<path fill="none" stroke="red" stroke-width="0.14" stroke-dasharray="1,5" d="M2933.52,-321.26C3071.31,-321.82 4150.46,-324.27 4467,-264.98 4641.75,-232.25 4744.65,-261.25 4835,-108.12 4844.58,-91.89 4848.12,-79.24 4835,-65.7 4821.04,-51.29 3497.57,-20.89 3298.86,-16.41"/>
<polygon fill="red" stroke="red" stroke-width="0.14" points="3298.88,-12.91 3288.81,-16.18 3298.73,-19.9 3298.88,-12.91"/>
</g>
<!-- &#45;11&#45;&gt;15 -->
<g id="edge38" class="edge">
<title>&#45;11&#45;&gt;15</title>
<path fill="none" stroke="green" stroke-width="0.1" d="M2921.31,-312.87C2927.5,-290.57 2944.67,-228.76 2954.61,-192.94"/>
<polygon fill="green" stroke="green" stroke-width="0.1" points="2958.03,-193.73 2957.33,-183.16 2951.28,-191.86 2958.03,-193.73"/>
</g>
<!-- &#45;11&#45;&gt;16 -->
<g id="edge39" class="edge">
<title>&#45;11&#45;&gt;16</title>
<path fill="none" stroke="green" stroke-width="0.37" d="M2910.02,-313.16C2873.1,-280.16 2732.5,-154.5 2678.91,-106.61"/>
<polygon fill="green" stroke="green" stroke-width="0.37" points="2681.16,-103.92 2671.38,-99.87 2676.5,-109.14 2681.16,-103.92"/>
</g>
<!-- &#45;11&#45;&gt;17 -->
<g id="edge40" class="edge">
<title>&#45;11&#45;&gt;17</title>
<path fill="none" stroke="green" stroke-width="0.25" stroke-dasharray="1,5" d="M2904.41,-321.25C2795.34,-321.58 2106.38,-321.37 1907,-264.98 1846.66,-247.91 1784.54,-206.79 1752.37,-183.39"/>
<polygon fill="green" stroke="green" stroke-width="0.25" points="1754.24,-180.42 1744.12,-177.29 1750.08,-186.05 1754.24,-180.42"/>
</g>
<!-- &#45;11&#45;&gt;18 -->
<g id="edge41" class="edge">
<title>&#45;11&#45;&gt;18</title>
<path fill="none" stroke="green" stroke-width="0.11" d="M2904.28,-320C2854.82,-315.71 2695.66,-299.42 2660,-264.98 2641.11,-246.73 2635.73,-216.41 2634.54,-194.19"/>
<polygon fill="green" stroke="green" stroke-width="0.11" points="2638.03,-193.92 2634.25,-184.02 2631.03,-194.12 2638.03,-193.92"/>
</g>
<!-- 254 -->
<g id="node33" class="node">
<title>254</title>
<ellipse fill="white" stroke="black" cx="3999" cy="-243.76" rx="21.43" ry="21.43"/>
<text text-anchor="middle" x="3999" y="-241.56" font-family="Times New Roman,serif" font-size="9.00">254</text>
</g>
<!-- &#45;11&#45;&gt;254 -->
<g id="edge189" class="edge">
<title>&#45;11&#45;&gt;254</title>
<path fill="none" stroke="red" stroke-width="0.18" stroke-dasharray="1,5" d="M2933.51,-320.98C3022.04,-319.54 3498.53,-309.93 3884,-264.98 3912.81,-261.62 3945.34,-255.7 3968.43,-251.13"/>
<polygon fill="red" stroke="red" stroke-width="0.18" points="3969.22,-254.54 3978.33,-249.14 3967.84,-247.68 3969.22,-254.54"/>
</g>
<!-- &#45;12 -->
<g id="node12" class="node">
<title>&#45;12</title>
<polygon fill="lightgray" stroke="black" points="2151.5,-397.4 2122.5,-397.4 2122.5,-379.4 2151.5,-379.4 2151.5,-397.4"/>
<text text-anchor="middle" x="2137" y="-386.2" font-family="Times New Roman,serif" font-size="9.00">&#45;12</text>
</g>
<!-- &#45;12&#45;&gt;0 -->
<g id="edge173" class="edge">
<title>&#45;12&#45;&gt;0</title>
<path fill="none" stroke="green" stroke-width="0.21" d="M2122.22,-387.38C2008.72,-386.95 1275.22,-379.73 1093,-264.98 1008.81,-211.96 921.77,-137.16 991,-65.7 1005.02,-51.22 2334.43,-20.88 2534.03,-16.41"/>
<polygon fill="green" stroke="green" stroke-width="0.21" points="2534.21,-19.9 2544.13,-16.18 2534.05,-12.9 2534.21,-19.9"/>
</g>
<!-- &#45;12&#45;&gt;1 -->
<g id="edge174" class="edge">
<title>&#45;12&#45;&gt;1</title>
<path fill="none" stroke="red" stroke-width="0.16" d="M2122.25,-387.29C1946.95,-385.9 266.77,-371.87 167,-343.4 84.11,-319.75 0,-330.97 0,-244.76 0,-244.76 0,-244.76 0,-164.34 0,-116.86 2.24,-93.12 41,-65.7 115.2,-13.2 788.11,-14.75 927.71,-15.65"/>
<polygon fill="red" stroke="red" stroke-width="0.16" points="927.83,-19.15 937.86,-15.72 927.88,-12.15 927.83,-19.15"/>
</g>
<!-- &#45;12&#45;&gt;2 -->
<g id="edge175" class="edge">
<title>&#45;12&#45;&gt;2</title>
<path fill="none" stroke="red" stroke-width="0.22" d="M2122.38,-387.29C1966.06,-386.05 607.31,-374.4 529,-343.4 467.64,-319.11 418,-310.76 418,-244.76 418,-244.76 418,-244.76 418,-164.34 418,-119.69 402.99,-94.62 437,-65.7 489.88,-20.73 1617.31,-39.7 1686,-29.7 1695.44,-28.32 1705.61,-25.85 1714.44,-23.36"/>
<polygon fill="red" stroke="red" stroke-width="0.22" points="1715.47,-26.71 1724.06,-20.51 1713.48,-20 1715.47,-26.71"/>
</g>
<!-- &#45;12&#45;&gt;3 -->
<g id="edge176" class="edge">
<title>&#45;12&#45;&gt;3</title>
<path fill="none" stroke="red" stroke-width="0.35" stroke-dasharray="1,5" d="M2151.75,-387.39C2353.15,-387.18 4553.62,-383.98 4837,-343.4 5000.8,-319.95 5196,-410.23 5196,-244.76 5196,-244.76 5196,-244.76 5196,-164.34 5196,-60.91 4808.26,-25.22 4705.01,-17.54"/>
<polygon fill="red" stroke="red" stroke-width="0.35" points="4705.11,-14.04 4694.89,-16.82 4704.61,-21.03 4705.11,-14.04"/>
</g>
<!-- &#45;12&#45;&gt;4 -->
<g id="edge177" class="edge">
<title>&#45;12&#45;&gt;4</title>
<path fill="none" stroke="green" stroke-width="0.36" d="M2151.58,-387.41C2337.87,-387.32 4250.79,-383.54 4467,-264.98 4504.55,-244.38 4509.93,-227.34 4523,-186.55 4586.2,10.73 4145.72,-63.95 3250,-29.7 3140.96,-25.53 3010.95,-19.55 2957.18,-17.04"/>
<polygon fill="green" stroke="green" stroke-width="0.36" points="2957.05,-13.53 2946.9,-16.55 2956.72,-20.52 2957.05,-13.53"/>
</g>
<!-- &#45;12&#45;&gt;5 -->
<g id="edge178" class="edge">
<title>&#45;12&#45;&gt;5</title>
<path fill="none" stroke="green" stroke-width="0.15" d="M2122.35,-387.27C1958.24,-385.74 470.09,-371.06 435,-343.4 337.98,-266.93 327.42,-143.97 423,-65.7 462.49,-33.36 1290,-31.8 1341,-29.7 1451.28,-25.16 1582.85,-19.36 1636.92,-16.96"/>
<polygon fill="green" stroke="green" stroke-width="0.15" points="1637.12,-20.46 1646.96,-16.52 1636.81,-13.47 1637.12,-20.46"/>
</g>
<!-- &#45;12&#45;&gt;6 -->
<g id="edge179" class="edge">
<title>&#45;12&#45;&gt;6</title>
<path fill="none" stroke="red" stroke-width="0.13" d="M2122.05,-387.36C1962.11,-386.86 569,-381.38 390,-343.4 277.99,-319.64 152,-359.27 152,-244.76 152,-244.76 152,-244.76 152,-164.34 152,-53.52 273.1,-90.96 381,-65.7 426.6,-55.02 1147.36,-23.23 1291.88,-16.94"/>
<polygon fill="red" stroke="red" stroke-width="0.13" points="1292.14,-20.43 1301.98,-16.5 1291.84,-13.44 1292.14,-20.43"/>
</g>
<!-- &#45;12&#45;&gt;7 -->
<g id="edge180" class="edge">
<title>&#45;12&#45;&gt;7</title>
<path fill="none" stroke="red" stroke-width="0.14" d="M2151.71,-387.33C2345.96,-386.39 4402.9,-375.7 4669,-343.4 4824.67,-324.51 4915.21,-387.57 5013,-264.98 5083.24,-176.92 5027.01,-139.73 4877,-65.7 4803.79,-29.57 4208.11,-18.26 4078.03,-16.21"/>
<polygon fill="red" stroke="red" stroke-width="0.14" points="4077.92,-12.71 4067.87,-16.06 4077.81,-19.71 4077.92,-12.71"/>
</g>
<!-- &#45;12&#45;&gt;8 -->
<g id="edge181" class="edge">
<title>&#45;12&#45;&gt;8</title>
<path fill="none" stroke="green" stroke-width="0.36" stroke-dasharray="1,5" d="M2151.75,-387.48C2372.89,-388.52 5006,-397.65 5006,-244.76 5006,-244.76 5006,-244.76 5006,-164.34 5006,-83.43 4930.24,-89.77 4853,-65.7 4775.62,-41.58 3494.57,-19.5 3298.96,-16.26"/>
<polygon fill="green" stroke="green" stroke-width="0.36" points="3298.87,-12.75 3288.82,-16.09 3298.76,-19.75 3298.87,-12.75"/>
</g>
<!-- &#45;12&#45;&gt;15 -->
<g id="edge42" class="edge">
<title>&#45;12&#45;&gt;15</title>
<path fill="none" stroke="red" stroke-width="0.23" d="M2151.78,-387.14C2258.91,-385.13 2913.14,-371.74 2943,-343.4 2983.57,-304.9 2976.29,-232.39 2968.53,-193.16"/>
<polygon fill="red" stroke="red" stroke-width="0.23" points="2971.92,-192.32 2966.42,-183.27 2965.08,-193.78 2971.92,-192.32"/>
</g>
<!-- &#45;12&#45;&gt;16 -->
<g id="edge43" class="edge">
<title>&#45;12&#45;&gt;16</title>
<path fill="none" stroke="green" stroke-width="0.17" d="M2151.69,-381.79C2192.87,-365.84 2312.42,-317.93 2405,-264.98 2494.91,-213.55 2593.2,-138.9 2636.02,-105.37"/>
<polygon fill="green" stroke="green" stroke-width="0.17" points="2638.36,-107.98 2644.06,-99.05 2634.04,-102.48 2638.36,-107.98"/>
</g>
<!-- &#45;12&#45;&gt;17 -->
<g id="edge44" class="edge">
<title>&#45;12&#45;&gt;17</title>
<path fill="none" stroke="green" stroke-width="0.53" d="M2122.4,-384.78C2074.11,-375.56 1916.68,-340.94 1812,-264.98 1792.44,-250.79 1793.4,-241.17 1778,-222.55 1768.32,-210.85 1757.33,-197.95 1748.31,-187.46"/>
<polygon fill="green" stroke="green" stroke-width="0.53" points="1750.74,-184.93 1741.56,-179.64 1745.44,-189.5 1750.74,-184.93"/>
</g>
<!-- &#45;12&#45;&gt;18 -->
<g id="edge45" class="edge">
<title>&#45;12&#45;&gt;18</title>
<path fill="none" stroke="red" stroke-width="0.37" d="M2151.71,-386.82C2208.94,-384.35 2416.47,-373.45 2474,-343.4 2542.7,-307.52 2596.77,-229.91 2621.05,-190.44"/>
<polygon fill="red" stroke="red" stroke-width="0.37" points="2624.14,-192.1 2626.31,-181.73 2618.14,-188.48 2624.14,-192.1"/>
</g>
<!-- 283 -->
<g id="node26" class="node">
<title>283</title>
<ellipse fill="white" stroke="black" cx="1724" cy="-322.19" rx="21.43" ry="21.43"/>
<text text-anchor="middle" x="1724" y="-319.99" font-family="Times New Roman,serif" font-size="9.00">283</text>
</g>
<!-- &#45;12&#45;&gt;283 -->
<g id="edge191" class="edge">
<title>&#45;12&#45;&gt;283</title>
<path fill="none" stroke="green" stroke-width="0.86" d="M2122.31,-386.67C2073.5,-383.98 1912.44,-373.28 1783,-343.4 1773.08,-341.11 1762.49,-337.78 1753.06,-334.48"/>
<polygon fill="green" stroke="green" stroke-width="0.86" points="1753.97,-331.08 1743.37,-330.96 1751.58,-337.66 1753.97,-331.08"/>
</g>
<!-- 15&#45;&gt;0 -->
<g id="edge46" class="edge">
<title>15&#45;&gt;0</title>
<path fill="none" stroke="red" stroke-width="0.26" d="M2949.33,-151.36C2927.5,-129.84 2880.49,-87.05 2832,-65.7 2746.33,-27.97 2633.43,-18.79 2584,-16.57"/>
<polygon fill="red" stroke="red" stroke-width="0.26" points="2584.04,-13.06 2573.91,-16.17 2583.76,-20.06 2584.04,-13.06"/>
</g>
<!-- 15&#45;&gt;1 -->
<g id="edge47" class="edge">
<title>15&#45;&gt;1</title>
<path fill="none" stroke="red" stroke-width="0.2" stroke-dasharray="1,5" d="M2943.75,-161.93C2849.83,-149.64 2411.46,-93.37 2051,-65.7 1940.91,-57.25 1132.33,-23.33 978.3,-16.9"/>
<polygon fill="red" stroke="red" stroke-width="0.2" points="978.13,-13.39 967.99,-16.47 977.84,-20.39 978.13,-13.39"/>
</g>
<!-- 15&#45;&gt;2 -->
<g id="edge48" class="edge">
<title>15&#45;&gt;2</title>
<path fill="none" stroke="green" stroke-width="0.82" d="M2944.75,-157.96C2918.9,-148.22 2868.82,-128.59 2828,-108.12 2794.8,-91.47 2791.58,-76.34 2756,-65.7 2658.31,-36.47 1911.27,-19.46 1763.39,-16.36"/>
<polygon fill="green" stroke="green" stroke-width="0.82" points="1763.15,-12.86 1753.08,-16.15 1763,-19.86 1763.15,-12.86"/>
</g>
<!-- 15&#45;&gt;3 -->
<g id="edge49" class="edge">
<title>15&#45;&gt;3</title>
<path fill="none" stroke="green" stroke-width="0.29" d="M2980.46,-163.62C3076.42,-159.8 3527.89,-140.84 3896,-108.12 4196.03,-81.46 4558.74,-32.57 4655.38,-19.27"/>
<polygon fill="green" stroke="green" stroke-width="0.29" points="4655.92,-22.73 4665.34,-17.89 4654.96,-15.79 4655.92,-22.73"/>
</g>
<!-- 15&#45;&gt;4 -->
<g id="edge50" class="edge">
<title>15&#45;&gt;4</title>
<path fill="none" stroke="green" stroke-width="0.23" d="M2959.76,-146.76C2957.09,-126.95 2952.21,-93.82 2946,-65.7 2944.07,-56.93 2941.51,-47.42 2939.11,-39.08"/>
<polygon fill="green" stroke="green" stroke-width="0.23" points="2942.41,-37.88 2936.22,-29.29 2935.7,-39.87 2942.41,-37.88"/>
</g>
<!-- 15&#45;&gt;5 -->
<g id="edge51" class="edge">
<title>15&#45;&gt;5</title>
<path fill="none" stroke="green" stroke-width="0.31" d="M2945.16,-157.41C2934.6,-153.23 2920.64,-147.97 2908,-144.12 2841.58,-123.92 2815.67,-143.61 2756,-108.12 2734.24,-95.19 2740.92,-76.44 2718,-65.7 2616.92,-18.34 1824.41,-46.17 1714,-29.7 1704.57,-28.29 1694.39,-25.81 1685.56,-23.32"/>
<polygon fill="green" stroke="green" stroke-width="0.31" points="1686.53,-19.96 1675.95,-20.48 1684.54,-26.67 1686.53,-19.96"/>
</g>
<!-- 15&#45;&gt;6 -->
<g id="edge52" class="edge">
<title>15&#45;&gt;6</title>
<path fill="none" stroke="red" stroke-width="0.34" d="M2945.22,-157.21C2934.68,-152.95 2920.73,-147.68 2908,-144.12 2825.23,-120.98 2791.34,-152.94 2718,-108.12 2697.62,-95.67 2706.28,-76.56 2685,-65.7 2633.16,-39.23 1696.16,-31.95 1638,-29.7 1527.71,-25.42 1396.14,-19.48 1342.08,-17.01"/>
<polygon fill="red" stroke="red" stroke-width="0.34" points="1342.19,-13.51 1332.04,-16.54 1341.87,-20.5 1342.19,-13.51"/>
</g>
<!-- 15&#45;&gt;7 -->
<g id="edge53" class="edge">
<title>15&#45;&gt;7</title>
<path fill="none" stroke="green" stroke-width="0.4" d="M2980.26,-162.12C3013.29,-158.15 3085.2,-149.72 3146,-144.12 3360.8,-124.34 3416.54,-139.19 3630,-108.12 3783.63,-85.77 3964.72,-39.42 4028.95,-22.35"/>
<polygon fill="green" stroke="green" stroke-width="0.4" points="4030.13,-25.65 4038.89,-19.69 4028.33,-18.89 4030.13,-25.65"/>
</g>
<!-- 15&#45;&gt;8 -->
<g id="edge54" class="edge">
<title>15&#45;&gt;8</title>
<path fill="none" stroke="red" stroke-width="0.16" d="M2978.34,-156.56C3030.25,-131.86 3191.56,-55.09 3251.38,-26.62"/>
<polygon fill="red" stroke="red" stroke-width="0.16" points="3253.17,-29.64 3260.7,-22.18 3250.16,-23.32 3253.17,-29.64"/>
</g>
<!-- 16&#45;&gt;0 -->
<g id="edge55" class="edge">
<title>16&#45;&gt;0</title>
<path fill="none" stroke="green" stroke-width="0.23" d="M2643.39,-75.57C2626.4,-63.55 2598.24,-43.62 2579.17,-30.12"/>
<polygon fill="green" stroke="green" stroke-width="0.23" points="2581.06,-27.17 2570.87,-24.25 2577.01,-32.88 2581.06,-27.17"/>
</g>
<!-- 16&#45;&gt;1 -->
<g id="edge56" class="edge">
<title>16&#45;&gt;1</title>
<path fill="none" stroke="red" stroke-width="1.15" d="M2643.84,-74.67C2638.54,-71.11 2632.29,-67.61 2626,-65.7 2484.24,-22.59 1441.08,-34.71 1293,-29.7 1175.1,-25.71 1034.26,-19.52 978,-16.99"/>
<polygon fill="red" stroke="red" stroke-width="1.15" points="978.06,-13.48 967.91,-16.53 977.74,-20.48 978.06,-13.48"/>
</g>
<!-- 16&#45;&gt;2 -->
<g id="edge57" class="edge">
<title>16&#45;&gt;2</title>
<path fill="none" stroke="green" stroke-width="0.58" d="M2643.81,-74.77C2638.51,-71.22 2632.26,-67.7 2626,-65.7 2459.16,-12.3 1890.47,-14.4 1763.34,-15.57"/>
<polygon fill="green" stroke="green" stroke-width="0.58" points="1763.03,-12.07 1753.06,-15.67 1763.1,-19.07 1763.03,-12.07"/>
</g>
<!-- 16&#45;&gt;3 -->
<g id="edge58" class="edge">
<title>16&#45;&gt;3</title>
<path fill="none" stroke="green" stroke-width="0.21" d="M2676.41,-85.27C2864.66,-78.75 4437.67,-24.25 4655.11,-16.71"/>
<polygon fill="green" stroke="green" stroke-width="0.21" points="4655.33,-20.21 4665.21,-16.36 4655.09,-13.21 4655.33,-20.21"/>
</g>
<!-- 16&#45;&gt;4 -->
<g id="edge59" class="edge">
<title>16&#45;&gt;4</title>
<path fill="none" stroke="green" stroke-width="0.68" d="M2675.56,-81.42C2722.95,-69.3 2853.56,-35.91 2907.85,-22.03"/>
<polygon fill="green" stroke="green" stroke-width="0.68" points="2908.82,-25.39 2917.64,-19.52 2907.08,-18.61 2908.82,-25.39"/>
</g>
<!-- 16&#45;&gt;5 -->
<g id="edge60" class="edge">
<title>16&#45;&gt;5</title>
<path fill="none" stroke="red" stroke-width="0.36" d="M2643.82,-74.71C2638.53,-71.16 2632.27,-67.65 2626,-65.7 2432.32,-5.49 1914.55,-59.98 1714,-29.7 1704.57,-28.27 1694.4,-25.78 1685.57,-23.31"/>
<polygon fill="red" stroke="red" stroke-width="0.36" points="1686.53,-19.94 1675.95,-20.46 1684.55,-26.65 1686.53,-19.94"/>
</g>
<!-- 16&#45;&gt;6 -->
<g id="edge61" class="edge">
<title>16&#45;&gt;6</title>
<path fill="none" stroke="red" stroke-width="0.3" d="M2643.83,-74.7C2638.53,-71.15 2632.28,-67.64 2626,-65.7 2521.05,-33.25 1747.76,-34.07 1638,-29.7 1527.71,-25.31 1396.14,-19.43 1342.08,-16.99"/>
<polygon fill="red" stroke="red" stroke-width="0.3" points="1342.19,-13.49 1332.04,-16.53 1341.87,-20.48 1342.19,-13.49"/>
</g>
<!-- 16&#45;&gt;7 -->
<g id="edge62" class="edge">
<title>16&#45;&gt;7</title>
<path fill="none" stroke="green" stroke-width="0.15" d="M2676.41,-84.99C2826.87,-77.43 3853.38,-25.88 4027.83,-17.11"/>
<polygon fill="green" stroke="green" stroke-width="0.15" points="4028.25,-20.6 4038.07,-16.6 4027.9,-13.61 4028.25,-20.6"/>
</g>
<!-- 16&#45;&gt;8 -->
<g id="edge63" class="edge">
<title>16&#45;&gt;8</title>
<path fill="none" stroke="red" stroke-width="0.41" d="M2676.44,-83.81C2765.1,-73.73 3147.52,-30.24 3249.13,-18.68"/>
<polygon fill="red" stroke="red" stroke-width="0.41" points="3249.8,-22.12 3259.34,-17.52 3249.01,-15.17 3249.8,-22.12"/>
</g>
<!-- 17&#45;&gt;0 -->
<g id="edge64" class="edge">
<title>17&#45;&gt;0</title>
<path fill="none" stroke="green" stroke-width="0.52" d="M1730.11,-146.76C1731.29,-124.01 1737.11,-85.01 1762,-65.7 1824.33,-17.34 2405.89,-15.57 2534.08,-15.77"/>
<polygon fill="green" stroke="green" stroke-width="0.52" points="2534.1,-19.27 2544.11,-15.79 2534.12,-12.27 2534.1,-19.27"/>
</g>
<!-- 17&#45;&gt;1 -->
<g id="edge65" class="edge">
<title>17&#45;&gt;1</title>
<path fill="none" stroke="red" stroke-width="0.41" d="M1711.43,-163.56C1598.34,-158.75 1006.13,-132.43 977,-108.12 957.3,-91.69 952.66,-61.33 952.06,-39.94"/>
<polygon fill="red" stroke="red" stroke-width="0.41" points="955.56,-39.68 952.06,-29.68 948.56,-39.68 955.56,-39.68"/>
</g>
<!-- 17&#45;&gt;2 -->
<g id="edge66" class="edge">
<title>17&#45;&gt;2</title>
<path fill="none" stroke="green" stroke-width="0.15" d="M1711.65,-162.75C1642.95,-156.64 1403.72,-133.64 1382,-108.12 1369.78,-93.77 1369.48,-79.79 1382,-65.7 1427.19,-14.85 1619.18,-42.48 1686,-29.7 1695.37,-27.91 1705.53,-25.34 1714.36,-22.91"/>
<polygon fill="green" stroke="green" stroke-width="0.15" points="1715.34,-26.27 1724,-20.16 1713.42,-19.53 1715.34,-26.27"/>
</g>
<!-- 17&#45;&gt;4 -->
<g id="edge67" class="edge">
<title>17&#45;&gt;4</title>
<path fill="none" stroke="red" stroke-width="0.22" d="M1745.84,-155.94C1754.29,-151.8 1764.98,-147.07 1775,-144.12 1998.8,-78.29 2062.23,-92.23 2294,-65.7 2531.93,-38.46 2821.5,-21.75 2907.07,-17.15"/>
<polygon fill="red" stroke="red" stroke-width="0.22" points="2907.33,-20.64 2917.12,-16.61 2906.95,-13.65 2907.33,-20.64"/>
</g>
<!-- 17&#45;&gt;5 -->
<g id="edge68" class="edge">
<title>17&#45;&gt;5</title>
<path fill="none" stroke="red" stroke-width="0.1" d="M1711.42,-164.47C1643.9,-164.52 1413.1,-160.77 1368,-108.12 1292.89,-20.45 1553.35,-15.02 1636.98,-15.48"/>
<polygon fill="red" stroke="red" stroke-width="0.1" points="1637.1,-18.98 1647.13,-15.57 1637.16,-11.98 1637.1,-18.98"/>
</g>
<!-- 17&#45;&gt;6 -->
<g id="edge69" class="edge">
<title>17&#45;&gt;6</title>
<path fill="none" stroke="red" stroke-width="0.55" d="M1711.7,-163.29C1599.03,-156.78 1003.67,-121.79 991,-108.12 978.18,-94.3 978.72,-80 991,-65.7 1029.95,-20.34 1222.28,-15.81 1291.84,-15.68"/>
<polygon fill="red" stroke="red" stroke-width="0.55" points="1291.9,-19.18 1301.91,-15.69 1291.91,-12.18 1291.9,-19.18"/>
</g>
<!-- 17&#45;&gt;7 -->
<g id="edge70" class="edge">
<title>17&#45;&gt;7</title>
<path fill="none" stroke="red" stroke-width="0.26" d="M1745.74,-155.55C1754.15,-151.3 1764.85,-146.59 1775,-144.12 2060.9,-74.68 2147.2,-164.28 2436,-108.12 2493.18,-97.01 2502.71,-76.21 2560,-65.7 2709.99,-38.17 3844.57,-19.15 4027.99,-16.24"/>
<polygon fill="red" stroke="red" stroke-width="0.26" points="4028.08,-19.74 4038.03,-16.08 4027.97,-12.74 4028.08,-19.74"/>
</g>
<!-- 17&#45;&gt;8 -->
<g id="edge71" class="edge">
<title>17&#45;&gt;8</title>
<path fill="none" stroke="green" stroke-width="0.19" d="M1745.79,-155.75C1754.22,-151.56 1764.91,-146.84 1775,-144.12 1924.73,-103.85 1967.89,-125.15 2122,-108.12 2283.01,-90.34 2322.66,-80.23 2484,-65.7 2784.82,-38.6 3151.39,-21.29 3249.1,-16.93"/>
<polygon fill="green" stroke="green" stroke-width="0.19" points="3249.34,-20.43 3259.18,-16.49 3249.03,-13.43 3249.34,-20.43"/>
</g>
<!-- 297 -->
<g id="node27" class="node">
<title>297</title>
<ellipse fill="white" stroke="black" cx="1021" cy="-86.91" rx="21.43" ry="21.43"/>
<text text-anchor="middle" x="1021" y="-84.71" font-family="Times New Roman,serif" font-size="9.00">297</text>
</g>
<!-- 17&#45;&gt;297 -->
<g id="edge194" class="edge">
<title>17&#45;&gt;297</title>
<path fill="none" stroke="green" stroke-width="0.36" d="M1711.4,-163.36C1608.88,-157.9 1114.96,-130.59 1051,-108.12 1049.33,-107.54 1047.66,-106.84 1046.02,-106.05"/>
<polygon fill="green" stroke="green" stroke-width="0.36" points="1047.42,-102.82 1037,-100.87 1043.93,-108.88 1047.42,-102.82"/>
</g>
<!-- 229 -->
<g id="node30" class="node">
<title>229</title>
<ellipse fill="white" stroke="black" cx="1081" cy="-86.91" rx="21.43" ry="21.43"/>
<text text-anchor="middle" x="1081" y="-84.71" font-family="Times New Roman,serif" font-size="9.00">229</text>
</g>
<!-- 17&#45;&gt;229 -->
<g id="edge183" class="edge">
<title>17&#45;&gt;229</title>
<path fill="none" stroke="green" stroke-width="0.6" d="M1711.43,-163.71C1621.55,-160.52 1231.28,-144.74 1116,-108.12 1113.02,-107.18 1110.02,-105.95 1107.09,-104.56"/>
<polygon fill="green" stroke="green" stroke-width="0.6" points="1108.58,-101.39 1098.11,-99.76 1105.28,-107.57 1108.58,-101.39"/>
</g>
<!-- 18&#45;&gt;0 -->
<g id="edge72" class="edge">
<title>18&#45;&gt;0</title>
<path fill="none" stroke="green" stroke-width="0.79" d="M2627.01,-148.73C2613.38,-122.1 2585.62,-67.85 2570.11,-37.55"/>
<polygon fill="green" stroke="green" stroke-width="0.79" points="2573.03,-35.58 2565.36,-28.27 2566.8,-38.77 2573.03,-35.58"/>
</g>
<!-- 18&#45;&gt;1 -->
<g id="edge73" class="edge">
<title>18&#45;&gt;1</title>
<path fill="none" stroke="green" stroke-width="0.15" d="M2616.63,-163.01C2550.72,-158.09 2320.07,-139.54 2132,-108.12 2046.66,-93.87 2027.74,-77.35 1942,-65.7 1843.94,-52.38 1122.22,-22.69 978.03,-16.86"/>
<polygon fill="green" stroke="green" stroke-width="0.15" points="978.09,-13.36 967.95,-16.45 977.8,-20.35 978.09,-13.36"/>
</g>
<!-- 18&#45;&gt;2 -->
<g id="edge74" class="edge">
<title>18&#45;&gt;2</title>
<path fill="none" stroke="red" stroke-width="0.18" d="M2617.1,-160.04C2599.91,-155.92 2573.19,-149.54 2550,-144.12 2398.14,-108.66 2361.81,-91.4 2208,-65.7 2039.37,-37.53 1833.9,-22.19 1763.26,-17.46"/>
<polygon fill="red" stroke="red" stroke-width="0.18" points="1763.31,-13.96 1753.1,-16.79 1762.85,-20.94 1763.31,-13.96"/>
</g>
<!-- 18&#45;&gt;3 -->
<g id="edge75" class="edge">
<title>18&#45;&gt;3</title>
<path fill="none" stroke="red" stroke-width="0.2" d="M2653.26,-163.09C2700.08,-159.89 2828.22,-151.17 2935,-144.12 3182.53,-127.79 3244.55,-125.73 3492,-108.12 3959.71,-74.85 4530.5,-28.16 4655.19,-17.9"/>
<polygon fill="red" stroke="red" stroke-width="0.2" points="4655.57,-21.38 4665.25,-17.07 4654.99,-14.4 4655.57,-21.38"/>
</g>
<!-- 18&#45;&gt;4 -->
<g id="edge76" class="edge">
<title>18&#45;&gt;4</title>
<path fill="none" stroke="green" stroke-width="0.18" d="M2651.39,-156.14C2701.52,-131.08 2852.84,-55.42 2909.91,-26.9"/>
<polygon fill="green" stroke="green" stroke-width="0.18" points="2911.74,-29.89 2919.12,-22.29 2908.61,-23.63 2911.74,-29.89"/>
</g>
<!-- 18&#45;&gt;5 -->
<g id="edge77" class="edge">
<title>18&#45;&gt;5</title>
<path fill="none" stroke="green" stroke-width="0.17" d="M2616.7,-161.07C2592.71,-156.84 2549.28,-149.39 2512,-144.12 2377.28,-125.09 2328.74,-170.85 2208,-108.12 2185.54,-96.46 2192.69,-76.93 2170,-65.7 2078.9,-20.61 1814.19,-46.85 1714,-29.7 1704.6,-28.09 1694.43,-25.56 1685.6,-23.1"/>
<polygon fill="green" stroke="green" stroke-width="0.17" points="1686.55,-19.74 1675.97,-20.31 1684.6,-26.46 1686.55,-19.74"/>
</g>
<!-- 18&#45;&gt;6 -->
<g id="edge78" class="edge">
<title>18&#45;&gt;6</title>
<path fill="none" stroke="green" stroke-width="0.51" d="M2616.55,-163.83C2540.29,-161.45 2249.96,-149.79 2170,-108.12 2147.55,-96.43 2154.79,-76.73 2132,-65.7 2095.54,-48.05 1474.46,-22.18 1341.8,-16.84"/>
<polygon fill="green" stroke="green" stroke-width="0.51" points="1341.93,-13.34 1331.8,-16.43 1341.65,-20.33 1341.93,-13.34"/>
</g>
<!-- 18&#45;&gt;7 -->
<g id="edge79" class="edge">
<title>18&#45;&gt;7</title>
<path fill="none" stroke="green" stroke-width="0.38" d="M2653.46,-163.23C2733.62,-158.32 3059.51,-137.54 3326,-108.12 3461.6,-93.16 3494.7,-83.11 3630,-65.7 3781.14,-46.25 3963.06,-25.81 4028.26,-18.58"/>
<polygon fill="green" stroke="green" stroke-width="0.38" points="4028.82,-22.04 4038.37,-17.46 4028.05,-15.08 4028.82,-22.04"/>
</g>
<!-- 18&#45;&gt;8 -->
<g id="edge80" class="edge">
<title>18&#45;&gt;8</title>
<path fill="none" stroke="green" stroke-width="0.43" d="M2652.76,-160.21C2742.6,-139.33 3146.84,-45.4 3249.98,-21.43"/>
<polygon fill="green" stroke="green" stroke-width="0.43" points="3250.83,-24.83 3259.78,-19.15 3249.24,-18.01 3250.83,-24.83"/>
</g>
<!-- 18&#45;&gt;16 -->
<g id="edge182" class="edge">
<title>18&#45;&gt;16</title>
<path fill="none" stroke="green" stroke-width="0.2" d="M2640.1,-147.38C2642.99,-137.78 2646.67,-125.56 2649.94,-114.7"/>
<polygon fill="green" stroke="green" stroke-width="0.2" points="2653.38,-115.41 2652.91,-104.83 2646.68,-113.39 2653.38,-115.41"/>
</g>
<!-- 283&#45;&gt;1 -->
<g id="edge192" class="edge">
<title>283&#45;&gt;1</title>
<path fill="none" stroke="green" stroke-width="0.43" d="M1702.77,-320.91C1533.04,-318.57 398.86,-301.62 252,-264.98 174.39,-245.61 143.43,-246.08 90,-186.55 53.17,-145.52 24.12,-105.76 62,-65.7 92.57,-33.37 786.08,-18.91 927.83,-16.29"/>
<polygon fill="green" stroke="green" stroke-width="0.43" points="928.18,-19.79 938.11,-16.11 928.05,-12.79 928.18,-19.79"/>
</g>
<!-- 283&#45;&gt;17 -->
<g id="edge201" class="edge">
<title>283&#45;&gt;17</title>
<path fill="none" stroke="green" stroke-width="0.55" d="M1720.84,-301.12C1718.14,-281.16 1715.14,-249.68 1718,-222.55 1719.02,-212.89 1721,-202.45 1723.06,-193.21"/>
<polygon fill="green" stroke="green" stroke-width="0.55" points="1726.48,-193.95 1725.38,-183.41 1719.67,-192.34 1726.48,-193.95"/>
</g>
<!-- 327 -->
<g id="node28" class="node">
<title>327</title>
<ellipse fill="white" stroke="black" cx="1748" cy="-243.76" rx="21.43" ry="21.43"/>
<text text-anchor="middle" x="1748" y="-241.56" font-family="Times New Roman,serif" font-size="9.00">327</text>
</g>
<!-- 283&#45;&gt;327 -->
<g id="edge200" class="edge">
<title>283&#45;&gt;327</title>
<path fill="none" stroke="green" stroke-width="0.17" d="M1730.18,-301.51C1732.83,-293.06 1735.98,-283.03 1738.9,-273.76"/>
<polygon fill="green" stroke="green" stroke-width="0.17" points="1742.27,-274.7 1741.92,-264.11 1735.59,-272.61 1742.27,-274.7"/>
</g>
<!-- 297&#45;&gt;6 -->
<g id="edge195" class="edge">
<title>297&#45;&gt;6</title>
<path fill="none" stroke="red" stroke-width="0.36" d="M1037.45,-73.09C1041.68,-70.29 1046.35,-67.6 1051,-65.7 1134.89,-31.31 1243.45,-20.44 1291.82,-17.17"/>
<polygon fill="red" stroke="red" stroke-width="0.36" points="1292.23,-20.65 1301.99,-16.54 1291.79,-13.67 1292.23,-20.65"/>
</g>
<!-- 327&#45;&gt;17 -->
<g id="edge197" class="edge">
<title>327&#45;&gt;17</title>
<path fill="none" stroke="green" stroke-width="0.6" d="M1743.27,-222.68C1741.16,-213.72 1738.64,-203.02 1736.37,-193.37"/>
<polygon fill="green" stroke="green" stroke-width="0.6" points="1739.73,-192.37 1734.03,-183.44 1732.91,-193.97 1739.73,-192.37"/>
</g>
<!-- 341&#45;&gt;5 -->
<g id="edge199" class="edge">
<title>341&#45;&gt;5</title>
<path fill="none" stroke="red" stroke-width="0.32" d="M487.74,-81.27C509.95,-76.51 546.28,-69.3 578,-65.7 605.19,-62.61 1476.53,-24.04 1636.8,-16.96"/>
<polygon fill="red" stroke="red" stroke-width="0.32" points="1637.25,-20.44 1647.09,-16.51 1636.94,-13.45 1637.25,-20.44"/>
</g>
<!-- 229&#45;&gt;5 -->
<g id="edge184" class="edge">
<title>229&#45;&gt;5</title>
<path fill="none" stroke="red" stroke-width="0.32" d="M1098.11,-74.06C1103.6,-70.81 1109.85,-67.65 1116,-65.7 1215.17,-34.22 1543.13,-20.15 1636.81,-16.71"/>
<polygon fill="red" stroke="red" stroke-width="0.32" points="1637.17,-20.2 1647.04,-16.35 1636.92,-13.21 1637.17,-20.2"/>
</g>
<!-- 241&#45;&gt;4 -->
<g id="edge186" class="edge">
<title>241&#45;&gt;4</title>
<path fill="none" stroke="green" stroke-width="0.13" d="M4067.97,-150.28C4042.64,-127.61 3988.82,-83.7 3934,-65.7 3922.03,-61.77 3112.62,-24.2 2957.53,-17.03"/>
<polygon fill="green" stroke="green" stroke-width="0.13" points="2957.29,-13.51 2947.14,-16.55 2956.97,-20.51 2957.29,-13.51"/>
</g>
<!-- 248&#45;&gt;8 -->
<g id="edge188" class="edge">
<title>248&#45;&gt;8</title>
<path fill="none" stroke="red" stroke-width="0.4" d="M4783.93,-83.65C4744.14,-79.47 4655.15,-70.51 4580,-65.7 4064.04,-32.7 3431.91,-18.95 3299.17,-16.33"/>
<polygon fill="red" stroke="red" stroke-width="0.4" points="3298.92,-12.82 3288.85,-16.13 3298.78,-19.82 3298.92,-12.82"/>
</g>
<!-- 254&#45;&gt;7 -->
<g id="edge190" class="edge">
<title>254&#45;&gt;7</title>
<path fill="none" stroke="red" stroke-width="0.27" stroke-dasharray="1,5" d="M4020.16,-241.75C4120.3,-236.47 4544.96,-208.33 4618,-108.12 4629.11,-92.89 4630.73,-79.61 4618,-65.7 4581.07,-25.36 4182.75,-17.49 4078.08,-16.12"/>
<polygon fill="red" stroke="red" stroke-width="0.27" points="4077.88,-12.62 4067.84,-15.99 4077.79,-19.61 4077.88,-12.62"/>
</g>
<!-- 254&#45;&gt;18 -->
<g id="edge193" class="edge">
<title>254&#45;&gt;18</title>
<path fill="none" stroke="red" stroke-width="0.55" d="M3978.35,-238.26C3955.42,-233.46 3917.26,-226.09 3884,-222.55 3464.29,-177.91 3356.5,-208.74 2935,-186.55 2835.02,-181.29 2716.47,-172.57 2663.29,-168.52"/>
<polygon fill="red" stroke="red" stroke-width="0.55" points="2663.49,-165.03 2653.25,-167.76 2662.96,-172.01 2663.49,-165.03"/>
</g>
<!-- 254&#45;&gt;241 -->
<g id="edge196" class="edge">
<title>254&#45;&gt;241</title>
<path fill="none" stroke="green" stroke-width="0.3" d="M4014.41,-228.75C4027.2,-217.11 4045.57,-200.39 4060.08,-187.19"/>
<polygon fill="green" stroke="green" stroke-width="0.3" points="4062.65,-189.59 4067.69,-180.27 4057.94,-184.41 4062.65,-189.59"/>
</g>
</g>
</svg>
