<?xml version="1.0" encoding="UTF-8" standalone="no"?>
<!DOCTYPE svg PUBLIC "-//W3C//DTD SVG 1.1//EN"
 "http://www.w3.org/Graphics/SVG/1.1/DTD/svg11.dtd">
<!-- Generated by graphviz version 3.0.0 (20220226.1711)
 -->
<!-- Pages: 1 -->
<svg width="4144pt" height="170pt"
 viewBox="0.00 0.00 4143.98 170.12" xmlns="http://www.w3.org/2000/svg" xmlns:xlink="http://www.w3.org/1999/xlink">
<g id="graph0" class="graph" transform="scale(1 1) rotate(0) translate(4 166.12)">
<polygon fill="white" stroke="transparent" points="-4,4 -4,-166.12 4139.98,-166.12 4139.98,4 -4,4"/>
<!-- &#45;1 -->
<g id="node1" class="node">
<title>&#45;1</title>
<polygon fill="lightgray" stroke="black" points="510.19,-162.12 486.19,-162.12 486.19,-144.12 510.19,-144.12 510.19,-162.12"/>
<text text-anchor="middle" x="498.19" y="-150.92" font-family="Times New Roman,serif" font-size="9.00">&#45;1</text>
</g>
<!-- 0 -->
<g id="node13" class="node">
<title>0</title>
<ellipse fill="lightblue" stroke="black" cx="1954.19" cy="-14.85" rx="14.7" ry="14.7"/>
<text text-anchor="middle" x="1954.19" y="-12.65" font-family="Times New Roman,serif" font-size="9.00">0</text>
</g>
<!-- &#45;1&#45;&gt;0 -->
<g id="edge105" class="edge">
<title>&#45;1&#45;&gt;0</title>
<path fill="none" stroke="green" stroke-width="0.46" d="M495.56,-144.01C490.52,-126.78 481.81,-86.4 503.19,-65.7 559.89,-10.81 1846.23,-47.13 1923.19,-29.7 1926.26,-29 1929.39,-28 1932.43,-26.84"/>
<polygon fill="green" stroke="green" stroke-width="0.46" points="1933.86,-30.04 1941.62,-22.83 1931.05,-23.62 1933.86,-30.04"/>
</g>
<!-- 1 -->
<g id="node14" class="node">
<title>1</title>
<ellipse fill="lightblue" stroke="black" cx="2449.19" cy="-14.85" rx="14.7" ry="14.7"/>
<text text-anchor="middle" x="2449.19" y="-12.65" font-family="Times New Roman,serif" font-size="9.00">1</text>
</g>
<!-- &#45;1&#45;&gt;1 -->
<g id="edge106" class="edge">
<title>&#45;1&#45;&gt;1</title>
<path fill="none" stroke="green" stroke-width="0.15" d="M510.54,-150.02C576.02,-138.92 889.52,-87.03 1148.19,-65.7 1640.56,-25.09 1765.84,-55.66 2259.19,-29.7 2318.46,-26.58 2387.99,-21.03 2424.28,-17.99"/>
<polygon fill="green" stroke="green" stroke-width="0.15" points="2424.76,-21.46 2434.43,-17.13 2424.17,-14.48 2424.76,-21.46"/>
</g>
<!-- 2 -->
<g id="node15" class="node">
<title>2</title>
<ellipse fill="lightblue" stroke="black" cx="1649.19" cy="-14.85" rx="14.7" ry="14.7"/>
<text text-anchor="middle" x="1649.19" y="-12.65" font-family="Times New Roman,serif" font-size="9.00">2</text>
</g>
<!-- &#45;1&#45;&gt;2 -->
<g id="edge107" class="edge">
<title>&#45;1&#45;&gt;2</title>
<path fill="none" stroke="green" stroke-width="0.17" d="M510.37,-148.35C555.51,-134.54 717.74,-86.49 855.19,-65.7 1155.34,-20.3 1525.34,-16.11 1624.03,-15.83"/>
<polygon fill="green" stroke="green" stroke-width="0.17" points="1624.22,-19.33 1634.22,-15.82 1624.21,-12.33 1624.22,-19.33"/>
</g>
<!-- 3 -->
<g id="node16" class="node">
<title>3</title>
<ellipse fill="lightblue" stroke="black" cx="1697.19" cy="-14.85" rx="14.7" ry="14.7"/>
<text text-anchor="middle" x="1697.19" y="-12.65" font-family="Times New Roman,serif" font-size="9.00">3</text>
</g>
<!-- &#45;1&#45;&gt;3 -->
<g id="edge108" class="edge">
<title>&#45;1&#45;&gt;3</title>
<path fill="none" stroke="red" stroke-width="0.32" d="M485.92,-151.46C427.91,-148.22 183.14,-133.12 161.19,-108.12 148.75,-93.95 148.02,-79.19 161.19,-65.7 219.9,-5.58 1592.3,-52.4 1673.19,-29.7 1674.26,-29.4 1675.33,-29.04 1676.39,-28.64"/>
<polygon fill="red" stroke="red" stroke-width="0.32" points="1678.09,-31.7 1685.51,-24.15 1674.99,-25.43 1678.09,-31.7"/>
</g>
<!-- 4 -->
<g id="node17" class="node">
<title>4</title>
<ellipse fill="lightblue" stroke="black" cx="1745.19" cy="-14.85" rx="14.7" ry="14.7"/>
<text text-anchor="middle" x="1745.19" y="-12.65" font-family="Times New Roman,serif" font-size="9.00">4</text>
</g>
<!-- &#45;1&#45;&gt;4 -->
<g id="edge109" class="edge">
<title>&#45;1&#45;&gt;4</title>
<path fill="none" stroke="red" stroke-width="0.14" d="M510.47,-150.15C575.61,-139.76 887.44,-90.85 1144.19,-65.7 1272.05,-53.17 1598.19,-66.79 1721.19,-29.7 1722.25,-29.38 1723.32,-29.01 1724.37,-28.59"/>
<polygon fill="red" stroke="red" stroke-width="0.14" points="1726.1,-31.64 1733.48,-24.05 1722.97,-25.38 1726.1,-31.64"/>
</g>
<!-- 5 -->
<g id="node18" class="node">
<title>5</title>
<ellipse fill="lightblue" stroke="black" cx="1793.19" cy="-14.85" rx="14.7" ry="14.7"/>
<text text-anchor="middle" x="1793.19" y="-12.65" font-family="Times New Roman,serif" font-size="9.00">5</text>
</g>
<!-- &#45;1&#45;&gt;5 -->
<g id="edge110" class="edge">
<title>&#45;1&#45;&gt;5</title>
<path fill="none" stroke="green" stroke-width="0.54" d="M486.01,-151.41C462.52,-149.29 411.34,-140.94 389.19,-108.12 378.65,-92.49 376.04,-79.2 389.19,-65.7 442.71,-10.77 1695.38,-50.5 1769.19,-29.7 1770.26,-29.4 1771.33,-29.04 1772.39,-28.64"/>
<polygon fill="green" stroke="green" stroke-width="0.54" points="1774.09,-31.7 1781.51,-24.14 1770.99,-25.42 1774.09,-31.7"/>
</g>
<!-- 6 -->
<g id="node19" class="node">
<title>6</title>
<ellipse fill="lightblue" stroke="black" cx="1844.19" cy="-14.85" rx="14.7" ry="14.7"/>
<text text-anchor="middle" x="1844.19" y="-12.65" font-family="Times New Roman,serif" font-size="9.00">6</text>
</g>
<!-- &#45;1&#45;&gt;6 -->
<g id="edge111" class="edge">
<title>&#45;1&#45;&gt;6</title>
<path fill="none" stroke="red" stroke-width="0.63" d="M485.93,-148.64C469.17,-143.14 439.75,-130.68 427.19,-108.12 418.02,-91.65 414.04,-79.2 427.19,-65.7 481.11,-10.37 1742.35,-48.8 1817.19,-29.7 1819.11,-29.21 1821.04,-28.57 1822.95,-27.83"/>
<polygon fill="red" stroke="red" stroke-width="0.63" points="1824.46,-30.98 1832.02,-23.56 1821.48,-24.65 1824.46,-30.98"/>
</g>
<!-- 7 -->
<g id="node20" class="node">
<title>7</title>
<ellipse fill="lightblue" stroke="black" cx="1899.19" cy="-14.85" rx="14.7" ry="14.7"/>
<text text-anchor="middle" x="1899.19" y="-12.65" font-family="Times New Roman,serif" font-size="9.00">7</text>
</g>
<!-- &#45;1&#45;&gt;7 -->
<g id="edge112" class="edge">
<title>&#45;1&#45;&gt;7</title>
<path fill="none" stroke="green" stroke-width="0.13" stroke-dasharray="1,5" d="M490.23,-144.08C474.56,-127.32 443.11,-88.36 465.19,-65.7 519.62,-9.86 1792.15,-46.93 1868.19,-29.7 1871.26,-29 1874.39,-28 1877.43,-26.84"/>
<polygon fill="green" stroke="green" stroke-width="0.13" points="1878.86,-30.04 1886.62,-22.83 1876.05,-23.62 1878.86,-30.04"/>
</g>
<!-- 8 -->
<g id="node21" class="node">
<title>8</title>
<ellipse fill="lightblue" stroke="black" cx="2235.19" cy="-14.85" rx="14.7" ry="14.7"/>
<text text-anchor="middle" x="2235.19" y="-12.65" font-family="Times New Roman,serif" font-size="9.00">8</text>
</g>
<!-- &#45;1&#45;&gt;8 -->
<g id="edge113" class="edge">
<title>&#45;1&#45;&gt;8</title>
<path fill="none" stroke="red" stroke-width="0.48" d="M499.41,-144.11C502.58,-126.33 512.92,-83.7 541.19,-65.7 608.55,-22.8 1898.4,-32.85 1978.19,-29.7 2063.37,-26.34 2164.32,-20.29 2210.23,-17.43"/>
<polygon fill="red" stroke="red" stroke-width="0.48" points="2210.66,-20.91 2220.43,-16.79 2210.23,-13.93 2210.66,-20.91"/>
</g>
<!-- 9 -->
<g id="node22" class="node">
<title>9</title>
<ellipse fill="white" stroke="black" cx="1548.19" cy="-86.91" rx="14.7" ry="14.7"/>
<text text-anchor="middle" x="1548.19" y="-84.71" font-family="Times New Roman,serif" font-size="9.00">9</text>
</g>
<!-- &#45;1&#45;&gt;9 -->
<g id="edge1" class="edge">
<title>&#45;1&#45;&gt;9</title>
<path fill="none" stroke="red" stroke-width="0.13" d="M510.35,-151.38C615.73,-144.94 1374.27,-98.55 1522.95,-89.46"/>
<polygon fill="red" stroke="red" stroke-width="0.13" points="1523.54,-92.93 1533.31,-88.82 1523.11,-85.94 1523.54,-92.93"/>
</g>
<!-- 10 -->
<g id="node23" class="node">
<title>10</title>
<ellipse fill="white" stroke="black" cx="1899.19" cy="-86.91" rx="18.27" ry="18.27"/>
<text text-anchor="middle" x="1899.19" y="-84.71" font-family="Times New Roman,serif" font-size="9.00">10</text>
</g>
<!-- &#45;1&#45;&gt;10 -->
<g id="edge2" class="edge">
<title>&#45;1&#45;&gt;10</title>
<path fill="none" stroke="red" stroke-width="0.61" d="M510.33,-151.79C644.9,-148.01 1854.14,-113.94 1871.19,-108.12 1873.32,-107.4 1875.41,-106.46 1877.45,-105.38"/>
<polygon fill="red" stroke="red" stroke-width="0.61" points="1879.34,-108.32 1885.87,-99.98 1875.56,-102.43 1879.34,-108.32"/>
</g>
<!-- 11 -->
<g id="node24" class="node">
<title>11</title>
<ellipse fill="white" stroke="black" cx="1954.19" cy="-86.91" rx="18.27" ry="18.27"/>
<text text-anchor="middle" x="1954.19" y="-84.71" font-family="Times New Roman,serif" font-size="9.00">11</text>
</g>
<!-- &#45;1&#45;&gt;11 -->
<g id="edge3" class="edge">
<title>&#45;1&#45;&gt;11</title>
<path fill="none" stroke="green" stroke-width="0.39" d="M510.38,-151.8C648.17,-148.1 1908.44,-114.17 1926.19,-108.12 1928.32,-107.4 1930.41,-106.46 1932.45,-105.38"/>
<polygon fill="green" stroke="green" stroke-width="0.39" points="1934.34,-108.32 1940.87,-99.98 1930.57,-102.43 1934.34,-108.32"/>
</g>
<!-- 12 -->
<g id="node25" class="node">
<title>12</title>
<ellipse fill="white" stroke="black" cx="1789.19" cy="-86.91" rx="18.27" ry="18.27"/>
<text text-anchor="middle" x="1789.19" y="-84.71" font-family="Times New Roman,serif" font-size="9.00">12</text>
</g>
<!-- &#45;1&#45;&gt;12 -->
<g id="edge4" class="edge">
<title>&#45;1&#45;&gt;12</title>
<path fill="none" stroke="red" stroke-width="0.41" d="M510.41,-151.87C597.68,-149.96 1135.56,-137.38 1572.19,-108.12 1639.95,-103.58 1719.35,-95.48 1760.77,-91.03"/>
<polygon fill="red" stroke="red" stroke-width="0.41" points="1761.36,-94.49 1770.93,-89.94 1760.61,-87.53 1761.36,-94.49"/>
</g>
<!-- 13 -->
<g id="node26" class="node">
<title>13</title>
<ellipse fill="white" stroke="black" cx="1844.19" cy="-86.91" rx="18.27" ry="18.27"/>
<text text-anchor="middle" x="1844.19" y="-84.71" font-family="Times New Roman,serif" font-size="9.00">13</text>
</g>
<!-- &#45;1&#45;&gt;13 -->
<g id="edge5" class="edge">
<title>&#45;1&#45;&gt;13</title>
<path fill="none" stroke="red" stroke-width="0.21" d="M510.49,-151.81C641.93,-148.49 1783.53,-119.29 1816.19,-108.12 1818.32,-107.4 1820.41,-106.46 1822.45,-105.37"/>
<polygon fill="red" stroke="red" stroke-width="0.21" points="1824.34,-108.32 1830.87,-99.97 1820.56,-102.42 1824.34,-108.32"/>
</g>
<!-- &#45;2 -->
<g id="node2" class="node">
<title>&#45;2</title>
<polygon fill="lightgray" stroke="black" points="852.19,-162.12 828.19,-162.12 828.19,-144.12 852.19,-144.12 852.19,-162.12"/>
<text text-anchor="middle" x="840.19" y="-150.92" font-family="Times New Roman,serif" font-size="9.00">&#45;2</text>
</g>
<!-- &#45;2&#45;&gt;0 -->
<g id="edge114" class="edge">
<title>&#45;2&#45;&gt;0</title>
<path fill="none" stroke="green" stroke-width="0.13" d="M837.57,-144.03C832.55,-126.82 823.9,-86.48 845.19,-65.7 888.08,-23.85 1864.81,-43.17 1923.19,-29.7 1926.26,-28.99 1929.38,-27.98 1932.42,-26.82"/>
<polygon fill="green" stroke="green" stroke-width="0.13" points="1933.85,-30.02 1941.61,-22.8 1931.05,-23.6 1933.85,-30.02"/>
</g>
<!-- &#45;2&#45;&gt;1 -->
<g id="edge115" class="edge">
<title>&#45;2&#45;&gt;1</title>
<path fill="none" stroke="red" stroke-width="0.38" d="M852.3,-150.24C919.27,-139.9 1251.14,-89.6 1524.19,-65.7 1850.01,-37.18 1932.74,-49.59 2259.19,-29.7 2318.43,-26.09 2387.97,-20.74 2424.27,-17.86"/>
<polygon fill="red" stroke="red" stroke-width="0.38" points="2424.73,-21.33 2434.42,-17.05 2424.17,-14.35 2424.73,-21.33"/>
</g>
<!-- &#45;2&#45;&gt;2 -->
<g id="edge116" class="edge">
<title>&#45;2&#45;&gt;2</title>
<path fill="none" stroke="red" stroke-width="0.33" d="M842.63,-143.86C848.4,-125.96 864.75,-83.74 895.19,-65.7 959.14,-27.8 1500.92,-17.93 1624.27,-16.17"/>
<polygon fill="red" stroke="red" stroke-width="0.33" points="1624.32,-19.67 1634.27,-16.03 1624.22,-12.67 1624.32,-19.67"/>
</g>
<!-- &#45;2&#45;&gt;3 -->
<g id="edge117" class="edge">
<title>&#45;2&#45;&gt;3</title>
<path fill="none" stroke="green" stroke-width="0.18" d="M828.12,-152.07C752.77,-151.61 349.25,-147.31 313.19,-108.12 300.43,-94.25 300.04,-79.21 313.19,-65.7 365.93,-11.55 1600.45,-50.22 1673.19,-29.7 1674.26,-29.4 1675.33,-29.04 1676.39,-28.64"/>
<polygon fill="green" stroke="green" stroke-width="0.18" points="1678.09,-31.7 1685.51,-24.14 1674.99,-25.42 1678.09,-31.7"/>
</g>
<!-- &#45;2&#45;&gt;4 -->
<g id="edge118" class="edge">
<title>&#45;2&#45;&gt;4</title>
<path fill="none" stroke="green" stroke-width="0.12" stroke-dasharray="1,5" d="M852.56,-150.31C915.56,-141.06 1207.18,-98.39 1446.19,-65.7 1568.32,-49 1604.45,-69.27 1721.19,-29.7 1722.07,-29.4 1722.95,-29.07 1723.83,-28.71"/>
<polygon fill="green" stroke="green" stroke-width="0.12" points="1725.56,-31.76 1732.93,-24.16 1722.42,-25.5 1725.56,-31.76"/>
</g>
<!-- &#45;2&#45;&gt;5 -->
<g id="edge119" class="edge">
<title>&#45;2&#45;&gt;5</title>
<path fill="none" stroke="green" stroke-width="0.46" d="M828.01,-151.41C804.52,-149.29 753.34,-140.94 731.19,-108.12 720.65,-92.49 718.09,-79.26 731.19,-65.7 771.28,-24.2 1713.72,-45.59 1769.19,-29.7 1770.26,-29.39 1771.32,-29.03 1772.38,-28.63"/>
<polygon fill="green" stroke="green" stroke-width="0.46" points="1774.09,-31.69 1781.5,-24.12 1770.99,-25.41 1774.09,-31.69"/>
</g>
<!-- &#45;2&#45;&gt;6 -->
<g id="edge120" class="edge">
<title>&#45;2&#45;&gt;6</title>
<path fill="none" stroke="green" stroke-width="0.14" d="M827.93,-148.64C811.17,-143.14 781.75,-130.68 769.19,-108.12 760.02,-91.65 756.09,-79.26 769.19,-65.7 809.68,-23.8 1760.81,-44.34 1817.19,-29.7 1819.11,-29.2 1821.04,-28.55 1822.94,-27.81"/>
<polygon fill="green" stroke="green" stroke-width="0.14" points="1824.46,-30.96 1832.02,-23.53 1821.48,-24.63 1824.46,-30.96"/>
</g>
<!-- &#45;2&#45;&gt;7 -->
<g id="edge121" class="edge">
<title>&#45;2&#45;&gt;7</title>
<path fill="none" stroke="green" stroke-width="0.1" d="M832.24,-144.09C816.6,-127.36 785.2,-88.45 807.19,-65.7 848.19,-23.29 1810.73,-42.97 1868.19,-29.7 1871.25,-28.99 1874.38,-27.98 1877.42,-26.82"/>
<polygon fill="green" stroke="green" stroke-width="0.1" points="1878.85,-30.01 1886.61,-22.8 1876.05,-23.6 1878.85,-30.01"/>
</g>
<!-- &#45;2&#45;&gt;8 -->
<g id="edge122" class="edge">
<title>&#45;2&#45;&gt;8</title>
<path fill="none" stroke="green" stroke-width="0.21" d="M841.47,-143.86C844.72,-125.95 855.13,-83.72 883.19,-65.7 934.41,-32.8 1917.39,-32.34 1978.19,-29.7 2063.36,-26 2164.31,-20.13 2210.23,-17.37"/>
<polygon fill="green" stroke="green" stroke-width="0.21" points="2210.65,-20.85 2220.42,-16.75 2210.23,-13.86 2210.65,-20.85"/>
</g>
<!-- &#45;2&#45;&gt;9 -->
<g id="edge6" class="edge">
<title>&#45;2&#45;&gt;9</title>
<path fill="none" stroke="green" stroke-width="0.16" d="M852.48,-151.01C934.94,-143.53 1407.91,-100.64 1522.97,-90.2"/>
<polygon fill="green" stroke="green" stroke-width="0.16" points="1523.6,-93.66 1533.24,-89.27 1522.97,-86.69 1523.6,-93.66"/>
</g>
<!-- &#45;2&#45;&gt;10 -->
<g id="edge7" class="edge">
<title>&#45;2&#45;&gt;10</title>
<path fill="none" stroke="red" stroke-width="0.44" d="M852.23,-152.03C960.84,-151.12 1770.17,-143.18 1871.19,-108.12 1873.31,-107.39 1875.41,-106.44 1877.44,-105.35"/>
<polygon fill="red" stroke="red" stroke-width="0.44" points="1879.34,-108.29 1885.86,-99.94 1875.55,-102.4 1879.34,-108.29"/>
</g>
<!-- &#45;2&#45;&gt;11 -->
<g id="edge8" class="edge">
<title>&#45;2&#45;&gt;11</title>
<path fill="none" stroke="red" stroke-width="0.42" d="M852.52,-152.06C965.49,-151.37 1819.64,-144.97 1926.19,-108.12 1928.31,-107.39 1930.41,-106.44 1932.44,-105.36"/>
<polygon fill="red" stroke="red" stroke-width="0.42" points="1934.34,-108.3 1940.86,-99.95 1930.56,-102.41 1934.34,-108.3"/>
</g>
<!-- &#45;2&#45;&gt;12 -->
<g id="edge9" class="edge">
<title>&#45;2&#45;&gt;12</title>
<path fill="none" stroke="red" stroke-width="0.18" d="M852.28,-151.55C922.03,-148.18 1280.23,-130.49 1572.19,-108.12 1639.9,-102.94 1719.32,-95.09 1760.76,-90.86"/>
<polygon fill="red" stroke="red" stroke-width="0.18" points="1761.33,-94.32 1770.92,-89.82 1760.62,-87.36 1761.33,-94.32"/>
</g>
<!-- &#45;2&#45;&gt;13 -->
<g id="edge10" class="edge">
<title>&#45;2&#45;&gt;13</title>
<path fill="none" stroke="green" stroke-width="0.18" stroke-dasharray="1,5" d="M852.24,-152C957.62,-150.84 1720.79,-141.36 1816.19,-108.12 1818.31,-107.39 1820.41,-106.44 1822.44,-105.35"/>
<polygon fill="green" stroke="green" stroke-width="0.18" points="1824.34,-108.29 1830.86,-99.94 1820.55,-102.4 1824.34,-108.29"/>
</g>
<!-- &#45;3 -->
<g id="node3" class="node">
<title>&#45;3</title>
<polygon fill="lightgray" stroke="black" points="1441.19,-162.12 1417.19,-162.12 1417.19,-144.12 1441.19,-144.12 1441.19,-162.12"/>
<text text-anchor="middle" x="1429.19" y="-150.92" font-family="Times New Roman,serif" font-size="9.00">&#45;3</text>
</g>
<!-- &#45;3&#45;&gt;0 -->
<g id="edge123" class="edge">
<title>&#45;3&#45;&gt;0</title>
<path fill="none" stroke="green" stroke-width="0.27" d="M1434.98,-144.1C1448.35,-126.3 1483.37,-83.64 1524.19,-65.7 1687.2,5.94 1750.9,-74.62 1923.19,-29.7 1926.08,-28.95 1929.04,-27.95 1931.93,-26.83"/>
<polygon fill="green" stroke="green" stroke-width="0.27" points="1933.49,-29.97 1941.27,-22.77 1930.7,-23.55 1933.49,-29.97"/>
</g>
<!-- &#45;3&#45;&gt;1 -->
<g id="edge124" class="edge">
<title>&#45;3&#45;&gt;1</title>
<path fill="none" stroke="green" stroke-width="0.37" d="M1441.53,-151.64C1518.75,-148.55 1936.47,-130.99 2062.19,-108.12 2127,-96.34 2140.3,-81.71 2204.19,-65.7 2284.15,-45.66 2380.31,-27.92 2424.62,-20.1"/>
<polygon fill="green" stroke="green" stroke-width="0.37" points="2425.49,-23.5 2434.73,-18.32 2424.28,-16.6 2425.49,-23.5"/>
</g>
<!-- &#45;3&#45;&gt;2 -->
<g id="edge125" class="edge">
<title>&#45;3&#45;&gt;2</title>
<path fill="none" stroke="red" stroke-width="0.43" d="M1416.77,-152.06C1341.05,-151.51 943.75,-146.8 908.19,-108.12 895.43,-94.24 895.32,-79.47 908.19,-65.7 958.09,-12.33 1500.51,-14.39 1624.19,-15.56"/>
<polygon fill="red" stroke="red" stroke-width="0.43" points="1624.18,-19.06 1634.22,-15.66 1624.26,-12.06 1624.18,-19.06"/>
</g>
<!-- &#45;3&#45;&gt;3 -->
<g id="edge126" class="edge">
<title>&#45;3&#45;&gt;3</title>
<path fill="none" stroke="green" stroke-width="0.45" d="M1417.19,-151.91C1321.28,-150.11 682.55,-137.08 655.19,-108.12 642.25,-94.42 642.1,-79.27 655.19,-65.7 694.5,-24.98 1618.8,-45.3 1673.19,-29.7 1674.26,-29.39 1675.32,-29.03 1676.38,-28.62"/>
<polygon fill="green" stroke="green" stroke-width="0.45" points="1678.09,-31.69 1685.5,-24.12 1674.99,-25.41 1678.09,-31.69"/>
</g>
<!-- &#45;3&#45;&gt;4 -->
<g id="edge127" class="edge">
<title>&#45;3&#45;&gt;4</title>
<path fill="none" stroke="red" stroke-width="0.39" d="M1431.93,-144.05C1438.34,-126.52 1456.08,-85 1486.19,-65.7 1575.16,-8.69 1621.5,-64.71 1721.19,-29.7 1722.07,-29.39 1722.95,-29.05 1723.82,-28.69"/>
<polygon fill="red" stroke="red" stroke-width="0.39" points="1725.56,-31.73 1732.91,-24.1 1722.41,-25.48 1725.56,-31.73"/>
</g>
<!-- &#45;3&#45;&gt;5 -->
<g id="edge128" class="edge">
<title>&#45;3&#45;&gt;5</title>
<path fill="none" stroke="green" stroke-width="0.33" d="M1417.03,-151.56C1357.26,-148.66 1096.55,-134.55 1073.19,-108.12 1060.71,-94 1060.21,-79.37 1073.19,-65.7 1126.52,-9.55 1694.94,-51.66 1769.19,-29.7 1770.26,-29.38 1771.32,-29.02 1772.38,-28.6"/>
<polygon fill="green" stroke="green" stroke-width="0.33" points="1774.09,-31.66 1781.49,-24.07 1770.98,-25.39 1774.09,-31.66"/>
</g>
<!-- &#45;3&#45;&gt;6 -->
<g id="edge129" class="edge">
<title>&#45;3&#45;&gt;6</title>
<path fill="none" stroke="green" stroke-width="0.1" d="M1417.02,-152.27C1353.84,-152.67 1069.41,-149.9 1149.19,-65.7 1200.32,-11.74 1745.44,-49.09 1817.19,-29.7 1819.1,-29.18 1821.03,-28.52 1822.93,-27.77"/>
<polygon fill="green" stroke="green" stroke-width="0.1" points="1824.46,-30.92 1832,-23.48 1821.46,-24.59 1824.46,-30.92"/>
</g>
<!-- &#45;3&#45;&gt;7 -->
<g id="edge130" class="edge">
<title>&#45;3&#45;&gt;7</title>
<path fill="none" stroke="green" stroke-width="0.2" d="M1417.18,-150.33C1396.93,-146.59 1356.51,-135.86 1339.19,-108.12 1329.21,-92.13 1326.32,-79.48 1339.19,-65.7 1379.41,-22.65 1811.03,-43.93 1868.19,-29.7 1871.24,-28.94 1874.36,-27.9 1877.4,-26.72"/>
<polygon fill="green" stroke="green" stroke-width="0.2" points="1878.83,-29.91 1886.59,-22.7 1876.02,-23.5 1878.83,-29.91"/>
</g>
<!-- &#45;3&#45;&gt;8 -->
<g id="edge131" class="edge">
<title>&#45;3&#45;&gt;8</title>
<path fill="none" stroke="red" stroke-width="0.18" d="M1441.31,-151.6C1512.12,-148.48 1872.92,-131.66 1981.19,-108.12 2069.88,-88.85 2169.56,-46.02 2212.99,-26.24"/>
<polygon fill="red" stroke="red" stroke-width="0.18" points="2214.46,-29.41 2222.08,-22.06 2211.53,-23.05 2214.46,-29.41"/>
</g>
<!-- &#45;3&#45;&gt;9 -->
<g id="edge11" class="edge">
<title>&#45;3&#45;&gt;9</title>
<path fill="none" stroke="green" stroke-width="0.44" d="M1441.48,-145.49C1461.51,-134.69 1501.45,-113.14 1526.38,-99.68"/>
<polygon fill="green" stroke="green" stroke-width="0.44" points="1528.3,-102.63 1535.44,-94.8 1524.97,-96.46 1528.3,-102.63"/>
</g>
<!-- &#45;3&#45;&gt;10 -->
<g id="edge12" class="edge">
<title>&#45;3&#45;&gt;10</title>
<path fill="none" stroke="green" stroke-width="0.42" d="M1441.36,-151.77C1503.87,-149.79 1789.17,-139.21 1871.19,-108.12 1873.29,-107.33 1875.37,-106.34 1877.4,-105.22"/>
<polygon fill="green" stroke="green" stroke-width="0.42" points="1879.32,-108.15 1885.79,-99.76 1875.5,-102.28 1879.32,-108.15"/>
</g>
<!-- &#45;3&#45;&gt;11 -->
<g id="edge13" class="edge">
<title>&#45;3&#45;&gt;11</title>
<path fill="none" stroke="green" stroke-width="0.2" d="M1441.61,-151.42C1513.96,-147.27 1879.42,-125.56 1926.19,-108.12 1928.29,-107.34 1930.38,-106.36 1932.4,-105.25"/>
<polygon fill="green" stroke="green" stroke-width="0.2" points="1934.32,-108.17 1940.81,-99.8 1930.51,-102.3 1934.32,-108.17"/>
</g>
<!-- &#45;3&#45;&gt;12 -->
<g id="edge14" class="edge">
<title>&#45;3&#45;&gt;12</title>
<path fill="none" stroke="red" stroke-width="0.4" d="M1441.59,-149.91C1492.73,-140.79 1688.13,-105.94 1761.31,-92.89"/>
<polygon fill="red" stroke="red" stroke-width="0.4" points="1761.96,-96.33 1771.19,-91.12 1760.73,-89.43 1761.96,-96.33"/>
</g>
<!-- &#45;3&#45;&gt;13 -->
<g id="edge15" class="edge">
<title>&#45;3&#45;&gt;13</title>
<path fill="none" stroke="red" stroke-width="0.21" d="M1441.34,-151.57C1498.97,-148.82 1745.09,-135.64 1816.19,-108.12 1818.28,-107.32 1820.36,-106.31 1822.38,-105.19"/>
<polygon fill="red" stroke="red" stroke-width="0.21" points="1824.31,-108.11 1830.78,-99.72 1820.49,-102.25 1824.31,-108.11"/>
</g>
<!-- &#45;4 -->
<g id="node4" class="node">
<title>&#45;4</title>
<polygon fill="lightgray" stroke="black" points="2639.19,-162.12 2615.19,-162.12 2615.19,-144.12 2639.19,-144.12 2639.19,-162.12"/>
<text text-anchor="middle" x="2627.19" y="-150.92" font-family="Times New Roman,serif" font-size="9.00">&#45;4</text>
</g>
<!-- &#45;4&#45;&gt;0 -->
<g id="edge132" class="edge">
<title>&#45;4&#45;&gt;0</title>
<path fill="none" stroke="red" stroke-width="0.37" d="M2639.3,-151.57C2693.88,-148.7 2911.75,-132.89 2848.19,-65.7 2847.23,-64.68 2123.27,-25.08 1979.02,-17.2"/>
<polygon fill="red" stroke="red" stroke-width="0.37" points="1979.12,-13.71 1968.95,-16.65 1978.74,-20.69 1979.12,-13.71"/>
</g>
<!-- &#45;4&#45;&gt;1 -->
<g id="edge133" class="edge">
<title>&#45;4&#45;&gt;1</title>
<path fill="none" stroke="green" stroke-width="0.32" d="M2639.4,-151.82C2769.88,-148.6 3902.48,-120.25 3914.19,-108.12 3927.3,-94.57 3927.3,-79.26 3914.19,-65.7 3862.06,-11.76 2663.01,-14.89 2474.14,-15.72"/>
<polygon fill="green" stroke="green" stroke-width="0.32" points="2474.06,-12.22 2464.07,-15.77 2474.09,-19.22 2474.06,-12.22"/>
</g>
<!-- &#45;4&#45;&gt;2 -->
<g id="edge134" class="edge">
<title>&#45;4&#45;&gt;2</title>
<path fill="none" stroke="red" stroke-width="0.31" d="M2614.89,-149.87C2555.76,-139.08 2294.76,-92.22 2079.19,-65.7 1899.4,-43.58 1845.94,-84.25 1673.19,-29.7 1672.14,-29.37 1671.08,-28.98 1670.03,-28.56"/>
<polygon fill="red" stroke="red" stroke-width="0.31" points="1671.43,-25.35 1660.93,-23.98 1668.29,-31.6 1671.43,-25.35"/>
</g>
<!-- &#45;4&#45;&gt;3 -->
<g id="edge135" class="edge">
<title>&#45;4&#45;&gt;3</title>
<path fill="none" stroke="green" stroke-width="0.51" d="M2625.91,-143.88C2622.64,-126 2612.17,-83.85 2584.19,-65.7 2503.68,-13.47 1813.36,-56.45 1721.19,-29.7 1720.13,-29.39 1719.07,-29.03 1718.01,-28.62"/>
<polygon fill="green" stroke="green" stroke-width="0.51" points="1719.41,-25.4 1708.89,-24.1 1716.3,-31.68 1719.41,-25.4"/>
</g>
<!-- &#45;4&#45;&gt;4 -->
<g id="edge136" class="edge">
<title>&#45;4&#45;&gt;4</title>
<path fill="none" stroke="red" stroke-width="0.19" d="M2629.81,-144.04C2634.79,-126.86 2643.4,-86.58 2622.19,-65.7 2554.6,0.85 1860.29,-56.17 1769.19,-29.7 1768.13,-29.39 1767.07,-29.02 1766.01,-28.62"/>
<polygon fill="red" stroke="red" stroke-width="0.19" points="1767.41,-25.4 1756.89,-24.1 1764.3,-31.67 1767.41,-25.4"/>
</g>
<!-- &#45;4&#45;&gt;5 -->
<g id="edge137" class="edge">
<title>&#45;4&#45;&gt;5</title>
<path fill="none" stroke="green" stroke-width="0.18" d="M2635.13,-144.11C2650.74,-127.41 2682.08,-88.55 2660.19,-65.7 2595.57,1.76 1910.51,-53.57 1820.19,-29.7 1818.28,-29.19 1816.35,-28.54 1814.45,-27.79"/>
<polygon fill="green" stroke="green" stroke-width="0.18" points="1815.92,-24.61 1805.38,-23.51 1812.93,-30.94 1815.92,-24.61"/>
</g>
<!-- &#45;4&#45;&gt;6 -->
<g id="edge138" class="edge">
<title>&#45;4&#45;&gt;6</title>
<path fill="none" stroke="green" stroke-width="0.35" d="M2614.89,-150.11C2556.89,-140.59 2304.87,-99.26 2098.19,-65.7 1999.1,-49.6 1971.39,-58.42 1875.19,-29.7 1872.34,-28.84 1869.39,-27.79 1866.52,-26.64"/>
<polygon fill="green" stroke="green" stroke-width="0.35" points="1867.75,-23.36 1857.18,-22.56 1864.94,-29.77 1867.75,-23.36"/>
</g>
<!-- &#45;4&#45;&gt;7 -->
<g id="edge139" class="edge">
<title>&#45;4&#45;&gt;7</title>
<path fill="none" stroke="red" stroke-width="0.37" d="M2616.36,-144.04C2591.64,-126.11 2528.54,-83.21 2468.19,-65.7 2238.04,1.07 2162.77,-87.47 1930.19,-29.7 1927.15,-28.94 1924.02,-27.9 1920.99,-26.72"/>
<polygon fill="red" stroke="red" stroke-width="0.37" points="1922.37,-23.51 1911.8,-22.7 1919.56,-29.92 1922.37,-23.51"/>
</g>
<!-- &#45;4&#45;&gt;8 -->
<g id="edge140" class="edge">
<title>&#45;4&#45;&gt;8</title>
<path fill="none" stroke="red" stroke-width="0.27" d="M2639.49,-151.8C2750.28,-148.83 3572.94,-126.18 3590.19,-108.12 3603.22,-94.49 3603.32,-79.24 3590.19,-65.7 3545.12,-19.21 2489.86,-33.05 2425.19,-29.7 2365.93,-26.62 2296.4,-21.06 2260.11,-18"/>
<polygon fill="red" stroke="red" stroke-width="0.27" points="2260.22,-14.5 2249.96,-17.14 2259.63,-21.47 2260.22,-14.5"/>
</g>
<!-- &#45;4&#45;&gt;9 -->
<g id="edge16" class="edge">
<title>&#45;4&#45;&gt;9</title>
<path fill="none" stroke="red" stroke-width="0.23" d="M2614.99,-151.7C2537.85,-149 2110.13,-133.39 1762.19,-108.12 1693.64,-103.15 1612.96,-94.87 1573.08,-90.62"/>
<polygon fill="red" stroke="red" stroke-width="0.23" points="1573.28,-87.12 1562.96,-89.53 1572.53,-94.08 1573.28,-87.12"/>
</g>
<!-- &#45;4&#45;&gt;10 -->
<g id="edge17" class="edge">
<title>&#45;4&#45;&gt;10</title>
<path fill="none" stroke="green" stroke-width="0.28" d="M2614.92,-151.76C2526.98,-149.12 1994.47,-132.23 1927.19,-108.12 1925.09,-107.37 1922.99,-106.4 1920.96,-105.3"/>
<polygon fill="green" stroke="green" stroke-width="0.28" points="1922.85,-102.36 1912.55,-99.88 1919.06,-108.24 1922.85,-102.36"/>
</g>
<!-- &#45;4&#45;&gt;11 -->
<g id="edge18" class="edge">
<title>&#45;4&#45;&gt;11</title>
<path fill="none" stroke="red" stroke-width="0.15" d="M2614.94,-150.96C2536.07,-143.43 2099.57,-101.78 1982.88,-90.65"/>
<polygon fill="red" stroke="red" stroke-width="0.15" points="1982.9,-87.13 1972.61,-89.67 1982.23,-94.1 1982.9,-87.13"/>
</g>
<!-- &#45;4&#45;&gt;12 -->
<g id="edge19" class="edge">
<title>&#45;4&#45;&gt;12</title>
<path fill="none" stroke="green" stroke-width="0.3" d="M2615.18,-151.88C2520.46,-149.9 1895.7,-135.88 1817.19,-108.12 1815.08,-107.38 1812.99,-106.42 1810.96,-105.32"/>
<polygon fill="green" stroke="green" stroke-width="0.3" points="1812.85,-102.38 1802.54,-99.91 1809.06,-108.26 1812.85,-102.38"/>
</g>
<!-- &#45;4&#45;&gt;13 -->
<g id="edge20" class="edge">
<title>&#45;4&#45;&gt;13</title>
<path fill="none" stroke="green" stroke-width="0.42" d="M2615.14,-151.83C2524.01,-149.54 1945.1,-134.06 1872.19,-108.12 1870.08,-107.37 1867.99,-106.41 1865.96,-105.32"/>
<polygon fill="green" stroke="green" stroke-width="0.42" points="1867.85,-102.37 1857.55,-99.89 1864.06,-108.25 1867.85,-102.37"/>
</g>
<!-- &#45;5 -->
<g id="node5" class="node">
<title>&#45;5</title>
<polygon fill="lightgray" stroke="black" points="1659.19,-162.12 1635.19,-162.12 1635.19,-144.12 1659.19,-144.12 1659.19,-162.12"/>
<text text-anchor="middle" x="1647.19" y="-150.92" font-family="Times New Roman,serif" font-size="9.00">&#45;5</text>
</g>
<!-- &#45;5&#45;&gt;0 -->
<g id="edge141" class="edge">
<title>&#45;5&#45;&gt;0</title>
<path fill="none" stroke="red" stroke-width="0.32" d="M1659.36,-151.46C1716.86,-148.17 1959.46,-132.92 1981.19,-108.12 1999.22,-87.57 1983.13,-55.55 1969.2,-35.15"/>
<polygon fill="red" stroke="red" stroke-width="0.32" points="1971.96,-32.99 1963.28,-26.93 1966.28,-37.09 1971.96,-32.99"/>
</g>
<!-- &#45;5&#45;&gt;1 -->
<g id="edge142" class="edge">
<title>&#45;5&#45;&gt;1</title>
<path fill="none" stroke="red" stroke-width="0.24" d="M1659.45,-151.36C1735.96,-146.53 2146.56,-120.21 2201.19,-108.12 2287.57,-89.02 2384.32,-46.44 2426.97,-26.52"/>
<polygon fill="red" stroke="red" stroke-width="0.24" points="2428.6,-29.62 2436.15,-22.19 2425.61,-23.29 2428.6,-29.62"/>
</g>
<!-- &#45;5&#45;&gt;2 -->
<g id="edge143" class="edge">
<title>&#45;5&#45;&gt;2</title>
<path fill="none" stroke="green" stroke-width="0.16" d="M1635.13,-151.62C1541.47,-147.69 933.97,-121.7 921.19,-108.12 908.27,-94.39 908.32,-79.48 921.19,-65.7 970.09,-13.34 1500.9,-14.59 1623.87,-15.59"/>
<polygon fill="green" stroke="green" stroke-width="0.16" points="1624.13,-19.09 1634.16,-15.68 1624.19,-12.09 1624.13,-19.09"/>
</g>
<!-- &#45;5&#45;&gt;3 -->
<g id="edge144" class="edge">
<title>&#45;5&#45;&gt;3</title>
<path fill="none" stroke="red" stroke-width="0.13" d="M1635.02,-151.53C1546.79,-147.19 1008.54,-120.26 997.19,-108.12 984.32,-94.35 984.22,-79.38 997.19,-65.7 1048.95,-11.12 1601.08,-51.08 1673.19,-29.7 1674.26,-29.38 1675.32,-29.01 1676.38,-28.6"/>
<polygon fill="red" stroke="red" stroke-width="0.13" points="1678.1,-31.66 1685.49,-24.07 1674.98,-25.39 1678.1,-31.66"/>
</g>
<!-- &#45;5&#45;&gt;4 -->
<g id="edge145" class="edge">
<title>&#45;5&#45;&gt;4</title>
<path fill="none" stroke="green" stroke-width="0.3" d="M1634.89,-152.89C1605.46,-153.95 1530.97,-151.98 1498.19,-108.12 1486.91,-93.02 1485.97,-80.06 1498.19,-65.7 1530.74,-27.48 1673.9,-46.52 1721.19,-29.7 1722.07,-29.39 1722.94,-29.05 1723.82,-28.68"/>
<polygon fill="green" stroke="green" stroke-width="0.3" points="1725.56,-31.72 1732.91,-24.08 1722.4,-25.47 1725.56,-31.72"/>
</g>
<!-- &#45;5&#45;&gt;5 -->
<g id="edge146" class="edge">
<title>&#45;5&#45;&gt;5</title>
<path fill="none" stroke="red" stroke-width="0.15" d="M1634.92,-151.67C1572.11,-149.21 1288.6,-136.61 1263.19,-108.12 1250.64,-94.05 1250.34,-79.5 1263.19,-65.7 1301.61,-24.45 1715.3,-46.2 1769.19,-29.7 1770.25,-29.37 1771.31,-29 1772.37,-28.58"/>
<polygon fill="red" stroke="red" stroke-width="0.15" points="1774.1,-31.63 1781.48,-24.02 1770.97,-25.37 1774.1,-31.63"/>
</g>
<!-- &#45;5&#45;&gt;6 -->
<g id="edge147" class="edge">
<title>&#45;5&#45;&gt;6</title>
<path fill="none" stroke="green" stroke-width="0.16" d="M1635.08,-152.21C1573.53,-152.29 1301.32,-148.04 1377.19,-65.7 1410.44,-29.63 1770.02,-43.15 1817.19,-29.7 1819.09,-29.16 1821.02,-28.48 1822.92,-27.71"/>
<polygon fill="green" stroke="green" stroke-width="0.16" points="1824.45,-30.86 1831.98,-23.4 1821.45,-24.53 1824.45,-30.86"/>
</g>
<!-- &#45;5&#45;&gt;7 -->
<g id="edge148" class="edge">
<title>&#45;5&#45;&gt;7</title>
<path fill="none" stroke="red" stroke-width="0.44" d="M1635.1,-152.03C1609.49,-151.08 1550.05,-144.84 1524.19,-108.12 1513.34,-92.71 1511.57,-79.71 1524.19,-65.7 1575.64,-8.59 1793.96,-49.62 1868.19,-29.7 1871.08,-28.92 1874.03,-27.92 1876.92,-26.79"/>
<polygon fill="red" stroke="red" stroke-width="0.44" points="1878.48,-29.93 1886.26,-22.73 1875.69,-23.51 1878.48,-29.93"/>
</g>
<!-- &#45;5&#45;&gt;8 -->
<g id="edge149" class="edge">
<title>&#45;5&#45;&gt;8</title>
<path fill="none" stroke="red" stroke-width="0.22" d="M1659.42,-151.37C1735.65,-146.65 2143.27,-120.85 2166.19,-108.12 2194.41,-92.47 2214.46,-59.91 2225.44,-37.96"/>
<polygon fill="red" stroke="red" stroke-width="0.22" points="2228.7,-39.26 2229.84,-28.72 2222.38,-36.25 2228.7,-39.26"/>
</g>
<!-- &#45;5&#45;&gt;9 -->
<g id="edge21" class="edge">
<title>&#45;5&#45;&gt;9</title>
<path fill="none" stroke="red" stroke-width="0.28" d="M1635.19,-144.82C1621.16,-136.23 1597.3,-121.44 1577.19,-108.12 1574.33,-106.23 1571.33,-104.19 1568.39,-102.17"/>
<polygon fill="red" stroke="red" stroke-width="0.28" points="1570.17,-99.14 1559.96,-96.3 1566.17,-104.89 1570.17,-99.14"/>
</g>
<!-- &#45;5&#45;&gt;10 -->
<g id="edge22" class="edge">
<title>&#45;5&#45;&gt;10</title>
<path fill="none" stroke="red" stroke-width="0.44" d="M1659.39,-151.56C1694,-149.56 1795.22,-141.11 1871.19,-108.12 1873.25,-107.23 1875.3,-106.17 1877.31,-105.01"/>
<polygon fill="red" stroke="red" stroke-width="0.44" points="1879.27,-107.9 1885.67,-99.47 1875.4,-102.07 1879.27,-107.9"/>
</g>
<!-- &#45;5&#45;&gt;11 -->
<g id="edge23" class="edge">
<title>&#45;5&#45;&gt;11</title>
<path fill="none" stroke="green" stroke-width="0.34" d="M1659.24,-150.98C1706.12,-146.4 1876.32,-128.67 1926.19,-108.12 1928.27,-107.27 1930.33,-106.24 1932.34,-105.09"/>
<polygon fill="green" stroke="green" stroke-width="0.34" points="1934.29,-108 1940.72,-99.58 1930.44,-102.15 1934.29,-108"/>
</g>
<!-- &#45;5&#45;&gt;12 -->
<g id="edge24" class="edge">
<title>&#45;5&#45;&gt;12</title>
<path fill="none" stroke="green" stroke-width="0.3" d="M1659.3,-146.65C1682.3,-136.25 1732.75,-113.44 1763.57,-99.5"/>
<polygon fill="green" stroke="green" stroke-width="0.3" points="1765.16,-102.62 1772.83,-95.31 1762.27,-96.24 1765.16,-102.62"/>
</g>
<!-- &#45;5&#45;&gt;13 -->
<g id="edge25" class="edge">
<title>&#45;5&#45;&gt;13</title>
<path fill="none" stroke="green" stroke-width="0.25" d="M1659.61,-150.5C1688.32,-146.4 1761.06,-134.08 1816.19,-108.12 1818.22,-107.17 1820.25,-106.06 1822.25,-104.87"/>
<polygon fill="green" stroke="green" stroke-width="0.25" points="1824.23,-107.75 1830.59,-99.28 1820.33,-101.94 1824.23,-107.75"/>
</g>
<!-- &#45;6 -->
<g id="node6" class="node">
<title>&#45;6</title>
<polygon fill="lightgray" stroke="black" points="1807.19,-162.12 1783.19,-162.12 1783.19,-144.12 1807.19,-144.12 1807.19,-162.12"/>
<text text-anchor="middle" x="1795.19" y="-150.92" font-family="Times New Roman,serif" font-size="9.00">&#45;6</text>
</g>
<!-- &#45;6&#45;&gt;0 -->
<g id="edge150" class="edge">
<title>&#45;6&#45;&gt;0</title>
<path fill="none" stroke="red" stroke-width="0.38" d="M1807.35,-148.81C1813.55,-147.22 1821.23,-145.38 1828.19,-144.12 1894.27,-132.19 2083.63,-158.35 2128.19,-108.12 2140.71,-94.02 2139.54,-80.76 2128.19,-65.7 2110.19,-41.81 2022.75,-25.89 1979.09,-19.29"/>
<polygon fill="red" stroke="red" stroke-width="0.38" points="1979.41,-15.8 1969,-17.81 1978.39,-22.72 1979.41,-15.8"/>
</g>
<!-- &#45;6&#45;&gt;1 -->
<g id="edge151" class="edge">
<title>&#45;6&#45;&gt;1</title>
<path fill="none" stroke="red" stroke-width="0.35" d="M1807.31,-148.61C1813.51,-146.97 1821.19,-145.14 1828.19,-144.12 1905.26,-132.9 2474.56,-164.59 2528.19,-108.12 2541.18,-94.45 2537.3,-82.21 2528.19,-65.7 2516.45,-44.39 2491.33,-30.94 2472.56,-23.45"/>
<polygon fill="red" stroke="red" stroke-width="0.35" points="2473.75,-20.16 2463.16,-19.98 2471.33,-26.73 2473.75,-20.16"/>
</g>
<!-- &#45;6&#45;&gt;2 -->
<g id="edge152" class="edge">
<title>&#45;6&#45;&gt;2</title>
<path fill="none" stroke="red" stroke-width="0.42" d="M1783.18,-151.34C1728.52,-147.63 1505.19,-131.16 1485.19,-108.12 1472.83,-93.89 1473.97,-80.85 1485.19,-65.7 1517.45,-22.18 1586.75,-15.35 1624.11,-15.03"/>
<polygon fill="red" stroke="red" stroke-width="0.42" points="1624.15,-18.53 1634.17,-15.1 1624.2,-11.53 1624.15,-18.53"/>
</g>
<!-- &#45;6&#45;&gt;3 -->
<g id="edge153" class="edge">
<title>&#45;6&#45;&gt;3</title>
<path fill="none" stroke="green" stroke-width="0.15" d="M1782.97,-151.24C1729.4,-147.26 1517.22,-130.18 1498.19,-108.12 1485.88,-93.85 1486.28,-80.31 1498.19,-65.7 1548.37,-4.15 1598.97,-57.9 1673.19,-29.7 1674.06,-29.37 1674.93,-29.01 1675.8,-28.63"/>
<polygon fill="green" stroke="green" stroke-width="0.15" points="1677.57,-31.66 1684.87,-23.97 1674.37,-25.43 1677.57,-31.66"/>
</g>
<!-- &#45;6&#45;&gt;4 -->
<g id="edge154" class="edge">
<title>&#45;6&#45;&gt;4</title>
<path fill="none" stroke="green" stroke-width="0.41" d="M1783.16,-151.17C1731.36,-146.96 1529.3,-129.25 1511.19,-108.12 1498.92,-93.81 1499.04,-80.11 1511.19,-65.7 1572.24,6.7 1632.13,-61.86 1721.19,-29.7 1722.07,-29.38 1722.94,-29.04 1723.82,-28.67"/>
<polygon fill="green" stroke="green" stroke-width="0.41" points="1725.57,-31.71 1732.9,-24.06 1722.4,-25.46 1725.57,-31.71"/>
</g>
<!-- &#45;6&#45;&gt;5 -->
<g id="edge155" class="edge">
<title>&#45;6&#45;&gt;5</title>
<path fill="none" stroke="green" stroke-width="0.46" d="M1783.03,-151.07C1732.54,-146.57 1541.34,-128.27 1524.19,-108.12 1511.98,-93.76 1511.87,-79.97 1524.19,-65.7 1560.17,-24.05 1717.22,-47.77 1769.19,-29.7 1770.07,-29.39 1770.95,-29.06 1771.83,-28.69"/>
<polygon fill="green" stroke="green" stroke-width="0.46" points="1773.56,-31.74 1780.92,-24.12 1770.41,-25.49 1773.56,-31.74"/>
</g>
<!-- &#45;6&#45;&gt;6 -->
<g id="edge156" class="edge">
<title>&#45;6&#45;&gt;6</title>
<path fill="none" stroke="green" stroke-width="0.19" d="M1786.49,-144.01C1778.42,-135.84 1766.97,-122.44 1762.19,-108.12 1756.23,-90.24 1752.95,-82.13 1762.19,-65.7 1765.6,-59.64 1799.46,-40.27 1822.59,-27.54"/>
<polygon fill="green" stroke="green" stroke-width="0.19" points="1824.33,-30.57 1831.43,-22.71 1820.97,-24.43 1824.33,-30.57"/>
</g>
<!-- &#45;6&#45;&gt;7 -->
<g id="edge157" class="edge">
<title>&#45;6&#45;&gt;7</title>
<path fill="none" stroke="red" stroke-width="0.59" d="M1807.41,-149.14C1813.63,-147.63 1821.31,-145.77 1828.19,-144.12 1896.14,-127.9 1937.82,-162.89 1981.19,-108.12 1992.9,-93.34 1990.44,-82.13 1981.19,-65.7 1974.58,-53.93 1943.49,-37.09 1921.56,-26.31"/>
<polygon fill="red" stroke="red" stroke-width="0.59" points="1923.06,-23.15 1912.53,-21.96 1920.02,-29.46 1923.06,-23.15"/>
</g>
<!-- &#45;6&#45;&gt;8 -->
<g id="edge158" class="edge">
<title>&#45;6&#45;&gt;8</title>
<path fill="none" stroke="red" stroke-width="0.12" d="M1807.31,-148.62C1813.51,-146.97 1821.2,-145.15 1828.19,-144.12 1903.06,-133.17 2456.13,-163.02 2508.19,-108.12 2582.02,-30.29 2340.67,-18.11 2260.31,-16.2"/>
<polygon fill="red" stroke="red" stroke-width="0.12" points="2260.16,-12.7 2250.09,-16 2260.02,-19.7 2260.16,-12.7"/>
</g>
<!-- &#45;6&#45;&gt;9 -->
<g id="edge26" class="edge">
<title>&#45;6&#45;&gt;9</title>
<path fill="none" stroke="red" stroke-width="0.13" d="M1782.87,-151.39C1748.8,-149.01 1651.04,-139.69 1577.19,-108.12 1573.88,-106.71 1570.55,-104.87 1567.4,-102.89"/>
<polygon fill="red" stroke="red" stroke-width="0.13" points="1569.33,-99.97 1559.13,-97.13 1565.33,-105.72 1569.33,-99.97"/>
</g>
<!-- &#45;6&#45;&gt;10 -->
<g id="edge27" class="edge">
<title>&#45;6&#45;&gt;10</title>
<path fill="none" stroke="red" stroke-width="0.33" d="M1807.26,-145.63C1822.45,-137.35 1849.19,-122.39 1871.19,-108.12 1872.89,-107.02 1874.63,-105.86 1876.37,-104.68"/>
<polygon fill="red" stroke="red" stroke-width="0.33" points="1878.7,-107.31 1884.86,-98.68 1874.67,-101.59 1878.7,-107.31"/>
</g>
<!-- &#45;6&#45;&gt;11 -->
<g id="edge28" class="edge">
<title>&#45;6&#45;&gt;11</title>
<path fill="none" stroke="red" stroke-width="0.21" d="M1807.24,-149.38C1830.91,-143.7 1884.8,-129.4 1926.19,-108.12 1927.99,-107.2 1929.81,-106.17 1931.6,-105.07"/>
<polygon fill="red" stroke="red" stroke-width="0.21" points="1933.86,-107.77 1940.2,-99.28 1929.95,-101.96 1933.86,-107.77"/>
</g>
<!-- &#45;6&#45;&gt;12 -->
<g id="edge29" class="edge">
<title>&#45;6&#45;&gt;12</title>
<path fill="none" stroke="red" stroke-width="0.44" d="M1794.43,-143.99C1793.76,-136.75 1792.73,-125.74 1791.76,-115.38"/>
<polygon fill="red" stroke="red" stroke-width="0.44" points="1795.24,-115.03 1790.83,-105.4 1788.27,-115.69 1795.24,-115.03"/>
</g>
<!-- &#45;6&#45;&gt;13 -->
<g id="edge30" class="edge">
<title>&#45;6&#45;&gt;13</title>
<path fill="none" stroke="green" stroke-width="0.66" d="M1801.4,-143.99C1807.87,-135.52 1818.28,-121.87 1827.22,-110.16"/>
<polygon fill="green" stroke="green" stroke-width="0.66" points="1830.1,-112.15 1833.38,-102.08 1824.54,-107.9 1830.1,-112.15"/>
</g>
<!-- &#45;7 -->
<g id="node7" class="node">
<title>&#45;7</title>
<polygon fill="lightgray" stroke="black" points="1861.19,-162.12 1837.19,-162.12 1837.19,-144.12 1861.19,-144.12 1861.19,-162.12"/>
<text text-anchor="middle" x="1849.19" y="-150.92" font-family="Times New Roman,serif" font-size="9.00">&#45;7</text>
</g>
<!-- &#45;7&#45;&gt;0 -->
<g id="edge159" class="edge">
<title>&#45;7&#45;&gt;0</title>
<path fill="none" stroke="green" stroke-width="0.44" d="M1861.37,-149.98C1872.08,-148.17 1888.13,-145.63 1902.19,-144.12 1965.07,-137.4 2426.92,-154.23 2470.19,-108.12 2483.1,-94.38 2482.87,-79.66 2470.19,-65.7 2453.47,-47.27 2080.37,-23.47 1979.27,-17.34"/>
<polygon fill="green" stroke="green" stroke-width="0.44" points="1979.27,-13.83 1969.08,-16.73 1978.85,-20.82 1979.27,-13.83"/>
</g>
<!-- &#45;7&#45;&gt;1 -->
<g id="edge160" class="edge">
<title>&#45;7&#45;&gt;1</title>
<path fill="none" stroke="green" stroke-width="0.41" d="M1861.36,-149.89C1872.07,-148.02 1888.11,-145.45 1902.19,-144.12 1955.66,-139.11 2830.93,-146.8 2868.19,-108.12 2881.28,-94.55 2880.72,-79.8 2868.19,-65.7 2841.87,-36.05 2560.37,-20.9 2474.15,-16.93"/>
<polygon fill="green" stroke="green" stroke-width="0.41" points="2474.12,-13.42 2463.98,-16.47 2473.81,-20.41 2474.12,-13.42"/>
</g>
<!-- &#45;7&#45;&gt;2 -->
<g id="edge161" class="edge">
<title>&#45;7&#45;&gt;2</title>
<path fill="none" stroke="red" stroke-width="0.3" d="M1837.05,-148.79C1830.85,-147.19 1823.16,-145.36 1816.19,-144.12 1746.17,-131.72 1545.57,-161.17 1498.19,-108.12 1485.63,-94.06 1487.15,-80.98 1498.19,-65.7 1526.95,-25.93 1588.58,-17.35 1623.56,-15.83"/>
<polygon fill="red" stroke="red" stroke-width="0.3" points="1624.01,-19.32 1633.91,-15.55 1623.82,-12.32 1624.01,-19.32"/>
</g>
<!-- &#45;7&#45;&gt;3 -->
<g id="edge162" class="edge">
<title>&#45;7&#45;&gt;3</title>
<path fill="none" stroke="red" stroke-width="0.72" d="M1837.05,-148.81C1830.84,-147.21 1823.16,-145.38 1816.19,-144.12 1749.02,-132.06 1556.54,-159.13 1511.19,-108.12 1498.67,-94.03 1499.4,-80.41 1511.19,-65.7 1557.35,-8.17 1604.46,-56.44 1673.19,-29.7 1674.06,-29.36 1674.93,-29 1675.8,-28.61"/>
<polygon fill="red" stroke="red" stroke-width="0.72" points="1677.58,-31.63 1684.85,-23.93 1674.36,-25.42 1677.58,-31.63"/>
</g>
<!-- &#45;7&#45;&gt;4 -->
<g id="edge163" class="edge">
<title>&#45;7&#45;&gt;4</title>
<path fill="none" stroke="green" stroke-width="0.35" d="M1837.04,-148.82C1830.84,-147.23 1823.15,-145.39 1816.19,-144.12 1751.87,-132.4 1567.5,-157.1 1524.19,-108.12 1511.7,-94 1512.12,-80.18 1524.19,-65.7 1581.19,2.66 1637.65,-60.39 1721.19,-29.7 1722.06,-29.38 1722.94,-29.03 1723.81,-28.66"/>
<polygon fill="green" stroke="green" stroke-width="0.35" points="1725.57,-31.69 1732.89,-24.03 1722.39,-25.45 1725.57,-31.69"/>
</g>
<!-- &#45;7&#45;&gt;5 -->
<g id="edge164" class="edge">
<title>&#45;7&#45;&gt;5</title>
<path fill="none" stroke="red" stroke-width="0.33" d="M1836.85,-147.72C1814.92,-139.61 1770.66,-121.89 1762.19,-108.12 1747.92,-84.9 1763.94,-54.31 1777.74,-34.86"/>
<polygon fill="red" stroke="red" stroke-width="0.33" points="1780.61,-36.87 1783.82,-26.77 1775.01,-32.66 1780.61,-36.87"/>
</g>
<!-- &#45;7&#45;&gt;6 -->
<g id="edge165" class="edge">
<title>&#45;7&#45;&gt;6</title>
<path fill="none" stroke="red" stroke-width="0.12" d="M1861.54,-149.89C1891.52,-144.19 1966.79,-128.11 1981.19,-108.12 1992.22,-92.83 1992.18,-81.03 1981.19,-65.7 1952.22,-25.25 1921.51,-47.87 1875.19,-29.7 1872.42,-28.61 1869.52,-27.41 1866.67,-26.18"/>
<polygon fill="red" stroke="red" stroke-width="0.12" points="1867.92,-22.91 1857.36,-22.05 1865.08,-29.31 1867.92,-22.91"/>
</g>
<!-- &#45;7&#45;&gt;7 -->
<g id="edge166" class="edge">
<title>&#45;7&#45;&gt;7</title>
<path fill="none" stroke="red" stroke-width="0.25" d="M1861.27,-150.14C1909.56,-142.15 2086.43,-112.64 2090.19,-108.12 2102.27,-93.64 2101.97,-80.42 2090.19,-65.7 2044.66,-8.78 1999.37,-52.68 1930.19,-29.7 1927.36,-28.76 1924.44,-27.65 1921.57,-26.47"/>
<polygon fill="red" stroke="red" stroke-width="0.25" points="1922.8,-23.19 1912.24,-22.37 1919.99,-29.6 1922.8,-23.19"/>
</g>
<!-- &#45;7&#45;&gt;8 -->
<g id="edge167" class="edge">
<title>&#45;7&#45;&gt;8</title>
<path fill="none" stroke="green" stroke-width="0.46" d="M1861.36,-149.89C1872.07,-148.02 1888.11,-145.45 1902.19,-144.12 1954.67,-139.18 2813.64,-146.09 2850.19,-108.12 2863.27,-94.54 2862.98,-79.56 2850.19,-65.7 2845.09,-60.17 2374.87,-25.92 2260.2,-17.65"/>
<polygon fill="green" stroke="green" stroke-width="0.46" points="2260.18,-14.14 2249.96,-16.91 2259.68,-21.12 2260.18,-14.14"/>
</g>
<!-- &#45;7&#45;&gt;9 -->
<g id="edge31" class="edge">
<title>&#45;7&#45;&gt;9</title>
<path fill="none" stroke="red" stroke-width="0.13" d="M1837.03,-148.9C1830.82,-147.33 1823.14,-145.49 1816.19,-144.12 1710.78,-123.45 1676.99,-147.88 1577.19,-108.12 1573.84,-106.79 1570.5,-105 1567.34,-103.04"/>
<polygon fill="red" stroke="red" stroke-width="0.13" points="1569.27,-100.12 1559.06,-97.28 1565.27,-105.86 1569.27,-100.12"/>
</g>
<!-- &#45;7&#45;&gt;10 -->
<g id="edge32" class="edge">
<title>&#45;7&#45;&gt;10</title>
<path fill="none" stroke="green" stroke-width="0.26" d="M1855.53,-143.99C1862.12,-135.52 1872.75,-121.87 1881.87,-110.16"/>
<polygon fill="green" stroke="green" stroke-width="0.26" points="1884.78,-112.12 1888.16,-102.08 1879.26,-107.82 1884.78,-112.12"/>
</g>
<!-- &#45;7&#45;&gt;11 -->
<g id="edge33" class="edge">
<title>&#45;7&#45;&gt;11</title>
<path fill="none" stroke="green" stroke-width="0.12" d="M1861.43,-145.65C1876.83,-137.4 1903.93,-122.46 1926.19,-108.12 1927.9,-107.03 1929.64,-105.87 1931.37,-104.69"/>
<polygon fill="green" stroke="green" stroke-width="0.12" points="1933.71,-107.32 1939.87,-98.7 1929.68,-101.6 1933.71,-107.32"/>
</g>
<!-- &#45;7&#45;&gt;12 -->
<g id="edge34" class="edge">
<title>&#45;7&#45;&gt;12</title>
<path fill="none" stroke="green" stroke-width="0.36" d="M1841.6,-143.99C1833.32,-135.13 1819.75,-120.62 1808.5,-108.57"/>
<polygon fill="green" stroke="green" stroke-width="0.36" points="1810.9,-106.02 1801.52,-101.1 1805.79,-110.8 1810.9,-106.02"/>
</g>
<!-- &#45;7&#45;&gt;13 -->
<g id="edge35" class="edge">
<title>&#45;7&#45;&gt;13</title>
<path fill="none" stroke="green" stroke-width="0.18" d="M1848.56,-143.99C1848,-136.75 1847.14,-125.74 1846.33,-115.38"/>
<polygon fill="green" stroke="green" stroke-width="0.18" points="1849.82,-115.1 1845.56,-105.4 1842.84,-115.65 1849.82,-115.1"/>
</g>
<!-- &#45;8 -->
<g id="node8" class="node">
<title>&#45;8</title>
<polygon fill="lightgray" stroke="black" points="3380.19,-162.12 3356.19,-162.12 3356.19,-144.12 3380.19,-144.12 3380.19,-162.12"/>
<text text-anchor="middle" x="3368.19" y="-150.92" font-family="Times New Roman,serif" font-size="9.00">&#45;8</text>
</g>
<!-- &#45;8&#45;&gt;0 -->
<g id="edge168" class="edge">
<title>&#45;8&#45;&gt;0</title>
<path fill="none" stroke="green" stroke-width="0.19" d="M3356.09,-149.16C3303.97,-136.55 3093.3,-86.96 2917.19,-65.7 2605.27,-28.04 2524.95,-46.15 2211.19,-29.7 2126.07,-25.23 2025.1,-19.73 1979.17,-17.22"/>
<polygon fill="green" stroke="green" stroke-width="0.19" points="1979.15,-13.71 1968.97,-16.66 1978.76,-20.7 1979.15,-13.71"/>
</g>
<!-- &#45;8&#45;&gt;1 -->
<g id="edge169" class="edge">
<title>&#45;8&#45;&gt;1</title>
<path fill="none" stroke="green" stroke-width="0.13" d="M3380.25,-151.89C3475.2,-149.99 4099.45,-136.47 4126.19,-108.12 4139.14,-94.41 4139.33,-79.23 4126.19,-65.7 4096.11,-34.71 2681.33,-18.34 2474.36,-16.11"/>
<polygon fill="green" stroke="green" stroke-width="0.13" points="2474.21,-12.61 2464.17,-16 2474.14,-19.61 2474.21,-12.61"/>
</g>
<!-- &#45;8&#45;&gt;2 -->
<g id="edge170" class="edge">
<title>&#45;8&#45;&gt;2</title>
<path fill="none" stroke="red" stroke-width="0.12" d="M3355.98,-150.76C3276.03,-141.9 2818.88,-91.89 2445.19,-65.7 2273.87,-53.69 1838.01,-77.98 1673.19,-29.7 1672.13,-29.39 1671.07,-29.02 1670.01,-28.61"/>
<polygon fill="red" stroke="red" stroke-width="0.12" points="1671.41,-25.4 1660.89,-24.09 1668.3,-31.67 1671.41,-25.4"/>
</g>
<!-- &#45;8&#45;&gt;3 -->
<g id="edge171" class="edge">
<title>&#45;8&#45;&gt;3</title>
<path fill="none" stroke="green" stroke-width="0.16" d="M3363.62,-143.96C3352.33,-124.15 3322.85,-74.49 3306.19,-65.7 3150.4,16.52 1890.83,-77.2 1721.19,-29.7 1720.13,-29.4 1719.06,-29.04 1718,-28.64"/>
<polygon fill="green" stroke="green" stroke-width="0.16" points="1719.39,-25.43 1708.88,-24.15 1716.3,-31.71 1719.39,-25.43"/>
</g>
<!-- &#45;8&#45;&gt;4 -->
<g id="edge172" class="edge">
<title>&#45;8&#45;&gt;4</title>
<path fill="none" stroke="red" stroke-width="0.66" d="M3368.79,-144.01C3369.59,-126.4 3368.65,-84.73 3344.19,-65.7 3275.13,-11.94 1853.47,-53.31 1769.19,-29.7 1768.13,-29.4 1767.06,-29.04 1766,-28.64"/>
<polygon fill="red" stroke="red" stroke-width="0.66" points="1767.39,-25.43 1756.88,-24.15 1764.3,-31.71 1767.39,-25.43"/>
</g>
<!-- &#45;8&#45;&gt;5 -->
<g id="edge173" class="edge">
<title>&#45;8&#45;&gt;5</title>
<path fill="none" stroke="red" stroke-width="0.26" d="M3373.42,-143.88C3383.55,-126.75 3403.12,-87.11 3382.19,-65.7 3321.53,-3.62 1904.33,-51.05 1820.19,-29.7 1818.28,-29.21 1816.35,-28.57 1814.44,-27.83"/>
<polygon fill="red" stroke="red" stroke-width="0.26" points="1815.9,-24.65 1805.37,-23.57 1812.93,-30.99 1815.9,-24.65"/>
</g>
<!-- &#45;8&#45;&gt;6 -->
<g id="edge174" class="edge">
<title>&#45;8&#45;&gt;6</title>
<path fill="none" stroke="green" stroke-width="0.39" d="M3380.35,-145.98C3392.99,-138.83 3412.03,-125.72 3420.19,-108.12 3428.13,-91.02 3433.37,-79.19 3420.19,-65.7 3360.2,-4.29 1958.95,-48.58 1875.19,-29.7 1872.13,-29.01 1869,-28 1865.96,-26.85"/>
<polygon fill="green" stroke="green" stroke-width="0.39" points="1867.34,-23.63 1856.77,-22.83 1864.53,-30.04 1867.34,-23.63"/>
</g>
<!-- &#45;8&#45;&gt;7 -->
<g id="edge175" class="edge">
<title>&#45;8&#45;&gt;7</title>
<path fill="none" stroke="red" stroke-width="0.14" d="M3355.77,-150.25C3287.02,-139.93 2946.36,-89.76 2666.19,-65.7 2503.04,-51.68 2089.46,-67.75 1930.19,-29.7 1927.14,-28.97 1924.01,-27.94 1920.98,-26.78"/>
<polygon fill="red" stroke="red" stroke-width="0.14" points="1922.35,-23.56 1911.79,-22.75 1919.55,-29.97 1922.35,-23.56"/>
</g>
<!-- &#45;8&#45;&gt;8 -->
<g id="edge176" class="edge">
<title>&#45;8&#45;&gt;8</title>
<path fill="none" stroke="green" stroke-width="0.11" d="M3380.24,-151.82C3469.96,-149.47 4031.13,-133.79 4055.19,-108.12 4068.09,-94.37 4068.38,-79.18 4055.19,-65.7 4023.53,-33.32 2470.43,-31.85 2425.19,-29.7 2365.91,-26.89 2296.39,-21.21 2260.11,-18.07"/>
<polygon fill="green" stroke="green" stroke-width="0.11" points="2260.23,-14.57 2249.96,-17.18 2259.62,-21.54 2260.23,-14.57"/>
</g>
<!-- &#45;8&#45;&gt;10 -->
<g id="edge36" class="edge">
<title>&#45;8&#45;&gt;10</title>
<path fill="none" stroke="green" stroke-width="0.66" d="M3356.06,-151.85C3218.81,-148.78 1963.03,-120.32 1927.19,-108.12 1925.07,-107.4 1922.97,-106.46 1920.94,-105.38"/>
<polygon fill="green" stroke="green" stroke-width="0.66" points="1922.82,-102.43 1912.52,-99.98 1919.05,-108.33 1922.82,-102.43"/>
</g>
<!-- &#45;8&#45;&gt;11 -->
<g id="edge37" class="edge">
<title>&#45;8&#45;&gt;11</title>
<path fill="none" stroke="red" stroke-width="0.39" d="M3355.97,-151.57C3230.13,-145.85 2171.19,-97.77 1982.8,-89.21"/>
<polygon fill="red" stroke="red" stroke-width="0.39" points="1982.74,-85.7 1972.59,-88.75 1982.43,-92.7 1982.74,-85.7"/>
</g>
<!-- &#45;8&#45;&gt;12 -->
<g id="edge38" class="edge">
<title>&#45;8&#45;&gt;12</title>
<path fill="none" stroke="green" stroke-width="0.22" d="M3355.87,-151.83C3210.96,-148.3 1836.53,-114.68 1817.19,-108.12 1815.07,-107.41 1812.97,-106.47 1810.94,-105.38"/>
<polygon fill="green" stroke="green" stroke-width="0.22" points="1812.82,-102.44 1802.51,-99.99 1809.05,-108.33 1812.82,-102.44"/>
</g>
<!-- &#45;8&#45;&gt;13 -->
<g id="edge39" class="edge">
<title>&#45;8&#45;&gt;13</title>
<path fill="none" stroke="red" stroke-width="0.34" d="M3355.87,-151.81C3213.81,-148.2 1890.82,-114.45 1872.19,-108.12 1870.07,-107.4 1867.97,-106.46 1865.94,-105.38"/>
<polygon fill="red" stroke="red" stroke-width="0.34" points="1867.82,-102.43 1857.51,-99.99 1864.05,-108.33 1867.82,-102.43"/>
</g>
<!-- &#45;9 -->
<g id="node9" class="node">
<title>&#45;9</title>
<polygon fill="lightgray" stroke="black" points="2297.19,-162.12 2273.19,-162.12 2273.19,-144.12 2297.19,-144.12 2297.19,-162.12"/>
<text text-anchor="middle" x="2285.19" y="-150.92" font-family="Times New Roman,serif" font-size="9.00">&#45;9</text>
</g>
<!-- &#45;9&#45;&gt;0 -->
<g id="edge177" class="edge">
<title>&#45;9&#45;&gt;0</title>
<path fill="none" stroke="red" stroke-width="0.37" d="M2297.68,-152.1C2375.59,-151.85 2792.86,-148.59 2830.19,-108.12 2842.98,-94.27 2843.14,-79.41 2830.19,-65.7 2828.31,-63.71 2122.59,-25.05 1979.37,-17.22"/>
<polygon fill="red" stroke="red" stroke-width="0.37" points="1979.17,-13.71 1969,-16.66 1978.79,-20.7 1979.17,-13.71"/>
</g>
<!-- &#45;9&#45;&gt;1 -->
<g id="edge178" class="edge">
<title>&#45;9&#45;&gt;1</title>
<path fill="none" stroke="red" stroke-width="0.38" d="M2297.57,-151.83C2429.87,-148.62 3578.32,-120.41 3590.19,-108.12 3603.3,-94.57 3603.23,-79.32 3590.19,-65.7 3550.28,-24 2638.63,-16.91 2474.42,-15.98"/>
<polygon fill="red" stroke="red" stroke-width="0.38" points="2474.32,-12.47 2464.3,-15.92 2474.28,-19.47 2474.32,-12.47"/>
</g>
<!-- &#45;9&#45;&gt;2 -->
<g id="edge179" class="edge">
<title>&#45;9&#45;&gt;2</title>
<path fill="none" stroke="red" stroke-width="0.52" d="M2272.92,-147.86C2232.04,-133.83 2096.62,-88.7 1981.19,-65.7 1846.03,-38.77 1804.02,-73.03 1673.19,-29.7 1672.32,-29.41 1671.43,-29.08 1670.55,-28.73"/>
<polygon fill="red" stroke="red" stroke-width="0.52" points="1671.96,-25.52 1661.44,-24.19 1668.84,-31.78 1671.96,-25.52"/>
</g>
<!-- &#45;9&#45;&gt;3 -->
<g id="edge180" class="edge">
<title>&#45;9&#45;&gt;3</title>
<path fill="none" stroke="green" stroke-width="0.3" d="M2283.87,-143.93C2280.53,-126.17 2269.92,-84.23 2242.19,-65.7 2145.7,-1.22 1832.2,-63.57 1721.19,-29.7 1720.14,-29.38 1719.07,-29 1718.02,-28.58"/>
<polygon fill="green" stroke="green" stroke-width="0.3" points="1719.42,-25.37 1708.91,-24.03 1716.29,-31.63 1719.42,-25.37"/>
</g>
<!-- &#45;9&#45;&gt;4 -->
<g id="edge181" class="edge">
<title>&#45;9&#45;&gt;4</title>
<path fill="none" stroke="green" stroke-width="0.28" d="M2287.76,-144.09C2292.66,-126.99 2301.1,-86.87 2280.19,-65.7 2240.2,-25.2 1823.62,-46.35 1769.19,-29.7 1768.14,-29.37 1767.08,-29 1766.02,-28.58"/>
<polygon fill="green" stroke="green" stroke-width="0.28" points="1767.42,-25.37 1756.91,-24.02 1764.29,-31.63 1767.42,-25.37"/>
</g>
<!-- &#45;9&#45;&gt;5 -->
<g id="edge182" class="edge">
<title>&#45;9&#45;&gt;5</title>
<path fill="none" stroke="red" stroke-width="0.19" d="M2293.32,-143.91C2308.9,-127.16 2339.64,-88.75 2318.19,-65.7 2280.41,-25.08 1873.62,-44.66 1820.19,-29.7 1818.29,-29.17 1816.37,-28.49 1814.47,-27.73"/>
<polygon fill="red" stroke="red" stroke-width="0.19" points="1815.94,-24.55 1805.4,-23.43 1812.94,-30.88 1815.94,-24.55"/>
</g>
<!-- &#45;9&#45;&gt;6 -->
<g id="edge183" class="edge">
<title>&#45;9&#45;&gt;6</title>
<path fill="none" stroke="red" stroke-width="0.71" d="M2273.04,-147.87C2235.43,-134.78 2117.47,-94.23 2018.19,-65.7 1955.21,-47.6 1937.12,-51.15 1875.19,-29.7 1872.37,-28.72 1869.46,-27.59 1866.59,-26.4"/>
<polygon fill="red" stroke="red" stroke-width="0.71" points="1867.83,-23.12 1857.27,-22.29 1865.01,-29.53 1867.83,-23.12"/>
</g>
<!-- &#45;9&#45;&gt;7 -->
<g id="edge184" class="edge">
<title>&#45;9&#45;&gt;7</title>
<path fill="none" stroke="green" stroke-width="0.25" d="M2297.43,-150.76C2332.35,-146.6 2431.23,-132.81 2450.19,-108.12 2461.68,-93.17 2463.06,-79.48 2450.19,-65.7 2410.68,-23.36 1986.39,-43.73 1930.19,-29.7 1927.15,-28.94 1924.03,-27.89 1920.99,-26.72"/>
<polygon fill="green" stroke="green" stroke-width="0.25" points="1922.37,-23.5 1911.8,-22.69 1919.56,-29.91 1922.37,-23.5"/>
</g>
<!-- &#45;9&#45;&gt;8 -->
<g id="edge185" class="edge">
<title>&#45;9&#45;&gt;8</title>
<path fill="none" stroke="red" stroke-width="0.35" d="M2297.4,-151.82C2427.88,-148.6 3560.48,-120.25 3572.19,-108.12 3585.3,-94.57 3585.32,-79.24 3572.19,-65.7 3527.83,-19.92 2488.86,-33.02 2425.19,-29.7 2365.93,-26.61 2296.4,-21.05 2260.11,-18"/>
<polygon fill="red" stroke="red" stroke-width="0.35" points="2260.22,-14.49 2249.96,-17.13 2259.63,-21.47 2260.22,-14.49"/>
</g>
<!-- &#45;9&#45;&gt;9 -->
<g id="edge40" class="edge">
<title>&#45;9&#45;&gt;9</title>
<path fill="none" stroke="green" stroke-width="0.79" d="M2273.03,-151.15C2215.66,-146.53 1966.4,-126.36 1762.19,-108.12 1693.73,-102.01 1613.01,-94.23 1573.11,-90.35"/>
<polygon fill="green" stroke="green" stroke-width="0.79" points="1573.27,-86.85 1562.98,-89.36 1572.59,-93.81 1573.27,-86.85"/>
</g>
<!-- &#45;9&#45;&gt;10 -->
<g id="edge41" class="edge">
<title>&#45;9&#45;&gt;10</title>
<path fill="none" stroke="green" stroke-width="0.21" d="M2272.87,-151.43C2217.61,-148.21 1992.49,-133.73 1927.19,-108.12 1925.11,-107.31 1923.03,-106.3 1921.01,-105.17"/>
<polygon fill="green" stroke="green" stroke-width="0.21" points="1922.91,-102.23 1912.62,-99.69 1919.08,-108.09 1922.91,-102.23"/>
</g>
<!-- &#45;9&#45;&gt;11 -->
<g id="edge42" class="edge">
<title>&#45;9&#45;&gt;11</title>
<path fill="none" stroke="green" stroke-width="0.36" d="M2273.02,-149.76C2225.42,-140.53 2051.09,-106.71 1982.34,-93.37"/>
<polygon fill="green" stroke="green" stroke-width="0.36" points="1982.73,-89.88 1972.25,-91.41 1981.4,-96.75 1982.73,-89.88"/>
</g>
<!-- &#45;9&#45;&gt;12 -->
<g id="edge43" class="edge">
<title>&#45;9&#45;&gt;12</title>
<path fill="none" stroke="red" stroke-width="0.16" d="M2273.17,-151.85C2208.8,-150.23 1904.47,-140.93 1817.19,-108.12 1815.1,-107.34 1813.02,-106.35 1810.99,-105.23"/>
<polygon fill="red" stroke="red" stroke-width="0.16" points="1812.88,-102.29 1802.59,-99.78 1809.07,-108.16 1812.88,-102.29"/>
</g>
<!-- &#45;9&#45;&gt;13 -->
<g id="edge44" class="edge">
<title>&#45;9&#45;&gt;13</title>
<path fill="none" stroke="green" stroke-width="0.26" d="M2273.04,-151.67C2213.07,-149.3 1948.46,-137.33 1872.19,-108.12 1870.1,-107.32 1868.02,-106.33 1866,-105.2"/>
<polygon fill="green" stroke="green" stroke-width="0.26" points="1867.89,-102.26 1857.6,-99.74 1864.08,-108.13 1867.89,-102.26"/>
</g>
<!-- &#45;10 -->
<g id="node10" class="node">
<title>&#45;10</title>
<polygon fill="lightgray" stroke="black" points="3002.69,-162.12 2973.69,-162.12 2973.69,-144.12 3002.69,-144.12 3002.69,-162.12"/>
<text text-anchor="middle" x="2988.19" y="-150.92" font-family="Times New Roman,serif" font-size="9.00">&#45;10</text>
</g>
<!-- &#45;10&#45;&gt;0 -->
<g id="edge186" class="edge">
<title>&#45;10&#45;&gt;0</title>
<path fill="none" stroke="green" stroke-width="0.3" d="M2980.35,-143.98C2962.36,-125.93 2915.91,-82.79 2867.19,-65.7 2865.85,-65.23 2126.79,-25.19 1979.54,-17.22"/>
<polygon fill="green" stroke="green" stroke-width="0.3" points="1979.43,-13.71 1969.26,-16.66 1979.05,-20.7 1979.43,-13.71"/>
</g>
<!-- &#45;10&#45;&gt;1 -->
<g id="edge187" class="edge">
<title>&#45;10&#45;&gt;1</title>
<path fill="none" stroke="green" stroke-width="0.16" d="M3002.99,-151.8C3130.28,-148.95 4036.1,-128.02 4055.19,-108.12 4068.25,-94.52 4068.32,-79.24 4055.19,-65.7 4026.46,-36.06 2677.05,-18.6 2474.52,-16.15"/>
<polygon fill="green" stroke="green" stroke-width="0.16" points="2474.32,-12.65 2464.28,-16.03 2474.24,-19.65 2474.32,-12.65"/>
</g>
<!-- &#45;10&#45;&gt;2 -->
<g id="edge188" class="edge">
<title>&#45;10&#45;&gt;2</title>
<path fill="none" stroke="red" stroke-width="0.19" d="M2973.63,-150.17C2897.18,-139.98 2534.3,-92.34 2236.19,-65.7 2111.33,-54.54 1793.2,-65.98 1673.19,-29.7 1672.14,-29.38 1671.07,-29 1670.02,-28.59"/>
<polygon fill="red" stroke="red" stroke-width="0.19" points="1671.42,-25.38 1660.91,-24.04 1668.29,-31.64 1671.42,-25.38"/>
</g>
<!-- &#45;10&#45;&gt;3 -->
<g id="edge189" class="edge">
<title>&#45;10&#45;&gt;3</title>
<path fill="none" stroke="red" stroke-width="0.24" d="M2983.62,-143.97C2972.32,-124.18 2942.82,-74.55 2926.19,-65.7 2807.96,-2.76 1850.05,-66.28 1721.19,-29.7 1720.13,-29.4 1719.06,-29.04 1718,-28.63"/>
<polygon fill="red" stroke="red" stroke-width="0.24" points="1719.4,-25.42 1708.88,-24.13 1716.3,-31.69 1719.4,-25.42"/>
</g>
<!-- &#45;10&#45;&gt;4 -->
<g id="edge190" class="edge">
<title>&#45;10&#45;&gt;4</title>
<path fill="none" stroke="green" stroke-width="0.27" d="M2988.78,-144.02C2989.56,-126.44 2988.58,-84.82 2964.19,-65.7 2911.93,-24.71 1833.09,-47.85 1769.19,-29.7 1768.13,-29.4 1767.06,-29.04 1766,-28.63"/>
<polygon fill="green" stroke="green" stroke-width="0.27" points="1767.4,-25.42 1756.88,-24.13 1764.3,-31.69 1767.4,-25.42"/>
</g>
<!-- &#45;10&#45;&gt;5 -->
<g id="edge191" class="edge">
<title>&#45;10&#45;&gt;5</title>
<path fill="none" stroke="red" stroke-width="0.18" d="M2993.41,-143.89C3003.51,-126.79 3023.04,-87.19 3002.19,-65.7 2956.45,-18.54 1883.81,-46.09 1820.19,-29.7 1818.28,-29.21 1816.35,-28.56 1814.45,-27.82"/>
<polygon fill="red" stroke="red" stroke-width="0.18" points="1815.91,-24.64 1805.37,-23.55 1812.93,-30.97 1815.91,-24.64"/>
</g>
<!-- &#45;10&#45;&gt;6 -->
<g id="edge192" class="edge">
<title>&#45;10&#45;&gt;6</title>
<path fill="none" stroke="green" stroke-width="0.26" d="M2973.62,-150.37C2897.06,-141.15 2533.78,-97.64 2236.19,-65.7 2075.88,-48.49 2031.03,-71.11 1875.19,-29.7 1872.31,-28.93 1869.36,-27.93 1866.47,-26.81"/>
<polygon fill="green" stroke="green" stroke-width="0.26" points="1867.69,-23.52 1857.13,-22.74 1864.9,-29.94 1867.69,-23.52"/>
</g>
<!-- &#45;10&#45;&gt;7 -->
<g id="edge193" class="edge">
<title>&#45;10&#45;&gt;7</title>
<path fill="none" stroke="red" stroke-width="0.46" d="M2973.54,-148.69C2916.54,-135.48 2703.96,-87.61 2526.19,-65.7 2262.82,-33.24 2187.95,-92.84 1930.19,-29.7 1927.14,-28.95 1924.02,-27.92 1920.99,-26.74"/>
<polygon fill="red" stroke="red" stroke-width="0.46" points="1922.36,-23.52 1911.8,-22.72 1919.55,-29.94 1922.36,-23.52"/>
</g>
<!-- &#45;10&#45;&gt;8 -->
<g id="edge194" class="edge">
<title>&#45;10&#45;&gt;8</title>
<path fill="none" stroke="red" stroke-width="0.29" d="M3002.96,-151.64C3095,-148.55 3586.86,-131.02 3608.19,-108.12 3621.05,-94.33 3621.32,-79.23 3608.19,-65.7 3562.41,-18.5 2490.86,-33.09 2425.19,-29.7 2365.93,-26.64 2296.4,-21.06 2260.11,-18"/>
<polygon fill="red" stroke="red" stroke-width="0.29" points="2260.22,-14.5 2249.96,-17.14 2259.63,-21.48 2260.22,-14.5"/>
</g>
<!-- &#45;10&#45;&gt;9 -->
<g id="edge45" class="edge">
<title>&#45;10&#45;&gt;9</title>
<path fill="none" stroke="red" stroke-width="0.68" d="M2973.49,-151.72C2852.11,-148.32 2014.31,-124.54 1762.19,-108.12 1693.61,-103.66 1612.94,-95.16 1573.08,-90.74"/>
<polygon fill="red" stroke="red" stroke-width="0.68" points="1573.29,-87.24 1562.96,-89.61 1572.51,-94.2 1573.29,-87.24"/>
</g>
<!-- &#45;10&#45;&gt;10 -->
<g id="edge46" class="edge">
<title>&#45;10&#45;&gt;10</title>
<path fill="none" stroke="green" stroke-width="0.3" d="M2973.58,-151.76C2849.69,-148.63 1978.97,-126.05 1927.19,-108.12 1925.08,-107.39 1922.98,-106.44 1920.95,-105.35"/>
<polygon fill="green" stroke="green" stroke-width="0.3" points="1922.83,-102.41 1912.53,-99.95 1919.05,-108.3 1922.83,-102.41"/>
</g>
<!-- &#45;10&#45;&gt;11 -->
<g id="edge47" class="edge">
<title>&#45;10&#45;&gt;11</title>
<path fill="none" stroke="red" stroke-width="0.29" d="M2973.58,-151.22C2861.27,-144.24 2135.69,-99.18 1982.55,-89.67"/>
<polygon fill="red" stroke="red" stroke-width="0.29" points="1982.73,-86.18 1972.53,-89.05 1982.29,-93.16 1982.73,-86.18"/>
</g>
<!-- &#45;10&#45;&gt;12 -->
<g id="edge48" class="edge">
<title>&#45;10&#45;&gt;12</title>
<path fill="none" stroke="red" stroke-width="0.2" d="M2973.35,-151.69C2839.57,-147.73 1845.9,-118 1817.19,-108.12 1815.08,-107.4 1812.98,-106.45 1810.94,-105.36"/>
<polygon fill="red" stroke="red" stroke-width="0.2" points="1812.83,-102.42 1802.52,-99.96 1809.05,-108.31 1812.83,-102.42"/>
</g>
<!-- &#45;10&#45;&gt;13 -->
<g id="edge49" class="edge">
<title>&#45;10&#45;&gt;13</title>
<path fill="none" stroke="green" stroke-width="0.13" d="M2973.63,-151.79C2846.37,-148.85 1926.78,-126.96 1872.19,-108.12 1870.08,-107.39 1867.98,-106.45 1865.94,-105.36"/>
<polygon fill="green" stroke="green" stroke-width="0.13" points="1867.83,-102.41 1857.53,-99.95 1864.05,-108.3 1867.83,-102.41"/>
</g>
<!-- 173 -->
<g id="node27" class="node">
<title>173</title>
<ellipse fill="white" stroke="black" cx="4025.19" cy="-86.91" rx="21.43" ry="21.43"/>
<text text-anchor="middle" x="4025.19" y="-84.71" font-family="Times New Roman,serif" font-size="9.00">173</text>
</g>
<!-- &#45;10&#45;&gt;173 -->
<g id="edge212" class="edge">
<title>&#45;10&#45;&gt;173</title>
<path fill="none" stroke="green" stroke-width="0.46" d="M3002.74,-151.68C3122.34,-148.03 3940.62,-122.58 3990.19,-108.12 3993.2,-107.25 3996.21,-106.07 3999.15,-104.71"/>
<polygon fill="green" stroke="green" stroke-width="0.46" points="4000.94,-107.72 4008.14,-99.94 3997.66,-101.54 4000.94,-107.72"/>
</g>
<!-- &#45;11 -->
<g id="node11" class="node">
<title>&#45;11</title>
<polygon fill="lightgray" stroke="black" points="151.69,-162.12 122.69,-162.12 122.69,-144.12 151.69,-144.12 151.69,-162.12"/>
<text text-anchor="middle" x="137.19" y="-150.92" font-family="Times New Roman,serif" font-size="9.00">&#45;11</text>
</g>
<!-- &#45;11&#45;&gt;0 -->
<g id="edge195" class="edge">
<title>&#45;11&#45;&gt;0</title>
<path fill="none" stroke="green" stroke-width="0.21" d="M140.11,-144C147.06,-125.98 166.52,-82.91 199.19,-65.7 283.96,-21.06 1829.72,-50.65 1923.19,-29.7 1926.26,-29.01 1929.39,-28.01 1932.43,-26.86"/>
<polygon fill="green" stroke="green" stroke-width="0.21" points="1933.86,-30.05 1941.62,-22.84 1931.06,-23.64 1933.86,-30.05"/>
</g>
<!-- &#45;11&#45;&gt;1 -->
<g id="edge196" class="edge">
<title>&#45;11&#45;&gt;1</title>
<path fill="none" stroke="green" stroke-width="0.22" d="M151.85,-149.59C222.26,-137.55 533.11,-85.8 790.19,-65.7 1441.29,-14.78 1606.88,-61.45 2259.19,-29.7 2318.47,-26.81 2388,-21.17 2424.28,-18.05"/>
<polygon fill="green" stroke="green" stroke-width="0.22" points="2424.77,-21.52 2434.43,-17.17 2424.16,-14.55 2424.77,-21.52"/>
</g>
<!-- &#45;11&#45;&gt;2 -->
<g id="edge197" class="edge">
<title>&#45;11&#45;&gt;2</title>
<path fill="none" stroke="red" stroke-width="0.23" d="M151.97,-149.02C213.44,-136.26 455.04,-87.42 656.19,-65.7 1040.26,-24.22 1511.71,-17.17 1624.24,-16.05"/>
<polygon fill="red" stroke="red" stroke-width="0.23" points="1624.31,-19.55 1634.27,-15.96 1624.24,-12.55 1624.31,-19.55"/>
</g>
<!-- &#45;11&#45;&gt;3 -->
<g id="edge198" class="edge">
<title>&#45;11&#45;&gt;3</title>
<path fill="none" stroke="red" stroke-width="0.38" d="M135.21,-143.92C131.54,-126.49 125.96,-85.76 148.19,-65.7 211.12,-8.94 1591.6,-52.59 1673.19,-29.7 1674.26,-29.4 1675.33,-29.04 1676.39,-28.64"/>
<polygon fill="red" stroke="red" stroke-width="0.38" points="1678.09,-31.71 1685.51,-24.15 1674.99,-25.43 1678.09,-31.71"/>
</g>
<!-- &#45;11&#45;&gt;4 -->
<g id="edge199" class="edge">
<title>&#45;11&#45;&gt;4</title>
<path fill="none" stroke="green" stroke-width="0.31" d="M122.54,-152.15C94.91,-151.3 35.54,-145.04 9.19,-108.12 -1.76,-92.78 -4,-79.17 9.19,-65.7 75.75,2.27 1629.57,-55.27 1721.19,-29.7 1722.26,-29.4 1723.33,-29.05 1724.39,-28.64"/>
<polygon fill="green" stroke="green" stroke-width="0.31" points="1726.09,-31.71 1733.51,-24.15 1723,-25.43 1726.09,-31.71"/>
</g>
<!-- &#45;11&#45;&gt;5 -->
<g id="edge200" class="edge">
<title>&#45;11&#45;&gt;5</title>
<path fill="none" stroke="red" stroke-width="0.15" d="M122.49,-149.82C101.53,-145.65 63.77,-134.68 47.19,-108.12 37.21,-92.13 34,-79.17 47.19,-65.7 114.15,2.67 1677.03,-55.42 1769.19,-29.7 1770.26,-29.4 1771.33,-29.05 1772.39,-28.64"/>
<polygon fill="red" stroke="red" stroke-width="0.15" points="1774.09,-31.71 1781.51,-24.15 1771,-25.43 1774.09,-31.71"/>
</g>
<!-- &#45;11&#45;&gt;6 -->
<g id="edge201" class="edge">
<title>&#45;11&#45;&gt;6</title>
<path fill="none" stroke="red" stroke-width="0.92" d="M122.66,-144.6C110.12,-137.21 92.86,-124.65 85.19,-108.12 77.26,-91.02 72,-79.17 85.19,-65.7 152.54,3.06 1723.88,-53.26 1817.19,-29.7 1819.11,-29.21 1821.04,-28.58 1822.95,-27.84"/>
<polygon fill="red" stroke="red" stroke-width="0.92" points="1824.46,-30.99 1832.03,-23.57 1821.49,-24.66 1824.46,-30.99"/>
</g>
<!-- &#45;11&#45;&gt;7 -->
<g id="edge202" class="edge">
<title>&#45;11&#45;&gt;7</title>
<path fill="none" stroke="green" stroke-width="0.29" d="M131.97,-143.88C121.83,-126.74 102.24,-87.09 123.19,-65.7 157.12,-31.06 1820.88,-40.3 1868.19,-29.7 1871.26,-29.01 1874.39,-28.01 1877.43,-26.86"/>
<polygon fill="green" stroke="green" stroke-width="0.29" points="1878.86,-30.05 1886.62,-22.84 1876.06,-23.64 1878.86,-30.05"/>
</g>
<!-- &#45;11&#45;&gt;9 -->
<g id="edge50" class="edge">
<title>&#45;11&#45;&gt;9</title>
<path fill="none" stroke="red" stroke-width="0.1" d="M152.09,-151.45C290.2,-145.16 1346.48,-97.09 1523.17,-89.05"/>
<polygon fill="red" stroke="red" stroke-width="0.1" points="1523.47,-92.54 1533.3,-88.59 1523.15,-85.55 1523.47,-92.54"/>
</g>
<!-- &#45;11&#45;&gt;10 -->
<g id="edge51" class="edge">
<title>&#45;11&#45;&gt;10</title>
<path fill="none" stroke="green" stroke-width="0.26" d="M151.83,-151.78C318.89,-147.88 1860.4,-111.77 1871.19,-108.12 1873.32,-107.41 1875.42,-106.47 1877.46,-105.39"/>
<polygon fill="green" stroke="green" stroke-width="0.26" points="1879.34,-108.34 1885.88,-100 1875.57,-102.44 1879.34,-108.34"/>
</g>
<!-- &#45;11&#45;&gt;11 -->
<g id="edge52" class="edge">
<title>&#45;11&#45;&gt;11</title>
<path fill="none" stroke="red" stroke-width="0.11" d="M151.81,-151.78C321.96,-147.77 1920.62,-110 1926.19,-108.12 1928.32,-107.41 1930.42,-106.47 1932.46,-105.39"/>
<polygon fill="red" stroke="red" stroke-width="0.11" points="1934.34,-108.34 1940.88,-100 1930.57,-102.44 1934.34,-108.34"/>
</g>
<!-- &#45;11&#45;&gt;12 -->
<g id="edge53" class="edge">
<title>&#45;11&#45;&gt;12</title>
<path fill="none" stroke="red" stroke-width="0.32" d="M152,-151.73C294.66,-147.89 1423.09,-117.35 1572.19,-108.12 1639.97,-103.93 1719.36,-95.69 1760.78,-91.13"/>
<polygon fill="red" stroke="red" stroke-width="0.32" points="1761.38,-94.58 1770.93,-90 1760.61,-87.62 1761.38,-94.58"/>
</g>
<!-- &#45;11&#45;&gt;13 -->
<g id="edge54" class="edge">
<title>&#45;11&#45;&gt;13</title>
<path fill="none" stroke="red" stroke-width="0.12" d="M151.87,-151.77C316.21,-147.79 1805.75,-111.65 1816.19,-108.12 1818.32,-107.41 1820.42,-106.47 1822.46,-105.39"/>
<polygon fill="red" stroke="red" stroke-width="0.12" points="1824.34,-108.34 1830.88,-100 1820.57,-102.44 1824.34,-108.34"/>
</g>
<!-- &#45;12 -->
<g id="node12" class="node">
<title>&#45;12</title>
<polygon fill="lightgray" stroke="black" points="1940.69,-162.12 1911.69,-162.12 1911.69,-144.12 1940.69,-144.12 1940.69,-162.12"/>
<text text-anchor="middle" x="1926.19" y="-150.92" font-family="Times New Roman,serif" font-size="9.00">&#45;12</text>
</g>
<!-- &#45;12&#45;&gt;0 -->
<g id="edge203" class="edge">
<title>&#45;12&#45;&gt;0</title>
<path fill="none" stroke="green" stroke-width="0.26" d="M1940.92,-151.67C2055.21,-148.14 2796.52,-124.6 2812.19,-108.12 2825.19,-94.46 2825.14,-79.41 2812.19,-65.7 2808.52,-61.8 2120.21,-24.74 1979.24,-17.19"/>
<polygon fill="green" stroke="green" stroke-width="0.26" points="1979.19,-13.68 1969.02,-16.64 1978.82,-20.67 1979.19,-13.68"/>
</g>
<!-- &#45;12&#45;&gt;1 -->
<g id="edge204" class="edge">
<title>&#45;12&#45;&gt;1</title>
<path fill="none" stroke="red" stroke-width="0.4" d="M1940.92,-151.76C2082.55,-148.24 3198.58,-120.14 3210.19,-108.12 3223.3,-94.57 3223.08,-79.46 3210.19,-65.7 3158.85,-10.88 2600.69,-14.08 2474.47,-15.51"/>
<polygon fill="red" stroke="red" stroke-width="0.4" points="2474.2,-12.01 2464.24,-15.63 2474.28,-19.01 2474.2,-12.01"/>
</g>
<!-- &#45;12&#45;&gt;2 -->
<g id="edge205" class="edge">
<title>&#45;12&#45;&gt;2</title>
<path fill="none" stroke="green" stroke-width="0.45" d="M1911.57,-149.85C1865.47,-142.59 1725.2,-119.77 1708.19,-108.12 1683.41,-91.15 1666.75,-59.98 1657.62,-38.61"/>
<polygon fill="green" stroke="green" stroke-width="0.45" points="1660.84,-37.24 1653.85,-29.28 1654.35,-39.87 1660.84,-37.24"/>
</g>
<!-- &#45;12&#45;&gt;3 -->
<g id="edge206" class="edge">
<title>&#45;12&#45;&gt;3</title>
<path fill="none" stroke="red" stroke-width="0.14" d="M1911.43,-149.37C1869.98,-141.54 1754.64,-118.99 1741.19,-108.12 1719.82,-90.85 1708.21,-60.72 1702.36,-39.6"/>
<polygon fill="red" stroke="red" stroke-width="0.14" points="1705.72,-38.61 1699.88,-29.77 1698.94,-40.32 1705.72,-38.61"/>
</g>
<!-- &#45;12&#45;&gt;4 -->
<g id="edge207" class="edge">
<title>&#45;12&#45;&gt;4</title>
<path fill="none" stroke="green" stroke-width="0.56" d="M1911.44,-150.19C1875.07,-145.11 1782.64,-130.27 1762.19,-108.12 1745.34,-89.86 1742.53,-60.59 1743.02,-39.92"/>
<polygon fill="green" stroke="green" stroke-width="0.56" points="1746.53,-39.89 1743.54,-29.72 1739.54,-39.53 1746.53,-39.89"/>
</g>
<!-- &#45;12&#45;&gt;5 -->
<g id="edge208" class="edge">
<title>&#45;12&#45;&gt;5</title>
<path fill="none" stroke="green" stroke-width="0.62" d="M1940.78,-145.24C1954.08,-138.06 1972.88,-125.43 1981.19,-108.12 1989.36,-91.13 1992.98,-80.41 1981.19,-65.7 1935.35,-8.47 1889.15,-54.63 1820.19,-29.7 1818.53,-29.1 1816.83,-28.41 1815.14,-27.68"/>
<polygon fill="green" stroke="green" stroke-width="0.62" points="1816.33,-24.37 1805.81,-23.16 1813.28,-30.67 1816.33,-24.37"/>
</g>
<!-- &#45;12&#45;&gt;6 -->
<g id="edge209" class="edge">
<title>&#45;12&#45;&gt;6</title>
<path fill="none" stroke="red" stroke-width="0.27" d="M1940.76,-148.24C1958.45,-142.65 1987.48,-130.47 2000.19,-108.12 2009.52,-91.73 2011.53,-80.76 2000.19,-65.7 1965.43,-19.51 1929.5,-49.54 1875.19,-29.7 1872.39,-28.67 1869.49,-27.51 1866.63,-26.31"/>
<polygon fill="red" stroke="red" stroke-width="0.27" points="1867.86,-23.03 1857.3,-22.19 1865.04,-29.43 1867.86,-23.03"/>
</g>
<!-- &#45;12&#45;&gt;7 -->
<g id="edge210" class="edge">
<title>&#45;12&#45;&gt;7</title>
<path fill="none" stroke="red" stroke-width="0.21" d="M1940.75,-152C2020.1,-151.18 2398.08,-145.34 2432.19,-108.12 2444.94,-94.23 2445.04,-79.5 2432.19,-65.7 2394.09,-24.77 1984.43,-43.31 1930.19,-29.7 1927.3,-28.97 1924.34,-27.99 1921.45,-26.89"/>
<polygon fill="red" stroke="red" stroke-width="0.21" points="1922.67,-23.6 1912.11,-22.83 1919.89,-30.02 1922.67,-23.6"/>
</g>
<!-- &#45;12&#45;&gt;8 -->
<g id="edge211" class="edge">
<title>&#45;12&#45;&gt;8</title>
<path fill="none" stroke="green" stroke-width="0.17" d="M1940.71,-151.76C2080.36,-148.22 3180.75,-119.98 3192.19,-108.12 3205.29,-94.56 3205.21,-79.34 3192.19,-65.7 3162.75,-34.84 2467.78,-32.25 2425.19,-29.7 2365.95,-26.15 2296.41,-20.77 2260.12,-17.87"/>
<polygon fill="green" stroke="green" stroke-width="0.17" points="2260.22,-14.37 2249.97,-17.06 2259.66,-21.35 2260.22,-14.37"/>
</g>
<!-- &#45;12&#45;&gt;9 -->
<g id="edge55" class="edge">
<title>&#45;12&#45;&gt;9</title>
<path fill="none" stroke="green" stroke-width="0.15" d="M1911.67,-149.94C1870.86,-143.78 1751.76,-125.55 1653.19,-108.12 1625.51,-103.23 1593.85,-97.06 1572.59,-92.83"/>
<polygon fill="green" stroke="green" stroke-width="0.15" points="1573.27,-89.39 1562.78,-90.86 1571.9,-96.26 1573.27,-89.39"/>
</g>
<!-- &#45;12&#45;&gt;10 -->
<g id="edge56" class="edge">
<title>&#45;12&#45;&gt;10</title>
<path fill="none" stroke="green" stroke-width="0.16" d="M1922.78,-143.99C1919.56,-136.34 1914.57,-124.48 1910.01,-113.63"/>
<polygon fill="green" stroke="green" stroke-width="0.16" points="1913.1,-111.96 1906,-104.1 1906.65,-114.67 1913.1,-111.96"/>
</g>
<!-- &#45;12&#45;&gt;11 -->
<g id="edge57" class="edge">
<title>&#45;12&#45;&gt;11</title>
<path fill="none" stroke="red" stroke-width="0.34" d="M1929.74,-143.99C1933.11,-136.27 1938.36,-124.24 1943.13,-113.3"/>
<polygon fill="red" stroke="red" stroke-width="0.34" points="1946.35,-114.67 1947.14,-104.1 1939.93,-111.87 1946.35,-114.67"/>
</g>
<!-- &#45;12&#45;&gt;12 -->
<g id="edge58" class="edge">
<title>&#45;12&#45;&gt;12</title>
<path fill="none" stroke="red" stroke-width="0.52" d="M1911.58,-147.49C1890.18,-140.42 1849.35,-125.88 1817.19,-108.12 1815.42,-107.15 1813.63,-106.08 1811.86,-104.95"/>
<polygon fill="red" stroke="red" stroke-width="0.52" points="1813.52,-101.85 1803.29,-99.1 1809.57,-107.63 1813.52,-101.85"/>
</g>
<!-- &#45;12&#45;&gt;13 -->
<g id="edge59" class="edge">
<title>&#45;12&#45;&gt;13</title>
<path fill="none" stroke="green" stroke-width="0.22" d="M1915.81,-143.99C1903.41,-134.28 1882.32,-117.76 1866.23,-105.16"/>
<polygon fill="green" stroke="green" stroke-width="0.22" points="1868.37,-102.4 1858.34,-98.99 1864.05,-107.91 1868.37,-102.4"/>
</g>
<!-- 9&#45;&gt;0 -->
<g id="edge60" class="edge">
<title>9&#45;&gt;0</title>
<path fill="none" stroke="red" stroke-width="0.18" d="M1563.16,-85.13C1614.38,-82.13 1787.03,-69.51 1923.19,-29.7 1926.06,-28.86 1929,-27.81 1931.88,-26.67"/>
<polygon fill="red" stroke="red" stroke-width="0.18" points="1933.46,-29.8 1941.22,-22.59 1930.65,-23.39 1933.46,-29.8"/>
</g>
<!-- 9&#45;&gt;1 -->
<g id="edge61" class="edge">
<title>9&#45;&gt;1</title>
<path fill="none" stroke="red" stroke-width="0.2" d="M1562.97,-84.4C1597.71,-80.88 1687.26,-71.95 1762.19,-65.7 1982.9,-47.28 2038.31,-45.75 2259.19,-29.7 2318.39,-25.4 2387.95,-20.32 2424.26,-17.67"/>
<polygon fill="red" stroke="red" stroke-width="0.2" points="2424.69,-21.15 2434.41,-16.93 2424.18,-14.17 2424.69,-21.15"/>
</g>
<!-- 9&#45;&gt;2 -->
<g id="edge62" class="edge">
<title>9&#45;&gt;2</title>
<path fill="none" stroke="red" stroke-width="0.17" d="M1560.04,-77.64C1565.29,-73.98 1571.55,-69.62 1577.19,-65.7 1594.61,-53.6 1614.41,-39.89 1628.84,-29.92"/>
<polygon fill="red" stroke="red" stroke-width="0.17" points="1631.23,-32.52 1637.46,-23.95 1627.25,-26.76 1631.23,-32.52"/>
</g>
<!-- 9&#45;&gt;3 -->
<g id="edge63" class="edge">
<title>9&#45;&gt;3</title>
<path fill="none" stroke="green" stroke-width="0.17" d="M1559.62,-76.95C1564.8,-73.16 1571.11,-68.9 1577.19,-65.7 1617.53,-44.51 1631.99,-49.15 1673.19,-29.7 1674.03,-29.3 1674.88,-28.89 1675.73,-28.46"/>
<polygon fill="green" stroke="green" stroke-width="0.17" points="1677.59,-31.43 1684.7,-23.58 1674.24,-25.29 1677.59,-31.43"/>
</g>
<!-- 9&#45;&gt;4 -->
<g id="edge64" class="edge">
<title>9&#45;&gt;4</title>
<path fill="none" stroke="green" stroke-width="0.97" d="M1559.19,-76.83C1564.38,-72.92 1570.83,-68.59 1577.19,-65.7 1637.25,-38.39 1660.03,-54.42 1721.19,-29.7 1722.05,-29.35 1722.92,-28.98 1723.78,-28.58"/>
<polygon fill="green" stroke="green" stroke-width="0.97" points="1725.58,-31.6 1732.82,-23.86 1722.34,-25.39 1725.58,-31.6"/>
</g>
<!-- 9&#45;&gt;5 -->
<g id="edge65" class="edge">
<title>9&#45;&gt;5</title>
<path fill="none" stroke="green" stroke-width="0.6" d="M1559.11,-76.65C1564.29,-72.71 1570.74,-68.4 1577.19,-65.7 1657.26,-32.13 1687.77,-59.82 1769.19,-29.7 1770.06,-29.38 1770.94,-29.03 1771.81,-28.65"/>
<polygon fill="green" stroke="green" stroke-width="0.6" points="1773.57,-31.68 1780.88,-24.02 1770.38,-25.45 1773.57,-31.68"/>
</g>
<!-- 9&#45;&gt;6 -->
<g id="edge66" class="edge">
<title>9&#45;&gt;6</title>
<path fill="none" stroke="red" stroke-width="0.16" d="M1561.92,-81.26C1575.38,-76.82 1596.52,-70.16 1615.19,-65.7 1703.89,-44.49 1730.78,-58.83 1817.19,-29.7 1818.88,-29.13 1820.58,-28.47 1822.28,-27.76"/>
<polygon fill="red" stroke="red" stroke-width="0.16" points="1824.12,-30.76 1831.63,-23.28 1821.1,-24.45 1824.12,-30.76"/>
</g>
<!-- 9&#45;&gt;7 -->
<g id="edge67" class="edge">
<title>9&#45;&gt;7</title>
<path fill="none" stroke="red" stroke-width="0.16" d="M1563.17,-84.6C1609.44,-80.28 1753.85,-64.7 1868.19,-29.7 1871.05,-28.83 1873.99,-27.76 1876.86,-26.6"/>
<polygon fill="red" stroke="red" stroke-width="0.16" points="1878.44,-29.73 1886.2,-22.52 1875.63,-23.32 1878.44,-29.73"/>
</g>
<!-- 9&#45;&gt;8 -->
<g id="edge68" class="edge">
<title>9&#45;&gt;8</title>
<path fill="none" stroke="green" stroke-width="0.61" d="M1562.86,-84.42C1649.91,-75.54 2098.65,-29.77 2210.11,-18.41"/>
<polygon fill="green" stroke="green" stroke-width="0.61" points="2210.78,-21.86 2220.37,-17.36 2210.07,-14.89 2210.78,-21.86"/>
</g>
<!-- 10&#45;&gt;0 -->
<g id="edge69" class="edge">
<title>10&#45;&gt;0</title>
<path fill="none" stroke="red" stroke-width="0.16" d="M1910.06,-72.07C1918.32,-61.54 1929.8,-46.93 1938.97,-35.24"/>
<polygon fill="red" stroke="red" stroke-width="0.16" points="1941.75,-37.37 1945.17,-27.35 1936.24,-33.05 1941.75,-37.37"/>
</g>
<!-- 10&#45;&gt;1 -->
<g id="edge70" class="edge">
<title>10&#45;&gt;1</title>
<path fill="none" stroke="red" stroke-width="0.1" d="M1912.59,-74.05C1916.97,-70.8 1922.03,-67.64 1927.19,-65.7 1950.75,-56.83 2323.35,-26.07 2424.2,-17.87"/>
<polygon fill="red" stroke="red" stroke-width="0.1" points="2424.67,-21.34 2434.36,-17.05 2424.11,-14.37 2424.67,-21.34"/>
</g>
<!-- 10&#45;&gt;2 -->
<g id="edge71" class="edge">
<title>10&#45;&gt;2</title>
<path fill="none" stroke="red" stroke-width="0.34" d="M1885.69,-74.31C1881.31,-71.08 1876.27,-67.86 1871.19,-65.7 1788.9,-30.66 1757.17,-60.5 1673.19,-29.7 1672.33,-29.38 1671.45,-29.03 1670.58,-28.66"/>
<polygon fill="red" stroke="red" stroke-width="0.34" points="1672,-25.45 1661.5,-24.03 1668.82,-31.69 1672,-25.45"/>
</g>
<!-- 10&#45;&gt;3 -->
<g id="edge72" class="edge">
<title>10&#45;&gt;3</title>
<path fill="none" stroke="green" stroke-width="0.24" d="M1885.62,-74.49C1881.23,-71.26 1876.21,-68 1871.19,-65.7 1808.89,-37.09 1784.88,-55.09 1721.19,-29.7 1720.33,-29.36 1719.47,-28.99 1718.6,-28.6"/>
<polygon fill="green" stroke="green" stroke-width="0.24" points="1720.04,-25.4 1709.56,-23.89 1716.81,-31.61 1720.04,-25.4"/>
</g>
<!-- 10&#45;&gt;4 -->
<g id="edge73" class="edge">
<title>10&#45;&gt;4</title>
<path fill="none" stroke="red" stroke-width="0.23" d="M1885.17,-74.59C1880.86,-71.44 1875.98,-68.2 1871.19,-65.7 1828.6,-43.4 1812.87,-49.8 1769.19,-29.7 1768.35,-29.31 1767.5,-28.9 1766.65,-28.48"/>
<polygon fill="red" stroke="red" stroke-width="0.23" points="1768.13,-25.3 1757.67,-23.63 1764.8,-31.46 1768.13,-25.3"/>
</g>
<!-- 10&#45;&gt;5 -->
<g id="edge74" class="edge">
<title>10&#45;&gt;5</title>
<path fill="none" stroke="green" stroke-width="0.38" d="M1884.77,-75.26C1880.44,-72.13 1875.66,-68.73 1871.19,-65.7 1852.08,-52.71 1829.84,-38.59 1814,-28.7"/>
<polygon fill="green" stroke="green" stroke-width="0.38" points="1815.83,-25.72 1805.49,-23.41 1812.14,-31.66 1815.83,-25.72"/>
</g>
<!-- 10&#45;&gt;6 -->
<g id="edge75" class="edge">
<title>10&#45;&gt;6</title>
<path fill="none" stroke="green" stroke-width="0.42" d="M1888.33,-72.07C1880.07,-61.54 1868.59,-46.93 1859.42,-35.24"/>
<polygon fill="green" stroke="green" stroke-width="0.42" points="1862.15,-33.05 1853.22,-27.35 1856.64,-37.37 1862.15,-33.05"/>
</g>
<!-- 10&#45;&gt;7 -->
<g id="edge76" class="edge">
<title>10&#45;&gt;7</title>
<path fill="none" stroke="green" stroke-width="0.49" d="M1899.19,-68.23C1899.19,-59.72 1899.19,-49.39 1899.19,-40.16"/>
<polygon fill="green" stroke="green" stroke-width="0.49" points="1902.69,-40 1899.19,-30 1895.69,-40 1902.69,-40"/>
</g>
<!-- 10&#45;&gt;8 -->
<g id="edge77" class="edge">
<title>10&#45;&gt;8</title>
<path fill="none" stroke="green" stroke-width="0.26" d="M1912.67,-74.25C1917.05,-71.01 1922.1,-67.81 1927.19,-65.7 2026.21,-24.67 2156.17,-17.28 2210.08,-16.05"/>
<polygon fill="green" stroke="green" stroke-width="0.26" points="2210.17,-19.54 2220.1,-15.87 2210.04,-12.55 2210.17,-19.54"/>
</g>
<!-- 11&#45;&gt;0 -->
<g id="edge78" class="edge">
<title>11&#45;&gt;0</title>
<path fill="none" stroke="green" stroke-width="0.16" d="M1954.19,-68.23C1954.19,-59.72 1954.19,-49.39 1954.19,-40.16"/>
<polygon fill="green" stroke="green" stroke-width="0.16" points="1957.69,-40 1954.19,-30 1950.69,-40 1957.69,-40"/>
</g>
<!-- 11&#45;&gt;1 -->
<g id="edge79" class="edge">
<title>11&#45;&gt;1</title>
<path fill="none" stroke="red" stroke-width="0.15" d="M1972.4,-83.34C2048,-72.63 2337.33,-31.68 2424.32,-19.37"/>
<polygon fill="red" stroke="red" stroke-width="0.15" points="2424.92,-22.82 2434.33,-17.95 2423.94,-15.89 2424.92,-22.82"/>
</g>
<!-- 11&#45;&gt;2 -->
<g id="edge80" class="edge">
<title>11&#45;&gt;2</title>
<path fill="none" stroke="red" stroke-width="0.4" d="M1940.74,-74.19C1936.37,-70.95 1931.31,-67.76 1926.19,-65.7 1820.86,-23.22 1780.56,-66.76 1673.19,-29.7 1672.32,-29.4 1671.44,-29.06 1670.56,-28.7"/>
<polygon fill="red" stroke="red" stroke-width="0.4" points="1671.97,-25.49 1661.47,-24.13 1668.83,-31.75 1671.97,-25.49"/>
</g>
<!-- 11&#45;&gt;3 -->
<g id="edge81" class="edge">
<title>11&#45;&gt;3</title>
<path fill="none" stroke="red" stroke-width="0.14" d="M1940.7,-74.3C1936.32,-71.06 1931.28,-67.84 1926.19,-65.7 1840.98,-29.71 1808.14,-61.3 1721.19,-29.7 1720.32,-29.38 1719.45,-29.04 1718.57,-28.66"/>
<polygon fill="red" stroke="red" stroke-width="0.14" points="1720,-25.46 1709.5,-24.05 1716.82,-31.7 1720,-25.46"/>
</g>
<!-- 11&#45;&gt;4 -->
<g id="edge82" class="edge">
<title>11&#45;&gt;4</title>
<path fill="none" stroke="green" stroke-width="0.4" d="M1940.63,-74.46C1936.25,-71.23 1931.22,-67.97 1926.19,-65.7 1860.98,-36.16 1835.82,-55.88 1769.19,-29.7 1768.33,-29.36 1767.46,-28.99 1766.6,-28.61"/>
<polygon fill="green" stroke="green" stroke-width="0.4" points="1768.03,-25.41 1757.55,-23.91 1764.81,-31.62 1768.03,-25.41"/>
</g>
<!-- 11&#45;&gt;5 -->
<g id="edge83" class="edge">
<title>11&#45;&gt;5</title>
<path fill="none" stroke="green" stroke-width="0.25" d="M1940.19,-74.56C1935.87,-71.41 1930.99,-68.17 1926.19,-65.7 1881.98,-42.88 1866.01,-49.1 1820.19,-29.7 1818.56,-29.01 1816.89,-28.26 1815.22,-27.48"/>
<polygon fill="green" stroke="green" stroke-width="0.25" points="1816.43,-24.17 1805.92,-22.86 1813.32,-30.44 1816.43,-24.17"/>
</g>
<!-- 11&#45;&gt;6 -->
<g id="edge84" class="edge">
<title>11&#45;&gt;6</title>
<path fill="none" stroke="red" stroke-width="0.19" d="M1939.82,-75.2C1935.49,-72.07 1930.69,-68.68 1926.19,-65.7 1906.12,-52.38 1882.56,-38.2 1865.85,-28.38"/>
<polygon fill="red" stroke="red" stroke-width="0.19" points="1867.29,-25.17 1856.89,-23.15 1863.76,-31.21 1867.29,-25.17"/>
</g>
<!-- 11&#45;&gt;7 -->
<g id="edge85" class="edge">
<title>11&#45;&gt;7</title>
<path fill="none" stroke="green" stroke-width="0.32" d="M1943.33,-72.07C1935.07,-61.54 1923.59,-46.93 1914.42,-35.24"/>
<polygon fill="green" stroke="green" stroke-width="0.32" points="1917.15,-33.05 1908.22,-27.35 1911.64,-37.37 1917.15,-33.05"/>
</g>
<!-- 11&#45;&gt;8 -->
<g id="edge86" class="edge">
<title>11&#45;&gt;8</title>
<path fill="none" stroke="red" stroke-width="0.18" d="M1972.2,-81.42C2020.92,-69.28 2155.38,-35.75 2210.81,-21.93"/>
<polygon fill="red" stroke="red" stroke-width="0.18" points="2211.94,-25.25 2220.8,-19.44 2210.25,-18.46 2211.94,-25.25"/>
</g>
<!-- 12&#45;&gt;0 -->
<g id="edge87" class="edge">
<title>12&#45;&gt;0</title>
<path fill="none" stroke="green" stroke-width="0.45" d="M1803.2,-74.56C1807.52,-71.41 1812.4,-68.17 1817.19,-65.7 1861.41,-42.88 1876.88,-47.87 1923.19,-29.7 1925.97,-28.61 1928.86,-27.41 1931.72,-26.18"/>
<polygon fill="green" stroke="green" stroke-width="0.45" points="1933.31,-29.31 1941.03,-22.05 1930.47,-22.91 1933.31,-29.31"/>
</g>
<!-- 12&#45;&gt;1 -->
<g id="edge88" class="edge">
<title>12&#45;&gt;1</title>
<path fill="none" stroke="red" stroke-width="0.25" d="M1802.57,-74C1806.94,-70.75 1812.02,-67.6 1817.19,-65.7 1824.47,-63.03 2308.17,-26.47 2424.32,-17.72"/>
<polygon fill="red" stroke="red" stroke-width="0.25" points="2424.68,-21.2 2434.39,-16.96 2424.15,-14.22 2424.68,-21.2"/>
</g>
<!-- 12&#45;&gt;2 -->
<g id="edge89" class="edge">
<title>12&#45;&gt;2</title>
<path fill="none" stroke="green" stroke-width="0.18" d="M1772.49,-78.28C1749.77,-67.79 1708,-48.14 1673.19,-29.7 1672.38,-29.26 1671.55,-28.82 1670.71,-28.36"/>
<polygon fill="green" stroke="green" stroke-width="0.18" points="1672.24,-25.21 1661.8,-23.35 1668.8,-31.31 1672.24,-25.21"/>
</g>
<!-- 12&#45;&gt;3 -->
<g id="edge90" class="edge">
<title>12&#45;&gt;3</title>
<path fill="none" stroke="green" stroke-width="0.21" d="M1774.82,-74.96C1759.24,-63.1 1734.28,-44.09 1716.89,-30.85"/>
<polygon fill="green" stroke="green" stroke-width="0.21" points="1718.64,-27.78 1708.57,-24.51 1714.4,-33.35 1718.64,-27.78"/>
</g>
<!-- 12&#45;&gt;4 -->
<g id="edge91" class="edge">
<title>12&#45;&gt;4</title>
<path fill="none" stroke="green" stroke-width="0.14" d="M1779.86,-71.05C1773.56,-61.01 1765.14,-47.61 1758.18,-36.53"/>
<polygon fill="green" stroke="green" stroke-width="0.14" points="1761.04,-34.5 1752.76,-27.89 1755.11,-38.22 1761.04,-34.5"/>
</g>
<!-- 12&#45;&gt;5 -->
<g id="edge92" class="edge">
<title>12&#45;&gt;5</title>
<path fill="none" stroke="red" stroke-width="0.27" d="M1790.2,-68.23C1790.69,-59.72 1791.28,-49.39 1791.81,-40.16"/>
<polygon fill="red" stroke="red" stroke-width="0.27" points="1795.31,-40.18 1792.39,-30 1788.32,-39.78 1795.31,-40.18"/>
</g>
<!-- 12&#45;&gt;6 -->
<g id="edge93" class="edge">
<title>12&#45;&gt;6</title>
<path fill="none" stroke="red" stroke-width="0.77" d="M1800.06,-72.07C1808.32,-61.54 1819.8,-46.93 1828.97,-35.24"/>
<polygon fill="red" stroke="red" stroke-width="0.77" points="1831.75,-37.37 1835.17,-27.35 1826.24,-33.05 1831.75,-37.37"/>
</g>
<!-- 12&#45;&gt;7 -->
<g id="edge94" class="edge">
<title>12&#45;&gt;7</title>
<path fill="none" stroke="green" stroke-width="0.13" d="M1803.57,-75.2C1807.9,-72.07 1812.7,-68.68 1817.19,-65.7 1837.27,-52.38 1860.83,-38.2 1877.54,-28.38"/>
<polygon fill="green" stroke="green" stroke-width="0.13" points="1879.63,-31.21 1886.5,-23.15 1876.1,-25.17 1879.63,-31.21"/>
</g>
<!-- 12&#45;&gt;8 -->
<g id="edge95" class="edge">
<title>12&#45;&gt;8</title>
<path fill="none" stroke="red" stroke-width="0.14" d="M1802.62,-74.12C1806.99,-70.88 1812.06,-67.7 1817.19,-65.7 1889.71,-37.41 2130.98,-21.68 2209.94,-17.2"/>
<polygon fill="red" stroke="red" stroke-width="0.14" points="2210.58,-20.67 2220.37,-16.62 2210.19,-13.68 2210.58,-20.67"/>
</g>
<!-- 13&#45;&gt;0 -->
<g id="edge96" class="edge">
<title>13&#45;&gt;0</title>
<path fill="none" stroke="red" stroke-width="0.16" d="M1858.57,-75.2C1862.9,-72.07 1867.7,-68.68 1872.19,-65.7 1892.27,-52.38 1915.83,-38.2 1932.54,-28.38"/>
<polygon fill="red" stroke="red" stroke-width="0.16" points="1934.63,-31.21 1941.5,-23.15 1931.1,-25.17 1934.63,-31.21"/>
</g>
<!-- 13&#45;&gt;1 -->
<g id="edge97" class="edge">
<title>13&#45;&gt;1</title>
<path fill="none" stroke="green" stroke-width="0.27" d="M1857.58,-74.02C1861.95,-70.77 1867.02,-67.62 1872.19,-65.7 1898.45,-55.94 2316.28,-25.39 2424.01,-17.65"/>
<polygon fill="green" stroke="green" stroke-width="0.27" points="2424.53,-21.12 2434.26,-16.91 2424.03,-14.14 2424.53,-21.12"/>
</g>
<!-- 13&#45;&gt;2 -->
<g id="edge98" class="edge">
<title>13&#45;&gt;2</title>
<path fill="none" stroke="red" stroke-width="0.68" d="M1830.6,-74.52C1826.22,-71.29 1821.19,-68.03 1816.19,-65.7 1756.79,-38.02 1733.94,-54.31 1673.19,-29.7 1672.34,-29.35 1671.47,-28.98 1670.61,-28.58"/>
<polygon fill="red" stroke="red" stroke-width="0.68" points="1672.05,-25.39 1661.57,-23.86 1668.81,-31.59 1672.05,-25.39"/>
</g>
<!-- 13&#45;&gt;3 -->
<g id="edge99" class="edge">
<title>13&#45;&gt;3</title>
<path fill="none" stroke="green" stroke-width="0.31" d="M1830.14,-74.66C1825.82,-71.51 1820.95,-68.26 1816.19,-65.7 1776.44,-44.3 1761.99,-49.04 1721.19,-29.7 1720.36,-29.3 1719.51,-28.89 1718.66,-28.46"/>
<polygon fill="green" stroke="green" stroke-width="0.31" points="1720.15,-25.28 1709.69,-23.57 1716.8,-31.43 1720.15,-25.28"/>
</g>
<!-- 13&#45;&gt;4 -->
<g id="edge100" class="edge">
<title>13&#45;&gt;4</title>
<path fill="none" stroke="red" stroke-width="0.31" d="M1829.69,-75.38C1825.36,-72.26 1820.59,-68.83 1816.19,-65.7 1799.29,-53.66 1780.01,-40.14 1765.81,-30.22"/>
<polygon fill="red" stroke="red" stroke-width="0.31" points="1767.49,-27.12 1757.29,-24.27 1763.49,-32.86 1767.49,-27.12"/>
</g>
<!-- 13&#45;&gt;5 -->
<g id="edge101" class="edge">
<title>13&#45;&gt;5</title>
<path fill="none" stroke="red" stroke-width="0.3" d="M1833.63,-71.39C1826.17,-61.15 1816.08,-47.28 1807.84,-35.97"/>
<polygon fill="red" stroke="red" stroke-width="0.3" points="1810.44,-33.59 1801.72,-27.56 1804.78,-37.71 1810.44,-33.59"/>
</g>
<!-- 13&#45;&gt;6 -->
<g id="edge102" class="edge">
<title>13&#45;&gt;6</title>
<path fill="none" stroke="green" stroke-width="0.41" d="M1844.19,-68.23C1844.19,-59.72 1844.19,-49.39 1844.19,-40.16"/>
<polygon fill="green" stroke="green" stroke-width="0.41" points="1847.69,-40 1844.19,-30 1840.69,-40 1847.69,-40"/>
</g>
<!-- 13&#45;&gt;7 -->
<g id="edge103" class="edge">
<title>13&#45;&gt;7</title>
<path fill="none" stroke="green" stroke-width="0.54" d="M1855.06,-72.07C1863.32,-61.54 1874.8,-46.93 1883.97,-35.24"/>
<polygon fill="green" stroke="green" stroke-width="0.54" points="1886.75,-37.37 1890.17,-27.35 1881.24,-33.05 1886.75,-37.37"/>
</g>
<!-- 13&#45;&gt;8 -->
<g id="edge104" class="edge">
<title>13&#45;&gt;8</title>
<path fill="none" stroke="green" stroke-width="0.22" d="M1857.64,-74.18C1862.02,-70.94 1867.07,-67.75 1872.19,-65.7 1991.72,-17.84 2149.16,-14.5 2209.84,-15.2"/>
<polygon fill="green" stroke="green" stroke-width="0.22" points="2209.96,-18.7 2220.01,-15.36 2210.07,-11.7 2209.96,-18.7"/>
</g>
<!-- 173&#45;&gt;1 -->
<g id="edge213" class="edge">
<title>173&#45;&gt;1</title>
<path fill="none" stroke="red" stroke-width="0.2" d="M4008.15,-73.84C4002.67,-70.58 3996.4,-67.47 3990.19,-65.7 3838.69,-22.46 2662.44,-16.59 2474.48,-15.93"/>
<polygon fill="red" stroke="red" stroke-width="0.2" points="2474.23,-12.42 2464.22,-15.89 2474.21,-19.42 2474.23,-12.42"/>
</g>
</g>
</svg>
